<svg width="1475" height="1639" viewBox="0 0 1475 1639" fill="none" xmlns="http://www.w3.org/2000/svg">
    <g clip-path="url(#clip0)">
        <path d="M1338.15 158.434C1338.49 151.443 1331.95 135.603 1319.01 133.965C1325 132.165 1338.81 128.433 1340.49 110.93C1340.69 120.127 1346.39 134.779 1359.28 135.956C1359.89 135.924 1360.46 135.949 1360.96 136.031C1360.39 136.031 1359.83 136.006 1359.28 135.956C1352.41 136.309 1339.5 143.792 1338.15 158.434Z" fill="#FFBC17" />
        <path d="M1355.49 40C1355.68 36.0267 1352.09 27.0234 1345 26.0924C1348.28 25.0696 1355.85 22.9482 1356.78 13C1356.89 18.227 1360.01 26.5552 1367.08 27.224C1367.42 27.2061 1367.72 27.2204 1368 27.2669C1367.69 27.2669 1367.38 27.2523 1367.08 27.224C1363.32 27.4245 1356.23 31.6782 1355.49 40Z" fill="white" />
        <path d="M1355.49 874C1355.68 870.027 1352.09 861.023 1345 860.092C1348.28 859.07 1355.85 856.948 1356.78 847C1356.89 852.227 1360.01 860.555 1367.08 861.224C1367.42 861.206 1367.72 861.22 1368 861.267C1367.69 861.267 1367.38 861.252 1367.08 861.224C1363.32 861.425 1356.23 865.678 1355.49 874Z" fill="#FFF8E4" />
        <path d="M1359.88 668C1360.18 661.525 1354.41 646.853 1343 645.336C1348.28 643.669 1360.46 640.212 1361.94 624C1362.12 632.518 1367.15 646.09 1378.52 647.18C1379.06 647.151 1379.56 647.174 1380 647.25C1379.49 647.25 1379 647.226 1378.52 647.18C1372.46 647.507 1361.07 654.438 1359.88 668Z" fill="#FFF8E4" />
        <path d="M64.8805 480C65.1841 473.525 59.409 458.853 48 457.336C53.2813 455.669 65.4605 452.212 66.9434 436C67.1213 444.518 72.1469 458.09 83.5193 459.18C84.0589 459.151 84.5562 459.174 85 459.25C84.4949 459.25 84.0014 459.226 83.5193 459.18C77.4639 459.507 66.069 466.438 64.8805 480Z" fill="#FFF8E4" />
        <path d="M78.5675 79C79.1171 67.3745 68.6596 41.0315 48 38.3074C57.5635 35.3147 79.6176 29.1077 82.3029 4.77092e-06C82.6251 15.2938 91.7255 39.6616 112.319 41.6184C113.296 41.5661 114.196 41.6079 115 41.744C114.085 41.744 113.192 41.7013 112.319 41.6184C101.354 42.2052 80.7196 54.6509 78.5675 79Z" fill="white" />
        <path d="M32.2492 147C32.5774 140.084 26.3341 124.411 14 122.79C19.7096 121.01 32.8762 117.317 34.4793 100C34.6717 109.099 40.1047 123.596 52.3992 124.76C52.9826 124.729 53.5202 124.754 54 124.835C53.454 124.835 52.9204 124.81 52.3992 124.76C45.8529 125.109 33.5341 132.514 32.2492 147Z" fill="#FFBC17" />
        <path d="M15.5118 1083C15.7908 1077.11 10.484 1063.78 -2.01345e-06 1062.4C4.85312 1060.88 16.0448 1057.74 17.4074 1043C17.571 1050.74 22.189 1063.08 32.6394 1064.07C33.1352 1064.05 33.5922 1064.07 34 1064.14C33.5359 1064.14 33.0824 1064.11 32.6394 1064.07C27.0749 1064.37 16.604 1070.67 15.5118 1083Z" fill="#EA5023" />
        <path d="M1395.51 1206C1395.79 1200.11 1390.48 1186.78 1380 1185.4C1384.85 1183.88 1396.04 1180.74 1397.41 1166C1397.57 1173.74 1402.19 1186.08 1412.64 1187.07C1413.14 1187.05 1413.59 1187.07 1414 1187.14C1413.54 1187.14 1413.08 1187.11 1412.64 1187.07C1407.07 1187.37 1396.6 1193.67 1395.51 1206Z" fill="#EA5023" />
        <path d="M1368.04 1455C1368.22 1451.17 1364.78 1442.5 1358 1441.61C1361.14 1440.62 1368.38 1438.58 1369.26 1429C1369.37 1434.03 1372.36 1442.05 1379.12 1442.7C1379.44 1442.68 1379.74 1442.69 1380 1442.74C1379.7 1442.74 1379.41 1442.72 1379.12 1442.7C1375.52 1442.89 1368.74 1446.99 1368.04 1455Z" fill="#FFBC17" />
        <path d="M1348.49 263C1348.68 259.027 1345.09 250.023 1338 249.092C1341.28 248.07 1348.85 245.948 1349.78 236C1349.89 241.227 1353.01 249.555 1360.08 250.224C1360.42 250.206 1360.72 250.22 1361 250.267C1360.69 250.267 1360.38 250.252 1360.08 250.224C1356.32 250.425 1349.23 254.678 1348.49 263Z" fill="white" />
        <path d="M58.4933 887C58.682 883.027 55.0921 874.023 48 873.092C51.283 872.07 58.8538 869.948 59.7756 860C59.8862 865.227 63.0102 873.555 70.0796 874.224C70.415 874.206 70.7241 874.22 71 874.267C70.6861 874.267 70.3793 874.252 70.0796 874.224C66.3154 874.425 59.2321 878.678 58.4933 887Z" fill="#FFF8E4" />
        <path d="M316.567 1639C317.117 1627.37 306.66 1601.03 286 1598.31C295.564 1595.31 317.618 1589.11 320.303 1560C320.625 1575.29 329.725 1599.66 350.319 1601.62C351.296 1601.57 352.196 1601.61 353 1601.74C352.085 1601.74 351.192 1601.7 350.319 1601.62C339.354 1602.21 318.72 1614.65 316.567 1639Z" fill="white" />
        <path d="M734.567 118C735.117 106.374 724.66 80.0315 704 77.3074C713.564 74.3147 735.618 68.1077 738.303 39C738.625 54.2938 747.725 78.6616 768.319 80.6184C769.296 80.5661 770.196 80.6079 771 80.744C770.085 80.744 769.192 80.7013 768.319 80.6184C757.354 81.2052 736.72 93.6509 734.567 118Z" fill="white" />
    </g>
    <defs>
        <clipPath id="clip0">
            <rect width="1475" height="1639" fill="white" />
        </clipPath>
    </defs>
</svg>