<svg width="60" height="67" viewBox="0 0 60 67" fill="none"
    xmlns="http://www.w3.org/2000/svg">
    <path d="M32.6741 2.02038L39.5097 21.0906C39.8023 21.9072 40.3817 22.5545 41.1133 22.8808L58.1906 30.515C60.6031 31.5933 60.6031 35.4074 58.1906 36.4857L41.1126 44.1191C40.3816 44.4462 39.8016 45.0927 39.5089 45.9093L32.6734 64.9795C31.7076 67.6735 28.2924 67.6735 27.3266 64.9795L20.4911 45.9093C20.1984 45.0927 19.6191 44.4454 18.8874 44.1191L1.80944 36.4857C-0.603148 35.4074 -0.603148 31.5933 1.80944 30.515L18.8874 22.8815C19.6191 22.5545 20.1984 21.9079 20.4911 21.0914L27.3266 2.02114C28.2924 -0.673587 31.7083 -0.673586 32.6741 2.02038Z" fill="#4A50FF"/>
</svg>
