<svg width="51" height="57" viewBox="0 0 51 57" fill="none"
    xmlns="http://www.w3.org/2000/svg">
    <path d="M27.773 1.71883L33.5832 17.9428C33.832 18.6374 34.3244 19.1881 34.9463 19.4657L49.462 25.9605C51.5127 26.8779 51.5127 30.1227 49.462 31.0401L34.9457 37.5342C34.3244 37.8124 33.8313 38.3625 33.5826 39.0571L27.7724 55.2811C26.9514 57.573 24.0486 57.573 23.2276 55.2811L17.4174 39.0571C17.1687 38.3625 16.6762 37.8118 16.0543 37.5342L1.53803 31.0401C-0.512676 30.1227 -0.512676 26.8779 1.53803 25.9605L16.0543 19.4664C16.6762 19.1881 17.1687 18.6381 17.4174 17.9434L23.2276 1.71948C24.0486 -0.573052 26.9521 -0.573051 27.773 1.71883Z" fill="#EA5023"/>
</svg>
