<?xml version="1.0" standalone="no"?>
<!DOCTYPE svg PUBLIC "-//W3C//DTD SVG 1.1//EN" "http://www.w3.org/Graphics/SVG/1.1/DTD/svg11.dtd" >
<svg xmlns="http://www.w3.org/2000/svg" xmlns:xlink="http://www.w3.org/1999/xlink" version="1.1">
<metadata>
Created by FontForge 20170731 at Mon May  9 11:54:13 2022
 By Aleksey,,,
Copyright (C) 2006, 2007 Hoefler &#38; Frere-Jones. http://www.typography.com
</metadata>
<defs>
<font id="iCielGothamRounded-Bold" horiz-adv-x="1024" >
  <font-face 
    font-family="iCiel Gotham Rounded Bold"
    font-weight="400"
    font-stretch="normal"
    units-per-em="2048"
    panose-1="0 0 0 0 0 0 0 0 0 0"
    ascent="1638"
    descent="-410"
    x-height="1098"
    cap-height="1446"
    bbox="-760 -608 2447 2279"
    underline-thickness="102"
    underline-position="-307"
    unicode-range="U+0020-FB04"
  />
<missing-glyph 
d="M0 -410v2048h1024v-2048h-1024zM145 1536l367 -799l367 799h-734zM102 -156l353 770l-353 770v-1540zM922 1384l-353 -770l353 -770v1540zM512 492l-367 -799h734z" />
    <glyph glyph-name="f_f" unicode="ff" horiz-adv-x="1564" 
d="M193 143v688h-13q-52 0 -92 37q-37 37 -37 90t37 93q39 36 92 36h13v70q0 178 88 266q86 86 251 86q86 0 127 -8q107 -15 107 -125q0 -53 -37 -90q-39 -39 -90 -39h-27q-112 0 -112 -119v-43h135q53 0 92 -36q37 -37 37 -91q0 -53 -37 -90q-40 -37 -92 -37h-131v-688
q0 -65 -45 -110t-111 -45q-65 0 -110 45t-45 110zM975 143v688h-12q-53 0 -93 37q-36 36 -36 90t36 93q39 36 93 36h12v70q0 178 88 266q86 86 252 86q86 0 127 -8q106 -15 106 -125q0 -53 -37 -90q-39 -39 -90 -39h-26q-113 0 -113 -119v-43h135q53 0 92 -36q37 -37 37 -91
q0 -53 -37 -90q-40 -37 -92 -37h-131v-688q0 -65 -45 -110t-111 -45q-65 0 -110 45t-45 110z" />
    <glyph glyph-name="fi" unicode="fi" horiz-adv-x="1400" 
d="M193 143v688h-13q-52 0 -92 37q-37 37 -37 90t37 93q39 36 92 36h13v70q0 178 88 266q86 86 251 86q86 0 127 -8q107 -15 107 -125q0 -53 -37 -90q-39 -39 -90 -39h-27q-112 0 -112 -119v-43h135q53 0 92 -36q37 -37 37 -91q0 -53 -37 -90q-40 -37 -92 -37h-131v-688
q0 -65 -45 -110t-111 -45q-65 0 -110 45t-45 110zM936 143v811q0 66 45 111t111 45q65 0 110 -45t45 -111v-811q0 -65 -45 -110t-110 -45q-66 0 -111 45t-45 110zM918 1356v4q0 67 51 106q45 39 123 39q77 0 125 -39q49 -40 49 -106v-4q0 -67 -49 -107q-50 -41 -125 -41
q-76 0 -123 41q-51 39 -51 107z" />
    <glyph glyph-name="fl" unicode="fl" horiz-adv-x="1400" 
d="M193 143v688h-13q-52 0 -92 37q-37 37 -37 90t37 93q39 36 92 36h13v70q0 178 88 266q86 86 251 86q86 0 127 -8q107 -15 107 -125q0 -53 -37 -90q-39 -39 -90 -39h-27q-112 0 -112 -119v-43h135q53 0 92 -36q37 -37 37 -91q0 -53 -37 -90q-40 -37 -92 -37h-131v-688
q0 -65 -45 -110t-111 -45q-65 0 -110 45t-45 110zM936 143v1209q0 65 45 110t111 45q65 0 110 -45t45 -110v-1209q0 -65 -45 -110t-110 -45q-66 0 -111 45t-45 110z" />
    <glyph glyph-name="f_f_i" unicode="ffi" horiz-adv-x="2183" 
d="M193 143v688h-13q-52 0 -92 37q-37 37 -37 90t37 93q39 36 92 36h13v70q0 178 88 266q86 86 251 86q86 0 127 -8q107 -15 107 -125q0 -53 -37 -90q-39 -39 -90 -39h-27q-112 0 -112 -119v-43h135q53 0 92 -36q37 -37 37 -91q0 -53 -37 -90q-40 -37 -92 -37h-131v-688
q0 -65 -45 -110t-111 -45q-65 0 -110 45t-45 110zM975 143v688h-12q-53 0 -93 37q-36 36 -36 90t36 93q39 36 93 36h12v70q0 178 88 266q86 86 252 86q86 0 127 -8q106 -15 106 -125q0 -53 -37 -90q-39 -39 -90 -39h-26q-113 0 -113 -119v-43h135q53 0 92 -36q37 -37 37 -91
q0 -53 -37 -90q-40 -37 -92 -37h-131v-688q0 -65 -45 -110t-111 -45q-65 0 -110 45t-45 110zM1718 143v811q0 66 45 111t111 45t111 -45t45 -111v-811q0 -65 -45 -110t-111 -45t-111 45t-45 110zM1700 1356v4q0 67 51 106q45 39 123 39q77 0 125 -39q49 -40 49 -106v-4
q0 -67 -49 -107q-50 -41 -125 -41q-76 0 -123 41q-51 39 -51 107z" />
    <glyph glyph-name="f_f_l" unicode="ffl" horiz-adv-x="2183" 
d="M193 143v688h-13q-52 0 -92 37q-37 37 -37 90t37 93q39 36 92 36h13v70q0 178 88 266q86 86 251 86q86 0 127 -8q107 -15 107 -125q0 -53 -37 -90q-39 -39 -90 -39h-27q-112 0 -112 -119v-43h135q53 0 92 -36q37 -37 37 -91q0 -53 -37 -90q-40 -37 -92 -37h-131v-688
q0 -65 -45 -110t-111 -45q-65 0 -110 45t-45 110zM975 143v688h-12q-53 0 -93 37q-36 36 -36 90t36 93q39 36 93 36h12v70q0 178 88 266q86 86 252 86q86 0 127 -8q106 -15 106 -125q0 -53 -37 -90q-39 -39 -90 -39h-26q-113 0 -113 -119v-43h135q53 0 92 -36q37 -37 37 -91
q0 -53 -37 -90q-40 -37 -92 -37h-131v-688q0 -65 -45 -110t-111 -45q-65 0 -110 45t-45 110zM1718 143v1209q0 65 45 110t111 45t111 -45t45 -110v-1209q0 -65 -45 -110t-111 -45t-111 45t-45 110z" />
    <glyph glyph-name=".notdef" 
d="M0 -410v2048h1024v-2048h-1024zM145 1536l367 -799l367 799h-734zM102 -156l353 770l-353 770v-1540zM922 1384l-353 -770l353 -770v1540zM512 492l-367 -799h734z" />
    <glyph glyph-name=".null" horiz-adv-x="0" 
 />
    <glyph glyph-name="nonmarkingreturn" horiz-adv-x="682" 
 />
    <glyph glyph-name="space" unicode=" " horiz-adv-x="614" 
 />
    <glyph glyph-name="exclam" unicode="!" horiz-adv-x="663" 
d="M236 565l-89 770q-3 46 19 74q22 31 63 31h201q42 0 64 -31q21 -27 18 -74l-88 -770q-9 -90 -94 -90t-94 90zM152 162v4q0 74 51 125q52 49 127 49t127 -49q51 -51 51 -125v-4q0 -75 -51 -123q-51 -51 -127 -51t-127 51q-51 48 -51 123z" />
    <glyph glyph-name="quotedbl" unicode="&#x22;" horiz-adv-x="1064" 
d="M604 862l25 438q3 60 41 101q41 41 102 41h98q80 0 80 -82q0 -22 -6 -43l-164 -473q-27 -76 -90 -76q-37 0 -61 27q-28 28 -25 67zM121 862l24 438q3 60 41 101q41 41 103 41h98q80 0 80 -82q0 -22 -6 -43l-164 -473q-27 -76 -90 -76q-38 0 -62 27q-27 27 -24 67z" />
    <glyph glyph-name="numbersign" unicode="#" horiz-adv-x="1433" 
d="M209 141l29 166h-48q-53 0 -92 39t-39 92t39 92t92 39h93l51 303h-72q-53 0 -92 39t-39 93q0 53 39 92t92 39h117l35 202q15 109 131 109q59 0 100 -47q40 -46 31 -107l-27 -157h277l35 202q15 109 131 109q59 0 100 -47q40 -46 31 -107l-27 -157h47q53 0 92 -39t39 -92
q0 -54 -39 -93t-92 -39h-92l-51 -303h71q54 0 93 -39t39 -92t-39 -92t-93 -39h-116l-37 -211q-18 -108 -131 -108q-60 0 -101 47q-39 48 -30 106l28 166h-276l-37 -211q-21 -108 -131 -108q-61 0 -100 45q-40 46 -31 108zM553 569h276l52 303h-277z" />
    <glyph glyph-name="dollar" unicode="$" horiz-adv-x="1323" 
d="M573 1434v24q0 45 31 76t76 31t76 -31q30 -30 30 -76v-28q162 -24 297 -99q74 -44 74 -123q0 -57 -41 -98q-39 -39 -98 -39q-36 0 -72 19q-84 45 -170 69v-311q235 -64 340 -166t105 -274q0 -170 -121 -279q-118 -106 -314 -127v-108q0 -46 -30 -76q-31 -31 -76 -31
t-76 31t-31 76v110q-215 27 -403 143q-70 43 -70 123q0 60 41 101q39 39 101 39q40 0 80 -27q133 -87 262 -115v326q-224 60 -330 158q-111 102 -111 278q0 170 119 277q112 106 311 127zM922 391q0 99 -146 152v-285q146 21 146 133zM442 1049q0 -95 142 -148v277
q-142 -21 -142 -129z" />
    <glyph glyph-name="percent" unicode="%" horiz-adv-x="1761" 
d="M438 717q-153 0 -250 106q-96 104 -96 256v4q0 153 96 260q101 107 254 107q152 0 250 -107q96 -104 96 -256v-4q0 -151 -96 -258q-102 -108 -254 -108zM322 84q0 30 22 66l916 1253q30 43 83 43q39 0 68 -29t29 -67q0 -36 -23 -66l-915 -1253q-30 -43 -84 -43
q-40 0 -68 28t-28 68zM1319 -16q-153 0 -250 106q-96 104 -96 256v4q0 153 96 260q101 107 254 107q152 0 250 -107q96 -104 96 -256v-4q0 -151 -96 -258q-102 -108 -254 -108zM442 903q61 0 99 53q32 46 32 123v4q0 77 -36 127q-42 54 -99 54q-59 0 -98 -54
q-33 -47 -33 -123v-4q0 -75 37 -127q41 -53 98 -53zM1323 170q60 0 98 53q33 47 33 123v4q0 75 -37 127q-41 53 -98 53q-60 0 -98 -53q-33 -47 -33 -123v-4q0 -75 37 -127q41 -53 98 -53z" />
    <glyph glyph-name="ampersand" unicode="&#x26;" horiz-adv-x="1425" 
d="M1202 -20q-59 0 -104 45l-121 120q-192 -165 -426 -165q-211 0 -344 112q-137 113 -137 301v4q0 268 278 394q-100 135 -100 286v4q0 156 112 262q124 115 322 115q180 0 293 -104q110 -101 110 -256v-4q0 -255 -299 -375l189 -187q52 79 94 156q38 72 117 72
q53 0 92 -39t39 -92q0 -34 -19 -66q-63 -110 -137 -215l131 -129q47 -47 47 -102q0 -60 -39 -99q-38 -38 -98 -38zM621 885q190 70 190 190v4q0 133 -135 133q-63 0 -101 -41q-38 -38 -38 -104v-4q0 -82 84 -178zM588 238q100 0 209 86l-275 276q-135 -70 -135 -190v-4
q0 -76 57 -121q56 -47 144 -47z" />
    <glyph glyph-name="quotesingle" unicode="'" horiz-adv-x="585" 
d="M121 862l24 438q3 60 41 101q41 41 103 41h98q84 0 84 -82q0 -22 -6 -43l-164 -473q-27 -76 -94 -76q-89 0 -86 94z" />
    <glyph glyph-name="parenleft" unicode="(" horiz-adv-x="911" 
d="M705 -272q-45 0 -74 16q-510 308 -510 844t510 844q29 16 74 16t81 -39q37 -40 37 -88q0 -66 -51 -102q-342 -256 -342 -631t342 -631q51 -36 51 -102q0 -48 -37 -88q-36 -39 -81 -39z" />
    <glyph glyph-name="parenright" unicode=")" horiz-adv-x="911" 
d="M207 -272q-46 0 -82 39q-37 40 -37 88q0 66 51 102q342 256 342 631t-342 631q-51 36 -51 102q0 48 37 88q36 39 82 39q45 0 74 -16q510 -308 510 -844t-510 -844q-29 -16 -74 -16z" />
    <glyph glyph-name="asterisk" unicode="*" horiz-adv-x="880" 
d="M367 840l22 168l-139 -107q-30 -24 -60 -24q-34 0 -55 24q-22 22 -22 55q0 53 55 74l166 70l-166 69q-55 21 -55 76q0 34 24 55q23 23 56 23q26 0 57 -25l139 -106l-22 166q-3 41 16 65q21 27 57 27q37 0 58 -27q19 -22 16 -63l-22 -168l139 106q31 25 59 25q33 0 55 -25
q23 -23 23 -55q0 -50 -55 -74l-166 -69l166 -70q55 -21 55 -76q0 -33 -25 -55q-22 -22 -55 -22q-27 0 -57 24l-139 107l22 -166q3 -41 -16 -66q-20 -26 -58 -26q-37 0 -57 26q-19 22 -16 64z" />
    <glyph glyph-name="plus" unicode="+" horiz-adv-x="1310" 
d="M510 344v236h-242q-56 0 -100 41q-41 44 -41 100q0 59 41 100q44 41 100 41h242v236q0 59 43 102t102 43q60 0 103 -43t43 -102v-236h241q60 0 101 -41t41 -100q0 -56 -41 -100q-41 -41 -101 -41h-241v-236q0 -59 -43 -102t-103 -43q-59 0 -102 43t-43 102z" />
    <glyph glyph-name="comma" unicode="," horiz-adv-x="585" 
d="M39 -262q0 52 61 67q164 41 158 195q-143 37 -143 168v4q0 74 47 121t123 47q86 0 135 -61q47 -62 47 -168v-9q0 -214 -121 -335q-99 -99 -229 -99q-78 0 -78 70z" />
    <glyph glyph-name="hyphen" unicode="-" horiz-adv-x="835" 
d="M596 485h-356q-63 0 -105 45q-45 42 -45 105q0 61 45 106q43 43 105 43h356q60 0 106 -43q43 -46 43 -106q0 -62 -43 -105q-45 -45 -106 -45z" />
    <glyph glyph-name="period" unicode="." horiz-adv-x="585" 
d="M115 162v4q0 74 51 125q52 49 127 49t127 -49q51 -51 51 -125v-4q0 -75 -51 -123q-51 -51 -127 -51t-127 51q-51 48 -51 123z" />
    <glyph glyph-name="slash" unicode="/" horiz-adv-x="1085" 
d="M6 -158q0 28 14 60l801 1673q35 72 109 72q48 0 86 -35q35 -35 35 -82q0 -26 -15 -60l-800 -1673q-35 -71 -109 -71q-50 0 -84 34q-37 34 -37 82z" />
    <glyph glyph-name="zero" unicode="0" horiz-adv-x="1495" 
d="M745 -25q-280 0 -460 213q-174 204 -174 525v4q0 317 176 526q182 215 463 215q278 0 458 -213q176 -209 176 -524v-4q0 -318 -176 -527q-182 -215 -463 -215zM750 260q142 0 227 129q84 128 84 324v4q0 195 -86 325q-89 132 -230 132q-139 0 -225 -127t-86 -326v-4
q0 -199 86 -326q88 -131 230 -131z" />
    <glyph glyph-name="one" unicode="1" horiz-adv-x="864" 
d="M365 143v992l-111 -29q-31 -8 -55 -8q-56 0 -97 41t-41 94q0 105 105 135l203 59q95 27 147 27h4q66 0 111 -45t45 -111v-1155q0 -65 -45 -110t-111 -45q-65 0 -110 45t-45 110z" />
    <glyph glyph-name="two" unicode="2" horiz-adv-x="1275" 
d="M88 150q0 93 82 157l408 334q247 201 247 344q0 86 -53 139q-53 47 -139 47q-119 0 -234 -124q-40 -46 -106 -46q-59 0 -103 41q-40 43 -40 103q0 56 36 98q181 211 467 211q223 0 359 -121q135 -120 135 -321v-4q0 -166 -92 -293q-73 -98 -285 -262l-233 -181h499
q56 0 97 -41t41 -96t-41 -96q-39 -39 -97 -39h-778q-76 0 -121 39q-49 40 -49 111z" />
    <glyph glyph-name="three" unicode="3" horiz-adv-x="1271" 
d="M637 -25q-284 0 -475 164q-53 47 -53 113q0 61 45 106t106 45q56 0 100 -38q125 -107 281 -107q89 0 145 47q58 46 58 127v4q0 182 -281 182h-49q-53 0 -94 41t-41 95q0 62 67 129l279 280h-440q-54 0 -95 41q-40 40 -40 94q0 57 40 97q39 39 95 39h698q69 0 115 -37
q45 -39 45 -103q0 -88 -94 -176l-281 -268q385 -65 385 -401v-5q0 -207 -137 -335q-146 -134 -379 -134z" />
    <glyph glyph-name="four" unicode="4" horiz-adv-x="1411" 
d="M815 137v172h-590q-61 0 -108 41q-45 42 -45 105q0 87 73 172l623 723q87 106 197 106q63 0 106 -43q45 -42 45 -106v-742h76q52 0 92 -37q37 -40 37 -92q0 -53 -37 -90q-40 -37 -92 -37h-76v-172q0 -64 -45 -106q-43 -43 -106 -43q-64 0 -107 43t-43 106zM434 565h381
v447z" />
    <glyph glyph-name="five" unicode="5" horiz-adv-x="1290" 
d="M635 -25q-262 0 -451 136q-63 45 -63 120q0 62 45 107q42 45 104 45q42 0 86 -29q127 -92 273 -92q103 0 166 51q65 56 65 148v4q0 89 -72 143q-66 51 -182 51q-70 0 -137 -18q-68 -18 -80 -18q-57 0 -143 63q-64 46 -58 127l29 485q3 57 43 97q39 39 96 39h623
q57 0 98 -41t41 -99q0 -55 -41 -96t-98 -41h-483l-17 -248q103 25 189 25q223 0 356 -109q145 -121 145 -350v-4q0 -226 -149 -360q-145 -136 -385 -136z" />
    <glyph glyph-name="six" unicode="6" horiz-adv-x="1355" 
d="M694 -25q-259 0 -413 154q-170 170 -170 543v4q0 348 153 557q166 225 475 225q201 0 346 -86q82 -46 82 -135q0 -62 -43 -102q-46 -43 -106 -43q-36 0 -78 22q-99 57 -211 57q-252 0 -289 -331q139 92 297 92q221 0 359 -117q145 -124 145 -340v-4q0 -217 -156 -358
q-156 -138 -391 -138zM682 246q114 0 182 59q64 58 64 152v4q0 89 -66 149q-72 60 -184 60q-116 0 -180 -58q-66 -60 -66 -149v-4q0 -93 68 -152q67 -61 182 -61z" />
    <glyph glyph-name="seven" unicode="7" horiz-adv-x="1267" 
d="M252 129q0 45 29 98l532 934h-549q-57 0 -96 39q-41 41 -41 96q0 56 41 97t96 41h778q144 0 144 -142q0 -73 -45 -153l-576 -1045q-57 -106 -151 -106q-67 0 -113 37q-49 40 -49 104z" />
    <glyph glyph-name="eight" unicode="8" horiz-adv-x="1290" 
d="M645 -20q-245 0 -395 112q-158 118 -158 301v4q0 238 232 346q-183 112 -183 314v4q0 165 140 278q142 115 364 115q224 0 367 -113q137 -113 137 -280v-4q0 -203 -182 -314q231 -120 231 -337v-5q0 -193 -158 -311q-149 -110 -395 -110zM645 848q92 0 150 49
q55 49 55 125v4q0 70 -53 117q-57 51 -152 51q-93 0 -151 -49q-54 -48 -54 -117v-4q0 -75 56 -125q57 -51 149 -51zM645 240q116 0 182 51t66 127v4q0 83 -70 129q-68 47 -178 47t-178 -47q-70 -46 -70 -129v-4q0 -74 66 -125q71 -53 182 -53z" />
    <glyph glyph-name="nine" unicode="9" horiz-adv-x="1355" 
d="M618 -25q-210 0 -378 103q-74 47 -74 129q0 63 45 102q44 41 104 41q39 0 82 -24q107 -64 230 -64q256 0 291 326q-114 -99 -291 -99q-235 0 -373 123q-139 124 -139 340v4q0 217 151 359q152 143 396 143q258 0 413 -155q170 -170 170 -541v-4q0 -355 -160 -565
q-170 -218 -467 -218zM678 752q115 0 182 61q64 58 64 152v4q0 95 -68 157t-184 62q-115 0 -180 -62q-64 -58 -64 -155v-4q0 -97 68 -156t182 -59z" />
    <glyph glyph-name="colon" unicode=":" horiz-adv-x="606" 
d="M125 932v4q0 74 51 125q52 49 127 49t127 -49q51 -51 51 -125v-4q0 -75 -51 -123q-51 -51 -127 -51t-127 51q-51 48 -51 123zM125 162v4q0 74 51 125q52 49 127 49t127 -49q51 -51 51 -125v-4q0 -75 -51 -123q-51 -51 -127 -51t-127 51q-51 48 -51 123z" />
    <glyph glyph-name="semicolon" unicode=";" horiz-adv-x="606" 
d="M125 932v4q0 74 51 125q52 49 127 49t127 -49q51 -51 51 -125v-4q0 -75 -51 -123q-51 -51 -127 -51t-127 51q-51 48 -51 123zM49 -262q0 52 62 67q163 40 157 195q-143 37 -143 168v4q0 74 47 121t123 47q86 0 135 -61q47 -62 47 -168v-9q0 -214 -121 -335
q-99 -99 -229 -99q-78 0 -78 70z" />
    <glyph glyph-name="less" unicode="&#x3c;" horiz-adv-x="1310" 
d="M1008 190q-26 0 -66 19l-690 328q-125 58 -125 174v20q0 116 125 174l690 328q39 20 76 20q49 3 88 -36q37 -37 37 -93q0 -84 -86 -125l-619 -276l619 -277q86 -41 86 -129q0 -59 -39 -92q-41 -38 -96 -35z" />
    <glyph glyph-name="equal" unicode="=" horiz-adv-x="1310" 
d="M1032 846h-753q-57 0 -101 41q-41 44 -41 100q0 59 41 100q44 41 101 41h753q60 0 101 -41t41 -100q0 -56 -41 -100q-41 -41 -101 -41zM1032 313h-753q-57 0 -101 41q-41 44 -41 101q0 59 41 100q44 41 101 41h753q60 0 101 -41t41 -100q0 -57 -41 -101q-41 -41 -101 -41
z" />
    <glyph glyph-name="greater" unicode="&#x3e;" horiz-adv-x="1310" 
d="M303 1251q29 0 66 -18l690 -328q125 -58 125 -174v-20q0 -116 -125 -174l-690 -328q-41 -21 -76 -21q-49 -3 -86 37q-39 36 -39 92q0 84 86 125l618 277l-618 276q-86 41 -86 129q0 60 39 93q40 37 96 34z" />
    <glyph glyph-name="question" unicode="?" horiz-adv-x="1114" 
d="M518 475h-16q-96 0 -111 100l-20 140q-15 108 94 123q260 34 260 178v4q0 145 -188 145q-131 0 -238 -82q-40 -32 -92 -32q-58 0 -101 43t-43 100q0 63 54 111q178 147 426 147q226 0 358 -111q137 -113 137 -313v-4q0 -329 -403 -412l-6 -37q-15 -100 -111 -100z
M324 162v4q0 74 51 125q52 49 127 49t127 -49q51 -51 51 -125v-4q0 -75 -51 -123q-51 -51 -127 -51t-127 51q-51 48 -51 123z" />
    <glyph glyph-name="at" unicode="@" horiz-adv-x="2007" 
d="M1022 -332q-388 0 -653 262q-260 260 -260 631q0 370 260 633q261 264 637 264q368 0 634 -248q258 -243 258 -563q0 -249 -118 -385q-111 -129 -289 -129q-205 0 -313 123q-135 -123 -304 -123q-159 0 -266 107q-108 111 -108 288q0 214 139 365q137 149 319 149
q180 0 283 -139v2q18 123 129 123q54 0 92 -41q39 -45 27 -108l-80 -457q-6 -30 -6 -64q0 -59 39 -92q40 -37 110 -37q115 0 185 107q75 112 75 311q0 291 -231 506q-235 223 -575 223q-344 0 -580 -239q-231 -237 -231 -576q0 -343 233 -573q238 -238 594 -238
q256 0 483 127q9 6 23 6q37 0 37 -41q0 -20 -21 -32q-245 -142 -522 -142zM946 344q98 0 170 84q74 86 74 211q0 86 -53 139t-138 53q-103 0 -172 -81q-73 -85 -73 -207q0 -95 53 -148q51 -51 139 -51z" />
    <glyph glyph-name="A" unicode="A" horiz-adv-x="1568" 
d="M74 135q0 27 18 68l500 1128q55 125 184 125h19q127 0 182 -125l500 -1128q16 -40 16 -64q0 -63 -43 -106q-42 -45 -107 -45q-105 0 -151 108l-96 226h-631l-100 -236q-43 -98 -146 -98q-62 0 -102 43q-43 43 -43 104zM582 600h397l-199 473z" />
    <glyph glyph-name="B" unicode="B" horiz-adv-x="1478" 
d="M172 158v1118q0 68 45 113t113 45h508q247 0 374 -127q99 -99 99 -244v-4q0 -200 -189 -309q269 -103 269 -353v-4q0 -192 -148 -295q-137 -98 -389 -98h-524q-68 0 -113 45t-45 113zM479 854h291q227 0 227 152v4q0 147 -206 147h-312v-303zM479 276h375q223 0 223 156
v4q0 156 -233 156h-365v-316z" />
    <glyph glyph-name="C" unicode="C" horiz-adv-x="1511" 
d="M844 -25q-315 0 -527 215q-208 211 -208 523v4q0 313 208 524q211 217 539 217q281 0 479 -145q62 -47 62 -125q0 -64 -45 -109t-111 -45q-43 0 -94 31q-138 102 -293 102q-180 0 -299 -131q-117 -129 -117 -315v-4q0 -189 117 -318q121 -133 299 -133q171 0 311 113
q41 35 95 35q58 0 104 -43q43 -43 43 -103q0 -65 -53 -112q-205 -181 -510 -181z" />
    <glyph glyph-name="D" unicode="D" horiz-adv-x="1601" 
d="M172 158v1118q0 68 45 113t113 45h401q334 0 551 -205q211 -202 211 -508v-4q0 -308 -211 -510q-219 -207 -551 -207h-401q-68 0 -113 45t-45 113zM487 285h244q195 0 313 118q119 119 119 310v4q0 192 -119 311q-121 121 -313 121h-244v-864z" />
    <glyph glyph-name="E" unicode="E" horiz-adv-x="1372" 
d="M1135 0h-805q-68 0 -113 45t-45 113v1118q0 68 45 113t113 45h794q60 0 101 -41t41 -101q0 -57 -41 -98t-101 -41h-639v-291h547q60 0 101 -41t41 -100q0 -57 -41 -98t-101 -41h-547v-301h650q59 0 100 -41t41 -101q0 -57 -41 -98t-100 -41z" />
    <glyph glyph-name="F" unicode="F" horiz-adv-x="1343" 
d="M172 145v1131q0 68 45 113t113 45h803q58 0 102 -41q41 -44 41 -103q0 -58 -41 -102q-44 -41 -102 -41h-646v-305h553q59 0 103 -41q41 -44 41 -103q0 -58 -41 -102q-44 -41 -103 -41h-553v-410q0 -67 -45 -112t-112 -45q-68 0 -113 45t-45 112z" />
    <glyph glyph-name="G" unicode="G" horiz-adv-x="1605" 
d="M862 -25q-333 0 -545 209q-208 208 -208 529v4q0 308 213 524q217 217 538 217q289 0 490 -139q65 -47 65 -127q0 -66 -45 -111t-110 -45q-53 0 -97 33q-137 98 -313 98q-172 0 -291 -131q-121 -133 -121 -315v-4q0 -197 123 -326q120 -129 311 -129q176 0 297 86v205
h-213q-57 0 -96 39q-41 41 -41 96t41 96t96 41h361q68 0 113 -45t45 -112v-349q0 -135 -111 -200q-234 -144 -502 -144z" />
    <glyph glyph-name="H" unicode="H" horiz-adv-x="1556" 
d="M172 145v1143q0 68 45 113t113 45q67 0 112 -45t45 -113v-422h582v422q0 68 45 113t113 45q67 0 112 -45t45 -113v-1143q0 -67 -45 -112t-112 -45q-68 0 -113 45t-45 112v430h-582v-430q0 -67 -45 -112t-112 -45q-68 0 -113 45t-45 112z" />
    <glyph glyph-name="I" unicode="I" horiz-adv-x="688" 
d="M186 145v1143q0 68 45 113t113 45t113 -45t45 -113v-1143q0 -67 -45 -112t-113 -45t-113 45t-45 112z" />
    <glyph glyph-name="J" unicode="J" horiz-adv-x="1155" 
d="M498 -20q-218 0 -379 124q-60 48 -60 121q0 64 43 107q42 45 107 45q50 0 94 -33q97 -72 191 -72q196 0 196 238v778q0 68 45 113t113 45t113 -45t45 -113v-792q0 -247 -136 -383q-133 -133 -372 -133z" />
    <glyph glyph-name="K" unicode="K" horiz-adv-x="1458" 
d="M172 145v1143q0 68 45 113t113 45q67 0 112 -45t45 -113v-481l582 577q62 62 133 62q64 0 107 -43q39 -42 39 -103q0 -66 -58 -118l-403 -377l440 -553q43 -52 43 -111q0 -65 -45 -110q-46 -43 -115 -43q-76 0 -133 75l-409 537l-181 -168v-287q0 -67 -45 -112t-112 -45
q-68 0 -113 45t-45 112z" />
    <glyph glyph-name="L" unicode="L" horiz-adv-x="1267" 
d="M172 158v1130q0 68 45 113t113 45q67 0 112 -45t45 -113v-1001h584q59 0 103 -41q40 -43 40 -103q0 -59 -40 -102q-44 -41 -103 -41h-741q-68 0 -113 45t-45 113z" />
    <glyph glyph-name="M" unicode="M" horiz-adv-x="1777" 
d="M172 141v1143q0 68 45 113t113 45h35q94 0 143 -82l381 -621l383 623q50 80 141 80h35q68 0 113 -45t45 -113v-1139q0 -67 -45 -112t-113 -45q-64 0 -111 47q-45 45 -45 110v715l-276 -426q-53 -80 -131 -80t-131 80l-273 420v-713q0 -63 -45 -108t-110 -45
q-64 0 -109 45t-45 108z" />
    <glyph glyph-name="N" unicode="N" horiz-adv-x="1617" 
d="M172 143v1141q0 68 45 113t113 45h32q93 0 164 -92l609 -799v739q0 66 45 111t110 45q66 0 111 -45t45 -111v-1140q0 -68 -45 -113t-113 -45h-10q-93 0 -164 92l-631 827v-768q0 -65 -45 -110t-110 -45q-66 0 -111 45t-45 110z" />
    <glyph glyph-name="O" unicode="O" horiz-adv-x="1740" 
d="M868 -25q-326 0 -544 215q-215 212 -215 523v4q0 310 217 524q217 217 546 217t547 -215q213 -213 213 -522v-4q0 -309 -215 -524q-221 -218 -549 -218zM872 266q190 0 312 131q119 125 119 316v4q0 187 -121 317q-127 133 -314 133q-190 0 -309 -131
q-121 -127 -121 -315v-4q0 -189 123 -318q124 -133 311 -133z" />
    <glyph glyph-name="P" unicode="P" horiz-adv-x="1368" 
d="M172 145v1131q0 68 45 113t113 45h428q253 0 403 -138q146 -137 146 -358v-4q0 -239 -170 -377q-157 -127 -410 -127h-240v-285q0 -67 -45 -112t-112 -45q-68 0 -113 45t-45 112zM487 711h250q116 0 185 63q65 59 65 154v4q0 217 -256 217h-244v-438z" />
    <glyph glyph-name="Q" unicode="Q" horiz-adv-x="1740" 
d="M868 -25q-326 0 -544 215q-215 212 -215 523v4q0 310 217 524q217 217 546 217t547 -215q213 -213 213 -522v-4q0 -223 -127 -412l62 -51q57 -48 57 -119q0 -61 -43 -104q-42 -45 -104 -45t-105 43l-78 69q-190 -123 -426 -123zM1061 305l-150 127q-57 51 -57 119
q0 60 43 106q43 43 104 43q56 0 105 -43l158 -141q39 85 39 197v4q0 187 -121 317q-127 133 -314 133q-190 0 -309 -131q-121 -127 -121 -315v-4q0 -189 123 -318q124 -133 311 -133q112 0 189 39z" />
    <glyph glyph-name="R" unicode="R" horiz-adv-x="1480" 
d="M172 145v1131q0 68 45 113t113 45h497q272 0 418 -146q123 -123 123 -327v-5q0 -315 -287 -436l219 -266q52 -64 52 -121q0 -62 -47 -106q-42 -39 -103 -39q-91 0 -155 82l-308 389h-252v-314q0 -67 -45 -112t-112 -45q-68 0 -113 45t-45 112zM487 737h320q113 0 178 56
q64 55 64 147v4q0 205 -248 205h-314v-412z" />
    <glyph glyph-name="S" unicode="S" horiz-adv-x="1310" 
d="M682 -20q-300 0 -539 172q-59 41 -59 118q0 62 43 105q44 41 104 41q47 0 91 -29q176 -129 366 -129q207 0 207 135v4q0 62 -55 99q-51 36 -234 84q-250 65 -346 139q-129 102 -129 299v4q0 193 141 313q137 119 361 119q253 0 454 -127q70 -40 70 -125q0 -62 -43 -102
q-43 -43 -104 -43q-38 0 -80 22q-168 97 -301 97q-88 0 -137 -37q-48 -36 -48 -88v-4q0 -69 62 -107q53 -31 248 -82q236 -62 336 -149q118 -100 118 -281v-4q0 -210 -147 -330q-141 -114 -379 -114z" />
    <glyph glyph-name="T" unicode="T" horiz-adv-x="1327" 
d="M506 145v998h-303q-60 0 -103 43t-43 102q0 60 43 103t103 43h921q60 0 103 -43t43 -103q0 -59 -43 -102t-103 -43h-303v-998q0 -67 -45 -112t-112 -45q-68 0 -113 45t-45 112z" />
    <glyph glyph-name="U" unicode="U" horiz-adv-x="1548" 
d="M770 -23q-290 0 -455 160q-165 165 -165 477v674q0 68 45 113t112 45q68 0 113 -45t45 -113v-665q0 -355 309 -355t309 344v676q0 68 45 113t113 45t113 -45t45 -113v-663q0 -319 -170 -486q-162 -162 -459 -162z" />
    <glyph glyph-name="V" unicode="V" horiz-adv-x="1486" 
d="M754 -23h-21q-126 0 -178 125l-465 1112q-18 47 -18 76q0 66 45 111t112 45q117 0 160 -111l359 -927l362 938q40 100 152 100q64 0 110 -43q45 -45 45 -109q0 -29 -16 -69l-469 -1123q-52 -125 -178 -125z" />
    <glyph glyph-name="W" unicode="W" horiz-adv-x="2248" 
d="M483 106l-401 1127q-12 37 -12 59q0 64 47 111q46 43 114 43q120 0 154 -113l285 -878l286 870q40 125 160 125h25q119 0 159 -125l287 -870l285 878q37 113 151 113q65 0 111 -43q45 -45 45 -109q0 -24 -12 -61l-402 -1127q-47 -129 -163 -129h-33q-115 0 -162 129
l-283 822l-282 -822q-46 -129 -162 -129h-33q-117 0 -164 129z" />
    <glyph glyph-name="X" unicode="X" horiz-adv-x="1454" 
d="M94 133q0 62 47 121l387 475l-364 445q-47 59 -47 116q0 66 45 111q42 45 110 45q86 0 146 -78l313 -418l311 410q68 86 154 86q56 0 98 -39q45 -42 45 -107q0 -61 -47 -120l-364 -447l385 -473q47 -59 47 -117q0 -64 -43 -110q-45 -45 -113 -45q-85 0 -145 78l-336 440
l-332 -432q-68 -86 -153 -86q-57 0 -99 39q-45 42 -45 106z" />
    <glyph glyph-name="Y" unicode="Y" horiz-adv-x="1409" 
d="M547 145v408l-463 629q-39 51 -39 112q0 65 45 107q45 45 113 45q89 0 155 -96l349 -502l354 506q64 94 151 94q71 0 113 -45q41 -44 41 -109q0 -51 -41 -110l-463 -625v-414q0 -67 -45 -112t-112 -45q-68 0 -113 45t-45 112z" />
    <glyph glyph-name="Z" unicode="Z" horiz-adv-x="1449" 
d="M1196 0h-940q-57 0 -98 41t-41 98v6q0 82 57 148l744 864h-637q-58 0 -99 41t-41 96q0 58 41 99t99 41h915q57 0 98 -41t41 -99v-6q0 -78 -57 -147l-743 -865h661q58 0 98 -40q41 -41 41 -99q0 -55 -41 -96t-98 -41z" />
    <glyph glyph-name="bracketleft" unicode="[" horiz-adv-x="952" 
d="M170 -115v1397q0 65 45 107q42 45 107 45h399q52 0 86 -37q37 -34 37 -86t-37 -86q-35 -35 -86 -35h-252v-1213h252q52 0 86 -34q37 -34 37 -86t-37 -86q-34 -37 -86 -37h-399q-65 0 -107 45q-45 42 -45 106z" />
    <glyph glyph-name="backslash" unicode="\" horiz-adv-x="1085" 
d="M1079 -158q0 -47 -35 -82q-37 -34 -86 -34q-73 0 -108 71l-801 1673q-14 32 -14 60q0 48 37 82q35 35 84 35q73 0 108 -72l801 -1673q14 -32 14 -60z" />
    <glyph glyph-name="bracketright" unicode="]" horiz-adv-x="952" 
d="M782 1282v-1397q0 -64 -45 -106q-42 -45 -106 -45h-400q-52 0 -86 37q-36 33 -36 86t36 86q34 34 86 34h252v1213h-252q-51 0 -86 35q-36 33 -36 86t36 86q34 37 86 37h400q64 0 106 -45q45 -42 45 -107z" />
    <glyph glyph-name="asciicircum" unicode="^" 
d="M510 1249l-104 -135q-89 -115 -181 -115q-69 0 -69 50q0 31 28 73l162 228q64 88 156 88h18q92 0 156 -88l162 -228q28 -42 28 -73q0 -50 -69 -50q-94 0 -183 115z" />
    <glyph glyph-name="underscore" unicode="_" horiz-adv-x="1228" 
d="M1233 -328h-1237q-49 0 -84 35t-35 84t35 84t84 35h1237q49 0 84 -35t35 -84t-35 -84t-84 -35z" />
    <glyph glyph-name="grave" unicode="`" 
d="M606 1206q-107 0 -178 68l-127 119q-41 38 -41 73q0 36 59 66q60 29 115 29q74 0 117 -70l113 -176q20 -33 20 -55q0 -54 -78 -54z" />
    <glyph glyph-name="a" unicode="a" horiz-adv-x="1212" 
d="M451 -20q-161 0 -267 86q-110 91 -110 249v4q0 177 123 265q118 86 319 86q140 0 268 -45v18q0 201 -235 201q-113 0 -215 -31q-21 -8 -45 -8q-52 0 -92 37q-37 37 -37 90q0 90 84 121q149 57 350 57q248 0 371 -123q118 -118 118 -350v-500q0 -64 -45 -106
q-43 -43 -106 -43q-65 0 -109 41q-41 38 -41 88v2q-127 -139 -331 -139zM545 195q108 0 176 53q67 55 67 139v55q-90 41 -198 41q-215 0 -215 -151v-4q0 -133 170 -133z" />
    <glyph glyph-name="b" unicode="b" horiz-adv-x="1382" 
d="M139 143v1209q0 65 45 110t111 45t111 -45t45 -110v-412q132 178 342 178q204 0 346 -145q153 -159 153 -422v-4q0 -262 -151 -422q-142 -145 -348 -145q-204 0 -342 163v-2q0 -63 -45 -108t-111 -45t-111 45t-45 110zM713 244q112 0 188 82q80 86 80 221v4
q0 133 -80 219q-78 84 -188 84q-111 0 -189 -84q-78 -87 -78 -219v-4q0 -132 78 -219q78 -84 189 -84z" />
    <glyph glyph-name="c" unicode="c" horiz-adv-x="1169" 
d="M657 -25q-246 0 -409 166q-162 162 -162 402v4q0 238 162 403q165 168 414 168q230 0 374 -123q49 -40 49 -106q0 -57 -41 -98t-100 -41q-49 0 -90 30q-88 70 -195 70q-114 0 -190 -88t-76 -211v-4q0 -130 76 -215q76 -88 203 -88q112 0 205 75q43 29 84 29q55 0 94 -39
q37 -40 37 -94q0 -59 -45 -98q-157 -142 -390 -142z" />
    <glyph glyph-name="d" unicode="d" horiz-adv-x="1382" 
d="M1243 1352v-1209q0 -65 -45 -110t-111 -45q-65 0 -110 45t-45 110v15q-132 -178 -342 -178q-204 0 -346 145q-154 160 -154 422v4q0 261 152 422q142 145 348 145q204 0 342 -164v398q0 65 45 110t110 45q66 0 111 -45t45 -110zM670 854q-113 0 -189 -82
q-80 -86 -80 -221v-4q0 -133 80 -219q78 -84 189 -84q110 0 188 84q78 87 78 219v4q0 132 -78 219q-78 84 -188 84z" />
    <glyph glyph-name="e" unicode="e" horiz-adv-x="1255" 
d="M391 635h469q-30 233 -231 233q-198 0 -238 -233zM1040 109q-158 -134 -381 -134q-248 0 -409 158q-164 159 -164 410v4q0 237 152 403q155 168 391 168q251 0 401 -178q127 -154 127 -350q0 -65 -41 -109q-41 -41 -104 -41h-617q47 -215 269 -215q118 0 221 74
q36 25 76 25q51 0 86 -35q34 -34 34 -88t-41 -92z" />
    <glyph glyph-name="f" unicode="f" horiz-adv-x="782" 
d="M193 143v688h-13q-52 0 -92 37q-37 37 -37 90t37 93q39 36 92 36h13v70q0 178 88 266q86 86 251 86q86 0 127 -8q107 -15 107 -125q0 -53 -37 -90q-39 -39 -90 -39h-27q-112 0 -112 -119v-43h135q53 0 92 -36q37 -37 37 -91q0 -53 -37 -90q-40 -37 -92 -37h-131v-688
q0 -65 -45 -110t-111 -45q-65 0 -110 45t-45 110z" />
    <glyph glyph-name="g" unicode="g" horiz-adv-x="1382" 
d="M631 -332q-213 0 -402 76q-88 34 -88 121q0 53 37 90q40 37 90 37q24 0 51 -10q147 -66 304 -66q313 0 313 299v53q-147 -178 -358 -178q-201 0 -340 133q-148 145 -148 379v4q0 235 150 379q139 133 338 133q204 0 354 -164v2q0 64 45 109t110 45q66 0 111 -45t45 -111
v-706q0 -293 -139 -432q-148 -148 -473 -148zM668 348q112 0 190 72t78 182v4q0 110 -78 182t-190 72q-113 0 -191 -72q-76 -70 -76 -182v-4q0 -114 76 -184t191 -70z" />
    <glyph glyph-name="h" unicode="h" horiz-adv-x="1275" 
d="M139 143v1209q0 65 45 110t111 45t111 -45t45 -110v-410q138 176 321 176q176 0 275 -108q98 -107 98 -299v-568q0 -65 -45 -110t-111 -45q-65 0 -110 45t-45 110v469q0 224 -189 224q-194 0 -194 -224v-469q0 -65 -45 -110t-111 -45t-111 45t-45 110z" />
    <glyph glyph-name="i" unicode="i" horiz-adv-x="618" 
d="M135 1356v4q0 67 51 106q45 39 123 39q77 0 125 -39q49 -40 49 -106v-4q0 -67 -49 -107q-50 -41 -125 -41q-76 0 -123 41q-51 39 -51 107zM154 143v811q0 66 45 111t110 45q66 0 111 -45t45 -111v-811q0 -65 -45 -110t-111 -45q-65 0 -110 45t-45 110z" />
    <glyph glyph-name="j" unicode="j" horiz-adv-x="618" 
d="M135 1356v4q0 67 51 106q45 39 123 39q77 0 125 -39q49 -40 49 -106v-4q0 -67 -49 -107q-50 -41 -125 -41q-76 0 -123 41q-51 39 -51 107zM133 -334h-4q-174 0 -174 127q0 56 37 90q35 35 84 35h2q76 0 76 102v934q0 66 45 111t110 45q66 0 111 -45t45 -111v-936
q0 -352 -332 -352z" />
    <glyph glyph-name="k" unicode="k" horiz-adv-x="1204" 
d="M139 143v1209q0 65 45 110t111 45t111 -45t45 -110v-680l389 368q73 70 137 70q60 0 100 -43q37 -40 37 -96q0 -66 -72 -135l-245 -211l293 -396q38 -49 38 -100q0 -62 -43 -102q-42 -39 -102 -39q-82 0 -135 71l-273 375l-124 -112v-179q0 -65 -45 -110t-111 -45
t-111 45t-45 110z" />
    <glyph glyph-name="l" unicode="l" horiz-adv-x="618" 
d="M154 143v1209q0 65 45 110t110 45q66 0 111 -45t45 -110v-1209q0 -65 -45 -110t-111 -45q-65 0 -110 45t-45 110z" />
    <glyph glyph-name="m" unicode="m" horiz-adv-x="1945" 
d="M139 143v811q0 66 45 111t111 45t111 -45t45 -111v-12q138 176 323 176q221 0 309 -174q149 174 361 174q178 0 272 -102q99 -105 99 -301v-572q0 -64 -46 -110q-45 -45 -110 -45q-66 0 -111 45t-45 110v469q0 224 -182 224q-188 0 -188 -224v-469q0 -64 -46 -110
q-45 -45 -110 -45q-66 0 -111 45t-45 110v469q0 224 -182 224q-188 0 -188 -224v-469q0 -65 -45 -110t-111 -45t-111 45t-45 110z" />
    <glyph glyph-name="n" unicode="n" horiz-adv-x="1275" 
d="M139 143v811q0 66 45 111t111 45t111 -45t45 -111v-12q138 176 321 176q176 0 275 -108q98 -107 98 -299v-568q0 -65 -45 -110t-111 -45q-65 0 -110 45t-45 110v469q0 224 -189 224q-194 0 -194 -224v-469q0 -65 -45 -110t-111 -45t-111 45t-45 110z" />
    <glyph glyph-name="o" unicode="o" horiz-adv-x="1359" 
d="M678 -25q-255 0 -424 166q-168 162 -168 402v4q0 239 170 403q171 168 426 168t424 -166q168 -162 168 -401v-4q0 -240 -170 -404q-171 -168 -426 -168zM682 244q130 0 209 88q76 82 76 211v4q0 124 -80 213q-84 90 -209 90q-130 0 -209 -88q-76 -82 -76 -211v-4
q0 -124 80 -213q84 -90 209 -90z" />
    <glyph glyph-name="p" unicode="p" horiz-adv-x="1382" 
d="M139 -184v1138q0 66 45 111t111 45t111 -45t45 -111v-14q132 178 342 178q204 0 346 -145q153 -159 153 -422v-4q0 -262 -151 -422q-142 -145 -348 -145q-204 0 -342 163v-327q0 -66 -45 -111t-111 -45t-111 45t-45 111zM713 244q112 0 188 82q80 86 80 221v4
q0 133 -80 219q-78 84 -188 84q-111 0 -189 -84q-78 -87 -78 -219v-4q0 -132 78 -219q78 -84 189 -84z" />
    <glyph glyph-name="q" unicode="q" horiz-adv-x="1382" 
d="M1243 954v-1138q0 -66 -45 -111t-111 -45q-65 0 -110 45t-45 111v342q-132 -178 -342 -178q-204 0 -346 145q-154 160 -154 422v4q0 261 152 422q142 145 348 145q204 0 342 -164v2q0 64 45 109t110 45q66 0 111 -45t45 -111zM670 854q-113 0 -189 -82q-80 -86 -80 -221
v-4q0 -133 80 -219q78 -84 189 -84q110 0 188 84q78 87 78 219v4q0 132 -78 219q-78 84 -188 84z" />
    <glyph glyph-name="r" unicode="r" horiz-adv-x="856" 
d="M139 143v811q0 66 45 111t111 45t111 -45t45 -111v-49q85 205 211 205q72 0 112 -43q39 -39 39 -109q0 -118 -117 -145q-245 -58 -245 -379v-291q0 -65 -45 -110t-111 -45t-111 45t-45 110z" />
    <glyph glyph-name="s" unicode="s" horiz-adv-x="1028" 
d="M524 -20q-223 0 -413 124q-60 38 -60 107q0 53 35 88q38 35 88 35q31 0 62 -17q154 -98 296 -98q132 0 132 82v4q0 46 -68 76q-40 15 -160 51q-327 94 -327 330v4q0 165 118 258q113 90 283 90q167 0 340 -84q74 -38 74 -117q0 -51 -37 -88q-34 -34 -88 -34q-33 0 -58 14
q-141 69 -237 69q-115 0 -115 -75v-4q0 -39 68 -74q13 -6 155 -57q159 -56 224 -107q108 -85 108 -219v-4q0 -176 -121 -268q-112 -86 -299 -86z" />
    <glyph glyph-name="t" unicode="t" horiz-adv-x="849" 
d="M510 -18q-320 0 -320 329v520h-10q-55 0 -94 39t-39 95q0 55 39 94t94 39h10v137q0 65 46 111q45 45 110 45q66 0 111 -45t45 -111v-137h137q55 0 94 -39t39 -94q0 -56 -39 -95t-94 -39h-137v-469q0 -106 100 -106l37 2q53 0 90 -37q39 -39 39 -92q0 -87 -80 -117
q-76 -30 -178 -30z" />
    <glyph glyph-name="u" unicode="u" horiz-adv-x="1275" 
d="M1137 954v-811q0 -65 -45 -110t-111 -45t-111 45t-45 110v13q-138 -176 -321 -176q-176 0 -275 108q-98 107 -98 299v567q0 66 45 111t111 45q65 0 110 -45t45 -111v-469q0 -223 189 -223q194 0 194 223v469q0 66 45 111t111 45t111 -45t45 -111z" />
    <glyph glyph-name="v" unicode="v" horiz-adv-x="1204" 
d="M1122 889l-336 -776q-59 -136 -176 -136h-16q-117 0 -176 136l-336 776q-16 43 -16 76q0 58 45 100q45 45 106 45q111 0 152 -111l235 -637l240 642q40 106 145 106q61 0 107 -43q43 -43 43 -104q0 -28 -17 -74z" />
    <glyph glyph-name="w" unicode="w" horiz-adv-x="1738" 
d="M524 -20h-10q-125 0 -172 139l-268 774q-15 44 -15 76q0 57 41 98q43 43 109 43q110 0 151 -121l168 -557l172 555q40 125 160 125h19q119 0 159 -125l174 -557l172 561q37 119 150 119q64 0 104 -43q41 -41 41 -100q0 -22 -10 -64l-276 -784q-47 -139 -172 -139h-11
q-124 0 -168 133l-174 553l-176 -553q-44 -133 -168 -133z" />
    <glyph glyph-name="x" unicode="x" horiz-adv-x="1175" 
d="M82 119q0 57 43 106l281 332l-256 295q-52 58 -52 119q0 64 43 104q39 39 101 39q80 0 145 -80l203 -270l207 270q65 80 135 80q62 0 104 -39q41 -41 41 -96t-43 -107l-266 -311l274 -315q52 -58 52 -119q0 -64 -43 -104q-39 -39 -101 -39q-81 0 -145 79l-221 291
l-222 -291q-64 -79 -135 -79q-63 0 -102 39q-43 40 -43 96z" />
    <glyph glyph-name="y" unicode="y" horiz-adv-x="1200" 
d="M367 -334q-85 0 -170 29q-99 35 -99 129q0 55 37 92q38 35 86 35q30 0 51 -8q44 -13 66 -13q76 0 111 66l10 24l-375 869q-16 43 -16 72q0 66 45 108q44 41 108 41q107 0 150 -117l237 -639l230 637q46 119 149 119q61 0 105 -41q43 -40 43 -102q0 -39 -15 -74l-383 -920
q-71 -171 -149 -237q-82 -70 -221 -70z" />
    <glyph glyph-name="z" unicode="z" horiz-adv-x="1153" 
d="M942 0h-700q-65 0 -109 35q-43 34 -43 90v6q0 76 70 152l510 563h-434q-54 0 -91 37q-36 36 -36 88q0 54 36 90q40 37 91 37h682q64 0 108 -35q43 -34 43 -90v-6q0 -76 -70 -152l-512 -563h455q53 0 90 -37t37 -90q0 -51 -37 -88t-90 -37z" />
    <glyph glyph-name="braceleft" unicode="{" horiz-adv-x="1003" 
d="M770 -272q-222 53 -313 147q-84 90 -84 242l6 141q0 195 -166 207q-127 9 -127 123t127 123q166 12 166 207l-6 141q0 151 84 241q92 95 313 148q60 15 102 -18q41 -30 41 -89q0 -80 -73 -104q-112 -41 -150 -90q-33 -44 -33 -133l7 -152q0 -203 -213 -274
q213 -71 213 -275l-7 -151q0 -89 33 -133q38 -49 150 -90q73 -24 73 -105q0 -58 -41 -88q-42 -33 -102 -18z" />
    <glyph glyph-name="bar" unicode="|" horiz-adv-x="716" 
d="M236 -152v1676q0 53 36 86q34 37 86 37t86 -37q37 -34 37 -86v-1676q0 -52 -37 -86q-33 -36 -86 -36t-86 36q-36 33 -36 86z" />
    <glyph glyph-name="braceright" unicode="}" horiz-adv-x="1003" 
d="M233 1448q222 -53 314 -148q84 -90 84 -241l-6 -141q0 -195 166 -207q127 -9 127 -123t-127 -123q-166 -12 -166 -207l6 -141q0 -152 -84 -242q-91 -94 -314 -147q-60 -15 -102 18q-41 30 -41 88q0 81 74 105q111 40 149 90q33 44 33 133l-6 151q0 204 213 275
q-213 71 -213 274l6 152q0 89 -33 133q-38 50 -149 90q-74 24 -74 104q0 59 41 89q42 33 102 18z" />
    <glyph glyph-name="asciitilde" unicode="~" horiz-adv-x="1044" 
d="M287 500q-27 -47 -80 -47q-38 0 -64 26q-28 25 -28 58q0 25 10 55q77 201 229 201q73 0 174 -39q103 -41 134 -41q61 0 96 59q27 47 80 47q39 0 65 -26q27 -24 27 -58q0 -25 -10 -55q-77 -201 -230 -201q-68 0 -174 41q-98 39 -133 39q-61 0 -96 -59z" />
    <glyph glyph-name="uni00A0" unicode="&#xa0;" horiz-adv-x="614" 
 />
    <glyph glyph-name="exclamdown" unicode="&#xa1;" horiz-adv-x="663" 
d="M424 868l88 -770q3 -46 -18 -73q-22 -31 -64 -31h-201q-41 0 -63 31q-22 28 -19 73l89 770q9 90 94 90t94 -90zM508 1272v-4q0 -75 -51 -123q-51 -51 -127 -51t-127 51q-51 48 -51 123v4q0 74 51 125q52 49 127 49t127 -49q51 -51 51 -125z" />
    <glyph glyph-name="cent" unicode="&#xa2;" horiz-adv-x="1189" 
d="M449 102l16 86q-164 59 -266 203q-103 148 -103 332v4q0 241 162 403q165 168 412 168h12l14 74q18 86 105 86q50 0 80 -37q29 -39 20 -90l-14 -65q93 -36 166 -95q45 -39 45 -102q0 -55 -41 -96t-96 -41q-44 0 -84 29q-20 14 -52 32l-112 -567q89 9 172 74q33 26 82 26
q51 0 88 -37q37 -40 37 -92q0 -56 -41 -94q-159 -144 -379 -147l-19 -95q-18 -86 -104 -86q-50 0 -80 37q-29 39 -20 90zM397 731v-4q0 -185 131 -264l111 565q-104 -9 -174 -94q-68 -83 -68 -203z" />
    <glyph glyph-name="sterling" unicode="&#xa3;" horiz-adv-x="1318" 
d="M111 115q0 89 86 116l82 27v289h-37q-52 0 -92 37q-39 39 -39 92t39 92t92 39h37v166q0 228 122 350q131 131 363 131q243 0 393 -156q49 -49 49 -112q0 -64 -45 -109t-110 -45q-66 0 -113 47q-79 82 -170 82q-72 0 -117 -45q-53 -53 -53 -151v-158h348q53 0 92 -39
t39 -92t-39 -92q-40 -37 -92 -37h-348v-275h498q55 0 96 -41t41 -96t-41 -96q-39 -39 -96 -39h-858q-57 0 -93 33q-34 34 -34 82z" />
    <glyph glyph-name="yen" unicode="&#xa5;" horiz-adv-x="1404" 
d="M854 537v-127h279q48 0 77 -33q33 -29 33 -78q0 -45 -33 -78q-29 -33 -77 -33h-279v-49q0 -64 -45 -106q-42 -45 -107 -45q-64 0 -106 45q-45 42 -45 106v49h-279q-44 0 -77 33t-33 78q0 49 33 78q33 33 77 33h279v127h-279q-45 0 -77 32q-33 33 -33 78q0 49 33 78
q33 33 77 33h193l-326 432q-39 51 -39 106q0 59 43 105q45 45 113 45q89 0 147 -88l302 -447l303 443q65 92 145 92q65 0 107 -39q45 -39 45 -109q0 -57 -39 -108l-330 -432h197q48 0 77 -33q33 -29 33 -78q0 -45 -33 -78q-28 -32 -77 -32h-279z" />
    <glyph glyph-name="section" unicode="&#xa7;" horiz-adv-x="1294" 
d="M666 -20q-245 0 -422 139q-43 34 -43 94q0 51 35 86t86 35q45 0 73 -25q126 -102 262 -102t136 74v4q0 62 -226 112q-246 55 -348 123q-106 69 -106 182v5q0 171 182 239q-86 68 -86 187v4q0 149 113 231q112 86 307 86q245 0 422 -139q43 -34 43 -94q0 -51 -35 -86
t-86 -35q-47 0 -74 24q-127 103 -262 103t-135 -74v-4q0 -63 225 -113q242 -54 348 -121q107 -67 107 -184v-4q0 -172 -183 -240q86 -68 86 -186v-4q0 -146 -110 -231q-115 -86 -309 -86zM797 592q112 0 112 90v4q0 66 -207 119q-145 37 -204 37q-113 0 -113 -90v-4
q0 -66 207 -119q145 -37 205 -37z" />
    <glyph glyph-name="dieresis" unicode="&#xa8;" 
d="M731 1509q68 0 115 -41q47 -44 47 -108v-4q0 -65 -47 -109q-47 -41 -115 -41t-115 41q-47 44 -47 109v4q0 64 47 108q47 41 115 41zM293 1509q68 0 115 -41q47 -44 47 -108v-4q0 -65 -47 -109q-47 -41 -115 -41t-115 41q-47 44 -47 109v4q0 64 47 108q47 41 115 41z" />
    <glyph glyph-name="copyright" unicode="&#xa9;" horiz-adv-x="1699" 
d="M848 -25q-308 0 -526 218q-213 216 -213 520v4q0 304 215 522q219 219 528 219t526 -217q213 -216 213 -520v-4q0 -304 -215 -522q-220 -220 -528 -220zM848 57q277 0 469 195q188 191 188 465v4q0 277 -186 463q-186 192 -467 192q-278 0 -469 -194q-188 -191 -188 -465
v-4q0 -277 186 -463q187 -193 467 -193zM858 319q-172 0 -289 117q-114 117 -114 287v4q0 170 114 287q118 121 295 121q159 0 266 -82q39 -26 39 -74q0 -37 -24 -61q-27 -27 -62 -27q-29 0 -57 22q-76 58 -162 58q-96 0 -162 -72q-63 -69 -63 -170v-4q0 -101 63 -170
q66 -72 162 -72q94 0 174 68q23 20 54 20q35 0 59 -24q25 -25 25 -60q0 -38 -27 -59q-121 -109 -291 -109z" />
    <glyph glyph-name="ordfeminine" unicode="&#xaa;" horiz-adv-x="798" 
d="M313 817q-89 0 -145 47q-62 53 -62 137v5q0 192 244 192q74 0 148 -24v10q0 110 -131 110q-56 0 -105 -14q-18 -6 -35 -6q-69 0 -69 69q0 51 45 66q82 31 188 31q137 0 205 -68q66 -66 66 -192v-279q0 -32 -25 -57t-59 -25q-82 0 -82 74v2q-69 -78 -183 -78zM614 567
h-458q-68 0 -68 68q0 67 68 67h458q68 0 68 -67q0 -68 -68 -68zM365 936q56 0 98 31q37 27 37 75v31q-61 23 -111 23q-117 0 -117 -82v-4q0 -74 93 -74z" />
    <glyph glyph-name="guillemotleft" unicode="&#xab;" horiz-adv-x="1320" 
d="M1057 84q-66 0 -107 53l-256 328q-35 47 -35 84t35 84l248 317q47 62 117 62q52 0 88 -39q35 -38 35 -90q0 -40 -35 -84l-199 -248l205 -256q31 -42 31 -82q0 -52 -37 -92q-37 -37 -90 -37zM500 84q-66 0 -107 53l-256 328q-35 47 -35 84t35 84l248 317q47 62 117 62
q52 0 88 -39q35 -38 35 -90q0 -40 -35 -84l-199 -248l205 -256q31 -42 31 -82q0 -52 -37 -92q-37 -37 -90 -37z" />
    <glyph glyph-name="registered" unicode="&#xae;" horiz-adv-x="753" 
d="M377 737q-149 0 -254 105q-103 106 -103 252v2q0 147 105 252q103 106 252 106q150 0 254 -104q102 -105 102 -252v-2q0 -148 -104 -252q-104 -107 -252 -107zM377 776q134 0 225 94q90 96 90 226v2q0 130 -90 223q-91 94 -225 94t-225 -94q-91 -97 -91 -225v-2
q0 -130 91 -224t225 -94zM221 958v279q0 53 53 53h127q158 0 158 -129q0 -78 -70 -112l48 -56q14 -14 14 -37q0 -51 -53 -51q-26 0 -41 21l-80 100h-49v-68q0 -53 -54 -53q-53 0 -53 53zM328 1110h67q58 0 58 45t-58 45h-67v-90z" />
    <glyph glyph-name="macron" unicode="&#xaf;" 
d="M784 1229h-544q-45 0 -76 31q-33 29 -33 75q0 47 33 76q29 33 76 33h544q47 0 76 -33q33 -29 33 -76q0 -46 -33 -75q-31 -31 -76 -31z" />
    <glyph glyph-name="degree" unicode="&#xb0;" horiz-adv-x="983" 
d="M492 754q-140 0 -248 102q-107 101 -107 242v4q0 140 107 241q109 103 248 103q138 0 247 -103q107 -101 107 -241v-4q0 -141 -107 -242q-108 -102 -247 -102zM492 907q80 0 135 58q53 56 53 133v4q0 77 -53 133q-54 57 -135 57q-82 0 -136 -57q-53 -56 -53 -133v-4
q0 -77 53 -133q55 -58 136 -58z" />
    <glyph glyph-name="plusminus" unicode="&#xb1;" horiz-adv-x="1310" 
d="M516 543l2 235l-246 -2q-53 0 -94 41t-41 94q0 56 41 97q39 39 94 39l246 -3l-2 236q0 57 41 98t98 41q58 0 99 -41t41 -98l-2 -236l245 3q58 0 97 -39t39 -97q0 -55 -39 -94q-41 -41 -97 -41l-245 2l2 -235q0 -58 -41 -99t-99 -41q-57 0 -98 41t-41 99zM1044 0h-778
q-52 0 -92 37q-37 40 -37 92t37 92q40 37 92 37h778q53 0 93 -37q37 -40 37 -92t-37 -92q-40 -37 -93 -37z" />
    <glyph glyph-name="acute" unicode="&#xb4;" 
d="M418 1206q-78 0 -78 54q0 22 20 55l113 176q43 70 117 70q55 0 115 -29q59 -30 59 -66q0 -35 -41 -73l-127 -119q-71 -68 -178 -68z" />
    <glyph glyph-name="paragraph" unicode="&#xb6;" horiz-adv-x="1208" 
d="M721 145v326h-49q-270 0 -428 119q-172 129 -172 358v4q0 222 157 355q151 127 408 127h242q67 0 112 -45t45 -113v-1131q0 -67 -45 -112t-112 -45q-68 0 -113 45t-45 112z" />
    <glyph glyph-name="periodcentered" unicode="&#xb7;" horiz-adv-x="585" 
d="M115 633v4q0 72 53 125q52 49 125 49q75 0 127 -49q51 -51 51 -125v-4q0 -75 -51 -123q-51 -51 -127 -51q-74 0 -125 51q-53 50 -53 123z" />
    <glyph glyph-name="cedilla" unicode="&#xb8;" 
d="M653 20l-121 -296q-28 -66 -90 -66q-46 0 -108 35q-68 35 -68 71q0 26 19 54l139 202h229z" />
    <glyph glyph-name="ordmasculine" unicode="&#xba;" horiz-adv-x="798" 
d="M397 815q-133 0 -223 90t-90 221v4q0 133 92 222q89 92 225 92t226 -90q88 -88 88 -221v-5q0 -131 -90 -221q-92 -92 -228 -92zM639 567h-479q-68 0 -68 68q0 67 68 67h479q68 0 68 -67q0 -68 -68 -68zM401 963q67 0 107 49q39 45 39 114v4q0 67 -41 117q-43 49 -109 49
t-106 -49q-39 -45 -39 -114v-5q0 -66 41 -116q43 -49 108 -49z" />
    <glyph glyph-name="guillemotright" unicode="&#xbb;" horiz-adv-x="1320" 
d="M821 1012q65 0 107 -54l256 -327q35 -47 35 -84t-35 -84l-248 -318q-46 -61 -117 -61q-52 0 -88 39q-35 38 -35 90q0 40 35 84l199 248l-205 256q-31 42 -31 82q0 52 37 92q37 37 90 37zM264 1012q65 0 107 -54l256 -327q35 -47 35 -84t-35 -84l-248 -318
q-46 -61 -117 -61q-52 0 -88 39q-35 38 -35 90q0 40 35 84l199 248l-205 256q-31 42 -31 82q0 52 37 92q37 37 90 37z" />
    <glyph glyph-name="questiondown" unicode="&#xbf;" horiz-adv-x="1114" 
d="M596 958h16q96 0 111 -100l20 -139q15 -108 -94 -123q-260 -34 -260 -178v-4q0 -146 189 -146q130 0 237 82q42 33 92 33q61 0 101 -43q43 -40 43 -100q0 -63 -54 -111q-179 -147 -426 -147q-227 0 -358 110q-137 113 -137 314v4q0 328 403 411l6 37q15 100 111 100z
M791 1272v-4q0 -74 -52 -123q-51 -51 -127 -51t-127 51q-51 48 -51 123v4q0 74 51 125q52 49 127 49t127 -49q52 -52 52 -125z" />
    <glyph glyph-name="Agrave" unicode="&#xc0;" horiz-adv-x="1568" 
d="M74 135q0 27 18 68l500 1128q55 125 184 125h19q127 0 182 -125l500 -1128q16 -40 16 -64q0 -63 -43 -106q-42 -45 -107 -45q-105 0 -151 108l-96 226h-631l-100 -236q-43 -98 -146 -98q-62 0 -102 43q-43 43 -43 104zM582 600h397l-199 473zM791 1554q-108 0 -179 68
l-127 119q-41 38 -41 74q0 34 60 65q60 29 114 29q74 0 117 -70l113 -176q20 -33 20 -55q0 -54 -77 -54z" />
    <glyph glyph-name="Aacute" unicode="&#xc1;" horiz-adv-x="1568" 
d="M74 135q0 27 18 68l500 1128q55 125 184 125h19q127 0 182 -125l500 -1128q16 -40 16 -64q0 -63 -43 -106q-42 -45 -107 -45q-105 0 -151 108l-96 226h-631l-100 -236q-43 -98 -146 -98q-62 0 -102 43q-43 43 -43 104zM582 600h397l-199 473zM774 1554q-78 0 -78 54
q0 20 21 55l112 176q43 70 117 70q55 0 115 -29q59 -30 59 -65q0 -36 -41 -74l-127 -119q-71 -68 -178 -68z" />
    <glyph glyph-name="Acircumflex" unicode="&#xc2;" horiz-adv-x="1568" 
d="M74 135q0 27 18 68l500 1128q55 125 184 125h19q127 0 182 -125l500 -1128q16 -40 16 -64q0 -63 -43 -106q-42 -45 -107 -45q-105 0 -151 108l-96 226h-631l-100 -236q-43 -98 -146 -98q-62 0 -102 43q-43 43 -43 104zM582 600h397l-199 473zM780 1702l-96 -80
q-83 -68 -188 -68q-68 0 -68 50q0 17 31 59l129 166q57 69 145 69h98q89 0 146 -69l129 -166q31 -42 31 -59q0 -50 -72 -50q-105 0 -188 68z" />
    <glyph glyph-name="Atilde" unicode="&#xc3;" horiz-adv-x="1568" 
d="M74 135q0 27 18 68l500 1128q55 125 184 125h19q127 0 182 -125l500 -1128q16 -40 16 -64q0 -63 -43 -106q-42 -45 -107 -45q-105 0 -151 108l-96 226h-631l-100 -236q-43 -98 -146 -98q-62 0 -102 43q-43 43 -43 104zM582 600h397l-199 473zM557 1587q-27 -47 -80 -47
q-36 0 -63 27q-29 26 -29 57q0 25 10 55q77 201 230 201q73 0 174 -39q103 -41 133 -41q61 0 96 60q27 47 80 47q39 0 66 -27q26 -23 26 -57q0 -26 -10 -56q-77 -200 -229 -200q-69 0 -175 41q-98 39 -133 39q-61 0 -96 -60z" />
    <glyph glyph-name="Adieresis" unicode="&#xc4;" horiz-adv-x="1568" 
d="M74 135q0 27 18 68l500 1128q55 125 184 125h19q127 0 182 -125l500 -1128q16 -40 16 -64q0 -63 -43 -106q-42 -45 -107 -45q-105 0 -151 108l-96 226h-631l-100 -236q-43 -98 -146 -98q-62 0 -102 43q-43 43 -43 104zM582 600h397l-199 473zM1001 1858q68 0 115 -41
q47 -44 47 -109v-4q0 -65 -47 -109q-47 -41 -115 -41q-67 0 -114 41q-47 44 -47 109v4q0 65 47 109q47 41 114 41zM563 1858q68 0 115 -41q47 -44 47 -109v-4q0 -65 -47 -109q-47 -41 -115 -41q-67 0 -114 41q-48 45 -48 109v4q0 64 48 109q47 41 114 41z" />
    <glyph glyph-name="Aring" unicode="&#xc5;" horiz-adv-x="1617" 
d="M969 1405l532 -1202q17 -42 17 -64q0 -63 -43 -106q-42 -45 -107 -45q-104 0 -151 108l-97 226h-631l-100 -236q-43 -98 -145 -98q-63 0 -103 43q-43 43 -43 104q0 25 19 68l532 1202q-88 73 -88 180v4q0 98 76 168q73 70 172 70q98 0 174 -70q74 -71 74 -168v-4
q0 -107 -88 -180zM809 1460q50 0 90 37q37 37 37 88v4q0 51 -37 88q-40 37 -90 37t-90 -37q-37 -37 -37 -88v-4q0 -51 37 -88q40 -37 90 -37zM606 600h398l-199 473z" />
    <glyph glyph-name="AE" unicode="&#xc6;" horiz-adv-x="2140" 
d="M68 115q0 43 24 90l641 1118q65 111 189 111h970q60 0 101 -41t41 -101q0 -57 -41 -98t-101 -41h-587v-291h495q60 0 101 -41t41 -100q0 -57 -41 -98t-101 -41h-495v-301h598q59 0 100 -41t41 -101q0 -57 -41 -98t-100 -41h-754q-68 0 -113 45t-45 113v164h-508
l-139 -248q-50 -86 -137 -86q-58 0 -98 37q-41 35 -41 90zM641 600h350v561h-35z" />
    <glyph glyph-name="Ccedilla" unicode="&#xc7;" horiz-adv-x="1511" 
d="M1354 156q-188 -164 -457 -179l-102 -253q-28 -66 -90 -66q-47 0 -109 35q-68 35 -68 71q0 26 19 54l121 178q-249 55 -404 254q-155 198 -155 463v4q0 313 208 524q211 217 539 217q281 0 479 -145q62 -47 62 -125q0 -64 -45 -109t-111 -45q-43 0 -94 31
q-138 102 -293 102q-180 0 -299 -131q-117 -129 -117 -315v-4q0 -189 117 -318q121 -133 299 -133q171 0 311 113q41 35 95 35q58 0 104 -43q43 -43 43 -103q0 -65 -53 -112z" />
    <glyph glyph-name="Egrave" unicode="&#xc8;" horiz-adv-x="1372" 
d="M1135 0h-805q-68 0 -113 45t-45 113v1118q0 68 45 113t113 45h794q60 0 101 -41t41 -101q0 -57 -41 -98t-101 -41h-639v-291h547q60 0 101 -41t41 -100q0 -57 -41 -98t-101 -41h-547v-301h650q59 0 100 -41t41 -101q0 -57 -41 -98t-100 -41zM725 1534q-107 0 -178 68
l-127 118q-41 38 -41 74t59 66q58 28 115 28q74 0 117 -69l112 -177q21 -34 21 -55q0 -53 -78 -53z" />
    <glyph glyph-name="Eacute" unicode="&#xc9;" horiz-adv-x="1372" 
d="M1135 0h-805q-68 0 -113 45t-45 113v1118q0 68 45 113t113 45h794q60 0 101 -41t41 -101q0 -57 -41 -98t-101 -41h-639v-291h547q60 0 101 -41t41 -100q0 -57 -41 -98t-101 -41h-547v-301h650q59 0 100 -41t41 -101q0 -57 -41 -98t-100 -41zM709 1534q-78 0 -78 53
q0 22 20 55l113 177q43 69 117 69q56 0 114 -28q60 -31 60 -66q0 -36 -41 -74l-127 -118q-71 -68 -178 -68z" />
    <glyph glyph-name="Ecircumflex" unicode="&#xca;" horiz-adv-x="1372" 
d="M1135 0h-805q-68 0 -113 45t-45 113v1118q0 68 45 113t113 45h794q60 0 101 -41t41 -101q0 -57 -41 -98t-101 -41h-639v-291h547q60 0 101 -41t41 -100q0 -57 -41 -98t-101 -41h-547v-301h650q59 0 100 -41t41 -101q0 -57 -41 -98t-100 -41zM715 1681l-97 -79
q-83 -68 -188 -68q-68 0 -68 49q0 17 31 59l129 166q58 70 146 70h98q87 0 145 -70l129 -166q31 -42 31 -59q0 -49 -72 -49q-105 0 -188 68z" />
    <glyph glyph-name="Edieresis" unicode="&#xcb;" horiz-adv-x="1372" 
d="M1135 0h-805q-68 0 -113 45t-45 113v1118q0 68 45 113t113 45h794q60 0 101 -41t41 -101q0 -57 -41 -98t-101 -41h-639v-291h547q60 0 101 -41t41 -100q0 -57 -41 -98t-101 -41h-547v-301h650q59 0 100 -41t41 -101q0 -57 -41 -98t-100 -41zM936 1837q68 0 115 -41
q47 -44 47 -108v-5q0 -64 -47 -108q-47 -41 -115 -41t-115 41q-47 44 -47 108v5q0 64 47 108q47 41 115 41zM498 1837q67 0 114 -41q47 -44 47 -108v-5q0 -64 -47 -108q-47 -41 -114 -41q-68 0 -115 41q-47 44 -47 108v5q0 64 47 108q47 41 115 41z" />
    <glyph glyph-name="Igrave" unicode="&#xcc;" horiz-adv-x="688" 
d="M186 145v1143q0 68 45 113t113 45t113 -45t45 -113v-1143q0 -67 -45 -112t-113 -45t-113 45t-45 112zM352 1534q-107 0 -178 68l-127 118q-41 38 -41 74q0 35 60 66q58 28 114 28q74 0 117 -69l113 -177q20 -33 20 -55q0 -53 -78 -53z" />
    <glyph glyph-name="Iacute" unicode="&#xcd;" horiz-adv-x="688" 
d="M186 145v1143q0 68 45 113t113 45t113 -45t45 -113v-1143q0 -67 -45 -112t-113 -45t-113 45t-45 112zM336 1534q-78 0 -78 53q0 21 21 55l112 177q43 69 117 69q57 0 115 -28q59 -30 59 -66t-41 -74l-127 -118q-71 -68 -178 -68z" />
    <glyph glyph-name="Icircumflex" unicode="&#xce;" horiz-adv-x="688" 
d="M186 145v1143q0 68 45 113t113 45t113 -45t45 -113v-1143q0 -67 -45 -112t-113 -45t-113 45t-45 112zM342 1681l-96 -79q-83 -68 -189 -68q-67 0 -67 49q0 19 30 59l130 166q58 70 145 70h98q88 0 146 -70l129 -166q30 -40 30 -59q0 -49 -71 -49q-106 0 -189 68z" />
    <glyph glyph-name="Idieresis" unicode="&#xcf;" horiz-adv-x="688" 
d="M186 145v1143q0 68 45 113t113 45t113 -45t45 -113v-1143q0 -67 -45 -112t-113 -45t-113 45t-45 112zM563 1837q68 0 115 -41q47 -44 47 -108v-5q0 -64 -47 -108q-47 -41 -115 -41q-67 0 -114 41q-48 45 -48 108v5q0 63 48 108q47 41 114 41zM125 1837q68 0 115 -41
q47 -44 47 -108v-5q0 -64 -47 -108q-47 -41 -115 -41t-115 41q-47 44 -47 108v5q0 64 47 108q47 41 115 41z" />
    <glyph glyph-name="Eth" unicode="&#xd0;" horiz-adv-x="1662" 
d="M207 860h26v416q0 67 46 113q45 45 112 45h402q333 0 550 -205q211 -202 211 -508v-4q0 -308 -211 -510q-219 -207 -550 -207h-402q-67 0 -112 45q-46 46 -46 113v424h-26q-57 0 -98 41t-41 98t41 98t98 41zM545 1149v-289h184q57 0 98 -41t41 -98t-41 -98t-98 -41h-184
v-297h248q195 0 313 118q119 119 119 310v4q0 192 -119 311q-121 121 -313 121h-248z" />
    <glyph glyph-name="Ntilde" unicode="&#xd1;" horiz-adv-x="1617" 
d="M172 143v1141q0 68 45 113t113 45h32q93 0 164 -92l609 -799v739q0 66 45 111t110 45q66 0 111 -45t45 -111v-1140q0 -68 -45 -113t-113 -45h-10q-93 0 -164 92l-631 827v-768q0 -65 -45 -110t-110 -45q-66 0 -111 45t-45 110zM584 1567q-27 -47 -80 -47q-38 0 -64 26
q-28 25 -28 58q0 25 10 55q77 201 229 201q73 0 174 -39q103 -41 133 -41q62 0 97 59q27 47 80 47q39 0 65 -26q27 -24 27 -58q0 -25 -10 -55q-77 -201 -230 -201q-68 0 -174 41q-98 39 -133 39q-61 0 -96 -59z" />
    <glyph glyph-name="Ograve" unicode="&#xd2;" horiz-adv-x="1740" 
d="M868 -25q-326 0 -544 215q-215 212 -215 523v4q0 310 217 524q217 217 546 217t547 -215q213 -213 213 -522v-4q0 -309 -215 -524q-221 -218 -549 -218zM872 266q190 0 312 131q119 125 119 316v4q0 187 -121 317q-127 133 -314 133q-190 0 -309 -131
q-121 -127 -121 -315v-4q0 -189 123 -318q124 -133 311 -133zM879 1554q-108 0 -179 68l-127 119q-41 38 -41 74q0 34 60 65q60 29 115 29q73 0 116 -70l113 -176q20 -33 20 -55q0 -54 -77 -54z" />
    <glyph glyph-name="Oacute" unicode="&#xd3;" horiz-adv-x="1740" 
d="M868 -25q-326 0 -544 215q-215 212 -215 523v4q0 310 217 524q217 217 546 217t547 -215q213 -213 213 -522v-4q0 -309 -215 -524q-221 -218 -549 -218zM872 266q190 0 312 131q119 125 119 316v4q0 187 -121 317q-127 133 -314 133q-190 0 -309 -131
q-121 -127 -121 -315v-4q0 -189 123 -318q124 -133 311 -133zM862 1554q-78 0 -78 54q0 20 21 55l113 176q43 70 116 70q55 0 115 -29q59 -30 59 -65q0 -36 -41 -74l-127 -119q-71 -68 -178 -68z" />
    <glyph glyph-name="Ocircumflex" unicode="&#xd4;" horiz-adv-x="1740" 
d="M868 -25q-326 0 -544 215q-215 212 -215 523v4q0 310 217 524q217 217 546 217t547 -215q213 -213 213 -522v-4q0 -309 -215 -524q-221 -218 -549 -218zM872 266q190 0 312 131q119 125 119 316v4q0 187 -121 317q-127 133 -314 133q-190 0 -309 -131
q-121 -127 -121 -315v-4q0 -189 123 -318q124 -133 311 -133zM868 1702l-96 -80q-83 -68 -188 -68q-68 0 -68 50q0 17 31 59l129 166q57 69 145 69h99q88 0 145 -69l129 -166q31 -42 31 -59q0 -50 -72 -50q-105 0 -188 68z" />
    <glyph glyph-name="Otilde" unicode="&#xd5;" horiz-adv-x="1740" 
d="M868 -25q-326 0 -544 215q-215 212 -215 523v4q0 310 217 524q217 217 546 217t547 -215q213 -213 213 -522v-4q0 -309 -215 -524q-221 -218 -549 -218zM872 266q190 0 312 131q119 125 119 316v4q0 187 -121 317q-127 133 -314 133q-190 0 -309 -131
q-121 -127 -121 -315v-4q0 -189 123 -318q124 -133 311 -133zM645 1587q-27 -47 -80 -47q-36 0 -63 27q-29 26 -29 57q0 25 10 55q77 201 230 201q73 0 174 -39q103 -41 133 -41q61 0 96 60q27 47 80 47q39 0 66 -27q26 -23 26 -57q0 -26 -10 -56q-77 -200 -229 -200
q-69 0 -175 41q-98 39 -133 39q-61 0 -96 -60z" />
    <glyph glyph-name="Odieresis" unicode="&#xd6;" horiz-adv-x="1740" 
d="M868 -25q-326 0 -544 215q-215 212 -215 523v4q0 310 217 524q217 217 546 217t547 -215q213 -213 213 -522v-4q0 -309 -215 -524q-221 -218 -549 -218zM872 266q190 0 312 131q119 125 119 316v4q0 187 -121 317q-127 133 -314 133q-190 0 -309 -131
q-121 -127 -121 -315v-4q0 -189 123 -318q124 -133 311 -133zM1090 1858q67 0 114 -41q47 -44 47 -109v-4q0 -65 -47 -109q-47 -41 -114 -41q-68 0 -115 41q-47 44 -47 109v4q0 65 47 109q47 41 115 41zM651 1858q68 0 115 -41q47 -44 47 -109v-4q0 -65 -47 -109
q-47 -41 -115 -41q-67 0 -114 41q-48 45 -48 109v4q0 64 48 109q47 41 114 41z" />
    <glyph glyph-name="multiply" unicode="&#xd7;" horiz-adv-x="1310" 
d="M1073 950l-233 -227l237 -229q41 -41 41 -99q0 -55 -41 -96t-96 -41q-57 0 -98 41l-230 238l-229 -236q-43 -43 -98 -43q-56 0 -95 39q-38 38 -38 94t45 101l233 227l-238 229q-40 40 -40 99q0 56 40 96q41 41 97 41q57 0 98 -41l229 -238l230 236q43 43 98 43t94 -39
t39 -94q0 -56 -45 -101z" />
    <glyph glyph-name="Oslash" unicode="&#xd8;" horiz-adv-x="1740" 
d="M868 -25q-243 0 -438 127l-82 -82q-43 -43 -94 -43q-47 0 -78 31q-31 28 -31 68q0 51 45 96l78 80q-159 194 -159 461v4q0 310 217 524q217 217 546 217q242 0 437 -127l84 82q43 43 94 43q47 0 78 -31q30 -27 30 -67q0 -51 -45 -96l-77 -82q159 -200 159 -459v-4
q0 -309 -215 -524q-221 -218 -549 -218zM432 721v-4q0 -129 60 -234l606 625q-107 66 -230 66q-185 0 -313 -134q-123 -132 -123 -319zM872 260q187 0 314 133q123 132 123 320v4q0 122 -60 233l-608 -626q101 -64 231 -64z" />
    <glyph glyph-name="Ugrave" unicode="&#xd9;" horiz-adv-x="1548" 
d="M770 -23q-290 0 -455 160q-165 165 -165 477v674q0 68 45 113t112 45q68 0 113 -45t45 -113v-665q0 -355 309 -355t309 344v676q0 68 45 113t113 45t113 -45t45 -113v-663q0 -319 -170 -486q-162 -162 -459 -162zM782 1534q-107 0 -178 68l-127 118q-41 38 -41 74
q0 35 60 66q58 28 114 28q74 0 117 -69l113 -177q20 -33 20 -55q0 -53 -78 -53z" />
    <glyph glyph-name="Uacute" unicode="&#xda;" horiz-adv-x="1548" 
d="M770 -23q-290 0 -455 160q-165 165 -165 477v674q0 68 45 113t112 45q68 0 113 -45t45 -113v-665q0 -355 309 -355t309 344v676q0 68 45 113t113 45t113 -45t45 -113v-663q0 -319 -170 -486q-162 -162 -459 -162zM766 1534q-78 0 -78 53q0 21 21 55l112 177q43 69 117 69
q57 0 115 -28q59 -30 59 -66t-41 -74l-127 -118q-71 -68 -178 -68z" />
    <glyph glyph-name="Ucircumflex" unicode="&#xdb;" horiz-adv-x="1548" 
d="M770 -23q-290 0 -455 160q-165 165 -165 477v674q0 68 45 113t112 45q68 0 113 -45t45 -113v-665q0 -355 309 -355t309 344v676q0 68 45 113t113 45t113 -45t45 -113v-663q0 -319 -170 -486q-162 -162 -459 -162zM772 1681l-96 -79q-83 -68 -189 -68q-67 0 -67 49
q0 17 31 59l129 166q58 70 145 70h98q88 0 146 -70l129 -166q30 -40 30 -59q0 -49 -71 -49q-106 0 -189 68z" />
    <glyph glyph-name="Udieresis" unicode="&#xdc;" horiz-adv-x="1548" 
d="M770 -23q-290 0 -455 160q-165 165 -165 477v674q0 68 45 113t112 45q68 0 113 -45t45 -113v-665q0 -355 309 -355t309 344v676q0 68 45 113t113 45t113 -45t45 -113v-663q0 -319 -170 -486q-162 -162 -459 -162zM993 1837q68 0 115 -41q47 -44 47 -108v-5
q0 -64 -47 -108q-47 -41 -115 -41q-67 0 -114 41q-48 45 -48 108v5q0 63 48 108q47 41 114 41zM555 1837q68 0 115 -41q47 -44 47 -108v-5q0 -64 -47 -108q-47 -41 -115 -41t-115 41q-47 44 -47 108v5q0 64 47 108q47 41 115 41z" />
    <glyph glyph-name="Yacute" unicode="&#xdd;" horiz-adv-x="1409" 
d="M547 145v408l-463 629q-39 51 -39 112q0 65 45 107q45 45 113 45q89 0 155 -96l349 -502l354 506q64 94 151 94q71 0 113 -45q41 -44 41 -109q0 -51 -41 -110l-463 -625v-414q0 -67 -45 -112t-112 -45q-68 0 -113 45t-45 112zM696 1534q-78 0 -78 53q0 21 21 55l113 177
q43 69 116 69q57 0 115 -28q59 -30 59 -66t-41 -74l-127 -118q-71 -68 -178 -68z" />
    <glyph glyph-name="Thorn" unicode="&#xde;" horiz-adv-x="1378" 
d="M172 145v1143q0 68 45 113t113 45q67 0 112 -45t45 -113v-63h271q253 0 403 -138q146 -137 146 -358v-4q0 -239 -170 -377q-157 -127 -410 -127h-240v-76q0 -67 -45 -112t-112 -45q-68 0 -113 45t-45 112zM487 502h250q116 0 185 63q65 59 65 154v4q0 217 -256 217h-244
v-438z" />
    <glyph glyph-name="germandbls" unicode="&#xdf;" horiz-adv-x="1269" 
d="M600 119q0 96 109 123q165 40 165 176v4q0 117 -167 178q-107 40 -107 135q0 76 59 123q134 104 134 221v4q0 164 -164 164q-80 0 -129 -55q-51 -57 -51 -150v-901q0 -62 -46 -108q-45 -45 -110 -45q-64 0 -109 45t-45 108v889q0 226 137 354q131 125 367 125
q212 0 338 -114q119 -107 119 -283v-4q0 -208 -187 -334q269 -118 269 -362v-4q0 -189 -142 -310q-125 -104 -297 -104q-143 0 -143 125z" />
    <glyph glyph-name="agrave" unicode="&#xe0;" horiz-adv-x="1212" 
d="M451 -20q-161 0 -267 86q-110 91 -110 249v4q0 177 123 265q118 86 319 86q140 0 268 -45v18q0 201 -235 201q-113 0 -215 -31q-21 -8 -45 -8q-52 0 -92 37q-37 37 -37 90q0 90 84 121q149 57 350 57q248 0 371 -123q118 -118 118 -350v-500q0 -64 -45 -106
q-43 -43 -106 -43q-65 0 -109 41q-41 38 -41 88v2q-127 -139 -331 -139zM545 195q108 0 176 53q67 55 67 139v55q-90 41 -198 41q-215 0 -215 -151v-4q0 -133 170 -133zM618 1206q-107 0 -178 68l-127 119q-41 38 -41 73t60 66q60 29 114 29q74 0 117 -70l113 -176
q20 -33 20 -55q0 -54 -78 -54z" />
    <glyph glyph-name="aacute" unicode="&#xe1;" horiz-adv-x="1212" 
d="M451 -20q-161 0 -267 86q-110 91 -110 249v4q0 177 123 265q118 86 319 86q140 0 268 -45v18q0 201 -235 201q-113 0 -215 -31q-21 -8 -45 -8q-52 0 -92 37q-37 37 -37 90q0 90 84 121q149 57 350 57q248 0 371 -123q118 -118 118 -350v-500q0 -64 -45 -106
q-43 -43 -106 -43q-65 0 -109 41q-41 38 -41 88v2q-127 -139 -331 -139zM545 195q108 0 176 53q67 55 67 139v55q-90 41 -198 41q-215 0 -215 -151v-4q0 -133 170 -133zM602 1206q-78 0 -78 54q0 20 21 55l112 176q43 70 117 70q55 0 115 -29q59 -30 59 -66q0 -35 -41 -73
l-127 -119q-71 -68 -178 -68z" />
    <glyph glyph-name="acircumflex" unicode="&#xe2;" horiz-adv-x="1212" 
d="M451 -20q-161 0 -267 86q-110 91 -110 249v4q0 177 123 265q118 86 319 86q140 0 268 -45v18q0 201 -235 201q-113 0 -215 -31q-21 -8 -45 -8q-52 0 -92 37q-37 37 -37 90q0 90 84 121q149 57 350 57q248 0 371 -123q118 -118 118 -350v-500q0 -64 -45 -106
q-43 -43 -106 -43q-65 0 -109 41q-41 38 -41 88v2q-127 -139 -331 -139zM608 1354l-96 -80q-83 -68 -188 -68q-68 0 -68 49q0 18 31 60l129 166q57 69 145 69h98q89 0 146 -69l129 -166q31 -42 31 -60q0 -49 -72 -49q-105 0 -188 68zM545 195q108 0 176 53q67 55 67 139v55
q-90 41 -198 41q-215 0 -215 -151v-4q0 -133 170 -133z" />
    <glyph glyph-name="atilde" unicode="&#xe3;" horiz-adv-x="1212" 
d="M451 -20q-161 0 -267 86q-110 91 -110 249v4q0 177 123 265q118 86 319 86q140 0 268 -45v18q0 201 -235 201q-113 0 -215 -31q-21 -8 -45 -8q-52 0 -92 37q-37 37 -37 90q0 90 84 121q149 57 350 57q248 0 371 -123q118 -118 118 -350v-500q0 -64 -45 -106
q-43 -43 -106 -43q-65 0 -109 41q-41 38 -41 88v2q-127 -139 -331 -139zM385 1239q-27 -47 -80 -47q-36 0 -63 27q-29 26 -29 57q0 25 10 55q77 201 230 201q73 0 174 -39q103 -41 133 -41q61 0 96 59q28 48 80 48q38 0 65 -27q27 -24 27 -57q0 -26 -10 -56
q-77 -200 -230 -200q-68 0 -174 41q-96 38 -133 38q-61 0 -96 -59zM545 195q108 0 176 53q67 55 67 139v55q-90 41 -198 41q-215 0 -215 -151v-4q0 -133 170 -133z" />
    <glyph glyph-name="adieresis" unicode="&#xe4;" horiz-adv-x="1212" 
d="M451 -20q-161 0 -267 86q-110 91 -110 249v4q0 177 123 265q118 86 319 86q140 0 268 -45v18q0 201 -235 201q-113 0 -215 -31q-21 -8 -45 -8q-52 0 -92 37q-37 37 -37 90q0 90 84 121q149 57 350 57q248 0 371 -123q118 -118 118 -350v-500q0 -64 -45 -106
q-43 -43 -106 -43q-65 0 -109 41q-41 38 -41 88v2q-127 -139 -331 -139zM545 195q108 0 176 53q67 55 67 139v55q-90 41 -198 41q-215 0 -215 -151v-4q0 -133 170 -133zM829 1509q68 0 115 -41q47 -44 47 -108v-4q0 -65 -47 -109q-47 -41 -115 -41q-67 0 -114 41
q-47 44 -47 109v4q0 64 47 108q47 41 114 41zM391 1509q68 0 115 -41q47 -44 47 -108v-4q0 -65 -47 -109q-47 -41 -115 -41t-115 41q-47 44 -47 109v4q0 64 47 108q47 41 115 41z" />
    <glyph glyph-name="aring" unicode="&#xe5;" horiz-adv-x="1212" 
d="M451 -20q-161 0 -267 86q-110 91 -110 249v4q0 177 123 265q118 86 319 86q140 0 268 -45v18q0 201 -235 201q-113 0 -215 -31q-21 -8 -45 -8q-52 0 -92 37q-37 37 -37 90q0 90 84 121q149 57 350 57q248 0 371 -123q118 -118 118 -350v-500q0 -64 -45 -106
q-43 -43 -106 -43q-65 0 -109 41q-41 38 -41 88v2q-127 -139 -331 -139zM610 1214q-99 0 -172 70q-76 70 -76 168v4q0 98 76 168q73 70 172 70q98 0 174 -70q74 -71 74 -168v-4q0 -97 -74 -168q-76 -70 -174 -70zM545 195q108 0 176 53q67 55 67 139v55q-90 41 -198 41
q-215 0 -215 -151v-4q0 -133 170 -133zM610 1327q50 0 90 37q37 37 37 88v4q0 51 -37 88q-40 37 -90 37t-90 -37q-37 -37 -37 -88v-4q0 -51 37 -88q40 -37 90 -37z" />
    <glyph glyph-name="ae" unicode="&#xe6;" horiz-adv-x="1947" 
d="M1083 635h469q-30 233 -231 233q-198 0 -238 -233zM545 199q146 0 280 104q-30 71 -39 141q-88 39 -196 39q-215 0 -215 -151v-4q0 -61 49 -95t121 -34zM1733 109q-158 -134 -381 -134q-255 0 -418 166q-214 -161 -447 -161q-181 0 -294 88q-119 91 -119 247v4
q0 177 123 265q118 86 319 86q140 0 268 -45v18q0 201 -235 201q-113 0 -215 -31q-21 -8 -45 -8q-52 0 -92 37q-37 37 -37 90q0 90 84 121q149 57 350 57q258 0 373 -139q144 147 362 147q246 0 393 -178q127 -154 127 -350q0 -65 -41 -109q-41 -41 -104 -41h-617
q47 -215 269 -215q118 0 221 74q36 25 76 25q51 0 86 -35t35 -88q0 -54 -41 -92z" />
    <glyph glyph-name="ccedilla" unicode="&#xe7;" horiz-adv-x="1169" 
d="M1047 117q-137 -125 -338 -140l-103 -253q-28 -66 -90 -66q-46 0 -108 35q-68 35 -68 71q0 27 18 54l125 182q-176 52 -286 201q-111 150 -111 342v4q0 238 162 403q165 168 414 168q230 0 374 -123q49 -40 49 -106q0 -57 -41 -98t-100 -41q-49 0 -90 30q-88 70 -195 70
q-114 0 -190 -88t-76 -211v-4q0 -130 76 -215q76 -88 203 -88q112 0 205 75q43 29 84 29q55 0 94 -39q37 -40 37 -94q0 -59 -45 -98z" />
    <glyph glyph-name="egrave" unicode="&#xe8;" horiz-adv-x="1255" 
d="M391 635h469q-30 233 -231 233q-198 0 -238 -233zM1040 109q-158 -134 -381 -134q-248 0 -409 158q-164 159 -164 410v4q0 237 152 403q155 168 391 168q251 0 401 -178q127 -154 127 -350q0 -65 -41 -109q-41 -41 -104 -41h-617q47 -215 269 -215q118 0 221 74
q36 25 76 25q51 0 86 -35q34 -34 34 -88t-41 -92zM629 1206q-107 0 -178 68l-127 119q-41 38 -41 73q0 36 59 66q60 29 115 29q73 0 116 -70l113 -176q21 -35 21 -55q0 -54 -78 -54z" />
    <glyph glyph-name="eacute" unicode="&#xe9;" horiz-adv-x="1255" 
d="M391 635h469q-30 233 -231 233q-198 0 -238 -233zM1040 109q-158 -134 -381 -134q-248 0 -409 158q-164 159 -164 410v4q0 237 152 403q155 168 391 168q251 0 401 -178q127 -154 127 -350q0 -65 -41 -109q-41 -41 -104 -41h-617q47 -215 269 -215q118 0 221 74
q36 25 76 25q51 0 86 -35q34 -34 34 -88t-41 -92zM612 1206q-77 0 -77 54q0 22 20 55l113 176q43 70 116 70q55 0 115 -29q59 -30 59 -66t-40 -73l-127 -119q-71 -68 -179 -68z" />
    <glyph glyph-name="ecircumflex" unicode="&#xea;" horiz-adv-x="1255" 
d="M391 635h469q-30 233 -231 233q-198 0 -238 -233zM1040 109q-158 -134 -381 -134q-248 0 -409 158q-164 159 -164 410v4q0 237 152 403q155 168 391 168q251 0 401 -178q127 -154 127 -350q0 -65 -41 -109q-41 -41 -104 -41h-617q47 -215 269 -215q118 0 221 74
q36 25 76 25q51 0 86 -35q34 -34 34 -88t-41 -92zM618 1354l-96 -80q-83 -68 -188 -68q-68 0 -68 49q0 18 31 60l129 166q57 69 145 69h99q88 0 145 -69l129 -166q31 -42 31 -60q0 -49 -72 -49q-105 0 -188 68z" />
    <glyph glyph-name="edieresis" unicode="&#xeb;" horiz-adv-x="1255" 
d="M391 635h469q-30 233 -231 233q-198 0 -238 -233zM1040 109q-158 -134 -381 -134q-248 0 -409 158q-164 159 -164 410v4q0 237 152 403q155 168 391 168q251 0 401 -178q127 -154 127 -350q0 -65 -41 -109q-41 -41 -104 -41h-617q47 -215 269 -215q118 0 221 74
q36 25 76 25q51 0 86 -35q34 -34 34 -88t-41 -92zM840 1509q67 0 114 -41q47 -44 47 -108v-4q0 -65 -47 -109q-47 -41 -114 -41q-68 0 -115 41q-47 44 -47 109v4q0 64 47 108q47 41 115 41zM401 1509q68 0 115 -41q47 -44 47 -108v-4q0 -65 -47 -109q-47 -41 -115 -41
q-67 0 -114 41q-47 44 -47 109v4q0 64 47 108q47 41 114 41z" />
    <glyph glyph-name="igrave" unicode="&#xec;" horiz-adv-x="618" 
d="M154 143v811q0 66 45 111t110 45q66 0 111 -45t45 -111v-811q0 -65 -45 -110t-111 -45q-65 0 -110 45t-45 110zM317 1206q-107 0 -178 68l-127 119q-41 38 -41 73t60 66q60 29 114 29q74 0 117 -70l113 -176q20 -33 20 -55q0 -54 -78 -54z" />
    <glyph glyph-name="iacute" unicode="&#xed;" horiz-adv-x="618" 
d="M154 143v811q0 66 45 111t110 45q66 0 111 -45t45 -111v-811q0 -65 -45 -110t-111 -45q-65 0 -110 45t-45 110zM301 1206q-78 0 -78 54q0 20 21 55l112 176q43 70 117 70q55 0 115 -29q59 -30 59 -66q0 -35 -41 -73l-127 -119q-71 -68 -178 -68z" />
    <glyph glyph-name="icircumflex" unicode="&#xee;" horiz-adv-x="618" 
d="M154 143v811q0 66 45 111t110 45q66 0 111 -45t45 -111v-811q0 -65 -45 -110t-111 -45q-65 0 -110 45t-45 110zM307 1354l-96 -80q-83 -68 -188 -68q-68 0 -68 49q0 18 31 60l129 166q57 69 145 69h98q89 0 146 -69l129 -166q31 -42 31 -60q0 -49 -72 -49q-106 0 -189 68
z" />
    <glyph glyph-name="idieresis" unicode="&#xef;" horiz-adv-x="618" 
d="M154 143v811q0 66 45 111t110 45q66 0 111 -45t45 -111v-811q0 -65 -45 -110t-111 -45q-65 0 -110 45t-45 110zM528 1509q68 0 115 -41q47 -44 47 -108v-4q0 -65 -47 -109q-47 -41 -115 -41q-67 0 -114 41q-47 44 -47 109v4q0 64 47 108q47 41 114 41zM90 1509
q68 0 115 -41q47 -44 47 -108v-4q0 -65 -47 -109q-47 -41 -115 -41t-115 41q-47 44 -47 109v4q0 64 47 108q47 41 115 41z" />
    <glyph glyph-name="eth" unicode="&#xf0;" horiz-adv-x="1327" 
d="M807 930l-178 237l-209 -86q-21 -8 -39 -8q-39 0 -66 27q-26 26 -26 65q0 64 65 88l166 68q-10 30 -10 53q0 58 41 99q40 40 98 40q75 0 121 -67l12 -19l181 74q21 8 38 8q40 0 66 -26q27 -27 27 -66q0 -63 -66 -88l-137 -55l166 -236q180 -256 180 -499
q0 -239 -154 -396q-162 -168 -430 -168q-241 0 -405 156q-162 155 -162 383q0 214 131 348q133 133 338 133q128 0 252 -65zM934 508q0 111 -74 188q-78 78 -198 78q-123 0 -199 -76q-74 -77 -74 -190q0 -115 76 -191q76 -79 199 -79q121 0 198 77q72 78 72 193z" />
    <glyph glyph-name="ntilde" unicode="&#xf1;" horiz-adv-x="1275" 
d="M139 143v811q0 66 45 111t111 45t111 -45t45 -111v-12q138 176 321 176q176 0 275 -108q98 -107 98 -299v-568q0 -65 -45 -110t-111 -45q-65 0 -110 45t-45 110v469q0 224 -189 224q-194 0 -194 -224v-469q0 -65 -45 -110t-111 -45t-111 45t-45 110zM416 1239
q-27 -47 -80 -47q-37 0 -64 27q-28 25 -28 57q0 25 10 55q77 201 229 201q73 0 174 -39q103 -41 134 -41q61 0 96 59q28 48 80 48q38 0 65 -27q27 -24 27 -57q0 -26 -10 -56q-77 -200 -230 -200q-68 0 -174 41q-96 38 -133 38q-61 0 -96 -59z" />
    <glyph glyph-name="ograve" unicode="&#xf2;" horiz-adv-x="1359" 
d="M678 -25q-255 0 -424 166q-168 162 -168 402v4q0 239 170 403q171 168 426 168t424 -166q168 -162 168 -401v-4q0 -240 -170 -404q-171 -168 -426 -168zM682 244q130 0 209 88q76 82 76 211v4q0 124 -80 213q-84 90 -209 90q-130 0 -209 -88q-76 -82 -76 -211v-4
q0 -124 80 -213q84 -90 209 -90zM688 1206q-107 0 -178 68l-127 119q-41 38 -41 73q0 36 59 66q60 29 115 29q74 0 117 -70l112 -176q21 -35 21 -55q0 -54 -78 -54z" />
    <glyph glyph-name="oacute" unicode="&#xf3;" horiz-adv-x="1359" 
d="M678 -25q-255 0 -424 166q-168 162 -168 402v4q0 239 170 403q171 168 426 168t424 -166q168 -162 168 -401v-4q0 -240 -170 -404q-171 -168 -426 -168zM682 244q130 0 209 88q76 82 76 211v4q0 124 -80 213q-84 90 -209 90q-130 0 -209 -88q-76 -82 -76 -211v-4
q0 -124 80 -213q84 -90 209 -90zM672 1206q-78 0 -78 54q0 22 20 55l113 176q43 70 117 70q54 0 114 -29q60 -31 60 -66t-41 -73l-127 -119q-71 -68 -178 -68z" />
    <glyph glyph-name="ocircumflex" unicode="&#xf4;" horiz-adv-x="1359" 
d="M678 -25q-255 0 -424 166q-168 162 -168 402v4q0 239 170 403q171 168 426 168t424 -166q168 -162 168 -401v-4q0 -240 -170 -404q-171 -168 -426 -168zM682 244q130 0 209 88q76 82 76 211v4q0 124 -80 213q-84 90 -209 90q-130 0 -209 -88q-76 -82 -76 -211v-4
q0 -124 80 -213q84 -90 209 -90zM678 1354l-96 -80q-83 -68 -189 -68q-67 0 -67 49q0 19 30 60l129 166q57 69 146 69h98q88 0 145 -69l130 -166q30 -41 30 -60q0 -49 -71 -49q-106 0 -189 68z" />
    <glyph glyph-name="otilde" unicode="&#xf5;" horiz-adv-x="1359" 
d="M678 -25q-255 0 -424 166q-168 162 -168 402v4q0 239 170 403q171 168 426 168t424 -166q168 -162 168 -401v-4q0 -240 -170 -404q-171 -168 -426 -168zM682 244q130 0 209 88q76 82 76 211v4q0 124 -80 213q-84 90 -209 90q-130 0 -209 -88q-76 -82 -76 -211v-4
q0 -124 80 -213q84 -90 209 -90zM455 1239q-27 -47 -80 -47q-37 0 -64 27q-28 25 -28 57q0 25 10 55q77 201 229 201q73 0 174 -39q103 -41 133 -41q62 0 97 59q28 48 80 48q38 0 65 -27q27 -24 27 -57q0 -23 -11 -56q-77 -200 -229 -200q-68 0 -174 41q-96 38 -133 38
q-61 0 -96 -59z" />
    <glyph glyph-name="odieresis" unicode="&#xf6;" horiz-adv-x="1359" 
d="M678 -25q-255 0 -424 166q-168 162 -168 402v4q0 239 170 403q171 168 426 168t424 -166q168 -162 168 -401v-4q0 -240 -170 -404q-171 -168 -426 -168zM682 244q130 0 209 88q76 82 76 211v4q0 124 -80 213q-84 90 -209 90q-130 0 -209 -88q-76 -82 -76 -211v-4
q0 -124 80 -213q84 -90 209 -90zM899 1509q68 0 115 -41q47 -44 47 -108v-4q0 -65 -47 -109q-47 -41 -115 -41t-115 41q-47 44 -47 109v4q0 64 47 108q47 41 115 41zM461 1509q67 0 114 -41q48 -45 48 -108v-4q0 -64 -48 -109q-47 -41 -114 -41q-68 0 -115 41
q-47 44 -47 109v4q0 64 47 108q47 41 115 41z" />
    <glyph glyph-name="divide" unicode="&#xf7;" horiz-adv-x="1310" 
d="M1053 590h-795q-53 0 -92 39t-39 92t39 92t92 39h795q53 0 92 -39t39 -92t-39 -92t-92 -39zM655 440q-68 0 -118 -47t-50 -112q0 -66 50 -113t118 -47q69 0 119 47q49 46 49 113q0 66 -49 112q-50 47 -119 47zM655 1321q-68 0 -118 -47t-50 -113q0 -65 50 -112
q51 -48 118 -48q68 0 119 48q49 46 49 112q0 67 -49 113q-50 47 -119 47z" />
    <glyph glyph-name="oslash" unicode="&#xf8;" horiz-adv-x="1359" 
d="M678 -25q-178 0 -326 91l-47 -48q-45 -45 -94 -45q-41 0 -68 27q-28 28 -28 63q0 52 45 97l41 41q-115 148 -115 342v4q0 239 170 403q171 168 426 168q173 0 326 -90l47 47q45 45 94 45q42 0 68 -26q28 -28 28 -64q0 -51 -45 -96l-41 -43q115 -151 115 -340v-4
q0 -240 -170 -404q-171 -168 -426 -168zM682 236q132 0 215 92q78 87 78 215v4q0 67 -27 131l-403 -410q57 -32 137 -32zM385 551v-4q0 -75 27 -131l403 407q-65 35 -137 35q-132 0 -215 -92q-78 -87 -78 -215z" />
    <glyph glyph-name="ugrave" unicode="&#xf9;" horiz-adv-x="1275" 
d="M1137 954v-811q0 -65 -45 -110t-111 -45t-111 45t-45 110v13q-138 -176 -321 -176q-176 0 -275 108q-98 107 -98 299v567q0 66 45 111t111 45q65 0 110 -45t45 -111v-469q0 -223 189 -223q194 0 194 223v469q0 66 45 111t111 45t111 -45t45 -111zM641 1206
q-107 0 -178 68l-127 119q-41 38 -41 73q0 36 59 66q60 29 115 29q74 0 117 -70l112 -176q21 -35 21 -55q0 -54 -78 -54z" />
    <glyph glyph-name="uacute" unicode="&#xfa;" horiz-adv-x="1275" 
d="M1137 954v-811q0 -65 -45 -110t-111 -45t-111 45t-45 110v13q-138 -176 -321 -176q-176 0 -275 108q-98 107 -98 299v567q0 66 45 111t111 45q65 0 110 -45t45 -111v-469q0 -223 189 -223q194 0 194 223v469q0 66 45 111t111 45t111 -45t45 -111zM625 1206q-78 0 -78 54
q0 22 20 55l113 176q43 70 117 70q54 0 114 -29q60 -31 60 -66t-41 -73l-127 -119q-71 -68 -178 -68z" />
    <glyph glyph-name="ucircumflex" unicode="&#xfb;" horiz-adv-x="1275" 
d="M1137 954v-811q0 -65 -45 -110t-111 -45t-111 45t-45 110v13q-138 -176 -321 -176q-176 0 -275 108q-98 107 -98 299v567q0 66 45 111t111 45q65 0 110 -45t45 -111v-469q0 -223 189 -223q194 0 194 223v469q0 66 45 111t111 45t111 -45t45 -111zM631 1354l-96 -80
q-83 -68 -189 -68q-67 0 -67 49q0 19 30 60l129 166q57 69 146 69h98q88 0 145 -69l129 -166q31 -42 31 -60q0 -49 -72 -49q-105 0 -188 68z" />
    <glyph glyph-name="udieresis" unicode="&#xfc;" horiz-adv-x="1275" 
d="M1137 954v-811q0 -65 -45 -110t-111 -45t-111 45t-45 110v13q-138 -176 -321 -176q-176 0 -275 108q-98 107 -98 299v567q0 66 45 111t111 45q65 0 110 -45t45 -111v-469q0 -223 189 -223q194 0 194 223v469q0 66 45 111t111 45t111 -45t45 -111zM852 1509q68 0 115 -41
q47 -44 47 -108v-4q0 -65 -47 -109q-47 -41 -115 -41t-115 41q-47 44 -47 109v4q0 64 47 108q47 41 115 41zM414 1509q67 0 114 -41q47 -44 47 -108v-4q0 -65 -47 -109q-47 -41 -114 -41q-68 0 -115 41q-47 44 -47 109v4q0 64 47 108q47 41 115 41z" />
    <glyph glyph-name="yacute" unicode="&#xfd;" horiz-adv-x="1200" 
d="M367 -334q-85 0 -170 29q-99 35 -99 129q0 55 37 92q38 35 86 35q30 0 51 -8q44 -13 66 -13q76 0 111 66l10 24l-375 869q-16 43 -16 72q0 66 45 108q44 41 108 41q107 0 150 -117l237 -639l230 637q46 119 149 119q61 0 105 -41q43 -40 43 -102q0 -39 -15 -74l-383 -920
q-71 -171 -149 -237q-82 -70 -221 -70zM592 1206q-78 0 -78 54q0 20 21 55l112 176q43 70 117 70q55 0 115 -29q59 -30 59 -66q0 -35 -41 -73l-127 -119q-71 -68 -178 -68z" />
    <glyph glyph-name="thorn" unicode="&#xfe;" horiz-adv-x="1382" 
d="M139 -184v1536q0 65 45 110t111 45t111 -45t45 -110v-412q132 178 342 178q204 0 346 -145q153 -159 153 -422v-4q0 -262 -151 -422q-142 -145 -348 -145q-204 0 -342 163v-327q0 -66 -45 -111t-111 -45t-111 45t-45 111zM713 244q112 0 188 82q80 86 80 221v4
q0 133 -80 219q-78 84 -188 84q-111 0 -189 -84q-78 -87 -78 -219v-4q0 -132 78 -219q78 -84 189 -84z" />
    <glyph glyph-name="ydieresis" unicode="&#xff;" horiz-adv-x="1200" 
d="M367 -334q-85 0 -170 29q-99 35 -99 129q0 55 37 92q38 35 86 35q30 0 51 -8q44 -13 66 -13q76 0 111 66l10 24l-375 869q-16 43 -16 72q0 66 45 108q44 41 108 41q107 0 150 -117l237 -639l230 637q46 119 149 119q61 0 105 -41q43 -40 43 -102q0 -39 -15 -74l-383 -920
q-71 -171 -149 -237q-82 -70 -221 -70zM819 1509q68 0 115 -41q47 -44 47 -108v-4q0 -65 -47 -109q-47 -41 -115 -41q-67 0 -114 41q-48 45 -48 109v4q0 63 48 108q47 41 114 41zM381 1509q68 0 115 -41q47 -44 47 -108v-4q0 -65 -47 -109q-47 -41 -115 -41t-115 41
q-47 44 -47 109v4q0 64 47 108q47 41 115 41z" />
    <glyph glyph-name="Amacron" unicode="&#x100;" horiz-adv-x="1568" 
d="M74 135q0 27 18 68l500 1128q55 125 184 125h19q127 0 182 -125l500 -1128q16 -40 16 -64q0 -63 -43 -106q-42 -45 -107 -45q-105 0 -151 108l-96 226h-631l-100 -236q-43 -98 -146 -98q-62 0 -102 43q-43 43 -43 104zM582 600h397l-199 473zM1055 1577h-545
q-45 0 -76 31q-33 29 -33 75q0 47 33 76q29 33 76 33h545q46 0 75 -33q33 -29 33 -76q0 -46 -33 -75q-31 -31 -75 -31z" />
    <glyph glyph-name="amacron" unicode="&#x101;" horiz-adv-x="1212" 
d="M451 -20q-161 0 -267 86q-110 91 -110 249v4q0 177 123 265q118 86 319 86q140 0 268 -45v18q0 201 -235 201q-113 0 -215 -31q-21 -8 -45 -8q-52 0 -92 37q-37 37 -37 90q0 90 84 121q149 57 350 57q248 0 371 -123q118 -118 118 -350v-500q0 -64 -45 -106
q-43 -43 -106 -43q-65 0 -109 41q-41 38 -41 88v2q-127 -139 -331 -139zM883 1229h-545q-45 0 -76 31q-33 29 -33 75q0 47 33 76q29 33 76 33h545q46 0 75 -33q33 -29 33 -76q0 -46 -33 -75q-31 -31 -75 -31zM545 195q108 0 176 53q67 55 67 139v55q-90 41 -198 41
q-215 0 -215 -151v-4q0 -133 170 -133z" />
    <glyph glyph-name="Abreve" unicode="&#x102;" horiz-adv-x="1568" 
d="M74 135q0 27 18 68l500 1128q55 125 184 125h19q127 0 182 -125l500 -1128q16 -40 16 -64q0 -63 -43 -106q-42 -45 -107 -45q-105 0 -151 108l-96 226h-631l-100 -236q-43 -98 -146 -98q-62 0 -102 43q-43 43 -43 104zM582 600h397l-199 473zM782 1563q-244 0 -342 174
q-14 25 -14 57q0 45 31 76t75 31q58 0 93 -54q52 -82 157 -82q106 0 158 82q35 54 92 54q45 0 76 -31t31 -76q0 -30 -15 -57q-98 -174 -342 -174z" />
    <glyph glyph-name="abreve" unicode="&#x103;" horiz-adv-x="1212" 
d="M451 -20q-161 0 -267 86q-110 91 -110 249v4q0 177 123 265q118 86 319 86q140 0 268 -45v18q0 201 -235 201q-113 0 -215 -31q-21 -8 -45 -8q-52 0 -92 37q-37 37 -37 90q0 90 84 121q149 57 350 57q248 0 371 -123q118 -118 118 -350v-500q0 -64 -45 -106
q-43 -43 -106 -43q-65 0 -109 41q-41 38 -41 88v2q-127 -139 -331 -139zM610 1214q-243 0 -342 175q-14 25 -14 57q0 45 31 76q30 30 75 30q58 0 93 -53q52 -82 157 -82q106 0 158 82q35 53 92 53q46 0 76 -30q31 -31 31 -76q0 -30 -15 -57q-99 -175 -342 -175zM545 195
q108 0 176 53q67 55 67 139v55q-90 41 -198 41q-215 0 -215 -151v-4q0 -133 170 -133z" />
    <glyph glyph-name="Aogonek" unicode="&#x104;" horiz-adv-x="1617" 
d="M98 135q0 25 19 68l499 1128q55 125 185 125h18q127 0 182 -125l500 -1128q17 -42 17 -64q0 -59 -56 -121q-69 -75 -69 -133q0 -59 82 -80q73 -18 73 -73q0 -74 -98 -74q-281 0 -281 178q0 82 82 180l-131 306h-631l-100 -236q-43 -98 -145 -98q-63 0 -103 43
q-43 43 -43 104zM606 600h398l-199 473z" />
    <glyph glyph-name="aogonek" unicode="&#x105;" horiz-adv-x="1212" 
d="M725 -174q0 93 100 199q-43 37 -43 92v2q-127 -139 -331 -139q-161 0 -267 86q-110 91 -110 249v4q0 177 123 265q118 86 319 86q140 0 268 -45v18q0 201 -235 201q-113 0 -215 -31q-21 -8 -45 -8q-52 0 -92 37q-37 37 -37 90q0 90 84 121q149 57 350 57q248 0 371 -123
q118 -118 118 -350v-500q0 -62 -57 -119q-76 -76 -76 -137q0 -55 78 -76q74 -18 74 -73q0 -74 -98 -74q-279 0 -279 168zM545 195q108 0 176 53q67 55 67 139v55q-90 41 -198 41q-215 0 -215 -151v-4q0 -133 170 -133z" />
    <glyph glyph-name="Cacute" unicode="&#x106;" horiz-adv-x="1511" 
d="M844 -25q-315 0 -527 215q-208 211 -208 523v4q0 313 208 524q211 217 539 217q281 0 479 -145q62 -47 62 -125q0 -64 -45 -109t-111 -45q-43 0 -94 31q-138 102 -293 102q-180 0 -299 -131q-117 -129 -117 -315v-4q0 -189 117 -318q121 -133 299 -133q171 0 311 113
q41 35 95 35q58 0 104 -43q43 -43 43 -103q0 -65 -53 -112q-205 -181 -510 -181zM821 1554q-78 0 -78 54q0 20 21 55l113 176q43 70 116 70q55 0 115 -29q59 -30 59 -65q0 -36 -41 -74l-127 -119q-71 -68 -178 -68z" />
    <glyph glyph-name="cacute" unicode="&#x107;" horiz-adv-x="1169" 
d="M657 -25q-246 0 -409 166q-162 162 -162 402v4q0 238 162 403q165 168 414 168q230 0 374 -123q49 -40 49 -106q0 -57 -41 -98t-100 -41q-49 0 -90 30q-88 70 -195 70q-114 0 -190 -88t-76 -211v-4q0 -130 76 -215q76 -88 203 -88q112 0 205 75q43 29 84 29q55 0 94 -39
q37 -40 37 -94q0 -59 -45 -98q-157 -142 -390 -142zM641 1206q-78 0 -78 54q0 20 21 55l112 176q43 70 117 70q55 0 115 -29q59 -30 59 -66q0 -35 -41 -73l-127 -119q-71 -68 -178 -68z" />
    <glyph glyph-name="Cdotaccent" unicode="&#x10a;" horiz-adv-x="1511" 
d="M844 -25q-315 0 -527 215q-208 211 -208 523v4q0 313 208 524q211 217 539 217q281 0 479 -145q62 -47 62 -125q0 -64 -45 -109t-111 -45q-43 0 -94 31q-138 102 -293 102q-180 0 -299 -131q-117 -129 -117 -315v-4q0 -189 117 -318q121 -133 299 -133q171 0 311 113
q41 35 95 35q58 0 104 -43q43 -43 43 -103q0 -65 -53 -112q-205 -181 -510 -181zM995 1708v-4q0 -66 -49 -109q-47 -41 -117 -41q-69 0 -116 41q-49 43 -49 109v4q0 66 49 109q47 41 116 41q70 0 117 -41q49 -43 49 -109z" />
    <glyph glyph-name="cdotaccent" unicode="&#x10b;" horiz-adv-x="1169" 
d="M657 -25q-246 0 -409 166q-162 162 -162 402v4q0 238 162 403q165 168 414 168q230 0 374 -123q49 -40 49 -106q0 -57 -41 -98t-100 -41q-49 0 -90 30q-88 70 -195 70q-114 0 -190 -88t-76 -211v-4q0 -130 76 -215q76 -88 203 -88q112 0 205 75q43 29 84 29q55 0 94 -39
q37 -40 37 -94q0 -59 -45 -98q-157 -142 -390 -142zM815 1360v-4q0 -66 -49 -109q-47 -41 -117 -41t-117 41q-49 43 -49 109v4q0 65 49 108q47 41 117 41t117 -41q49 -43 49 -108z" />
    <glyph glyph-name="Ccaron" unicode="&#x10c;" horiz-adv-x="1511" 
d="M844 -25q-315 0 -527 215q-208 211 -208 523v4q0 313 208 524q211 217 539 217q281 0 479 -145q62 -47 62 -125q0 -64 -45 -109t-111 -45q-43 0 -94 31q-138 102 -293 102q-180 0 -299 -131q-117 -129 -117 -315v-4q0 -189 117 -318q121 -133 299 -133q171 0 311 113
q41 35 95 35q58 0 104 -43q43 -43 43 -103q0 -65 -53 -112q-205 -181 -510 -181zM831 1753l97 80q83 68 188 68q68 0 68 -50q0 -17 -31 -59l-129 -166q-58 -70 -145 -70h-99q-87 0 -145 70l-129 166q-31 42 -31 59q0 50 72 50q105 0 188 -68z" />
    <glyph glyph-name="ccaron" unicode="&#x10d;" horiz-adv-x="1169" 
d="M657 -25q-246 0 -409 166q-162 162 -162 402v4q0 238 162 403q165 168 414 168q230 0 374 -123q49 -40 49 -106q0 -57 -41 -98t-100 -41q-49 0 -90 30q-88 70 -195 70q-114 0 -190 -88t-76 -211v-4q0 -130 76 -215q76 -88 203 -88q112 0 205 75q43 29 84 29q55 0 94 -39
q37 -40 37 -94q0 -59 -45 -98q-157 -142 -390 -142zM651 1405l97 80q82 67 188 67q68 0 68 -49q0 -17 -31 -59l-129 -166q-58 -70 -146 -70h-98q-87 0 -145 70l-129 166q-31 42 -31 59q0 49 72 49q106 0 188 -67z" />
    <glyph glyph-name="Dcaron" unicode="&#x10e;" horiz-adv-x="1601" 
d="M172 158v1118q0 68 45 113t113 45h401q334 0 551 -205q211 -202 211 -508v-4q0 -308 -211 -510q-219 -207 -551 -207h-401q-68 0 -113 45t-45 113zM487 285h244q195 0 313 118q119 119 119 310v4q0 192 -119 311q-121 121 -313 121h-244v-864zM776 1733l96 79
q83 68 189 68q67 0 67 -49q0 -18 -30 -59l-129 -166q-58 -70 -146 -70h-98q-87 0 -145 70l-129 166q-31 42 -31 59q0 49 72 49q105 0 188 -68z" />
    <glyph glyph-name="dcaron" unicode="&#x10f;" horiz-adv-x="1382" 
d="M1243 1352v-1209q0 -65 -45 -110t-111 -45q-65 0 -110 45t-45 110v15q-132 -178 -342 -178q-204 0 -346 145q-154 160 -154 422v4q0 261 152 422q142 145 348 145q204 0 342 -164v398q0 65 45 110t110 45q66 0 111 -45t45 -110zM670 854q-113 0 -189 -82
q-80 -86 -80 -221v-4q0 -133 80 -219q78 -84 189 -84q110 0 188 84q78 87 78 219v4q0 132 -78 219q-78 84 -188 84zM1346 1137v266q0 46 28 74q27 30 76 30h41q76 0 76 -67q0 -26 -8 -47l-78 -271q-15 -55 -72 -55q-63 0 -63 70z" />
    <glyph glyph-name="Dcroat" unicode="&#x110;" horiz-adv-x="1662" 
d="M207 860h26v416q0 67 46 113q45 45 112 45h402q333 0 550 -205q211 -202 211 -508v-4q0 -308 -211 -510q-219 -207 -550 -207h-402q-67 0 -112 45q-46 46 -46 113v424h-26q-57 0 -98 41t-41 98t41 98t98 41zM545 1149v-289h184q57 0 98 -41t41 -98t-41 -98t-98 -41h-184
v-297h248q195 0 313 118q119 119 119 310v4q0 192 -119 311q-121 121 -313 121h-248z" />
    <glyph glyph-name="dcroat" unicode="&#x111;" horiz-adv-x="1382" 
d="M688 1389h248q27 118 151 118q125 0 152 -118h70q33 0 61 -25q25 -28 25 -61q0 -34 -25 -62q-27 -24 -61 -24h-66v-1074q0 -65 -45 -110t-111 -45q-65 0 -110 45t-45 110v15q-132 -178 -342 -178q-204 0 -346 145q-154 160 -154 422v4q0 261 152 422q142 145 348 145
q204 0 342 -164v263h-244q-34 0 -61 24q-25 28 -25 62q0 33 25 61q28 25 61 25zM670 854q-113 0 -189 -82q-80 -86 -80 -221v-4q0 -133 80 -219q78 -84 189 -84q110 0 188 84q78 87 78 219v4q0 132 -78 219q-78 84 -188 84z" />
    <glyph glyph-name="Emacron" unicode="&#x112;" horiz-adv-x="1372" 
d="M1135 0h-805q-68 0 -113 45t-45 113v1118q0 68 45 113t113 45h794q60 0 101 -41t41 -101q0 -57 -41 -98t-101 -41h-639v-291h547q60 0 101 -41t41 -100q0 -57 -41 -98t-101 -41h-547v-301h650q59 0 100 -41t41 -101q0 -57 -41 -98t-100 -41zM989 1556h-545q-44 0 -75 31
q-33 29 -33 76t33 76q29 33 75 33h545q47 0 76 -33q33 -29 33 -76t-33 -76q-31 -31 -76 -31z" />
    <glyph glyph-name="emacron" unicode="&#x113;" horiz-adv-x="1255" 
d="M391 635h469q-30 233 -231 233q-198 0 -238 -233zM1040 109q-158 -134 -381 -134q-248 0 -409 158q-164 159 -164 410v4q0 237 152 403q155 168 391 168q251 0 401 -178q127 -154 127 -350q0 -65 -41 -109q-41 -41 -104 -41h-617q47 -215 269 -215q118 0 221 74
q36 25 76 25q51 0 86 -35q34 -34 34 -88t-41 -92zM893 1229h-545q-45 0 -76 31q-32 28 -32 75q0 48 32 76q29 33 76 33h545q47 0 76 -33q32 -28 32 -76q0 -47 -32 -75q-31 -31 -76 -31z" />
    <glyph glyph-name="Ebreve" unicode="&#x114;" horiz-adv-x="1372" 
d="M1135 0h-805q-68 0 -113 45t-45 113v1118q0 68 45 113t113 45h794q60 0 101 -41t41 -101q0 -57 -41 -98t-101 -41h-639v-291h547q60 0 101 -41t41 -100q0 -57 -41 -98t-101 -41h-547v-301h650q59 0 100 -41t41 -101q0 -57 -41 -98t-100 -41zM717 1542q-244 0 -342 174
q-15 27 -15 58q0 44 31 75t76 31q57 0 92 -53q52 -82 158 -82q105 0 157 82q35 53 93 53q44 0 75 -31t31 -75q0 -33 -14 -58q-98 -174 -342 -174z" />
    <glyph glyph-name="ebreve" unicode="&#x115;" horiz-adv-x="1255" 
d="M391 635h469q-30 233 -231 233q-198 0 -238 -233zM1040 109q-158 -134 -381 -134q-248 0 -409 158q-164 159 -164 410v4q0 237 152 403q155 168 391 168q251 0 401 -178q127 -154 127 -350q0 -65 -41 -109q-41 -41 -104 -41h-617q47 -215 269 -215q118 0 221 74
q36 25 76 25q51 0 86 -35q34 -34 34 -88t-41 -92zM621 1214q-243 0 -342 175q-15 27 -15 57q0 45 31 76q30 30 76 30q57 0 92 -53q52 -82 158 -82q105 0 157 82q35 53 92 53q46 0 76 -30q31 -31 31 -76q0 -32 -14 -57q-99 -175 -342 -175z" />
    <glyph glyph-name="Edotaccent" unicode="&#x116;" horiz-adv-x="1372" 
d="M1135 0h-805q-68 0 -113 45t-45 113v1118q0 68 45 113t113 45h794q60 0 101 -41t41 -101q0 -57 -41 -98t-101 -41h-639v-291h547q60 0 101 -41t41 -100q0 -57 -41 -98t-101 -41h-547v-301h650q59 0 100 -41t41 -101q0 -57 -41 -98t-100 -41zM883 1688v-5q0 -65 -49 -108
q-47 -41 -117 -41t-117 41q-49 43 -49 108v5q0 65 49 108q47 41 117 41t117 -41q49 -43 49 -108z" />
    <glyph glyph-name="edotaccent" unicode="&#x117;" horiz-adv-x="1255" 
d="M391 635h469q-30 233 -231 233q-198 0 -238 -233zM1040 109q-158 -134 -381 -134q-248 0 -409 158q-164 159 -164 410v4q0 237 152 403q155 168 391 168q251 0 401 -178q127 -154 127 -350q0 -65 -41 -109q-41 -41 -104 -41h-617q47 -215 269 -215q118 0 221 74
q36 25 76 25q51 0 86 -35q34 -34 34 -88t-41 -92zM786 1360v-4q0 -66 -49 -109q-47 -41 -116 -41q-70 0 -117 41q-49 43 -49 109v4q0 65 49 108q47 41 117 41q69 0 116 -41q49 -43 49 -108z" />
    <glyph glyph-name="Eogonek" unicode="&#x118;" horiz-adv-x="1372" 
d="M977 0h-647q-68 0 -113 45t-45 113v1118q0 68 45 113t113 45h794q60 0 101 -41t41 -101q0 -57 -41 -98t-101 -41h-639v-291h547q60 0 101 -41t41 -100q0 -57 -41 -98t-101 -41h-547v-301h650q56 0 100 -41q41 -41 41 -93q0 -64 -78 -139q-68 -65 -68 -123q0 -59 82 -80
q74 -18 74 -73q0 -74 -98 -74q-281 0 -281 178q0 79 70 164z" />
    <glyph glyph-name="eogonek" unicode="&#x119;" horiz-adv-x="1255" 
d="M1157 590q0 -65 -41 -109q-41 -41 -104 -41h-617q47 -215 269 -215q118 0 221 74q36 25 76 25q51 0 86 -35q34 -34 34 -88q0 -51 -41 -92l-49 -48l-41 -41q-61 -64 -61 -124q0 -70 82 -91q73 -18 73 -73q0 -74 -98 -74q-280 0 -280 178q0 67 65 144q-13 -1 -29 -2
t-26.5 -2t-16.5 -1q-248 0 -409 158q-164 159 -164 410v4q0 237 152 403q155 168 391 168q251 0 401 -178q127 -154 127 -350zM391 635h469q-30 233 -231 233q-198 0 -238 -233z" />
    <glyph glyph-name="Ecaron" unicode="&#x11a;" horiz-adv-x="1372" 
d="M1135 0h-805q-68 0 -113 45t-45 113v1118q0 68 45 113t113 45h794q60 0 101 -41t41 -101q0 -57 -41 -98t-101 -41h-639v-291h547q60 0 101 -41t41 -100q0 -57 -41 -98t-101 -41h-547v-301h650q59 0 100 -41t41 -101q0 -57 -41 -98t-100 -41zM719 1733l96 79q83 68 189 68
q67 0 67 -49q0 -17 -31 -59l-129 -166q-58 -70 -145 -70h-98q-88 0 -146 70l-129 166q-31 42 -31 59q0 49 72 49q106 0 189 -68z" />
    <glyph glyph-name="ecaron" unicode="&#x11b;" horiz-adv-x="1255" 
d="M391 635h469q-30 233 -231 233q-198 0 -238 -233zM1040 109q-158 -134 -381 -134q-248 0 -409 158q-164 159 -164 410v4q0 237 152 403q155 168 391 168q251 0 401 -178q127 -154 127 -350q0 -65 -41 -109q-41 -41 -104 -41h-617q47 -215 269 -215q118 0 221 74
q36 25 76 25q51 0 86 -35q34 -34 34 -88t-41 -92zM623 1405l96 80q82 67 188 67q68 0 68 -49q0 -17 -31 -59l-129 -166q-58 -70 -145 -70h-99q-87 0 -145 70l-129 166q-31 42 -31 59q0 49 72 49q106 0 188 -67z" />
    <glyph glyph-name="Gbreve" unicode="&#x11e;" horiz-adv-x="1605" 
d="M862 -25q-333 0 -545 209q-208 208 -208 529v4q0 308 213 524q217 217 538 217q289 0 490 -139q65 -47 65 -127q0 -66 -45 -111t-110 -45q-53 0 -97 33q-137 98 -313 98q-172 0 -291 -131q-121 -133 -121 -315v-4q0 -197 123 -326q120 -129 311 -129q176 0 297 86v205
h-213q-57 0 -96 39q-41 41 -41 96t41 96t96 41h361q68 0 113 -45t45 -112v-349q0 -135 -111 -200q-234 -144 -502 -144zM844 1563q-244 0 -342 174q-15 27 -15 57q0 45 31 76t76 31q57 0 92 -54q52 -82 158 -82q105 0 157 82q35 54 93 54q44 0 75 -31t31 -76q0 -32 -14 -57
q-98 -174 -342 -174z" />
    <glyph glyph-name="gbreve" unicode="&#x11f;" horiz-adv-x="1382" 
d="M631 -332q-213 0 -402 76q-88 34 -88 121q0 53 37 90q40 37 90 37q24 0 51 -10q147 -66 304 -66q313 0 313 299v53q-147 -178 -358 -178q-201 0 -340 133q-148 145 -148 379v4q0 235 150 379q139 133 338 133q204 0 354 -164v2q0 64 45 109t110 45q66 0 111 -45t45 -111
v-706q0 -293 -139 -432q-148 -148 -473 -148zM668 348q112 0 190 72t78 182v4q0 110 -78 182t-190 72q-113 0 -191 -72q-76 -70 -76 -182v-4q0 -114 76 -184t191 -70zM666 1214q-243 0 -342 175q-15 27 -15 57q0 45 31 76q30 30 76 30q57 0 92 -53q52 -82 158 -82
q105 0 157 82q35 53 92 53q46 0 76 -30q31 -31 31 -76q0 -32 -14 -57q-99 -175 -342 -175z" />
    <glyph glyph-name="Gdotaccent" unicode="&#x120;" horiz-adv-x="1605" 
d="M862 -25q-333 0 -545 209q-208 208 -208 529v4q0 308 213 524q217 217 538 217q289 0 490 -139q65 -47 65 -127q0 -66 -45 -111t-110 -45q-53 0 -97 33q-137 98 -313 98q-172 0 -291 -131q-121 -133 -121 -315v-4q0 -197 123 -326q120 -129 311 -129q176 0 297 86v205
h-213q-57 0 -96 39q-41 41 -41 96t41 96t96 41h361q68 0 113 -45t45 -112v-349q0 -135 -111 -200q-234 -144 -502 -144zM1010 1708v-4q0 -66 -49 -109q-47 -41 -117 -41t-117 41q-49 43 -49 109v4q0 66 49 109q47 41 117 41t117 -41q49 -43 49 -109z" />
    <glyph glyph-name="gdotaccent" unicode="&#x121;" horiz-adv-x="1382" 
d="M631 -332q-213 0 -402 76q-88 34 -88 121q0 53 37 90q40 37 90 37q24 0 51 -10q147 -66 304 -66q313 0 313 299v53q-147 -178 -358 -178q-201 0 -340 133q-148 145 -148 379v4q0 235 150 379q139 133 338 133q204 0 354 -164v2q0 64 45 109t110 45q66 0 111 -45t45 -111
v-706q0 -293 -139 -432q-148 -148 -473 -148zM668 348q112 0 190 72t78 182v4q0 110 -78 182t-190 72q-113 0 -191 -72q-76 -70 -76 -182v-4q0 -114 76 -184t191 -70zM831 1360v-4q0 -66 -49 -109q-47 -41 -116 -41q-70 0 -117 41q-49 43 -49 109v4q0 65 49 108
q47 41 117 41q69 0 116 -41q49 -43 49 -108z" />
    <glyph glyph-name="uni0122" unicode="&#x122;" horiz-adv-x="1605" 
d="M862 -25q-333 0 -545 209q-208 208 -208 529v4q0 308 213 524q217 217 538 217q289 0 490 -139q65 -47 65 -127q0 -66 -45 -111t-110 -45q-53 0 -97 33q-137 98 -313 98q-172 0 -291 -131q-121 -133 -121 -315v-4q0 -197 123 -326q120 -129 311 -129q176 0 297 86v205
h-213q-57 0 -96 39q-41 41 -41 96t41 96t96 41h361q68 0 113 -45t45 -112v-349q0 -135 -111 -200q-234 -144 -502 -144zM854 -367q-129 21 -129 123v2q0 53 41 88t106 35q71 0 115 -47q41 -47 41 -121v-6q0 -159 -104 -244q-83 -71 -197 -71q-65 0 -65 51q0 40 51 49
q144 30 141 141z" />
    <glyph glyph-name="uni0123" unicode="&#x123;" horiz-adv-x="1382" 
d="M631 -332q-213 0 -402 76q-88 34 -88 121q0 53 37 90q40 37 90 37q24 0 51 -10q147 -66 304 -66q313 0 313 299v53q-147 -178 -358 -178q-201 0 -340 133q-148 145 -148 379v4q0 235 150 379q139 133 338 133q204 0 354 -164v2q0 64 45 109t110 45q66 0 111 -45t45 -111
v-706q0 -293 -139 -432q-148 -148 -473 -148zM668 348q112 0 190 72t78 182v4q0 110 -78 182t-190 72q-113 0 -191 -72q-76 -70 -76 -182v-4q0 -114 76 -184t191 -70zM684 1454q129 -21 129 -123v-2q0 -55 -39 -88q-41 -35 -108 -35q-71 0 -115 47q-41 47 -41 121v6
q0 159 104 244q84 72 197 72q66 0 66 -51q0 -41 -52 -50q-144 -30 -141 -141z" />
    <glyph glyph-name="Hbar" unicode="&#x126;" horiz-adv-x="1556" 
d="M172 145v904h-47q-46 0 -76 30q-33 29 -33 76t33 76q29 33 76 33h47v24q0 68 45 113t113 45q67 0 112 -45t45 -113v-24h582v24q0 68 45 113t113 45q67 0 112 -45t45 -113v-24h43q47 0 76 -33q33 -29 33 -76t-33 -76q-30 -30 -76 -30h-43v-904q0 -67 -45 -112t-112 -45
q-68 0 -113 45t-45 112v430h-582v-430q0 -67 -45 -112t-112 -45q-68 0 -113 45t-45 112zM487 866h582v183h-582v-183z" />
    <glyph glyph-name="hbar" unicode="&#x127;" horiz-adv-x="1275" 
d="M139 143v1074h-65q-35 0 -62 24q-24 27 -24 62q0 34 24 61q28 25 62 25h69q27 118 152 118q124 0 151 -118h248q34 0 62 -25q24 -27 24 -61q0 -35 -24 -62q-27 -24 -62 -24h-243v-275q138 176 321 176q176 0 275 -108q98 -107 98 -299v-568q0 -65 -45 -110t-111 -45
q-65 0 -110 45t-45 110v469q0 224 -189 224q-194 0 -194 -224v-469q0 -65 -45 -110t-111 -45t-111 45t-45 110z" />
    <glyph glyph-name="Itilde" unicode="&#x128;" horiz-adv-x="688" 
d="M186 145v1143q0 68 45 113t113 45t113 -45t45 -113v-1143q0 -67 -45 -112t-113 -45t-113 45t-45 112zM109 1575q-27 -47 -80 -47q-38 0 -64 26q-28 25 -28 58q0 25 10 55q77 201 229 201q73 0 174 -39q103 -41 133 -41q62 0 97 59q27 47 79 47q40 0 66 -26q27 -24 27 -58
q0 -22 -11 -55q-77 -201 -229 -201q-68 0 -174 41q-98 39 -133 39q-61 0 -96 -59z" />
    <glyph glyph-name="itilde" unicode="&#x129;" horiz-adv-x="618" 
d="M154 143v811q0 66 45 111t110 45q66 0 111 -45t45 -111v-811q0 -65 -45 -110t-111 -45q-65 0 -110 45t-45 110zM74 1239q-27 -47 -80 -47q-37 0 -64 27q-28 25 -28 57q0 25 10 55q77 201 229 201q73 0 174 -39q103 -41 134 -41q61 0 96 59q28 48 80 48q38 0 65 -27
q27 -24 27 -57q0 -26 -10 -56q-77 -200 -230 -200q-68 0 -174 41q-96 38 -133 38q-61 0 -96 -59z" />
    <glyph glyph-name="Imacron" unicode="&#x12a;" horiz-adv-x="688" 
d="M186 145v1143q0 68 45 113t113 45t113 -45t45 -113v-1143q0 -67 -45 -112t-113 -45t-113 45t-45 112zM616 1556h-544q-45 0 -76 31q-33 29 -33 76t33 76q29 33 76 33h544q47 0 76 -33q33 -29 33 -76t-33 -76q-31 -31 -76 -31z" />
    <glyph glyph-name="imacron" unicode="&#x12b;" horiz-adv-x="618" 
d="M154 143v811q0 66 45 111t110 45q66 0 111 -45t45 -111v-811q0 -65 -45 -110t-111 -45q-65 0 -110 45t-45 110zM582 1229h-545q-45 0 -76 31q-33 29 -33 75q0 47 33 76q29 33 76 33h545q46 0 75 -33q33 -29 33 -76q0 -46 -33 -75q-31 -31 -75 -31z" />
    <glyph glyph-name="Ibreve" unicode="&#x12c;" horiz-adv-x="688" 
d="M186 145v1143q0 68 45 113t113 45t113 -45t45 -113v-1143q0 -67 -45 -112t-113 -45t-113 45t-45 112zM344 1542q-244 0 -342 174q-14 25 -14 58q0 45 30 75q31 31 76 31q57 0 92 -53q52 -82 158 -82t158 82q35 53 92 53q45 0 76 -31q30 -30 30 -75q0 -33 -14 -58
q-98 -174 -342 -174z" />
    <glyph glyph-name="ibreve" unicode="&#x12d;" horiz-adv-x="618" 
d="M154 143v811q0 66 45 111t110 45q66 0 111 -45t45 -111v-811q0 -65 -45 -110t-111 -45q-65 0 -110 45t-45 110zM309 1214q-243 0 -342 175q-14 25 -14 57q0 45 31 76q30 30 75 30q58 0 93 -53q52 -82 157 -82q106 0 158 82q35 53 92 53q46 0 76 -30q31 -31 31 -76
q0 -30 -15 -57q-99 -175 -342 -175z" />
    <glyph glyph-name="Iogonek" unicode="&#x12e;" horiz-adv-x="688" 
d="M150 -164q0 84 90 191q-54 48 -54 118v1143q0 68 45 113t113 45t113 -45t45 -113v-1143q0 -61 -58 -125q-71 -80 -71 -135q0 -59 82 -80q73 -18 73 -73q0 -74 -98 -74q-280 0 -280 178z" />
    <glyph glyph-name="iogonek" unicode="&#x12f;" horiz-adv-x="618" 
d="M465 954v-817q0 -62 -57 -119q-76 -76 -76 -137q0 -55 78 -76q73 -18 73 -73q0 -74 -98 -74q-279 0 -279 168q0 99 103 199q-55 46 -55 118v811q0 66 45 111t110 45q66 0 111 -45t45 -111zM135 1356v4q0 67 51 106q45 39 123 39q77 0 125 -39q49 -40 49 -106v-4
q0 -67 -49 -107q-50 -41 -125 -41q-76 0 -123 41q-51 39 -51 107z" />
    <glyph glyph-name="Idotaccent" unicode="&#x130;" horiz-adv-x="688" 
d="M186 145v1143q0 68 45 113t113 45t113 -45t45 -113v-1143q0 -67 -45 -112t-113 -45t-113 45t-45 112zM510 1688v-5q0 -65 -49 -108q-47 -41 -117 -41t-117 41q-49 43 -49 108v5q0 65 49 108q47 41 117 41t117 -41q49 -43 49 -108z" />
    <glyph glyph-name="dotlessi" unicode="&#x131;" horiz-adv-x="618" 
d="M154 143v811q0 66 45 111t110 45q66 0 111 -45t45 -111v-811q0 -65 -45 -110t-111 -45q-65 0 -110 45t-45 110z" />
    <glyph glyph-name="uni0136" unicode="&#x136;" horiz-adv-x="1458" 
d="M172 145v1143q0 68 45 113t113 45q67 0 112 -45t45 -113v-481l582 577q62 62 133 62q64 0 107 -43q39 -42 39 -103q0 -66 -58 -118l-403 -377l440 -553q43 -52 43 -111q0 -65 -45 -110q-46 -43 -115 -43q-76 0 -133 75l-409 537l-181 -168v-287q0 -67 -45 -112t-112 -45
q-68 0 -113 45t-45 112zM760 -346q-129 21 -129 123v2q0 53 41 88t106 35q71 0 115 -47q41 -47 41 -121v-6q0 -158 -105 -244q-84 -72 -196 -72q-66 0 -66 51q0 41 51 50q145 30 142 141z" />
    <glyph glyph-name="uni0137" unicode="&#x137;" horiz-adv-x="1204" 
d="M139 143v1209q0 65 45 110t111 45t111 -45t45 -110v-680l389 368q73 70 137 70q60 0 100 -43q37 -40 37 -96q0 -66 -72 -135l-245 -211l293 -396q38 -49 38 -100q0 -62 -43 -102q-42 -39 -102 -39q-82 0 -135 71l-273 375l-124 -112v-179q0 -65 -45 -110t-111 -45
t-111 45t-45 110zM639 -356q-129 21 -129 123v2q0 53 41 88q40 34 106 34q71 0 115 -47q41 -47 41 -120v-7q0 -158 -104 -243q-84 -72 -197 -72q-66 0 -66 51q0 40 52 49q144 30 141 142z" />
    <glyph glyph-name="Lacute" unicode="&#x139;" horiz-adv-x="1267" 
d="M172 158v1130q0 68 45 113t113 45q67 0 112 -45t45 -113v-1001h584q59 0 103 -41q40 -43 40 -103q0 -59 -40 -102q-44 -41 -103 -41h-741q-68 0 -113 45t-45 113zM371 1534q-78 0 -78 53q0 22 20 55l113 177q43 69 117 69q56 0 114 -28q60 -31 60 -66q0 -36 -41 -74
l-127 -118q-71 -68 -178 -68z" />
    <glyph glyph-name="lacute" unicode="&#x13a;" horiz-adv-x="618" 
d="M154 143v1209q0 65 45 110t110 45q66 0 111 -45t45 -110v-1209q0 -65 -45 -110t-111 -45q-65 0 -110 45t-45 110zM301 1565q-78 0 -78 53q0 20 21 55l112 176q43 70 117 70q55 0 115 -29q59 -30 59 -65q0 -36 -41 -74l-127 -119q-70 -67 -178 -67z" />
    <glyph glyph-name="uni013B" unicode="&#x13b;" horiz-adv-x="1267" 
d="M172 158v1130q0 68 45 113t113 45q67 0 112 -45t45 -113v-1001h584q59 0 103 -41q40 -43 40 -103q0 -59 -40 -102q-44 -41 -103 -41h-741q-68 0 -113 45t-45 113zM696 -356q-129 21 -129 123v2q0 53 41 88q40 34 107 34q70 0 114 -47q41 -47 41 -120v-7q0 -158 -104 -243
q-84 -72 -197 -72q-65 0 -65 51q0 40 51 49q144 30 141 142z" />
    <glyph glyph-name="uni013C" unicode="&#x13c;" horiz-adv-x="618" 
d="M154 143v1209q0 65 45 110t110 45q66 0 111 -45t45 -110v-1209q0 -65 -45 -110t-111 -45q-65 0 -110 45t-45 110zM319 -356q-129 21 -129 123v2q0 53 41 88q40 34 107 34q71 0 115 -47q41 -47 41 -120v-7q0 -158 -105 -243q-84 -72 -196 -72q-66 0 -66 51q0 40 51 49
q144 30 141 142z" />
    <glyph glyph-name="Lcaron" unicode="&#x13d;" horiz-adv-x="1267" 
d="M172 158v1130q0 68 45 113t113 45q67 0 112 -45t45 -113v-1001h584q59 0 103 -41q40 -43 40 -103q0 -59 -40 -102q-44 -41 -103 -41h-741q-68 0 -113 45t-45 113zM647 1065v266q0 45 29 74q28 31 76 31h41q75 0 75 -68q0 -26 -8 -47l-78 -270q-15 -56 -71 -56
q-64 0 -64 70z" />
    <glyph glyph-name="lcaron" unicode="&#x13e;" horiz-adv-x="618" 
d="M154 143v1209q0 65 45 110t110 45q66 0 111 -45t45 -110v-1209q0 -65 -45 -110t-111 -45q-65 0 -110 45t-45 110zM567 1137v266q0 45 29 74q27 30 76 30h41q75 0 75 -67q0 -26 -8 -47l-78 -271q-15 -55 -71 -55q-64 0 -64 70z" />
    <glyph glyph-name="Ldot" unicode="&#x13f;" horiz-adv-x="1267" 
d="M172 158v1130q0 68 45 113t113 45q67 0 112 -45t45 -113v-1001h584q59 0 103 -41q40 -43 40 -103q0 -59 -40 -102q-44 -41 -103 -41h-741q-68 0 -113 45t-45 113zM1155 786v-4q0 -65 -49 -108q-47 -41 -117 -41t-117 41q-49 43 -49 108v4q0 66 49 109q47 41 117 41
t117 -41q49 -43 49 -109z" />
    <glyph glyph-name="ldot" unicode="&#x140;" horiz-adv-x="802" 
d="M840 784v-18q0 -55 -37 -92t-92 -37q-56 0 -93 37q-36 36 -36 92v18q0 57 36 93t93 36q56 0 92 -36q37 -37 37 -93zM154 143v1209q0 65 45 110t110 45q66 0 111 -45t45 -110v-1209q0 -65 -45 -110t-111 -45q-65 0 -110 45t-45 110z" />
    <glyph glyph-name="Lslash" unicode="&#x141;" horiz-adv-x="1329" 
d="M850 721l-305 -92v-342h588q58 0 102 -41q41 -44 41 -103q0 -58 -41 -102q-44 -41 -102 -41h-742q-67 0 -112 45q-46 46 -46 113v381q-8 -2 -26 -2q-57 0 -98 41t-41 100q0 107 100 133l65 18v459q0 67 46 113q45 45 110 45q66 0 111 -45t45 -113v-364l221 65q24 6 45 6
q57 0 98 -41t41 -100q0 -107 -100 -133z" />
    <glyph glyph-name="lslash" unicode="&#x142;" horiz-adv-x="741" 
d="M598 686l-74 -22v-521q0 -65 -45 -110t-108 -45q-64 0 -109 45t-45 110v428q-10 -2 -35 -2q-57 0 -98 41t-41 101q0 107 100 133l74 20v488q0 65 45 110t109 45q63 0 108 -45t45 -110v-396q25 5 35 5q57 0 98 -41t41 -101q0 -107 -100 -133z" />
    <glyph glyph-name="Nacute" unicode="&#x143;" horiz-adv-x="1617" 
d="M172 143v1141q0 68 45 113t113 45h32q93 0 164 -92l609 -799v739q0 66 45 111t110 45q66 0 111 -45t45 -111v-1140q0 -68 -45 -113t-113 -45h-10q-93 0 -164 92l-631 827v-768q0 -65 -45 -110t-110 -45q-66 0 -111 45t-45 110zM801 1534q-78 0 -78 53q0 22 20 55l113 177
q43 69 117 69q56 0 114 -28q60 -31 60 -66q0 -36 -41 -74l-127 -118q-71 -68 -178 -68z" />
    <glyph glyph-name="nacute" unicode="&#x144;" horiz-adv-x="1275" 
d="M139 143v811q0 66 45 111t111 45t111 -45t45 -111v-12q138 176 321 176q176 0 275 -108q98 -107 98 -299v-568q0 -65 -45 -110t-111 -45q-65 0 -110 45t-45 110v469q0 224 -189 224q-194 0 -194 -224v-469q0 -65 -45 -110t-111 -45t-111 45t-45 110zM633 1206
q-78 0 -78 54q0 22 20 55l113 176q43 70 117 70q55 0 115 -29q59 -30 59 -66q0 -35 -41 -73l-127 -119q-71 -68 -178 -68z" />
    <glyph glyph-name="uni0145" unicode="&#x145;" horiz-adv-x="1617" 
d="M172 143v1141q0 68 45 113t113 45h32q93 0 164 -92l609 -799v739q0 66 45 111t110 45q66 0 111 -45t45 -111v-1140q0 -68 -45 -113t-113 -45h-10q-93 0 -164 92l-631 827v-768q0 -65 -45 -110t-110 -45q-66 0 -111 45t-45 110zM819 -346q-129 21 -129 123v2q0 53 41 88
t107 35q70 0 114 -47q41 -47 41 -121v-6q0 -159 -104 -244q-84 -72 -197 -72q-65 0 -65 51q0 41 51 50q144 30 141 141z" />
    <glyph glyph-name="uni0146" unicode="&#x146;" horiz-adv-x="1275" 
d="M139 143v811q0 66 45 111t111 45t111 -45t45 -111v-12q138 176 321 176q176 0 275 -108q98 -107 98 -299v-568q0 -65 -45 -110t-111 -45q-65 0 -110 45t-45 110v469q0 224 -189 224q-194 0 -194 -224v-469q0 -65 -45 -110t-111 -45t-111 45t-45 110zM651 -356
q-129 21 -129 123v2q0 53 41 88q40 34 107 34q70 0 114 -47q41 -47 41 -120v-7q0 -158 -104 -243q-84 -72 -197 -72q-65 0 -65 51q0 40 51 49q144 30 141 142z" />
    <glyph glyph-name="Ncaron" unicode="&#x147;" horiz-adv-x="1617" 
d="M172 143v1141q0 68 45 113t113 45h32q93 0 164 -92l609 -799v739q0 66 45 111t110 45q66 0 111 -45t45 -111v-1140q0 -68 -45 -113t-113 -45h-10q-93 0 -164 92l-631 827v-768q0 -65 -45 -110t-110 -45q-66 0 -111 45t-45 110zM811 1733l96 79q83 68 189 68q67 0 67 -49
q0 -18 -30 -59l-129 -166q-58 -70 -146 -70h-98q-88 0 -146 70l-129 166q-30 41 -30 59q0 49 71 49q106 0 189 -68z" />
    <glyph glyph-name="ncaron" unicode="&#x148;" horiz-adv-x="1275" 
d="M139 143v811q0 66 45 111t111 45t111 -45t45 -111v-12q138 176 321 176q176 0 275 -108q98 -107 98 -299v-568q0 -65 -45 -110t-111 -45q-65 0 -110 45t-45 110v469q0 224 -189 224q-194 0 -194 -224v-469q0 -65 -45 -110t-111 -45t-111 45t-45 110zM643 1405l96 80
q82 67 189 67q67 0 67 -49q0 -19 -30 -59l-129 -166q-58 -70 -146 -70h-98q-88 0 -146 70l-129 166q-30 40 -30 59q0 49 71 49q107 0 189 -67z" />
    <glyph glyph-name="Omacron" unicode="&#x14c;" horiz-adv-x="1740" 
d="M868 -25q-326 0 -544 215q-215 212 -215 523v4q0 310 217 524q217 217 546 217t547 -215q213 -213 213 -522v-4q0 -309 -215 -524q-221 -218 -549 -218zM872 266q190 0 312 131q119 125 119 316v4q0 187 -121 317q-127 133 -314 133q-190 0 -309 -131
q-121 -127 -121 -315v-4q0 -189 123 -318q124 -133 311 -133zM1143 1577h-545q-45 0 -76 31q-33 29 -33 75q0 47 33 76q29 33 76 33h545q47 0 76 -33q32 -28 32 -76q0 -47 -32 -75q-31 -31 -76 -31z" />
    <glyph glyph-name="omacron" unicode="&#x14d;" horiz-adv-x="1359" 
d="M678 -25q-255 0 -424 166q-168 162 -168 402v4q0 239 170 403q171 168 426 168t424 -166q168 -162 168 -401v-4q0 -240 -170 -404q-171 -168 -426 -168zM682 244q130 0 209 88q76 82 76 211v4q0 124 -80 213q-84 90 -209 90q-130 0 -209 -88q-76 -82 -76 -211v-4
q0 -124 80 -213q84 -90 209 -90zM952 1229h-544q-45 0 -76 31q-33 29 -33 75q0 47 33 76q29 33 76 33h544q47 0 76 -33q33 -29 33 -76q0 -46 -33 -75q-31 -31 -76 -31z" />
    <glyph glyph-name="Obreve" unicode="&#x14e;" horiz-adv-x="1740" 
d="M868 -25q-326 0 -544 215q-215 212 -215 523v4q0 310 217 524q217 217 546 217t547 -215q213 -213 213 -522v-4q0 -309 -215 -524q-221 -218 -549 -218zM872 266q190 0 312 131q119 125 119 316v4q0 187 -121 317q-127 133 -314 133q-190 0 -309 -131
q-121 -127 -121 -315v-4q0 -189 123 -318q124 -133 311 -133zM870 1563q-244 0 -342 174q-14 25 -14 57q0 45 31 76t76 31q57 0 92 -54q52 -82 157 -82q106 0 158 82q35 54 92 54q45 0 76 -31t31 -76q0 -30 -15 -57q-98 -174 -342 -174z" />
    <glyph glyph-name="obreve" unicode="&#x14f;" horiz-adv-x="1359" 
d="M678 -25q-255 0 -424 166q-168 162 -168 402v4q0 239 170 403q171 168 426 168t424 -166q168 -162 168 -401v-4q0 -240 -170 -404q-171 -168 -426 -168zM682 244q130 0 209 88q76 82 76 211v4q0 124 -80 213q-84 90 -209 90q-130 0 -209 -88q-76 -82 -76 -211v-4
q0 -124 80 -213q84 -90 209 -90zM680 1214q-243 0 -342 175q-14 25 -14 57q0 46 30 76t76 30q57 0 92 -53q52 -82 158 -82t158 82q35 53 92 53q46 0 76 -30t30 -76q0 -32 -14 -57q-99 -175 -342 -175z" />
    <glyph glyph-name="Ohungarumlaut" unicode="&#x150;" horiz-adv-x="1740" 
d="M868 -25q-326 0 -544 215q-215 212 -215 523v4q0 310 217 524q217 217 546 217t547 -215q213 -213 213 -522v-4q0 -309 -215 -524q-221 -218 -549 -218zM872 266q190 0 312 131q119 125 119 316v4q0 187 -121 317q-127 133 -314 133q-190 0 -309 -131
q-121 -127 -121 -315v-4q0 -189 123 -318q124 -133 311 -133zM1047 1554q-74 0 -74 54q0 22 20 55l113 176q43 70 111 70q54 0 114 -29q58 -30 58 -65q0 -36 -41 -74l-127 -119q-71 -68 -174 -68zM645 1554q-74 0 -74 54q0 20 21 55l113 176q43 70 110 70q55 0 115 -29
q57 -29 57 -65t-41 -74l-127 -119q-71 -68 -174 -68z" />
    <glyph glyph-name="ohungarumlaut" unicode="&#x151;" horiz-adv-x="1359" 
d="M678 -25q-255 0 -424 166q-168 162 -168 402v4q0 239 170 403q171 168 426 168t424 -166q168 -162 168 -401v-4q0 -240 -170 -404q-171 -168 -426 -168zM682 244q130 0 209 88q76 82 76 211v4q0 124 -80 213q-84 90 -209 90q-130 0 -209 -88q-76 -82 -76 -211v-4
q0 -124 80 -213q84 -90 209 -90zM856 1206q-74 0 -74 54q0 20 21 55l112 176q43 70 111 70q55 0 115 -29q57 -29 57 -66q0 -35 -41 -73l-127 -119q-71 -68 -174 -68zM455 1206q-74 0 -74 54q0 22 20 55l113 176q43 70 111 70q54 0 114 -29q58 -30 58 -66q0 -35 -41 -73
l-127 -119q-71 -68 -174 -68z" />
    <glyph glyph-name="OE" unicode="&#x152;" horiz-adv-x="2201" 
d="M1964 0h-1094q-334 0 -548 205q-213 204 -213 508v4q0 306 213 510q216 207 548 207h1084q59 0 100 -41t41 -101q0 -57 -41 -98t-100 -41h-588v-291h496q59 0 100 -41t41 -100q0 -57 -41 -98t-100 -41h-496v-301h598q59 0 100 -41t41 -101q0 -57 -41 -98t-100 -41z
M870 285h183v864h-183q-194 0 -313 -119t-119 -309v-4q0 -192 119 -311q121 -121 313 -121z" />
    <glyph glyph-name="oe" unicode="&#x153;" horiz-adv-x="2115" 
d="M1251 635h469q-30 233 -231 233q-198 0 -238 -233zM672 244q126 0 202 88q72 84 72 211v4q0 123 -78 213q-81 90 -200 90q-123 0 -201 -90q-74 -86 -74 -209v-4q0 -123 78 -213q81 -90 201 -90zM1901 109q-158 -134 -381 -134q-273 0 -439 187q-163 -187 -422 -187
q-234 0 -403 166q-170 167 -170 402v4q0 236 170 403q171 168 416 168q254 0 413 -182q156 182 404 182q251 0 401 -178q127 -154 127 -350q0 -65 -41 -109q-41 -41 -104 -41h-617q47 -215 269 -215q118 0 221 74q36 25 76 25q51 0 86 -35t35 -88q0 -54 -41 -92z" />
    <glyph glyph-name="Racute" unicode="&#x154;" horiz-adv-x="1480" 
d="M172 145v1131q0 68 45 113t113 45h497q272 0 418 -146q123 -123 123 -327v-5q0 -315 -287 -436l219 -266q52 -64 52 -121q0 -62 -47 -106q-42 -39 -103 -39q-91 0 -155 82l-308 389h-252v-314q0 -67 -45 -112t-112 -45q-68 0 -113 45t-45 112zM487 737h320q113 0 178 56
q64 55 64 147v4q0 205 -248 205h-314v-412zM762 1534q-78 0 -78 53q0 21 21 55l112 177q43 69 117 69q57 0 115 -28q59 -30 59 -66t-41 -74l-127 -118q-71 -68 -178 -68z" />
    <glyph glyph-name="racute" unicode="&#x155;" horiz-adv-x="856" 
d="M139 143v811q0 66 45 111t111 45t111 -45t45 -111v-49q85 205 211 205q72 0 112 -43q39 -39 39 -109q0 -118 -117 -145q-245 -58 -245 -379v-291q0 -65 -45 -110t-111 -45t-111 45t-45 110zM461 1206q-78 0 -78 54q0 22 20 55l113 176q43 70 117 70q55 0 115 -29
q59 -30 59 -66q0 -35 -41 -73l-127 -119q-71 -68 -178 -68z" />
    <glyph glyph-name="uni0156" unicode="&#x156;" horiz-adv-x="1480" 
d="M172 145v1131q0 68 45 113t113 45h497q272 0 418 -146q123 -123 123 -327v-5q0 -315 -287 -436l219 -266q52 -64 52 -121q0 -62 -47 -106q-42 -39 -103 -39q-91 0 -155 82l-308 389h-252v-314q0 -67 -45 -112t-112 -45q-68 0 -113 45t-45 112zM487 737h320q113 0 178 56
q64 55 64 147v4q0 205 -248 205h-314v-412zM780 -346q-129 21 -129 123v2q0 53 41 88t107 35q70 0 114 -47q41 -47 41 -121v-6q0 -159 -104 -244q-84 -72 -197 -72q-65 0 -65 51q0 41 51 50q144 30 141 141z" />
    <glyph glyph-name="uni0157" unicode="&#x157;" horiz-adv-x="856" 
d="M139 143v811q0 66 45 111t111 45t111 -45t45 -111v-49q85 205 211 205q72 0 112 -43q39 -39 39 -109q0 -118 -117 -145q-245 -58 -245 -379v-291q0 -65 -45 -110t-111 -45t-111 45t-45 110zM287 -356q-129 21 -129 123v2q0 53 41 88q40 34 106 34q71 0 115 -47
q41 -47 41 -120v-7q0 -158 -105 -243q-84 -72 -196 -72q-66 0 -66 51q0 40 51 49q145 30 142 142z" />
    <glyph glyph-name="Rcaron" unicode="&#x158;" horiz-adv-x="1480" 
d="M172 145v1131q0 68 45 113t113 45h497q272 0 418 -146q123 -123 123 -327v-5q0 -315 -287 -436l219 -266q52 -64 52 -121q0 -62 -47 -106q-42 -39 -103 -39q-91 0 -155 82l-308 389h-252v-314q0 -67 -45 -112t-112 -45q-68 0 -113 45t-45 112zM487 737h320q113 0 178 56
q64 55 64 147v4q0 205 -248 205h-314v-412zM772 1733l96 79q83 68 189 68q67 0 67 -49q0 -18 -30 -59l-129 -166q-58 -70 -146 -70h-98q-88 0 -146 70l-129 166q-30 41 -30 59q0 49 71 49q106 0 189 -68z" />
    <glyph glyph-name="rcaron" unicode="&#x159;" horiz-adv-x="856" 
d="M139 143v811q0 66 45 111t111 45t111 -45t45 -111v-49q85 205 211 205q72 0 112 -43q39 -39 39 -109q0 -118 -117 -145q-245 -58 -245 -379v-291q0 -65 -45 -110t-111 -45t-111 45t-45 110zM471 1405l96 80q82 67 189 67q67 0 67 -49q0 -19 -30 -59l-129 -166
q-58 -70 -146 -70h-98q-88 0 -146 70l-129 166q-30 40 -30 59q0 49 71 49q107 0 189 -67z" />
    <glyph glyph-name="Sacute" unicode="&#x15a;" horiz-adv-x="1310" 
d="M682 -20q-300 0 -539 172q-59 41 -59 118q0 62 43 105q44 41 104 41q47 0 91 -29q176 -129 366 -129q207 0 207 135v4q0 62 -55 99q-51 36 -234 84q-250 65 -346 139q-129 102 -129 299v4q0 193 141 313q137 119 361 119q253 0 454 -127q70 -40 70 -125q0 -62 -43 -102
q-43 -43 -104 -43q-38 0 -80 22q-168 97 -301 97q-88 0 -137 -37q-48 -36 -48 -88v-4q0 -69 62 -107q53 -31 248 -82q236 -62 336 -149q118 -100 118 -281v-4q0 -210 -147 -330q-141 -114 -379 -114zM655 1554q-77 0 -77 54q0 22 20 55l113 176q43 70 116 70q55 0 115 -29
q59 -30 59 -65q0 -37 -40 -74l-127 -119q-71 -68 -179 -68z" />
    <glyph glyph-name="sacute" unicode="&#x15b;" horiz-adv-x="1028" 
d="M524 -20q-223 0 -413 124q-60 38 -60 107q0 53 35 88q38 35 88 35q31 0 62 -17q154 -98 296 -98q132 0 132 82v4q0 46 -68 76q-40 15 -160 51q-327 94 -327 330v4q0 165 118 258q113 90 283 90q167 0 340 -84q74 -38 74 -117q0 -51 -37 -88q-34 -34 -88 -34q-33 0 -58 14
q-141 69 -237 69q-115 0 -115 -75v-4q0 -39 68 -74q13 -6 155 -57q159 -56 224 -107q108 -85 108 -219v-4q0 -176 -121 -268q-112 -86 -299 -86zM512 1206q-78 0 -78 54q0 20 21 55l112 176q43 70 117 70q55 0 115 -29q59 -30 59 -66q0 -35 -41 -73l-127 -119
q-71 -68 -178 -68z" />
    <glyph glyph-name="Scedilla" unicode="&#x15e;" horiz-adv-x="1310" 
d="M1208 428v-4q0 -187 -116 -303q-114 -111 -310 -135l-106 -262q-28 -66 -90 -66q-47 0 -109 35q-67 34 -67 71q0 27 18 54l119 172q-228 35 -404 162q-59 41 -59 118q0 62 43 105q44 41 104 41q47 0 91 -29q176 -129 366 -129q207 0 207 135v4q0 62 -55 99
q-51 36 -234 84q-250 65 -346 139q-129 102 -129 299v4q0 193 141 313q137 119 361 119q253 0 454 -127q70 -40 70 -125q0 -62 -43 -102q-43 -43 -104 -43q-38 0 -80 22q-168 97 -301 97q-88 0 -137 -37q-48 -36 -48 -88v-4q0 -69 62 -107q53 -31 248 -82q236 -62 336 -149
q118 -100 118 -281z" />
    <glyph glyph-name="scedilla" unicode="&#x15f;" horiz-adv-x="1028" 
d="M944 338v-4q0 -301 -323 -348l-107 -262q-28 -66 -90 -66q-47 0 -109 35q-67 34 -67 71q0 27 18 54l119 176q-140 23 -274 110q-60 38 -60 107q0 53 35 88q38 35 88 35q31 0 62 -17q154 -98 296 -98q132 0 132 82v4q0 46 -68 76q-40 15 -160 51q-327 94 -327 330v4
q0 165 118 258q113 90 283 90q167 0 340 -84q74 -38 74 -117q0 -51 -37 -88q-34 -34 -88 -34q-33 0 -58 14q-141 69 -237 69q-115 0 -115 -75v-4q0 -39 68 -74q13 -6 155 -57q159 -56 224 -107q108 -85 108 -219z" />
    <glyph glyph-name="Scaron" unicode="&#x160;" horiz-adv-x="1310" 
d="M682 -20q-300 0 -539 172q-59 41 -59 118q0 62 43 105q44 41 104 41q47 0 91 -29q176 -129 366 -129q207 0 207 135v4q0 62 -55 99q-51 36 -234 84q-250 65 -346 139q-129 102 -129 299v4q0 193 141 313q137 119 361 119q253 0 454 -127q70 -40 70 -125q0 -62 -43 -102
q-43 -43 -104 -43q-38 0 -80 22q-168 97 -301 97q-88 0 -137 -37q-48 -36 -48 -88v-4q0 -69 62 -107q53 -31 248 -82q236 -62 336 -149q118 -100 118 -281v-4q0 -210 -147 -330q-141 -114 -379 -114zM666 1753l96 80q83 68 188 68q68 0 68 -50q0 -17 -31 -59l-129 -166
q-58 -70 -145 -70h-99q-87 0 -145 70l-129 166q-31 42 -31 59q0 50 72 50q105 0 188 -68z" />
    <glyph glyph-name="scaron" unicode="&#x161;" horiz-adv-x="1028" 
d="M524 -20q-223 0 -413 124q-60 38 -60 107q0 53 35 88q38 35 88 35q31 0 62 -17q154 -98 296 -98q132 0 132 82v4q0 46 -68 76q-40 15 -160 51q-327 94 -327 330v4q0 165 118 258q113 90 283 90q167 0 340 -84q74 -38 74 -117q0 -51 -37 -88q-34 -34 -88 -34q-33 0 -58 14
q-141 69 -237 69q-115 0 -115 -75v-4q0 -39 68 -74q13 -6 155 -57q159 -56 224 -107q108 -85 108 -219v-4q0 -176 -121 -268q-112 -86 -299 -86zM522 1405l96 80q82 67 189 67q67 0 67 -49q0 -19 -30 -59l-129 -166q-58 -70 -146 -70h-98q-87 0 -145 70l-129 166
q-31 42 -31 59q0 49 72 49q106 0 188 -67z" />
    <glyph glyph-name="uni0162" unicode="&#x162;" horiz-adv-x="1327" 
d="M506 145v998h-303q-60 0 -103 43t-43 102q0 60 43 103t103 43h921q60 0 103 -43t43 -103q0 -59 -43 -102t-103 -43h-303v-998q0 -67 -45 -112t-112 -45q-68 0 -113 45t-45 112zM674 -356q-129 21 -129 123v2q0 53 41 88q40 34 106 34q71 0 115 -47q41 -47 41 -120v-7
q0 -158 -105 -243q-84 -72 -196 -72q-66 0 -66 51q0 40 51 49q145 30 142 142z" />
    <glyph glyph-name="uni0163" unicode="&#x163;" horiz-adv-x="849" 
d="M510 -18q-320 0 -320 329v520h-10q-55 0 -94 39t-39 95q0 55 39 94t94 39h10v137q0 65 46 111q45 45 110 45q66 0 111 -45t45 -111v-137h137q55 0 94 -39t39 -94q0 -56 -39 -95t-94 -39h-137v-469q0 -106 100 -106l37 2q53 0 90 -37q39 -39 39 -92q0 -87 -80 -117
q-76 -30 -178 -30zM465 -356q-129 21 -129 123v2q0 53 41 88q40 34 106 34q71 0 115 -47q41 -47 41 -120v-7q0 -158 -104 -243q-84 -72 -197 -72q-66 0 -66 51q0 40 52 49q144 30 141 142z" />
    <glyph glyph-name="Tcaron" unicode="&#x164;" horiz-adv-x="1327" 
d="M506 145v998h-303q-60 0 -103 43t-43 102q0 60 43 103t103 43h921q60 0 103 -43t43 -103q0 -59 -43 -102t-103 -43h-303v-998q0 -67 -45 -112t-112 -45q-68 0 -113 45t-45 112zM666 1733l96 79q83 68 188 68q68 0 68 -49q0 -17 -31 -59l-129 -166q-58 -70 -145 -70h-99
q-87 0 -145 70l-129 166q-31 42 -31 59q0 49 72 49q105 0 188 -68z" />
    <glyph glyph-name="tcaron" unicode="&#x165;" horiz-adv-x="849" 
d="M510 -18q-320 0 -320 329v520h-10q-55 0 -94 39t-39 95q0 55 39 94t94 39h10v137q0 65 46 111q45 45 110 45q66 0 111 -45t45 -111v-137h137q55 0 94 -39t39 -94q0 -56 -39 -95t-94 -39h-137v-469q0 -106 100 -106l37 2q53 0 90 -37q39 -39 39 -92q0 -87 -80 -117
q-76 -30 -178 -30zM637 1270v266q0 45 29 74q27 30 75 30h41q76 0 76 -67q0 -26 -8 -47l-78 -271q-15 -55 -72 -55q-63 0 -63 70z" />
    <glyph glyph-name="Utilde" unicode="&#x168;" horiz-adv-x="1548" 
d="M770 -23q-290 0 -455 160q-165 165 -165 477v674q0 68 45 113t112 45q68 0 113 -45t45 -113v-665q0 -355 309 -355t309 344v676q0 68 45 113t113 45t113 -45t45 -113v-663q0 -319 -170 -486q-162 -162 -459 -162zM539 1575q-27 -47 -80 -47q-38 0 -64 26q-28 25 -28 58
q0 25 10 55q77 201 229 201q73 0 174 -39q103 -41 133 -41q62 0 97 59q27 47 80 47q39 0 65 -26q27 -24 27 -58q0 -22 -11 -55q-77 -201 -229 -201q-68 0 -174 41q-98 39 -133 39q-61 0 -96 -59z" />
    <glyph glyph-name="utilde" unicode="&#x169;" horiz-adv-x="1275" 
d="M1137 954v-811q0 -65 -45 -110t-111 -45t-111 45t-45 110v13q-138 -176 -321 -176q-176 0 -275 108q-98 107 -98 299v567q0 66 45 111t111 45q65 0 110 -45t45 -111v-469q0 -223 189 -223q194 0 194 223v469q0 66 45 111t111 45t111 -45t45 -111zM399 1239
q-27 -47 -80 -47q-36 0 -63 27q-29 26 -29 57q0 22 11 55q77 201 229 201q73 0 174 -39q103 -41 133 -41q61 0 96 59q28 48 80 48q39 0 66 -27q26 -23 26 -57q0 -26 -10 -56q-77 -200 -229 -200q-68 0 -174 41q-96 38 -133 38q-62 0 -97 -59z" />
    <glyph glyph-name="Umacron" unicode="&#x16a;" horiz-adv-x="1548" 
d="M770 -23q-290 0 -455 160q-165 165 -165 477v674q0 68 45 113t112 45q68 0 113 -45t45 -113v-665q0 -355 309 -355t309 344v676q0 68 45 113t113 45t113 -45t45 -113v-663q0 -319 -170 -486q-162 -162 -459 -162zM1047 1556h-545q-45 0 -76 31q-33 29 -33 76t33 76
q29 33 76 33h545q46 0 75 -33q33 -29 33 -76t-33 -76q-31 -31 -75 -31z" />
    <glyph glyph-name="umacron" unicode="&#x16b;" horiz-adv-x="1275" 
d="M1137 954v-811q0 -65 -45 -110t-111 -45t-111 45t-45 110v13q-138 -176 -321 -176q-176 0 -275 108q-98 107 -98 299v567q0 66 45 111t111 45q65 0 110 -45t45 -111v-469q0 -223 189 -223q194 0 194 223v469q0 66 45 111t111 45t111 -45t45 -111zM905 1229h-545
q-44 0 -75 31q-33 29 -33 75q0 47 33 76q29 33 75 33h545q47 0 76 -33q33 -29 33 -76q0 -46 -33 -75q-31 -31 -76 -31z" />
    <glyph glyph-name="Ubreve" unicode="&#x16c;" horiz-adv-x="1548" 
d="M770 -23q-290 0 -455 160q-165 165 -165 477v674q0 68 45 113t112 45q68 0 113 -45t45 -113v-665q0 -355 309 -355t309 344v676q0 68 45 113t113 45t113 -45t45 -113v-663q0 -319 -170 -486q-162 -162 -459 -162zM774 1532q-244 0 -342 174q-14 25 -14 57q0 45 31 76
t75 31q57 0 92 -53q52 -82 158 -82t158 82q35 53 92 53q45 0 76 -31q30 -30 30 -76q0 -32 -14 -57q-98 -174 -342 -174z" />
    <glyph glyph-name="ubreve" unicode="&#x16d;" horiz-adv-x="1275" 
d="M1137 954v-811q0 -65 -45 -110t-111 -45t-111 45t-45 110v13q-138 -176 -321 -176q-176 0 -275 108q-98 107 -98 299v567q0 66 45 111t111 45q65 0 110 -45t45 -111v-469q0 -223 189 -223q194 0 194 223v469q0 66 45 111t111 45t111 -45t45 -111zM633 1214
q-243 0 -342 175q-15 27 -15 57q0 45 31 76q30 30 76 30q57 0 92 -53q52 -82 158 -82t158 82q35 53 92 53q45 0 75 -30q31 -31 31 -76q0 -32 -14 -57q-99 -175 -342 -175z" />
    <glyph glyph-name="Uring" unicode="&#x16e;" horiz-adv-x="1548" 
d="M770 -23q-290 0 -455 160q-165 165 -165 477v674q0 68 45 113t112 45q68 0 113 -45t45 -113v-665q0 -355 309 -355t309 344v676q0 68 45 113t113 45t113 -45t45 -113v-663q0 -319 -170 -486q-162 -162 -459 -162zM774 1511q-99 0 -172 70q-76 70 -76 168v4q0 98 76 168
q73 70 172 70q98 0 174 -70q74 -71 74 -168v-4q0 -97 -74 -168q-76 -70 -174 -70zM774 1624q50 0 90 37q37 37 37 88v4q0 51 -37 88q-40 37 -90 37t-90 -37q-37 -37 -37 -88v-4q0 -51 37 -88q40 -37 90 -37z" />
    <glyph glyph-name="uring" unicode="&#x16f;" horiz-adv-x="1275" 
d="M1137 954v-811q0 -65 -45 -110t-111 -45t-111 45t-45 110v13q-138 -176 -321 -176q-176 0 -275 108q-98 107 -98 299v567q0 66 45 111t111 45q65 0 110 -45t45 -111v-469q0 -223 189 -223q194 0 194 223v469q0 66 45 111t111 45t111 -45t45 -111zM633 1214q-99 0 -172 70
q-76 70 -76 168v4q0 98 76 168q73 70 172 70q98 0 174 -70q74 -71 74 -168v-4q0 -97 -74 -168q-76 -70 -174 -70zM633 1327q50 0 90 37q37 37 37 88v4q0 51 -37 88q-40 37 -90 37t-90 -37q-37 -37 -37 -88v-4q0 -51 37 -88q40 -37 90 -37z" />
    <glyph glyph-name="Uhungarumlaut" unicode="&#x170;" horiz-adv-x="1548" 
d="M770 -23q-290 0 -455 160q-165 165 -165 477v674q0 68 45 113t112 45q68 0 113 -45t45 -113v-665q0 -355 309 -355t309 344v676q0 68 45 113t113 45t113 -45t45 -113v-663q0 -319 -170 -486q-162 -162 -459 -162zM950 1534q-73 0 -73 53q0 22 20 55l113 177q43 69 110 69
q57 0 115 -28q57 -29 57 -66q0 -36 -41 -74l-127 -118q-71 -68 -174 -68zM549 1534q-74 0 -74 53q0 21 21 55l112 177q43 69 111 69q57 0 115 -28q57 -29 57 -66q0 -36 -41 -74l-127 -118q-71 -68 -174 -68z" />
    <glyph glyph-name="uhungarumlaut" unicode="&#x171;" horiz-adv-x="1275" 
d="M1137 954v-811q0 -65 -45 -110t-111 -45t-111 45t-45 110v13q-138 -176 -321 -176q-176 0 -275 108q-98 107 -98 299v567q0 66 45 111t111 45q65 0 110 -45t45 -111v-469q0 -223 189 -223q194 0 194 223v469q0 66 45 111t111 45t111 -45t45 -111zM809 1206q-74 0 -74 54
q0 20 21 55l112 176q43 70 111 70q55 0 115 -29q57 -29 57 -66q0 -35 -41 -73l-127 -119q-71 -68 -174 -68zM408 1206q-74 0 -74 54q0 22 20 55l113 176q43 70 111 70q54 0 114 -29q58 -30 58 -66q0 -35 -41 -73l-127 -119q-71 -68 -174 -68z" />
    <glyph glyph-name="Uogonek" unicode="&#x172;" horiz-adv-x="1548" 
d="M590 -164q0 70 57 150q-236 30 -364 188q-133 165 -133 440v674q0 68 45 113t112 45q68 0 113 -45t45 -113v-665q0 -355 309 -355t309 344v676q0 68 45 113t113 45t113 -45t45 -113v-663q0 -295 -148 -463q-144 -159 -403 -180q-35 -50 -35 -97q0 -59 82 -80
q74 -18 74 -73q0 -74 -99 -74q-280 0 -280 178z" />
    <glyph glyph-name="uogonek" unicode="&#x173;" horiz-adv-x="1275" 
d="M1137 954v-817q0 -61 -58 -119q-75 -75 -75 -137q0 -55 77 -76q74 -18 74 -73q0 -74 -98 -74q-279 0 -279 168q0 99 103 199q-56 47 -56 118v13q-138 -176 -321 -176q-176 0 -275 108q-98 107 -98 299v567q0 66 45 111t111 45q65 0 110 -45t45 -111v-469q0 -223 189 -223
q194 0 194 223v469q0 66 45 111t111 45t111 -45t45 -111z" />
    <glyph glyph-name="Wcircumflex" unicode="&#x174;" horiz-adv-x="2248" 
d="M483 106l-401 1127q-12 37 -12 59q0 64 47 111q46 43 114 43q120 0 154 -113l285 -878l286 870q40 125 160 125h25q119 0 159 -125l287 -870l285 878q37 113 151 113q65 0 111 -43q45 -45 45 -109q0 -24 -12 -61l-402 -1127q-47 -129 -163 -129h-33q-115 0 -162 129
l-283 822l-282 -822q-46 -129 -162 -129h-33q-117 0 -164 129zM1122 1681l-96 -79q-83 -68 -188 -68q-68 0 -68 49q0 17 31 59l129 166q58 70 145 70h99q87 0 145 -70l129 -166q31 -42 31 -59q0 -49 -72 -49q-105 0 -188 68z" />
    <glyph glyph-name="wcircumflex" unicode="&#x175;" horiz-adv-x="1738" 
d="M524 -20h-10q-125 0 -172 139l-268 774q-15 44 -15 76q0 57 41 98q43 43 109 43q110 0 151 -121l168 -557l172 555q40 125 160 125h19q119 0 159 -125l174 -557l172 561q37 119 150 119q64 0 104 -43q41 -41 41 -100q0 -22 -10 -64l-276 -784q-47 -139 -172 -139h-11
q-124 0 -168 133l-174 553l-176 -553q-44 -133 -168 -133zM866 1354l-96 -80q-83 -68 -188 -68q-68 0 -68 49q0 18 31 60l129 166q57 69 145 69h99q88 0 145 -69l129 -166q31 -42 31 -60q0 -49 -72 -49q-105 0 -188 68z" />
    <glyph glyph-name="Ycircumflex" unicode="&#x176;" horiz-adv-x="1409" 
d="M547 145v408l-463 629q-39 51 -39 112q0 65 45 107q45 45 113 45q89 0 155 -96l349 -502l354 506q64 94 151 94q71 0 113 -45q41 -44 41 -109q0 -51 -41 -110l-463 -625v-414q0 -67 -45 -112t-112 -45q-68 0 -113 45t-45 112zM702 1681l-96 -79q-83 -68 -188 -68
q-68 0 -68 49q0 17 31 59l129 166q58 70 145 70h99q87 0 145 -70l129 -166q31 -42 31 -59q0 -49 -72 -49q-105 0 -188 68z" />
    <glyph glyph-name="ycircumflex" unicode="&#x177;" horiz-adv-x="1200" 
d="M367 -334q-85 0 -170 29q-99 35 -99 129q0 55 37 92q38 35 86 35q30 0 51 -8q44 -13 66 -13q76 0 111 66l10 24l-375 869q-16 43 -16 72q0 66 45 108q44 41 108 41q107 0 150 -117l237 -639l230 637q46 119 149 119q61 0 105 -41q43 -40 43 -102q0 -39 -15 -74l-383 -920
q-71 -171 -149 -237q-82 -70 -221 -70zM598 1354l-96 -80q-83 -68 -189 -68q-67 0 -67 49q0 19 30 60l130 166q57 69 145 69h98q89 0 146 -69l129 -166q30 -41 30 -60q0 -49 -71 -49q-106 0 -189 68z" />
    <glyph glyph-name="Ydieresis" unicode="&#x178;" horiz-adv-x="1409" 
d="M547 145v408l-463 629q-39 51 -39 112q0 65 45 107q45 45 113 45q89 0 155 -96l349 -502l354 506q64 94 151 94q71 0 113 -45q41 -44 41 -109q0 -51 -41 -110l-463 -625v-414q0 -67 -45 -112t-112 -45q-68 0 -113 45t-45 112zM924 1837q67 0 114 -41q47 -44 47 -108v-5
q0 -64 -47 -108q-47 -41 -114 -41q-68 0 -115 41q-47 44 -47 108v5q0 64 47 108q47 41 115 41zM485 1837q68 0 115 -41q47 -44 47 -108v-5q0 -64 -47 -108q-47 -41 -115 -41q-67 0 -114 41q-47 44 -47 108v5q0 64 47 108q47 41 114 41z" />
    <glyph glyph-name="Zacute" unicode="&#x179;" horiz-adv-x="1449" 
d="M1196 0h-940q-57 0 -98 41t-41 98v6q0 82 57 148l744 864h-637q-58 0 -99 41t-41 96q0 58 41 99t99 41h915q57 0 98 -41t41 -99v-6q0 -78 -57 -147l-743 -865h661q58 0 98 -40q41 -41 41 -99q0 -55 -41 -96t-98 -41zM729 1534q-78 0 -78 53q0 21 21 55l112 177
q43 69 117 69q57 0 115 -28q59 -30 59 -66t-41 -74l-127 -118q-71 -68 -178 -68z" />
    <glyph glyph-name="zacute" unicode="&#x17a;" horiz-adv-x="1153" 
d="M942 0h-700q-65 0 -109 35q-43 34 -43 90v6q0 76 70 152l510 563h-434q-54 0 -91 37q-36 36 -36 88q0 54 36 90q40 37 91 37h682q64 0 108 -35q43 -34 43 -90v-6q0 -76 -70 -152l-512 -563h455q53 0 90 -37t37 -90q0 -51 -37 -88t-90 -37zM571 1206q-77 0 -77 54
q0 22 20 55l113 176q43 70 116 70q55 0 115 -29q60 -31 60 -66t-41 -73l-127 -119q-71 -68 -179 -68z" />
    <glyph glyph-name="Zdotaccent" unicode="&#x17b;" horiz-adv-x="1449" 
d="M1196 0h-940q-57 0 -98 41t-41 98v6q0 82 57 148l744 864h-637q-58 0 -99 41t-41 96q0 58 41 99t99 41h915q57 0 98 -41t41 -99v-6q0 -78 -57 -147l-743 -865h661q58 0 98 -40q41 -41 41 -99q0 -55 -41 -96t-98 -41zM903 1688v-5q0 -65 -49 -108q-47 -41 -117 -41
q-69 0 -116 41q-50 44 -50 108v5q0 64 50 108q47 41 116 41q70 0 117 -41q49 -43 49 -108z" />
    <glyph glyph-name="zdotaccent" unicode="&#x17c;" horiz-adv-x="1153" 
d="M942 0h-700q-65 0 -109 35q-43 34 -43 90v6q0 76 70 152l510 563h-434q-54 0 -91 37q-36 36 -36 88q0 54 36 90q40 37 91 37h682q64 0 108 -35q43 -34 43 -90v-6q0 -76 -70 -152l-512 -563h455q53 0 90 -37t37 -90q0 -51 -37 -88t-90 -37zM745 1360v-4q0 -66 -49 -109
q-47 -41 -116 -41q-70 0 -117 41q-49 43 -49 109v4q0 65 49 108q47 41 117 41q69 0 116 -41q49 -43 49 -108z" />
    <glyph glyph-name="Zcaron" unicode="&#x17d;" horiz-adv-x="1449" 
d="M1196 0h-940q-57 0 -98 41t-41 98v6q0 82 57 148l744 864h-637q-58 0 -99 41t-41 96q0 58 41 99t99 41h915q57 0 98 -41t41 -99v-6q0 -78 -57 -147l-743 -865h661q58 0 98 -40q41 -41 41 -99q0 -55 -41 -96t-98 -41zM739 1733l97 79q83 68 188 68q68 0 68 -49
q0 -17 -31 -59l-129 -166q-58 -70 -146 -70h-98q-87 0 -145 70l-129 166q-31 42 -31 59q0 49 72 49q105 0 188 -68z" />
    <glyph glyph-name="zcaron" unicode="&#x17e;" horiz-adv-x="1153" 
d="M942 0h-700q-65 0 -109 35q-43 34 -43 90v6q0 76 70 152l510 563h-434q-54 0 -91 37q-36 36 -36 88q0 54 36 90q40 37 91 37h682q64 0 108 -35q43 -34 43 -90v-6q0 -76 -70 -152l-512 -563h455q53 0 90 -37t37 -90q0 -51 -37 -88t-90 -37zM582 1405l96 80q82 67 188 67
q68 0 68 -49q0 -17 -31 -59l-129 -166q-58 -70 -145 -70h-99q-87 0 -145 70l-129 166q-31 42 -31 59q0 49 72 49q106 0 188 -67z" />
    <glyph glyph-name="florin" unicode="&#x192;" horiz-adv-x="1097" 
d="M227 -16q-155 0 -155 129q0 114 118 129q92 12 113 123l57 340h-20q-53 0 -92 36q-37 37 -37 90t37 93q40 37 92 37h66l28 155q62 332 387 332q17 0 99 -4q45 -3 81 -39q35 -41 35 -90q0 -52 -37 -92q-40 -37 -92 -37h-22q-130 0 -154 -139l-14 -86h119q52 0 92 -37
q37 -40 37 -93t-37 -90q-39 -36 -92 -36h-164l-68 -390q-58 -331 -377 -331z" />
    <glyph glyph-name="Ohorn" unicode="&#x1a0;" horiz-adv-x="1740" 
d="M1184 397q119 125 119 316v4q0 187 -121 317q-127 133 -314 133q-190 0 -309 -131q-121 -127 -121 -315v-4q0 -189 123 -318q124 -133 311 -133q190 0 312 131zM1389 1272q5 -5 15 -14.5t15 -14.5q213 -213 213 -522v-4q0 -309 -215 -524q-221 -218 -549 -218
q-326 0 -544 215q-215 212 -215 523v4q0 310 217 524q217 217 546 217q111 0 213 -24q163 27 172 159q43 49 107 49q60 0 100 -40q41 -41 41 -101q0 -57 -32 -117q-28 -62 -84 -112z" />
    <glyph glyph-name="ohorn" unicode="&#x1a1;" horiz-adv-x="1359" 
d="M891 332q76 82 76 211v4q0 124 -80 213q-84 90 -209 90q-130 0 -209 -88q-76 -82 -76 -211v-4q0 -124 80 -213q84 -90 209 -90q130 0 209 88zM1110 948q164 -164 164 -397v-4q0 -240 -170 -404q-171 -168 -426 -168t-424 166q-168 162 -168 402v4q0 239 170 403
q171 168 426 168q78 0 141 -14q130 3 142 151q44 50 106 50q59 0 100 -41t41 -101q0 -56 -32 -116q-24 -59 -70 -99z" />
    <glyph glyph-name="Uhorn" unicode="&#x1af;" horiz-adv-x="1548" 
d="M1399 1219v-594q0 -319 -170 -486q-162 -162 -459 -162q-290 0 -455 160q-165 165 -165 477v674q0 68 45 113t112 45q68 0 113 -45t45 -113v-665q0 -355 309 -355t309 344v676q0 68 45 113t113 45h14q98 19 107 147q43 49 106 49q61 0 101 -40q41 -41 41 -101
q0 -55 -33 -117q-52 -118 -178 -165z" />
    <glyph glyph-name="uhorn" unicode="&#x1b0;" horiz-adv-x="1275" 
d="M1137 885v-742q0 -65 -45 -110t-111 -45t-111 45t-45 110v13q-138 -176 -321 -176q-176 0 -275 108q-98 107 -98 299v567q0 66 45 111t111 45q65 0 110 -45t45 -111v-469q0 -223 189 -223q194 0 194 223v469q0 66 45 111t111 45h14q88 22 97 145q44 50 106 50
q59 0 100 -41t41 -101q0 -56 -32 -116q-52 -116 -170 -162z" />
    <glyph glyph-name="Aringacute" unicode="&#x1fa;" horiz-adv-x="1617" 
d="M969 1405l532 -1202q17 -42 17 -64q0 -63 -43 -106q-42 -45 -107 -45q-104 0 -151 108l-97 226h-631l-100 -236q-43 -98 -145 -98q-63 0 -103 43q-43 43 -43 104q0 25 19 68l532 1202q-88 73 -88 180v4q0 98 76 168q73 70 172 70q98 0 174 -70q74 -71 74 -168v-4
q0 -107 -88 -180zM809 1460q50 0 90 37q37 37 37 88v4q0 51 -37 88q-40 37 -90 37t-90 -37q-37 -37 -37 -88v-4q0 -51 37 -88q40 -37 90 -37zM606 600h398l-199 473zM801 1872q-78 0 -78 53q0 22 20 55l113 177q43 69 117 69q56 0 114 -28q60 -31 60 -66q0 -36 -41 -74
l-127 -119q-70 -67 -178 -67z" />
    <glyph glyph-name="aringacute" unicode="&#x1fb;" horiz-adv-x="1212" 
d="M451 -20q-161 0 -267 86q-110 91 -110 249v4q0 177 123 265q118 86 319 86q140 0 268 -45v18q0 201 -235 201q-113 0 -215 -31q-21 -8 -45 -8q-52 0 -92 37q-37 37 -37 90q0 90 84 121q149 57 350 57q248 0 371 -123q118 -118 118 -350v-500q0 -64 -45 -106
q-43 -43 -106 -43q-65 0 -109 41q-41 38 -41 88v2q-127 -139 -331 -139zM610 1214q-99 0 -172 70q-76 70 -76 168v4q0 98 76 168q73 70 172 70q98 0 174 -70q74 -71 74 -168v-4q0 -97 -74 -168q-76 -70 -174 -70zM545 195q108 0 176 53q67 55 67 139v55q-90 41 -198 41
q-215 0 -215 -151v-4q0 -133 170 -133zM602 1751q-78 0 -78 53q0 21 21 56l112 176q43 69 117 69q57 0 115 -28q59 -30 59 -66t-41 -74l-127 -118q-71 -68 -178 -68zM610 1327q50 0 90 37q37 37 37 88v4q0 51 -37 88q-40 37 -90 37t-90 -37q-37 -37 -37 -88v-4q0 -51 37 -88
q40 -37 90 -37z" />
    <glyph glyph-name="AEacute" unicode="&#x1fc;" horiz-adv-x="2140" 
d="M68 115q0 43 24 90l641 1118q65 111 189 111h970q60 0 101 -41t41 -101q0 -57 -41 -98t-101 -41h-587v-291h495q60 0 101 -41t41 -100q0 -57 -41 -98t-101 -41h-495v-301h598q59 0 100 -41t41 -101q0 -57 -41 -98t-100 -41h-754q-68 0 -113 45t-45 113v164h-508
l-139 -248q-50 -86 -137 -86q-58 0 -98 37q-41 35 -41 90zM641 600h350v561h-35zM1253 1534q-77 0 -77 53q0 22 20 55l113 177q43 69 116 69q57 0 115 -28q59 -30 59 -66q0 -37 -40 -74l-127 -118q-71 -68 -179 -68z" />
    <glyph glyph-name="aeacute" unicode="&#x1fd;" horiz-adv-x="1947" 
d="M1083 635h469q-30 233 -231 233q-198 0 -238 -233zM545 199q146 0 280 104q-30 71 -39 141q-88 39 -196 39q-215 0 -215 -151v-4q0 -61 49 -95t121 -34zM1733 109q-158 -134 -381 -134q-255 0 -418 166q-214 -161 -447 -161q-181 0 -294 88q-119 91 -119 247v4
q0 177 123 265q118 86 319 86q140 0 268 -45v18q0 201 -235 201q-113 0 -215 -31q-21 -8 -45 -8q-52 0 -92 37q-37 37 -37 90q0 90 84 121q149 57 350 57q258 0 373 -139q144 147 362 147q246 0 393 -178q127 -154 127 -350q0 -65 -41 -109q-41 -41 -104 -41h-617
q47 -215 269 -215q118 0 221 74q36 25 76 25q51 0 86 -35t35 -88q0 -54 -41 -92zM952 1206q-78 0 -78 54q0 20 21 55l113 176q43 70 116 70q55 0 115 -29q59 -30 59 -66q0 -35 -41 -73l-127 -119q-71 -68 -178 -68z" />
    <glyph glyph-name="Oslashacute" unicode="&#x1fe;" horiz-adv-x="1740" 
d="M868 -25q-243 0 -438 127l-82 -82q-43 -43 -94 -43q-47 0 -78 31q-31 28 -31 68q0 51 45 96l78 80q-159 194 -159 461v4q0 310 217 524q217 217 546 217q242 0 437 -127l84 82q43 43 94 43q47 0 78 -31q30 -27 30 -67q0 -51 -45 -96l-77 -82q159 -200 159 -459v-4
q0 -309 -215 -524q-221 -218 -549 -218zM432 721v-4q0 -129 60 -234l606 625q-107 66 -230 66q-185 0 -313 -134q-123 -132 -123 -319zM872 260q187 0 314 133q123 132 123 320v4q0 122 -60 233l-608 -626q101 -64 231 -64zM862 1554q-78 0 -78 54q0 20 21 55l113 176
q43 70 116 70q55 0 115 -29q59 -30 59 -65q0 -36 -41 -74l-127 -119q-71 -68 -178 -68z" />
    <glyph glyph-name="oslashacute" unicode="&#x1ff;" horiz-adv-x="1359" 
d="M678 -25q-178 0 -326 91l-47 -48q-45 -45 -94 -45q-41 0 -68 27q-28 28 -28 63q0 52 45 97l41 41q-115 148 -115 342v4q0 239 170 403q171 168 426 168q173 0 326 -90l47 47q45 45 94 45q42 0 68 -26q28 -28 28 -64q0 -51 -45 -96l-41 -43q115 -151 115 -340v-4
q0 -240 -170 -404q-171 -168 -426 -168zM672 1206q-78 0 -78 54q0 22 20 55l113 176q43 70 117 70q54 0 114 -29q60 -31 60 -66t-41 -73l-127 -119q-71 -68 -178 -68zM682 236q132 0 215 92q78 87 78 215v4q0 67 -27 131l-403 -410q57 -32 137 -32zM385 551v-4
q0 -75 27 -131l403 407q-65 35 -137 35q-132 0 -215 -92q-78 -87 -78 -215z" />
    <glyph glyph-name="uni0218" unicode="&#x218;" horiz-adv-x="1310" 
d="M682 -20q-300 0 -539 172q-59 41 -59 118q0 62 43 105q44 41 104 41q47 0 91 -29q176 -129 366 -129q207 0 207 135v4q0 62 -55 99q-51 36 -234 84q-250 65 -346 139q-129 102 -129 299v4q0 193 141 313q137 119 361 119q253 0 454 -127q70 -40 70 -125q0 -62 -43 -102
q-43 -43 -104 -43q-38 0 -80 22q-168 97 -301 97q-88 0 -137 -37q-48 -36 -48 -88v-4q0 -69 62 -107q53 -31 248 -82q236 -62 336 -149q118 -100 118 -281v-4q0 -210 -147 -330q-141 -114 -379 -114zM674 -367q-129 21 -129 123v2q0 53 41 88t106 35q71 0 115 -47
q41 -47 41 -121v-6q0 -159 -105 -244q-83 -71 -196 -71q-66 0 -66 51q0 40 51 49q145 30 142 141z" />
    <glyph glyph-name="uni0219" unicode="&#x219;" horiz-adv-x="1028" 
d="M524 -20q-223 0 -413 124q-60 38 -60 107q0 53 35 88q38 35 88 35q31 0 62 -17q154 -98 296 -98q132 0 132 82v4q0 46 -68 76q-40 15 -160 51q-327 94 -327 330v4q0 165 118 258q113 90 283 90q167 0 340 -84q74 -38 74 -117q0 -51 -37 -88q-34 -34 -88 -34q-33 0 -58 14
q-141 69 -237 69q-115 0 -115 -75v-4q0 -39 68 -74q13 -6 155 -57q159 -56 224 -107q108 -85 108 -219v-4q0 -176 -121 -268q-112 -86 -299 -86zM530 -356q-129 21 -129 123v2q0 53 41 88q40 34 107 34q71 0 115 -47q41 -47 41 -120v-7q0 -158 -105 -243q-84 -72 -197 -72
q-65 0 -65 51q0 40 51 49q144 30 141 142z" />
    <glyph glyph-name="uni0259" unicode="&#x259;" horiz-adv-x="1255" 
d="M864 463h-469q30 -234 232 -234q197 0 237 234zM215 989q157 133 381 133q250 0 410 -157q163 -159 163 -410v-4q0 -239 -151 -404q-154 -167 -391 -167q-252 0 -402 178q-127 154 -127 350q0 68 43 108q41 41 103 41h616q-47 215 -268 215q-120 0 -221 -73
q-36 -25 -76 -25q-51 0 -86 35t-35 88q0 54 41 92z" />
    <glyph glyph-name="circumflex" unicode="&#x2c6;" 
d="M510 1354l-96 -80q-83 -68 -189 -68q-67 0 -67 49q0 19 30 60l129 166q57 69 146 69h98q89 0 146 -69l129 -166q30 -41 30 -60q0 -49 -71 -49q-106 0 -189 68z" />
    <glyph glyph-name="caron" unicode="&#x2c7;" 
d="M514 1405l96 80q82 67 189 67q67 0 67 -49q0 -19 -30 -59l-129 -166q-58 -70 -146 -70h-98q-88 0 -146 70l-129 166q-30 40 -30 59q0 49 71 49q107 0 189 -67z" />
    <glyph glyph-name="breve" unicode="&#x2d8;" 
d="M512 1214q-243 0 -342 175q-14 25 -14 57q0 46 30 76t76 30q57 0 92 -53q52 -82 158 -82t158 82q35 53 92 53q46 0 76 -30t30 -76q0 -32 -14 -57q-99 -175 -342 -175z" />
    <glyph glyph-name="dotaccent" unicode="&#x2d9;" 
d="M678 1360v-4q0 -66 -49 -109q-47 -41 -117 -41t-117 41q-49 43 -49 109v4q0 65 49 108q47 41 117 41t117 -41q49 -43 49 -108z" />
    <glyph glyph-name="ring" unicode="&#x2da;" 
d="M512 1214q-99 0 -172 70q-76 70 -76 168v4q0 98 76 168q73 70 172 70q98 0 174 -70q74 -71 74 -168v-4q0 -97 -74 -168q-76 -70 -174 -70zM512 1327q50 0 90 37q37 37 37 88v4q0 51 -37 88q-40 37 -90 37t-90 -37q-37 -37 -37 -88v-4q0 -51 37 -88q40 -37 90 -37z" />
    <glyph glyph-name="ogonek" unicode="&#x2db;" 
d="M362 -164q0 80 87 184h206q-69 -69 -69 -135q0 -59 82 -80q73 -18 73 -73q0 -74 -98 -74q-281 0 -281 178z" />
    <glyph glyph-name="tilde" unicode="&#x2dc;" 
d="M276 1239q-27 -47 -79 -47q-37 0 -64 27q-29 26 -29 57q0 22 11 55q77 201 229 201q73 0 174 -39q103 -41 133 -41q62 0 97 59q28 48 79 48q39 0 66 -27q27 -24 27 -57q0 -23 -11 -56q-77 -200 -229 -200q-68 0 -174 41q-96 38 -133 38q-62 0 -97 -59z" />
    <glyph glyph-name="hungarumlaut" unicode="&#x2dd;" 
d="M588 1206q-74 0 -74 54q0 20 21 55l112 176q43 70 111 70q54 0 114 -29q58 -30 58 -66q0 -35 -41 -73l-127 -119q-71 -68 -174 -68zM186 1206q-73 0 -73 54q0 22 20 55l113 176q43 70 110 70q55 0 115 -29q57 -29 57 -66q0 -35 -41 -73l-127 -119q-71 -68 -174 -68z" />
    <glyph glyph-name="gravecomb" unicode="&#x300;" horiz-adv-x="0" 
d="M-354 1206q-107 0 -178 68l-127 119q-41 38 -41 73q0 36 59 66q60 29 115 29q73 0 116 -70l113 -176q21 -35 21 -55q0 -54 -78 -54z" />
    <glyph glyph-name="acutecomb" unicode="&#x301;" horiz-adv-x="0" 
d="M-592 1206q-78 0 -78 54q0 20 21 55l112 176q43 70 117 70q55 0 115 -29q59 -30 59 -66q0 -35 -41 -73l-127 -119q-71 -68 -178 -68z" />
    <glyph glyph-name="tildecomb" unicode="&#x303;" horiz-adv-x="0" 
d="M-588 1239q-27 -47 -80 -47q-36 0 -63 27q-29 26 -29 57q0 25 10 55q77 201 230 201q73 0 174 -39q103 -41 133 -41q61 0 96 59q28 48 80 48q39 0 66 -27q26 -23 26 -57q0 -26 -10 -56q-77 -200 -229 -200q-68 0 -174 41q-96 38 -134 38q-61 0 -96 -59z" />
    <glyph glyph-name="hookabovecomb" unicode="&#x309;" horiz-adv-x="1114" 
d="M539 1190h-9q-64 0 -73 65l-8 58q-12 75 63 84q78 9 78 41q0 28 -45 28q-43 0 -76 -26q-27 -21 -55 -21q-37 0 -64 27q-24 27 -24 61q0 45 32 70q77 65 189 65q104 0 164 -51q65 -56 65 -149v-2q0 -157 -166 -191l2 6q-9 -65 -73 -65z" />
    <glyph glyph-name="uni031B" unicode="&#x31b;" horiz-adv-x="1474" 
d="M1126 655q0 -56 -32 -116q-82 -193 -359 -193v250q132 0 144 152q43 49 106 49q59 0 100 -41t41 -101z" />
    <glyph glyph-name="dotbelowcomb" unicode="&#x323;" horiz-adv-x="0" 
d="M-559 -276v4q0 72 53 125q52 49 125 49q75 0 127 -49q51 -51 51 -125v-4q0 -75 -51 -123q-52 -52 -127 -52q-73 0 -125 52q-53 50 -53 123z" />
    <glyph glyph-name="uni0326" unicode="&#x326;" 
d="M492 -356q-130 21 -130 123v2q0 53 41 88q40 34 107 34q71 0 115 -47q41 -47 41 -120v-7q0 -158 -105 -243q-84 -72 -196 -72q-66 0 -66 51q0 40 51 49q145 30 142 142z" />
    <glyph glyph-name="Wgrave" unicode="&#x1e80;" horiz-adv-x="2248" 
d="M483 106l-401 1127q-12 37 -12 59q0 64 47 111q46 43 114 43q120 0 154 -113l285 -878l286 870q40 125 160 125h25q119 0 159 -125l287 -870l285 878q37 113 151 113q65 0 111 -43q45 -45 45 -109q0 -24 -12 -61l-402 -1127q-47 -129 -163 -129h-33q-115 0 -162 129
l-283 822l-282 -822q-46 -129 -162 -129h-33q-117 0 -164 129zM1133 1534q-108 0 -179 68l-127 118q-41 38 -41 74q0 35 60 66q58 28 115 28q73 0 116 -69l113 -177q20 -33 20 -55q0 -53 -77 -53z" />
    <glyph glyph-name="wgrave" unicode="&#x1e81;" horiz-adv-x="1738" 
d="M524 -20h-10q-125 0 -172 139l-268 774q-15 44 -15 76q0 57 41 98q43 43 109 43q110 0 151 -121l168 -557l172 555q40 125 160 125h19q119 0 159 -125l174 -557l172 561q37 119 150 119q64 0 104 -43q41 -41 41 -100q0 -22 -10 -64l-276 -784q-47 -139 -172 -139h-11
q-124 0 -168 133l-174 553l-176 -553q-44 -133 -168 -133zM877 1206q-108 0 -179 68l-127 119q-41 38 -41 73t60 66q60 29 115 29q73 0 116 -70l113 -176q20 -33 20 -55q0 -54 -77 -54z" />
    <glyph glyph-name="Wacute" unicode="&#x1e82;" horiz-adv-x="2248" 
d="M483 106l-401 1127q-12 37 -12 59q0 64 47 111q46 43 114 43q120 0 154 -113l285 -878l286 870q40 125 160 125h25q119 0 159 -125l287 -870l285 878q37 113 151 113q65 0 111 -43q45 -45 45 -109q0 -24 -12 -61l-402 -1127q-47 -129 -163 -129h-33q-115 0 -162 129
l-283 822l-282 -822q-46 -129 -162 -129h-33q-117 0 -164 129zM1116 1534q-78 0 -78 53q0 21 21 55l112 177q43 69 117 69q57 0 115 -28q59 -30 59 -66t-41 -74l-127 -118q-71 -68 -178 -68z" />
    <glyph glyph-name="wacute" unicode="&#x1e83;" horiz-adv-x="1738" 
d="M524 -20h-10q-125 0 -172 139l-268 774q-15 44 -15 76q0 57 41 98q43 43 109 43q110 0 151 -121l168 -557l172 555q40 125 160 125h19q119 0 159 -125l174 -557l172 561q37 119 150 119q64 0 104 -43q41 -41 41 -100q0 -22 -10 -64l-276 -784q-47 -139 -172 -139h-11
q-124 0 -168 133l-174 553l-176 -553q-44 -133 -168 -133zM860 1206q-78 0 -78 54q0 20 21 55l112 176q43 70 117 70q55 0 115 -29q59 -30 59 -66q0 -35 -41 -73l-127 -119q-71 -68 -178 -68z" />
    <glyph glyph-name="Wdieresis" unicode="&#x1e84;" horiz-adv-x="2248" 
d="M483 106l-401 1127q-12 37 -12 59q0 64 47 111q46 43 114 43q120 0 154 -113l285 -878l286 870q40 125 160 125h25q119 0 159 -125l287 -870l285 878q37 113 151 113q65 0 111 -43q45 -45 45 -109q0 -24 -12 -61l-402 -1127q-47 -129 -163 -129h-33q-115 0 -162 129
l-283 822l-282 -822q-46 -129 -162 -129h-33q-117 0 -164 129zM1343 1837q68 0 115 -41q47 -44 47 -108v-5q0 -64 -47 -108q-47 -41 -115 -41q-67 0 -114 41q-47 44 -47 108v5q0 64 47 108q47 41 114 41zM905 1837q68 0 115 -41q47 -44 47 -108v-5q0 -64 -47 -108
q-47 -41 -115 -41q-67 0 -114 41q-48 45 -48 108v5q0 63 48 108q47 41 114 41z" />
    <glyph glyph-name="wdieresis" unicode="&#x1e85;" horiz-adv-x="1738" 
d="M524 -20h-10q-125 0 -172 139l-268 774q-15 44 -15 76q0 57 41 98q43 43 109 43q110 0 151 -121l168 -557l172 555q40 125 160 125h19q119 0 159 -125l174 -557l172 561q37 119 150 119q64 0 104 -43q41 -41 41 -100q0 -22 -10 -64l-276 -784q-47 -139 -172 -139h-11
q-124 0 -168 133l-174 553l-176 -553q-44 -133 -168 -133zM1087 1509q68 0 115 -41q47 -44 47 -108v-4q0 -65 -47 -109q-47 -41 -115 -41q-67 0 -114 41q-47 44 -47 109v4q0 64 47 108q47 41 114 41zM649 1509q68 0 115 -41q47 -44 47 -108v-4q0 -65 -47 -109
q-47 -41 -115 -41q-67 0 -114 41q-48 45 -48 109v4q0 63 48 108q47 41 114 41z" />
    <glyph glyph-name="uni1EA0" unicode="&#x1ea0;" horiz-adv-x="1568" 
d="M74 135q0 27 18 68l500 1128q55 125 184 125h19q127 0 182 -125l500 -1128q16 -40 16 -64q0 -63 -43 -106q-42 -45 -107 -45q-105 0 -151 108l-96 226h-631l-100 -236q-43 -98 -146 -98q-62 0 -102 43q-43 43 -43 104zM582 600h397l-199 473zM606 -276v4q0 72 53 125
q52 49 125 49q75 0 127 -49q52 -52 52 -125v-4q0 -74 -52 -123q-52 -52 -127 -52q-73 0 -125 52q-53 50 -53 123z" />
    <glyph glyph-name="uni1EA1" unicode="&#x1ea1;" horiz-adv-x="1212" 
d="M451 -20q-161 0 -267 86q-110 91 -110 249v4q0 177 123 265q118 86 319 86q140 0 268 -45v18q0 201 -235 201q-113 0 -215 -31q-21 -8 -45 -8q-52 0 -92 37q-37 37 -37 90q0 90 84 121q149 57 350 57q248 0 371 -123q118 -118 118 -350v-500q0 -64 -45 -106
q-43 -43 -106 -43q-65 0 -109 41q-41 38 -41 88v2q-127 -139 -331 -139zM545 195q108 0 176 53q67 55 67 139v55q-90 41 -198 41q-215 0 -215 -151v-4q0 -133 170 -133zM401 -276v4q0 71 54 125q52 49 125 49q75 0 127 -49q51 -51 51 -125v-4q0 -75 -51 -123
q-52 -52 -127 -52q-73 0 -125 52q-54 51 -54 123z" />
    <glyph glyph-name="uni1EA2" unicode="&#x1ea2;" horiz-adv-x="1568" 
d="M74 135q0 27 18 68l500 1128q55 125 184 125h19q127 0 182 -125l500 -1128q16 -40 16 -64q0 -63 -43 -106q-42 -45 -107 -45q-105 0 -151 108l-96 226h-631l-100 -236q-43 -98 -146 -98q-62 0 -102 43q-43 43 -43 104zM582 600h397l-199 473zM772 1526h-8q-65 0 -74 65
l-8 58q-12 75 63 84q78 9 78 41q0 28 -45 28q-43 0 -76 -26q-27 -21 -55 -21q-36 0 -63 27q-25 28 -25 61q0 44 33 70q77 65 188 65q104 0 164 -51q66 -57 66 -149v-2q0 -157 -166 -191l2 6q-9 -65 -74 -65z" />
    <glyph glyph-name="uni1EA3" unicode="&#x1ea3;" horiz-adv-x="1212" 
d="M451 -20q-161 0 -267 86q-110 91 -110 249v4q0 177 123 265q118 86 319 86q140 0 268 -45v18q0 201 -235 201q-113 0 -215 -31q-21 -8 -45 -8q-52 0 -92 37q-37 37 -37 90q0 90 84 121q149 57 350 57q248 0 371 -123q118 -118 118 -350v-500q0 -64 -45 -106
q-43 -43 -106 -43q-65 0 -109 41q-41 38 -41 88v2q-127 -139 -331 -139zM545 195q108 0 176 53q67 55 67 139v55q-90 41 -198 41q-215 0 -215 -151v-4q0 -133 170 -133zM567 1190h-8q-65 0 -74 65l-8 58q-12 75 64 84q77 9 77 41q0 28 -45 28q-42 0 -75 -26q-27 -21 -56 -21
q-36 0 -63 27q-25 28 -25 61q0 44 33 70q77 65 188 65q104 0 164 -51q66 -57 66 -149v-2q0 -157 -166 -191l2 6q-9 -65 -74 -65z" />
    <glyph glyph-name="uni1EA4" unicode="&#x1ea4;" horiz-adv-x="1568" 
d="M74 135q0 27 18 68l500 1128q55 125 184 125h19q127 0 182 -125l500 -1128q16 -40 16 -64q0 -63 -43 -106q-42 -45 -107 -45q-105 0 -151 108l-96 226h-631l-100 -236q-43 -98 -146 -98q-62 0 -102 43q-43 43 -43 104zM582 600h397l-199 473zM782 1702l-96 -80
q-83 -68 -188 -68q-68 0 -68 50q0 17 31 59l129 166q57 69 145 69h99q88 0 145 -69l129 -166q31 -42 31 -59q0 -50 -72 -50q-105 0 -188 68zM1128 1792q-77 0 -77 53q0 23 20 56l113 176q43 69 116 69q57 0 115 -28q60 -31 60 -66q0 -36 -41 -74l-127 -118q-71 -68 -179 -68
z" />
    <glyph glyph-name="uni1EA5" unicode="&#x1ea5;" horiz-adv-x="1212" 
d="M451 -20q-161 0 -267 86q-110 91 -110 249v4q0 177 123 265q118 86 319 86q140 0 268 -45v18q0 201 -235 201q-113 0 -215 -31q-21 -8 -45 -8q-52 0 -92 37q-37 37 -37 90q0 90 84 121q149 57 350 57q248 0 371 -123q118 -118 118 -350v-500q0 -64 -45 -106
q-43 -43 -106 -43q-65 0 -109 41q-41 38 -41 88v2q-127 -139 -331 -139zM545 195q108 0 176 53q67 55 67 139v55q-90 41 -198 41q-215 0 -215 -151v-4q0 -133 170 -133zM578 1354l-97 -80q-83 -68 -188 -68q-68 0 -68 49q0 18 31 60l129 166q57 69 145 69h99q88 0 145 -69
l129 -166q31 -42 31 -60q0 -49 -72 -49q-105 0 -188 68zM926 1468q-78 0 -78 54q0 22 20 55l113 176q43 70 117 70q54 0 114 -29q60 -31 60 -65q0 -36 -41 -74l-127 -119q-71 -68 -178 -68z" />
    <glyph glyph-name="uni1EA6" unicode="&#x1ea6;" horiz-adv-x="1568" 
d="M74 135q0 27 18 68l500 1128q55 125 184 125h19q127 0 182 -125l500 -1128q16 -40 16 -64q0 -63 -43 -106q-42 -45 -107 -45q-105 0 -151 108l-96 226h-631l-100 -236q-43 -98 -146 -98q-62 0 -102 43q-43 43 -43 104zM582 600h397l-199 473zM782 1702l-96 -80
q-83 -68 -188 -68q-68 0 -68 50q0 17 31 59l129 166q57 69 145 69h99q88 0 145 -69l129 -166q31 -42 31 -59q0 -50 -72 -50q-105 0 -188 68zM430 1769q-107 0 -178 68l-127 119q-41 38 -41 74q0 35 59 65q60 29 115 29q74 0 117 -70l112 -176q21 -34 21 -55q0 -54 -78 -54z
" />
    <glyph glyph-name="uni1EA7" unicode="&#x1ea7;" horiz-adv-x="1212" 
d="M451 -20q-161 0 -267 86q-110 91 -110 249v4q0 177 123 265q118 86 319 86q140 0 268 -45v18q0 201 -235 201q-113 0 -215 -31q-21 -8 -45 -8q-52 0 -92 37q-37 37 -37 90q0 90 84 121q149 57 350 57q248 0 371 -123q118 -118 118 -350v-500q0 -64 -45 -106
q-43 -43 -106 -43q-65 0 -109 41q-41 38 -41 88v2q-127 -139 -331 -139zM545 195q108 0 176 53q67 55 67 139v55q-90 41 -198 41q-215 0 -215 -151v-4q0 -133 170 -133zM578 1354l-97 -80q-83 -68 -188 -68q-68 0 -68 49q0 18 31 60l129 166q57 69 145 69h99q88 0 145 -69
l129 -166q31 -42 31 -60q0 -49 -72 -49q-105 0 -188 68zM238 1481q-109 0 -179 67l-127 119q-41 38 -41 74q0 34 60 65q60 29 115 29q73 0 116 -70l113 -176q20 -33 20 -55q0 -53 -77 -53z" />
    <glyph glyph-name="uni1EA8" unicode="&#x1ea8;" horiz-adv-x="1568" 
d="M74 135q0 27 18 68l500 1128q55 125 184 125h19q127 0 182 -125l500 -1128q16 -40 16 -64q0 -63 -43 -106q-42 -45 -107 -45q-105 0 -151 108l-96 226h-631l-100 -236q-43 -98 -146 -98q-62 0 -102 43q-43 43 -43 104zM582 600h397l-199 473zM782 1706l-96 -80
q-82 -67 -188 -67q-68 0 -68 49q0 17 31 59l129 166q58 70 145 70h99q87 0 145 -70l129 -166q31 -42 31 -59q0 -49 -72 -49q-106 0 -188 67zM1145 1763h-8q-65 0 -74 66l-8 57q-12 75 63 84q78 9 78 41q0 29 -45 29q-41 0 -76 -27q-26 -20 -55 -20q-38 0 -64 26
q-24 27 -24 62q0 43 33 69q78 66 188 66q104 0 164 -51q65 -56 65 -150v-2q0 -156 -165 -190l2 6q-9 -66 -74 -66z" />
    <glyph glyph-name="uni1EA9" unicode="&#x1ea9;" horiz-adv-x="1212" 
d="M451 -20q-161 0 -267 86q-110 91 -110 249v4q0 177 123 265q118 86 319 86q140 0 268 -45v18q0 201 -235 201q-113 0 -215 -31q-21 -8 -45 -8q-52 0 -92 37q-37 37 -37 90q0 90 84 121q149 57 350 57q248 0 371 -123q118 -118 118 -350v-500q0 -64 -45 -106
q-43 -43 -106 -43q-65 0 -109 41q-41 38 -41 88v2q-127 -139 -331 -139zM545 195q108 0 176 53q67 55 67 139v55q-90 41 -198 41q-215 0 -215 -151v-4q0 -133 170 -133zM578 1354l-97 -80q-83 -68 -188 -68q-68 0 -68 49q0 18 31 60l129 166q57 69 145 69h99q88 0 145 -69
l129 -166q31 -42 31 -60q0 -49 -72 -49q-105 0 -188 68zM936 1462h-8q-65 0 -74 66l-8 57q-12 75 63 84q78 9 78 41q0 29 -45 29q-42 0 -76 -27q-26 -20 -55 -20q-37 0 -63 26q-25 28 -25 62q0 43 33 69q78 66 188 66q104 0 164 -51q66 -57 66 -150v-2q0 -156 -166 -190l2 6
q-9 -66 -74 -66z" />
    <glyph glyph-name="uni1EAA" unicode="&#x1eaa;" horiz-adv-x="1568" 
d="M74 135q0 27 18 68l500 1128q55 125 184 125h19q127 0 182 -125l500 -1128q16 -40 16 -64q0 -63 -43 -106q-42 -45 -107 -45q-105 0 -151 108l-96 226h-631l-100 -236q-43 -98 -146 -98q-62 0 -102 43q-43 43 -43 104zM582 600h397l-199 473zM782 1702l-96 -80
q-83 -68 -188 -68q-68 0 -68 50q0 17 31 59l129 166q57 69 145 69h99q88 0 145 -69l129 -166q31 -42 31 -59q0 -50 -72 -50q-105 0 -188 68zM588 1954q-27 -47 -80 -47q-38 0 -64 26q-28 25 -28 58q0 25 10 55q77 201 229 201q73 0 174 -39q103 -41 134 -41q61 0 96 59
q27 47 80 47q39 0 65 -26q27 -24 27 -58q0 -25 -10 -55q-77 -201 -230 -201q-68 0 -174 41q-98 39 -133 39q-61 0 -96 -59z" />
    <glyph glyph-name="uni1EAB" unicode="&#x1eab;" horiz-adv-x="1212" 
d="M451 -20q-161 0 -267 86q-110 91 -110 249v4q0 177 123 265q118 86 319 86q140 0 268 -45v18q0 201 -235 201q-113 0 -215 -31q-21 -8 -45 -8q-52 0 -92 37q-37 37 -37 90q0 90 84 121q149 57 350 57q248 0 371 -123q118 -118 118 -350v-500q0 -64 -45 -106
q-43 -43 -106 -43q-65 0 -109 41q-41 38 -41 88v2q-127 -139 -331 -139zM545 195q108 0 176 53q67 55 67 139v55q-90 41 -198 41q-215 0 -215 -151v-4q0 -133 170 -133zM578 1354l-97 -80q-83 -68 -188 -68q-68 0 -68 49q0 18 31 60l129 166q57 69 145 69h99q88 0 145 -69
l129 -166q31 -42 31 -60q0 -49 -72 -49q-105 0 -188 68zM410 1604q-28 -48 -80 -48q-37 0 -64 27q-28 25 -28 57q0 26 10 56q77 200 229 200q75 0 174 -38q103 -41 133 -41q62 0 97 59q27 47 80 47q38 0 65 -27q27 -24 27 -57q0 -22 -11 -55q-77 -201 -229 -201
q-68 0 -174 41q-98 39 -133 39q-61 0 -96 -59z" />
    <glyph glyph-name="uni1EAC" unicode="&#x1eac;" horiz-adv-x="1568" 
d="M74 135q0 27 18 68l500 1128q55 125 184 125h19q127 0 182 -125l500 -1128q16 -40 16 -64q0 -63 -43 -106q-42 -45 -107 -45q-105 0 -151 108l-96 226h-631l-100 -236q-43 -98 -146 -98q-62 0 -102 43q-43 43 -43 104zM582 600h397l-199 473zM782 1690l-96 -80
q-83 -68 -188 -68q-68 0 -68 49q0 18 31 60l129 166q57 69 145 69h99q88 0 145 -69l129 -166q31 -42 31 -60q0 -49 -72 -49q-105 0 -188 68zM606 -276v4q0 72 53 125q52 49 125 49q75 0 127 -49q52 -52 52 -125v-4q0 -74 -52 -123q-52 -52 -127 -52q-73 0 -125 52
q-53 50 -53 123z" />
    <glyph glyph-name="uni1EAD" unicode="&#x1ead;" horiz-adv-x="1212" 
d="M451 -20q-161 0 -267 86q-110 91 -110 249v4q0 177 123 265q118 86 319 86q140 0 268 -45v18q0 201 -235 201q-113 0 -215 -31q-21 -8 -45 -8q-52 0 -92 37q-37 37 -37 90q0 90 84 121q149 57 350 57q248 0 371 -123q118 -118 118 -350v-500q0 -64 -45 -106
q-43 -43 -106 -43q-65 0 -109 41q-41 38 -41 88v2q-127 -139 -331 -139zM545 195q108 0 176 53q67 55 67 139v55q-90 41 -198 41q-215 0 -215 -151v-4q0 -133 170 -133zM578 1354l-97 -80q-83 -68 -188 -68q-68 0 -68 49q0 18 31 60l129 166q57 69 145 69h99q88 0 145 -69
l129 -166q31 -42 31 -60q0 -49 -72 -49q-105 0 -188 68zM401 -276v4q0 71 54 125q52 49 125 49q75 0 127 -49q51 -51 51 -125v-4q0 -75 -51 -123q-52 -52 -127 -52q-73 0 -125 52q-54 51 -54 123z" />
    <glyph glyph-name="uni1EAE" unicode="&#x1eae;" horiz-adv-x="1568" 
d="M74 135q0 27 18 68l500 1128q55 125 184 125h19q127 0 182 -125l500 -1128q16 -40 16 -64q0 -63 -43 -106q-42 -45 -107 -45q-105 0 -151 108l-96 226h-631l-100 -236q-43 -98 -146 -98q-62 0 -102 43q-43 43 -43 104zM582 600h397l-199 473zM784 1556q-243 0 -342 175
q-14 25 -14 57q0 45 31 76q30 30 76 30q57 0 92 -53q52 -82 157 -82q106 0 158 82q35 53 92 53q46 0 76 -30q31 -31 31 -76q0 -30 -15 -57q-99 -175 -342 -175zM780 1921q-78 0 -78 53q0 22 21 56l113 176q43 69 116 69q57 0 115 -28q59 -30 59 -66t-41 -74l-127 -118
q-71 -68 -178 -68z" />
    <glyph glyph-name="uni1EAF" unicode="&#x1eaf;" horiz-adv-x="1212" 
d="M451 -20q-161 0 -267 86q-110 91 -110 249v4q0 177 123 265q118 86 319 86q140 0 268 -45v18q0 201 -235 201q-113 0 -215 -31q-21 -8 -45 -8q-52 0 -92 37q-37 37 -37 90q0 90 84 121q149 57 350 57q248 0 371 -123q118 -118 118 -350v-500q0 -64 -45 -106
q-43 -43 -106 -43q-65 0 -109 41q-41 38 -41 88v2q-127 -139 -331 -139zM545 195q108 0 176 53q67 55 67 139v55q-90 41 -198 41q-215 0 -215 -151v-4q0 -133 170 -133zM580 1214q-243 0 -342 175q-15 27 -15 57q0 45 31 76q30 30 76 30q57 0 92 -53q52 -82 158 -82
q105 0 157 82q35 53 92 53q46 0 76 -30q31 -31 31 -76q0 -32 -14 -57q-99 -175 -342 -175zM516 1640q-78 0 -78 54q0 20 21 55l112 176q43 70 117 70q55 0 115 -29q59 -30 59 -65q0 -36 -41 -74l-127 -119q-71 -68 -178 -68z" />
    <glyph glyph-name="uni1EB0" unicode="&#x1eb0;" horiz-adv-x="1568" 
d="M74 135q0 27 18 68l500 1128q55 125 184 125h19q127 0 182 -125l500 -1128q16 -40 16 -64q0 -63 -43 -106q-42 -45 -107 -45q-105 0 -151 108l-96 226h-631l-100 -236q-43 -98 -146 -98q-62 0 -102 43q-43 43 -43 104zM582 600h397l-199 473zM784 1559q-244 0 -342 174
q-14 25 -14 57q0 45 31 76q30 30 76 30q57 0 92 -53q52 -82 157 -82q106 0 158 82q35 53 92 53q46 0 76 -30q31 -31 31 -76q0 -30 -15 -57q-98 -174 -342 -174zM748 1907q-109 0 -179 67l-127 119q-41 38 -41 74q0 34 60 65q60 29 114 29q74 0 117 -70l113 -176
q20 -33 20 -55q0 -53 -77 -53z" />
    <glyph glyph-name="uni1EB1" unicode="&#x1eb1;" horiz-adv-x="1212" 
d="M451 -20q-161 0 -267 86q-110 91 -110 249v4q0 177 123 265q118 86 319 86q140 0 268 -45v18q0 201 -235 201q-113 0 -215 -31q-21 -8 -45 -8q-52 0 -92 37q-37 37 -37 90q0 90 84 121q149 57 350 57q248 0 371 -123q118 -118 118 -350v-500q0 -64 -45 -106
q-43 -43 -106 -43q-65 0 -109 41q-41 38 -41 88v2q-127 -139 -331 -139zM545 195q108 0 176 53q67 55 67 139v55q-90 41 -198 41q-215 0 -215 -151v-4q0 -133 170 -133zM580 1214q-243 0 -342 175q-15 27 -15 57q0 45 31 76q30 30 76 30q57 0 92 -53q52 -82 158 -82
q105 0 157 82q35 53 92 53q46 0 76 -30q31 -31 31 -76q0 -32 -14 -57q-99 -175 -342 -175zM641 1640q-107 0 -178 68l-127 119q-41 38 -41 74q0 35 59 65q60 29 115 29q74 0 117 -70l112 -176q21 -35 21 -55q0 -54 -78 -54z" />
    <glyph glyph-name="uni1EB2" unicode="&#x1eb2;" horiz-adv-x="1568" 
d="M74 135q0 27 18 68l500 1128q55 125 184 125h19q127 0 182 -125l500 -1128q16 -40 16 -64q0 -63 -43 -106q-42 -45 -107 -45q-105 0 -151 108l-96 226h-631l-100 -236q-43 -98 -146 -98q-62 0 -102 43q-43 43 -43 104zM582 600h397l-199 473zM784 1559q-244 0 -342 174
q-14 25 -14 57q0 45 31 76q30 30 76 30q57 0 92 -53q52 -82 157 -82q106 0 158 82q35 53 92 53q46 0 76 -30q31 -31 31 -76q0 -30 -15 -57q-98 -174 -342 -174zM772 1886h-8q-65 0 -74 49l-8 43q-12 55 63 64q78 6 78 31q0 20 -45 20q-43 0 -76 -20q-27 -15 -55 -15
q-36 0 -63 21q-25 19 -25 45q0 33 33 53q76 49 188 49q100 0 164 -39q66 -45 66 -112v-2q0 -118 -166 -142l2 4q-9 -49 -74 -49z" />
    <glyph glyph-name="uni1EB3" unicode="&#x1eb3;" horiz-adv-x="1212" 
d="M451 -20q-161 0 -267 86q-110 91 -110 249v4q0 177 123 265q118 86 319 86q140 0 268 -45v18q0 201 -235 201q-113 0 -215 -31q-21 -8 -45 -8q-52 0 -92 37q-37 37 -37 90q0 90 84 121q149 57 350 57q248 0 371 -123q118 -118 118 -350v-500q0 -64 -45 -106
q-43 -43 -106 -43q-65 0 -109 41q-41 38 -41 88v2q-127 -139 -331 -139zM545 195q108 0 176 53q67 55 67 139v55q-90 41 -198 41q-215 0 -215 -151v-4q0 -133 170 -133zM580 1214q-243 0 -342 175q-15 27 -15 57q0 45 31 76q30 30 76 30q57 0 92 -53q52 -82 158 -82
q105 0 157 82q35 53 92 53q46 0 76 -30q31 -31 31 -76q0 -32 -14 -57q-99 -175 -342 -175zM567 1665h-8q-65 0 -74 66l-8 57q-12 75 64 84q77 9 77 41q0 29 -45 29q-41 0 -75 -27q-27 -21 -56 -21q-36 0 -63 27q-25 28 -25 61q0 44 33 70q78 66 188 66q103 0 164 -52
q66 -57 66 -149v-2q0 -157 -166 -191l2 7q-9 -66 -74 -66z" />
    <glyph glyph-name="uni1EB4" unicode="&#x1eb4;" horiz-adv-x="1568" 
d="M74 135q0 27 18 68l500 1128q55 125 184 125h19q127 0 182 -125l500 -1128q16 -40 16 -64q0 -63 -43 -106q-42 -45 -107 -45q-105 0 -151 108l-96 226h-631l-100 -236q-43 -98 -146 -98q-62 0 -102 43q-43 43 -43 104zM582 600h397l-199 473zM784 1559q-244 0 -342 174
q-14 25 -14 57q0 45 31 76q30 30 76 30q57 0 92 -53q52 -82 157 -82q106 0 158 82q35 53 92 53q46 0 76 -30q31 -31 31 -76q0 -30 -15 -57q-98 -174 -342 -174zM582 1960q-27 -47 -80 -47q-38 0 -64 26q-28 25 -28 58q0 25 10 55q77 201 229 201q73 0 174 -39
q103 -41 133 -41q62 0 97 59q27 47 80 47q39 0 65 -26q27 -24 27 -58q0 -22 -11 -55q-77 -201 -229 -201q-68 0 -174 41q-98 39 -133 39q-61 0 -96 -59z" />
    <glyph glyph-name="uni1EB5" unicode="&#x1eb5;" horiz-adv-x="1212" 
d="M451 -20q-161 0 -267 86q-110 91 -110 249v4q0 177 123 265q118 86 319 86q140 0 268 -45v18q0 201 -235 201q-113 0 -215 -31q-21 -8 -45 -8q-52 0 -92 37q-37 37 -37 90q0 90 84 121q149 57 350 57q248 0 371 -123q118 -118 118 -350v-500q0 -64 -45 -106
q-43 -43 -106 -43q-65 0 -109 41q-41 38 -41 88v2q-127 -139 -331 -139zM545 195q108 0 176 53q67 55 67 139v55q-90 41 -198 41q-215 0 -215 -151v-4q0 -133 170 -133zM580 1214q-243 0 -342 175q-15 27 -15 57q0 45 31 76q30 30 76 30q57 0 92 -53q52 -82 158 -82
q105 0 157 82q35 53 92 53q46 0 76 -30q31 -31 31 -76q0 -32 -14 -57q-99 -175 -342 -175zM344 1692q-27 -47 -80 -47q-37 0 -63 26q-29 26 -29 58q0 25 10 55q77 201 230 201q73 0 174 -39q103 -41 133 -41q61 0 96 59q27 47 80 47q40 0 66 -26q26 -23 26 -58
q0 -25 -10 -55q-77 -201 -229 -201q-69 0 -175 41q-98 39 -133 39q-61 0 -96 -59z" />
    <glyph glyph-name="uni1EB6" unicode="&#x1eb6;" horiz-adv-x="1568" 
d="M74 135q0 27 18 68l500 1128q55 125 184 125h19q127 0 182 -125l500 -1128q16 -40 16 -64q0 -63 -43 -106q-42 -45 -107 -45q-105 0 -151 108l-96 226h-631l-100 -236q-43 -98 -146 -98q-62 0 -102 43q-43 43 -43 104zM582 600h397l-199 473zM784 1550q-244 0 -342 174
q-14 25 -14 58q0 45 31 76q30 30 76 30q57 0 92 -53q52 -82 157 -82q106 0 158 82q35 53 92 53q46 0 76 -30q31 -31 31 -76q0 -31 -15 -58q-98 -174 -342 -174zM606 -276v4q0 72 53 125q52 49 125 49q75 0 127 -49q52 -52 52 -125v-4q0 -74 -52 -123q-52 -52 -127 -52
q-73 0 -125 52q-53 50 -53 123z" />
    <glyph glyph-name="uni1EB7" unicode="&#x1eb7;" horiz-adv-x="1212" 
d="M451 -20q-161 0 -267 86q-110 91 -110 249v4q0 177 123 265q118 86 319 86q140 0 268 -45v18q0 201 -235 201q-113 0 -215 -31q-21 -8 -45 -8q-52 0 -92 37q-37 37 -37 90q0 90 84 121q149 57 350 57q248 0 371 -123q118 -118 118 -350v-500q0 -64 -45 -106
q-43 -43 -106 -43q-65 0 -109 41q-41 38 -41 88v2q-127 -139 -331 -139zM545 195q108 0 176 53q67 55 67 139v55q-90 41 -198 41q-215 0 -215 -151v-4q0 -133 170 -133zM580 1214q-243 0 -342 175q-15 27 -15 57q0 45 31 76q30 30 76 30q57 0 92 -53q52 -82 158 -82
q105 0 157 82q35 53 92 53q46 0 76 -30q31 -31 31 -76q0 -32 -14 -57q-99 -175 -342 -175zM401 -276v4q0 71 54 125q52 49 125 49q75 0 127 -49q51 -51 51 -125v-4q0 -75 -51 -123q-52 -52 -127 -52q-73 0 -125 52q-54 51 -54 123z" />
    <glyph glyph-name="uni1EB8" unicode="&#x1eb8;" horiz-adv-x="1372" 
d="M1135 0h-805q-68 0 -113 45t-45 113v1118q0 68 45 113t113 45h794q60 0 101 -41t41 -101q0 -57 -41 -98t-101 -41h-639v-291h547q60 0 101 -41t41 -100q0 -57 -41 -98t-101 -41h-547v-301h650q59 0 100 -41t41 -101q0 -57 -41 -98t-100 -41zM547 -276v4q0 72 53 125
q52 49 125 49q75 0 127 -49q51 -51 51 -125v-4q0 -75 -51 -123q-52 -52 -127 -52q-73 0 -125 52q-53 50 -53 123z" />
    <glyph glyph-name="uni1EB9" unicode="&#x1eb9;" horiz-adv-x="1255" 
d="M391 635h469q-30 233 -231 233q-198 0 -238 -233zM1040 109q-158 -134 -381 -134q-248 0 -409 158q-164 159 -164 410v4q0 237 152 403q155 168 391 168q251 0 401 -178q127 -154 127 -350q0 -65 -41 -109q-41 -41 -104 -41h-617q47 -215 269 -215q118 0 221 74
q36 25 76 25q51 0 86 -35q34 -34 34 -88t-41 -92zM444 -276v4q0 71 54 125q52 49 125 49q75 0 127 -49q51 -51 51 -125v-4q0 -75 -51 -123q-52 -52 -127 -52q-73 0 -125 52q-54 51 -54 123z" />
    <glyph glyph-name="uni1EBA" unicode="&#x1eba;" horiz-adv-x="1372" 
d="M1135 0h-805q-68 0 -113 45t-45 113v1118q0 68 45 113t113 45h794q60 0 101 -41t41 -101q0 -57 -41 -98t-101 -41h-639v-291h547q60 0 101 -41t41 -100q0 -57 -41 -98t-101 -41h-547v-301h650q59 0 100 -41t41 -101q0 -57 -41 -98t-100 -41zM713 1526h-8q-65 0 -74 65
l-8 58q-12 75 63 84q78 9 78 41q0 28 -45 28q-43 0 -76 -26q-27 -21 -55 -21q-37 0 -64 27q-24 27 -24 61q0 45 32 70q77 65 189 65q104 0 164 -51q65 -56 65 -149v-2q0 -157 -166 -191l2 6q-9 -65 -73 -65z" />
    <glyph glyph-name="uni1EBB" unicode="&#x1ebb;" horiz-adv-x="1255" 
d="M391 635h469q-30 233 -231 233q-198 0 -238 -233zM1040 109q-158 -134 -381 -134q-248 0 -409 158q-164 159 -164 410v4q0 237 152 403q155 168 391 168q251 0 401 -178q127 -154 127 -350q0 -65 -41 -109q-41 -41 -104 -41h-617q47 -215 269 -215q118 0 221 74
q36 25 76 25q51 0 86 -35q34 -34 34 -88t-41 -92zM610 1190h-8q-65 0 -74 65l-8 58q-12 75 64 84q78 9 78 41q0 28 -46 28q-42 0 -75 -26q-27 -21 -56 -21q-36 0 -63 27q-25 28 -25 61q0 44 33 70q77 65 188 65q104 0 164 -51q66 -57 66 -149v-2q0 -157 -166 -191l2 6
q-9 -65 -74 -65z" />
    <glyph glyph-name="uni1EBC" unicode="&#x1ebc;" horiz-adv-x="1372" 
d="M1135 0h-805q-68 0 -113 45t-45 113v1118q0 68 45 113t113 45h794q60 0 101 -41t41 -101q0 -57 -41 -98t-101 -41h-639v-291h547q60 0 101 -41t41 -100q0 -57 -41 -98t-101 -41h-547v-301h650q59 0 100 -41t41 -101q0 -57 -41 -98t-100 -41zM489 1575q-27 -47 -79 -47
q-38 0 -64 26q-29 26 -29 58q0 22 11 55q77 201 229 201q73 0 174 -39q103 -41 133 -41q62 0 97 59q27 47 79 47q40 0 66 -26q27 -24 27 -58q0 -22 -11 -55q-77 -201 -229 -201q-68 0 -174 41q-98 39 -133 39q-62 0 -97 -59z" />
    <glyph glyph-name="uni1EBD" unicode="&#x1ebd;" horiz-adv-x="1255" 
d="M391 635h469q-30 233 -231 233q-198 0 -238 -233zM1040 109q-158 -134 -381 -134q-248 0 -409 158q-164 159 -164 410v4q0 237 152 403q155 168 391 168q251 0 401 -178q127 -154 127 -350q0 -65 -41 -109q-41 -41 -104 -41h-617q47 -215 269 -215q118 0 221 74
q36 25 76 25q51 0 86 -35q34 -34 34 -88t-41 -92zM387 1239q-27 -47 -80 -47q-36 0 -63 27q-29 26 -29 57q0 25 10 55q77 201 230 201q73 0 174 -39q103 -41 133 -41q61 0 96 59q28 48 80 48q39 0 66 -27q26 -23 26 -57q0 -26 -10 -56q-77 -200 -229 -200q-69 0 -175 41
q-96 38 -133 38q-61 0 -96 -59z" />
    <glyph glyph-name="uni1EBE" unicode="&#x1ebe;" horiz-adv-x="1372" 
d="M1135 0h-805q-68 0 -113 45t-45 113v1118q0 68 45 113t113 45h794q60 0 101 -41t41 -101q0 -57 -41 -98t-101 -41h-639v-291h547q60 0 101 -41t41 -100q0 -57 -41 -98t-101 -41h-547v-301h650q59 0 100 -41t41 -101q0 -57 -41 -98t-100 -41zM723 1702l-96 -80
q-83 -68 -189 -68q-67 0 -67 50q0 18 30 59l129 166q57 69 146 69h98q89 0 146 -69l129 -166q30 -41 30 -59q0 -50 -71 -50q-106 0 -189 68zM1069 1792q-78 0 -78 53q0 21 21 56l112 176q43 69 117 69q57 0 115 -28q59 -30 59 -66t-41 -74l-127 -118q-71 -68 -178 -68z" />
    <glyph glyph-name="uni1EBF" unicode="&#x1ebf;" horiz-adv-x="1255" 
d="M391 635h469q-30 233 -231 233q-198 0 -238 -233zM1040 109q-158 -134 -381 -134q-248 0 -409 158q-164 159 -164 410v4q0 237 152 403q155 168 391 168q251 0 401 -178q127 -154 127 -350q0 -65 -41 -109q-41 -41 -104 -41h-617q47 -215 269 -215q118 0 221 74
q36 25 76 25q51 0 86 -35q34 -34 34 -88t-41 -92zM621 1354l-97 -80q-83 -68 -188 -68q-68 0 -68 49q0 18 31 60l129 166q57 69 145 69h99q88 0 145 -69l129 -166q31 -42 31 -60q0 -49 -72 -49q-105 0 -188 68zM999 1442q-77 0 -77 53q0 22 20 55l113 176q43 70 116 70
q55 0 115 -29q60 -31 60 -65q0 -36 -41 -74l-127 -119q-70 -67 -179 -67z" />
    <glyph glyph-name="uni1EC0" unicode="&#x1ec0;" horiz-adv-x="1372" 
d="M1135 0h-805q-68 0 -113 45t-45 113v1118q0 68 45 113t113 45h794q60 0 101 -41t41 -101q0 -57 -41 -98t-101 -41h-639v-291h547q60 0 101 -41t41 -100q0 -57 -41 -98t-101 -41h-547v-301h650q59 0 100 -41t41 -101q0 -57 -41 -98t-100 -41zM723 1702l-96 -80
q-83 -68 -189 -68q-67 0 -67 50q0 18 30 59l129 166q57 69 146 69h98q89 0 146 -69l129 -166q30 -41 30 -59q0 -50 -71 -50q-106 0 -189 68zM371 1769q-107 0 -178 68l-127 119q-41 38 -41 74q0 35 59 65q60 29 115 29q73 0 116 -70l113 -176q21 -34 21 -55q0 -54 -78 -54z
" />
    <glyph glyph-name="uni1EC1" unicode="&#x1ec1;" horiz-adv-x="1255" 
d="M391 635h469q-30 233 -231 233q-198 0 -238 -233zM1040 109q-158 -134 -381 -134q-248 0 -409 158q-164 159 -164 410v4q0 237 152 403q155 168 391 168q251 0 401 -178q127 -154 127 -350q0 -65 -41 -109q-41 -41 -104 -41h-617q47 -215 269 -215q118 0 221 74
q36 25 76 25q51 0 86 -35q34 -34 34 -88t-41 -92zM621 1354l-97 -80q-83 -68 -188 -68q-68 0 -68 49q0 18 31 60l129 166q57 69 145 69h99q88 0 145 -69l129 -166q31 -42 31 -60q0 -49 -72 -49q-105 0 -188 68zM276 1458q-107 0 -178 68l-127 119q-41 38 -41 73t60 66
q58 28 114 28q74 0 117 -69l113 -176q20 -33 20 -56q0 -53 -78 -53z" />
    <glyph glyph-name="uni1EC2" unicode="&#x1ec2;" horiz-adv-x="1372" 
d="M1135 0h-805q-68 0 -113 45t-45 113v1118q0 68 45 113t113 45h794q60 0 101 -41t41 -101q0 -57 -41 -98t-101 -41h-639v-291h547q60 0 101 -41t41 -100q0 -57 -41 -98t-101 -41h-547v-301h650q59 0 100 -41t41 -101q0 -57 -41 -98t-100 -41zM723 1706l-96 -80
q-82 -67 -189 -67q-67 0 -67 49q0 18 30 59l129 166q58 70 146 70h98q88 0 146 -70l129 -166q30 -41 30 -59q0 -49 -71 -49q-107 0 -189 67zM1085 1763h-8q-64 0 -73 66l-9 57q-12 75 64 84q78 9 78 41q0 29 -45 29q-42 0 -76 -27q-26 -20 -55 -20q-38 0 -64 26
q-25 28 -25 62q0 43 33 69q78 66 189 66q103 0 163 -51q66 -57 66 -150v-2q0 -156 -166 -190l2 6q-9 -66 -74 -66z" />
    <glyph glyph-name="uni1EC3" unicode="&#x1ec3;" horiz-adv-x="1255" 
d="M391 635h469q-30 233 -231 233q-198 0 -238 -233zM1040 109q-158 -134 -381 -134q-248 0 -409 158q-164 159 -164 410v4q0 237 152 403q155 168 391 168q251 0 401 -178q127 -154 127 -350q0 -65 -41 -109q-41 -41 -104 -41h-617q47 -215 269 -215q118 0 221 74
q36 25 76 25q51 0 86 -35q34 -34 34 -88t-41 -92zM621 1354l-97 -80q-83 -68 -188 -68q-68 0 -68 49q0 18 31 60l129 166q57 69 145 69h99q88 0 145 -69l129 -166q31 -42 31 -60q0 -49 -72 -49q-105 0 -188 68zM989 1446h-8q-65 0 -74 65l-8 58q-12 75 64 84q77 9 77 41
q0 28 -45 28q-42 0 -75 -26q-27 -21 -56 -21q-36 0 -63 27q-25 28 -25 61q0 44 33 70q77 65 188 65q104 0 164 -51q66 -57 66 -149v-2q0 -157 -166 -191l2 6q-9 -65 -74 -65z" />
    <glyph glyph-name="uni1EC4" unicode="&#x1ec4;" horiz-adv-x="1372" 
d="M1135 0h-805q-68 0 -113 45t-45 113v1118q0 68 45 113t113 45h794q60 0 101 -41t41 -101q0 -57 -41 -98t-101 -41h-639v-291h547q60 0 101 -41t41 -100q0 -57 -41 -98t-101 -41h-547v-301h650q59 0 100 -41t41 -101q0 -57 -41 -98t-100 -41zM723 1702l-96 -80
q-83 -68 -189 -68q-67 0 -67 50q0 18 30 59l129 166q57 69 146 69h98q89 0 146 -69l129 -166q30 -41 30 -59q0 -50 -71 -50q-106 0 -189 68zM528 1954q-27 -47 -79 -47q-38 0 -64 26q-29 26 -29 58q0 22 11 55q77 201 229 201q73 0 174 -39q103 -41 133 -41q61 0 96 59
q27 47 80 47q40 0 66 -26q26 -23 26 -58q0 -25 -10 -55q-77 -201 -229 -201q-68 0 -174 41q-98 39 -133 39q-62 0 -97 -59z" />
    <glyph glyph-name="uni1EC5" unicode="&#x1ec5;" horiz-adv-x="1255" 
d="M391 635h469q-30 233 -231 233q-198 0 -238 -233zM1040 109q-158 -134 -381 -134q-248 0 -409 158q-164 159 -164 410v4q0 237 152 403q155 168 391 168q251 0 401 -178q127 -154 127 -350q0 -65 -41 -109q-41 -41 -104 -41h-617q47 -215 269 -215q118 0 221 74
q36 25 76 25q51 0 86 -35q34 -34 34 -88t-41 -92zM621 1354l-97 -80q-83 -68 -188 -68q-68 0 -68 49q0 18 31 60l129 166q57 69 145 69h99q88 0 145 -69l129 -166q31 -42 31 -60q0 -49 -72 -49q-105 0 -188 68zM387 1690q-28 -48 -80 -48q-36 0 -63 27q-29 26 -29 57
q0 26 10 56q77 200 230 200q75 0 174 -38q103 -41 133 -41q61 0 96 59q27 47 80 47q39 0 66 -27q26 -23 26 -57q0 -25 -10 -55q-77 -201 -229 -201q-69 0 -175 41q-98 39 -133 39q-61 0 -96 -59z" />
    <glyph glyph-name="uni1EC6" unicode="&#x1ec6;" horiz-adv-x="1372" 
d="M1135 0h-805q-68 0 -113 45t-45 113v1118q0 68 45 113t113 45h794q60 0 101 -41t41 -101q0 -57 -41 -98t-101 -41h-639v-291h547q60 0 101 -41t41 -100q0 -57 -41 -98t-101 -41h-547v-301h650q59 0 100 -41t41 -101q0 -57 -41 -98t-100 -41zM723 1690l-96 -80
q-83 -68 -189 -68q-67 0 -67 49q0 19 30 60l129 166q57 69 146 69h98q89 0 146 -69l129 -166q30 -41 30 -60q0 -49 -71 -49q-106 0 -189 68zM547 -276v4q0 72 53 125q52 49 125 49q75 0 127 -49q51 -51 51 -125v-4q0 -75 -51 -123q-52 -52 -127 -52q-73 0 -125 52
q-53 50 -53 123z" />
    <glyph glyph-name="uni1EC7" unicode="&#x1ec7;" horiz-adv-x="1255" 
d="M391 635h469q-30 233 -231 233q-198 0 -238 -233zM1040 109q-158 -134 -381 -134q-248 0 -409 158q-164 159 -164 410v4q0 237 152 403q155 168 391 168q251 0 401 -178q127 -154 127 -350q0 -65 -41 -109q-41 -41 -104 -41h-617q47 -215 269 -215q118 0 221 74
q36 25 76 25q51 0 86 -35q34 -34 34 -88t-41 -92zM621 1354l-97 -80q-83 -68 -188 -68q-68 0 -68 49q0 18 31 60l129 166q57 69 145 69h99q88 0 145 -69l129 -166q31 -42 31 -60q0 -49 -72 -49q-105 0 -188 68zM444 -276v4q0 71 54 125q52 49 125 49q75 0 127 -49
q51 -51 51 -125v-4q0 -75 -51 -123q-52 -52 -127 -52q-73 0 -125 52q-54 51 -54 123z" />
    <glyph glyph-name="uni1EC8" unicode="&#x1ec8;" horiz-adv-x="688" 
d="M186 145v1143q0 68 45 113t113 45t113 -45t45 -113v-1143q0 -67 -45 -112t-113 -45t-113 45t-45 112zM332 1526h-8q-65 0 -74 65l-8 58q-12 75 63 84q78 9 78 41q0 28 -45 28q-43 0 -76 -26q-27 -21 -55 -21q-37 0 -64 27q-24 27 -24 61q0 44 33 70q77 65 188 65
q104 0 164 -51q65 -56 65 -149v-2q0 -157 -166 -191l3 6q-9 -65 -74 -65z" />
    <glyph glyph-name="uni1EC9" unicode="&#x1ec9;" horiz-adv-x="618" 
d="M154 143v811q0 66 45 111t110 45q66 0 111 -45t45 -111v-811q0 -65 -45 -110t-111 -45q-65 0 -110 45t-45 110zM297 1190h-8q-65 0 -74 65l-8 58q-12 75 63 84q78 9 78 41q0 28 -45 28q-43 0 -76 -26q-27 -21 -55 -21q-36 0 -63 27q-25 28 -25 61q0 44 33 70
q77 65 188 65q104 0 164 -51q66 -57 66 -149v-2q0 -157 -166 -191l2 6q-9 -65 -74 -65z" />
    <glyph glyph-name="uni1ECA" unicode="&#x1eca;" horiz-adv-x="688" 
d="M186 145v1143q0 68 45 113t113 45t113 -45t45 -113v-1143q0 -67 -45 -112t-113 -45t-113 45t-45 112zM166 -276v4q0 72 53 125q52 49 125 49q75 0 127 -49q51 -51 51 -125v-4q0 -75 -51 -123q-52 -52 -127 -52q-73 0 -125 52q-53 50 -53 123z" />
    <glyph glyph-name="uni1ECB" unicode="&#x1ecb;" horiz-adv-x="618" 
d="M135 1356v4q0 67 51 106q45 39 123 39q77 0 125 -39q49 -40 49 -106v-4q0 -67 -49 -107q-50 -41 -125 -41q-76 0 -123 41q-51 39 -51 107zM154 143v811q0 66 45 111t110 45q66 0 111 -45t45 -111v-811q0 -65 -45 -110t-111 -45q-65 0 -110 45t-45 110zM131 -276v4
q0 72 53 125q52 49 125 49q75 0 127 -49q51 -51 51 -125v-4q0 -75 -51 -123q-52 -52 -127 -52q-73 0 -125 52q-53 50 -53 123z" />
    <glyph glyph-name="uni1ECC" unicode="&#x1ecc;" horiz-adv-x="1740" 
d="M868 -25q-326 0 -544 215q-215 212 -215 523v4q0 310 217 524q217 217 546 217t547 -215q213 -213 213 -522v-4q0 -309 -215 -524q-221 -218 -549 -218zM872 266q190 0 312 131q119 125 119 316v4q0 187 -121 317q-127 133 -314 133q-190 0 -309 -131
q-121 -127 -121 -315v-4q0 -189 123 -318q124 -133 311 -133zM692 -276v4q0 72 53 125q52 49 125 49q75 0 127 -49q52 -52 52 -125v-4q0 -74 -52 -123q-52 -52 -127 -52q-73 0 -125 52q-53 50 -53 123z" />
    <glyph glyph-name="uni1ECD" unicode="&#x1ecd;" horiz-adv-x="1359" 
d="M678 -25q-255 0 -424 166q-168 162 -168 402v4q0 239 170 403q171 168 426 168t424 -166q168 -162 168 -401v-4q0 -240 -170 -404q-171 -168 -426 -168zM682 244q130 0 209 88q76 82 76 211v4q0 124 -80 213q-84 90 -209 90q-130 0 -209 -88q-76 -82 -76 -211v-4
q0 -124 80 -213q84 -90 209 -90zM502 -276v4q0 72 53 125q52 49 125 49q75 0 127 -49q51 -51 51 -125v-4q0 -75 -51 -123q-52 -52 -127 -52q-73 0 -125 52q-53 50 -53 123z" />
    <glyph glyph-name="uni1ECE" unicode="&#x1ece;" horiz-adv-x="1740" 
d="M868 -25q-326 0 -544 215q-215 212 -215 523v4q0 310 217 524q217 217 546 217t547 -215q213 -213 213 -522v-4q0 -309 -215 -524q-221 -218 -549 -218zM872 266q190 0 312 131q119 125 119 316v4q0 187 -121 317q-127 133 -314 133q-190 0 -309 -131
q-121 -127 -121 -315v-4q0 -189 123 -318q124 -133 311 -133zM858 1526h-8q-65 0 -74 65l-8 58q-12 75 63 84q78 9 78 41q0 28 -45 28q-43 0 -76 -26q-27 -21 -55 -21q-36 0 -63 27q-25 28 -25 61q0 44 33 70q77 65 188 65q104 0 164 -51q66 -57 66 -149v-2
q0 -157 -166 -191l2 6q-9 -65 -74 -65z" />
    <glyph glyph-name="uni1ECF" unicode="&#x1ecf;" horiz-adv-x="1359" 
d="M678 -25q-255 0 -424 166q-168 162 -168 402v4q0 239 170 403q171 168 426 168t424 -166q168 -162 168 -401v-4q0 -240 -170 -404q-171 -168 -426 -168zM682 244q130 0 209 88q76 82 76 211v4q0 124 -80 213q-84 90 -209 90q-130 0 -209 -88q-76 -82 -76 -211v-4
q0 -124 80 -213q84 -90 209 -90zM668 1190h-9q-64 0 -73 65l-8 58q-12 75 63 84q78 9 78 41q0 28 -45 28q-43 0 -76 -26q-27 -21 -55 -21q-37 0 -64 27q-24 27 -24 61q0 45 32 70q77 65 189 65q104 0 164 -51q65 -56 65 -149v-2q0 -157 -166 -191l2 6q-9 -65 -73 -65z" />
    <glyph glyph-name="uni1ED0" unicode="&#x1ed0;" horiz-adv-x="1740" 
d="M868 -25q-326 0 -544 215q-215 212 -215 523v4q0 310 217 524q217 217 546 217t547 -215q213 -213 213 -522v-4q0 -309 -215 -524q-221 -218 -549 -218zM872 266q190 0 312 131q119 125 119 316v4q0 187 -121 317q-127 133 -314 133q-190 0 -309 -131
q-121 -127 -121 -315v-4q0 -189 123 -318q124 -133 311 -133zM868 1702l-96 -80q-83 -68 -188 -68q-68 0 -68 50q0 17 31 59l129 166q57 69 145 69h99q88 0 145 -69l129 -166q31 -42 31 -59q0 -50 -72 -50q-105 0 -188 68zM1214 1792q-77 0 -77 53q0 23 20 56l113 176
q43 69 116 69q57 0 115 -28q60 -31 60 -66q0 -36 -41 -74l-127 -118q-71 -68 -179 -68z" />
    <glyph glyph-name="uni1ED1" unicode="&#x1ed1;" horiz-adv-x="1359" 
d="M678 -25q-255 0 -424 166q-168 162 -168 402v4q0 239 170 403q171 168 426 168t424 -166q168 -162 168 -401v-4q0 -240 -170 -404q-171 -168 -426 -168zM682 244q130 0 209 88q76 82 76 211v4q0 124 -80 213q-84 90 -209 90q-130 0 -209 -88q-76 -82 -76 -211v-4
q0 -124 80 -213q84 -90 209 -90zM678 1354l-96 -80q-83 -68 -189 -68q-67 0 -67 49q0 19 30 60l129 166q57 69 146 69h98q88 0 145 -69l130 -166q30 -41 30 -60q0 -49 -71 -49q-106 0 -189 68zM1055 1378q-78 0 -78 54q0 22 20 55l113 176q43 70 117 70q54 0 114 -29
q60 -31 60 -66t-41 -73l-127 -119q-71 -68 -178 -68z" />
    <glyph glyph-name="uni1ED2" unicode="&#x1ed2;" horiz-adv-x="1740" 
d="M868 -25q-326 0 -544 215q-215 212 -215 523v4q0 310 217 524q217 217 546 217t547 -215q213 -213 213 -522v-4q0 -309 -215 -524q-221 -218 -549 -218zM872 266q190 0 312 131q119 125 119 316v4q0 187 -121 317q-127 133 -314 133q-190 0 -309 -131
q-121 -127 -121 -315v-4q0 -189 123 -318q124 -133 311 -133zM868 1702l-96 -80q-83 -68 -188 -68q-68 0 -68 50q0 17 31 59l129 166q57 69 145 69h99q88 0 145 -69l129 -166q31 -42 31 -59q0 -50 -72 -50q-105 0 -188 68zM516 1769q-107 0 -178 68l-127 119q-41 38 -41 74
q0 35 59 65q60 29 115 29q74 0 117 -70l112 -176q21 -34 21 -55q0 -54 -78 -54z" />
    <glyph glyph-name="uni1ED3" unicode="&#x1ed3;" horiz-adv-x="1359" 
d="M678 -25q-255 0 -424 166q-168 162 -168 402v4q0 239 170 403q171 168 426 168t424 -166q168 -162 168 -401v-4q0 -240 -170 -404q-171 -168 -426 -168zM682 244q130 0 209 88q76 82 76 211v4q0 124 -80 213q-84 90 -209 90q-130 0 -209 -88q-76 -82 -76 -211v-4
q0 -124 80 -213q84 -90 209 -90zM678 1354l-96 -80q-83 -68 -189 -68q-67 0 -67 49q0 19 30 60l129 166q57 69 146 69h98q88 0 145 -69l130 -166q30 -41 30 -60q0 -49 -71 -49q-106 0 -189 68zM322 1468q-108 0 -179 68l-127 119q-41 38 -41 74q0 34 60 65q60 29 115 29
q73 0 116 -70l113 -176q20 -33 20 -55q0 -54 -77 -54z" />
    <glyph glyph-name="uni1ED4" unicode="&#x1ed4;" horiz-adv-x="1740" 
d="M868 -25q-326 0 -544 215q-215 212 -215 523v4q0 310 217 524q217 217 546 217t547 -215q213 -213 213 -522v-4q0 -309 -215 -524q-221 -218 -549 -218zM872 266q190 0 312 131q119 125 119 316v4q0 187 -121 317q-127 133 -314 133q-190 0 -309 -131
q-121 -127 -121 -315v-4q0 -189 123 -318q124 -133 311 -133zM868 1706l-96 -80q-82 -67 -188 -67q-68 0 -68 49q0 17 31 59l129 166q58 70 145 70h99q87 0 145 -70l129 -166q31 -42 31 -59q0 -49 -72 -49q-106 0 -188 67zM1231 1763h-8q-65 0 -74 66l-8 57q-12 75 63 84
q78 9 78 41q0 29 -45 29q-41 0 -76 -27q-26 -20 -55 -20q-38 0 -64 26q-24 27 -24 62q0 43 33 69q78 66 188 66q104 0 164 -51q65 -56 65 -150v-2q0 -156 -165 -190l2 6q-9 -66 -74 -66z" />
    <glyph glyph-name="uni1ED5" unicode="&#x1ed5;" horiz-adv-x="1359" 
d="M678 -25q-255 0 -424 166q-168 162 -168 402v4q0 239 170 403q171 168 426 168t424 -166q168 -162 168 -401v-4q0 -240 -170 -404q-171 -168 -426 -168zM682 244q130 0 209 88q76 82 76 211v4q0 124 -80 213q-84 90 -209 90q-130 0 -209 -88q-76 -82 -76 -211v-4
q0 -124 80 -213q84 -90 209 -90zM678 1354l-96 -80q-83 -68 -189 -68q-67 0 -67 49q0 19 30 60l129 166q57 69 146 69h98q88 0 145 -69l130 -166q30 -41 30 -60q0 -49 -71 -49q-106 0 -189 68zM1053 1446h-9q-64 0 -73 65l-8 58q-12 75 63 84q78 9 78 41q0 28 -45 28
q-43 0 -76 -26q-27 -21 -55 -21q-37 0 -64 27q-24 27 -24 61q0 45 32 70q77 65 189 65q104 0 164 -51q65 -56 65 -149v-2q0 -157 -166 -191l2 6q-9 -65 -73 -65z" />
    <glyph glyph-name="uni1ED6" unicode="&#x1ed6;" horiz-adv-x="1740" 
d="M868 -25q-326 0 -544 215q-215 212 -215 523v4q0 310 217 524q217 217 546 217t547 -215q213 -213 213 -522v-4q0 -309 -215 -524q-221 -218 -549 -218zM872 266q190 0 312 131q119 125 119 316v4q0 187 -121 317q-127 133 -314 133q-190 0 -309 -131
q-121 -127 -121 -315v-4q0 -189 123 -318q124 -133 311 -133zM868 1702l-96 -80q-83 -68 -188 -68q-68 0 -68 50q0 17 31 59l129 166q57 69 145 69h99q88 0 145 -69l129 -166q31 -42 31 -59q0 -50 -72 -50q-105 0 -188 68zM674 1954q-27 -47 -80 -47q-38 0 -64 26
q-28 25 -28 58q0 25 10 55q77 201 229 201q73 0 174 -39q103 -41 134 -41q61 0 96 59q27 47 80 47q39 0 65 -26q27 -24 27 -58q0 -25 -10 -55q-77 -201 -230 -201q-68 0 -174 41q-98 39 -133 39q-61 0 -96 -59z" />
    <glyph glyph-name="uni1ED7" unicode="&#x1ed7;" horiz-adv-x="1359" 
d="M678 -25q-255 0 -424 166q-168 162 -168 402v4q0 239 170 403q171 168 426 168t424 -166q168 -162 168 -401v-4q0 -240 -170 -404q-171 -168 -426 -168zM682 244q130 0 209 88q76 82 76 211v4q0 124 -80 213q-84 90 -209 90q-130 0 -209 -88q-76 -82 -76 -211v-4
q0 -124 80 -213q84 -90 209 -90zM678 1354l-96 -80q-83 -68 -189 -68q-67 0 -67 49q0 19 30 60l129 166q57 69 146 69h98q88 0 145 -69l130 -166q30 -41 30 -60q0 -49 -71 -49q-106 0 -189 68zM471 1604q-28 -48 -80 -48q-36 0 -63 27q-29 26 -29 57q0 26 10 56
q77 200 230 200q75 0 174 -38q103 -41 133 -41q61 0 96 59q27 47 80 47q38 0 65 -27q27 -24 27 -57q0 -25 -10 -55q-77 -201 -230 -201q-68 0 -174 41q-98 39 -133 39q-61 0 -96 -59z" />
    <glyph glyph-name="uni1ED8" unicode="&#x1ed8;" horiz-adv-x="1740" 
d="M868 -25q-326 0 -544 215q-215 212 -215 523v4q0 310 217 524q217 217 546 217t547 -215q213 -213 213 -522v-4q0 -309 -215 -524q-221 -218 -549 -218zM872 266q190 0 312 131q119 125 119 316v4q0 187 -121 317q-127 133 -314 133q-190 0 -309 -131
q-121 -127 -121 -315v-4q0 -189 123 -318q124 -133 311 -133zM868 1690l-96 -80q-83 -68 -188 -68q-68 0 -68 49q0 18 31 60l129 166q57 69 145 69h99q88 0 145 -69l129 -166q31 -42 31 -60q0 -49 -72 -49q-105 0 -188 68zM692 -276v4q0 72 53 125q52 49 125 49
q75 0 127 -49q52 -52 52 -125v-4q0 -74 -52 -123q-52 -52 -127 -52q-73 0 -125 52q-53 50 -53 123z" />
    <glyph glyph-name="uni1ED9" unicode="&#x1ed9;" horiz-adv-x="1359" 
d="M678 -25q-255 0 -424 166q-168 162 -168 402v4q0 239 170 403q171 168 426 168t424 -166q168 -162 168 -401v-4q0 -240 -170 -404q-171 -168 -426 -168zM682 244q130 0 209 88q76 82 76 211v4q0 124 -80 213q-84 90 -209 90q-130 0 -209 -88q-76 -82 -76 -211v-4
q0 -124 80 -213q84 -90 209 -90zM678 1354l-96 -80q-83 -68 -189 -68q-67 0 -67 49q0 19 30 60l129 166q57 69 146 69h98q88 0 145 -69l130 -166q30 -41 30 -60q0 -49 -71 -49q-106 0 -189 68zM502 -276v4q0 72 53 125q52 49 125 49q75 0 127 -49q51 -51 51 -125v-4
q0 -75 -51 -123q-52 -52 -127 -52q-73 0 -125 52q-53 50 -53 123z" />
    <glyph glyph-name="uni1EDA" unicode="&#x1eda;" horiz-adv-x="1740" 
d="M1184 397q119 125 119 316v4q0 187 -121 317q-127 133 -314 133q-190 0 -309 -131q-121 -127 -121 -315v-4q0 -189 123 -318q124 -133 311 -133q190 0 312 131zM1389 1272q5 -5 15 -14.5t15 -14.5q213 -213 213 -522v-4q0 -309 -215 -524q-221 -218 -549 -218
q-326 0 -544 215q-215 212 -215 523v4q0 310 217 524q217 217 546 217q111 0 213 -24q163 27 172 159q43 49 107 49q60 0 100 -40q41 -41 41 -101q0 -57 -32 -117q-28 -62 -84 -112zM807 1542q-78 0 -78 53q0 21 21 56l112 176q43 69 117 69q57 0 115 -28q59 -30 59 -66
q0 -35 -41 -73l-127 -119q-71 -68 -178 -68z" />
    <glyph glyph-name="uni1EDB" unicode="&#x1edb;" horiz-adv-x="1359" 
d="M891 332q76 82 76 211v4q0 124 -80 213q-84 90 -209 90q-130 0 -209 -88q-76 -82 -76 -211v-4q0 -124 80 -213q84 -90 209 -90q130 0 209 88zM1110 948q164 -164 164 -397v-4q0 -240 -170 -404q-171 -168 -426 -168t-424 166q-168 162 -168 402v4q0 239 170 403
q171 168 426 168q78 0 141 -14q130 3 142 151q44 50 106 50q59 0 100 -41t41 -101q0 -56 -32 -116q-24 -59 -70 -99zM549 1206q-78 0 -78 54q0 20 21 55l112 176q43 70 117 70q55 0 115 -29q59 -30 59 -66q0 -35 -41 -73l-127 -119q-71 -68 -178 -68z" />
    <glyph glyph-name="uni1EDC" unicode="&#x1edc;" horiz-adv-x="1740" 
d="M1184 397q119 125 119 316v4q0 187 -121 317q-127 133 -314 133q-190 0 -309 -131q-121 -127 -121 -315v-4q0 -189 123 -318q124 -133 311 -133q190 0 312 131zM1389 1272q5 -5 15 -14.5t15 -14.5q213 -213 213 -522v-4q0 -309 -215 -524q-221 -218 -549 -218
q-326 0 -544 215q-215 212 -215 523v4q0 310 217 524q217 217 546 217q111 0 213 -24q163 27 172 159q43 49 107 49q60 0 100 -40q41 -41 41 -101q0 -57 -32 -117q-28 -62 -84 -112zM934 1542q-107 0 -178 68l-127 119q-41 38 -41 73q0 36 59 66q58 28 115 28q74 0 117 -69
l112 -176q21 -35 21 -56q0 -53 -78 -53z" />
    <glyph glyph-name="uni1EDD" unicode="&#x1edd;" horiz-adv-x="1359" 
d="M891 332q76 82 76 211v4q0 124 -80 213q-84 90 -209 90q-130 0 -209 -88q-76 -82 -76 -211v-4q0 -124 80 -213q84 -90 209 -90q130 0 209 88zM1110 948q164 -164 164 -397v-4q0 -240 -170 -404q-171 -168 -426 -168t-424 166q-168 162 -168 402v4q0 239 170 403
q171 168 426 168q78 0 141 -14q130 3 142 151q44 50 106 50q59 0 100 -41t41 -101q0 -56 -32 -116q-24 -59 -70 -99zM666 1206q-108 0 -179 68l-127 119q-41 38 -41 73t60 66q60 29 115 29q73 0 116 -70l113 -176q20 -33 20 -55q0 -54 -77 -54z" />
    <glyph glyph-name="uni1EDE" unicode="&#x1ede;" horiz-adv-x="1740" 
d="M1184 397q119 125 119 316v4q0 187 -121 317q-127 133 -314 133q-190 0 -309 -131q-121 -127 -121 -315v-4q0 -189 123 -318q124 -133 311 -133q190 0 312 131zM1389 1272q5 -5 15 -14.5t15 -14.5q213 -213 213 -522v-4q0 -309 -215 -524q-221 -218 -549 -218
q-326 0 -544 215q-215 212 -215 523v4q0 310 217 524q217 217 546 217q111 0 213 -24q163 27 172 159q43 49 107 49q60 0 100 -40q41 -41 41 -101q0 -57 -32 -117q-28 -62 -84 -112zM858 1526h-8q-65 0 -74 65l-8 58q-12 75 63 84q78 9 78 41q0 28 -45 28q-43 0 -76 -26
q-27 -21 -55 -21q-36 0 -63 27q-25 28 -25 61q0 44 33 70q77 65 188 65q104 0 164 -51q66 -57 66 -149v-2q0 -157 -166 -191l2 6q-9 -65 -74 -65z" />
    <glyph glyph-name="uni1EDF" unicode="&#x1edf;" horiz-adv-x="1359" 
d="M891 332q76 82 76 211v4q0 124 -80 213q-84 90 -209 90q-130 0 -209 -88q-76 -82 -76 -211v-4q0 -124 80 -213q84 -90 209 -90q130 0 209 88zM1110 948q164 -164 164 -397v-4q0 -240 -170 -404q-171 -168 -426 -168t-424 166q-168 162 -168 402v4q0 239 170 403
q171 168 426 168q78 0 141 -14q130 3 142 151q44 50 106 50q59 0 100 -41t41 -101q0 -56 -32 -116q-24 -59 -70 -99zM633 1190h-8q-65 0 -74 65l-8 58q-12 75 63 84q78 9 78 41q0 28 -45 28q-43 0 -76 -26q-27 -21 -55 -21q-37 0 -64 27q-24 27 -24 61q0 44 33 70
q77 65 188 65q104 0 164 -51q65 -56 65 -149v-2q0 -157 -165 -191l2 6q-9 -65 -74 -65z" />
    <glyph glyph-name="uni1EE0" unicode="&#x1ee0;" horiz-adv-x="1740" 
d="M1184 397q119 125 119 316v4q0 187 -121 317q-127 133 -314 133q-190 0 -309 -131q-121 -127 -121 -315v-4q0 -189 123 -318q124 -133 311 -133q190 0 312 131zM1389 1272q5 -5 15 -14.5t15 -14.5q213 -213 213 -522v-4q0 -309 -215 -524q-221 -218 -549 -218
q-326 0 -544 215q-215 212 -215 523v4q0 310 217 524q217 217 546 217q111 0 213 -24q163 27 172 159q43 49 107 49q60 0 100 -40q41 -41 41 -101q0 -57 -32 -117q-28 -62 -84 -112zM635 1575q-27 -47 -80 -47q-37 0 -63 26q-29 26 -29 58q0 25 10 55q77 201 229 201
q74 0 175 -39q103 -41 133 -41q61 0 96 59q27 47 80 47q39 0 65 -26q27 -24 27 -58q0 -25 -10 -55q-77 -201 -230 -201q-68 0 -174 41q-98 39 -133 39q-61 0 -96 -59z" />
    <glyph glyph-name="uni1EE1" unicode="&#x1ee1;" horiz-adv-x="1359" 
d="M891 332q76 82 76 211v4q0 124 -80 213q-84 90 -209 90q-130 0 -209 -88q-76 -82 -76 -211v-4q0 -124 80 -213q84 -90 209 -90q130 0 209 88zM1110 948q164 -164 164 -397v-4q0 -240 -170 -404q-171 -168 -426 -168t-424 166q-168 162 -168 402v4q0 239 170 403
q171 168 426 168q78 0 141 -14q130 3 142 151q44 50 106 50q59 0 100 -41t41 -101q0 -56 -32 -116q-24 -59 -70 -99zM369 1239q-27 -47 -80 -47q-37 0 -64 27q-28 25 -28 57q0 25 10 55q77 201 229 201q73 0 174 -39q103 -41 133 -41q62 0 97 59q28 48 80 48q38 0 65 -27
q27 -24 27 -57q0 -23 -11 -56q-77 -200 -229 -200q-68 0 -174 41q-96 38 -133 38q-61 0 -96 -59z" />
    <glyph glyph-name="uni1EE2" unicode="&#x1ee2;" horiz-adv-x="1740" 
d="M1184 397q119 125 119 316v4q0 187 -121 317q-127 133 -314 133q-190 0 -309 -131q-121 -127 -121 -315v-4q0 -189 123 -318q124 -133 311 -133q190 0 312 131zM1389 1272q5 -5 15 -14.5t15 -14.5q213 -213 213 -522v-4q0 -309 -215 -524q-221 -218 -549 -218
q-326 0 -544 215q-215 212 -215 523v4q0 310 217 524q217 217 546 217q111 0 213 -24q163 27 172 159q43 49 107 49q60 0 100 -40q41 -41 41 -101q0 -57 -32 -117q-28 -62 -84 -112zM692 -276v4q0 72 53 125q52 49 125 49q75 0 127 -49q52 -52 52 -125v-4q0 -74 -52 -123
q-52 -52 -127 -52q-73 0 -125 52q-53 50 -53 123z" />
    <glyph glyph-name="uni1EE3" unicode="&#x1ee3;" horiz-adv-x="1359" 
d="M891 332q76 82 76 211v4q0 124 -80 213q-84 90 -209 90q-130 0 -209 -88q-76 -82 -76 -211v-4q0 -124 80 -213q84 -90 209 -90q130 0 209 88zM1110 948q164 -164 164 -397v-4q0 -240 -170 -404q-171 -168 -426 -168t-424 166q-168 162 -168 402v4q0 239 170 403
q171 168 426 168q78 0 141 -14q130 3 142 151q44 50 106 50q59 0 100 -41t41 -101q0 -56 -32 -116q-24 -59 -70 -99zM426 -276v4q0 72 53 125q52 49 125 49q75 0 127 -49q51 -51 51 -125v-4q0 -75 -51 -123q-52 -52 -127 -52q-73 0 -125 52q-53 50 -53 123z" />
    <glyph glyph-name="uni1EE4" unicode="&#x1ee4;" horiz-adv-x="1548" 
d="M770 -23q-290 0 -455 160q-165 165 -165 477v674q0 68 45 113t112 45q68 0 113 -45t45 -113v-665q0 -355 309 -355t309 344v676q0 68 45 113t113 45t113 -45t45 -113v-663q0 -319 -170 -486q-162 -162 -459 -162zM596 -276v4q0 72 53 125q52 49 125 49q75 0 127 -49
q51 -51 51 -125v-4q0 -75 -51 -123q-52 -52 -127 -52q-73 0 -125 52q-53 50 -53 123z" />
    <glyph glyph-name="uni1EE5" unicode="&#x1ee5;" horiz-adv-x="1275" 
d="M1137 954v-811q0 -65 -45 -110t-111 -45t-111 45t-45 110v13q-138 -176 -321 -176q-176 0 -275 108q-98 107 -98 299v567q0 66 45 111t111 45q65 0 110 -45t45 -111v-469q0 -223 189 -223q194 0 194 223v469q0 66 45 111t111 45t111 -45t45 -111zM457 -276v4q0 72 53 125
q52 49 125 49q75 0 127 -49q51 -51 51 -125v-4q0 -75 -51 -123q-52 -52 -127 -52q-73 0 -125 52q-53 50 -53 123z" />
    <glyph glyph-name="uni1EE6" unicode="&#x1ee6;" horiz-adv-x="1548" 
d="M770 -23q-290 0 -455 160q-165 165 -165 477v674q0 68 45 113t112 45q68 0 113 -45t45 -113v-665q0 -355 309 -355t309 344v676q0 68 45 113t113 45t113 -45t45 -113v-663q0 -319 -170 -486q-162 -162 -459 -162zM762 1526h-8q-65 0 -74 65l-8 58q-12 75 63 84
q78 9 78 41q0 28 -45 28q-43 0 -76 -26q-27 -21 -55 -21q-37 0 -64 27q-24 27 -24 61q0 44 33 70q77 65 188 65q104 0 164 -51q65 -56 65 -149v-2q0 -157 -165 -191l2 6q-9 -65 -74 -65z" />
    <glyph glyph-name="uni1EE7" unicode="&#x1ee7;" horiz-adv-x="1275" 
d="M1137 954v-811q0 -65 -45 -110t-111 -45t-111 45t-45 110v13q-138 -176 -321 -176q-176 0 -275 108q-98 107 -98 299v567q0 66 45 111t111 45q65 0 110 -45t45 -111v-469q0 -223 189 -223q194 0 194 223v469q0 66 45 111t111 45t111 -45t45 -111zM623 1190h-9
q-64 0 -73 65l-9 58q-12 75 64 84q78 9 78 41q0 28 -45 28q-43 0 -76 -26q-27 -21 -55 -21q-37 0 -64 27q-24 27 -24 61q0 45 32 70q77 65 189 65q104 0 164 -51q65 -56 65 -149v-2q0 -157 -166 -191l2 6q-9 -65 -73 -65z" />
    <glyph glyph-name="uni1EE8" unicode="&#x1ee8;" horiz-adv-x="1548" 
d="M1399 1219v-594q0 -319 -170 -486q-162 -162 -459 -162q-290 0 -455 160q-165 165 -165 477v674q0 68 45 113t112 45q68 0 113 -45t45 -113v-665q0 -355 309 -355t309 344v676q0 68 45 113t113 45h14q98 19 107 147q43 49 106 49q61 0 101 -40q41 -41 41 -101
q0 -55 -33 -117q-52 -118 -178 -165zM817 1542q-78 0 -78 53q0 21 21 56l112 176q43 69 117 69q57 0 115 -28q59 -30 59 -66q0 -35 -41 -73l-127 -119q-71 -68 -178 -68z" />
    <glyph glyph-name="uni1EE9" unicode="&#x1ee9;" horiz-adv-x="1275" 
d="M1137 885v-742q0 -65 -45 -110t-111 -45t-111 45t-45 110v13q-138 -176 -321 -176q-176 0 -275 108q-98 107 -98 299v567q0 66 45 111t111 45q65 0 110 -45t45 -111v-469q0 -223 189 -223q194 0 194 223v469q0 66 45 111t111 45h14q88 22 97 145q44 50 106 50
q59 0 100 -41t41 -101q0 -56 -32 -116q-52 -116 -170 -162zM643 1206q-78 0 -78 54q0 20 21 55l112 176q43 70 117 70q55 0 115 -29q59 -30 59 -66q0 -35 -41 -73l-127 -119q-71 -68 -178 -68z" />
    <glyph glyph-name="uni1EEA" unicode="&#x1eea;" horiz-adv-x="1548" 
d="M1399 1219v-594q0 -319 -170 -486q-162 -162 -459 -162q-290 0 -455 160q-165 165 -165 477v674q0 68 45 113t112 45q68 0 113 -45t45 -113v-665q0 -355 309 -355t309 344v676q0 68 45 113t113 45h14q98 19 107 147q43 49 106 49q61 0 101 -40q41 -41 41 -101
q0 -55 -33 -117q-52 -118 -178 -165zM944 1542q-107 0 -178 68l-127 119q-41 38 -41 73q0 36 59 66q58 28 115 28q74 0 117 -69l112 -176q21 -35 21 -56q0 -53 -78 -53z" />
    <glyph glyph-name="uni1EEB" unicode="&#x1eeb;" horiz-adv-x="1275" 
d="M1137 885v-742q0 -65 -45 -110t-111 -45t-111 45t-45 110v13q-138 -176 -321 -176q-176 0 -275 108q-98 107 -98 299v567q0 66 45 111t111 45q65 0 110 -45t45 -111v-469q0 -223 189 -223q194 0 194 223v469q0 66 45 111t111 45h14q88 22 97 145q44 50 106 50
q59 0 100 -41t41 -101q0 -56 -32 -116q-52 -116 -170 -162zM756 1206q-107 0 -178 68l-127 119q-41 38 -41 73q0 36 59 66q60 29 115 29q73 0 116 -70l113 -176q21 -35 21 -55q0 -54 -78 -54z" />
    <glyph glyph-name="uni1EEC" unicode="&#x1eec;" horiz-adv-x="1548" 
d="M1399 1219v-594q0 -319 -170 -486q-162 -162 -459 -162q-290 0 -455 160q-165 165 -165 477v674q0 68 45 113t112 45q68 0 113 -45t45 -113v-665q0 -355 309 -355t309 344v676q0 68 45 113t113 45h14q98 19 107 147q43 49 106 49q61 0 101 -40q41 -41 41 -101
q0 -55 -33 -117q-52 -118 -178 -165zM799 1556h-8q-65 0 -74 66l-8 57q-12 75 63 84q78 9 78 41q0 29 -45 29q-42 0 -76 -27q-26 -20 -55 -20q-38 0 -64 26q-24 27 -24 62q0 45 32 70q77 65 189 65q104 0 164 -51q65 -56 65 -150v-2q0 -156 -166 -190l2 6q-9 -66 -73 -66z
" />
    <glyph glyph-name="uni1EED" unicode="&#x1eed;" horiz-adv-x="1275" 
d="M1137 885v-742q0 -65 -45 -110t-111 -45t-111 45t-45 110v13q-138 -176 -321 -176q-176 0 -275 108q-98 107 -98 299v567q0 66 45 111t111 45q65 0 110 -45t45 -111v-469q0 -223 189 -223q194 0 194 223v469q0 66 45 111t111 45h14q88 22 97 145q44 50 106 50
q59 0 100 -41t41 -101q0 -56 -32 -116q-52 -116 -170 -162zM713 1190h-8q-65 0 -74 65l-8 58q-12 75 63 84q78 9 78 41q0 28 -45 28q-43 0 -76 -26q-27 -21 -55 -21q-37 0 -64 27q-24 27 -24 61q0 45 32 70q77 65 189 65q104 0 164 -51q65 -56 65 -149v-2q0 -157 -166 -191
l2 6q-9 -65 -73 -65z" />
    <glyph glyph-name="uni1EEE" unicode="&#x1eee;" horiz-adv-x="1548" 
d="M1399 1219v-594q0 -319 -170 -486q-162 -162 -459 -162q-290 0 -455 160q-165 165 -165 477v674q0 68 45 113t112 45q68 0 113 -45t45 -113v-665q0 -355 309 -355t309 344v676q0 68 45 113t113 45h14q98 19 107 147q43 49 106 49q61 0 101 -40q41 -41 41 -101
q0 -55 -33 -117q-52 -118 -178 -165zM645 1575q-27 -47 -80 -47q-37 0 -63 26q-29 26 -29 58q0 25 10 55q77 201 230 201q73 0 174 -39q103 -41 133 -41q61 0 96 59q27 47 80 47q40 0 66 -26q26 -23 26 -58q0 -25 -10 -55q-77 -201 -229 -201q-69 0 -175 41q-98 39 -133 39
q-61 0 -96 -59z" />
    <glyph glyph-name="uni1EEF" unicode="&#x1eef;" horiz-adv-x="1275" 
d="M1137 885v-742q0 -65 -45 -110t-111 -45t-111 45t-45 110v13q-138 -176 -321 -176q-176 0 -275 108q-98 107 -98 299v567q0 66 45 111t111 45q65 0 110 -45t45 -111v-469q0 -223 189 -223q194 0 194 223v469q0 66 45 111t111 45h14q88 22 97 145q44 50 106 50
q59 0 100 -41t41 -101q0 -56 -32 -116q-52 -116 -170 -162zM465 1239q-27 -47 -80 -47q-36 0 -63 27q-29 26 -29 57q0 25 10 55q77 201 229 201q74 0 175 -39q103 -41 133 -41q61 0 96 59q28 48 80 48q38 0 65 -27q27 -24 27 -57q0 -26 -10 -56q-77 -200 -230 -200
q-68 0 -174 41q-96 38 -133 38q-61 0 -96 -59z" />
    <glyph glyph-name="uni1EF0" unicode="&#x1ef0;" horiz-adv-x="1548" 
d="M1399 1219v-594q0 -319 -170 -486q-162 -162 -459 -162q-290 0 -455 160q-165 165 -165 477v674q0 68 45 113t112 45q68 0 113 -45t45 -113v-665q0 -355 309 -355t309 344v676q0 68 45 113t113 45h14q98 19 107 147q43 49 106 49q61 0 101 -40q41 -41 41 -101
q0 -55 -33 -117q-52 -118 -178 -165zM702 -276v4q0 71 54 125q52 49 125 49q75 0 127 -49q51 -51 51 -125v-4q0 -75 -51 -123q-52 -52 -127 -52q-73 0 -125 52q-54 51 -54 123z" />
    <glyph glyph-name="uni1EF1" unicode="&#x1ef1;" horiz-adv-x="1275" 
d="M1137 885v-742q0 -65 -45 -110t-111 -45t-111 45t-45 110v13q-138 -176 -321 -176q-176 0 -275 108q-98 107 -98 299v567q0 66 45 111t111 45q65 0 110 -45t45 -111v-469q0 -223 189 -223q194 0 194 223v469q0 66 45 111t111 45h14q88 22 97 145q44 50 106 50
q59 0 100 -41t41 -101q0 -56 -32 -116q-52 -116 -170 -162zM522 -276v4q0 72 53 125q52 49 125 49q75 0 127 -49q52 -52 52 -125v-4q0 -74 -52 -123q-52 -52 -127 -52q-73 0 -125 52q-53 50 -53 123z" />
    <glyph glyph-name="Ygrave" unicode="&#x1ef2;" horiz-adv-x="1409" 
d="M547 145v408l-463 629q-39 51 -39 112q0 65 45 107q45 45 113 45q89 0 155 -96l349 -502l354 506q64 94 151 94q71 0 113 -45q41 -44 41 -109q0 -51 -41 -110l-463 -625v-414q0 -67 -45 -112t-112 -45q-68 0 -113 45t-45 112zM713 1534q-107 0 -178 68l-127 118
q-41 38 -41 74t59 66q58 28 115 28q73 0 116 -69l113 -177q21 -34 21 -55q0 -53 -78 -53z" />
    <glyph glyph-name="ygrave" unicode="&#x1ef3;" horiz-adv-x="1200" 
d="M367 -334q-85 0 -170 29q-99 35 -99 129q0 55 37 92q38 35 86 35q30 0 51 -8q44 -13 66 -13q76 0 111 66l10 24l-375 869q-16 43 -16 72q0 66 45 108q44 41 108 41q107 0 150 -117l237 -639l230 637q46 119 149 119q61 0 105 -41q43 -40 43 -102q0 -39 -15 -74l-383 -920
q-71 -171 -149 -237q-82 -70 -221 -70zM608 1206q-107 0 -178 68l-127 119q-41 38 -41 73t60 66q60 29 114 29q74 0 117 -70l113 -176q20 -33 20 -55q0 -54 -78 -54z" />
    <glyph glyph-name="uni1EF4" unicode="&#x1ef4;" horiz-adv-x="1409" 
d="M547 145v408l-463 629q-39 51 -39 112q0 65 45 107q45 45 113 45q89 0 155 -96l349 -502l354 506q64 94 151 94q71 0 113 -45q41 -44 41 -109q0 -51 -41 -110l-463 -625v-414q0 -67 -45 -112t-112 -45q-68 0 -113 45t-45 112zM528 -276v4q0 71 54 125q52 49 125 49
q75 0 127 -49q51 -51 51 -125v-4q0 -75 -51 -123q-52 -52 -127 -52q-73 0 -125 52q-54 51 -54 123z" />
    <glyph glyph-name="uni1EF5" unicode="&#x1ef5;" horiz-adv-x="1200" 
d="M367 -334q-85 0 -170 29q-99 35 -99 129q0 55 37 92q38 35 86 35q30 0 51 -8q44 -13 66 -13q76 0 111 66l10 24l-375 869q-16 43 -16 72q0 66 45 108q44 41 108 41q107 0 150 -117l237 -639l230 637q46 119 149 119q61 0 105 -41q43 -40 43 -102q0 -39 -15 -74l-383 -920
q-71 -171 -149 -237q-82 -70 -221 -70zM698 -276v4q0 71 54 125q52 49 125 49q75 0 127 -49q51 -51 51 -125v-4q0 -75 -51 -123q-52 -52 -127 -52q-73 0 -125 52q-54 51 -54 123z" />
    <glyph glyph-name="uni1EF6" unicode="&#x1ef6;" horiz-adv-x="1409" 
d="M547 145v408l-463 629q-39 51 -39 112q0 65 45 107q45 45 113 45q89 0 155 -96l349 -502l354 506q64 94 151 94q71 0 113 -45q41 -44 41 -109q0 -51 -41 -110l-463 -625v-414q0 -67 -45 -112t-112 -45q-68 0 -113 45t-45 112zM694 1526h-8q-65 0 -74 65l-8 58
q-12 75 64 84q77 9 77 41q0 28 -45 28q-42 0 -75 -26q-27 -21 -56 -21q-36 0 -63 27q-25 28 -25 61q0 44 33 70q77 65 188 65q104 0 164 -51q66 -57 66 -149v-2q0 -157 -166 -191l2 6q-9 -65 -74 -65z" />
    <glyph glyph-name="uni1EF7" unicode="&#x1ef7;" horiz-adv-x="1200" 
d="M367 -334q-85 0 -170 29q-99 35 -99 129q0 55 37 92q38 35 86 35q30 0 51 -8q44 -13 66 -13q76 0 111 66l10 24l-375 869q-16 43 -16 72q0 66 45 108q44 41 108 41q107 0 150 -117l237 -639l230 637q46 119 149 119q61 0 105 -41q43 -40 43 -102q0 -39 -15 -74l-383 -920
q-71 -171 -149 -237q-82 -70 -221 -70zM590 1190h-8q-65 0 -74 65l-8 58q-12 75 63 84q78 9 78 41q0 28 -45 28q-43 0 -76 -26q-27 -21 -55 -21q-37 0 -64 27q-24 27 -24 61q0 44 33 70q77 65 188 65q104 0 164 -51q65 -56 65 -149v-2q0 -157 -165 -191l2 6q-9 -65 -74 -65z
" />
    <glyph glyph-name="uni1EF8" unicode="&#x1ef8;" horiz-adv-x="1409" 
d="M547 145v408l-463 629q-39 51 -39 112q0 65 45 107q45 45 113 45q89 0 155 -96l349 -502l354 506q64 94 151 94q71 0 113 -45q41 -44 41 -109q0 -51 -41 -110l-463 -625v-414q0 -67 -45 -112t-112 -45q-68 0 -113 45t-45 112zM471 1575q-27 -47 -80 -47q-37 0 -63 26
q-29 26 -29 58q0 25 10 55q77 201 230 201q73 0 174 -39q103 -41 133 -41q61 0 96 59q27 47 80 47q39 0 65 -26q27 -24 27 -58q0 -25 -10 -55q-77 -201 -230 -201q-68 0 -174 41q-98 39 -133 39q-61 0 -96 -59z" />
    <glyph glyph-name="uni1EF9" unicode="&#x1ef9;" horiz-adv-x="1200" 
d="M367 -334q-85 0 -170 29q-99 35 -99 129q0 55 37 92q38 35 86 35q30 0 51 -8q44 -13 66 -13q76 0 111 66l10 24l-375 869q-16 43 -16 72q0 66 45 108q44 41 108 41q107 0 150 -117l237 -639l230 637q46 119 149 119q61 0 105 -41q43 -40 43 -102q0 -39 -15 -74l-383 -920
q-71 -171 -149 -237q-82 -70 -221 -70zM367 1239q-27 -47 -80 -47q-37 0 -64 27q-28 25 -28 57q0 25 10 55q77 201 229 201q73 0 174 -39q103 -41 133 -41q62 0 97 59q28 48 80 48q38 0 65 -27q27 -24 27 -57q0 -23 -11 -56q-77 -200 -229 -200q-68 0 -174 41
q-96 38 -133 38q-61 0 -96 -59z" />
    <glyph glyph-name="uni2002" unicode="&#x2002;" 
 />
    <glyph glyph-name="uni2003" unicode="&#x2003;" horiz-adv-x="2048" 
 />
    <glyph glyph-name="uni2004" unicode="&#x2004;" horiz-adv-x="681" 
 />
    <glyph glyph-name="uni2005" unicode="&#x2005;" horiz-adv-x="512" 
 />
    <glyph glyph-name="uni2009" unicode="&#x2009;" horiz-adv-x="272" 
 />
    <glyph glyph-name="uni200A" unicode="&#x200a;" horiz-adv-x="153" 
 />
    <glyph glyph-name="endash" unicode="&#x2013;" horiz-adv-x="1081" 
d="M846 489h-610q-60 0 -103 43t-43 103q0 59 43 102t103 43h610q59 0 102 -43t43 -102q0 -60 -43 -103t-102 -43z" />
    <glyph glyph-name="emdash" unicode="&#x2014;" horiz-adv-x="1839" 
d="M1604 489h-1368q-60 0 -103 43t-43 103q0 59 43 102t103 43h1368q59 0 102 -43t43 -102q0 -60 -43 -103t-102 -43z" />
    <glyph glyph-name="quoteleft" unicode="&#x2018;" horiz-adv-x="585" 
d="M537 1374q0 -52 -62 -67q-164 -41 -158 -195q144 -38 144 -168v-4q0 -74 -47 -121t-123 -47q-86 0 -133 62q-49 61 -49 167v9q0 216 120 336q98 98 230 98q78 0 78 -70z" />
    <glyph glyph-name="quoteright" unicode="&#x2019;" horiz-adv-x="585" 
d="M49 844q0 52 62 67q163 40 157 195q-143 37 -143 168v4q0 74 47 121t123 47q85 0 135 -62q47 -62 47 -167v-9q0 -215 -121 -336q-98 -98 -229 -98q-78 0 -78 70z" />
    <glyph glyph-name="quotesinglbase" unicode="&#x201a;" horiz-adv-x="585" 
d="M39 -262q0 52 61 67q164 41 158 195q-143 37 -143 168v4q0 74 47 121t123 47q86 0 135 -61q47 -62 47 -168v-9q0 -214 -121 -335q-99 -99 -229 -99q-78 0 -78 70z" />
    <glyph glyph-name="quotedblleft" unicode="&#x201c;" horiz-adv-x="1105" 
d="M1057 1374q0 -52 -62 -67q-163 -40 -157 -195q143 -37 143 -168v-4q0 -74 -47 -121t-123 -47q-86 0 -133 62q-49 61 -49 167v9q0 215 121 336q98 98 229 98q78 0 78 -70zM537 1374q0 -52 -62 -67q-164 -41 -158 -195q144 -38 144 -168v-4q0 -74 -47 -121t-123 -47
q-86 0 -133 62q-49 61 -49 167v9q0 216 120 336q98 98 230 98q78 0 78 -70z" />
    <glyph glyph-name="quotedblright" unicode="&#x201d;" horiz-adv-x="1105" 
d="M49 844q0 52 62 67q163 40 157 195q-143 37 -143 168v4q0 74 47 121t123 47q85 0 135 -62q47 -62 47 -167v-9q0 -215 -121 -336q-98 -98 -229 -98q-78 0 -78 70zM569 844q0 52 62 67q163 40 157 195q-143 37 -143 168v4q0 74 47 121t123 47q85 0 135 -62q47 -62 47 -167
v-9q0 -216 -120 -336q-98 -98 -230 -98q-78 0 -78 70z" />
    <glyph glyph-name="quotedblbase" unicode="&#x201e;" horiz-adv-x="1105" 
d="M39 -262q0 52 61 67q164 41 158 195q-143 37 -143 168v4q0 74 47 121t123 47q86 0 135 -61q47 -62 47 -168v-9q0 -214 -121 -335q-99 -99 -229 -99q-78 0 -78 70zM559 -262q0 52 62 67q163 40 157 195q-143 37 -143 168v4q0 74 47 121t123 47q86 0 135 -61
q47 -62 47 -168v-9q0 -214 -121 -335q-99 -99 -229 -99q-78 0 -78 70z" />
    <glyph glyph-name="dagger" unicode="&#x2020;" horiz-adv-x="839" 
d="M336 565l18 475l-170 -14q-34 -3 -61 21t-27 59t25 57q27 24 61 21l170 -15l-18 179q-3 43 22 71q24 27 64 27q39 0 63 -27q26 -29 23 -71l-19 -179l170 15q35 3 62 -21q24 -21 24 -57q0 -35 -24 -59q-30 -24 -64 -21l-170 14l19 -473q3 -36 -23 -65q-24 -27 -61 -27
q-38 0 -62 27q-25 25 -22 63z" />
    <glyph glyph-name="daggerdbl" unicode="&#x2021;" horiz-adv-x="880" 
d="M354 86l19 178l-170 -14q-36 -3 -62 20q-24 21 -24 58q0 36 26 59q27 24 62 21l168 -15l-19 324l19 323l-168 -14q-35 -3 -62 21q-26 23 -26 59t24 57q27 24 62 21l170 -15l-19 179q-3 42 23 71q24 27 63 27q40 0 64 -27q25 -28 22 -71l-18 -179l170 15q34 3 61 -21
q25 -22 25 -57q0 -34 -25 -59q-30 -24 -63 -21l-168 14l18 -323l-18 -324l168 15q33 3 63 -21q25 -25 25 -59q0 -36 -25 -58q-26 -23 -61 -20l-170 14l18 -178q3 -45 -22 -70q-25 -28 -64 -28q-38 0 -63 28q-26 26 -23 70z" />
    <glyph glyph-name="bullet" unicode="&#x2022;" 
d="M512 416q-127 0 -215 88q-90 90 -90 215v4q0 125 90 215q88 88 215 88t215 -88q90 -90 90 -215v-4q0 -125 -90 -215q-88 -88 -215 -88z" />
    <glyph glyph-name="ellipsis" unicode="&#x2026;" horiz-adv-x="1720" 
d="M1257 162v4q0 72 50 125q49 49 125 49q75 0 124 -49q50 -53 50 -125v-4q0 -73 -50 -123q-48 -51 -124 -51q-77 0 -125 51q-50 50 -50 123zM686 162v4q0 73 49 125q49 49 125 49t125 -49q49 -52 49 -125v-4q0 -74 -49 -123q-48 -51 -125 -51t-125 51q-49 49 -49 123z
M115 162v4q0 73 49 125q49 49 125 49t125 -49q49 -52 49 -125v-4q0 -74 -49 -123q-48 -51 -125 -51t-125 51q-49 49 -49 123z" />
    <glyph glyph-name="perthousand" unicode="&#x2030;" horiz-adv-x="2539" 
d="M438 717q-153 0 -250 106q-96 104 -96 256v4q0 153 96 260q101 107 254 107q152 0 250 -107q96 -104 96 -256v-4q0 -151 -96 -258q-102 -108 -254 -108zM322 84q0 30 22 66l916 1253q30 43 83 43q39 0 68 -29t29 -67q0 -36 -23 -66l-915 -1253q-30 -43 -84 -43
q-40 0 -68 28t-28 68zM2097 -16q-153 0 -250 106q-96 104 -96 256v4q0 153 96 260q101 107 254 107q152 0 250 -107q96 -104 96 -256v-4q0 -151 -96 -258q-102 -108 -254 -108zM1319 -16q-153 0 -250 106q-96 104 -96 256v4q0 153 96 260q101 107 254 107q152 0 250 -107
q96 -104 96 -256v-4q0 -151 -96 -258q-102 -108 -254 -108zM442 903q61 0 99 53q32 46 32 123v4q0 77 -36 127q-42 54 -99 54q-59 0 -98 -54q-33 -47 -33 -123v-4q0 -75 37 -127q41 -53 98 -53zM2101 170q61 0 99 53q32 46 32 123v4q0 75 -37 127q-41 53 -98 53
q-60 0 -98 -53q-33 -47 -33 -123v-4q0 -75 37 -127q41 -53 98 -53zM1323 170q60 0 98 53q33 47 33 123v4q0 75 -37 127q-41 53 -98 53q-60 0 -98 -53q-33 -47 -33 -123v-4q0 -75 37 -127q41 -53 98 -53z" />
    <glyph glyph-name="guilsinglleft" unicode="&#x2039;" horiz-adv-x="763" 
d="M500 84q-66 0 -107 53l-256 328q-35 47 -35 84t35 84l248 317q47 62 117 62q52 0 88 -39q35 -38 35 -90q0 -40 -35 -84l-199 -248l205 -256q31 -42 31 -82q0 -52 -37 -92q-37 -37 -90 -37z" />
    </font>
</defs>
</svg>
