<?xml version="1.0" standalone="no"?>
<!DOCTYPE svg PUBLIC "-//W3C//DTD SVG 1.1//EN" "http://www.w3.org/Graphics/SVG/1.1/DTD/svg11.dtd" >
<svg xmlns="http://www.w3.org/2000/svg" xmlns:xlink="http://www.w3.org/1999/xlink" version="1.1">
<metadata>
Created by FontForge 20170731 at Mon May  9 11:54:13 2022
 By Aleksey,,,
Copyright (C) 2006, 2007 Hoefler &#38; Frere-Jones. http://www.typography.com
</metadata>
<defs>
<font id="iCielGothamRounded-BoldItalic" horiz-adv-x="1024" >
  <font-face 
    font-family="iCiel Gotham Rounded Bold"
    font-weight="400"
    font-style="italic"
    font-stretch="normal"
    units-per-em="2048"
    panose-1="0 0 0 0 0 0 0 0 0 0"
    ascent="1638"
    descent="-410"
    x-height="1098"
    cap-height="1446"
    bbox="-760 -608 2554 2292"
    underline-thickness="102"
    underline-position="-307"
    slope="-15"
    unicode-range="U+0020-FB04"
  />
<missing-glyph 
d="M0 -410v2048h1024v-2048h-1024zM145 1536l367 -799l367 799h-734zM102 -156l353 770l-353 770v-1540zM922 1384l-353 -770l353 -770v1540zM512 492l-367 -799h734z" />
    <glyph glyph-name="uniFB00" unicode="ff" horiz-adv-x="1683" 
d="M586 831l-187 -686q-41 -157 -174 -157q-79 0 -114 53q-38 59 -11 152l174 638q-114 18 -114 134q0 57 37 94q39 39 92 39h55l14 59q91 352 445 352q57 0 94 -6q102 -18 102 -119q0 -72 -43 -112q-39 -39 -94 -29q-46 4 -49 4q-120 0 -154 -119l-8 -30h111q53 0 92 -39
q37 -37 37 -94q0 -58 -37 -95q-39 -39 -92 -39h-176zM1427 831l-186 -686q-41 -157 -174 -157q-80 0 -115 53q-37 58 -10 152l174 638q-115 18 -115 134q0 57 37 94q39 39 92 39h56l14 59q91 352 445 352q57 0 94 -6q102 -18 102 -119q0 -72 -43 -112q-39 -39 -94 -29
q-46 4 -49 4q-120 0 -154 -119l-8 -30h111q53 0 92 -39q37 -37 37 -94q0 -58 -37 -95q-39 -39 -92 -39h-177z" />
    <glyph glyph-name="uniFB01" unicode="fi" horiz-adv-x="1460" 
d="M586 831l-187 -686q-41 -157 -174 -157q-79 0 -114 53q-38 59 -11 152l174 638q-114 18 -114 134q0 57 37 94q39 39 92 39h55l14 59q91 352 445 352q57 0 94 -6q102 -18 102 -119q0 -72 -43 -112q-39 -39 -94 -29q-46 4 -49 4q-120 0 -154 -119l-8 -30h111q53 0 92 -39
q37 -37 37 -94q0 -58 -37 -95q-39 -39 -92 -39h-176zM1405 905l-205 -760q-41 -157 -174 -157q-80 0 -115 53q-37 58 -10 152l205 759q41 158 174 158q80 0 115 -53q37 -58 10 -152zM1546 1362l-2 -10q-30 -144 -201 -144q-72 0 -116 41q-45 40 -33 103l2 10q30 143 201 143
q72 0 119 -41q42 -39 30 -102z" />
    <glyph glyph-name="uniFB02" unicode="fl" horiz-adv-x="1460" 
d="M586 831l-187 -686q-41 -157 -174 -157q-79 0 -114 53q-38 59 -11 152l174 638q-114 18 -114 134q0 57 37 94q39 39 92 39h55l14 59q91 352 445 352q57 0 94 -6q102 -18 102 -119q0 -72 -43 -112q-39 -39 -94 -29q-46 4 -49 4q-120 0 -154 -119l-8 -30h111q53 0 92 -39
q37 -37 37 -94q0 -58 -37 -95q-39 -39 -92 -39h-176zM1511 1303l-311 -1158q-41 -157 -174 -157q-80 0 -115 53q-37 58 -10 152l311 1157q41 157 174 157q80 0 115 -53q37 -57 10 -151z" />
    <glyph glyph-name="uniFB03" unicode="ffi" horiz-adv-x="2301" 
d="M586 831l-187 -686q-41 -157 -174 -157q-79 0 -114 53q-38 59 -11 152l174 638q-114 18 -114 134q0 57 37 94q39 39 92 39h55l14 59q91 352 445 352q57 0 94 -6q102 -18 102 -119q0 -72 -43 -112q-39 -39 -94 -29q-46 4 -49 4q-120 0 -154 -119l-8 -30h111q53 0 92 -39
q37 -37 37 -94q0 -58 -37 -95q-39 -39 -92 -39h-176zM1427 831l-186 -686q-41 -157 -174 -157q-80 0 -115 53q-37 58 -10 152l174 638q-115 18 -115 134q0 57 37 94q39 39 92 39h56l14 59q91 352 445 352q57 0 94 -6q102 -18 102 -119q0 -72 -43 -112q-39 -39 -94 -29
q-46 4 -49 4q-120 0 -154 -119l-8 -30h111q53 0 92 -39q37 -37 37 -94q0 -58 -37 -95q-39 -39 -92 -39h-177zM2247 905l-205 -760q-41 -157 -174 -157q-80 0 -115 53q-37 58 -10 152l205 759q41 158 174 158q79 0 114 -53q38 -59 11 -152zM2388 1362l-2 -10
q-30 -144 -201 -144q-73 0 -117 41q-45 39 -32 103l2 10q30 143 200 143q72 0 119 -41q43 -40 31 -102z" />
    <glyph glyph-name="uniFB04" unicode="ffl" horiz-adv-x="2301" 
d="M586 831l-187 -686q-41 -157 -174 -157q-79 0 -114 53q-38 59 -11 152l174 638q-114 18 -114 134q0 57 37 94q39 39 92 39h55l14 59q91 352 445 352q57 0 94 -6q102 -18 102 -119q0 -72 -43 -112q-39 -39 -94 -29q-46 4 -49 4q-120 0 -154 -119l-8 -30h111q53 0 92 -39
q37 -37 37 -94q0 -58 -37 -95q-39 -39 -92 -39h-176zM1427 831l-186 -686q-41 -157 -174 -157q-80 0 -115 53q-37 58 -10 152l174 638q-115 18 -115 134q0 57 37 94q39 39 92 39h56l14 59q91 352 445 352q57 0 94 -6q102 -18 102 -119q0 -72 -43 -112q-39 -39 -94 -29
q-46 4 -49 4q-120 0 -154 -119l-8 -30h111q53 0 92 -39q37 -37 37 -94q0 -58 -37 -95q-39 -39 -92 -39h-177zM2353 1303l-311 -1158q-41 -157 -174 -157q-80 0 -115 53q-37 58 -10 152l311 1157q41 157 174 157q80 0 115 -53q37 -57 10 -151z" />
    <glyph glyph-name=".notdef" 
d="M0 -410v2048h1024v-2048h-1024zM145 1536l367 -799l367 799h-734zM102 -156l353 770l-353 770v-1540zM922 1384l-353 -770l353 -770v1540zM512 492l-367 -799h734z" />
    <glyph glyph-name=".null" horiz-adv-x="0" 
 />
    <glyph glyph-name="nonmarkingreturn" unicode=" " horiz-adv-x="614" 
 />
    <glyph glyph-name="exclam" unicode="!" horiz-adv-x="665" 
d="M717 1335l-293 -782q-31 -78 -102 -78q-95 0 -80 100l123 760q18 105 106 105h186q43 0 58 -31q17 -29 2 -74zM403 170l-2 -12q-12 -75 -67 -121q-55 -49 -133 -49q-80 0 -123 49q-43 46 -31 121l2 12q30 170 201 170q80 0 123 -49q42 -45 30 -121z" />
    <glyph glyph-name="quotedbl" unicode="&#x22;" horiz-adv-x="1081" 
d="M647 1292l-248 -446q-44 -78 -110 -78q-41 0 -56 27q-17 26 -8 67l115 438q41 142 158 142h92q66 0 78 -49q9 -46 -21 -101zM1143 1292l-248 -446q-44 -78 -111 -78q-40 0 -55 27q-17 26 -8 67l115 438q41 142 157 142h92q66 0 78 -49q9 -47 -20 -101z" />
    <glyph glyph-name="numbersign" unicode="#" horiz-adv-x="1415" 
d="M561 569h277l104 303h-276zM817 1305l-59 -170h276l72 202q41 109 151 109q61 0 95 -43q33 -42 12 -98l-59 -170h24q53 0 92 -39t39 -92q0 -54 -39 -93t-92 -39h-117l-104 -303h47q53 0 92 -39t39 -92t-39 -92t-92 -39h-139l-74 -211q-38 -108 -147 -108q-61 0 -95 43
q-37 43 -16 98l61 178h-276l-74 -211q-37 -108 -147 -108q-61 0 -96 41q-36 42 -15 100l62 178h-23q-53 0 -92 39t-39 92t39 92t92 39h115l104 303h-47q-53 0 -92 39t-39 93q0 53 39 92t92 39h139l72 202q41 109 148 109q62 0 96 -43q35 -44 14 -98z" />
    <glyph glyph-name="dollar" unicode="$" horiz-adv-x="1302" 
d="M369 -74l28 94q-180 39 -305 138q-65 50 -65 127q0 63 43 106q46 43 110 43q50 0 103 -41q91 -76 202 -106l97 317q-171 65 -242 133q-98 94 -98 246q0 193 164 322q163 129 401 129h16l8 24q37 107 119 107q56 0 80 -35q24 -40 6 -103l-6 -20q107 -26 211 -98
q76 -52 76 -125q0 -66 -45 -105q-46 -43 -111 -43q-48 0 -104 39q-55 39 -113 62l-92 -306q330 -124 330 -380q0 -201 -168 -326q-162 -125 -408 -125h-2l-33 -106q-37 -107 -118 -107q-57 0 -78 37q-24 38 -6 102zM674 899l80 264q-189 -12 -189 -147q0 -67 109 -117z
M758 537l-82 -267q182 15 182 148q0 73 -100 119z" />
    <glyph glyph-name="percent" unicode="%" horiz-adv-x="1802" 
d="M487 709q-141 0 -229 88q-86 86 -86 227q0 167 111 293q115 133 286 133q142 0 230 -88q86 -86 86 -227q0 -166 -109 -293q-118 -133 -289 -133zM1321 -16q-141 0 -229 88q-86 86 -86 227q0 168 110 293q115 133 287 133q141 0 229 -88q86 -86 86 -227q0 -167 -108 -293
q-118 -133 -289 -133zM500 887q79 0 135 80q49 70 49 159q0 146 -127 146q-79 0 -135 -80q-49 -70 -49 -160q0 -145 127 -145zM1333 162q79 0 135 80q50 71 50 159q0 146 -127 146q-80 0 -136 -80q-49 -70 -49 -160q0 -145 127 -145zM1618 1278l-1202 -1251q-39 -39 -84 -39
q-94 0 -94 90q0 44 34 78l1203 1251q39 39 84 39q94 0 94 -90q0 -43 -35 -78z" />
    <glyph glyph-name="ampersand" unicode="&#x26;" horiz-adv-x="1425" 
d="M713 893q235 85 235 203q0 47 -33 80q-33 36 -96 36q-74 0 -121 -47q-45 -45 -45 -110q0 -71 60 -162zM537 238q116 0 264 92l-221 303q-236 -91 -236 -250q0 -62 49 -102q52 -43 144 -43zM1024 33l-76 102q-224 -155 -446 -155q-202 0 -328 102q-127 106 -127 283
q0 311 406 446q-76 131 -76 248q0 164 123 278q133 121 334 121q176 0 286 -98q109 -95 109 -246q0 -265 -385 -397l160 -213q20 21 116 137q56 68 111 68q115 0 115 -101q0 -43 -25 -82q-76 -110 -170 -211l70 -96q47 -65 47 -104q0 -58 -39 -97q-35 -38 -96 -38
q-68 0 -109 53z" />
    <glyph glyph-name="quotesingle" unicode="'" horiz-adv-x="585" 
d="M647 1292l-248 -446q-44 -78 -110 -78q-41 0 -56 27q-17 26 -8 67l115 438q41 142 158 142h92q66 0 78 -49q9 -46 -21 -101z" />
    <glyph glyph-name="parenleft" unicode="(" horiz-adv-x="911" 
d="M633 -33q39 -45 39 -106q0 -58 -39 -94q-39 -39 -101 -39q-63 0 -110 41q-303 288 -303 659q0 652 729 1002q38 18 76 18q55 0 92 -37q35 -38 35 -94q0 -80 -86 -127q-531 -292 -531 -752q0 -229 199 -471z" />
    <glyph glyph-name="parenright" unicode=")" horiz-adv-x="911" 
d="M299 1208q-39 45 -39 107q0 58 39 94q39 39 100 39q64 0 111 -41q303 -288 303 -659q0 -652 -729 -1002q-38 -18 -76 -18q-57 0 -90 36q-37 37 -37 95q0 80 86 127q531 292 531 751q0 229 -199 471z" />
    <glyph glyph-name="asterisk" unicode="*" horiz-adv-x="880" 
d="M602 997l-22 -163q-9 -78 -80 -78q-43 0 -62 32q-21 34 -2 76l66 160l-152 -61q-34 -15 -55 -15q-71 0 -74 74q-3 71 72 80l180 24l-139 109q-41 30 -41 70q0 77 80 77q41 0 67 -36l109 -144l22 164q9 78 78 78q49 0 66 -33q18 -35 -2 -80l-64 -155l152 61q30 12 61 12
q65 0 68 -69q3 -75 -72 -84l-180 -23l139 -108q41 -30 41 -70q0 -78 -80 -78q-40 0 -67 37z" />
    <glyph glyph-name="plus" unicode="+" horiz-adv-x="1310" 
d="M809 580l-59 -224q-41 -157 -166 -157q-73 0 -107 49q-33 50 -8 147l49 185h-203q-56 0 -100 41q-41 44 -41 100q0 59 41 100q44 41 100 41h279l59 223q41 158 166 158q73 0 107 -49q33 -50 8 -147l-49 -185h202q60 0 101 -41t41 -100q0 -56 -41 -100q-41 -41 -101 -41
h-278z" />
    <glyph glyph-name="comma" unicode="," horiz-adv-x="653" 
d="M-66 -193q198 41 213 193q-122 34 -98 164l2 10q34 166 191 166q89 0 129 -61q38 -55 16 -168l-2 -11q-40 -202 -195 -329q-124 -103 -253 -103q-74 0 -74 68q0 56 71 71z" />
    <glyph glyph-name="hyphen" unicode="-" horiz-adv-x="843" 
d="M625 485h-357q-62 0 -104 45q-45 42 -45 105q0 61 45 106q43 43 104 43h357q60 0 106 -43q43 -46 43 -106q0 -62 -43 -105q-45 -45 -106 -45z" />
    <glyph glyph-name="period" unicode="." horiz-adv-x="653" 
d="M399 170l-2 -12q-12 -75 -67 -121q-55 -49 -133 -49q-80 0 -123 49q-43 46 -31 121l2 12q30 170 201 170q80 0 123 -49q42 -45 30 -121z" />
    <glyph glyph-name="slash" unicode="/" horiz-adv-x="1085" 
d="M-129 -61l1196 1626q58 82 137 82q105 0 105 -103q0 -48 -45 -110l-1196 -1627q-57 -81 -138 -81q-104 0 -104 102q0 49 45 111z" />
    <glyph glyph-name="zero" unicode="0" horiz-adv-x="1495" 
d="M686 -25q-252 0 -405 164q-154 165 -154 432q0 338 203 600q222 287 565 287q253 0 405 -162q154 -165 154 -434q0 -338 -203 -600q-222 -287 -565 -287zM711 260q179 0 305 203q114 185 114 401q0 149 -71 232q-69 78 -189 78q-179 0 -305 -203q-114 -185 -114 -402
q0 -148 71 -231q69 -78 189 -78z" />
    <glyph glyph-name="one" unicode="1" horiz-adv-x="888" 
d="M850 1284l-305 -1139q-41 -157 -174 -157q-80 0 -115 53q-37 58 -10 152l250 927l-121 -28q-35 -5 -37 -5q-53 0 -86 33q-39 33 -39 97q0 111 111 141l249 69q95 27 154 27h2q71 0 105 -49t16 -121z" />
    <glyph glyph-name="two" unicode="2" horiz-adv-x="1257" 
d="M926 0h-787q-170 0 -170 139q0 90 82 148l682 471q209 144 209 266q0 147 -180 147q-141 0 -268 -112q-48 -45 -107 -45t-100 41q-39 42 -39 102q0 64 51 109q203 188 477 188q222 0 357 -111q133 -112 133 -284q0 -247 -338 -484l-443 -303h441q55 0 96 -41t41 -96
t-41 -96q-39 -39 -96 -39z" />
    <glyph glyph-name="three" unicode="3" horiz-adv-x="1236" 
d="M49 137q-53 53 -53 113q0 61 45 106t106 45q56 0 101 -39q116 -104 262 -104q113 0 192 61q78 60 78 140q0 170 -280 170h-6q-115 0 -115 119q0 61 70 116l372 299h-383q-53 0 -94 41t-41 94q0 56 41 97q39 39 94 39h692q160 0 160 -129q0 -81 -108 -164l-389 -297
q305 -74 305 -357q0 -217 -172 -364q-177 -148 -430 -148q-292 0 -447 162z" />
    <glyph glyph-name="four" unicode="4" horiz-adv-x="1349" 
d="M432 565h365l123 459zM1024 309l-43 -164q-41 -157 -168 -157q-73 0 -108 53q-35 60 -9 152l31 116h-545q-64 0 -108 35q-45 36 -45 98q0 96 84 174l805 734q115 106 233 106q75 0 115 -43q41 -47 22 -119l-194 -729h41q52 0 92 -37q37 -40 37 -92q0 -53 -37 -90
q-40 -37 -92 -37h-111z" />
    <glyph glyph-name="five" unicode="5" horiz-adv-x="1249" 
d="M86 125q-63 51 -63 123q0 60 43 106q40 43 102 43q51 0 106 -43q118 -92 265 -92q125 0 209 66q81 63 81 157q0 80 -63 131q-69 54 -191 54q-45 0 -98 -15q-49 -14 -71 -14q-62 0 -127 53q-71 53 -43 137l159 482q41 121 150 121h592q57 0 98 -41t41 -99q0 -55 -41 -96
t-98 -41h-494l-82 -244q87 17 146 17q198 0 321 -111q125 -113 125 -299q0 -224 -174 -379q-182 -164 -467 -164q-240 0 -426 148z" />
    <glyph glyph-name="six" unicode="6" horiz-adv-x="1316" 
d="M1264 1368q71 -41 71 -129q0 -62 -43 -102q-43 -43 -102 -43q-42 0 -96 32q-95 50 -199 50q-166 0 -279 -113q-100 -100 -147 -252q121 121 330 121q187 0 307 -105q129 -108 129 -295q0 -221 -172 -387q-176 -170 -422 -170q-242 0 -373 131q-147 147 -147 404
q0 453 280 733q215 215 521 215q186 0 342 -90zM641 242q118 0 201 77q76 73 76 170q0 84 -60 138q-57 51 -156 51q-124 0 -204 -74q-78 -72 -78 -172q0 -76 53 -129q61 -61 168 -61z" />
    <glyph glyph-name="seven" unicode="7" horiz-adv-x="1247" 
d="M1253 1149l-811 -1063q-76 -98 -170 -98q-133 0 -133 121q0 65 49 129l721 923h-497q-58 0 -97 39q-41 41 -41 96q0 56 41 97t97 41h768q145 0 145 -117q0 -78 -72 -168z" />
    <glyph glyph-name="eight" unicode="8" horiz-adv-x="1355" 
d="M614 -20q-230 0 -385 110q-163 114 -163 295q0 303 366 391q-174 88 -174 277q0 156 135 270q149 131 404 131q222 0 366 -108q142 -109 142 -277q0 -281 -314 -358q219 -83 219 -305q0 -171 -157 -295q-168 -131 -439 -131zM774 852q102 0 168 51q65 53 68 127
q3 69 -58 117q-61 49 -170 49q-98 0 -164 -51q-66 -48 -69 -125q-3 -72 59 -119q64 -49 166 -49zM631 233q116 0 192 52q77 53 80 137q3 76 -69 127q-73 49 -191 49q-115 0 -192 -53q-75 -51 -78 -133q-3 -76 69 -127q70 -52 189 -52z" />
    <glyph glyph-name="nine" unicode="9" horiz-adv-x="1316" 
d="M498 -25q-199 0 -355 99q-84 53 -84 135q0 61 43 104q44 41 103 41q42 0 96 -32q122 -64 213 -64q164 0 281 117q92 92 139 231q-119 -119 -326 -119q-186 0 -307 103q-129 111 -129 303q0 236 172 399q175 166 422 166q246 0 375 -129q147 -147 147 -434
q0 -420 -287 -707q-213 -213 -503 -213zM709 741q123 0 202 76q76 70 76 178q0 84 -51 135q-62 62 -168 62q-124 0 -203 -76q-76 -76 -76 -182q0 -90 62 -143q59 -50 158 -50z" />
    <glyph glyph-name="colon" unicode=":" horiz-adv-x="653" 
d="M399 170l-2 -12q-12 -75 -67 -121q-55 -49 -133 -49q-80 0 -123 49q-43 46 -31 121l2 12q30 170 201 170q80 0 123 -49q42 -45 30 -121zM606 940l-2 -12q-12 -75 -67 -121q-55 -49 -134 -49t-122 49q-43 46 -31 121l2 12q30 170 201 170q79 0 122 -49q43 -46 31 -121z
" />
    <glyph glyph-name="semicolon" unicode=";" horiz-adv-x="653" 
d="M-66 -193q198 41 213 193q-122 34 -98 164l2 10q34 166 191 166q89 0 129 -61q38 -55 16 -168l-2 -11q-40 -202 -195 -329q-124 -103 -253 -103q-74 0 -74 68q0 56 71 71zM608 940l-2 -12q-12 -75 -67 -121q-55 -49 -133 -49q-80 0 -123 49q-43 46 -31 121l2 12
q30 170 201 170q80 0 123 -49q42 -45 30 -121z" />
    <glyph glyph-name="less" unicode="&#x3c;" horiz-adv-x="1310" 
d="M311 895l783 322q46 18 80 18q116 0 116 -111q0 -92 -84 -127l-727 -288l520 -258q84 -41 84 -125q0 -60 -36 -99q-41 -41 -99 -41q-36 0 -76 19l-563 295q-137 73 -137 188v12q0 136 139 195z" />
    <glyph glyph-name="equal" unicode="=" horiz-adv-x="1310" 
d="M1133 846h-711q-56 0 -100 41q-41 44 -41 100q0 59 41 100q44 41 100 41h711q59 0 100 -41t41 -100q0 -56 -41 -100q-41 -41 -100 -41zM989 313h-710q-57 0 -101 41q-41 44 -41 101q0 59 41 100q44 41 101 41h710q60 0 101 -41q40 -40 40 -100q0 -58 -40 -101
q-41 -41 -101 -41z" />
    <glyph glyph-name="greater" unicode="&#x3e;" horiz-adv-x="1310" 
d="M1085 547l-782 -322q-47 -18 -80 -18q-117 0 -117 110q0 92 84 127l728 289l-521 258q-84 44 -84 125q0 58 37 98q41 41 99 41q37 0 75 -18l563 -295q138 -74 138 -188v-13q0 -135 -140 -194z" />
    <glyph glyph-name="question" unicode="?" horiz-adv-x="1114" 
d="M442 1104q-65 -35 -106 -35q-54 0 -90 39q-35 38 -35 84q0 79 70 131q179 129 415 129q211 0 336 -113q121 -109 121 -260q0 -366 -524 -448l-23 -56q-40 -100 -131 -100h-16q-98 0 -86 107l18 155q9 87 133 105q299 44 299 196q0 127 -170 127q-98 0 -211 -61zM561 170
l-2 -12q-12 -75 -67 -121q-55 -49 -134 -49t-122 49q-43 46 -31 121l2 12q30 170 201 170q79 0 122 -49q43 -46 31 -121z" />
    <glyph glyph-name="at" unicode="@" horiz-adv-x="2007" 
d="M944 338q105 0 195 96q88 98 88 230q0 76 -49 122q-51 48 -129 48q-107 0 -191 -93q-86 -95 -86 -227q0 -176 172 -176zM1399 -225q-204 -92 -434 -92q-377 0 -615 223q-237 220 -237 571q0 399 288 690q294 297 709 297q369 0 608 -213q221 -200 221 -491
q0 -304 -151 -475q-134 -152 -334 -152q-214 0 -285 158q-157 -160 -327 -160q-142 0 -232 90q-98 94 -98 256q0 241 162 406q153 159 352 159q180 0 268 -143l2 6q44 123 140 123q56 0 86 -41q33 -44 12 -108l-135 -426q-35 -109 2 -166q34 -58 117 -58q120 0 223 136
q112 150 112 395q0 259 -198 436q-210 186 -545 186q-383 0 -649 -272q-264 -267 -264 -633q0 -314 215 -514q213 -201 553 -201q202 0 391 80q18 6 24 6q39 0 39 -38q0 -26 -20 -35z" />
    <glyph glyph-name="A" unicode="A" horiz-adv-x="1566" 
d="M621 600h397l-74 473zM1208 1307l193 -1086q10 -78 10 -82q0 -64 -45 -106q-45 -45 -117 -45q-135 0 -153 125l-33 209h-635l-164 -236q-70 -98 -160 -98q-129 0 -129 123q0 55 37 104l797 1118q85 123 221 123h6q145 0 172 -149z" />
    <glyph glyph-name="B" unicode="B" horiz-adv-x="1468" 
d="M561 854h318q258 0 258 174q0 129 -199 129h-297zM406 276h370q119 0 187 50q69 46 69 131q0 135 -196 135h-347zM729 0h-522q-80 0 -115 53q-36 57 -12 152l287 1071q41 158 176 158h424q242 0 368 -105q117 -95 117 -248q0 -287 -307 -354q201 -95 201 -291
q0 -195 -160 -313q-167 -123 -457 -123z" />
    <glyph glyph-name="C" unicode="C" horiz-adv-x="1486" 
d="M1280 129q-183 -154 -467 -154q-299 0 -485 168q-191 176 -191 457q0 344 256 600q258 258 617 258q282 0 473 -176q65 -62 65 -133q0 -68 -47 -115q-46 -49 -115 -49q-71 0 -110 45q-125 137 -305 137q-200 0 -350 -163q-156 -167 -156 -392q0 -156 98 -250
q101 -96 252 -96q125 0 270 92q58 37 107 37q62 0 102 -43q41 -47 41 -106q0 -71 -55 -117z" />
    <glyph glyph-name="D" unicode="D" horiz-adv-x="1591" 
d="M416 285h178q305 0 479 174q144 144 144 358q0 143 -84 227q-105 105 -330 105h-154zM543 1434h284q377 0 562 -185q155 -155 155 -420q0 -330 -235 -565q-264 -264 -752 -264h-350q-80 0 -115 53q-36 57 -12 152l287 1071q41 158 176 158z" />
    <glyph glyph-name="E" unicode="E" horiz-adv-x="1361" 
d="M1014 0h-807q-80 0 -115 53q-36 57 -12 152l287 1071q41 158 176 158h770q59 0 100 -41t41 -101q0 -57 -41 -98t-100 -41h-666l-78 -293h498q59 0 100 -41t41 -98t-41 -98q-39 -39 -100 -39h-573l-82 -303h602q59 0 100 -41t41 -101q0 -57 -41 -98t-100 -41z" />
    <glyph glyph-name="F" unicode="F" horiz-adv-x="1357" 
d="M543 1434h788q59 0 103 -41q41 -44 41 -103q0 -58 -41 -102q-44 -41 -103 -41h-684l-82 -305h514q59 0 103 -41q41 -44 41 -103q0 -58 -41 -102q-44 -41 -103 -41h-590l-110 -410q-41 -157 -176 -157q-80 0 -115 53q-36 57 -12 152l291 1083q41 158 176 158z" />
    <glyph glyph-name="G" unicode="G" horiz-adv-x="1597" 
d="M1475 623l-113 -396q-29 -109 -127 -164q-169 -88 -426 -88q-269 0 -459 152q-215 170 -215 471q0 344 254 598q262 262 641 262q326 0 500 -160q63 -54 63 -127q0 -65 -45 -110t-110 -45q-55 0 -99 33q-153 120 -333 120q-230 0 -388 -168q-155 -165 -155 -393
q0 -163 106 -256q101 -88 260 -88q134 0 256 55l68 234h-176q-57 0 -96 39q-41 41 -41 96t41 96t96 41h371q79 0 116 -55q38 -56 11 -147z" />
    <glyph glyph-name="H" unicode="H" horiz-adv-x="1548" 
d="M1563 1241l-295 -1096q-41 -157 -176 -157q-80 0 -115 53q-36 57 -12 152l104 382h-573l-117 -430q-41 -157 -176 -157q-80 0 -115 53q-36 57 -12 152l295 1095q41 158 176 158q79 0 117 -53q34 -58 10 -152l-101 -375h574l113 422q41 158 176 158q78 0 116 -53
q35 -59 11 -152z" />
    <glyph glyph-name="I" unicode="I" horiz-adv-x="688" 
d="M688 1241l-295 -1096q-41 -157 -176 -157q-80 0 -115 53q-36 57 -12 152l295 1095q41 158 176 158q79 0 117 -53q34 -58 10 -152z" />
    <glyph glyph-name="J" unicode="J" horiz-adv-x="1177" 
d="M1202 1241l-180 -672q-82 -309 -209 -436q-153 -153 -428 -153q-220 0 -367 129q-57 51 -57 120q0 64 43 107q42 45 105 45q53 0 108 -43q81 -66 186 -66q119 0 199 80q64 64 125 293l172 643q41 158 176 158q79 0 117 -53q34 -58 10 -152z" />
    <glyph glyph-name="K" unicode="K" horiz-adv-x="1472" 
d="M444 391l-65 -246q-41 -157 -176 -157q-80 0 -115 53q-36 57 -12 152l295 1095q41 158 176 158q79 0 117 -53q34 -58 10 -152l-119 -442l698 585q74 62 131 62q64 0 105 -41q39 -39 39 -100q0 -71 -55 -117l-461 -377l254 -580q24 -59 24 -102q0 -64 -49 -104
q-46 -37 -108 -37q-114 0 -160 110l-219 537z" />
    <glyph glyph-name="L" unicode="L" horiz-adv-x="1282" 
d="M965 0h-758q-80 0 -115 53q-36 57 -12 152l291 1083q41 158 176 158q79 0 117 -53q34 -58 10 -152l-256 -954h547q59 0 100 -41q41 -44 41 -103q0 -61 -41 -102t-100 -41z" />
    <glyph glyph-name="M" unicode="M" horiz-adv-x="1777" 
d="M1636 1442h29q80 0 115 -53q37 -58 10 -152l-293 -1092q-41 -157 -178 -157q-79 0 -117 53q-36 57 -12 152l176 661l-352 -383q-82 -94 -172 -94q-91 0 -135 115l-138 360l-190 -707q-41 -157 -176 -157q-80 0 -115 53q-36 57 -12 152l293 1089q44 160 180 160h18
q111 0 160 -129l217 -574l506 604q86 99 186 99z" />
    <glyph glyph-name="N" unicode="N" horiz-adv-x="1609" 
d="M1120 522l207 766q41 158 174 158q80 0 115 -53q37 -58 10 -152l-297 -1102q-41 -147 -170 -147h-6q-125 0 -180 119l-383 829l-213 -795q-41 -157 -174 -157q-80 0 -115 53q-37 58 -10 152l293 1091q41 158 186 158h14q130 0 185 -125z" />
    <glyph glyph-name="O" unicode="O" horiz-adv-x="1703" 
d="M793 -25q-293 0 -476 183q-180 177 -180 452q0 334 238 584q252 264 624 264q294 0 476 -182q180 -177 180 -453q0 -333 -238 -583q-253 -265 -624 -265zM829 266q216 0 363 176q135 164 135 361q0 164 -94 262q-99 102 -270 102q-216 0 -363 -176q-135 -163 -135 -360
q0 -164 94 -262q100 -103 270 -103z" />
    <glyph glyph-name="P" unicode="P" horiz-adv-x="1390" 
d="M457 434l-78 -289q-41 -157 -176 -157q-80 0 -115 53q-36 57 -12 152l291 1083q41 158 176 158h321q305 0 451 -146q110 -110 110 -295q0 -260 -200 -413q-196 -146 -496 -146h-272zM530 711h215q160 0 254 67q97 72 97 189q0 71 -47 118q-64 64 -197 64h-205z" />
    <glyph glyph-name="Q" unicode="Q" horiz-adv-x="1703" 
d="M1139 641l92 -147q96 149 96 309q0 164 -94 262q-99 102 -270 102q-216 0 -363 -176q-135 -163 -135 -360q0 -164 94 -262q100 -103 270 -103q94 0 181 37l-88 119q-54 79 -54 127q0 63 45 108q48 48 109 48q77 0 117 -64zM1212 0l-41 61q-174 -86 -378 -86
q-293 0 -476 183q-180 177 -180 452q0 334 238 584q252 264 624 264q294 0 476 -182q180 -177 180 -453q0 -340 -244 -590l27 -32q49 -58 49 -121q0 -65 -43 -105q-43 -43 -107 -43q-84 0 -125 68z" />
    <glyph glyph-name="R" unicode="R" horiz-adv-x="1488" 
d="M463 459l-84 -314q-41 -157 -176 -157q-80 0 -115 53q-36 57 -12 152l291 1083q41 158 176 158h389q310 0 454 -144q111 -111 111 -289q0 -208 -131 -339q-112 -112 -313 -168l176 -263q35 -53 35 -100q0 -67 -50 -108q-47 -35 -104 -35q-120 0 -184 104l-228 367h-235z
M539 737h280q197 0 289 92q59 59 59 146q0 70 -45 115q-59 59 -209 59h-264z" />
    <glyph glyph-name="S" unicode="S" horiz-adv-x="1302" 
d="M618 256q96 0 158 41t62 109q0 51 -50 92q-47 36 -194 96q-352 143 -352 387q0 214 170 346q165 127 399 127q250 0 436 -127q74 -53 74 -131q0 -66 -45 -111q-46 -43 -111 -43q-51 0 -86 27q-139 109 -293 109q-96 0 -153 -45q-55 -43 -55 -101q0 -54 53 -92
q39 -29 198 -96q345 -139 345 -387q0 -218 -173 -353q-161 -124 -397 -124q-340 0 -530 163q-62 53 -62 131q0 69 43 115q45 45 111 45q52 0 100 -39q171 -139 352 -139z" />
    <glyph glyph-name="T" unicode="T" horiz-adv-x="1269" 
d="M948 1143l-268 -998q-41 -157 -176 -157q-80 0 -115 53q-36 57 -12 152l256 950h-262q-60 0 -103 43t-43 102q0 60 43 103t103 43h919q60 0 103 -43t43 -103q0 -59 -43 -102t-103 -43h-342z" />
    <glyph glyph-name="U" unicode="U" horiz-adv-x="1564" 
d="M1589 1241l-178 -661q-73 -278 -221 -426q-177 -177 -488 -177q-248 0 -393 127q-143 128 -143 357q0 92 35 229l159 598q41 158 177 158q78 0 116 -53q35 -59 11 -152l-156 -579q-23 -97 -23 -156q0 -108 64 -172q69 -66 186 -66q138 0 234 90q92 92 139 267l178 663
q41 158 176 158q79 0 117 -53q34 -58 10 -152z" />
    <glyph glyph-name="V" unicode="V" horiz-adv-x="1482" 
d="M1571 1239l-774 -1135q-86 -127 -209 -127h-15q-126 0 -147 140l-164 1112q-6 35 -6 74q0 63 45 102q47 41 121 41q151 0 166 -146l104 -866l600 912q63 100 164 100q143 0 143 -117q0 -48 -28 -90z" />
    <glyph glyph-name="W" unicode="W" horiz-adv-x="2269" 
d="M2357 1233l-706 -1129q-77 -127 -211 -127h-15q-139 0 -145 140l-61 792l-492 -805q-77 -127 -205 -127h-14q-136 0 -148 140l-98 1110q-4 62 -4 73q0 63 45 105q47 41 119 41q150 0 156 -131l53 -852l512 862q73 125 182 125h18q135 0 144 -125l57 -862l524 878
q64 105 168 105q66 0 107 -35t41 -94q0 -37 -27 -84z" />
    <glyph glyph-name="X" unicode="X" horiz-adv-x="1433" 
d="M961 709l241 -449q39 -68 39 -117q0 -65 -45 -110t-115 -45q-111 0 -166 114l-184 383l-416 -411q-86 -86 -161 -86q-55 0 -95 37q-41 41 -41 102q0 68 62 127l495 489l-231 431q-39 68 -39 116q0 64 47 111q45 45 113 45q110 0 166 -115l182 -375l389 404q83 86 162 86
q54 0 94 -37q41 -41 41 -100q0 -68 -55 -123z" />
    <glyph glyph-name="Y" unicode="Y" horiz-adv-x="1331" 
d="M803 524l-103 -379q-41 -157 -176 -157q-79 0 -114 53q-37 58 -13 152l97 360l-258 625q-31 76 -31 118q0 63 47 107q49 43 123 43q107 0 153 -123l183 -492l479 527q84 90 170 90q131 0 131 -129q0 -66 -53 -125z" />
    <glyph glyph-name="Z" unicode="Z" horiz-adv-x="1411" 
d="M72 283l960 874h-573q-58 0 -99 41t-41 96q0 58 41 99t99 41h911q137 0 137 -123v-4q0 -73 -86 -156l-960 -875h606q58 0 98 -40q41 -41 41 -99q0 -55 -41 -96t-98 -41h-944q-137 0 -137 123v4q0 73 86 156z" />
    <glyph glyph-name="bracketleft" unicode="[" horiz-adv-x="952" 
d="M952 1190h-284l-326 -1213h219q52 0 86 -34q37 -34 37 -86t-37 -86q-34 -37 -86 -37h-414q-65 0 -106 47q-36 45 -21 110l371 1385q41 158 189 158h372q52 0 86 -37q37 -34 37 -86t-37 -86q-35 -35 -86 -35z" />
    <glyph glyph-name="backslash" unicode="\" horiz-adv-x="1085" 
d="M524 1524l357 -1587q14 -63 14 -97q0 -49 -33 -82q-32 -32 -86 -32q-109 0 -133 122l-356 1588q-15 68 -15 96q0 49 33 82t86 33q109 0 133 -123z" />
    <glyph glyph-name="bracketright" unicode="]" horiz-adv-x="952" 
d="M389 -266h-373q-52 0 -86 37q-36 33 -36 86t36 86q34 34 86 34h285l326 1213h-219q-51 0 -86 35q-37 34 -37 86t37 86q34 37 86 37h413q65 0 107 -48q35 -44 20 -110l-370 -1385q-41 -157 -189 -157z" />
    <glyph glyph-name="asciicircum" unicode="^" 
d="M291 1130l217 220q88 88 172 88h18q100 0 144 -95l98 -219q23 -54 23 -75q0 -50 -68 -50q-59 0 -86 17q-35 21 -72 94l-71 139l-150 -143q-113 -107 -188 -107q-72 0 -72 60q0 36 35 71z" />
    <glyph glyph-name="underscore" unicode="_" horiz-adv-x="1228" 
d="M1034 -328h-1237q-49 0 -84 35t-35 84t35 84t84 35h1237q49 0 84 -35t35 -84t-35 -84t-84 -35z" />
    <glyph glyph-name="grave" unicode="`" 
d="M666 1274l-95 119q-28 42 -28 65q0 36 57 70q53 33 115 33q81 0 108 -76l62 -168q8 -21 8 -43q0 -68 -98 -68q-76 0 -129 68z" />
    <glyph glyph-name="a" unicode="a" horiz-adv-x="1204" 
d="M795 -12q-142 0 -133 139q-138 -147 -328 -147q-143 0 -232 83q-88 82 -88 211q0 185 138 293q130 103 335 103q156 0 310 -49l4 14q12 50 12 82q0 129 -207 129q-95 0 -190 -25q-33 -8 -51 -8q-54 0 -89 35q-34 37 -34 90q0 94 94 121q154 51 336 51q444 0 444 -338
q0 -72 -24 -166l-123 -461q-41 -157 -174 -157zM467 193q94 0 174 65q75 63 102 156l9 28q-98 39 -205 39q-100 0 -160 -45q-63 -48 -63 -127q0 -52 38 -84t105 -32z" />
    <glyph glyph-name="b" unicode="b" horiz-adv-x="1380" 
d="M692 -20q-225 0 -344 180l-4 -15q-41 -157 -172 -157q-80 0 -115 53q-37 58 -10 152l307 1157q41 157 174 157q80 0 115 -53q37 -57 10 -151l-86 -324q151 139 310 139q185 0 301 -125q120 -129 120 -346q0 -287 -186 -479q-182 -188 -420 -188zM651 242q132 0 226 110
q100 112 100 275q0 106 -62 168q-64 61 -167 61q-132 0 -230 -113q-102 -114 -102 -268q0 -103 65 -168t170 -65z" />
    <glyph glyph-name="c" unicode="c" horiz-adv-x="1146" 
d="M967 104q-159 -129 -369 -129q-224 0 -369 136q-143 137 -143 360q0 269 193 459q191 188 454 188q231 0 371 -137q57 -51 57 -121q0 -59 -43 -102t-106 -43q-64 0 -103 45q-77 92 -200 92q-125 0 -220 -115q-96 -116 -96 -266q0 -103 62 -168q60 -63 153 -63
q101 0 189 61q53 35 92 35q53 0 90 -37q35 -41 35 -92q0 -62 -47 -103z" />
    <glyph glyph-name="d" unicode="d" horiz-adv-x="1380" 
d="M950 -12q-137 0 -137 131q-151 -139 -309 -139q-186 0 -301 124q-121 130 -121 347q0 287 186 479q182 188 420 188q225 0 344 -180l109 412q41 157 174 157q80 0 115 -53q37 -57 10 -151l-310 -1158q-41 -157 -180 -157zM633 242q131 0 231 112q101 113 101 269
q0 104 -66 170q-63 63 -170 63q-131 0 -225 -108q-101 -113 -101 -277q0 -107 64 -168q61 -61 166 -61z" />
    <glyph glyph-name="e" unicode="e" horiz-adv-x="1243" 
d="M627 225q94 0 170 43q56 29 94 29q51 0 84 -33t33 -86q0 -62 -60 -104q-150 -99 -356 -99q-239 0 -373 131q-135 129 -135 357q0 253 178 446q191 209 473 209q209 0 332 -123q117 -117 117 -305q0 -52 -13 -112q-30 -138 -149 -138h-645q15 -215 250 -215zM403 635h478
q10 38 10 72q0 161 -180 161q-223 0 -308 -233z" />
    <glyph glyph-name="f" unicode="f" horiz-adv-x="841" 
d="M586 831l-187 -686q-41 -157 -174 -157q-79 0 -114 53q-38 59 -11 152l174 638q-114 18 -114 134q0 57 37 94q39 39 92 39h55l14 59q91 352 445 352q57 0 94 -6q102 -18 102 -119q0 -72 -43 -112q-39 -39 -94 -29q-46 4 -49 4q-120 0 -154 -119l-8 -30h111q53 0 92 -39
q37 -37 37 -94q0 -58 -37 -95q-39 -39 -92 -39h-176z" />
    <glyph glyph-name="g" unicode="g" horiz-adv-x="1374" 
d="M618 338q130 0 228 94q96 96 96 225q0 92 -59 148q-59 53 -158 53q-129 0 -223 -98q-92 -100 -92 -228q0 -194 208 -194zM1022 928l8 24q41 158 172 158q80 0 115 -53q37 -58 10 -152l-184 -690q-73 -275 -193 -395q-152 -152 -438 -152q-263 0 -473 94q-88 40 -88 119
q0 56 37 96q36 39 92 39q40 0 90 -24q159 -78 322 -78q149 0 237 88q58 58 100 197l11 37q-166 -146 -344 -146q-170 0 -283 98q-125 107 -125 285q0 269 186 461q181 184 414 184q226 0 334 -190z" />
    <glyph glyph-name="h" unicode="h" horiz-adv-x="1273" 
d="M1155 590l-119 -445q-41 -157 -174 -157q-79 0 -114 53q-38 59 -11 152l111 409q14 49 14 98q0 136 -151 136q-179 0 -238 -220l-127 -471q-41 -157 -174 -157q-80 0 -115 53q-37 58 -10 152l307 1157q41 157 174 157q80 0 115 -53q37 -57 10 -151l-84 -320
q150 135 299 135q147 0 236 -86q88 -85 88 -233q0 -73 -37 -209z" />
    <glyph glyph-name="i" unicode="i" horiz-adv-x="618" 
d="M705 1362l-3 -10q-30 -144 -200 -144q-73 0 -117 41q-45 40 -33 103l2 10q30 143 201 143q72 0 119 -41q43 -40 31 -102zM563 905l-205 -760q-41 -157 -174 -157q-79 0 -114 53q-38 59 -11 152l205 759q41 158 174 158q80 0 115 -53q37 -58 10 -152z" />
    <glyph glyph-name="j" unicode="j" horiz-adv-x="616" 
d="M561 905l-235 -878q-99 -361 -420 -361q-164 0 -164 125q0 54 35 92q32 38 84 35l51 -4q74 0 108 137l242 901q41 158 174 158q80 0 115 -53q37 -58 10 -152zM702 1362l-2 -10q-30 -144 -200 -144q-73 0 -117 41q-45 40 -33 103l2 10q30 143 201 143q72 0 119 -41
q42 -39 30 -102z" />
    <glyph glyph-name="k" unicode="k" horiz-adv-x="1210" 
d="M657 1303l-163 -607l471 359q70 55 118 55q58 0 95 -37q34 -34 34 -88q0 -67 -57 -106l-324 -236l170 -412q27 -64 27 -106q0 -63 -51 -102q-47 -35 -109 -35q-115 0 -161 112l-146 349l-168 -123l-47 -181q-41 -157 -174 -157q-80 0 -115 53q-37 58 -10 152l311 1157
q41 157 174 157q80 0 115 -53q37 -57 10 -151z" />
    <glyph glyph-name="l" unicode="l" horiz-adv-x="618" 
d="M670 1303l-312 -1158q-41 -157 -174 -157q-79 0 -114 53q-38 59 -11 152l312 1157q41 157 174 157q79 0 114 -53q37 -58 11 -151z" />
    <glyph glyph-name="m" unicode="m" horiz-adv-x="1943" 
d="M727 193l111 409q14 49 14 98q0 136 -145 136q-175 0 -234 -220l-127 -471q-41 -157 -174 -157q-80 0 -115 53q-37 58 -10 152l203 759q41 158 180 158q65 0 105 -37q34 -34 34 -90q150 135 291 135q221 0 291 -198q162 198 393 198q148 0 234 -86q84 -84 84 -233
q0 -73 -37 -209l-119 -445q-41 -157 -174 -157q-80 0 -115 53q-37 58 -10 152l111 409q14 49 14 98q0 136 -146 136q-174 0 -233 -220l-127 -471q-41 -157 -174 -157q-80 0 -115 53q-37 58 -10 152z" />
    <glyph glyph-name="n" unicode="n" horiz-adv-x="1267" 
d="M430 1110q65 0 105 -37q34 -34 34 -90q150 135 299 135q147 0 236 -86q88 -85 88 -233q0 -73 -37 -209l-119 -445q-41 -157 -174 -157q-79 0 -114 53q-38 59 -11 152l111 409q14 49 14 98q0 136 -151 136q-179 0 -238 -220l-127 -471q-41 -157 -174 -157q-80 0 -115 53
q-37 58 -10 152l203 759q41 158 180 158z" />
    <glyph glyph-name="o" unicode="o" horiz-adv-x="1335" 
d="M614 -25q-240 0 -387 144q-141 141 -141 364q0 252 186 441q188 194 449 194q241 0 387 -143q141 -141 141 -365q0 -250 -184 -440q-192 -195 -451 -195zM629 242q135 0 229 123q86 112 86 237q0 119 -65 184q-66 66 -172 66q-135 0 -230 -121q-86 -115 -86 -239
q0 -119 66 -185q65 -65 172 -65z" />
    <glyph glyph-name="p" unicode="p" horiz-adv-x="1380" 
d="M430 1110q137 0 137 -131q151 139 310 139q185 0 301 -125q120 -129 120 -346q0 -287 -186 -479q-182 -188 -420 -188q-225 0 -344 180l-90 -342q-41 -158 -174 -158q-80 0 -115 53q-37 58 -10 152l291 1087q41 158 180 158zM748 856q-132 0 -230 -113
q-102 -114 -102 -268q0 -103 65 -168t170 -65q132 0 226 110q100 112 100 275q0 106 -62 168q-64 61 -167 61z" />
    <glyph glyph-name="q" unicode="q" horiz-adv-x="1380" 
d="M688 1118q225 0 344 -180l4 14q41 158 172 158q80 0 115 -53q37 -58 10 -152l-289 -1087q-41 -158 -174 -158q-79 0 -114 53q-38 59 -11 152l68 254q-151 -139 -309 -139q-186 0 -301 124q-121 130 -121 347q0 287 186 479q182 188 420 188zM729 856q-131 0 -225 -108
q-101 -113 -101 -277q0 -107 64 -168q61 -61 166 -61q131 0 231 112q101 113 101 269q0 104 -66 170q-63 63 -170 63z" />
    <glyph glyph-name="r" unicode="r" horiz-adv-x="858" 
d="M551 924l-6 -25q111 211 252 211q133 0 133 -139q0 -119 -135 -160q-292 -82 -383 -422l-68 -244q-41 -157 -174 -157q-80 0 -115 53q-37 58 -10 152l205 759q41 158 174 158q77 0 113 -51q35 -53 14 -135z" />
    <glyph glyph-name="s" unicode="s" 
d="M467 213q131 0 131 96q0 47 -127 103q-158 70 -223 123q-96 81 -96 198q0 169 118 275q119 110 322 110q185 0 350 -98q72 -41 72 -115q0 -54 -37 -94q-39 -39 -92 -39q-34 0 -82 31q-122 78 -234 78q-120 0 -120 -93q0 -49 145 -114q148 -66 205 -115q96 -84 96 -197
q0 -176 -127 -282q-126 -105 -324 -105q-231 0 -421 138q-56 41 -56 106q0 52 37 92q36 39 88 39q43 0 82 -28q139 -109 293 -109z" />
    <glyph glyph-name="t" unicode="t" horiz-adv-x="849" 
d="M338 1098l37 135q41 158 174 158q80 0 115 -54q37 -57 10 -151l-25 -88h105q53 0 92 -39q37 -37 37 -94q0 -58 -37 -95q-39 -39 -92 -39h-176l-123 -460q-9 -34 -9 -49q0 -66 78 -66h25q110 0 110 -117q0 -93 -79 -127q-71 -30 -183 -30q-139 0 -215 61q-69 57 -69 154
q0 58 20 137l133 497q-114 18 -114 134q0 58 36 94q39 39 93 39h57z" />
    <glyph glyph-name="u" unicode="u" horiz-adv-x="1273" 
d="M846 -12q-66 0 -103 37q-36 33 -36 90q-150 -135 -299 -135q-147 0 -236 86q-88 85 -88 233q0 73 37 209l119 444q41 158 174 158q79 0 114 -53q38 -59 11 -152l-111 -409q-14 -49 -14 -99q0 -135 151 -135q179 0 238 219l127 471q41 158 174 158q80 0 115 -53
q37 -58 10 -152l-203 -760q-41 -157 -180 -157z" />
    <glyph glyph-name="v" unicode="v" horiz-adv-x="1212" 
d="M1219 909l-555 -803q-88 -126 -207 -126h-8q-135 0 -156 139l-121 774q-6 34 -6 74q0 62 49 102q47 41 109 41q148 0 157 -131l62 -612l407 645q61 98 162 98q131 0 131 -119q0 -47 -24 -82z" />
    <glyph glyph-name="w" unicode="w" horiz-adv-x="1755" 
d="M215 119l-45 772q-4 62 -4 74q0 58 49 104q50 41 111 41q152 0 155 -131l15 -547l319 555q70 125 182 125h17q133 0 139 -125l25 -557l335 588q53 92 146 92q125 0 125 -117q0 -42 -25 -84l-481 -803q-76 -126 -203 -126h-10q-135 0 -141 139l-27 547l-328 -560
q-74 -126 -202 -126h-11q-135 0 -141 139z" />
    <glyph glyph-name="x" unicode="x" horiz-adv-x="1183" 
d="M514 997l125 -229l270 266q83 80 150 80q55 0 88 -33q37 -34 37 -90q0 -73 -72 -139l-342 -307l184 -297q39 -62 39 -117q0 -68 -43 -108q-41 -41 -108 -41q-98 0 -156 116l-131 246l-289 -281q-88 -79 -149 -79q-54 0 -88 34q-35 35 -35 88q0 77 69 140l361 321
l-178 281q-39 56 -39 119q0 65 39 104q40 43 106 43q98 0 162 -117z" />
    <glyph glyph-name="y" unicode="y" horiz-adv-x="1212" 
d="M127 -55q70 -17 92 -17q56 0 107 66l-131 897q-7 40 -7 74q0 62 45 104q47 41 111 41q63 0 107 -35q42 -36 45 -98l63 -633l385 668q52 98 158 98q135 0 135 -121q0 -41 -41 -106l-569 -910q-193 -307 -445 -307q-93 0 -147 23q-94 40 -94 135q0 57 36 96t86 39
q15 0 64 -14z" />
    <glyph glyph-name="z" unicode="z" horiz-adv-x="1140" 
d="M338 1098h684q139 0 139 -115v-2q0 -75 -76 -139l-677 -590h409q53 0 90 -37t37 -90q0 -51 -37 -88t-90 -37h-706q-140 0 -140 115v2q0 75 76 139l676 590h-385q-53 0 -90 37t-37 88q0 53 37 90q40 37 90 37z" />
    <glyph glyph-name="braceleft" unicode="{" horiz-adv-x="1003" 
d="M227 707h6q138 0 197 65t80 248q49 406 481 440q137 9 137 -106q0 -94 -96 -109q-134 -24 -190 -92q-49 -65 -64 -207q-21 -205 -102 -289q-73 -79 -232 -94q174 -24 174 -182q0 -67 -36 -158q-35 -93 -35 -143q0 -87 90 -137q72 -35 72 -109q0 -55 -41 -90
q-42 -34 -103 -18q-315 76 -315 299q0 67 41 176q33 82 33 145q0 97 -91 119q-133 27 -133 123q0 52 37 86q33 33 90 33z" />
    <glyph glyph-name="bar" unicode="|" horiz-adv-x="716" 
d="M270 -152v1676q0 52 37 86q34 37 86 37t86 -37q37 -34 37 -86v-1676q0 -52 -37 -86q-33 -36 -86 -36t-86 36q-37 34 -37 86z" />
    <glyph glyph-name="braceright" unicode="}" horiz-adv-x="1003" 
d="M797 469h-6q-137 0 -197 -66q-59 -65 -80 -247q-49 -407 -481 -441q-137 -9 -137 107q0 93 96 108q133 24 190 93q49 65 64 206q21 204 102 291q71 77 232 92q-174 24 -174 183q0 66 36 157q35 93 35 144q0 87 -90 137q-72 38 -72 108q0 56 41 91q42 34 103 18
q315 -76 315 -299q0 -67 -41 -176q-33 -82 -33 -146q0 -96 91 -118q133 -27 133 -123q0 -51 -35 -86q-36 -33 -92 -33z" />
    <glyph glyph-name="asciitilde" unicode="~" horiz-adv-x="1044" 
d="M217 459q-86 0 -86 82q0 30 16 59q114 205 279 205q80 0 162 -60q74 -53 108 -53q57 0 111 66q41 47 92 47q86 0 86 -82q0 -30 -16 -59q-114 -205 -279 -205q-79 0 -162 59q-74 53 -108 53q-58 0 -111 -65q-41 -47 -92 -47z" />
    <glyph glyph-name="uni00A0" unicode="&#xa0;" horiz-adv-x="614" 
 />
    <glyph glyph-name="exclamdown" unicode="&#xa1;" horiz-adv-x="665" 
d="M35 98l293 783q30 77 102 77q95 0 80 -100l-123 -760q-18 -104 -106 -104h-187q-42 0 -57 31q-17 29 -2 73zM705 1276l-3 -12q-30 -170 -200 -170q-80 0 -123 49q-43 46 -31 121l2 12q12 73 68 123q56 47 133 47q80 0 123 -49q43 -46 31 -121z" />
    <glyph glyph-name="cent" unicode="&#xa2;" horiz-adv-x="1200" 
d="M1038 250q-149 -94 -338 -94q-48 0 -94 6l-33 -84q-41 -103 -116 -103q-54 0 -78 37q-28 42 -4 101l39 100q-279 132 -279 455q0 269 187 450q186 180 462 180q42 0 54 -2l22 60q44 102 119 102q54 0 78 -37q26 -39 2 -100l-27 -68q100 -46 154 -100q59 -59 59 -121
q0 -59 -43 -102q-40 -43 -104 -43q-61 0 -101 43q-31 34 -75 63l-224 -571q95 3 185 49q63 29 100 29q54 0 88 -37q33 -36 33 -92q0 -80 -66 -121zM440 672q0 -124 86 -195l217 553q-130 -15 -219 -123q-84 -107 -84 -235z" />
    <glyph glyph-name="sterling" unicode="&#xa3;" horiz-adv-x="1318" 
d="M922 1163q-83 0 -140 -57q-58 -58 -84 -160l-39 -139h320q53 0 92 -39t39 -92t-39 -92q-40 -37 -92 -37h-387l-74 -275h461q55 0 96 -41t41 -96t-41 -96q-39 -39 -96 -39h-858q-56 0 -92 33q-35 35 -35 82q0 89 104 123l105 32l73 277h-2q-52 0 -92 37q-39 39 -39 92
t39 92t92 39h72l51 192q52 198 164 310q145 145 383 145q215 0 338 -117q66 -63 66 -127q0 -66 -43 -112q-47 -47 -113 -47q-60 0 -105 45q-67 67 -165 67z" />
    <glyph glyph-name="yen" unicode="&#xa5;" horiz-adv-x="1456" 
d="M803 903l422 455q84 90 151 90q129 0 129 -129q0 -65 -57 -125l-434 -436h170q49 0 78 -33q32 -28 32 -78q0 -46 -32 -78q-28 -32 -78 -32h-310l-32 -127h250q48 0 77 -33q33 -29 33 -78q0 -45 -33 -78q-29 -33 -77 -33h-310l-12 -43q-41 -157 -170 -157q-76 0 -111 47
q-37 51 -12 145l2 8h-250q-44 0 -77 33t-33 78q0 49 33 78q33 33 77 33h310l32 127h-249q-46 0 -78 32q-33 33 -33 78q0 49 33 78q33 33 78 33h225l-189 420q-32 74 -32 116q0 67 45 109q46 43 112 43q110 0 150 -100z" />
    <glyph glyph-name="section" unicode="&#xa7;" horiz-adv-x="1294" 
d="M817 590q50 0 92 28q41 27 41 72q0 64 -176 117q-139 43 -205 43q-49 0 -92 -29q-41 -27 -41 -71q0 -64 176 -117q139 -43 205 -43zM596 215q143 0 143 78q0 51 -209 110q-191 52 -270 103q-115 71 -115 190q0 212 279 271q-74 71 -74 170q0 140 131 231q134 90 336 90
q213 0 369 -102q63 -42 63 -111q0 -56 -39 -92q-37 -37 -92 -37q-36 0 -74 23q-136 86 -247 86q-150 0 -150 -78q0 -52 209 -111q194 -52 270 -102q115 -71 115 -191q0 -212 -278 -270q73 -70 73 -170q0 -139 -129 -231q-134 -90 -327 -90q-260 0 -426 135q-50 41 -50 104
q0 52 37 92q37 37 88 37q47 0 86 -28q134 -107 281 -107z" />
    <glyph glyph-name="dieresis" unicode="&#xa8;" 
d="M670 1362l-2 -8q-27 -148 -187 -148q-69 0 -110 41q-40 43 -25 107l2 8q30 145 187 145q68 0 108 -43q39 -42 27 -102zM1108 1362l-2 -8q-27 -148 -186 -148q-70 0 -111 41q-40 43 -25 107l2 8q30 145 187 145q68 0 108 -43q39 -42 27 -102z" />
    <glyph glyph-name="copyright" unicode="&#xa9;" horiz-adv-x="1699" 
d="M891 -25q-308 0 -526 218q-213 216 -213 520v4q0 304 215 522q219 219 528 219t526 -217q213 -216 213 -520v-4q0 -304 -215 -522q-220 -220 -528 -220zM891 57q277 0 469 195q188 191 188 465v4q0 277 -186 463q-186 192 -467 192q-278 0 -469 -194q-188 -191 -188 -465
v-4q0 -277 186 -463q187 -193 467 -193zM901 319q-172 0 -289 117q-114 117 -114 287v4q0 170 114 287q118 121 295 121q160 0 267 -82q38 -25 38 -74q0 -37 -24 -61q-27 -27 -62 -27q-29 0 -57 22q-76 58 -162 58q-96 0 -162 -72q-63 -69 -63 -170v-4q0 -101 63 -170
q66 -72 162 -72q94 0 174 68q23 20 54 20q35 0 59 -24q25 -25 25 -60q0 -38 -27 -59q-121 -109 -291 -109z" />
    <glyph glyph-name="ordfeminine" unicode="&#xaa;" horiz-adv-x="798" 
d="M535 1296q-48 0 -103 -14q-30 -6 -37 -6q-61 0 -61 65q0 53 55 74q80 27 182 27q244 0 244 -187q0 -47 -12 -90l-70 -256q-21 -86 -96 -86q-84 0 -72 78q-76 -82 -180 -82q-79 0 -127 45q-49 46 -49 117q0 104 76 162q69 57 184 57q80 0 172 -29l4 15q6 21 6 35
q0 75 -116 75zM625 567h-459q-68 0 -68 68q0 67 68 67h459q67 0 67 -67q0 -68 -67 -68zM459 936q50 0 96 37q43 34 55 86l4 16q-59 21 -112 21q-123 0 -123 -95q0 -65 80 -65z" />
    <glyph glyph-name="guillemotleft" unicode="&#xab;" horiz-adv-x="1316" 
d="M150 590l346 342q64 61 118 61q117 0 117 -112q0 -57 -43 -97l-299 -282l123 -234q20 -39 20 -80q0 -55 -38 -90t-93 -35q-80 0 -120 76l-140 277q-32 60 -32 90q0 46 41 84zM702 590l347 342q64 61 118 61q117 0 117 -112q0 -57 -43 -97l-299 -282l123 -234
q20 -39 20 -80q0 -55 -38 -90t-93 -35q-80 0 -120 76l-140 277q-32 60 -32 90q0 47 40 84z" />
    <glyph glyph-name="registered" unicode="&#xae;" horiz-adv-x="753" 
d="M530 737q-149 0 -254 105q-102 105 -102 252v2q0 147 105 252q103 106 251 106q150 0 254 -104q103 -106 103 -252v-2q0 -147 -105 -252q-104 -107 -252 -107zM530 776q135 0 226 94q90 96 90 226v2q0 130 -90 223q-91 94 -226 94q-134 0 -225 -94q-90 -96 -90 -225v-2
q0 -131 90 -224q91 -94 225 -94zM375 958v279q0 53 53 53h127q158 0 158 -129q0 -78 -70 -112l47 -56q15 -15 15 -37q0 -51 -54 -51q-26 0 -41 21l-80 100h-49v-68q0 -53 -53 -53t-53 53zM481 1110h68q57 0 57 45t-57 45h-68v-90z" />
    <glyph glyph-name="overscore" unicode="&#xaf;" 
d="M995 1229h-544q-45 0 -76 31q-33 29 -33 75q0 47 33 76q29 33 76 33h544q47 0 76 -33q33 -29 33 -76q0 -46 -33 -75q-31 -31 -76 -31z" />
    <glyph glyph-name="degree" unicode="&#xb0;" horiz-adv-x="911" 
d="M510 743q-148 0 -242 91q-88 85 -88 225q0 155 113 274q116 119 278 119q149 0 242 -90q88 -85 88 -225q0 -157 -113 -273q-118 -121 -278 -121zM516 903q86 0 148 74q55 67 55 153q0 71 -43 117q-39 45 -111 45q-86 0 -147 -73q-56 -68 -56 -154q0 -70 44 -117
q39 -45 110 -45z" />
    <glyph glyph-name="plusminus" unicode="&#xb1;" horiz-adv-x="1310" 
d="M854 778l-55 -215q-40 -149 -158 -149q-70 0 -100 47q-34 48 -9 139l46 178h-201q-55 0 -94 39t-39 94q0 56 39 95q38 38 94 38h274l56 211q41 150 157 150q71 0 101 -47q33 -47 8 -139l-45 -175h200q57 0 95 -38q39 -39 39 -95q0 -55 -39 -94t-95 -39h-274zM164 0h758
q52 0 92 37q37 40 37 92t-37 92q-40 37 -92 37h-758q-52 0 -92 -37q-37 -40 -37 -92t37 -92q40 -37 92 -37z" />
    <glyph glyph-name="acute" unicode="&#xb4;" 
d="M922 1393l-160 -119q-89 -68 -182 -68q-86 0 -86 58q0 31 26 57l156 172q65 68 117 68q57 0 114 -31q60 -31 60 -70q0 -34 -45 -67z" />
    <glyph glyph-name="paragraph" unicode="&#xb6;" horiz-adv-x="1226" 
d="M1249 1276l-301 -1131q-41 -157 -176 -157q-80 0 -115 53q-36 57 -12 152l64 241q-531 9 -531 434q0 252 178 402q191 164 545 164h221q70 0 109 -48q33 -45 18 -110z" />
    <glyph glyph-name="middot" unicode="&#xb7;" horiz-adv-x="653" 
d="M516 641l-2 -12q-12 -74 -68 -121q-55 -49 -133 -49q-80 0 -123 49q-42 45 -30 121l2 12q30 170 200 170q80 0 123 -49q43 -46 31 -121z" />
    <glyph glyph-name="cedilla" unicode="&#xb8;" 
d="M573 20l-198 -296q-45 -66 -107 -66q-46 0 -90 33q-49 34 -49 71q0 30 31 66l184 192h229z" />
    <glyph glyph-name="ordmasculine" unicode="&#xba;" horiz-adv-x="823" 
d="M504 817q-129 0 -213 78q-78 78 -78 201q0 141 100 241q101 107 248 107q129 0 213 -78q78 -78 78 -201q0 -141 -100 -241q-101 -107 -248 -107zM510 963q76 0 127 63q47 59 47 133q0 60 -35 101q-35 38 -94 38q-76 0 -127 -63q-47 -59 -47 -133q0 -60 35 -101
q35 -38 94 -38zM647 567h-479q-68 0 -68 68q0 67 68 67h479q68 0 68 -67q0 -68 -68 -68z" />
    <glyph glyph-name="guillemotright" unicode="&#xbb;" horiz-adv-x="1316" 
d="M1161 487l-346 -342q-64 -61 -119 -61q-116 0 -116 113q0 56 43 96l299 282l-123 234q-21 41 -21 80q0 54 39 90q38 35 92 35q84 0 121 -76l139 -276q33 -62 33 -91q0 -46 -41 -84zM608 487l-346 -342q-64 -61 -119 -61q-116 0 -116 113q0 56 43 96l299 282l-123 234
q-21 41 -21 80q0 54 39 90q38 35 92 35q84 0 121 -76l139 -276q33 -62 33 -91q0 -46 -41 -84z" />
    <glyph glyph-name="questiondown" unicode="&#xbf;" horiz-adv-x="1114" 
d="M760 330q65 35 106 35q54 0 90 -39q35 -38 35 -84q0 -80 -69 -131q-178 -129 -416 -129q-212 0 -336 112q-121 109 -121 260q0 367 524 449l23 55q40 100 131 100h16q101 0 86 -106l-18 -156q-9 -86 -133 -104q-299 -44 -299 -197q0 -127 170 -127q96 0 211 62zM997 1276
l-2 -12q-30 -170 -200 -170q-80 0 -123 49q-43 46 -31 121l2 12q12 73 68 123q56 47 133 47q80 0 123 -49q42 -45 30 -121z" />
    <glyph glyph-name="Agrave" unicode="&#xc0;" horiz-adv-x="1566" 
d="M621 600h397l-74 473zM1208 1307l193 -1086q10 -78 10 -82q0 -64 -45 -106q-45 -45 -117 -45q-135 0 -153 125l-33 209h-635l-164 -236q-70 -98 -160 -98q-129 0 -129 123q0 55 37 104l797 1118q85 123 221 123h6q145 0 172 -149zM905 1622l-94 119q-29 43 -29 65
q0 36 58 70q53 33 114 33q82 0 109 -76l61 -168q9 -24 9 -43q0 -68 -99 -68q-76 0 -129 68z" />
    <glyph glyph-name="Aacute" unicode="&#xc1;" horiz-adv-x="1566" 
d="M621 600h397l-74 473zM1208 1307l193 -1086q10 -78 10 -82q0 -64 -45 -106q-45 -45 -117 -45q-135 0 -153 125l-33 209h-635l-164 -236q-70 -98 -160 -98q-129 0 -129 123q0 55 37 104l797 1118q85 123 221 123h6q145 0 172 -149zM1438 1741l-160 -119q-89 -68 -182 -68
q-86 0 -86 58q0 31 26 57l156 172q65 68 117 68q57 0 114 -31q60 -31 60 -70q0 -34 -45 -67z" />
    <glyph glyph-name="Acircumflex" unicode="&#xc2;" horiz-adv-x="1566" 
d="M621 600h397l-74 473zM1208 1307l193 -1086q10 -78 10 -82q0 -64 -45 -106q-45 -45 -117 -45q-135 0 -153 125l-33 209h-635l-164 -236q-70 -98 -160 -98q-129 0 -129 123q0 55 37 104l797 1118q85 123 221 123h6q145 0 172 -149zM1327 1821l78 -152q27 -47 27 -65
q0 -50 -70 -50q-118 0 -180 68l-74 80l-117 -80q-100 -68 -194 -68q-66 0 -66 48q0 30 35 65l168 162q69 69 160 69h90q102 0 143 -77z" />
    <glyph glyph-name="Atilde" unicode="&#xc3;" horiz-adv-x="1566" 
d="M621 600h397l-74 473zM1208 1307l193 -1086q10 -78 10 -82q0 -64 -45 -106q-45 -45 -117 -45q-135 0 -153 125l-33 209h-635l-164 -236q-70 -98 -160 -98q-129 0 -129 123q0 55 37 104l797 1118q85 123 221 123h6q145 0 172 -149zM766 1561q-86 0 -86 81q0 31 16 60
q114 205 279 205q80 0 162 -60q74 -53 108 -53q57 0 111 66q41 47 92 47q86 0 86 -82q0 -31 -16 -60q-113 -204 -279 -204q-79 0 -162 59q-74 53 -108 53q-58 0 -111 -65q-41 -47 -92 -47z" />
    <glyph glyph-name="Adieresis" unicode="&#xc4;" horiz-adv-x="1566" 
d="M621 600h397l-74 473zM1208 1307l193 -1086q10 -78 10 -82q0 -64 -45 -106q-45 -45 -117 -45q-135 0 -153 125l-33 209h-635l-164 -236q-70 -98 -160 -98q-129 0 -129 123q0 55 37 104l797 1118q85 123 221 123h6q145 0 172 -149zM1051 1710l-2 -8q-27 -148 -187 -148
q-69 0 -110 41q-40 43 -25 107l2 8q30 145 186 145q69 0 109 -43q39 -42 27 -102zM1489 1710l-2 -8q-27 -148 -187 -148q-69 0 -110 41q-40 43 -25 107l2 8q30 145 187 145q68 0 108 -43q39 -42 27 -102z" />
    <glyph glyph-name="Aring" unicode="&#xc5;" horiz-adv-x="1566" 
d="M104 -12q-129 0 -129 123q0 55 37 104l856 1200q-55 55 -55 148q0 112 80 192q79 82 194 82q102 0 166 -61q60 -60 60 -152q0 -147 -121 -227l209 -1176q10 -78 10 -82q0 -64 -45 -106q-45 -45 -117 -45q-135 0 -153 125l-33 209h-635l-164 -236q-70 -98 -160 -98z
M621 600h397l-74 473zM1042 1462q61 0 101 49q39 45 39 111q0 102 -99 102q-60 0 -100 -49q-39 -45 -39 -110q0 -103 98 -103z" />
    <glyph glyph-name="AE" unicode="&#xc6;" horiz-adv-x="2166" 
d="M696 600h336l150 561h-39zM1149 1434h969q59 0 100 -41t41 -101q0 -57 -41 -98t-100 -41h-625l-78 -293h457q59 0 100 -41t41 -98t-41 -98q-39 -39 -100 -39h-533l-82 -303h562q59 0 100 -41t41 -101q0 -57 -41 -98t-100 -41h-768q-79 0 -117 53q-37 58 -10 152l32 117
h-483l-194 -244q-75 -90 -152 -90q-121 0 -121 112q0 62 47 121l887 1098q95 115 209 115z" />
    <glyph glyph-name="Ccedilla" unicode="&#xc7;" horiz-adv-x="1486" 
d="M1280 129q-183 -154 -467 -154h-18l-168 -251q-45 -66 -107 -66q-46 0 -90 33q-49 34 -49 71q0 30 31 66l170 178q-203 58 -322 213q-123 156 -123 381q0 344 256 600q258 258 617 258q282 0 473 -176q65 -62 65 -133q0 -68 -47 -115q-46 -49 -115 -49q-71 0 -110 45
q-125 137 -305 137q-200 0 -350 -163q-156 -167 -156 -392q0 -156 98 -250q101 -96 252 -96q125 0 270 92q58 37 107 37q62 0 102 -43q41 -47 41 -106q0 -71 -55 -117z" />
    <glyph glyph-name="Egrave" unicode="&#xc8;" horiz-adv-x="1361" 
d="M1014 0h-807q-80 0 -115 53q-36 57 -12 152l287 1071q41 158 176 158h770q59 0 100 -41t41 -101q0 -57 -41 -98t-100 -41h-666l-78 -293h498q59 0 100 -41t41 -98t-41 -98q-39 -39 -100 -39h-573l-82 -303h602q59 0 100 -41t41 -101q0 -57 -41 -98t-100 -41zM809 1602
l-94 118q-29 43 -29 66q0 35 57 69q53 33 115 33q82 0 109 -76l61 -167q8 -21 8 -43q0 -68 -98 -68q-76 0 -129 68z" />
    <glyph glyph-name="Eacute" unicode="&#xc9;" horiz-adv-x="1361" 
d="M1014 0h-807q-80 0 -115 53q-36 57 -12 152l287 1071q41 158 176 158h770q59 0 100 -41t41 -101q0 -57 -41 -98t-100 -41h-666l-78 -293h498q59 0 100 -41t41 -98t-41 -98q-39 -39 -100 -39h-573l-82 -303h602q59 0 100 -41t41 -101q0 -57 -41 -98t-100 -41zM1341 1720
l-159 -118q-89 -68 -183 -68q-86 0 -86 57q0 31 27 58l156 172q64 67 116 67q60 0 115 -30q59 -30 59 -70q0 -35 -45 -68z" />
    <glyph glyph-name="Ecircumflex" unicode="&#xca;" horiz-adv-x="1361" 
d="M1014 0h-807q-80 0 -115 53q-36 57 -12 152l287 1071q41 158 176 158h770q59 0 100 -41t41 -101q0 -57 -41 -98t-100 -41h-666l-78 -293h498q59 0 100 -41t41 -98t-41 -98q-39 -39 -100 -39h-573l-82 -303h602q59 0 100 -41t41 -101q0 -57 -41 -98t-100 -41zM1229 1800
l78 -151q26 -45 26 -66q0 -49 -69 -49q-119 0 -181 68l-73 79l-117 -79q-100 -68 -195 -68q-65 0 -65 47q0 31 35 66l168 161q70 70 159 70h90q103 0 144 -78z" />
    <glyph glyph-name="Edieresis" unicode="&#xcb;" horiz-adv-x="1361" 
d="M1014 0h-807q-80 0 -115 53q-36 57 -12 152l287 1071q41 158 176 158h770q59 0 100 -41t41 -101q0 -57 -41 -98t-100 -41h-666l-78 -293h498q59 0 100 -41t41 -98t-41 -98q-39 -39 -100 -39h-573l-82 -303h602q59 0 100 -41t41 -101q0 -57 -41 -98t-100 -41zM952 1690
l-2 -9q-27 -147 -186 -147q-70 0 -111 41q-39 42 -24 106l2 9q30 145 186 145q69 0 109 -43q38 -41 26 -102zM1391 1690l-2 -9q-27 -147 -187 -147q-69 0 -110 41q-40 43 -25 106l2 9q30 145 186 145q69 0 109 -43q39 -42 27 -102z" />
    <glyph glyph-name="Igrave" unicode="&#xcc;" horiz-adv-x="688" 
d="M688 1241l-295 -1096q-41 -157 -176 -157q-80 0 -115 53q-36 57 -12 152l295 1095q41 158 176 158q79 0 117 -53q34 -58 10 -152zM446 1602l-94 118q-28 42 -28 66q0 35 57 69q53 33 115 33q81 0 108 -76l62 -167q8 -21 8 -43q0 -68 -99 -68q-76 0 -129 68z" />
    <glyph glyph-name="Iacute" unicode="&#xcd;" horiz-adv-x="688" 
d="M688 1241l-295 -1096q-41 -157 -176 -157q-80 0 -115 53q-36 57 -12 152l295 1095q41 158 176 158q79 0 117 -53q34 -58 10 -152zM979 1720l-160 -118q-89 -68 -182 -68q-86 0 -86 57q0 31 27 58l155 172q64 67 117 67q60 0 115 -30q59 -30 59 -70q0 -35 -45 -68z" />
    <glyph glyph-name="Icircumflex" unicode="&#xce;" horiz-adv-x="688" 
d="M688 1241l-295 -1096q-41 -157 -176 -157q-80 0 -115 53q-36 57 -12 152l295 1095q41 158 176 158q79 0 117 -53q34 -58 10 -152zM866 1800l78 -151q27 -47 27 -66q0 -49 -70 -49q-118 0 -180 68l-74 79l-117 -79q-100 -68 -194 -68q-66 0 -66 47q0 31 35 66l168 161
q70 70 160 70h90q102 0 143 -78z" />
    <glyph glyph-name="Idieresis" unicode="&#xcf;" horiz-adv-x="688" 
d="M688 1241l-295 -1096q-41 -157 -176 -157q-80 0 -115 53q-36 57 -12 152l295 1095q41 158 176 158q79 0 117 -53q34 -58 10 -152zM592 1690l-2 -9q-27 -147 -187 -147q-69 0 -110 41q-40 43 -25 106l2 9q30 145 187 145q68 0 108 -43q39 -42 27 -102zM1030 1690l-2 -9
q-27 -147 -186 -147q-70 0 -111 41q-39 42 -24 106l2 9q30 145 186 145q69 0 109 -43q38 -41 26 -102z" />
    <glyph glyph-name="Eth" unicode="&#xd0;" horiz-adv-x="1632" 
d="M584 1434h284q377 0 562 -185q155 -155 155 -420q0 -330 -235 -565q-264 -264 -752 -264h-350q-80 0 -115 53q-36 57 -12 152l100 377h-6q-57 0 -98 41t-41 98t41 98t98 41h82l111 416q41 158 176 158zM457 285h178q305 0 479 174q143 143 143 358q0 144 -83 227
q-105 105 -330 105h-154l-78 -289h125q58 0 99 -41t41 -98t-41 -98t-99 -41h-200z" />
    <glyph glyph-name="Ntilde" unicode="&#xd1;" horiz-adv-x="1609" 
d="M1120 522l207 766q41 158 174 158q80 0 115 -53q37 -58 10 -152l-297 -1102q-41 -147 -170 -147h-6q-125 0 -180 119l-383 829l-213 -795q-41 -157 -174 -157q-80 0 -115 53q-37 58 -10 152l293 1091q41 158 186 158h14q130 0 185 -125zM770 1540q-86 0 -86 82
q0 30 16 59q114 205 279 205q82 0 162 -59q74 -53 108 -53q58 0 111 65q41 47 92 47q86 0 86 -82q0 -30 -16 -59q-114 -205 -279 -205q-79 0 -162 59q-76 54 -108 54q-57 0 -111 -66q-41 -47 -92 -47z" />
    <glyph glyph-name="Ograve" unicode="&#xd2;" horiz-adv-x="1703" 
d="M793 -25q-293 0 -476 183q-180 177 -180 452q0 334 238 584q252 264 624 264q294 0 476 -182q180 -177 180 -453q0 -333 -238 -583q-253 -265 -624 -265zM829 266q216 0 363 176q135 164 135 361q0 164 -94 262q-99 102 -270 102q-216 0 -363 -176q-135 -163 -135 -360
q0 -164 94 -262q100 -103 270 -103zM944 1622l-94 119q-29 43 -29 65q0 36 58 70q53 33 114 33q82 0 109 -76l61 -168q8 -21 8 -43q0 -68 -98 -68q-76 0 -129 68z" />
    <glyph glyph-name="Oacute" unicode="&#xd3;" horiz-adv-x="1703" 
d="M793 -25q-293 0 -476 183q-180 177 -180 452q0 334 238 584q252 264 624 264q294 0 476 -182q180 -177 180 -453q0 -333 -238 -583q-253 -265 -624 -265zM829 266q216 0 363 176q135 164 135 361q0 164 -94 262q-99 102 -270 102q-216 0 -363 -176q-135 -163 -135 -360
q0 -164 94 -262q100 -103 270 -103zM1477 1741l-160 -119q-89 -68 -182 -68q-86 0 -86 58q0 31 26 57l156 172q65 68 117 68q57 0 114 -31q60 -31 60 -70q0 -34 -45 -67z" />
    <glyph glyph-name="Ocircumflex" unicode="&#xd4;" horiz-adv-x="1703" 
d="M793 -25q-293 0 -476 183q-180 177 -180 452q0 334 238 584q252 264 624 264q294 0 476 -182q180 -177 180 -453q0 -333 -238 -583q-253 -265 -624 -265zM829 266q216 0 363 176q135 164 135 361q0 164 -94 262q-99 102 -270 102q-216 0 -363 -176q-135 -163 -135 -360
q0 -164 94 -262q100 -103 270 -103zM1364 1821l78 -152q26 -45 26 -65q0 -50 -69 -50q-118 0 -180 68l-74 80l-117 -80q-100 -68 -194 -68q-66 0 -66 48q0 30 35 65l168 162q69 69 159 69h91q102 0 143 -77z" />
    <glyph glyph-name="Otilde" unicode="&#xd5;" horiz-adv-x="1703" 
d="M793 -25q-293 0 -476 183q-180 177 -180 452q0 334 238 584q252 264 624 264q294 0 476 -182q180 -177 180 -453q0 -333 -238 -583q-253 -265 -624 -265zM829 266q216 0 363 176q135 164 135 361q0 164 -94 262q-99 102 -270 102q-216 0 -363 -176q-135 -163 -135 -360
q0 -164 94 -262q100 -103 270 -103zM805 1561q-86 0 -86 81q0 31 16 60q114 205 279 205q80 0 162 -60q74 -53 108 -53q57 0 111 66q41 47 92 47q86 0 86 -82q0 -29 -17 -60q-113 -204 -278 -204q-79 0 -162 59q-74 53 -108 53q-58 0 -111 -65q-41 -47 -92 -47z" />
    <glyph glyph-name="Odieresis" unicode="&#xd6;" horiz-adv-x="1703" 
d="M793 -25q-293 0 -476 183q-180 177 -180 452q0 334 238 584q252 264 624 264q294 0 476 -182q180 -177 180 -453q0 -333 -238 -583q-253 -265 -624 -265zM829 266q216 0 363 176q135 164 135 361q0 164 -94 262q-99 102 -270 102q-216 0 -363 -176q-135 -163 -135 -360
q0 -164 94 -262q100 -103 270 -103zM1087 1710l-2 -8q-27 -148 -186 -148q-70 0 -111 41q-39 42 -24 107l2 8q30 145 186 145q69 0 109 -43q38 -41 26 -102zM1526 1710l-2 -8q-27 -148 -187 -148q-69 0 -110 41q-40 43 -25 107l2 8q30 145 187 145q68 0 108 -43
q39 -42 27 -102z" />
    <glyph glyph-name="multiply" unicode="&#xd7;" horiz-adv-x="1310" 
d="M897 702l158 -210q32 -40 32 -93q0 -59 -40 -102q-44 -41 -103 -41q-77 0 -119 63l-147 213l-303 -243q-39 -31 -86 -31q-55 0 -94 39t-39 94q0 63 55 109l309 239l-158 211q-32 40 -32 92q0 59 41 103q44 41 102 41q76 0 119 -64l147 -213l303 244q39 31 86 31
q56 0 95 -39t39 -94q0 -62 -56 -109z" />
    <glyph glyph-name="Oslash" unicode="&#xd8;" horiz-adv-x="1703" 
d="M453 631q0 -93 26 -158l738 623q-100 86 -254 86q-215 0 -369 -183q-141 -169 -141 -368zM829 252q216 0 369 182q141 170 141 369q0 77 -20 133l-729 -614q91 -70 239 -70zM354 123l-121 -103q-52 -43 -96 -43q-92 0 -92 89q0 47 64 102l118 102q-90 146 -90 340
q0 334 238 584q252 264 624 264q273 0 453 -162l139 117q52 43 97 43q92 0 92 -88q0 -47 -64 -102l-141 -123q80 -145 80 -320q0 -333 -238 -583q-253 -265 -624 -265q-256 0 -439 148z" />
    <glyph glyph-name="Ugrave" unicode="&#xd9;" horiz-adv-x="1564" 
d="M1589 1241l-178 -661q-73 -278 -221 -426q-177 -177 -488 -177q-248 0 -393 127q-143 128 -143 357q0 92 35 229l159 598q41 158 177 158q78 0 116 -53q35 -59 11 -152l-156 -579q-23 -97 -23 -156q0 -108 64 -172q69 -66 186 -66q138 0 234 90q92 92 139 267l178 663
q41 158 176 158q79 0 117 -53q34 -58 10 -152zM872 1602l-94 118q-28 42 -28 66q0 35 57 69q53 33 115 33q81 0 108 -76l62 -167q8 -21 8 -43q0 -68 -99 -68q-76 0 -129 68z" />
    <glyph glyph-name="Uacute" unicode="&#xda;" horiz-adv-x="1564" 
d="M1589 1241l-178 -661q-73 -278 -221 -426q-177 -177 -488 -177q-248 0 -393 127q-143 128 -143 357q0 92 35 229l159 598q41 158 177 158q78 0 116 -53q35 -59 11 -152l-156 -579q-23 -97 -23 -156q0 -108 64 -172q69 -66 186 -66q138 0 234 90q92 92 139 267l178 663
q41 158 176 158q79 0 117 -53q34 -58 10 -152zM1405 1720l-160 -118q-89 -68 -182 -68q-86 0 -86 57q0 31 27 58l155 172q64 67 117 67q60 0 115 -30q59 -30 59 -70q0 -35 -45 -68z" />
    <glyph glyph-name="Ucircumflex" unicode="&#xdb;" horiz-adv-x="1564" 
d="M1589 1241l-178 -661q-73 -278 -221 -426q-177 -177 -488 -177q-248 0 -393 127q-143 128 -143 357q0 92 35 229l159 598q41 158 177 158q78 0 116 -53q35 -59 11 -152l-156 -579q-23 -97 -23 -156q0 -108 64 -172q69 -66 186 -66q138 0 234 90q92 92 139 267l178 663
q41 158 176 158q79 0 117 -53q34 -58 10 -152zM1292 1800l78 -151q27 -47 27 -66q0 -49 -70 -49q-118 0 -180 68l-74 79l-117 -79q-100 -68 -194 -68q-66 0 -66 47q0 31 35 66l168 161q70 70 160 70h90q102 0 143 -78z" />
    <glyph glyph-name="Udieresis" unicode="&#xdc;" horiz-adv-x="1564" 
d="M1589 1241l-178 -661q-73 -278 -221 -426q-177 -177 -488 -177q-248 0 -393 127q-143 128 -143 357q0 92 35 229l159 598q41 158 177 158q78 0 116 -53q35 -59 11 -152l-156 -579q-23 -97 -23 -156q0 -108 64 -172q69 -66 186 -66q138 0 234 90q92 92 139 267l178 663
q41 158 176 158q79 0 117 -53q34 -58 10 -152zM1016 1690l-2 -9q-27 -147 -187 -147q-69 0 -110 41q-40 43 -25 106l2 9q30 145 187 145q68 0 108 -43q39 -42 27 -102zM1454 1690l-2 -9q-27 -147 -186 -147q-70 0 -111 41q-40 43 -25 106l3 9q30 145 186 145q68 0 108 -43
q39 -42 27 -102z" />
    <glyph glyph-name="Yacute" unicode="&#xdd;" horiz-adv-x="1331" 
d="M803 524l-103 -379q-41 -157 -176 -157q-79 0 -114 53q-37 58 -13 152l97 360l-258 625q-31 76 -31 118q0 63 47 107q49 43 123 43q107 0 153 -123l183 -492l479 527q84 90 170 90q131 0 131 -129q0 -66 -53 -125zM1272 1720l-160 -118q-89 -68 -182 -68q-86 0 -86 57
q0 32 26 58l156 172q64 67 117 67q59 0 114 -30q60 -31 60 -70q0 -35 -45 -68z" />
    <glyph glyph-name="Thorn" unicode="&#xde;" horiz-adv-x="1411" 
d="M475 502h215q160 0 254 67q96 72 96 189q0 72 -47 119q-63 63 -196 63h-205zM670 1225h139q305 0 451 -146q110 -110 110 -295q0 -259 -201 -413q-196 -146 -495 -146h-273l-22 -80q-41 -157 -176 -157q-80 0 -115 53q-36 57 -12 152l295 1095q41 158 176 158
q79 0 117 -53q34 -58 10 -152z" />
    <glyph glyph-name="germandbls" unicode="&#xdf;" horiz-adv-x="1294" 
d="M758 850q215 71 215 242q0 72 -47 116q-45 39 -115 39q-175 0 -236 -233l-229 -869q-41 -157 -174 -157q-80 0 -115 53q-37 58 -10 152l225 837q58 218 179 338q141 141 370 141q209 0 328 -110q117 -108 117 -277q0 -289 -316 -391q213 -92 213 -285q0 -192 -147 -321
q-149 -131 -391 -131q-138 0 -138 125q0 108 109 117q274 24 274 219q0 98 -116 147q-101 40 -101 119q0 95 105 129z" />
    <glyph glyph-name="agrave" unicode="&#xe0;" horiz-adv-x="1204" 
d="M795 -12q-142 0 -133 139q-138 -147 -328 -147q-143 0 -232 83q-88 82 -88 211q0 185 138 293q130 103 335 103q156 0 310 -49l4 14q12 50 12 82q0 129 -207 129q-95 0 -190 -25q-33 -8 -51 -8q-54 0 -89 35q-34 37 -34 90q0 94 94 121q154 51 336 51q444 0 444 -338
q0 -72 -24 -166l-123 -461q-41 -157 -174 -157zM467 193q94 0 174 65q75 63 102 156l9 28q-98 39 -205 39q-100 0 -160 -45q-63 -48 -63 -127q0 -52 38 -84t105 -32zM602 1274l-94 119q-29 43 -29 65q0 36 58 70q53 33 114 33q82 0 109 -76l61 -168q8 -21 8 -43
q0 -68 -98 -68q-76 0 -129 68z" />
    <glyph glyph-name="aacute" unicode="&#xe1;" horiz-adv-x="1204" 
d="M795 -12q-142 0 -133 139q-138 -147 -328 -147q-143 0 -232 83q-88 82 -88 211q0 185 138 293q130 103 335 103q156 0 310 -49l4 14q12 50 12 82q0 129 -207 129q-95 0 -190 -25q-33 -8 -51 -8q-54 0 -89 35q-34 37 -34 90q0 94 94 121q154 51 336 51q444 0 444 -338
q0 -72 -24 -166l-123 -461q-41 -157 -174 -157zM1135 1393l-160 -119q-89 -68 -182 -68q-86 0 -86 58q0 31 26 57l156 172q65 68 117 68q57 0 114 -31q60 -31 60 -70q0 -34 -45 -67zM467 193q94 0 174 65q75 63 102 156l9 28q-98 39 -205 39q-100 0 -160 -45
q-63 -48 -63 -127q0 -52 38 -84t105 -32z" />
    <glyph glyph-name="acircumflex" unicode="&#xe2;" horiz-adv-x="1204" 
d="M795 -12q-142 0 -133 139q-138 -147 -328 -147q-143 0 -232 83q-88 82 -88 211q0 185 138 293q130 103 335 103q156 0 310 -49l4 14q12 50 12 82q0 129 -207 129q-95 0 -190 -25q-33 -8 -51 -8q-54 0 -89 35q-34 37 -34 90q0 94 94 121q154 51 336 51q444 0 444 -338
q0 -72 -24 -166l-123 -461q-41 -157 -174 -157zM1022 1473l78 -152q26 -45 26 -66q0 -49 -69 -49q-118 0 -180 68l-74 80l-117 -80q-100 -68 -194 -68q-66 0 -66 47q0 31 35 66l168 162q69 69 159 69h91q102 0 143 -77zM467 193q94 0 174 65q75 63 102 156l9 28
q-98 39 -205 39q-100 0 -160 -45q-63 -48 -63 -127q0 -52 38 -84t105 -32z" />
    <glyph glyph-name="atilde" unicode="&#xe3;" horiz-adv-x="1204" 
d="M795 -12q-142 0 -133 139q-138 -147 -328 -147q-143 0 -232 83q-88 82 -88 211q0 185 138 293q130 103 335 103q156 0 310 -49l4 14q12 50 12 82q0 129 -207 129q-95 0 -190 -25q-33 -8 -51 -8q-54 0 -89 35q-34 37 -34 90q0 94 94 121q154 51 336 51q444 0 444 -338
q0 -72 -24 -166l-123 -461q-41 -157 -174 -157zM463 1212q-86 0 -86 82q0 31 16 60q114 205 279 205q80 0 162 -60q74 -53 108 -53q58 0 111 65q42 48 92 48q86 0 86 -82q0 -29 -17 -60q-114 -205 -278 -205q-77 0 -162 60q-74 53 -108 53q-58 0 -111 -65q-42 -48 -92 -48z
M467 193q94 0 174 65q75 63 102 156l9 28q-98 39 -205 39q-100 0 -160 -45q-63 -48 -63 -127q0 -52 38 -84t105 -32z" />
    <glyph glyph-name="adieresis" unicode="&#xe4;" horiz-adv-x="1204" 
d="M795 -12q-142 0 -133 139q-138 -147 -328 -147q-143 0 -232 83q-88 82 -88 211q0 185 138 293q130 103 335 103q156 0 310 -49l4 14q12 50 12 82q0 129 -207 129q-95 0 -190 -25q-33 -8 -51 -8q-54 0 -89 35q-34 37 -34 90q0 94 94 121q154 51 336 51q444 0 444 -338
q0 -72 -24 -166l-123 -461q-41 -157 -174 -157zM467 193q94 0 174 65q75 63 102 156l9 28q-98 39 -205 39q-100 0 -160 -45q-63 -48 -63 -127q0 -52 38 -84t105 -32zM745 1362l-2 -8q-27 -148 -186 -148q-70 0 -111 41q-39 42 -24 107l2 8q30 145 186 145q69 0 109 -43
q38 -41 26 -102zM1184 1362l-2 -8q-27 -148 -187 -148q-69 0 -110 41q-40 43 -25 107l2 8q30 145 187 145q68 0 108 -43q39 -42 27 -102z" />
    <glyph glyph-name="aring" unicode="&#xe5;" horiz-adv-x="1204" 
d="M795 -12q-142 0 -133 139q-138 -147 -328 -147q-143 0 -232 83q-88 82 -88 211q0 185 138 293q130 103 335 103q156 0 310 -49l4 14q12 50 12 82q0 129 -207 129q-95 0 -190 -25q-33 -8 -51 -8q-54 0 -89 35q-34 37 -34 90q0 94 94 121q154 51 336 51q444 0 444 -338
q0 -72 -24 -166l-123 -461q-41 -157 -174 -157zM807 1214q-102 0 -164 62q-61 58 -61 151q0 113 80 193q79 82 194 82q101 0 166 -62q59 -59 59 -151q0 -113 -80 -193q-79 -82 -194 -82zM467 193q94 0 174 65q75 63 102 156l9 28q-98 39 -205 39q-100 0 -160 -45
q-63 -48 -63 -127q0 -52 38 -84t105 -32zM811 1327q60 0 100 49q39 45 39 111q0 102 -98 102q-60 0 -100 -49q-39 -45 -39 -110q0 -103 98 -103z" />
    <glyph glyph-name="ae" unicode="&#xe6;" horiz-adv-x="1925" 
d="M1866 690q0 -52 -13 -112q-30 -138 -149 -138h-645q15 -215 250 -215q94 0 170 43q56 29 94 29q51 0 84 -33t33 -86q0 -62 -60 -104q-150 -99 -356 -99q-295 0 -418 211q-200 -206 -491 -206q-168 0 -261 81q-90 78 -90 213q0 185 138 293q130 103 335 103q156 0 310 -49
l4 14q12 50 12 82q0 129 -207 129q-95 0 -190 -25q-33 -8 -51 -8q-54 0 -89 35q-34 37 -34 90q0 94 94 121q154 51 336 51q269 0 360 -162q170 170 395 170q202 0 322 -123q117 -120 117 -305zM547 481q-100 0 -160 -45q-63 -48 -63 -127q0 -116 163 -116q177 0 316 139
q-9 44 -12 94q-125 55 -244 55zM1085 635h478q10 38 10 72q0 161 -180 161q-223 0 -308 -233z" />
    <glyph glyph-name="ccedilla" unicode="&#xe7;" horiz-adv-x="1146" 
d="M967 104q-156 -126 -361 -129l-168 -251q-45 -66 -106 -66q-46 0 -90 33q-49 34 -49 71q0 32 30 66l174 180q-311 114 -311 463q0 269 193 459q191 188 454 188q231 0 371 -137q57 -51 57 -121q0 -59 -43 -102t-106 -43q-64 0 -103 45q-77 92 -200 92q-125 0 -220 -115
q-96 -116 -96 -266q0 -103 62 -168q60 -63 153 -63q101 0 189 61q53 35 92 35q53 0 90 -37q35 -41 35 -92q0 -62 -47 -103z" />
    <glyph glyph-name="egrave" unicode="&#xe8;" horiz-adv-x="1243" 
d="M627 225q94 0 170 43q56 29 94 29q51 0 84 -33t33 -86q0 -62 -60 -104q-150 -99 -356 -99q-239 0 -373 131q-135 129 -135 357q0 253 178 446q191 209 473 209q209 0 332 -123q117 -117 117 -305q0 -52 -13 -112q-30 -138 -149 -138h-645q15 -215 250 -215zM403 635h478
q10 38 10 72q0 161 -180 161q-223 0 -308 -233zM629 1274l-94 119q-29 43 -29 65q0 36 57 70q53 33 115 33q81 0 108 -76l62 -168q8 -21 8 -43q0 -68 -98 -68q-76 0 -129 68z" />
    <glyph glyph-name="eacute" unicode="&#xe9;" horiz-adv-x="1243" 
d="M627 225q94 0 170 43q56 29 94 29q51 0 84 -33t33 -86q0 -62 -60 -104q-150 -99 -356 -99q-239 0 -373 131q-135 129 -135 357q0 253 178 446q191 209 473 209q209 0 332 -123q117 -117 117 -305q0 -52 -13 -112q-30 -138 -149 -138h-645q15 -215 250 -215zM1161 1393
l-160 -119q-89 -68 -182 -68q-86 0 -86 58q0 30 27 57l155 172q65 68 117 68q58 0 115 -31q59 -30 59 -70q0 -34 -45 -67zM403 635h478q10 38 10 72q0 161 -180 161q-223 0 -308 -233z" />
    <glyph glyph-name="ecircumflex" unicode="&#xea;" horiz-adv-x="1243" 
d="M627 225q94 0 170 43q56 29 94 29q51 0 84 -33t33 -86q0 -62 -60 -104q-150 -99 -356 -99q-239 0 -373 131q-135 129 -135 357q0 253 178 446q191 209 473 209q209 0 332 -123q117 -117 117 -305q0 -52 -13 -112q-30 -138 -149 -138h-645q15 -215 250 -215zM1051 1473
l77 -152q27 -47 27 -66q0 -49 -70 -49q-118 0 -180 68l-74 80l-116 -80q-100 -68 -195 -68q-65 0 -65 47q0 32 34 66l168 162q69 69 160 69h90q103 0 144 -77zM403 635h478q10 38 10 72q0 161 -180 161q-223 0 -308 -233z" />
    <glyph glyph-name="edieresis" unicode="&#xeb;" horiz-adv-x="1243" 
d="M627 225q94 0 170 43q56 29 94 29q51 0 84 -33t33 -86q0 -62 -60 -104q-150 -99 -356 -99q-239 0 -373 131q-135 129 -135 357q0 253 178 446q191 209 473 209q209 0 332 -123q117 -117 117 -305q0 -52 -13 -112q-30 -138 -149 -138h-645q15 -215 250 -215zM403 635h478
q10 38 10 72q0 161 -180 161q-223 0 -308 -233zM774 1362l-2 -8q-27 -148 -186 -148q-70 0 -111 41q-39 42 -24 107l2 8q30 145 186 145q69 0 109 -43q38 -41 26 -102zM1212 1362l-2 -8q-27 -148 -186 -148q-70 0 -111 41q-39 42 -24 107l2 8q30 145 186 145q69 0 109 -43
q38 -41 26 -102z" />
    <glyph glyph-name="igrave" unicode="&#xec;" horiz-adv-x="618" 
d="M563 905l-205 -760q-41 -157 -174 -157q-79 0 -114 53q-38 59 -11 152l205 759q41 158 174 158q80 0 115 -53q37 -58 10 -152zM326 1274l-95 119q-28 42 -28 65q0 36 57 70q53 33 115 33q81 0 108 -76l62 -168q8 -21 8 -43q0 -68 -98 -68q-76 0 -129 68z" />
    <glyph glyph-name="iacute" unicode="&#xed;" horiz-adv-x="618" 
d="M563 905l-205 -760q-41 -157 -174 -157q-79 0 -114 53q-38 59 -11 152l205 759q41 158 174 158q80 0 115 -53q37 -58 10 -152zM858 1393l-160 -119q-89 -68 -182 -68q-86 0 -86 58q0 30 27 57l155 172q65 68 117 68q58 0 115 -31q59 -30 59 -70q0 -34 -45 -67z" />
    <glyph glyph-name="icircumflex" unicode="&#xee;" horiz-adv-x="618" 
d="M563 905l-205 -760q-41 -157 -174 -157q-79 0 -114 53q-38 59 -11 152l205 759q41 158 174 158q80 0 115 -53q37 -58 10 -152zM748 1473l77 -152q27 -47 27 -66q0 -49 -70 -49q-118 0 -180 68l-74 80l-116 -80q-100 -68 -195 -68q-65 0 -65 47q0 32 34 66l168 162
q69 69 160 69h90q103 0 144 -77z" />
    <glyph glyph-name="idieresis" unicode="&#xef;" horiz-adv-x="618" 
d="M563 905l-205 -760q-41 -157 -174 -157q-79 0 -114 53q-38 59 -11 152l205 759q41 158 174 158q80 0 115 -53q37 -58 10 -152zM473 1362l-2 -8q-27 -148 -186 -148q-70 0 -111 41q-39 42 -24 107l2 8q30 145 186 145q68 0 108 -43q39 -42 27 -102zM911 1362l-2 -8
q-27 -148 -186 -148q-70 0 -111 41q-39 42 -24 107l2 8q30 145 186 145q69 0 109 -43q38 -41 26 -102z" />
    <glyph glyph-name="eth" unicode="&#xf0;" horiz-adv-x="1306" 
d="M520 1255l195 72q-6 21 -6 53q0 58 39 97q36 36 96 36q92 0 127 -71l8 -19l203 74q19 8 47 8q80 0 80 -80q0 -60 -72 -88l-190 -69l77 -176q90 -209 90 -420q0 -300 -165 -492q-175 -205 -463 -205q-227 0 -367 134q-141 132 -141 348q0 223 158 381q157 157 378 157
q177 0 310 -121l-138 297l-211 -75q-21 -9 -47 -9q-79 0 -79 80q0 61 71 88zM604 238q128 0 213 94q82 88 82 209q0 107 -63 170t-168 63q-125 0 -209 -90q-84 -87 -84 -209q0 -109 65 -174q63 -63 164 -63z" />
    <glyph glyph-name="ntilde" unicode="&#xf1;" horiz-adv-x="1267" 
d="M430 1110q65 0 105 -37q34 -34 34 -90q150 135 299 135q147 0 236 -86q88 -85 88 -233q0 -73 -37 -209l-119 -445q-41 -157 -174 -157q-79 0 -114 53q-38 59 -11 152l111 409q14 49 14 98q0 136 -151 136q-179 0 -238 -220l-127 -471q-41 -157 -174 -157q-80 0 -115 53
q-37 58 -10 152l203 759q41 158 180 158zM496 1212q-86 0 -86 82q0 31 16 60q114 205 279 205q79 0 161 -60q74 -53 109 -53q57 0 110 65q42 48 93 48q86 0 86 -82q0 -29 -17 -60q-114 -205 -278 -205q-77 0 -162 60q-74 53 -109 53q-57 0 -110 -65q-42 -48 -92 -48z" />
    <glyph glyph-name="ograve" unicode="&#xf2;" horiz-adv-x="1335" 
d="M614 -25q-240 0 -387 144q-141 141 -141 364q0 252 186 441q188 194 449 194q241 0 387 -143q141 -141 141 -365q0 -250 -184 -440q-192 -195 -451 -195zM629 242q135 0 229 123q86 112 86 237q0 119 -65 184q-66 66 -172 66q-135 0 -230 -121q-86 -115 -86 -239
q0 -119 66 -185q65 -65 172 -65zM674 1274l-94 119q-29 43 -29 65q0 36 57 70q53 33 115 33q81 0 108 -76l62 -168q8 -21 8 -43q0 -68 -98 -68q-76 0 -129 68z" />
    <glyph glyph-name="oacute" unicode="&#xf3;" horiz-adv-x="1335" 
d="M614 -25q-240 0 -387 144q-141 141 -141 364q0 252 186 441q188 194 449 194q241 0 387 -143q141 -141 141 -365q0 -250 -184 -440q-192 -195 -451 -195zM629 242q135 0 229 123q86 112 86 237q0 119 -65 184q-66 66 -172 66q-135 0 -230 -121q-86 -115 -86 -239
q0 -119 66 -185q65 -65 172 -65zM1206 1393l-159 -119q-89 -68 -183 -68q-86 0 -86 58q0 30 27 57l156 172q65 68 116 68q58 0 115 -31q59 -30 59 -70q0 -34 -45 -67z" />
    <glyph glyph-name="ocircumflex" unicode="&#xf4;" horiz-adv-x="1335" 
d="M614 -25q-240 0 -387 144q-141 141 -141 364q0 252 186 441q188 194 449 194q241 0 387 -143q141 -141 141 -365q0 -250 -184 -440q-192 -195 -451 -195zM629 242q135 0 229 123q86 112 86 237q0 119 -65 184q-66 66 -172 66q-135 0 -230 -121q-86 -115 -86 -239
q0 -119 66 -185q65 -65 172 -65zM1096 1473l78 -152q26 -45 26 -66q0 -49 -70 -49q-118 0 -180 68l-73 80l-117 -80q-100 -68 -195 -68q-65 0 -65 47q0 31 35 66l167 162q69 69 160 69h90q103 0 144 -77z" />
    <glyph glyph-name="otilde" unicode="&#xf5;" horiz-adv-x="1335" 
d="M614 -25q-240 0 -387 144q-141 141 -141 364q0 252 186 441q188 194 449 194q241 0 387 -143q141 -141 141 -365q0 -250 -184 -440q-192 -195 -451 -195zM629 242q135 0 229 123q86 112 86 237q0 119 -65 184q-66 66 -172 66q-135 0 -230 -121q-86 -115 -86 -239
q0 -119 66 -185q65 -65 172 -65zM537 1212q-86 0 -86 82q0 31 16 60q114 205 278 205q80 0 162 -60q74 -53 109 -53q57 0 110 65q42 48 93 48q86 0 86 -82q0 -29 -17 -60q-114 -205 -278 -205q-77 0 -162 60q-74 53 -109 53q-57 0 -110 -65q-42 -48 -92 -48z" />
    <glyph glyph-name="odieresis" unicode="&#xf6;" horiz-adv-x="1335" 
d="M614 -25q-240 0 -387 144q-141 141 -141 364q0 252 186 441q188 194 449 194q241 0 387 -143q141 -141 141 -365q0 -250 -184 -440q-192 -195 -451 -195zM629 242q135 0 229 123q86 112 86 237q0 119 -65 184q-66 66 -172 66q-135 0 -230 -121q-86 -115 -86 -239
q0 -119 66 -185q65 -65 172 -65zM819 1362l-2 -8q-27 -148 -186 -148q-70 0 -111 41q-39 42 -24 107l2 8q30 145 186 145q69 0 109 -43q38 -41 26 -102zM1257 1362l-2 -8q-27 -148 -186 -148q-70 0 -111 41q-39 42 -24 107l2 8q30 145 186 145q69 0 109 -43q38 -41 26 -102z
" />
    <glyph glyph-name="divide" unicode="&#xf7;" horiz-adv-x="1310" 
d="M1096 590h-795q-53 0 -92 39t-39 92t39 92t92 39h795q53 0 92 -39t39 -92t-39 -92t-92 -39zM754 303q0 58 -43 98q-39 39 -105 39q-76 0 -135 -53q-57 -54 -57 -129q0 -58 43 -98q39 -39 104 -39q77 0 135 55q58 52 58 127zM987 1184q0 58 -43 98q-39 39 -104 39
q-76 0 -135 -53q-58 -55 -58 -129q0 -59 43 -99q39 -39 105 -39q76 0 135 56q57 51 57 127z" />
    <glyph glyph-name="oslash" unicode="&#xf8;" horiz-adv-x="1335" 
d="M629 231q134 0 233 123q92 115 92 248q0 38 -10 90l-450 -432q63 -29 135 -29zM381 492q0 -40 6 -78l442 424q-49 24 -122 24q-135 0 -234 -123q-92 -115 -92 -247zM291 66l-47 -46q-46 -43 -97 -43q-92 0 -92 84q0 47 49 93l56 51q-74 118 -74 278q0 252 186 441
q188 194 449 194q178 0 309 -84l45 43q46 43 96 43q93 0 93 -84q0 -45 -50 -92l-47 -43q82 -125 82 -291q0 -250 -184 -440q-192 -195 -451 -195q-184 0 -323 91z" />
    <glyph glyph-name="ugrave" unicode="&#xf9;" horiz-adv-x="1273" 
d="M846 -12q-66 0 -103 37q-36 33 -36 90q-150 -135 -299 -135q-147 0 -236 86q-88 85 -88 233q0 73 37 209l119 444q41 158 174 158q79 0 114 -53q38 -59 11 -152l-111 -409q-14 -49 -14 -99q0 -135 151 -135q179 0 238 219l127 471q41 158 174 158q80 0 115 -53
q37 -58 10 -152l-203 -760q-41 -157 -180 -157zM645 1274l-94 119q-29 43 -29 65q0 36 58 70q53 33 114 33q82 0 109 -76l61 -168q8 -21 8 -43q0 -68 -98 -68q-76 0 -129 68z" />
    <glyph glyph-name="uacute" unicode="&#xfa;" horiz-adv-x="1273" 
d="M846 -12q-66 0 -103 37q-36 33 -36 90q-150 -135 -299 -135q-147 0 -236 86q-88 85 -88 233q0 73 37 209l119 444q41 158 174 158q79 0 114 -53q38 -59 11 -152l-111 -409q-14 -49 -14 -99q0 -135 151 -135q179 0 238 219l127 471q41 158 174 158q80 0 115 -53
q37 -58 10 -152l-203 -760q-41 -157 -180 -157zM1178 1393l-160 -119q-89 -68 -182 -68q-86 0 -86 58q0 31 26 57l156 172q65 68 117 68q57 0 114 -31q60 -31 60 -70q0 -34 -45 -67z" />
    <glyph glyph-name="ucircumflex" unicode="&#xfb;" horiz-adv-x="1273" 
d="M846 -12q-66 0 -103 37q-36 33 -36 90q-150 -135 -299 -135q-147 0 -236 86q-88 85 -88 233q0 73 37 209l119 444q41 158 174 158q79 0 114 -53q38 -59 11 -152l-111 -409q-14 -49 -14 -99q0 -135 151 -135q179 0 238 219l127 471q41 158 174 158q80 0 115 -53
q37 -58 10 -152l-203 -760q-41 -157 -180 -157zM1065 1473l78 -152q26 -45 26 -66q0 -49 -69 -49q-118 0 -180 68l-74 80l-117 -80q-100 -68 -194 -68q-66 0 -66 47q0 31 35 66l168 162q69 69 159 69h91q102 0 143 -77z" />
    <glyph glyph-name="udieresis" unicode="&#xfc;" horiz-adv-x="1273" 
d="M846 -12q-66 0 -103 37q-36 33 -36 90q-150 -135 -299 -135q-147 0 -236 86q-88 85 -88 233q0 73 37 209l119 444q41 158 174 158q79 0 114 -53q38 -59 11 -152l-111 -409q-14 -49 -14 -99q0 -135 151 -135q179 0 238 219l127 471q41 158 174 158q80 0 115 -53
q37 -58 10 -152l-203 -760q-41 -157 -180 -157zM1227 1362l-2 -8q-27 -148 -187 -148q-69 0 -110 41q-40 43 -25 107l2 8q30 145 187 145q68 0 108 -43q39 -42 27 -102zM788 1362l-2 -8q-27 -148 -186 -148q-70 0 -111 41q-39 42 -24 107l2 8q30 145 186 145q69 0 109 -43
q38 -41 26 -102z" />
    <glyph glyph-name="yacute" unicode="&#xfd;" horiz-adv-x="1212" 
d="M127 -55q70 -17 92 -17q56 0 107 66l-131 897q-7 40 -7 74q0 62 45 104q47 41 111 41q63 0 107 -35q42 -36 45 -98l63 -633l385 668q52 98 158 98q135 0 135 -121q0 -41 -41 -106l-569 -910q-193 -307 -445 -307q-93 0 -147 23q-94 40 -94 135q0 57 36 96t86 39
q15 0 64 -14zM1128 1393l-159 -119q-89 -68 -183 -68q-86 0 -86 58q0 30 27 57l156 172q65 68 116 68q58 0 115 -31q60 -31 60 -70q0 -33 -46 -67z" />
    <glyph glyph-name="thorn" unicode="&#xfe;" horiz-adv-x="1380" 
d="M651 242q132 0 226 110q100 112 100 275q0 106 -62 168q-64 61 -167 61q-132 0 -230 -113q-102 -114 -102 -268q0 -103 65 -168t170 -65zM-41 -135l397 1485q41 157 174 157q80 0 115 -53q37 -57 10 -151l-88 -324q151 139 310 139q185 0 301 -125q120 -129 120 -346
q0 -287 -186 -479q-182 -188 -420 -188q-225 0 -344 180l-90 -342q-41 -158 -174 -158q-80 0 -115 53q-37 58 -10 152z" />
    <glyph glyph-name="ydieresis" unicode="&#xff;" horiz-adv-x="1212" 
d="M127 -55q70 -17 92 -17q56 0 107 66l-131 897q-7 40 -7 74q0 62 45 104q47 41 111 41q63 0 107 -35q42 -36 45 -98l63 -633l385 668q52 98 158 98q135 0 135 -121q0 -41 -41 -106l-569 -910q-193 -307 -445 -307q-93 0 -147 23q-94 40 -94 135q0 57 36 96t86 39
q15 0 64 -14zM741 1362l-2 -8q-27 -148 -186 -148q-70 0 -111 41q-39 42 -24 107l2 8q30 145 186 145q69 0 109 -43q38 -41 26 -102zM1180 1362l-2 -8q-27 -148 -187 -148q-69 0 -110 41q-40 43 -25 107l2 8q30 145 186 145q69 0 109 -43q39 -42 27 -102z" />
    <glyph glyph-name="Amacron" unicode="&#x100;" horiz-adv-x="1566" 
d="M621 600h397l-74 473zM1208 1307l193 -1086q10 -78 10 -82q0 -64 -45 -106q-45 -45 -117 -45q-135 0 -153 125l-33 209h-635l-164 -236q-70 -98 -160 -98q-129 0 -129 123q0 55 37 104l797 1118q85 123 221 123h6q145 0 172 -149zM1374 1577h-545q-44 0 -75 31
q-33 29 -33 75q0 47 33 76q29 33 75 33h545q47 0 76 -33q33 -29 33 -76q0 -46 -33 -75q-31 -31 -76 -31z" />
    <glyph glyph-name="amacron" unicode="&#x101;" horiz-adv-x="1204" 
d="M795 -12q-142 0 -133 139q-138 -147 -328 -147q-143 0 -232 83q-88 82 -88 211q0 185 138 293q130 103 335 103q156 0 310 -49l4 14q12 50 12 82q0 129 -207 129q-95 0 -190 -25q-33 -8 -51 -8q-54 0 -89 35q-34 37 -34 90q0 94 94 121q154 51 336 51q444 0 444 -338
q0 -72 -24 -166l-123 -461q-41 -157 -174 -157zM1069 1229h-545q-44 0 -75 31q-33 29 -33 75q0 47 33 76q29 33 75 33h545q47 0 76 -33q33 -29 33 -76q0 -46 -33 -75q-31 -31 -76 -31zM467 193q94 0 174 65q75 63 102 156l9 28q-98 39 -205 39q-100 0 -160 -45
q-63 -48 -63 -127q0 -52 38 -84t105 -32z" />
    <glyph glyph-name="Abreve" unicode="&#x102;" horiz-adv-x="1566" 
d="M621 600h397l-74 473zM1208 1307l193 -1086q10 -78 10 -82q0 -64 -45 -106q-45 -45 -117 -45q-135 0 -153 125l-33 209h-635l-164 -236q-70 -98 -160 -98q-129 0 -129 123q0 55 37 104l797 1118q85 123 221 123h6q145 0 172 -149zM1106 1563q-146 0 -244 79
q-88 73 -88 164q0 40 31 68q30 27 76 27q70 0 98 -54q46 -82 149 -82q85 0 158 82q51 54 107 54q92 0 92 -89q0 -36 -29 -73q-144 -176 -350 -176z" />
    <glyph glyph-name="abreve" unicode="&#x103;" horiz-adv-x="1204" 
d="M795 -12q-142 0 -133 139q-138 -147 -328 -147q-143 0 -232 83q-88 82 -88 211q0 185 138 293q130 103 335 103q156 0 310 -49l4 14q12 50 12 82q0 129 -207 129q-95 0 -190 -25q-33 -8 -51 -8q-54 0 -89 35q-34 37 -34 90q0 94 94 121q154 51 336 51q444 0 444 -338
q0 -72 -24 -166l-123 -461q-41 -157 -174 -157zM803 1214q-144 0 -244 80q-88 73 -88 164q0 40 31 68q29 26 76 26q71 0 98 -53q46 -82 149 -82q85 0 158 82q50 53 107 53q92 0 92 -88q0 -36 -29 -73q-145 -177 -350 -177zM467 193q94 0 174 65q75 63 102 156l9 28
q-98 39 -205 39q-100 0 -160 -45q-63 -48 -63 -127q0 -52 38 -84t105 -32z" />
    <glyph glyph-name="Aogonek" unicode="&#x104;" horiz-adv-x="1566" 
d="M1219 -344q-218 0 -218 137q0 97 150 223q-49 37 -55 97l-33 209h-635l-164 -236q-70 -98 -160 -98q-129 0 -129 123q0 55 37 104l797 1118q85 123 221 123h6q145 0 172 -149l193 -1086q10 -78 10 -82q0 -62 -57 -119q-111 -114 -111 -161q0 -36 62 -54q68 -21 65 -71
q-3 -78 -151 -78zM621 600h397l-74 473z" />
    <glyph glyph-name="aogonek" unicode="&#x105;" horiz-adv-x="1204" 
d="M895 20q-111 -111 -111 -161q0 -36 62 -54q68 -21 65 -71q-3 -78 -151 -78q-217 0 -217 137q0 101 151 225q-35 32 -32 109q-138 -147 -328 -147q-143 0 -232 83q-88 82 -88 211q0 185 138 293q130 103 335 103q156 0 310 -49l4 14q12 50 12 82q0 129 -207 129
q-95 0 -190 -25q-33 -8 -51 -8q-54 0 -89 35q-34 37 -34 90q0 94 94 121q154 51 336 51q444 0 444 -338q0 -72 -24 -166l-123 -461q-17 -68 -74 -125zM467 193q94 0 174 65q75 63 102 156l9 28q-98 39 -205 39q-100 0 -160 -45q-63 -48 -63 -127q0 -52 38 -84t105 -32z" />
    <glyph glyph-name="Cacute" unicode="&#x106;" horiz-adv-x="1486" 
d="M1280 129q-183 -154 -467 -154q-299 0 -485 168q-191 176 -191 457q0 344 256 600q258 258 617 258q282 0 473 -176q65 -62 65 -133q0 -68 -47 -115q-46 -49 -115 -49q-71 0 -110 45q-125 137 -305 137q-200 0 -350 -163q-156 -167 -156 -392q0 -156 98 -250
q101 -96 252 -96q125 0 270 92q58 37 107 37q62 0 102 -43q41 -47 41 -106q0 -71 -55 -117zM1446 1741l-160 -119q-89 -68 -182 -68q-86 0 -86 58q0 31 26 57l156 172q65 68 117 68q58 0 115 -31q59 -30 59 -70q0 -34 -45 -67z" />
    <glyph glyph-name="cacute" unicode="&#x107;" horiz-adv-x="1146" 
d="M967 104q-159 -129 -369 -129q-224 0 -369 136q-143 137 -143 360q0 269 193 459q191 188 454 188q231 0 371 -137q57 -51 57 -121q0 -59 -43 -102t-106 -43q-64 0 -103 45q-77 92 -200 92q-125 0 -220 -115q-96 -116 -96 -266q0 -103 62 -168q60 -63 153 -63
q101 0 189 61q53 35 92 35q53 0 90 -37q35 -41 35 -92q0 -62 -47 -103zM1149 1393l-160 -119q-89 -68 -182 -68q-86 0 -86 58q0 30 27 57l155 172q65 68 117 68q58 0 115 -31q59 -30 59 -70q0 -34 -45 -67z" />
    <glyph glyph-name="Cdotaccent" unicode="&#x10a;" horiz-adv-x="1486" 
d="M1280 129q-183 -154 -467 -154q-299 0 -485 168q-191 176 -191 457q0 344 256 600q258 258 617 258q282 0 473 -176q65 -62 65 -133q0 -68 -47 -115q-46 -49 -115 -49q-71 0 -110 45q-125 137 -305 137q-200 0 -350 -163q-156 -167 -156 -392q0 -156 98 -250
q101 -96 252 -96q125 0 270 92q58 37 107 37q62 0 102 -43q41 -47 41 -106q0 -71 -55 -117zM1280 1710l-2 -8q-27 -148 -191 -148q-71 0 -112 41q-42 45 -27 107l2 8q15 66 68 107q49 38 123 38q67 0 110 -43q41 -44 29 -102z" />
    <glyph glyph-name="cdotaccent" unicode="&#x10b;" horiz-adv-x="1146" 
d="M967 104q-159 -129 -369 -129q-224 0 -369 136q-143 137 -143 360q0 269 193 459q191 188 454 188q231 0 371 -137q57 -51 57 -121q0 -59 -43 -102t-106 -43q-64 0 -103 45q-77 92 -200 92q-125 0 -220 -115q-96 -116 -96 -266q0 -103 62 -168q60 -63 153 -63
q101 0 189 61q53 35 92 35q53 0 90 -37q35 -41 35 -92q0 -62 -47 -103zM985 1362l-2 -8q-27 -148 -190 -148q-72 0 -113 41q-42 45 -27 107l2 8q15 65 68 106q51 39 123 39q67 0 110 -43q41 -44 29 -102z" />
    <glyph glyph-name="Ccaron" unicode="&#x10c;" horiz-adv-x="1486" 
d="M1280 129q-183 -154 -467 -154q-299 0 -485 168q-191 176 -191 457q0 344 256 600q258 258 617 258q282 0 473 -176q65 -62 65 -133q0 -68 -47 -115q-46 -49 -115 -49q-71 0 -110 45q-125 137 -305 137q-200 0 -350 -163q-156 -167 -156 -392q0 -156 98 -250
q101 -96 252 -96q125 0 270 92q58 37 107 37q62 0 102 -43q41 -47 41 -106q0 -71 -55 -117zM905 1634l-78 152q-26 45 -26 65q0 50 69 50q119 0 181 -68l73 -80l117 80q100 68 195 68q65 0 65 -48q0 -30 -35 -65l-168 -162q-70 -70 -159 -70h-90q-103 0 -144 78z" />
    <glyph glyph-name="ccaron" unicode="&#x10d;" horiz-adv-x="1146" 
d="M967 104q-159 -129 -369 -129q-224 0 -369 136q-143 137 -143 360q0 269 193 459q191 188 454 188q231 0 371 -137q57 -51 57 -121q0 -59 -43 -102t-106 -43q-64 0 -103 45q-77 92 -200 92q-125 0 -220 -115q-96 -116 -96 -266q0 -103 62 -168q60 -63 153 -63
q101 0 189 61q53 35 92 35q53 0 90 -37q35 -41 35 -92q0 -62 -47 -103zM610 1286l-78 152q-26 45 -26 65q0 49 69 49q120 0 181 -67l73 -80l117 80q98 67 195 67q65 0 65 -47q0 -30 -35 -65l-167 -162q-70 -70 -160 -70h-90q-103 0 -144 78z" />
    <glyph glyph-name="Dcaron" unicode="&#x10e;" horiz-adv-x="1591" 
d="M416 285h178q305 0 479 174q144 144 144 358q0 143 -84 227q-105 105 -330 105h-154zM543 1434h284q377 0 562 -185q155 -155 155 -420q0 -330 -235 -565q-264 -264 -752 -264h-350q-80 0 -115 53q-36 57 -12 152l287 1071q41 158 176 158zM817 1614l-78 151
q-26 45 -26 66q0 49 69 49q119 0 181 -68l73 -79l117 79q100 68 195 68q65 0 65 -47q0 -31 -35 -66l-168 -161q-70 -70 -159 -70h-90q-103 0 -144 78z" />
    <glyph glyph-name="dcaron" unicode="&#x10f;" horiz-adv-x="1380" 
d="M950 -12q-137 0 -137 131q-151 -139 -309 -139q-186 0 -301 124q-121 130 -121 347q0 287 186 479q182 188 420 188q225 0 344 -180l109 412q41 157 174 157q80 0 115 -53q37 -57 10 -151l-310 -1158q-41 -157 -180 -157zM633 242q131 0 231 112q101 113 101 269
q0 104 -66 170q-63 63 -170 63q-131 0 -225 -108q-101 -113 -101 -277q0 -107 64 -168q61 -61 166 -61zM1507 1133l72 268q24 96 125 96h47q59 0 59 -47q0 -26 -24 -72l-148 -266q-30 -55 -82 -55q-53 0 -53 47q0 9 4 29z" />
    <glyph glyph-name="Dcroat" unicode="&#x110;" horiz-adv-x="1632" 
d="M584 1434h284q377 0 562 -185q155 -155 155 -420q0 -330 -235 -565q-264 -264 -752 -264h-350q-80 0 -115 53q-36 57 -12 152l100 377h-6q-57 0 -98 41t-41 98t41 98t98 41h82l111 416q41 158 176 158zM457 285h178q305 0 479 174q143 143 143 358q0 144 -83 227
q-105 105 -330 105h-154l-78 -289h125q58 0 99 -41t41 -98t-41 -98t-99 -41h-200z" />
    <glyph glyph-name="dslash" unicode="&#x111;" horiz-adv-x="1380" 
d="M950 -12q-137 0 -137 131q-151 -139 -309 -139q-186 0 -301 124q-121 130 -121 347q0 287 186 479q182 188 420 188q225 0 344 -180l74 279h-221q-35 0 -62 24q-24 27 -24 62q0 34 24 61q28 25 62 25h268q49 118 162 118q126 0 135 -118h55q34 0 62 -25q24 -27 24 -61
q0 -35 -24 -62q-27 -24 -62 -24h-88l-287 -1072q-41 -157 -180 -157zM633 242q131 0 231 112q101 113 101 269q0 104 -66 170q-63 63 -170 63q-131 0 -225 -108q-101 -113 -101 -277q0 -107 64 -168q61 -61 166 -61z" />
    <glyph glyph-name="Emacron" unicode="&#x112;" horiz-adv-x="1361" 
d="M1014 0h-807q-80 0 -115 53q-36 57 -12 152l287 1071q41 158 176 158h770q59 0 100 -41t41 -101q0 -57 -41 -98t-100 -41h-666l-78 -293h498q59 0 100 -41t41 -98t-41 -98q-39 -39 -100 -39h-573l-82 -303h602q59 0 100 -41t41 -101q0 -57 -41 -98t-100 -41zM1278 1556
h-545q-45 0 -76 31q-32 28 -32 76t32 76q29 33 76 33h545q47 0 76 -33q32 -28 32 -76t-32 -76q-31 -31 -76 -31z" />
    <glyph glyph-name="emacron" unicode="&#x113;" horiz-adv-x="1243" 
d="M627 225q94 0 170 43q56 29 94 29q51 0 84 -33t33 -86q0 -62 -60 -104q-150 -99 -356 -99q-239 0 -373 131q-135 129 -135 357q0 253 178 446q191 209 473 209q209 0 332 -123q117 -117 117 -305q0 -52 -13 -112q-30 -138 -149 -138h-645q15 -215 250 -215zM1098 1229
h-545q-45 0 -76 31q-33 29 -33 75q0 47 33 76q29 33 76 33h545q47 0 76 -33q32 -28 32 -76q0 -47 -32 -75q-31 -31 -76 -31zM403 635h478q10 38 10 72q0 161 -180 161q-223 0 -308 -233z" />
    <glyph glyph-name="Ebreve" unicode="&#x114;" horiz-adv-x="1361" 
d="M1014 0h-807q-80 0 -115 53q-36 57 -12 152l287 1071q41 158 176 158h770q59 0 100 -41t41 -101q0 -57 -41 -98t-100 -41h-666l-78 -293h498q59 0 100 -41t41 -98t-41 -98q-39 -39 -100 -39h-573l-82 -303h602q59 0 100 -41t41 -101q0 -57 -41 -98t-100 -41zM1010 1542
q-144 0 -244 80q-88 73 -88 164q0 39 31 67q30 27 75 27q72 0 99 -53q46 -82 149 -82q85 0 158 82q50 53 106 53q93 0 93 -88q0 -37 -29 -74q-144 -176 -350 -176z" />
    <glyph glyph-name="ebreve" unicode="&#x115;" horiz-adv-x="1243" 
d="M627 225q94 0 170 43q56 29 94 29q51 0 84 -33t33 -86q0 -62 -60 -104q-150 -99 -356 -99q-239 0 -373 131q-135 129 -135 357q0 253 178 446q191 209 473 209q209 0 332 -123q117 -117 117 -305q0 -52 -13 -112q-30 -138 -149 -138h-645q15 -215 250 -215zM831 1214
q-143 0 -243 80q-88 73 -88 164q0 41 30 68q29 26 76 26q72 0 99 -53q46 -82 149 -82q85 0 158 82q50 53 106 53q92 0 92 -88q0 -37 -28 -73q-145 -177 -351 -177zM403 635h478q10 38 10 72q0 161 -180 161q-223 0 -308 -233z" />
    <glyph glyph-name="Edotaccent" unicode="&#x116;" horiz-adv-x="1361" 
d="M1014 0h-807q-80 0 -115 53q-36 57 -12 152l287 1071q41 158 176 158h770q59 0 100 -41t41 -101q0 -57 -41 -98t-100 -41h-666l-78 -293h498q59 0 100 -41t41 -98t-41 -98q-39 -39 -100 -39h-573l-82 -303h602q59 0 100 -41t41 -101q0 -57 -41 -98t-100 -41zM1176 1690
l-2 -9q-27 -147 -191 -147q-72 0 -113 41q-41 44 -26 106l2 9q15 66 67 106q51 39 123 39q68 0 111 -43q41 -44 29 -102z" />
    <glyph glyph-name="edotaccent" unicode="&#x117;" horiz-adv-x="1243" 
d="M627 225q94 0 170 43q56 29 94 29q51 0 84 -33t33 -86q0 -62 -60 -104q-150 -99 -356 -99q-239 0 -373 131q-135 129 -135 357q0 253 178 446q191 209 473 209q209 0 332 -123q117 -117 117 -305q0 -52 -13 -112q-30 -138 -149 -138h-645q15 -215 250 -215zM403 635h478
q10 38 10 72q0 161 -180 161q-223 0 -308 -233zM997 1362l-2 -8q-27 -148 -190 -148q-72 0 -113 41q-41 44 -26 107l2 8q15 66 67 106q51 39 123 39q68 0 111 -43q40 -43 28 -102z" />
    <glyph glyph-name="Eogonek" unicode="&#x118;" horiz-adv-x="1361" 
d="M1077 6q-108 -99 -108 -147q0 -36 61 -54q69 -21 66 -71q-3 -78 -152 -78q-217 0 -217 137q0 91 137 207h-657q-80 0 -115 53q-36 57 -12 152l287 1071q41 158 176 158h770q59 0 100 -41t41 -101q0 -57 -41 -98t-100 -41h-666l-78 -293h498q59 0 100 -41t41 -98t-41 -98
q-39 -39 -100 -39h-573l-82 -303h602q59 0 100 -41t41 -101q0 -61 -78 -133z" />
    <glyph glyph-name="eogonek" unicode="&#x119;" horiz-adv-x="1243" 
d="M854 -4q-84 -81 -84 -137q0 -36 61 -54q69 -21 66 -71q-3 -78 -152 -78q-217 0 -217 137q0 84 103 184q-8 -2 -39 -2q-239 0 -373 131q-135 129 -135 357q0 253 178 446q191 209 473 209q209 0 332 -123q117 -117 117 -305q0 -52 -13 -112q-30 -138 -149 -138h-645
q15 -215 250 -215q94 0 170 43q56 29 94 29q51 0 84 -33t33 -86q0 -56 -60 -104q-46 -34 -94 -78zM403 635h478q10 38 10 72q0 161 -180 161q-223 0 -308 -233z" />
    <glyph glyph-name="Ecaron" unicode="&#x11a;" horiz-adv-x="1361" 
d="M1014 0h-807q-80 0 -115 53q-36 57 -12 152l287 1071q41 158 176 158h770q59 0 100 -41t41 -101q0 -57 -41 -98t-100 -41h-666l-78 -293h498q59 0 100 -41t41 -98t-41 -98q-39 -39 -100 -39h-573l-82 -303h602q59 0 100 -41t41 -101q0 -57 -41 -98t-100 -41zM801 1614
l-78 151q-27 47 -27 66q0 49 70 49q118 0 180 -68l74 -79l117 79q100 68 194 68q66 0 66 -47q0 -31 -35 -66l-168 -161q-70 -70 -160 -70h-90q-102 0 -143 78z" />
    <glyph glyph-name="ecaron" unicode="&#x11b;" horiz-adv-x="1243" 
d="M627 225q94 0 170 43q56 29 94 29q51 0 84 -33t33 -86q0 -62 -60 -104q-150 -99 -356 -99q-239 0 -373 131q-135 129 -135 357q0 253 178 446q191 209 473 209q209 0 332 -123q117 -117 117 -305q0 -52 -13 -112q-30 -138 -149 -138h-645q15 -215 250 -215zM623 1286
l-78 152q-27 46 -27 65q0 49 70 49q119 0 180 -67l74 -80l116 80q98 67 195 67q66 0 66 -47q0 -30 -35 -65l-168 -162q-70 -70 -160 -70h-90q-102 0 -143 78zM403 635h478q10 38 10 72q0 161 -180 161q-223 0 -308 -233z" />
    <glyph glyph-name="Gbreve" unicode="&#x11e;" horiz-adv-x="1597" 
d="M1475 623l-113 -396q-29 -109 -127 -164q-169 -88 -426 -88q-269 0 -459 152q-215 170 -215 471q0 344 254 598q262 262 641 262q326 0 500 -160q63 -54 63 -127q0 -65 -45 -110t-110 -45q-55 0 -99 33q-153 120 -333 120q-230 0 -388 -168q-155 -165 -155 -393
q0 -163 106 -256q101 -88 260 -88q134 0 256 55l68 234h-176q-57 0 -96 39q-41 41 -41 96t41 96t96 41h371q79 0 116 -55q38 -56 11 -147zM1133 1563q-146 0 -244 79q-88 73 -88 164q0 41 30 68t76 27q71 0 99 -54q46 -82 149 -82q85 0 158 82q51 54 106 54q92 0 92 -89
q0 -37 -28 -73q-144 -176 -350 -176z" />
    <glyph glyph-name="gbreve" unicode="&#x11f;" horiz-adv-x="1374" 
d="M618 338q130 0 228 94q96 96 96 225q0 92 -59 148q-59 53 -158 53q-129 0 -223 -98q-92 -100 -92 -228q0 -194 208 -194zM1022 928l8 24q41 158 172 158q80 0 115 -53q37 -58 10 -152l-184 -690q-73 -275 -193 -395q-152 -152 -438 -152q-263 0 -473 94q-88 40 -88 119
q0 56 37 96q36 39 92 39q40 0 90 -24q159 -78 322 -78q149 0 237 88q58 58 100 197l11 37q-166 -146 -344 -146q-170 0 -283 98q-125 107 -125 285q0 269 186 461q181 184 414 184q226 0 334 -190zM901 1214q-144 0 -244 80q-88 73 -88 164q0 40 31 68q29 26 76 26
q71 0 98 -53q46 -82 150 -82q84 0 157 82q50 53 107 53q92 0 92 -88q0 -36 -29 -73q-145 -177 -350 -177z" />
    <glyph glyph-name="Gdotaccent" unicode="&#x120;" horiz-adv-x="1597" 
d="M1475 623l-113 -396q-29 -109 -127 -164q-169 -88 -426 -88q-269 0 -459 152q-215 170 -215 471q0 344 254 598q262 262 641 262q326 0 500 -160q63 -54 63 -127q0 -65 -45 -110t-110 -45q-55 0 -99 33q-153 120 -333 120q-230 0 -388 -168q-155 -165 -155 -393
q0 -163 106 -256q101 -88 260 -88q134 0 256 55l68 234h-176q-57 0 -96 39q-41 41 -41 96t41 96t96 41h371q79 0 116 -55q38 -56 11 -147zM1298 1710l-2 -8q-27 -148 -190 -148q-72 0 -113 41q-41 44 -26 107l2 8q16 67 67 107q49 38 123 38q68 0 111 -43q40 -43 28 -102z
" />
    <glyph glyph-name="gdotaccent" unicode="&#x121;" horiz-adv-x="1374" 
d="M618 338q130 0 228 94q96 96 96 225q0 92 -59 148q-59 53 -158 53q-129 0 -223 -98q-92 -100 -92 -228q0 -194 208 -194zM1022 928l8 24q41 158 172 158q80 0 115 -53q37 -58 10 -152l-184 -690q-73 -275 -193 -395q-152 -152 -438 -152q-263 0 -473 94q-88 40 -88 119
q0 56 37 96q36 39 92 39q40 0 90 -24q159 -78 322 -78q149 0 237 88q58 58 100 197l11 37q-166 -146 -344 -146q-170 0 -283 98q-125 107 -125 285q0 269 186 461q181 184 414 184q226 0 334 -190zM1067 1362l-2 -8q-27 -148 -191 -148q-71 0 -112 41q-42 45 -27 107l2 8
q15 65 68 106q51 39 123 39q67 0 110 -43q41 -44 29 -102z" />
    <glyph glyph-name="uni0122" unicode="&#x122;" horiz-adv-x="1597" 
d="M1475 623l-113 -396q-29 -109 -127 -164q-169 -88 -426 -88q-269 0 -459 152q-215 170 -215 471q0 344 254 598q262 262 641 262q326 0 500 -160q63 -54 63 -127q0 -65 -45 -110t-110 -45q-55 0 -99 33q-153 120 -333 120q-230 0 -388 -168q-155 -165 -155 -393
q0 -163 106 -256q101 -88 260 -88q134 0 256 55l68 234h-176q-57 0 -96 39q-41 41 -41 96t41 96t96 41h371q79 0 116 -55q38 -56 11 -147zM633 -367q-115 24 -115 107q0 61 45 100q47 41 115 41q141 0 141 -143q0 -125 -100 -225q-121 -121 -266 -121q-58 0 -58 45
q0 43 64 55q156 27 174 141z" />
    <glyph glyph-name="uni0123" unicode="&#x123;" horiz-adv-x="1374" 
d="M618 338q130 0 228 94q96 96 96 225q0 92 -59 148q-59 53 -158 53q-129 0 -223 -98q-92 -100 -92 -228q0 -194 208 -194zM1022 928l8 24q41 158 172 158q80 0 115 -53q37 -58 10 -152l-184 -690q-73 -275 -193 -395q-152 -152 -438 -152q-263 0 -473 94q-88 40 -88 119
q0 56 37 96q36 39 92 39q40 0 90 -24q159 -78 322 -78q149 0 237 88q58 58 100 197l11 37q-166 -146 -344 -146q-170 0 -283 98q-125 107 -125 285q0 269 186 461q181 184 414 184q226 0 334 -190zM926 1454q114 -24 114 -106q0 -62 -45 -101q-47 -41 -114 -41
q-142 0 -142 144q0 124 101 225q121 121 266 121q57 0 57 -45q0 -44 -63 -56q-156 -27 -174 -141z" />
    <glyph glyph-name="Hbar" unicode="&#x126;" horiz-adv-x="1548" 
d="M1589 1049h-80l-241 -904q-41 -157 -176 -157q-80 0 -115 53q-36 57 -12 152l104 382h-573l-117 -430q-41 -157 -176 -157q-80 0 -115 53q-36 57 -12 152l229 856h-18q-46 0 -76 30q-33 29 -33 76t33 76q29 33 76 33h78l6 24q41 158 176 158q75 0 110 -47q36 -51 21 -135
h575l7 24q41 158 176 158q75 0 110 -47q36 -51 21 -135h22q47 0 76 -33q33 -29 33 -76t-33 -76q-30 -30 -76 -30zM573 866h574l49 183h-573z" />
    <glyph glyph-name="hbar" unicode="&#x127;" horiz-adv-x="1273" 
d="M1155 590l-119 -445q-41 -157 -174 -157q-79 0 -114 53q-38 59 -11 152l111 409q14 49 14 98q0 136 -151 136q-179 0 -238 -220l-127 -471q-41 -157 -174 -157q-80 0 -115 53q-37 58 -10 152l270 1024h-41q-34 0 -61 24q-25 28 -25 62q0 33 25 61q28 25 61 25h91
q49 118 161 118q127 0 136 -118h233q33 0 61 -25q25 -28 25 -61q0 -34 -25 -62q-27 -24 -61 -24h-266l-62 -234q150 135 299 135q147 0 236 -86q88 -85 88 -233q0 -73 -37 -209z" />
    <glyph glyph-name="Itilde" unicode="&#x128;" horiz-adv-x="688" 
d="M688 1241l-295 -1096q-41 -157 -176 -157q-80 0 -115 53q-36 57 -12 152l295 1095q41 158 176 158q79 0 117 -53q34 -58 10 -152zM317 1548q-86 0 -86 82q0 29 17 60q113 204 278 204q82 0 162 -59q74 -53 109 -53q57 0 110 65q41 47 92 47q86 0 86 -82q0 -30 -16 -59
q-114 -205 -278 -205q-77 0 -162 60q-74 53 -109 53q-56 0 -110 -66q-41 -47 -93 -47z" />
    <glyph glyph-name="itilde" unicode="&#x129;" horiz-adv-x="618" 
d="M565 905l-205 -760q-41 -157 -174 -157q-79 0 -114 53q-38 59 -11 152l205 759q41 158 174 158q80 0 115 -53q37 -58 10 -152zM193 1212q-87 0 -87 82q0 29 17 60q114 205 278 205q80 0 162 -60q74 -53 109 -53q57 0 110 65q42 48 92 48q87 0 87 -82q0 -29 -17 -60
q-114 -205 -278 -205q-77 0 -162 60q-74 53 -109 53q-57 0 -110 -65q-42 -48 -92 -48z" />
    <glyph glyph-name="Imacron" unicode="&#x12a;" horiz-adv-x="688" 
d="M688 1241l-295 -1096q-41 -157 -176 -157q-80 0 -115 53q-36 57 -12 152l295 1095q41 158 176 158q79 0 117 -53q34 -58 10 -152zM915 1556h-544q-45 0 -76 31q-33 29 -33 76t33 76q29 33 76 33h544q47 0 76 -33q33 -29 33 -76t-33 -76q-31 -31 -76 -31z" />
    <glyph glyph-name="imacron" unicode="&#x12b;" horiz-adv-x="618" 
d="M563 905l-205 -760q-41 -157 -174 -157q-79 0 -114 53q-38 59 -11 152l205 759q41 158 174 158q80 0 115 -53q37 -58 10 -152zM795 1229h-545q-45 0 -76 31q-33 29 -33 75q0 47 33 76q29 33 76 33h545q46 0 75 -33q33 -29 33 -76q0 -46 -33 -75q-31 -31 -75 -31z" />
    <glyph glyph-name="Ibreve" unicode="&#x12c;" horiz-adv-x="688" 
d="M688 1241l-295 -1096q-41 -157 -176 -157q-80 0 -115 53q-36 57 -12 152l295 1095q41 158 176 158q79 0 117 -53q34 -58 10 -152zM647 1542q-144 0 -244 80q-88 73 -88 164q0 39 31 67q30 27 76 27q71 0 98 -53q46 -82 150 -82q84 0 157 82q50 53 107 53q92 0 92 -88
q0 -37 -29 -74q-144 -176 -350 -176z" />
    <glyph glyph-name="ibreve" unicode="&#x12d;" horiz-adv-x="618" 
d="M563 905l-205 -760q-41 -157 -174 -157q-79 0 -114 53q-38 59 -11 152l205 759q41 158 174 158q80 0 115 -53q37 -58 10 -152zM526 1214q-143 0 -243 80q-88 73 -88 164q0 41 30 68q29 26 76 26q71 0 98 -53q46 -82 150 -82q85 0 158 82q50 53 106 53q92 0 92 -88
q0 -37 -28 -73q-145 -177 -351 -177z" />
    <glyph glyph-name="Iogonek" unicode="&#x12e;" horiz-adv-x="688" 
d="M182 -344q-217 0 -217 137q0 97 154 227q-63 57 -29 173l295 1095q41 158 176 158q79 0 117 -53q34 -58 10 -152l-295 -1096q-22 -73 -74 -125q-112 -109 -112 -161q0 -36 61 -54q69 -21 66 -71q-3 -78 -152 -78z" />
    <glyph glyph-name="iogonek" unicode="&#x12f;" horiz-adv-x="618" 
d="M702 1362l-2 -10q-30 -144 -200 -144q-73 0 -117 41q-45 40 -33 103l2 10q30 143 201 143q72 0 119 -41q42 -39 30 -102zM561 905l-205 -760q-18 -70 -73 -125q-111 -111 -111 -161q0 -36 61 -54q69 -21 66 -71q-3 -78 -152 -78q-217 0 -217 137q0 97 154 227
q-37 40 -37 101q0 27 10 72l205 759q41 158 174 158q80 0 115 -53q37 -58 10 -152z" />
    <glyph glyph-name="Idotaccent" unicode="&#x130;" horiz-adv-x="688" 
d="M688 1241l-295 -1096q-41 -157 -176 -157q-80 0 -115 53q-36 57 -12 152l295 1095q41 158 176 158q79 0 117 -53q34 -58 10 -152zM815 1690l-2 -9q-27 -147 -190 -147q-72 0 -113 41q-41 44 -27 106l2 9q15 65 68 106q51 39 123 39q67 0 110 -43q41 -44 29 -102z" />
    <glyph glyph-name="dotlessi" unicode="&#x131;" horiz-adv-x="618" 
d="M563 905l-205 -760q-41 -157 -174 -157q-79 0 -114 53q-38 59 -11 152l205 759q41 158 174 158q80 0 115 -53q37 -58 10 -152z" />
    <glyph glyph-name="uni0136" unicode="&#x136;" horiz-adv-x="1472" 
d="M444 391l-65 -246q-41 -157 -176 -157q-80 0 -115 53q-36 57 -12 152l295 1095q41 158 176 158q79 0 117 -53q34 -58 10 -152l-119 -442l698 585q74 62 131 62q64 0 105 -41q39 -39 39 -100q0 -71 -55 -117l-461 -377l254 -580q24 -59 24 -102q0 -64 -49 -104
q-46 -37 -108 -37q-114 0 -160 110l-219 537zM580 -346q-115 24 -115 106q0 62 45 101q47 41 115 41q141 0 141 -144q0 -125 -100 -225q-121 -121 -267 -121q-57 0 -57 45q0 44 64 56q156 27 174 141z" />
    <glyph glyph-name="uni0137" unicode="&#x137;" horiz-adv-x="1210" 
d="M657 1303l-163 -607l471 359q70 55 118 55q58 0 95 -37q34 -34 34 -88q0 -67 -57 -106l-324 -236l170 -412q27 -64 27 -106q0 -63 -51 -102q-47 -35 -109 -35q-115 0 -161 112l-146 349l-168 -123l-47 -181q-41 -157 -174 -157q-80 0 -115 53q-37 58 -10 152l311 1157
q41 157 174 157q80 0 115 -53q37 -57 10 -151zM403 -356q-114 24 -114 106q0 61 45 100q47 41 115 41q141 0 141 -143q0 -124 -101 -225q-121 -121 -266 -121q-57 0 -57 45q0 43 63 55q156 27 174 142z" />
    <glyph glyph-name="Lacute" unicode="&#x139;" horiz-adv-x="1282" 
d="M965 0h-758q-80 0 -115 53q-36 57 -12 152l291 1083q41 158 176 158q79 0 117 -53q34 -58 10 -152l-256 -954h547q59 0 100 -41q41 -44 41 -103q0 -61 -41 -102t-100 -41zM1004 1720l-160 -118q-89 -68 -182 -68q-87 0 -87 57q0 31 27 58l156 172q64 67 116 67
q59 0 115 -30q60 -31 60 -70q0 -35 -45 -68z" />
    <glyph glyph-name="lacute" unicode="&#x13a;" horiz-adv-x="618" 
d="M670 1303l-312 -1158q-41 -157 -174 -157q-79 0 -114 53q-38 59 -11 152l312 1157q41 157 174 157q79 0 114 -53q37 -58 11 -151zM961 1751l-160 -119q-88 -67 -183 -67q-86 0 -86 57q0 30 27 57l156 172q65 68 116 68q58 0 115 -31q60 -31 60 -69q0 -35 -45 -68z" />
    <glyph glyph-name="uni013B" unicode="&#x13b;" horiz-adv-x="1282" 
d="M965 0h-758q-80 0 -115 53q-36 57 -12 152l291 1083q41 158 176 158q79 0 117 -53q34 -58 10 -152l-256 -954h547q59 0 100 -41q41 -44 41 -103q0 -61 -41 -102t-100 -41zM455 -356q-115 24 -115 106q0 61 45 100q47 41 115 41q141 0 141 -143q0 -125 -100 -225
q-121 -121 -267 -121q-57 0 -57 45q0 43 64 55q156 27 174 142z" />
    <glyph glyph-name="uni013C" unicode="&#x13c;" horiz-adv-x="618" 
d="M668 1303l-312 -1158q-41 -157 -174 -157q-79 0 -114 53q-38 59 -11 152l312 1157q41 157 174 157q79 0 114 -53q37 -58 11 -151zM94 -356q-114 24 -114 106q0 61 45 100q47 41 114 41q142 0 142 -143q0 -124 -101 -225q-121 -121 -266 -121q-57 0 -57 45q0 43 63 55
q156 27 174 142z" />
    <glyph glyph-name="Lcaron" unicode="&#x13d;" horiz-adv-x="1282" 
d="M965 0h-758q-80 0 -115 53q-36 57 -12 152l291 1083q41 158 176 158q79 0 117 -53q34 -58 10 -152l-256 -954h547q59 0 100 -41q41 -44 41 -103q0 -61 -41 -102t-100 -41zM741 1071l72 268q25 97 125 97h47q59 0 59 -47q0 -25 -24 -72l-148 -266q-30 -56 -81 -56
q-54 0 -54 47q0 9 4 29z" />
    <glyph glyph-name="lcaron" unicode="&#x13e;" horiz-adv-x="618" 
d="M670 1303l-312 -1158q-41 -157 -174 -157q-79 0 -114 53q-38 59 -11 152l312 1157q41 157 174 157q79 0 114 -53q37 -58 11 -151zM737 1133l72 268q24 96 125 96h47q59 0 59 -47q0 -26 -24 -72l-148 -266q-30 -55 -82 -55q-53 0 -53 47q0 9 4 29z" />
    <glyph glyph-name="Ldot" unicode="&#x13f;" horiz-adv-x="1282" 
d="M1219 788l-2 -8q-27 -147 -191 -147q-72 0 -113 41q-41 44 -26 106l2 8q16 67 67 107q51 39 123 39q68 0 111 -43q41 -44 29 -103zM965 0h-758q-80 0 -115 53q-36 57 -12 152l291 1083q41 158 176 158q79 0 117 -53q34 -58 10 -152l-256 -954h547q59 0 100 -41
q41 -44 41 -103q0 -61 -41 -102t-100 -41z" />
    <glyph glyph-name="ldot" unicode="&#x140;" horiz-adv-x="802" 
d="M905 778l-2 -10q-24 -131 -145 -131q-59 0 -94 41q-30 40 -21 96l2 10q24 131 146 131q57 0 92 -41q31 -37 22 -96zM670 1303l-312 -1158q-41 -157 -174 -157q-79 0 -114 53q-38 59 -11 152l312 1157q41 157 174 157q79 0 114 -53q37 -58 11 -151z" />
    <glyph glyph-name="Lslash" unicode="&#x141;" horiz-adv-x="1345" 
d="M186 795l125 34l123 459q41 158 172 158q76 0 111 -53q34 -58 10 -152l-86 -319l207 57q31 8 51 8q133 0 133 -127q0 -103 -100 -129l-371 -104l-90 -340h557q59 0 100 -41q41 -44 41 -103q0 -61 -41 -102t-100 -41h-758q-79 0 -114 53q-37 58 -13 152l90 334h-14
q-133 0 -133 127q0 103 100 129z" />
    <glyph glyph-name="lslash" unicode="&#x142;" horiz-adv-x="735" 
d="M193 836l106 28l131 486q41 157 174 157q80 0 115 -53q37 -57 10 -151l-94 -347q6 2 33 2q114 0 114 -124q0 -113 -116 -140l-109 -30l-139 -519q-41 -157 -174 -157q-80 0 -115 53q-37 58 -10 152l102 380q-6 -2 -31 -2q-114 0 -114 125q0 113 117 140z" />
    <glyph glyph-name="Nacute" unicode="&#x143;" horiz-adv-x="1609" 
d="M1120 522l207 766q41 158 174 158q80 0 115 -53q37 -58 10 -152l-297 -1102q-41 -147 -170 -147h-6q-125 0 -180 119l-383 829l-213 -795q-41 -157 -174 -157q-80 0 -115 53q-37 58 -10 152l293 1091q41 158 186 158h14q130 0 185 -125zM1442 1720l-160 -118
q-89 -68 -182 -68q-86 0 -86 57q0 32 26 58l156 172q64 67 117 67q59 0 114 -30q60 -31 60 -70q0 -35 -45 -68z" />
    <glyph glyph-name="nacute" unicode="&#x144;" horiz-adv-x="1267" 
d="M430 1110q65 0 105 -37q34 -34 34 -90q150 135 299 135q147 0 236 -86q88 -85 88 -233q0 -73 -37 -209l-119 -445q-41 -157 -174 -157q-79 0 -114 53q-38 59 -11 152l111 409q14 49 14 98q0 136 -151 136q-179 0 -238 -220l-127 -471q-41 -157 -174 -157q-80 0 -115 53
q-37 58 -10 152l203 759q41 158 180 158zM1167 1393l-159 -119q-89 -68 -183 -68q-86 0 -86 58q0 30 27 57l156 172q65 68 116 68q58 0 115 -31q59 -30 59 -70q0 -34 -45 -67z" />
    <glyph glyph-name="uni0145" unicode="&#x145;" horiz-adv-x="1609" 
d="M1120 522l207 766q41 158 174 158q80 0 115 -53q37 -58 10 -152l-297 -1102q-41 -147 -170 -147h-6q-125 0 -180 119l-383 829l-213 -795q-41 -157 -174 -157q-80 0 -115 53q-37 58 -10 152l293 1091q41 158 186 158h14q130 0 185 -125zM594 -346q-115 24 -115 106
q0 62 45 101q47 41 115 41q141 0 141 -144q0 -125 -100 -225q-121 -121 -266 -121q-58 0 -58 45q0 44 64 56q156 27 174 141z" />
    <glyph glyph-name="uni0146" unicode="&#x146;" horiz-adv-x="1267" 
d="M430 1110q65 0 105 -37q34 -34 34 -90q150 135 299 135q147 0 236 -86q88 -85 88 -233q0 -73 -37 -209l-119 -445q-41 -157 -174 -157q-79 0 -114 53q-38 59 -11 152l111 409q14 49 14 98q0 136 -151 136q-179 0 -238 -220l-127 -471q-41 -157 -174 -157q-80 0 -115 53
q-37 58 -10 152l203 759q41 158 180 158zM403 -356q-114 24 -114 106q0 61 45 100q47 41 115 41q141 0 141 -143q0 -124 -101 -225q-121 -121 -266 -121q-57 0 -57 45q0 43 63 55q156 27 174 142z" />
    <glyph glyph-name="Ncaron" unicode="&#x147;" horiz-adv-x="1609" 
d="M1120 522l207 766q41 158 174 158q80 0 115 -53q37 -58 10 -152l-297 -1102q-41 -147 -170 -147h-6q-125 0 -180 119l-383 829l-213 -795q-41 -157 -174 -157q-80 0 -115 53q-37 58 -10 152l293 1091q41 158 186 158h14q130 0 185 -125zM901 1614l-78 151q-26 45 -26 66
q0 49 69 49q119 0 181 -68l73 -79l117 79q100 68 195 68q65 0 65 -47q0 -31 -35 -66l-168 -161q-70 -70 -159 -70h-91q-102 0 -143 78z" />
    <glyph glyph-name="ncaron" unicode="&#x148;" horiz-adv-x="1267" 
d="M430 1110q65 0 105 -37q34 -34 34 -90q150 135 299 135q147 0 236 -86q88 -85 88 -233q0 -73 -37 -209l-119 -445q-41 -157 -174 -157q-79 0 -114 53q-38 59 -11 152l111 409q14 49 14 98q0 136 -151 136q-179 0 -238 -220l-127 -471q-41 -157 -174 -157q-80 0 -115 53
q-37 58 -10 152l203 759q41 158 180 158zM627 1286l-78 152q-27 46 -27 65q0 49 70 49q119 0 180 -67l74 -80l117 80q98 67 194 67q66 0 66 -47q0 -30 -35 -65l-168 -162q-70 -70 -160 -70h-90q-102 0 -143 78z" />
    <glyph glyph-name="Omacron" unicode="&#x14c;" horiz-adv-x="1703" 
d="M793 -25q-293 0 -476 183q-180 177 -180 452q0 334 238 584q252 264 624 264q294 0 476 -182q180 -177 180 -453q0 -333 -238 -583q-253 -265 -624 -265zM829 266q216 0 363 176q135 164 135 361q0 164 -94 262q-99 102 -270 102q-216 0 -363 -176q-135 -163 -135 -360
q0 -164 94 -262q100 -103 270 -103zM1411 1577h-545q-44 0 -75 31q-33 29 -33 75q0 47 33 76q29 33 75 33h545q47 0 76 -33q33 -29 33 -76q0 -46 -33 -75q-31 -31 -76 -31z" />
    <glyph glyph-name="omacron" unicode="&#x14d;" horiz-adv-x="1335" 
d="M614 -25q-240 0 -387 144q-141 141 -141 364q0 252 186 441q188 194 449 194q241 0 387 -143q141 -141 141 -365q0 -250 -184 -440q-192 -195 -451 -195zM629 242q135 0 229 123q86 112 86 237q0 119 -65 184q-66 66 -172 66q-135 0 -230 -121q-86 -115 -86 -239
q0 -119 66 -185q65 -65 172 -65zM1143 1229h-545q-45 0 -76 31q-33 29 -33 75q0 47 33 76q29 33 76 33h545q47 0 76 -33q32 -28 32 -76q0 -47 -32 -75q-31 -31 -76 -31z" />
    <glyph glyph-name="Obreve" unicode="&#x14e;" horiz-adv-x="1703" 
d="M793 -25q-293 0 -476 183q-180 177 -180 452q0 334 238 584q252 264 624 264q294 0 476 -182q180 -177 180 -453q0 -333 -238 -583q-253 -265 -624 -265zM829 266q216 0 363 176q135 164 135 361q0 164 -94 262q-99 102 -270 102q-216 0 -363 -176q-135 -163 -135 -360
q0 -164 94 -262q100 -103 270 -103zM1145 1563q-146 0 -244 79q-88 73 -88 164q0 40 31 68q30 27 76 27q70 0 98 -54q46 -82 149 -82q85 0 158 82q51 54 107 54q92 0 92 -89q0 -36 -29 -73q-144 -176 -350 -176z" />
    <glyph glyph-name="obreve" unicode="&#x14f;" horiz-adv-x="1335" 
d="M614 -25q-240 0 -387 144q-141 141 -141 364q0 252 186 441q188 194 449 194q241 0 387 -143q141 -141 141 -365q0 -250 -184 -440q-192 -195 -451 -195zM629 242q135 0 229 123q86 112 86 237q0 119 -65 184q-66 66 -172 66q-135 0 -230 -121q-86 -115 -86 -239
q0 -119 66 -185q65 -65 172 -65zM877 1214q-144 0 -244 80q-88 73 -88 164q0 41 30 68q29 26 76 26q72 0 99 -53q46 -82 149 -82q85 0 158 82q50 53 106 53q92 0 92 -88q0 -37 -28 -73q-145 -177 -350 -177z" />
    <glyph glyph-name="Ohungarumlaut" unicode="&#x150;" horiz-adv-x="1703" 
d="M793 -25q-293 0 -476 183q-180 177 -180 452q0 334 238 584q252 264 624 264q294 0 476 -182q180 -177 180 -453q0 -333 -238 -583q-253 -265 -624 -265zM829 266q216 0 363 176q135 164 135 361q0 164 -94 262q-99 102 -270 102q-216 0 -363 -176q-135 -163 -135 -360
q0 -164 94 -262q100 -103 270 -103zM1112 1909q55 0 100 -31q45 -29 45 -70q0 -34 -45 -67l-159 -119q-89 -68 -166 -68q-74 0 -74 58q0 30 27 57l155 172q65 68 117 68zM1513 1909q56 0 101 -31q45 -29 45 -70q0 -34 -45 -67l-160 -119q-89 -68 -166 -68q-74 0 -74 58
q0 30 27 57l156 172q65 68 116 68z" />
    <glyph glyph-name="ohungarumlaut" unicode="&#x151;" horiz-adv-x="1335" 
d="M614 -25q-240 0 -387 144q-141 141 -141 364q0 252 186 441q188 194 449 194q241 0 387 -143q141 -141 141 -365q0 -250 -184 -440q-192 -195 -451 -195zM629 242q135 0 229 123q86 112 86 237q0 119 -65 184q-66 66 -172 66q-135 0 -230 -121q-86 -115 -86 -239
q0 -119 66 -185q65 -65 172 -65zM842 1561q55 0 100 -31q45 -29 45 -70q0 -34 -45 -67l-160 -119q-89 -68 -166 -68q-73 0 -73 58q0 31 26 57l156 172q65 68 117 68zM1243 1561q55 0 100 -31q46 -30 46 -70q0 -33 -46 -67l-159 -119q-89 -68 -166 -68q-74 0 -74 58
q0 30 27 57l155 172q65 68 117 68z" />
    <glyph glyph-name="OE" unicode="&#x152;" horiz-adv-x="2193" 
d="M879 285h92l233 864h-117q-305 0 -479 -174q-143 -143 -143 -359q0 -143 84 -227q104 -104 330 -104zM1845 0h-991q-376 0 -571 195q-146 146 -146 409q0 329 236 565q265 265 751 265h1020q60 0 101 -41t41 -101q0 -57 -41 -98t-101 -41h-624l-78 -293h456q60 0 101 -41
t41 -98t-41 -98q-39 -39 -101 -39h-532l-82 -303h561q60 0 101 -41t41 -101q0 -57 -41 -98t-101 -41z" />
    <glyph glyph-name="oe" unicode="&#x153;" horiz-adv-x="2105" 
d="M1489 225q94 0 170 43q56 29 94 29q51 0 84 -33t33 -86q0 -62 -60 -104q-150 -99 -356 -99q-292 0 -407 201q-171 -201 -431 -201q-243 0 -387 144q-143 140 -143 364q0 255 182 443q186 192 451 192q304 0 424 -217q175 217 454 217q209 0 332 -123q117 -117 117 -305
q0 -56 -12 -112q-30 -138 -150 -138h-645q15 -215 250 -215zM627 242q139 0 231 114q86 109 86 244q0 111 -65 182q-64 70 -170 70q-140 0 -232 -115q-86 -109 -86 -243q0 -111 66 -183q63 -69 170 -69zM1266 635h477q10 38 10 72q0 161 -180 161q-222 0 -307 -233z" />
    <glyph glyph-name="Racute" unicode="&#x154;" horiz-adv-x="1488" 
d="M463 459l-84 -314q-41 -157 -176 -157q-80 0 -115 53q-36 57 -12 152l291 1083q41 158 176 158h389q310 0 454 -144q111 -111 111 -289q0 -208 -131 -339q-112 -112 -313 -168l176 -263q35 -53 35 -100q0 -67 -50 -108q-47 -35 -104 -35q-120 0 -184 104l-228 367h-235z
M539 737h280q197 0 289 92q59 59 59 146q0 70 -45 115q-59 59 -209 59h-264zM1319 1720l-160 -118q-89 -68 -182 -68q-86 0 -86 57q0 31 27 58l155 172q64 67 117 67q60 0 115 -30q59 -30 59 -70q0 -35 -45 -68z" />
    <glyph glyph-name="racute" unicode="&#x155;" horiz-adv-x="858" 
d="M551 924l-6 -25q111 211 252 211q133 0 133 -139q0 -119 -135 -160q-292 -82 -383 -422l-68 -244q-41 -157 -174 -157q-80 0 -115 53q-37 58 -10 152l205 759q41 158 174 158q77 0 113 -51q35 -53 14 -135zM983 1393l-160 -119q-89 -68 -182 -68q-86 0 -86 58q0 30 27 57
l155 172q65 68 117 68q58 0 115 -31q59 -30 59 -70q0 -34 -45 -67z" />
    <glyph glyph-name="uni0156" unicode="&#x156;" horiz-adv-x="1488" 
d="M463 459l-84 -314q-41 -157 -176 -157q-80 0 -115 53q-36 57 -12 152l291 1083q41 158 176 158h389q310 0 454 -144q111 -111 111 -289q0 -208 -131 -339q-112 -112 -313 -168l176 -263q35 -53 35 -100q0 -67 -50 -108q-47 -35 -104 -35q-120 0 -184 104l-228 367h-235z
M539 737h280q197 0 289 92q59 59 59 146q0 70 -45 115q-59 59 -209 59h-264zM504 -346q-115 24 -115 106q0 62 45 101q47 41 115 41q141 0 141 -144q0 -125 -100 -225q-121 -121 -266 -121q-58 0 -58 45q0 44 64 56q156 27 174 141z" />
    <glyph glyph-name="uni0157" unicode="&#x157;" horiz-adv-x="858" 
d="M549 924l-6 -25q111 211 252 211q133 0 133 -139q0 -119 -135 -160q-292 -82 -383 -422l-68 -244q-41 -157 -174 -157q-80 0 -115 53q-37 58 -10 152l205 759q41 158 174 158q77 0 113 -51q35 -53 14 -135zM66 -356q-115 24 -115 106q0 61 45 100q47 41 115 41
q141 0 141 -143q0 -125 -100 -225q-121 -121 -267 -121q-57 0 -57 45q0 43 63 55q157 27 175 142z" />
    <glyph glyph-name="Rcaron" unicode="&#x158;" horiz-adv-x="1488" 
d="M463 459l-84 -314q-41 -157 -176 -157q-80 0 -115 53q-36 57 -12 152l291 1083q41 158 176 158h389q310 0 454 -144q111 -111 111 -289q0 -208 -131 -339q-112 -112 -313 -168l176 -263q35 -53 35 -100q0 -67 -50 -108q-47 -35 -104 -35q-120 0 -184 104l-228 367h-235z
M539 737h280q197 0 289 92q59 59 59 146q0 70 -45 115q-59 59 -209 59h-264zM778 1614l-78 151q-26 45 -26 66q0 49 69 49q119 0 181 -68l73 -79l117 79q100 68 195 68q65 0 65 -47q0 -31 -35 -66l-168 -161q-70 -70 -159 -70h-90q-103 0 -144 78z" />
    <glyph glyph-name="rcaron" unicode="&#x159;" horiz-adv-x="858" 
d="M551 924l-6 -25q111 211 252 211q133 0 133 -139q0 -119 -135 -160q-292 -82 -383 -422l-68 -244q-41 -157 -174 -157q-80 0 -115 53q-37 58 -10 152l205 759q41 158 174 158q77 0 113 -51q35 -53 14 -135zM442 1286l-77 152q-27 46 -27 65q0 49 70 49q119 0 180 -67
l74 -80l116 80q98 67 195 67q65 0 65 -47q0 -31 -34 -65l-168 -162q-70 -70 -160 -70h-90q-103 0 -144 78z" />
    <glyph glyph-name="Sacute" unicode="&#x15a;" horiz-adv-x="1302" 
d="M618 256q96 0 158 41t62 109q0 51 -50 92q-47 36 -194 96q-352 143 -352 387q0 214 170 346q165 127 399 127q250 0 436 -127q74 -53 74 -131q0 -66 -45 -111q-46 -43 -111 -43q-51 0 -86 27q-139 109 -293 109q-96 0 -153 -45q-55 -43 -55 -101q0 -54 53 -92
q39 -29 198 -96q345 -139 345 -387q0 -218 -173 -353q-161 -124 -397 -124q-340 0 -530 163q-62 53 -62 131q0 69 43 115q45 45 111 45q52 0 100 -39q171 -139 352 -139zM1255 1741l-159 -119q-89 -68 -183 -68q-86 0 -86 58q0 30 27 57l156 172q65 68 116 68q58 0 115 -31
q59 -30 59 -70q0 -34 -45 -67z" />
    <glyph glyph-name="sacute" unicode="&#x15b;" 
d="M467 213q131 0 131 96q0 47 -127 103q-158 70 -223 123q-96 81 -96 198q0 169 118 275q119 110 322 110q185 0 350 -98q72 -41 72 -115q0 -54 -37 -94q-39 -39 -92 -39q-34 0 -82 31q-122 78 -234 78q-120 0 -120 -93q0 -49 145 -114q148 -66 205 -115q96 -84 96 -197
q0 -176 -127 -282q-126 -105 -324 -105q-231 0 -421 138q-56 41 -56 106q0 52 37 92q36 39 88 39q43 0 82 -28q139 -109 293 -109zM1032 1393l-160 -119q-89 -68 -182 -68q-86 0 -86 58q0 30 27 57l155 172q65 68 117 68q58 0 115 -31q59 -30 59 -70q0 -34 -45 -67z" />
    <glyph glyph-name="Scedilla" unicode="&#x15e;" horiz-adv-x="1302" 
d="M618 256q96 0 158 41t62 109q0 51 -50 92q-47 36 -194 96q-352 143 -352 387q0 214 170 346q165 127 399 127q250 0 436 -127q74 -53 74 -131q0 -66 -45 -111q-46 -43 -111 -43q-51 0 -86 27q-139 109 -293 109q-96 0 -153 -45q-55 -43 -55 -101q0 -54 53 -92
q39 -29 198 -96q345 -139 345 -387q0 -216 -170 -348q-156 -126 -394 -129l-170 -256q-45 -66 -106 -66q-46 0 -90 33q-49 34 -49 71q0 32 30 66l164 172q-201 41 -315 143q-62 53 -62 131q0 69 43 115q45 45 111 45q52 0 100 -39q171 -139 352 -139z" />
    <glyph glyph-name="scedilla" unicode="&#x15f;" 
d="M467 213q131 0 131 96q0 47 -127 103q-158 70 -223 123q-96 81 -96 198q0 169 118 275q119 110 322 110q185 0 350 -98q72 -41 72 -115q0 -54 -37 -94q-39 -39 -92 -39q-34 0 -82 31q-122 78 -234 78q-120 0 -120 -93q0 -49 145 -114q148 -66 205 -115q96 -84 96 -197
q0 -170 -119 -274q-114 -102 -303 -111l-168 -253q-45 -66 -106 -66q-46 0 -90 33q-50 35 -50 71q0 30 31 66l166 174q-130 37 -233 111q-56 41 -56 106q0 52 37 92q36 39 88 39q43 0 82 -28q139 -109 293 -109z" />
    <glyph glyph-name="Scaron" unicode="&#x160;" horiz-adv-x="1302" 
d="M618 256q96 0 158 41t62 109q0 51 -50 92q-47 36 -194 96q-352 143 -352 387q0 214 170 346q165 127 399 127q250 0 436 -127q74 -53 74 -131q0 -66 -45 -111q-46 -43 -111 -43q-51 0 -86 27q-139 109 -293 109q-96 0 -153 -45q-55 -43 -55 -101q0 -54 53 -92
q39 -29 198 -96q345 -139 345 -387q0 -218 -173 -353q-161 -124 -397 -124q-340 0 -530 163q-62 53 -62 131q0 69 43 115q45 45 111 45q52 0 100 -39q171 -139 352 -139zM715 1634l-78 152q-27 46 -27 65q0 50 70 50q118 0 180 -68l74 -80l117 80q100 68 194 68q66 0 66 -48
q0 -30 -35 -65l-168 -162q-70 -70 -160 -70h-90q-102 0 -143 78z" />
    <glyph glyph-name="scaron" unicode="&#x161;" 
d="M467 213q131 0 131 96q0 47 -127 103q-158 70 -223 123q-96 81 -96 198q0 169 118 275q119 110 322 110q185 0 350 -98q72 -41 72 -115q0 -54 -37 -94q-39 -39 -92 -39q-34 0 -82 31q-122 78 -234 78q-120 0 -120 -93q0 -49 145 -114q148 -66 205 -115q96 -84 96 -197
q0 -176 -127 -282q-126 -105 -324 -105q-231 0 -421 138q-56 41 -56 106q0 52 37 92q36 39 88 39q43 0 82 -28q139 -109 293 -109zM494 1286l-78 152q-27 46 -27 65q0 49 70 49q119 0 180 -67l74 -80l116 80q98 67 195 67q66 0 66 -47q0 -30 -35 -65l-168 -162
q-70 -70 -160 -70h-90q-102 0 -143 78z" />
    <glyph glyph-name="uni0162" unicode="&#x162;" horiz-adv-x="1269" 
d="M948 1143l-268 -998q-41 -157 -176 -157q-80 0 -115 53q-36 57 -12 152l256 950h-262q-60 0 -103 43t-43 102q0 60 43 103t103 43h919q60 0 103 -43t43 -103q0 -59 -43 -102t-103 -43h-342zM416 -356q-115 24 -115 106q0 61 45 100q47 41 115 41q141 0 141 -143
q0 -125 -100 -225q-121 -121 -266 -121q-58 0 -58 45q0 43 64 55q156 27 174 142z" />
    <glyph glyph-name="uni0163" unicode="&#x163;" horiz-adv-x="849" 
d="M338 1098l37 135q41 158 174 158q80 0 115 -54q37 -57 10 -151l-25 -88h105q53 0 92 -39q37 -37 37 -94q0 -58 -37 -95q-39 -39 -92 -39h-176l-123 -460q-9 -34 -9 -49q0 -66 78 -66h25q110 0 110 -117q0 -93 -79 -127q-71 -30 -183 -30q-139 0 -215 61q-69 57 -69 154
q0 58 20 137l133 497q-114 18 -114 134q0 58 36 94q39 39 93 39h57zM260 -356q-115 24 -115 106q0 61 45 100q47 41 115 41q141 0 141 -143q0 -125 -100 -225q-121 -121 -266 -121q-57 0 -57 45q0 43 63 55q156 27 174 142z" />
    <glyph glyph-name="Tcaron" unicode="&#x164;" horiz-adv-x="1269" 
d="M948 1143l-268 -998q-41 -157 -176 -157q-80 0 -115 53q-36 57 -12 152l256 950h-262q-60 0 -103 43t-43 102q0 60 43 103t103 43h919q60 0 103 -43t43 -103q0 -59 -43 -102t-103 -43h-342zM725 1614l-78 151q-26 45 -26 66q0 49 69 49q118 0 180 -68l74 -79l117 79
q100 68 194 68q66 0 66 -47q0 -31 -35 -66l-168 -161q-70 -70 -160 -70h-90q-102 0 -143 78z" />
    <glyph glyph-name="tcaron" unicode="&#x165;" horiz-adv-x="849" 
d="M338 1098l37 135q41 158 174 158q80 0 115 -54q37 -57 10 -151l-25 -88h105q53 0 92 -39q37 -37 37 -94q0 -58 -37 -95q-39 -39 -92 -39h-176l-123 -460q-9 -34 -9 -49q0 -66 78 -66h25q110 0 110 -117q0 -93 -79 -127q-71 -30 -183 -30q-139 0 -215 61q-69 57 -69 154
q0 58 20 137l133 497q-114 18 -114 134q0 58 36 94q39 39 93 39h57zM809 1276l72 268q24 96 125 96h47q59 0 59 -47q0 -23 -25 -71l-147 -267q-30 -55 -82 -55q-53 0 -53 47q0 9 4 29z" />
    <glyph glyph-name="Utilde" unicode="&#x168;" horiz-adv-x="1564" 
d="M1589 1241l-178 -661q-73 -278 -221 -426q-177 -177 -488 -177q-248 0 -393 127q-143 128 -143 357q0 92 35 229l159 598q41 158 177 158q78 0 116 -53q35 -59 11 -152l-156 -579q-23 -97 -23 -156q0 -108 64 -172q69 -66 186 -66q138 0 234 90q92 92 139 267l178 663
q41 158 176 158q79 0 117 -53q34 -58 10 -152zM756 1548q-86 0 -86 82q0 31 16 60q113 204 279 204q81 0 161 -59q74 -53 109 -53q58 0 111 65q41 47 92 47q86 0 86 -82q0 -28 -17 -59q-114 -205 -278 -205q-77 0 -162 60q-74 53 -109 53q-56 0 -110 -66q-41 -47 -92 -47z
" />
    <glyph glyph-name="utilde" unicode="&#x169;" horiz-adv-x="1273" 
d="M846 -12q-66 0 -103 37q-36 33 -36 90q-150 -135 -299 -135q-147 0 -236 86q-88 85 -88 233q0 73 37 209l119 444q41 158 174 158q79 0 114 -53q38 -59 11 -152l-111 -409q-14 -49 -14 -99q0 -135 151 -135q179 0 238 219l127 471q41 158 174 158q80 0 115 -53
q37 -58 10 -152l-203 -760q-41 -157 -180 -157zM516 1212q-86 0 -86 82q0 31 16 60q114 205 279 205q80 0 162 -60q74 -53 108 -53q58 0 111 65q42 48 92 48q86 0 86 -82q0 -31 -16 -60q-114 -205 -279 -205q-77 0 -162 60q-74 53 -108 53q-58 0 -111 -65q-42 -48 -92 -48z
" />
    <glyph glyph-name="Umacron" unicode="&#x16a;" horiz-adv-x="1564" 
d="M1589 1241l-178 -661q-73 -278 -221 -426q-177 -177 -488 -177q-248 0 -393 127q-143 128 -143 357q0 92 35 229l159 598q41 158 177 158q78 0 116 -53q35 -59 11 -152l-156 -579q-23 -97 -23 -156q0 -108 64 -172q69 -66 186 -66q138 0 234 90q92 92 139 267l178 663
q41 158 176 158q79 0 117 -53q34 -58 10 -152zM1339 1556h-544q-45 0 -76 31q-33 29 -33 76t33 76q29 33 76 33h544q47 0 76 -33q33 -29 33 -76t-33 -76q-31 -31 -76 -31z" />
    <glyph glyph-name="umacron" unicode="&#x16b;" horiz-adv-x="1273" 
d="M846 -12q-66 0 -103 37q-36 33 -36 90q-150 -135 -299 -135q-147 0 -236 86q-88 85 -88 233q0 73 37 209l119 444q41 158 174 158q79 0 114 -53q38 -59 11 -152l-111 -409q-14 -49 -14 -99q0 -135 151 -135q179 0 238 219l127 471q41 158 174 158q80 0 115 -53
q37 -58 10 -152l-203 -760q-41 -157 -180 -157zM1112 1229h-545q-44 0 -75 31q-33 29 -33 75q0 47 33 76q29 33 75 33h545q47 0 76 -33q33 -29 33 -76q0 -46 -33 -75q-31 -31 -76 -31z" />
    <glyph glyph-name="Ubreve" unicode="&#x16c;" horiz-adv-x="1564" 
d="M1589 1241l-178 -661q-73 -278 -221 -426q-177 -177 -488 -177q-248 0 -393 127q-143 128 -143 357q0 92 35 229l159 598q41 158 177 158q78 0 116 -53q35 -59 11 -152l-156 -579q-23 -97 -23 -156q0 -108 64 -172q69 -66 186 -66q138 0 234 90q92 92 139 267l178 663
q41 158 176 158q79 0 117 -53q34 -58 10 -152zM1073 1542q-144 0 -244 80q-88 73 -88 164q0 39 31 67q30 27 76 27q71 0 98 -53q46 -82 150 -82q84 0 157 82q50 53 107 53q92 0 92 -88q0 -37 -29 -74q-144 -176 -350 -176z" />
    <glyph glyph-name="ubreve" unicode="&#x16d;" horiz-adv-x="1273" 
d="M846 -12q-66 0 -103 37q-36 33 -36 90q-150 -135 -299 -135q-147 0 -236 86q-88 85 -88 233q0 73 37 209l119 444q41 158 174 158q79 0 114 -53q38 -59 11 -152l-111 -409q-14 -49 -14 -99q0 -135 151 -135q179 0 238 219l127 471q41 158 174 158q80 0 115 -53
q37 -58 10 -152l-203 -760q-41 -157 -180 -157zM846 1214q-144 0 -244 80q-88 73 -88 164q0 40 31 68q29 26 76 26q71 0 98 -53q46 -82 149 -82q85 0 158 82q50 53 107 53q92 0 92 -88q0 -36 -29 -73q-145 -177 -350 -177z" />
    <glyph glyph-name="Uring" unicode="&#x16e;" horiz-adv-x="1564" 
d="M1589 1241l-178 -661q-73 -278 -221 -426q-177 -177 -488 -177q-248 0 -393 127q-143 128 -143 357q0 92 35 229l159 598q41 158 177 158q78 0 116 -53q35 -59 11 -152l-156 -579q-23 -97 -23 -156q0 -108 64 -172q69 -66 186 -66q138 0 234 90q92 92 139 267l178 663
q41 158 176 158q79 0 117 -53q34 -58 10 -152zM1071 1532q-103 0 -164 61q-61 58 -61 152q0 112 80 192q79 82 194 82q102 0 166 -61q60 -60 60 -152q0 -112 -80 -192q-79 -82 -195 -82zM1075 1645q61 0 101 49q38 44 38 110q0 103 -98 103q-60 0 -100 -49q-39 -45 -39 -111
q0 -102 98 -102z" />
    <glyph glyph-name="uring" unicode="&#x16f;" horiz-adv-x="1273" 
d="M846 -12q-66 0 -103 37q-36 33 -36 90q-150 -135 -299 -135q-147 0 -236 86q-88 85 -88 233q0 73 37 209l119 444q41 158 174 158q79 0 114 -53q38 -59 11 -152l-111 -409q-14 -49 -14 -99q0 -135 151 -135q179 0 238 219l127 471q41 158 174 158q80 0 115 -53
q37 -58 10 -152l-203 -760q-41 -157 -180 -157zM848 1214q-102 0 -164 62q-61 58 -61 151q0 114 79 193q79 82 195 82q101 0 166 -62q59 -59 59 -151q0 -113 -80 -193q-79 -82 -194 -82zM852 1327q60 0 100 49q39 45 39 111q0 102 -98 102q-60 0 -100 -49q-39 -45 -39 -110
q0 -103 98 -103z" />
    <glyph glyph-name="Uhungarumlaut" unicode="&#x170;" horiz-adv-x="1564" 
d="M1589 1241l-178 -661q-73 -278 -221 -426q-177 -177 -488 -177q-248 0 -393 127q-143 128 -143 357q0 92 35 229l159 598q41 158 177 158q78 0 116 -53q35 -59 11 -152l-156 -579q-23 -97 -23 -156q0 -108 64 -172q69 -66 186 -66q138 0 234 90q92 92 139 267l178 663
q41 158 176 158q79 0 117 -53q34 -58 10 -152zM1040 1888q58 0 101 -30q45 -29 45 -70q0 -35 -45 -68l-160 -118q-89 -68 -166 -68q-74 0 -74 57q0 31 27 58l156 172q64 67 116 67zM1442 1888q56 0 100 -30q45 -29 45 -70q0 -35 -45 -68l-160 -118q-89 -68 -165 -68
q-74 0 -74 57q0 32 26 58l156 172q64 67 117 67z" />
    <glyph glyph-name="uhungarumlaut" unicode="&#x171;" horiz-adv-x="1273" 
d="M846 -12q-66 0 -103 37q-36 33 -36 90q-150 -135 -299 -135q-147 0 -236 86q-88 85 -88 233q0 73 37 209l119 444q41 158 174 158q79 0 114 -53q38 -59 11 -152l-111 -409q-14 -49 -14 -99q0 -135 151 -135q179 0 238 219l127 471q41 158 174 158q80 0 115 -53
q37 -58 10 -152l-203 -760q-41 -157 -180 -157zM1214 1561q56 0 101 -31q45 -29 45 -70q0 -34 -45 -67l-160 -119q-89 -68 -166 -68q-74 0 -74 58q0 30 27 57l156 172q65 68 116 68zM813 1561q55 0 100 -31q45 -29 45 -70q0 -34 -45 -67l-159 -119q-89 -68 -166 -68
q-74 0 -74 58q0 30 27 57l155 172q65 68 117 68z" />
    <glyph glyph-name="Uogonek" unicode="&#x172;" horiz-adv-x="1564" 
d="M643 -344q-217 0 -217 137q0 89 121 201q-381 76 -381 467q0 92 35 229l159 598q41 158 177 158q78 0 116 -53q35 -59 11 -152l-156 -579q-23 -97 -23 -156q0 -108 64 -172q69 -66 186 -66q138 0 234 90q92 92 139 267l178 663q41 158 176 158q79 0 117 -53
q34 -58 10 -152l-178 -661q-73 -278 -221 -426q-168 -168 -455 -177q-67 -73 -67 -118q0 -36 61 -54q69 -21 66 -71q-3 -78 -152 -78z" />
    <glyph glyph-name="uogonek" unicode="&#x173;" horiz-adv-x="1273" 
d="M1229 905l-203 -760q-17 -68 -74 -125q-110 -110 -110 -161q0 -36 61 -54q69 -21 66 -71q-3 -78 -152 -78q-217 0 -217 137q0 100 152 225q-45 33 -45 97q-150 -135 -299 -135q-147 0 -236 86q-88 85 -88 233q0 73 37 209l119 444q41 158 174 158q79 0 114 -53
q38 -59 11 -152l-111 -409q-14 -49 -14 -99q0 -135 151 -135q179 0 238 219l127 471q41 158 174 158q80 0 115 -53q37 -58 10 -152z" />
    <glyph glyph-name="Wcircumflex" unicode="&#x174;" horiz-adv-x="2269" 
d="M2357 1233l-706 -1129q-77 -127 -211 -127h-15q-139 0 -145 140l-61 792l-492 -805q-77 -127 -205 -127h-14q-136 0 -148 140l-98 1110q-4 62 -4 73q0 63 45 105q47 41 119 41q150 0 156 -131l53 -852l512 862q73 125 182 125h18q135 0 144 -125l57 -862l524 878
q64 105 168 105q66 0 107 -35t41 -94q0 -37 -27 -84zM1632 1800l78 -151q27 -47 27 -66q0 -49 -70 -49q-118 0 -180 68l-74 79l-117 -79q-100 -68 -194 -68q-66 0 -66 47q0 31 35 66l168 161q70 70 160 70h90q102 0 143 -78z" />
    <glyph glyph-name="wcircumflex" unicode="&#x175;" horiz-adv-x="1755" 
d="M215 119l-45 772q-4 62 -4 74q0 58 49 104q50 41 111 41q152 0 155 -131l15 -547l319 555q70 125 182 125h17q133 0 139 -125l25 -557l335 588q53 92 146 92q125 0 125 -117q0 -42 -25 -84l-481 -803q-76 -126 -203 -126h-10q-135 0 -141 139l-27 547l-328 -560
q-74 -126 -202 -126h-11q-135 0 -141 139zM1300 1473l78 -152q27 -47 27 -66q0 -49 -70 -49q-118 0 -180 68l-74 80l-116 -80q-100 -68 -195 -68q-65 0 -65 47q0 32 34 66l168 162q69 69 160 69h90q102 0 143 -77z" />
    <glyph glyph-name="Ycircumflex" unicode="&#x176;" horiz-adv-x="1331" 
d="M803 524l-103 -379q-41 -157 -176 -157q-79 0 -114 53q-37 58 -13 152l97 360l-258 625q-31 76 -31 118q0 63 47 107q49 43 123 43q107 0 153 -123l183 -492l479 527q84 90 170 90q131 0 131 -129q0 -66 -53 -125zM1159 1800l78 -151q27 -47 27 -66q0 -49 -70 -49
q-118 0 -180 68l-74 79l-117 -79q-100 -68 -194 -68q-66 0 -66 47q0 31 35 66l168 161q70 70 160 70h90q102 0 143 -78z" />
    <glyph glyph-name="ycircumflex" unicode="&#x177;" horiz-adv-x="1212" 
d="M127 -55q70 -17 92 -17q56 0 107 66l-131 897q-7 40 -7 74q0 62 45 104q47 41 111 41q63 0 107 -35q42 -36 45 -98l63 -633l385 668q52 98 158 98q135 0 135 -121q0 -41 -41 -106l-569 -910q-193 -307 -445 -307q-93 0 -147 23q-94 40 -94 135q0 57 36 96t86 39
q15 0 64 -14zM1016 1473l78 -152q26 -45 26 -66q0 -49 -69 -49q-119 0 -181 68l-73 80l-117 -80q-100 -68 -195 -68q-65 0 -65 47q0 31 35 66l168 162q69 69 159 69h90q103 0 144 -77z" />
    <glyph glyph-name="Ydieresis" unicode="&#x178;" horiz-adv-x="1331" 
d="M803 524l-103 -379q-41 -157 -176 -157q-79 0 -114 53q-37 58 -13 152l97 360l-258 625q-31 76 -31 118q0 63 47 107q49 43 123 43q107 0 153 -123l183 -492l479 527q84 90 170 90q131 0 131 -129q0 -66 -53 -125zM883 1690l-2 -9q-27 -147 -187 -147q-69 0 -110 41
q-40 43 -25 106l2 9q30 145 187 145q68 0 108 -43q39 -42 27 -102zM1321 1690l-2 -9q-27 -147 -186 -147q-70 0 -111 41q-40 43 -25 106l2 9q30 145 187 145q68 0 108 -43q39 -42 27 -102z" />
    <glyph glyph-name="Zacute" unicode="&#x179;" horiz-adv-x="1411" 
d="M72 283l960 874h-573q-58 0 -99 41t-41 96q0 58 41 99t99 41h911q137 0 137 -123v-4q0 -73 -86 -156l-960 -875h606q58 0 98 -40q41 -41 41 -99q0 -55 -41 -96t-98 -41h-944q-137 0 -137 123v4q0 73 86 156zM1317 1720l-160 -118q-89 -68 -182 -68q-86 0 -86 57
q0 32 26 58l156 172q64 67 117 67q60 0 115 -30q59 -30 59 -70q0 -35 -45 -68z" />
    <glyph glyph-name="zacute" unicode="&#x17a;" horiz-adv-x="1140" 
d="M338 1098h684q139 0 139 -115v-2q0 -75 -76 -139l-677 -590h409q53 0 90 -37t37 -90q0 -51 -37 -88t-90 -37h-706q-140 0 -140 115v2q0 75 76 139l676 590h-385q-53 0 -90 37t-37 88q0 53 37 90q40 37 90 37zM1085 1393l-159 -119q-89 -68 -183 -68q-86 0 -86 58
q0 30 27 57l156 172q65 68 116 68q58 0 115 -31q59 -30 59 -70q0 -34 -45 -67z" />
    <glyph glyph-name="Zdotaccent" unicode="&#x17b;" horiz-adv-x="1411" 
d="M72 283l960 874h-573q-58 0 -99 41t-41 96q0 58 41 99t99 41h911q137 0 137 -123v-4q0 -73 -86 -156l-960 -875h606q58 0 98 -40q41 -41 41 -99q0 -55 -41 -96t-98 -41h-944q-137 0 -137 123v4q0 73 86 156zM1151 1690l-2 -9q-27 -147 -191 -147q-71 0 -112 41
q-41 44 -27 106l2 9q15 65 68 106q51 39 123 39q67 0 110 -43q41 -44 29 -102z" />
    <glyph glyph-name="zdotaccent" unicode="&#x17c;" horiz-adv-x="1140" 
d="M338 1098h684q139 0 139 -115v-2q0 -75 -76 -139l-677 -590h409q53 0 90 -37t37 -90q0 -51 -37 -88t-90 -37h-706q-140 0 -140 115v2q0 75 76 139l676 590h-385q-53 0 -90 37t-37 88q0 53 37 90q40 37 90 37zM922 1362l-2 -8q-27 -148 -191 -148q-72 0 -113 41
q-41 44 -26 107l2 8q15 66 67 106q51 39 123 39q68 0 111 -43q41 -44 29 -102z" />
    <glyph glyph-name="Zcaron" unicode="&#x17d;" horiz-adv-x="1411" 
d="M72 283l960 874h-573q-58 0 -99 41t-41 96q0 58 41 99t99 41h911q137 0 137 -123v-4q0 -73 -86 -156l-960 -875h606q58 0 98 -40q41 -41 41 -99q0 -55 -41 -96t-98 -41h-944q-137 0 -137 123v4q0 73 86 156zM776 1614l-78 151q-26 45 -26 66q0 49 69 49q119 0 181 -68
l73 -79l117 79q100 68 195 68q65 0 65 -47q0 -31 -35 -66l-168 -161q-70 -70 -159 -70h-90q-103 0 -144 78z" />
    <glyph glyph-name="zcaron" unicode="&#x17e;" horiz-adv-x="1140" 
d="M338 1098h684q139 0 139 -115v-2q0 -75 -76 -139l-677 -590h409q53 0 90 -37t37 -90q0 -51 -37 -88t-90 -37h-706q-140 0 -140 115v2q0 75 76 139l676 590h-385q-53 0 -90 37t-37 88q0 53 37 90q40 37 90 37zM547 1286l-78 152q-27 46 -27 65q0 49 70 49q119 0 180 -67
l74 -80l117 80q98 67 194 67q66 0 66 -47q0 -30 -35 -65l-168 -162q-70 -70 -160 -70h-90q-102 0 -143 78z" />
    <glyph glyph-name="florin" unicode="&#x192;" horiz-adv-x="1112" 
d="M125 -25q-166 0 -166 134q0 121 139 124q99 3 158 132l152 340h-5q-48 0 -81 36q-37 37 -37 90t37 93q40 37 92 37h108l78 176q144 319 447 319q59 0 104 -10q104 -24 104 -123q0 -63 -45 -102q-38 -32 -92 -29q-10 2 -61 2q-129 0 -193 -147l-39 -86h90q53 0 93 -37
q36 -39 36 -93t-36 -90q-39 -36 -93 -36h-204l-193 -435q-132 -295 -393 -295z" />
    <glyph glyph-name="Ohorn" unicode="&#x1a0;" horiz-adv-x="1703" 
d="M1192 442q135 164 135 361q0 164 -94 262q-99 102 -270 102q-216 0 -363 -176q-135 -163 -135 -360q0 -164 94 -262q100 -103 270 -103q216 0 363 176zM1487 1264q168 -174 168 -441q0 -333 -238 -583q-253 -265 -624 -265q-293 0 -476 183q-180 177 -180 452
q0 334 238 584q252 264 624 264q102 0 195 -22q154 -9 215 184q42 51 98 51q64 0 107 -37q43 -40 43 -100q0 -66 -49 -133q-47 -79 -121 -137z" />
    <glyph glyph-name="ohorn" unicode="&#x1a1;" horiz-adv-x="1335" 
d="M858 365q86 112 86 237q0 119 -65 184q-66 66 -172 66q-135 0 -230 -121q-86 -115 -86 -239q0 -119 66 -185q65 -65 172 -65q135 0 229 123zM1171 897q78 -122 78 -287q0 -250 -184 -440q-192 -195 -451 -195q-240 0 -387 144q-141 141 -141 364q0 252 186 441
q188 194 449 194q107 0 199 -28q144 -3 202 184q42 51 99 51q63 0 106 -37q43 -40 43 -100q0 -66 -49 -133q-61 -98 -150 -158z" />
    <glyph glyph-name="Uhorn" unicode="&#x1af;" horiz-adv-x="1564" 
d="M1573 1184l-162 -604q-73 -278 -221 -426q-177 -177 -488 -177q-248 0 -393 127q-143 128 -143 357q0 92 35 229l159 598q41 158 177 158q78 0 116 -53q35 -59 11 -152l-156 -579q-23 -97 -23 -156q0 -108 64 -172q69 -66 186 -66q138 0 234 90q92 92 139 267l178 663
q41 158 176 158q19 0 39 -4q103 30 150 178q42 51 98 51q63 0 106 -37q43 -40 43 -100q0 -66 -49 -133q-94 -155 -276 -217z" />
    <glyph glyph-name="uhorn" unicode="&#x1b0;" horiz-adv-x="1273" 
d="M1214 852l-188 -707q-41 -157 -180 -157q-66 0 -103 37q-36 33 -36 90q-150 -135 -299 -135q-147 0 -236 86q-88 85 -88 233q0 73 37 209l119 444q41 158 174 158q79 0 114 -53q38 -59 11 -152l-111 -409q-14 -49 -14 -99q0 -135 151 -135q179 0 238 219l127 471
q41 158 174 158q21 0 31 -2q78 41 118 166q42 51 99 51q63 0 106 -37q43 -40 43 -100q0 -66 -49 -133q-82 -137 -238 -203z" />
    <glyph glyph-name="Aringacute" unicode="&#x1fa;" horiz-adv-x="1566" 
d="M104 -12q-129 0 -129 123q0 55 37 104l856 1200q-55 55 -55 148q0 112 80 192q79 82 194 82q102 0 166 -61q60 -60 60 -152q0 -147 -121 -227l209 -1176q10 -78 10 -82q0 -64 -45 -106q-45 -45 -117 -45q-135 0 -153 125l-33 209h-635l-164 -236q-70 -98 -160 -98z
M621 600h397l-74 473zM1042 1462q61 0 101 49q39 45 39 111q0 102 -99 102q-60 0 -100 -49q-39 -45 -39 -110q0 -103 98 -103zM1503 2058l-160 -119q-88 -67 -182 -67q-86 0 -86 57q0 31 27 58l155 172q64 67 117 67q58 0 115 -31q59 -30 59 -69q0 -35 -45 -68z" />
    <glyph glyph-name="aringacute" unicode="&#x1fb;" horiz-adv-x="1204" 
d="M795 -12q-142 0 -133 139q-138 -147 -328 -147q-143 0 -232 83q-88 82 -88 211q0 185 138 293q130 103 335 103q156 0 310 -49l4 14q12 50 12 82q0 129 -207 129q-95 0 -190 -25q-33 -8 -51 -8q-54 0 -89 35q-34 37 -34 90q0 94 94 121q154 51 336 51q444 0 444 -338
q0 -72 -24 -166l-123 -461q-41 -157 -174 -157zM807 1214q-102 0 -164 62q-61 58 -61 151q0 113 80 193q79 82 194 82q101 0 166 -62q59 -59 59 -151q0 -113 -80 -193q-79 -82 -194 -82zM1245 1937l-160 -118q-89 -68 -182 -68q-86 0 -86 57q0 31 27 58l155 172
q64 67 117 67q60 0 115 -30q59 -30 59 -70q0 -35 -45 -68zM467 193q94 0 174 65q75 63 102 156l9 28q-98 39 -205 39q-100 0 -160 -45q-63 -48 -63 -127q0 -52 38 -84t105 -32zM811 1327q60 0 100 49q39 45 39 111q0 102 -98 102q-60 0 -100 -49q-39 -45 -39 -110
q0 -103 98 -103z" />
    <glyph glyph-name="AEacute" unicode="&#x1fc;" horiz-adv-x="2166" 
d="M696 600h336l150 561h-39zM1149 1434h969q59 0 100 -41t41 -101q0 -57 -41 -98t-100 -41h-625l-78 -293h457q59 0 100 -41t41 -98t-41 -98q-39 -39 -100 -39h-533l-82 -303h562q59 0 100 -41t41 -101q0 -57 -41 -98t-100 -41h-768q-79 0 -117 53q-37 58 -10 152l32 117
h-483l-194 -244q-75 -90 -152 -90q-121 0 -121 112q0 62 47 121l887 1098q95 115 209 115zM1853 1720l-159 -118q-89 -68 -183 -68q-86 0 -86 57q0 31 27 58l156 172q64 67 116 67q60 0 115 -30q59 -30 59 -70q0 -35 -45 -68z" />
    <glyph glyph-name="aeacute" unicode="&#x1fd;" horiz-adv-x="1925" 
d="M1866 690q0 -52 -13 -112q-30 -138 -149 -138h-645q15 -215 250 -215q94 0 170 43q56 29 94 29q51 0 84 -33t33 -86q0 -62 -60 -104q-150 -99 -356 -99q-295 0 -418 211q-200 -206 -491 -206q-168 0 -261 81q-90 78 -90 213q0 185 138 293q130 103 335 103q156 0 310 -49
l4 14q12 50 12 82q0 129 -207 129q-95 0 -190 -25q-33 -8 -51 -8q-54 0 -89 35q-34 37 -34 90q0 94 94 121q154 51 336 51q269 0 360 -162q170 170 395 170q202 0 322 -123q117 -120 117 -305zM547 481q-100 0 -160 -45q-63 -48 -63 -127q0 -116 163 -116q177 0 316 139
q-9 44 -12 94q-125 55 -244 55zM1487 1393l-160 -119q-89 -68 -182 -68q-86 0 -86 58q0 31 26 57l156 172q65 68 117 68q58 0 115 -31q59 -30 59 -70q0 -34 -45 -67zM1085 635h478q10 38 10 72q0 161 -180 161q-223 0 -308 -233z" />
    <glyph glyph-name="Oslashacute" unicode="&#x1fe;" horiz-adv-x="1703" 
d="M453 631q0 -93 26 -158l738 623q-100 86 -254 86q-215 0 -369 -183q-141 -169 -141 -368zM829 252q216 0 369 182q141 170 141 369q0 77 -20 133l-729 -614q91 -70 239 -70zM354 123l-121 -103q-52 -43 -96 -43q-92 0 -92 89q0 47 64 102l118 102q-90 146 -90 340
q0 334 238 584q252 264 624 264q273 0 453 -162l139 117q52 43 97 43q92 0 92 -88q0 -47 -64 -102l-141 -123q80 -145 80 -320q0 -333 -238 -583q-253 -265 -624 -265q-256 0 -439 148zM1507 1741l-159 -119q-89 -68 -183 -68q-86 0 -86 58q0 30 27 57l156 172q65 68 116 68
q58 0 115 -31q59 -30 59 -70q0 -34 -45 -67z" />
    <glyph glyph-name="oslashacute" unicode="&#x1ff;" horiz-adv-x="1335" 
d="M629 231q134 0 233 123q92 115 92 248q0 38 -10 90l-450 -432q63 -29 135 -29zM381 492q0 -40 6 -78l442 424q-49 24 -122 24q-135 0 -234 -123q-92 -115 -92 -247zM291 66l-47 -46q-46 -43 -97 -43q-92 0 -92 84q0 47 49 93l56 51q-74 118 -74 278q0 252 186 441
q188 194 449 194q178 0 309 -84l45 43q46 43 96 43q93 0 93 -84q0 -45 -50 -92l-47 -43q82 -125 82 -291q0 -250 -184 -440q-192 -195 -451 -195q-184 0 -323 91zM1206 1393l-159 -119q-89 -68 -183 -68q-86 0 -86 58q0 30 27 57l156 172q65 68 116 68q58 0 115 -31
q59 -30 59 -70q0 -34 -45 -67z" />
    <glyph glyph-name="uni0218" unicode="&#x218;" horiz-adv-x="1302" 
d="M618 256q96 0 158 41t62 109q0 51 -50 92q-47 36 -194 96q-352 143 -352 387q0 214 170 346q165 127 399 127q250 0 436 -127q74 -53 74 -131q0 -66 -45 -111q-46 -43 -111 -43q-51 0 -86 27q-139 109 -293 109q-96 0 -153 -45q-55 -43 -55 -101q0 -54 53 -92
q39 -29 198 -96q345 -139 345 -387q0 -218 -173 -353q-161 -124 -397 -124q-340 0 -530 163q-62 53 -62 131q0 69 43 115q45 45 111 45q52 0 100 -39q171 -139 352 -139zM408 -367q-115 24 -115 107q0 61 45 100q47 41 115 41q141 0 141 -143q0 -125 -100 -225
q-121 -121 -267 -121q-57 0 -57 45q0 43 63 55q157 27 175 141z" />
    <glyph glyph-name="uni0219" unicode="&#x219;" 
d="M467 213q131 0 131 96q0 47 -127 103q-158 70 -223 123q-96 81 -96 198q0 169 118 275q119 110 322 110q185 0 350 -98q72 -41 72 -115q0 -54 -37 -94q-39 -39 -92 -39q-34 0 -82 31q-122 78 -234 78q-120 0 -120 -93q0 -49 145 -114q148 -66 205 -115q96 -84 96 -197
q0 -176 -127 -282q-126 -105 -324 -105q-231 0 -421 138q-56 41 -56 106q0 52 37 92q36 39 88 39q43 0 82 -28q139 -109 293 -109zM262 -356q-115 24 -115 106q0 60 46 100q47 41 114 41q142 0 142 -143q0 -124 -101 -225q-121 -121 -266 -121q-57 0 -57 45q0 43 63 55
q156 27 174 142z" />
    <glyph glyph-name="uni0259" unicode="&#x259;" horiz-adv-x="1243" 
d="M616 872q-94 0 -170 -43q-54 -28 -94 -28q-49 0 -82 33q-34 34 -34 86q0 63 59 104q148 98 356 98q238 0 373 -129q135 -132 135 -358q0 -254 -178 -447q-190 -208 -473 -208q-210 0 -332 122q-117 117 -117 306q0 52 13 112q30 137 149 137h645q-15 215 -250 215z
M840 463h-478q-10 -38 -10 -72q0 -162 180 -162q222 0 308 234z" />
    <glyph glyph-name="circumflex" unicode="&#x2c6;" 
d="M961 1473l77 -152q27 -47 27 -66q0 -49 -70 -49q-118 0 -180 68l-74 80l-116 -80q-100 -68 -195 -68q-65 0 -65 47q0 32 34 66l168 162q69 69 160 69h90q103 0 144 -77z" />
    <glyph glyph-name="caron" unicode="&#x2c7;" 
d="M502 1286l-78 152q-27 46 -27 65q0 49 70 49q119 0 180 -67l74 -80l117 80q98 67 194 67q66 0 66 -47q0 -30 -35 -65l-168 -162q-70 -70 -160 -70h-90q-102 0 -143 78z" />
    <glyph glyph-name="breve" unicode="&#x2d8;" 
d="M735 1214q-143 0 -243 80q-89 74 -89 164q0 40 31 68q29 26 76 26q71 0 98 -53q46 -82 150 -82q84 0 157 82q50 53 107 53q92 0 92 -88q0 -36 -29 -73q-145 -177 -350 -177z" />
    <glyph glyph-name="dotaccent" unicode="&#x2d9;" 
d="M897 1362l-2 -8q-27 -148 -190 -148q-72 0 -113 41q-42 45 -27 107l2 8q15 65 68 106q51 39 123 39q67 0 110 -43q41 -44 29 -102z" />
    <glyph glyph-name="ring" unicode="&#x2da;" 
d="M731 1214q-102 0 -164 62q-61 58 -61 151q0 113 80 193q79 82 194 82q101 0 166 -62q60 -60 60 -151q0 -113 -80 -193q-79 -82 -195 -82zM735 1327q61 0 101 49q38 44 38 111q0 102 -98 102q-60 0 -100 -49q-39 -45 -39 -110q0 -103 98 -103z" />
    <glyph glyph-name="ogonek" unicode="&#x2db;" 
d="M389 -344q-217 0 -217 137q0 97 154 227h198q-110 -110 -110 -161q0 -36 61 -54q69 -21 66 -71q-3 -78 -152 -78z" />
    <glyph glyph-name="tilde" unicode="&#x2dc;" 
d="M391 1212q-86 0 -86 82q0 29 17 60q114 205 278 205q80 0 162 -60q74 -53 108 -53q58 0 111 65q42 48 92 48q86 0 86 -82q0 -31 -16 -60q-114 -205 -279 -205q-77 0 -162 60q-74 53 -108 53q-58 0 -111 -65q-42 -48 -92 -48z" />
    <glyph glyph-name="hungarumlaut" unicode="&#x2dd;" 
d="M614 1561q56 0 101 -31q45 -29 45 -70q0 -34 -45 -67l-160 -119q-89 -68 -166 -68q-74 0 -74 58q0 30 27 57l156 172q65 68 116 68zM1016 1561q55 0 100 -31q45 -29 45 -70q0 -34 -45 -67l-160 -119q-89 -68 -165 -68q-74 0 -74 58q0 31 26 57l156 172q65 68 117 68z" />
    <glyph glyph-name="gravecomb" unicode="&#x300;" horiz-adv-x="0" 
d="M-578 1274l-94 119q-28 42 -28 65q0 36 57 70q53 33 115 33q81 0 108 -76l62 -168q8 -21 8 -43q0 -68 -99 -68q-76 0 -129 68z" />
    <glyph glyph-name="acutecomb" unicode="&#x301;" horiz-adv-x="0" 
d="M-242 1393l-159 -119q-89 -68 -183 -68q-86 0 -86 58q0 30 27 57l156 172q65 68 116 68q58 0 115 -31q59 -30 59 -70q0 -34 -45 -67z" />
    <glyph glyph-name="tildecomb" unicode="&#x303;" horiz-adv-x="0" 
d="M-674 1212q-86 0 -86 82q0 29 17 60q114 205 278 205q80 0 162 -60q74 -53 108 -53q58 0 111 65q42 48 92 48q86 0 86 -82q0 -31 -16 -60q-114 -205 -279 -205q-76 0 -161 60q-74 53 -109 53q-58 0 -111 -65q-42 -48 -92 -48z" />
    <glyph glyph-name="hookabovecomb" unicode="&#x309;" horiz-adv-x="1114" 
d="M612 1419q-25 -14 -51 -14q-31 0 -53 22q-21 21 -21 52q0 42 37 69q68 51 162 51q86 0 139 -47q54 -48 54 -114q0 -155 -193 -185l-2 -2q-21 -55 -74 -55h-6q-70 0 -61 72l6 55q9 52 74 61q77 12 77 39q0 15 -28 15q-24 0 -60 -19z" />
    <glyph glyph-name="uni031B" unicode="&#x31b;" horiz-adv-x="1474" 
d="M827 -125l7 285q159 -15 223 184q42 51 98 51q64 0 107 -37q43 -40 43 -100q0 -65 -50 -133q-130 -216 -428 -250z" />
    <glyph glyph-name="dotbelowcomb" unicode="&#x323;" horiz-adv-x="0" 
d="M-195 -268l-2 -13q-12 -74 -67 -120q-56 -50 -133 -50q-79 0 -123 50q-43 46 -31 120l2 13q30 170 201 170q80 0 123 -49q42 -45 30 -121z" />
    <glyph glyph-name="uni0326" unicode="&#x326;" 
d="M266 -356q-114 24 -114 106q0 61 45 100q47 41 114 41q142 0 142 -143q0 -124 -101 -225q-121 -121 -266 -121q-57 0 -57 45q0 43 63 55q156 27 174 142z" />
    <glyph glyph-name="Wgrave" unicode="&#x1e80;" horiz-adv-x="2269" 
d="M2357 1233l-706 -1129q-77 -127 -211 -127h-15q-139 0 -145 140l-61 792l-492 -805q-77 -127 -205 -127h-14q-136 0 -148 140l-98 1110q-4 62 -4 73q0 63 45 105q47 41 119 41q150 0 156 -131l53 -852l512 862q73 125 182 125h18q135 0 144 -125l57 -862l524 878
q64 105 168 105q66 0 107 -35t41 -94q0 -37 -27 -84zM1212 1602l-94 118q-28 42 -28 66q0 35 57 69q53 33 115 33q81 0 108 -76l62 -167q8 -21 8 -43q0 -68 -99 -68q-76 0 -129 68z" />
    <glyph glyph-name="wgrave" unicode="&#x1e81;" horiz-adv-x="1755" 
d="M215 119l-45 772q-4 62 -4 74q0 58 49 104q50 41 111 41q152 0 155 -131l15 -547l319 555q70 125 182 125h17q133 0 139 -125l25 -557l335 588q53 92 146 92q125 0 125 -117q0 -42 -25 -84l-481 -803q-76 -126 -203 -126h-10q-135 0 -141 139l-27 547l-328 -560
q-74 -126 -202 -126h-11q-135 0 -141 139zM879 1274l-95 119q-28 42 -28 65q0 36 57 70q53 33 115 33q81 0 108 -76l62 -168q8 -21 8 -43q0 -68 -98 -68q-76 0 -129 68z" />
    <glyph glyph-name="Wacute" unicode="&#x1e82;" horiz-adv-x="2269" 
d="M2357 1233l-706 -1129q-77 -127 -211 -127h-15q-139 0 -145 140l-61 792l-492 -805q-77 -127 -205 -127h-14q-136 0 -148 140l-98 1110q-4 62 -4 73q0 63 45 105q47 41 119 41q150 0 156 -131l53 -852l512 862q73 125 182 125h18q135 0 144 -125l57 -862l524 878
q64 105 168 105q66 0 107 -35t41 -94q0 -37 -27 -84zM1745 1720l-160 -118q-89 -68 -182 -68q-86 0 -86 57q0 32 26 58l156 172q64 67 117 67q60 0 115 -30q59 -30 59 -70q0 -35 -45 -68z" />
    <glyph glyph-name="wacute" unicode="&#x1e83;" horiz-adv-x="1755" 
d="M215 119l-45 772q-4 62 -4 74q0 58 49 104q50 41 111 41q152 0 155 -131l15 -547l319 555q70 125 182 125h17q133 0 139 -125l25 -557l335 588q53 92 146 92q125 0 125 -117q0 -42 -25 -84l-481 -803q-76 -126 -203 -126h-10q-135 0 -141 139l-27 547l-328 -560
q-74 -126 -202 -126h-11q-135 0 -141 139zM1411 1393l-160 -119q-89 -68 -182 -68q-86 0 -86 58q0 30 27 57l155 172q65 68 117 68q58 0 115 -31q59 -30 59 -70q0 -34 -45 -67z" />
    <glyph glyph-name="Wdieresis" unicode="&#x1e84;" horiz-adv-x="2269" 
d="M2357 1233l-706 -1129q-77 -127 -211 -127h-15q-139 0 -145 140l-61 792l-492 -805q-77 -127 -205 -127h-14q-136 0 -148 140l-98 1110q-4 62 -4 73q0 63 45 105q47 41 119 41q150 0 156 -131l53 -852l512 862q73 125 182 125h18q135 0 144 -125l57 -862l524 878
q64 105 168 105q66 0 107 -35t41 -94q0 -37 -27 -84zM1356 1690l-2 -9q-27 -147 -187 -147q-69 0 -110 41q-40 43 -25 106l2 9q30 145 187 145q68 0 108 -43q39 -42 27 -102zM1794 1690l-2 -9q-27 -147 -186 -147q-70 0 -111 41q-40 43 -25 106l3 9q30 145 186 145
q68 0 108 -43q39 -42 27 -102z" />
    <glyph glyph-name="wdieresis" unicode="&#x1e85;" horiz-adv-x="1755" 
d="M215 119l-45 772q-4 62 -4 74q0 58 49 104q50 41 111 41q152 0 155 -131l15 -547l319 555q70 125 182 125h17q133 0 139 -125l25 -557l335 588q53 92 146 92q125 0 125 -117q0 -42 -25 -84l-481 -803q-76 -126 -203 -126h-10q-135 0 -141 139l-27 547l-328 -560
q-74 -126 -202 -126h-11q-135 0 -141 139zM1024 1362l-2 -8q-27 -148 -186 -148q-70 0 -111 41q-40 43 -25 107l2 8q30 145 187 145q68 0 108 -43q39 -42 27 -102zM1462 1362l-2 -8q-27 -148 -186 -148q-70 0 -111 41q-39 42 -24 107l2 8q30 145 186 145q69 0 109 -43
q38 -41 26 -102z" />
    <glyph glyph-name="uni1EA0" unicode="&#x1ea0;" horiz-adv-x="1566" 
d="M621 600h397l-74 473zM1208 1307l193 -1086q10 -78 10 -82q0 -64 -45 -106q-45 -45 -117 -45q-135 0 -153 125l-33 209h-635l-164 -236q-70 -98 -160 -98q-129 0 -129 123q0 55 37 104l797 1118q85 123 221 123h6q145 0 172 -149zM760 -268l-2 -13q-12 -73 -68 -120
q-56 -50 -133 -50q-79 0 -123 50q-43 46 -31 120l3 13q30 170 200 170q80 0 123 -49q43 -46 31 -121z" />
    <glyph glyph-name="uni1EA1" unicode="&#x1ea1;" horiz-adv-x="1204" 
d="M795 -12q-142 0 -133 139q-138 -147 -328 -147q-143 0 -232 83q-88 82 -88 211q0 185 138 293q130 103 335 103q156 0 310 -49l4 14q12 50 12 82q0 129 -207 129q-95 0 -190 -25q-33 -8 -51 -8q-54 0 -89 35q-34 37 -34 90q0 94 94 121q154 51 336 51q444 0 444 -338
q0 -72 -24 -166l-123 -461q-41 -157 -174 -157zM467 193q94 0 174 65q75 63 102 156l9 28q-98 39 -205 39q-100 0 -160 -45q-63 -48 -63 -127q0 -52 38 -84t105 -32zM528 -268l-2 -13q-12 -74 -67 -120q-56 -50 -133 -50q-79 0 -123 50q-43 46 -31 120l2 13q30 170 201 170
q80 0 123 -49q42 -45 30 -121z" />
    <glyph glyph-name="uni1EA2" unicode="&#x1ea2;" horiz-adv-x="1566" 
d="M621 600h397l-74 473zM1208 1307l193 -1086q10 -78 10 -82q0 -64 -45 -106q-45 -45 -117 -45q-135 0 -153 125l-33 209h-635l-164 -236q-70 -98 -160 -98q-129 0 -129 123q0 55 37 104l797 1118q85 123 221 123h6q145 0 172 -149zM1049 1755q-25 -14 -52 -14
q-31 0 -53 22q-20 20 -20 52q0 42 37 69q68 51 161 51q87 0 140 -47t53 -114q0 -155 -193 -185l-2 -2q-21 -55 -73 -55h-7q-70 0 -61 72l6 55q9 52 74 61q78 12 78 39q0 15 -29 15q-23 0 -59 -19z" />
    <glyph glyph-name="uni1EA3" unicode="&#x1ea3;" horiz-adv-x="1204" 
d="M795 -12q-142 0 -133 139q-138 -147 -328 -147q-143 0 -232 83q-88 82 -88 211q0 185 138 293q130 103 335 103q156 0 310 -49l4 14q12 50 12 82q0 129 -207 129q-95 0 -190 -25q-33 -8 -51 -8q-54 0 -89 35q-34 37 -34 90q0 94 94 121q154 51 336 51q444 0 444 -338
q0 -72 -24 -166l-123 -461q-41 -157 -174 -157zM467 193q94 0 174 65q75 63 102 156l9 28q-98 39 -205 39q-100 0 -160 -45q-63 -48 -63 -127q0 -52 38 -84t105 -32zM729 1419q-25 -14 -51 -14q-31 0 -53 22q-21 21 -21 52q0 42 37 69q68 51 162 51q86 0 139 -47t53 -114
q0 -155 -192 -185l-2 -2q-21 -55 -74 -55h-6q-71 0 -62 72l7 55q9 52 73 61q78 12 78 39q0 15 -29 15q-23 0 -59 -19z" />
    <glyph glyph-name="uni1EA4" unicode="&#x1ea4;" horiz-adv-x="1566" 
d="M621 600h397l-74 473zM1208 1307l193 -1086q10 -78 10 -82q0 -64 -45 -106q-45 -45 -117 -45q-135 0 -153 125l-33 209h-635l-164 -236q-70 -98 -160 -98q-129 0 -129 123q0 55 37 104l797 1118q85 123 221 123h6q145 0 172 -149zM1327 1823l78 -152q27 -46 27 -65
q0 -50 -70 -50q-118 0 -180 68l-74 80l-117 -80q-100 -68 -194 -68q-66 0 -66 48q0 30 35 65l168 162q70 70 160 70h90q102 0 143 -78zM1833 1962l-160 -119q-88 -67 -182 -67q-86 0 -86 57q0 30 27 57l155 172q65 68 117 68q58 0 115 -31q59 -30 59 -69q0 -35 -45 -68z" />
    <glyph glyph-name="uni1EA5" unicode="&#x1ea5;" horiz-adv-x="1204" 
d="M795 -12q-142 0 -133 139q-138 -147 -328 -147q-143 0 -232 83q-88 82 -88 211q0 185 138 293q130 103 335 103q156 0 310 -49l4 14q12 50 12 82q0 129 -207 129q-95 0 -190 -25q-33 -8 -51 -8q-54 0 -89 35q-34 37 -34 90q0 94 94 121q154 51 336 51q444 0 444 -338
q0 -72 -24 -166l-123 -461q-41 -157 -174 -157zM467 193q94 0 174 65q75 63 102 156l9 28q-98 39 -205 39q-100 0 -160 -45q-63 -48 -63 -127q0 -52 38 -84t105 -32zM1026 1473l78 -152q26 -45 26 -66q0 -49 -69 -49q-118 0 -180 68l-74 80l-117 -80q-100 -68 -194 -68
q-66 0 -66 47q0 31 35 66l168 162q69 69 160 69h90q102 0 143 -77zM1501 1645l-160 -119q-89 -68 -182 -68q-86 0 -86 58q0 30 27 57l155 172q64 67 117 67q60 0 115 -30q59 -30 59 -70q0 -34 -45 -67z" />
    <glyph glyph-name="uni1EA6" unicode="&#x1ea6;" horiz-adv-x="1566" 
d="M621 600h397l-74 473zM1208 1307l193 -1086q10 -78 10 -82q0 -64 -45 -106q-45 -45 -117 -45q-135 0 -153 125l-33 209h-635l-164 -236q-70 -98 -160 -98q-129 0 -129 123q0 55 37 104l797 1118q85 123 221 123h6q145 0 172 -149zM1331 1823l78 -152q27 -46 27 -65
q0 -50 -70 -50q-118 0 -180 68l-74 80l-117 -80q-100 -68 -194 -68q-66 0 -66 48q0 30 35 65l168 162q70 70 160 70h90q102 0 143 -78zM635 1849l-94 119q-29 44 -29 66q0 35 57 69q53 33 115 33q82 0 109 -76l61 -168q8 -21 8 -43q0 -67 -98 -67q-77 0 -129 67z" />
    <glyph glyph-name="uni1EA7" unicode="&#x1ea7;" horiz-adv-x="1204" 
d="M795 -12q-142 0 -133 139q-138 -147 -328 -147q-143 0 -232 83q-88 82 -88 211q0 185 138 293q130 103 335 103q156 0 310 -49l4 14q12 50 12 82q0 129 -207 129q-95 0 -190 -25q-33 -8 -51 -8q-54 0 -89 35q-34 37 -34 90q0 94 94 121q154 51 336 51q444 0 444 -338
q0 -72 -24 -166l-123 -461q-41 -157 -174 -157zM467 193q94 0 174 65q75 63 102 156l9 28q-98 39 -205 39q-100 0 -160 -45q-63 -48 -63 -127q0 -52 38 -84t105 -32zM1042 1473l78 -152q27 -47 27 -66q0 -49 -70 -49q-118 0 -180 68l-74 80l-116 -80q-100 -68 -195 -68
q-66 0 -66 47q0 31 35 66l168 162q69 69 160 69h90q102 0 143 -77zM399 1579l-94 119q-29 44 -29 65q0 36 58 70q53 33 115 33q81 0 108 -76l61 -168q9 -24 9 -43q0 -68 -99 -68q-76 0 -129 68z" />
    <glyph glyph-name="uni1EA8" unicode="&#x1ea8;" horiz-adv-x="1566" 
d="M621 600h397l-74 473zM1208 1307l193 -1086q10 -78 10 -82q0 -64 -45 -106q-45 -45 -117 -45q-135 0 -153 125l-33 209h-635l-164 -236q-70 -98 -160 -98q-129 0 -129 123q0 55 37 104l797 1118q85 123 221 123h6q145 0 172 -149zM1329 1823l78 -152q27 -46 27 -65
q0 -50 -70 -50q-118 0 -180 68l-74 80l-117 -80q-100 -68 -194 -68q-66 0 -66 48q0 30 35 65l168 162q70 70 160 70h90q102 0 143 -78zM1479 1982q-25 -14 -52 -14q-30 0 -53 23q-20 20 -20 51q0 42 37 69q70 52 161 52q87 0 140 -47t53 -115q0 -154 -193 -184l-2 -2
q-21 -56 -73 -56h-7q-70 0 -61 72l6 55q9 53 74 62q78 12 78 39q0 14 -29 14q-23 0 -59 -19z" />
    <glyph glyph-name="uni1EA9" unicode="&#x1ea9;" horiz-adv-x="1204" 
d="M795 -12q-142 0 -133 139q-138 -147 -328 -147q-143 0 -232 83q-88 82 -88 211q0 185 138 293q130 103 335 103q156 0 310 -49l4 14q12 50 12 82q0 129 -207 129q-95 0 -190 -25q-33 -8 -51 -8q-54 0 -89 35q-34 37 -34 90q0 94 94 121q154 51 336 51q444 0 444 -338
q0 -72 -24 -166l-123 -461q-41 -157 -174 -157zM467 193q94 0 174 65q75 63 102 156l9 28q-98 39 -205 39q-100 0 -160 -45q-63 -48 -63 -127q0 -52 38 -84t105 -32zM1026 1473l78 -152q26 -45 26 -66q0 -49 -69 -49q-118 0 -180 68l-74 80l-117 -80q-100 -68 -194 -68
q-66 0 -66 47q0 31 35 66l168 162q69 69 160 69h90q102 0 143 -77zM1149 1647q-27 -15 -51 -15q-31 0 -54 23q-20 20 -20 51q0 43 37 70q68 51 162 51q86 0 139 -47t53 -115q0 -154 -192 -184l-2 -2q-21 -56 -74 -56h-6q-71 0 -62 72l6 55q9 53 74 62q78 12 78 39
q0 14 -29 14q-24 0 -59 -18z" />
    <glyph glyph-name="uni1EAA" unicode="&#x1eaa;" horiz-adv-x="1566" 
d="M621 600h397l-74 473zM1208 1307l193 -1086q10 -78 10 -82q0 -64 -45 -106q-45 -45 -117 -45q-135 0 -153 125l-33 209h-635l-164 -236q-70 -98 -160 -98q-129 0 -129 123q0 55 37 104l797 1118q85 123 221 123h6q145 0 172 -149zM1329 1821l78 -152q27 -47 27 -65
q0 -50 -70 -50q-118 0 -180 68l-74 80l-117 -80q-100 -68 -194 -68q-66 0 -66 48q0 30 35 65l168 162q69 69 160 69h90q102 0 143 -77zM885 1929q-86 0 -86 82q0 31 16 60q113 204 279 204q81 0 161 -59q74 -53 109 -53q58 0 111 65q41 47 92 47q86 0 86 -82q0 -28 -17 -59
q-114 -205 -278 -205q-77 0 -162 60q-74 53 -109 53q-56 0 -110 -66q-41 -47 -92 -47z" />
    <glyph glyph-name="uni1EAB" unicode="&#x1eab;" horiz-adv-x="1204" 
d="M795 -12q-142 0 -133 139q-138 -147 -328 -147q-143 0 -232 83q-88 82 -88 211q0 185 138 293q130 103 335 103q156 0 310 -49l4 14q12 50 12 82q0 129 -207 129q-95 0 -190 -25q-33 -8 -51 -8q-54 0 -89 35q-34 37 -34 90q0 94 94 121q154 51 336 51q444 0 444 -338
q0 -72 -24 -166l-123 -461q-41 -157 -174 -157zM467 193q94 0 174 65q75 63 102 156l9 28q-98 39 -205 39q-100 0 -160 -45q-63 -48 -63 -127q0 -52 38 -84t105 -32zM1026 1473l78 -152q26 -45 26 -66q0 -49 -69 -49q-118 0 -180 68l-74 80l-117 -80q-100 -68 -194 -68
q-66 0 -66 47q0 31 35 66l168 162q69 69 160 69h90q102 0 143 -77zM592 1556q-86 0 -86 82q0 31 16 60q114 205 279 205q80 0 162 -60q74 -53 108 -53q58 0 111 65q42 48 92 48q86 0 86 -82q0 -29 -17 -60q-114 -205 -278 -205q-77 0 -162 60q-74 53 -108 53q-58 0 -111 -65
q-42 -48 -92 -48z" />
    <glyph glyph-name="uni1EAC" unicode="&#x1eac;" horiz-adv-x="1566" 
d="M621 600h397l-74 473zM1208 1307l193 -1086q10 -78 10 -82q0 -64 -45 -106q-45 -45 -117 -45q-135 0 -153 125l-33 209h-635l-164 -236q-70 -98 -160 -98q-129 0 -129 123q0 55 37 104l797 1118q85 123 221 123h6q145 0 172 -149zM1364 1808l78 -151q26 -45 26 -66
q0 -49 -69 -49q-118 0 -180 68l-74 80l-117 -80q-100 -68 -194 -68q-66 0 -66 47q0 31 35 66l168 162q69 69 159 69h91q102 0 143 -78zM760 -268l-2 -13q-12 -73 -68 -120q-56 -50 -133 -50q-79 0 -123 50q-43 46 -31 120l3 13q30 170 200 170q80 0 123 -49q43 -46 31 -121z
" />
    <glyph glyph-name="uni1EAD" unicode="&#x1ead;" horiz-adv-x="1204" 
d="M795 -12q-142 0 -133 139q-138 -147 -328 -147q-143 0 -232 83q-88 82 -88 211q0 185 138 293q130 103 335 103q156 0 310 -49l4 14q12 50 12 82q0 129 -207 129q-95 0 -190 -25q-33 -8 -51 -8q-54 0 -89 35q-34 37 -34 90q0 94 94 121q154 51 336 51q444 0 444 -338
q0 -72 -24 -166l-123 -461q-41 -157 -174 -157zM467 193q94 0 174 65q75 63 102 156l9 28q-98 39 -205 39q-100 0 -160 -45q-63 -48 -63 -127q0 -52 38 -84t105 -32zM1042 1473l78 -152q27 -47 27 -66q0 -49 -70 -49q-118 0 -180 68l-74 80l-116 -80q-100 -68 -195 -68
q-66 0 -66 47q0 31 35 66l168 162q69 69 160 69h90q102 0 143 -77zM528 -268l-2 -13q-12 -74 -67 -120q-56 -50 -133 -50q-79 0 -123 50q-43 46 -31 120l2 13q30 170 201 170q80 0 123 -49q42 -45 30 -121z" />
    <glyph glyph-name="uni1EAE" unicode="&#x1eae;" horiz-adv-x="1566" 
d="M621 600h397l-74 473zM1208 1307l193 -1086q10 -78 10 -82q0 -64 -45 -106q-45 -45 -117 -45q-135 0 -153 125l-33 209h-635l-164 -236q-70 -98 -160 -98q-129 0 -129 123q0 55 37 104l797 1118q85 123 221 123h6q145 0 172 -149zM1104 1556q-144 0 -244 80
q-88 73 -88 164q0 40 31 68q29 26 76 26q71 0 98 -53q46 -82 149 -82q85 0 158 82q50 53 107 53q92 0 92 -88q0 -36 -29 -73q-145 -177 -350 -177zM1434 2124l-160 -119q-89 -68 -182 -68q-86 0 -86 58q0 31 26 57l156 172q65 68 117 68q57 0 114 -31q60 -31 60 -70
q0 -34 -45 -67z" />
    <glyph glyph-name="uni1EAF" unicode="&#x1eaf;" horiz-adv-x="1204" 
d="M795 -12q-142 0 -133 139q-138 -147 -328 -147q-143 0 -232 83q-88 82 -88 211q0 185 138 293q130 103 335 103q156 0 310 -49l4 14q12 50 12 82q0 129 -207 129q-95 0 -190 -25q-33 -8 -51 -8q-54 0 -89 35q-34 37 -34 90q0 94 94 121q154 51 336 51q444 0 444 -338
q0 -72 -24 -166l-123 -461q-41 -157 -174 -157zM467 193q94 0 174 65q75 63 102 156l9 28q-98 39 -205 39q-100 0 -160 -45q-63 -48 -63 -127q0 -52 38 -84t105 -32zM805 1217q-146 0 -244 79q-88 73 -88 164q0 40 31 68q29 26 76 26q71 0 98 -53q46 -82 149 -82
q85 0 158 82q50 53 107 53q92 0 92 -88q0 -36 -29 -73q-144 -176 -350 -176zM1133 1743l-160 -119q-89 -68 -182 -68q-86 0 -86 58q0 31 26 57l156 172q65 68 117 68q57 0 114 -31q60 -31 60 -70q0 -34 -45 -67z" />
    <glyph glyph-name="uni1EB0" unicode="&#x1eb0;" horiz-adv-x="1566" 
d="M621 600h397l-74 473zM1208 1307l193 -1086q10 -78 10 -82q0 -64 -45 -106q-45 -45 -117 -45q-135 0 -153 125l-33 209h-635l-164 -236q-70 -98 -160 -98q-129 0 -129 123q0 55 37 104l797 1118q85 123 221 123h6q145 0 172 -149zM1104 1556q-144 0 -244 80
q-88 73 -88 164q0 40 31 68q29 26 76 26q71 0 98 -53q46 -82 149 -82q85 0 158 82q50 53 107 53q92 0 92 -88q0 -36 -29 -73q-145 -177 -350 -177zM985 1946l-94 118q-29 44 -29 66q0 36 58 70q51 32 114 32q83 0 109 -75l61 -168q8 -21 8 -43q0 -68 -98 -68q-76 0 -129 68z
" />
    <glyph glyph-name="uni1EB1" unicode="&#x1eb1;" horiz-adv-x="1204" 
d="M795 -12q-142 0 -133 139q-138 -147 -328 -147q-143 0 -232 83q-88 82 -88 211q0 185 138 293q130 103 335 103q156 0 310 -49l4 14q12 50 12 82q0 129 -207 129q-95 0 -190 -25q-33 -8 -51 -8q-54 0 -89 35q-34 37 -34 90q0 94 94 121q154 51 336 51q444 0 444 -338
q0 -72 -24 -166l-123 -461q-41 -157 -174 -157zM467 193q94 0 174 65q75 63 102 156l9 28q-98 39 -205 39q-100 0 -160 -45q-63 -48 -63 -127q0 -52 38 -84t105 -32zM805 1217q-146 0 -244 79q-88 73 -88 164q0 40 31 68q29 26 76 26q71 0 98 -53q46 -82 149 -82
q85 0 158 82q50 53 107 53q92 0 92 -88q0 -36 -29 -73q-144 -176 -350 -176zM705 1624l-95 119q-28 42 -28 65q0 36 57 70q53 33 115 33q81 0 108 -76l62 -168q8 -21 8 -43q0 -68 -98 -68q-76 0 -129 68z" />
    <glyph glyph-name="uni1EB2" unicode="&#x1eb2;" horiz-adv-x="1566" 
d="M621 600h397l-74 473zM1208 1307l193 -1086q10 -78 10 -82q0 -64 -45 -106q-45 -45 -117 -45q-135 0 -153 125l-33 209h-635l-164 -236q-70 -98 -160 -98q-129 0 -129 123q0 55 37 104l797 1118q85 123 221 123h6q145 0 172 -149zM1104 1559q-146 0 -244 79
q-88 73 -88 164q0 40 31 68q29 26 76 26q71 0 98 -53q46 -82 149 -82q85 0 158 82q50 53 107 53q92 0 92 -88q0 -36 -29 -73q-144 -176 -350 -176zM1122 2071q-29 -13 -51 -13q-31 0 -53 19q-21 15 -21 37q0 32 37 53q73 39 162 39q87 0 139 -37q54 -35 54 -86
q0 -116 -193 -137l-2 -2q-21 -41 -74 -41h-6q-35 0 -50.5 13.5t-10.5 39.5l6 41q9 41 74 47q77 9 77 29q0 10 -28 10q-26 0 -60 -12z" />
    <glyph glyph-name="uni1EB3" unicode="&#x1eb3;" horiz-adv-x="1204" 
d="M795 -12q-142 0 -133 139q-138 -147 -328 -147q-143 0 -232 83q-88 82 -88 211q0 185 138 293q130 103 335 103q156 0 310 -49l4 14q12 50 12 82q0 129 -207 129q-95 0 -190 -25q-33 -8 -51 -8q-54 0 -89 35q-34 37 -34 90q0 94 94 121q154 51 336 51q444 0 444 -338
q0 -72 -24 -166l-123 -461q-41 -157 -174 -157zM467 193q94 0 174 65q75 63 102 156l9 28q-98 39 -205 39q-100 0 -160 -45q-63 -48 -63 -127q0 -52 38 -84t105 -32zM805 1219q-146 0 -244 79q-88 73 -88 164q0 40 31 68q29 26 76 26q71 0 98 -53q46 -82 149 -82
q85 0 158 82q50 53 107 53q92 0 92 -88q0 -36 -29 -73q-144 -176 -350 -176zM807 1780q-27 -15 -51 -15q-31 0 -54 23q-20 20 -20 51q0 43 37 70q68 51 162 51q86 0 139 -47t53 -115q0 -154 -192 -184l-2 -2q-21 -56 -74 -56h-6q-71 0 -62 72l6 55q9 53 74 62q78 12 78 39
q0 14 -29 14q-24 0 -59 -18z" />
    <glyph glyph-name="uni1EB4" unicode="&#x1eb4;" horiz-adv-x="1566" 
d="M621 600h397l-74 473zM1208 1307l193 -1086q10 -78 10 -82q0 -64 -45 -106q-45 -45 -117 -45q-135 0 -153 125l-33 209h-635l-164 -236q-70 -98 -160 -98q-129 0 -129 123q0 55 37 104l797 1118q85 123 221 123h6q145 0 172 -149zM1085 1556q-143 0 -243 80
q-88 73 -88 164q0 41 30 68q29 26 76 26q71 0 98 -53q46 -82 150 -82q85 0 158 82q50 53 106 53q92 0 92 -88q0 -37 -28 -73q-145 -177 -351 -177zM817 1913q-86 0 -86 82q0 28 17 59q114 205 278 205q82 0 162 -59q76 -54 108 -54q57 0 111 66q41 47 92 47q86 0 86 -82
q0 -30 -16 -59q-114 -205 -279 -205q-79 0 -162 59q-74 53 -108 53q-58 0 -111 -65q-41 -47 -92 -47z" />
    <glyph glyph-name="uni1EB5" unicode="&#x1eb5;" horiz-adv-x="1204" 
d="M795 -12q-142 0 -133 139q-138 -147 -328 -147q-143 0 -232 83q-88 82 -88 211q0 185 138 293q130 103 335 103q156 0 310 -49l4 14q12 50 12 82q0 129 -207 129q-95 0 -190 -25q-33 -8 -51 -8q-54 0 -89 35q-34 37 -34 90q0 94 94 121q154 51 336 51q444 0 444 -338
q0 -72 -24 -166l-123 -461q-41 -157 -174 -157zM467 193q94 0 174 65q75 63 102 156l9 28q-98 39 -205 39q-100 0 -160 -45q-63 -48 -63 -127q0 -52 38 -84t105 -32zM805 1217q-146 0 -244 79q-88 73 -88 164q0 40 31 68q29 26 76 26q71 0 98 -53q46 -82 149 -82
q85 0 158 82q50 53 107 53q92 0 92 -88q0 -36 -29 -73q-144 -176 -350 -176zM524 1597q-86 0 -86 82q0 29 17 60q114 205 278 205q80 0 162 -60q74 -53 109 -53q57 0 110 65q42 48 92 48q86 0 86 -82q0 -31 -16 -60q-114 -205 -279 -205q-76 0 -161 60q-74 53 -109 53
q-58 0 -111 -65q-42 -48 -92 -48z" />
    <glyph glyph-name="uni1EB6" unicode="&#x1eb6;" horiz-adv-x="1566" 
d="M621 600h397l-74 473zM1208 1307l193 -1086q10 -78 10 -82q0 -64 -45 -106q-45 -45 -117 -45q-135 0 -153 125l-33 209h-635l-164 -236q-70 -98 -160 -98q-129 0 -129 123q0 55 37 104l797 1118q85 123 221 123h6q145 0 172 -149zM1098 1550q-144 0 -244 80
q-88 73 -88 164q0 40 31 68q29 26 75 26q72 0 99 -53q46 -82 149 -82q85 0 158 82q50 53 106 53q93 0 93 -88q0 -37 -29 -74q-144 -176 -350 -176zM760 -268l-2 -13q-12 -73 -68 -120q-56 -50 -133 -50q-79 0 -123 50q-43 46 -31 120l3 13q30 170 200 170q80 0 123 -49
q43 -46 31 -121z" />
    <glyph glyph-name="uni1EB7" unicode="&#x1eb7;" horiz-adv-x="1204" 
d="M795 -12q-142 0 -133 139q-138 -147 -328 -147q-143 0 -232 83q-88 82 -88 211q0 185 138 293q130 103 335 103q156 0 310 -49l4 14q12 50 12 82q0 129 -207 129q-95 0 -190 -25q-33 -8 -51 -8q-54 0 -89 35q-34 37 -34 90q0 94 94 121q154 51 336 51q444 0 444 -338
q0 -72 -24 -166l-123 -461q-41 -157 -174 -157zM467 193q94 0 174 65q75 63 102 156l9 28q-98 39 -205 39q-100 0 -160 -45q-63 -48 -63 -127q0 -52 38 -84t105 -32zM805 1217q-146 0 -244 79q-88 73 -88 164q0 40 31 68q29 26 76 26q71 0 98 -53q46 -82 149 -82
q85 0 158 82q50 53 107 53q92 0 92 -88q0 -36 -29 -73q-144 -176 -350 -176zM528 -268l-2 -13q-12 -74 -67 -120q-56 -50 -133 -50q-79 0 -123 50q-43 46 -31 120l2 13q30 170 201 170q80 0 123 -49q42 -45 30 -121z" />
    <glyph glyph-name="uni1EB8" unicode="&#x1eb8;" horiz-adv-x="1361" 
d="M1014 0h-807q-80 0 -115 53q-36 57 -12 152l287 1071q41 158 176 158h770q59 0 100 -41t41 -101q0 -57 -41 -98t-100 -41h-666l-78 -293h498q59 0 100 -41t41 -98t-41 -98q-39 -39 -100 -39h-573l-82 -303h602q59 0 100 -41t41 -101q0 -57 -41 -98t-100 -41zM674 -268
l-2 -13q-12 -73 -68 -120q-56 -50 -133 -50q-79 0 -123 50q-43 46 -31 120l2 13q30 170 201 170q80 0 123 -49q43 -46 31 -121z" />
    <glyph glyph-name="uni1EB9" unicode="&#x1eb9;" horiz-adv-x="1243" 
d="M627 225q94 0 170 43q56 29 94 29q51 0 84 -33t33 -86q0 -62 -60 -104q-150 -99 -356 -99q-239 0 -373 131q-135 129 -135 357q0 253 178 446q191 209 473 209q209 0 332 -123q117 -117 117 -305q0 -52 -13 -112q-30 -138 -149 -138h-645q15 -215 250 -215zM403 635h478
q10 38 10 72q0 161 -180 161q-223 0 -308 -233zM578 -268l-3 -13q-12 -74 -67 -120q-56 -50 -133 -50q-79 0 -123 50q-43 46 -31 120l2 13q30 170 201 170q80 0 123 -49q43 -46 31 -121z" />
    <glyph glyph-name="uni1EBA" unicode="&#x1eba;" horiz-adv-x="1361" 
d="M1014 0h-807q-80 0 -115 53q-36 57 -12 152l287 1071q41 158 176 158h770q59 0 100 -41t41 -101q0 -57 -41 -98t-100 -41h-666l-78 -293h498q59 0 100 -41t41 -98t-41 -98q-39 -39 -100 -39h-573l-82 -303h602q59 0 100 -41t41 -101q0 -57 -41 -98t-100 -41zM963 1755
q-25 -14 -52 -14q-31 0 -53 22q-20 20 -20 52q0 43 36 69q68 51 162 51q87 0 140 -47t53 -114q0 -155 -193 -185l-2 -2q-21 -55 -73 -55h-7q-70 0 -61 72l6 55q9 52 74 61q78 12 78 39q0 15 -29 15q-23 0 -59 -19z" />
    <glyph glyph-name="uni1EBB" unicode="&#x1ebb;" horiz-adv-x="1243" 
d="M627 225q94 0 170 43q56 29 94 29q51 0 84 -33t33 -86q0 -62 -60 -104q-150 -99 -356 -99q-239 0 -373 131q-135 129 -135 357q0 253 178 446q191 209 473 209q209 0 332 -123q117 -117 117 -305q0 -52 -13 -112q-30 -138 -149 -138h-645q15 -215 250 -215zM403 635h478
q10 38 10 72q0 161 -180 161q-223 0 -308 -233zM778 1419q-25 -14 -51 -14q-31 0 -53 22q-21 21 -21 52q0 42 37 69q68 51 162 51q86 0 139 -47t53 -114q0 -155 -192 -185l-2 -2q-21 -55 -74 -55h-6q-70 0 -61 72l6 55q9 52 73 61q78 12 78 39q0 15 -28 15q-24 0 -60 -19z
" />
    <glyph glyph-name="uni1EBC" unicode="&#x1ebc;" horiz-adv-x="1361" 
d="M1014 0h-807q-80 0 -115 53q-36 57 -12 152l287 1071q41 158 176 158h770q59 0 100 -41t41 -101q0 -57 -41 -98t-100 -41h-666l-78 -293h498q59 0 100 -41t41 -98t-41 -98q-39 -39 -100 -39h-573l-82 -303h602q59 0 100 -41t41 -101q0 -57 -41 -98t-100 -41zM694 1548
q-86 0 -86 82q0 29 17 60q113 204 278 204q82 0 162 -59q74 -53 109 -53q57 0 110 65q41 47 92 47q86 0 86 -82q0 -30 -16 -59q-114 -205 -279 -205q-76 0 -161 60q-74 53 -109 53q-57 0 -111 -66q-41 -47 -92 -47z" />
    <glyph glyph-name="uni1EBD" unicode="&#x1ebd;" horiz-adv-x="1243" 
d="M627 225q94 0 170 43q56 29 94 29q51 0 84 -33t33 -86q0 -62 -60 -104q-150 -99 -356 -99q-239 0 -373 131q-135 129 -135 357q0 253 178 446q191 209 473 209q209 0 332 -123q117 -117 117 -305q0 -52 -13 -112q-30 -138 -149 -138h-645q15 -215 250 -215zM403 635h478
q10 38 10 72q0 161 -180 161q-223 0 -308 -233zM506 1212q-86 0 -86 82q0 31 16 60q114 205 279 205q80 0 162 -60q74 -53 108 -53q58 0 111 65q42 48 92 48q86 0 86 -82q0 -29 -17 -60q-114 -205 -278 -205q-77 0 -162 60q-74 53 -108 53q-58 0 -111 -65q-42 -48 -92 -48z
" />
    <glyph glyph-name="uni1EBE" unicode="&#x1ebe;" horiz-adv-x="1361" 
d="M1014 0h-807q-80 0 -115 53q-36 57 -12 152l287 1071q41 158 176 158h770q59 0 100 -41t41 -101q0 -57 -41 -98t-100 -41h-666l-78 -293h498q59 0 100 -41t41 -98t-41 -98q-39 -39 -100 -39h-573l-82 -303h602q59 0 100 -41t41 -101q0 -57 -41 -98t-100 -41zM1229 1798
l78 -151q26 -45 26 -66q0 -49 -69 -49q-120 0 -181 67l-73 80l-117 -80q-98 -67 -195 -67q-65 0 -65 47q0 31 35 66l168 161q70 70 159 70h90q103 0 144 -78zM1735 1937l-160 -118q-89 -68 -182 -68q-86 0 -86 57q0 32 26 58l156 172q64 67 117 67q58 0 114 -30
q60 -31 60 -70q0 -35 -45 -68z" />
    <glyph glyph-name="uni1EBF" unicode="&#x1ebf;" horiz-adv-x="1243" 
d="M627 225q94 0 170 43q56 29 94 29q51 0 84 -33t33 -86q0 -62 -60 -104q-150 -99 -356 -99q-239 0 -373 131q-135 129 -135 357q0 253 178 446q191 209 473 209q209 0 332 -123q117 -117 117 -305q0 -52 -13 -112q-30 -138 -149 -138h-645q15 -215 250 -215zM403 635h478
q10 38 10 72q0 161 -180 161q-223 0 -308 -233zM1053 1468l77 -151q27 -47 27 -66q0 -49 -70 -49q-118 0 -180 68l-73 80l-117 -80q-100 -68 -195 -68q-65 0 -65 47q0 31 35 66l167 162q69 69 160 69h90q103 0 144 -78zM1548 1640l-159 -118q-89 -68 -183 -68q-86 0 -86 57
q0 31 27 58l156 172q64 67 116 67q59 0 115 -30q59 -30 59 -70q0 -35 -45 -68z" />
    <glyph glyph-name="uni1EC0" unicode="&#x1ec0;" horiz-adv-x="1361" 
d="M1014 0h-807q-80 0 -115 53q-36 57 -12 152l287 1071q41 158 176 158h770q59 0 100 -41t41 -101q0 -57 -41 -98t-100 -41h-666l-78 -293h498q59 0 100 -41t41 -98t-41 -98q-39 -39 -100 -39h-573l-82 -303h602q59 0 100 -41t41 -101q0 -57 -41 -98t-100 -41zM1229 1798
l78 -151q26 -45 26 -66q0 -49 -69 -49q-120 0 -181 67l-73 80l-117 -80q-98 -67 -195 -67q-65 0 -65 47q0 31 35 66l168 161q70 70 159 70h90q103 0 144 -78zM532 1825l-94 119q-28 42 -28 65q0 36 57 70q51 32 115 32q82 0 108 -75l62 -168q8 -21 8 -43q0 -68 -98 -68
q-77 0 -130 68z" />
    <glyph glyph-name="uni1EC1" unicode="&#x1ec1;" horiz-adv-x="1243" 
d="M627 225q94 0 170 43q56 29 94 29q51 0 84 -33t33 -86q0 -62 -60 -104q-150 -99 -356 -99q-239 0 -373 131q-135 129 -135 357q0 253 178 446q191 209 473 209q209 0 332 -123q117 -117 117 -305q0 -52 -13 -112q-30 -138 -149 -138h-645q15 -215 250 -215zM403 635h478
q10 38 10 72q0 161 -180 161q-223 0 -308 -233zM1053 1468l77 -151q27 -47 27 -66q0 -49 -70 -49q-118 0 -180 68l-73 80l-117 -80q-100 -68 -195 -68q-65 0 -65 47q0 31 35 66l167 162q69 69 160 69h90q103 0 144 -78zM408 1565l-95 118q-28 42 -28 66q0 36 57 70
q51 32 115 32q82 0 108 -75l62 -168q8 -21 8 -43q0 -68 -98 -68q-76 0 -129 68z" />
    <glyph glyph-name="uni1EC2" unicode="&#x1ec2;" horiz-adv-x="1361" 
d="M1014 0h-807q-80 0 -115 53q-36 57 -12 152l287 1071q41 158 176 158h770q59 0 100 -41t41 -101q0 -57 -41 -98t-100 -41h-666l-78 -293h498q59 0 100 -41t41 -98t-41 -98q-39 -39 -100 -39h-573l-82 -303h602q59 0 100 -41t41 -101q0 -57 -41 -98t-100 -41zM1231 1796
l78 -151q26 -45 26 -66q0 -49 -69 -49q-120 0 -181 67l-73 80l-117 -80q-98 -67 -195 -67q-65 0 -65 47q0 30 35 65l168 162q70 70 159 70h90q103 0 144 -78zM1380 1956q-25 -14 -51 -14q-31 0 -53 22q-21 21 -21 51q0 43 37 70q68 51 162 51q86 0 139 -47q54 -48 54 -115
q0 -154 -193 -184l-2 -2q-21 -55 -74 -55h-6q-70 0 -61 71l6 56q9 52 74 61q77 12 77 39q0 14 -28 14q-26 0 -60 -18z" />
    <glyph glyph-name="uni1EC3" unicode="&#x1ec3;" horiz-adv-x="1243" 
d="M627 225q94 0 170 43q56 29 94 29q51 0 84 -33t33 -86q0 -62 -60 -104q-150 -99 -356 -99q-239 0 -373 131q-135 129 -135 357q0 253 178 446q191 209 473 209q209 0 332 -123q117 -117 117 -305q0 -52 -13 -112q-30 -138 -149 -138h-645q15 -215 250 -215zM403 635h478
q10 38 10 72q0 161 -180 161q-223 0 -308 -233zM1053 1468l77 -151q27 -47 27 -66q0 -49 -70 -49q-118 0 -180 68l-73 80l-117 -80q-100 -68 -195 -68q-65 0 -65 47q0 31 35 66l167 162q69 69 160 69h90q103 0 144 -78zM1163 1686q-27 -15 -51 -15q-30 0 -53 23
q-21 21 -21 51q0 43 37 70q68 51 162 51q86 0 139 -47q54 -48 54 -115q0 -154 -193 -184l-2 -2q-21 -56 -74 -56h-6q-70 0 -61 72l6 55q9 53 74 62q77 12 77 39q0 14 -28 14q-25 0 -60 -18z" />
    <glyph glyph-name="uni1EC4" unicode="&#x1ec4;" horiz-adv-x="1361" 
d="M1014 0h-807q-80 0 -115 53q-36 57 -12 152l287 1071q41 158 176 158h770q59 0 100 -41t41 -101q0 -57 -41 -98t-100 -41h-666l-78 -293h498q59 0 100 -41t41 -98t-41 -98q-39 -39 -100 -39h-573l-82 -303h602q59 0 100 -41t41 -101q0 -57 -41 -98t-100 -41zM1231 1798
l78 -151q26 -45 26 -66q0 -49 -69 -49q-120 0 -181 67l-73 80l-117 -80q-98 -67 -195 -67q-65 0 -65 47q0 31 35 66l168 161q70 70 159 70h90q103 0 144 -78zM786 1907q-86 0 -86 82q0 28 17 59q114 205 278 205q80 0 162 -60q74 -53 109 -53q56 0 110 66q41 47 92 47
q86 0 86 -82q0 -31 -16 -60q-113 -204 -278 -204q-79 0 -162 59q-74 53 -109 53q-57 0 -110 -65q-41 -47 -93 -47z" />
    <glyph glyph-name="uni1EC5" unicode="&#x1ec5;" horiz-adv-x="1243" 
d="M627 225q94 0 170 43q56 29 94 29q51 0 84 -33t33 -86q0 -62 -60 -104q-150 -99 -356 -99q-239 0 -373 131q-135 129 -135 357q0 253 178 446q191 209 473 209q209 0 332 -123q117 -117 117 -305q0 -52 -13 -112q-30 -138 -149 -138h-645q15 -215 250 -215zM403 635h478
q10 38 10 72q0 161 -180 161q-223 0 -308 -233zM1053 1468l77 -151q27 -47 27 -66q0 -49 -70 -49q-118 0 -180 68l-73 80l-117 -80q-100 -68 -195 -68q-65 0 -65 47q0 31 35 66l167 162q69 69 160 69h90q103 0 144 -78zM625 1532q-86 0 -86 82q0 30 16 59q114 205 279 205
q81 0 161 -59q76 -54 109 -54q56 0 110 66q41 47 93 47q86 0 86 -82q0 -28 -17 -59q-114 -205 -278 -205q-79 0 -162 59q-76 54 -109 54q-56 0 -110 -66q-41 -47 -92 -47z" />
    <glyph glyph-name="uni1EC6" unicode="&#x1ec6;" horiz-adv-x="1361" 
d="M1014 0h-807q-80 0 -115 53q-36 57 -12 152l287 1071q41 158 176 158h770q59 0 100 -41t41 -101q0 -57 -41 -98t-100 -41h-666l-78 -293h498q59 0 100 -41t41 -98t-41 -98q-39 -39 -100 -39h-573l-82 -303h602q59 0 100 -41t41 -101q0 -57 -41 -98t-100 -41zM1231 1798
l78 -151q26 -45 26 -66q0 -49 -69 -49q-120 0 -181 67l-73 80l-117 -80q-98 -67 -195 -67q-65 0 -65 47q0 31 35 66l168 161q70 70 159 70h90q103 0 144 -78zM674 -268l-2 -13q-12 -73 -68 -120q-56 -50 -133 -50q-79 0 -123 50q-43 46 -31 120l2 13q30 170 201 170
q80 0 123 -49q43 -46 31 -121z" />
    <glyph glyph-name="uni1EC7" unicode="&#x1ec7;" horiz-adv-x="1243" 
d="M627 225q94 0 170 43q56 29 94 29q51 0 84 -33t33 -86q0 -62 -60 -104q-150 -99 -356 -99q-239 0 -373 131q-135 129 -135 357q0 253 178 446q191 209 473 209q209 0 332 -123q117 -117 117 -305q0 -52 -13 -112q-30 -138 -149 -138h-645q15 -215 250 -215zM403 635h478
q10 38 10 72q0 161 -180 161q-223 0 -308 -233zM1053 1468l77 -151q27 -47 27 -66q0 -49 -70 -49q-118 0 -180 68l-73 80l-117 -80q-100 -68 -195 -68q-65 0 -65 47q0 31 35 66l167 162q69 69 160 69h90q103 0 144 -78zM629 -268l-2 -13q-12 -73 -68 -120q-56 -50 -133 -50
q-79 0 -123 50q-43 46 -31 120l2 13q30 170 201 170q80 0 123 -49q43 -46 31 -121z" />
    <glyph glyph-name="uni1EC8" unicode="&#x1ec8;" horiz-adv-x="688" 
d="M688 1241l-295 -1096q-41 -157 -176 -157q-80 0 -115 53q-36 57 -12 152l295 1095q41 158 176 158q79 0 117 -53q34 -58 10 -152zM586 1755q-25 -14 -51 -14q-32 0 -54 22q-20 20 -20 52q0 42 37 69q68 51 161 51q87 0 140 -47t53 -114q0 -155 -193 -185l-2 -2
q-21 -55 -73 -55h-6q-71 0 -62 72l6 55q9 52 74 61q78 12 78 39q0 15 -29 15q-23 0 -59 -19z" />
    <glyph glyph-name="uni1EC9" unicode="&#x1ec9;" horiz-adv-x="618" 
d="M565 905l-205 -760q-41 -157 -174 -157q-79 0 -114 53q-38 59 -11 152l205 759q41 158 174 158q80 0 115 -53q37 -58 10 -152zM463 1419q-25 -14 -51 -14q-32 0 -54 22q-20 20 -20 52q0 42 37 69q68 51 162 51q86 0 139 -47t53 -114q0 -155 -192 -185l-2 -2
q-21 -55 -74 -55h-6q-71 0 -62 72l6 55q9 52 74 61q78 12 78 39q0 15 -29 15q-23 0 -59 -19z" />
    <glyph glyph-name="uni1ECA" unicode="&#x1eca;" horiz-adv-x="688" 
d="M688 1241l-295 -1096q-41 -157 -176 -157q-80 0 -115 53q-36 57 -12 152l295 1095q41 158 176 158q79 0 117 -53q34 -58 10 -152zM297 -268l-2 -13q-12 -73 -68 -120q-56 -50 -133 -50q-79 0 -123 50q-42 45 -30 120l2 13q30 170 200 170q80 0 123 -49q43 -46 31 -121z
" />
    <glyph glyph-name="uni1ECB" unicode="&#x1ecb;" horiz-adv-x="618" 
d="M707 1362l-2 -10q-30 -144 -201 -144q-73 0 -117 41q-45 40 -33 103l2 10q30 143 201 143q72 0 119 -41q43 -40 31 -102zM565 905l-205 -760q-41 -157 -174 -157q-79 0 -114 53q-38 59 -11 152l205 759q41 158 174 158q80 0 115 -53q37 -58 10 -152zM262 -268l-2 -13
q-12 -74 -67 -120q-56 -50 -134 -50t-122 50q-43 46 -31 120l2 13q30 170 201 170q79 0 122 -49q43 -46 31 -121z" />
    <glyph glyph-name="uni1ECC" unicode="&#x1ecc;" horiz-adv-x="1703" 
d="M793 -25q-293 0 -476 183q-180 177 -180 452q0 334 238 584q252 264 624 264q294 0 476 -182q180 -177 180 -453q0 -333 -238 -583q-253 -265 -624 -265zM829 266q216 0 363 176q135 164 135 361q0 164 -94 262q-99 102 -270 102q-216 0 -363 -176q-135 -163 -135 -360
q0 -164 94 -262q100 -103 270 -103zM850 -268l-2 -13q-12 -73 -68 -120q-56 -50 -133 -50q-79 0 -123 50q-42 45 -30 120l2 13q30 170 200 170q80 0 123 -49q43 -46 31 -121z" />
    <glyph glyph-name="uni1ECD" unicode="&#x1ecd;" horiz-adv-x="1335" 
d="M614 -25q-240 0 -387 144q-141 141 -141 364q0 252 186 441q188 194 449 194q241 0 387 -143q141 -141 141 -365q0 -250 -184 -440q-192 -195 -451 -195zM629 242q135 0 229 123q86 112 86 237q0 119 -65 184q-66 66 -172 66q-135 0 -230 -121q-86 -115 -86 -239
q0 -119 66 -185q65 -65 172 -65zM698 -268l-2 -13q-12 -74 -67 -120q-56 -50 -133 -50q-79 0 -123 50q-43 46 -31 120l2 13q30 170 201 170q80 0 123 -49q42 -45 30 -121z" />
    <glyph glyph-name="uni1ECE" unicode="&#x1ece;" horiz-adv-x="1703" 
d="M793 -25q-293 0 -476 183q-180 177 -180 452q0 334 238 584q252 264 624 264q294 0 476 -182q180 -177 180 -453q0 -333 -238 -583q-253 -265 -624 -265zM829 266q216 0 363 176q135 164 135 361q0 164 -94 262q-99 102 -270 102q-216 0 -363 -176q-135 -163 -135 -360
q0 -164 94 -262q100 -103 270 -103zM1094 1755q-25 -14 -52 -14q-31 0 -53 22q-20 20 -20 52q0 42 37 69q68 51 161 51q87 0 140 -47t53 -114q0 -155 -193 -185l-2 -2q-21 -55 -73 -55h-7q-70 0 -61 72l6 55q9 52 74 61q78 12 78 39q0 15 -29 15q-23 0 -59 -19z" />
    <glyph glyph-name="uni1ECF" unicode="&#x1ecf;" horiz-adv-x="1335" 
d="M614 -25q-240 0 -387 144q-141 141 -141 364q0 252 186 441q188 194 449 194q241 0 387 -143q141 -141 141 -365q0 -250 -184 -440q-192 -195 -451 -195zM629 242q135 0 229 123q86 112 86 237q0 119 -65 184q-66 66 -172 66q-135 0 -230 -121q-86 -115 -86 -239
q0 -119 66 -185q65 -65 172 -65zM821 1419q-25 -14 -51 -14q-31 0 -53 22q-21 21 -21 52q0 42 37 69q68 51 162 51q86 0 139 -47t53 -114q0 -155 -192 -185l-2 -2q-21 -55 -74 -55h-6q-70 0 -61 72l6 55q9 52 73 61q78 12 78 39q0 15 -28 15q-24 0 -60 -19z" />
    <glyph glyph-name="uni1ED0" unicode="&#x1ed0;" horiz-adv-x="1703" 
d="M793 -25q-293 0 -476 183q-180 177 -180 452q0 334 238 584q252 264 624 264q294 0 476 -182q180 -177 180 -453q0 -333 -238 -583q-253 -265 -624 -265zM829 266q216 0 363 176q135 164 135 361q0 164 -94 262q-99 102 -270 102q-216 0 -363 -176q-135 -163 -135 -360
q0 -164 94 -262q100 -103 270 -103zM1362 1823l78 -152q26 -45 26 -65q0 -50 -69 -50q-118 0 -180 68l-74 80l-117 -80q-100 -68 -195 -68q-65 0 -65 48q0 30 35 65l168 162q70 70 159 70h91q102 0 143 -78zM1868 1962l-160 -119q-88 -67 -182 -67q-86 0 -86 57q0 31 26 57
l156 172q65 68 117 68q57 0 114 -31q60 -31 60 -69q0 -35 -45 -68z" />
    <glyph glyph-name="uni1ED1" unicode="&#x1ed1;" horiz-adv-x="1335" 
d="M614 -25q-240 0 -387 144q-141 141 -141 364q0 252 186 441q188 194 449 194q241 0 387 -143q141 -141 141 -365q0 -250 -184 -440q-192 -195 -451 -195zM629 242q135 0 229 123q86 112 86 237q0 119 -65 184q-66 66 -172 66q-135 0 -230 -121q-86 -115 -86 -239
q0 -119 66 -185q65 -65 172 -65zM1098 1468l78 -151q26 -45 26 -66q0 -49 -69 -49q-119 0 -181 68l-73 80l-117 -80q-100 -68 -195 -68q-65 0 -65 47q0 31 35 66l168 162q69 69 159 69h90q103 0 144 -78zM1577 1649l-160 -119q-89 -68 -182 -68q-86 0 -86 58q0 30 27 57
l155 172q65 68 117 68q58 0 115 -31q59 -30 59 -70q0 -34 -45 -67z" />
    <glyph glyph-name="uni1ED2" unicode="&#x1ed2;" horiz-adv-x="1703" 
d="M793 -25q-293 0 -476 183q-180 177 -180 452q0 334 238 584q252 264 624 264q294 0 476 -182q180 -177 180 -453q0 -333 -238 -583q-253 -265 -624 -265zM829 266q216 0 363 176q135 164 135 361q0 164 -94 262q-99 102 -270 102q-216 0 -363 -176q-135 -163 -135 -360
q0 -164 94 -262q100 -103 270 -103zM1368 1823l78 -152q27 -46 27 -65q0 -50 -70 -50q-118 0 -180 68l-74 80l-117 -80q-100 -68 -194 -68q-66 0 -66 48q0 30 35 65l168 162q70 70 160 70h90q102 0 143 -78zM672 1849l-94 119q-29 44 -29 66q0 35 57 69q53 33 115 33
q81 0 108 -76l62 -168q8 -21 8 -43q0 -67 -98 -67q-77 0 -129 67z" />
    <glyph glyph-name="uni1ED3" unicode="&#x1ed3;" horiz-adv-x="1335" 
d="M614 -25q-240 0 -387 144q-141 141 -141 364q0 252 186 441q188 194 449 194q241 0 387 -143q141 -141 141 -365q0 -250 -184 -440q-192 -195 -451 -195zM629 242q135 0 229 123q86 112 86 237q0 119 -65 184q-66 66 -172 66q-135 0 -230 -121q-86 -115 -86 -239
q0 -119 66 -185q65 -65 172 -65zM1098 1468l78 -151q26 -45 26 -66q0 -49 -69 -49q-119 0 -181 68l-73 80l-117 -80q-100 -68 -195 -68q-65 0 -65 47q0 31 35 66l168 162q69 69 159 69h90q103 0 144 -78zM487 1591l-94 119q-28 42 -28 66q0 35 57 69q53 33 115 33
q81 0 108 -76l62 -168q8 -21 8 -43q0 -67 -99 -67q-77 0 -129 67z" />
    <glyph glyph-name="uni1ED4" unicode="&#x1ed4;" horiz-adv-x="1703" 
d="M793 -25q-293 0 -476 183q-180 177 -180 452q0 334 238 584q252 264 624 264q294 0 476 -182q180 -177 180 -453q0 -333 -238 -583q-253 -265 -624 -265zM829 266q216 0 363 176q135 164 135 361q0 164 -94 262q-99 102 -270 102q-216 0 -363 -176q-135 -163 -135 -360
q0 -164 94 -262q100 -103 270 -103zM1362 1823l78 -152q26 -45 26 -65q0 -50 -69 -50q-118 0 -180 68l-74 80l-117 -80q-100 -68 -195 -68q-65 0 -65 48q0 30 35 65l168 162q70 70 159 70h91q102 0 143 -78zM1511 1982q-25 -14 -51 -14q-30 0 -53 23q-21 21 -21 51
q0 42 37 69q70 52 162 52q86 0 139 -47q54 -48 54 -115q0 -154 -193 -184l-2 -2q-21 -56 -74 -56h-6q-70 0 -61 72l6 55q9 53 74 62q77 12 77 39q0 14 -28 14q-24 0 -60 -19z" />
    <glyph glyph-name="uni1ED5" unicode="&#x1ed5;" horiz-adv-x="1335" 
d="M614 -25q-240 0 -387 144q-141 141 -141 364q0 252 186 441q188 194 449 194q241 0 387 -143q141 -141 141 -365q0 -250 -184 -440q-192 -195 -451 -195zM629 242q135 0 229 123q86 112 86 237q0 119 -65 184q-66 66 -172 66q-135 0 -230 -121q-86 -115 -86 -239
q0 -119 66 -185q65 -65 172 -65zM1098 1468l78 -151q26 -45 26 -66q0 -49 -69 -49q-119 0 -181 68l-73 80l-117 -80q-100 -68 -195 -68q-65 0 -65 47q0 31 35 66l168 162q69 69 159 69h90q103 0 144 -78zM1212 1649q-27 -15 -51 -15q-30 0 -53 23q-21 21 -21 51q0 43 37 70
q68 51 162 51q86 0 139 -47q54 -48 54 -115q0 -154 -193 -184l-2 -2q-21 -56 -74 -56h-6q-70 0 -61 72l6 55q9 53 74 62q77 12 77 39q0 14 -28 14q-26 0 -60 -18z" />
    <glyph glyph-name="uni1ED6" unicode="&#x1ed6;" horiz-adv-x="1703" 
d="M793 -25q-293 0 -476 183q-180 177 -180 452q0 334 238 584q252 264 624 264q294 0 476 -182q180 -177 180 -453q0 -333 -238 -583q-253 -265 -624 -265zM829 266q216 0 363 176q135 164 135 361q0 164 -94 262q-99 102 -270 102q-216 0 -363 -176q-135 -163 -135 -360
q0 -164 94 -262q100 -103 270 -103zM1362 1823l78 -152q26 -45 26 -65q0 -50 -69 -50q-118 0 -180 68l-74 80l-117 -80q-100 -68 -195 -68q-65 0 -65 48q0 30 35 65l168 162q70 70 159 70h91q102 0 143 -78zM918 1931q-87 0 -87 82q0 29 17 60q113 204 278 204q82 0 162 -59
q74 -53 109 -53q57 0 110 65q41 47 92 47q87 0 87 -82q0 -28 -17 -59q-114 -205 -278 -205q-77 0 -162 60q-74 53 -109 53q-56 0 -110 -66q-41 -47 -92 -47z" />
    <glyph glyph-name="uni1ED7" unicode="&#x1ed7;" horiz-adv-x="1335" 
d="M614 -25q-240 0 -387 144q-141 141 -141 364q0 252 186 441q188 194 449 194q241 0 387 -143q141 -141 141 -365q0 -250 -184 -440q-192 -195 -451 -195zM629 242q135 0 229 123q86 112 86 237q0 119 -65 184q-66 66 -172 66q-135 0 -230 -121q-86 -115 -86 -239
q0 -119 66 -185q65 -65 172 -65zM1098 1468l78 -151q26 -45 26 -66q0 -49 -69 -49q-119 0 -181 68l-73 80l-117 -80q-100 -68 -195 -68q-65 0 -65 47q0 31 35 66l168 162q69 69 159 69h90q103 0 144 -78zM670 1585q-86 0 -86 82q0 30 16 59q114 205 279 205q81 0 161 -59
q74 -53 109 -53q58 0 111 65q41 47 92 47q86 0 86 -82q0 -28 -17 -59q-114 -205 -278 -205q-77 0 -162 60q-74 53 -109 53q-56 0 -110 -66q-41 -47 -92 -47z" />
    <glyph glyph-name="uni1ED8" unicode="&#x1ed8;" horiz-adv-x="1703" 
d="M793 -25q-293 0 -476 183q-180 177 -180 452q0 334 238 584q252 264 624 264q294 0 476 -182q180 -177 180 -453q0 -333 -238 -583q-253 -265 -624 -265zM829 266q216 0 363 176q135 164 135 361q0 164 -94 262q-99 102 -270 102q-216 0 -363 -176q-135 -163 -135 -360
q0 -164 94 -262q100 -103 270 -103zM1409 1808l78 -151q26 -45 26 -66q0 -49 -69 -49q-118 0 -180 68l-74 80l-117 -80q-100 -68 -194 -68q-66 0 -66 47q0 31 35 66l168 162q69 69 160 69h90q102 0 143 -78zM805 -268l-2 -13q-12 -73 -68 -120q-56 -50 -133 -50
q-79 0 -123 50q-42 45 -30 120l2 13q30 170 200 170q80 0 123 -49q43 -46 31 -121z" />
    <glyph glyph-name="uni1ED9" unicode="&#x1ed9;" horiz-adv-x="1335" 
d="M614 -25q-240 0 -387 144q-141 141 -141 364q0 252 186 441q188 194 449 194q241 0 387 -143q141 -141 141 -365q0 -250 -184 -440q-192 -195 -451 -195zM629 242q135 0 229 123q86 112 86 237q0 119 -65 184q-66 66 -172 66q-135 0 -230 -121q-86 -115 -86 -239
q0 -119 66 -185q65 -65 172 -65zM1135 1473l77 -152q27 -47 27 -66q0 -49 -70 -49q-118 0 -180 68l-74 80l-116 -80q-100 -68 -195 -68q-65 0 -65 47q0 32 34 66l168 162q69 69 160 69h90q103 0 144 -77zM621 -268l-3 -13q-12 -74 -67 -120q-56 -50 -133 -50q-79 0 -123 50
q-43 46 -31 120l2 13q30 170 201 170q80 0 123 -49q43 -46 31 -121z" />
    <glyph glyph-name="uni1EDA" unicode="&#x1eda;" horiz-adv-x="1703" 
d="M1192 442q135 164 135 361q0 164 -94 262q-99 102 -270 102q-216 0 -363 -176q-135 -163 -135 -360q0 -164 94 -262q100 -103 270 -103q216 0 363 176zM1487 1264q168 -174 168 -441q0 -333 -238 -583q-253 -265 -624 -265q-293 0 -476 183q-180 177 -180 452
q0 334 238 584q252 264 624 264q102 0 195 -22q154 -9 215 184q42 51 98 51q64 0 107 -37q43 -40 43 -100q0 -66 -49 -133q-47 -79 -121 -137zM1329 1743l-160 -119q-89 -68 -182 -68q-86 0 -86 58q0 30 27 57l155 172q65 68 117 68q58 0 115 -31q59 -30 59 -70
q0 -34 -45 -67z" />
    <glyph glyph-name="uni1EDB" unicode="&#x1edb;" horiz-adv-x="1335" 
d="M858 365q86 112 86 237q0 119 -65 184q-66 66 -172 66q-135 0 -230 -121q-86 -115 -86 -239q0 -119 66 -185q65 -65 172 -65q135 0 229 123zM1171 897q78 -122 78 -287q0 -250 -184 -440q-192 -195 -451 -195q-240 0 -387 144q-141 141 -141 364q0 252 186 441
q188 194 449 194q107 0 199 -28q144 -3 202 184q42 51 99 51q63 0 106 -37q43 -40 43 -100q0 -66 -49 -133q-61 -98 -150 -158zM1079 1436l-159 -119q-89 -68 -183 -68q-86 0 -86 58q0 30 27 57l156 172q65 68 116 68q58 0 115 -31q59 -30 59 -70q0 -34 -45 -67z" />
    <glyph glyph-name="uni1EDC" unicode="&#x1edc;" horiz-adv-x="1703" 
d="M1192 442q135 164 135 361q0 164 -94 262q-99 102 -270 102q-216 0 -363 -176q-135 -163 -135 -360q0 -164 94 -262q100 -103 270 -103q216 0 363 176zM1487 1264q168 -174 168 -441q0 -333 -238 -583q-253 -265 -624 -265q-293 0 -476 183q-180 177 -180 452
q0 334 238 584q252 264 624 264q102 0 195 -22q154 -9 215 184q42 51 98 51q64 0 107 -37q43 -40 43 -100q0 -66 -49 -133q-47 -79 -121 -137zM889 1624l-94 119q-29 43 -29 65q0 36 57 70q53 33 115 33q82 0 109 -76l61 -168q8 -21 8 -43q0 -68 -98 -68q-76 0 -129 68z" />
    <glyph glyph-name="uni1EDD" unicode="&#x1edd;" horiz-adv-x="1335" 
d="M858 365q86 112 86 237q0 119 -65 184q-66 66 -172 66q-135 0 -230 -121q-86 -115 -86 -239q0 -119 66 -185q65 -65 172 -65q135 0 229 123zM1171 897q78 -122 78 -287q0 -250 -184 -440q-192 -195 -451 -195q-240 0 -387 144q-141 141 -141 364q0 252 186 441
q188 194 449 194q107 0 199 -28q144 -3 202 184q42 51 99 51q63 0 106 -37q43 -40 43 -100q0 -66 -49 -133q-61 -98 -150 -158zM625 1270l-95 119q-28 42 -28 65q0 36 57 70q51 32 115 32q82 0 108 -75l62 -168q8 -21 8 -43q0 -68 -98 -68q-76 0 -129 68z" />
    <glyph glyph-name="uni1EDE" unicode="&#x1ede;" horiz-adv-x="1703" 
d="M1192 442q135 164 135 361q0 164 -94 262q-99 102 -270 102q-216 0 -363 -176q-135 -163 -135 -360q0 -164 94 -262q100 -103 270 -103q216 0 363 176zM1487 1264q168 -174 168 -441q0 -333 -238 -583q-253 -265 -624 -265q-293 0 -476 183q-180 177 -180 452
q0 334 238 584q252 264 624 264q102 0 195 -22q154 -9 215 184q42 51 98 51q64 0 107 -37q43 -40 43 -100q0 -66 -49 -133q-47 -79 -121 -137zM991 1780q-27 -15 -51 -15q-30 0 -53 23q-21 21 -21 51q0 43 37 70q68 51 162 51q86 0 139 -47t53 -115q0 -154 -192 -184l-2 -2
q-21 -56 -74 -56h-6q-70 0 -61 72l6 55q9 53 73 62q78 12 78 39q0 14 -28 14q-25 0 -60 -18z" />
    <glyph glyph-name="uni1EDF" unicode="&#x1edf;" horiz-adv-x="1335" 
d="M858 365q86 112 86 237q0 119 -65 184q-66 66 -172 66q-135 0 -230 -121q-86 -115 -86 -239q0 -119 66 -185q65 -65 172 -65q135 0 229 123zM1171 897q78 -122 78 -287q0 -250 -184 -440q-192 -195 -451 -195q-240 0 -387 144q-141 141 -141 364q0 252 186 441
q188 194 449 194q107 0 199 -28q144 -3 202 184q42 51 99 51q63 0 106 -37q43 -40 43 -100q0 -66 -49 -133q-61 -98 -150 -158zM725 1425q-25 -14 -51 -14q-30 0 -53 23q-21 21 -21 51q0 42 37 69q70 52 162 52q86 0 139 -47t53 -115q0 -154 -192 -184l-2 -3
q-21 -55 -74 -55h-6q-71 0 -62 72l7 55q9 53 73 62q78 12 78 39q0 14 -29 14q-23 0 -59 -19z" />
    <glyph glyph-name="uni1EE0" unicode="&#x1ee0;" horiz-adv-x="1703" 
d="M1192 442q135 164 135 361q0 164 -94 262q-99 102 -270 102q-216 0 -363 -176q-135 -163 -135 -360q0 -164 94 -262q100 -103 270 -103q216 0 363 176zM1487 1264q168 -174 168 -441q0 -333 -238 -583q-253 -265 -624 -265q-293 0 -476 183q-180 177 -180 452
q0 334 238 584q252 264 624 264q102 0 195 -22q154 -9 215 184q42 51 98 51q64 0 107 -37q43 -40 43 -100q0 -66 -49 -133q-47 -79 -121 -137zM621 1583q-86 0 -86 82q0 30 16 59q114 205 278 205q82 0 162 -59q74 -53 109 -53q57 0 110 65q41 47 93 47q86 0 86 -82
q0 -28 -17 -59q-114 -205 -278 -205q-79 0 -162 59q-76 54 -109 54q-56 0 -110 -66q-41 -47 -92 -47z" />
    <glyph glyph-name="uni1EE1" unicode="&#x1ee1;" horiz-adv-x="1335" 
d="M858 365q86 112 86 237q0 119 -65 184q-66 66 -172 66q-135 0 -230 -121q-86 -115 -86 -239q0 -119 66 -185q65 -65 172 -65q135 0 229 123zM1171 897q78 -122 78 -287q0 -250 -184 -440q-192 -195 -451 -195q-240 0 -387 144q-141 141 -141 364q0 252 186 441
q188 194 449 194q107 0 199 -28q144 -3 202 184q42 51 99 51q63 0 106 -37q43 -40 43 -100q0 -66 -49 -133q-61 -98 -150 -158zM311 1212q-86 0 -86 82q0 29 17 60q114 205 278 205q80 0 162 -60q74 -53 109 -53q57 0 110 65q42 48 92 48q86 0 86 -82q0 -31 -16 -60
q-114 -205 -279 -205q-76 0 -161 60q-74 53 -109 53q-58 0 -111 -65q-42 -48 -92 -48z" />
    <glyph glyph-name="uni1EE2" unicode="&#x1ee2;" horiz-adv-x="1703" 
d="M1192 442q135 164 135 361q0 164 -94 262q-99 102 -270 102q-216 0 -363 -176q-135 -163 -135 -360q0 -164 94 -262q100 -103 270 -103q216 0 363 176zM1487 1264q168 -174 168 -441q0 -333 -238 -583q-253 -265 -624 -265q-293 0 -476 183q-180 177 -180 452
q0 334 238 584q252 264 624 264q102 0 195 -22q154 -9 215 184q42 51 98 51q64 0 107 -37q43 -40 43 -100q0 -66 -49 -133q-47 -79 -121 -137zM918 -268l-3 -13q-12 -74 -67 -120q-56 -50 -133 -50q-79 0 -123 50q-43 46 -31 120l2 13q30 170 201 170q80 0 123 -49
q43 -46 31 -121z" />
    <glyph glyph-name="uni1EE3" unicode="&#x1ee3;" horiz-adv-x="1335" 
d="M858 365q86 112 86 237q0 119 -65 184q-66 66 -172 66q-135 0 -230 -121q-86 -115 -86 -239q0 -119 66 -185q65 -65 172 -65q135 0 229 123zM1171 897q78 -122 78 -287q0 -250 -184 -440q-192 -195 -451 -195q-240 0 -387 144q-141 141 -141 364q0 252 186 441
q188 194 449 194q107 0 199 -28q144 -3 202 184q42 51 99 51q63 0 106 -37q43 -40 43 -100q0 -66 -49 -133q-61 -98 -150 -158zM825 -268l-2 -13q-12 -74 -67 -120q-56 -50 -133 -50q-79 0 -123 50q-43 46 -31 120l2 13q30 170 201 170q80 0 123 -49q42 -45 30 -121z" />
    <glyph glyph-name="uni1EE4" unicode="&#x1ee4;" horiz-adv-x="1564" 
d="M1589 1241l-178 -661q-73 -278 -221 -426q-177 -177 -488 -177q-248 0 -393 127q-143 128 -143 357q0 92 35 229l159 598q41 158 177 158q78 0 116 -53q35 -59 11 -152l-156 -579q-23 -97 -23 -156q0 -108 64 -172q69 -66 186 -66q138 0 234 90q92 92 139 267l178 663
q41 158 176 158q79 0 117 -53q34 -58 10 -152zM825 -268l-2 -13q-12 -74 -67 -120q-56 -50 -133 -50q-79 0 -123 50q-43 46 -31 120l2 13q30 170 201 170q80 0 123 -49q42 -45 30 -121z" />
    <glyph glyph-name="uni1EE5" unicode="&#x1ee5;" horiz-adv-x="1273" 
d="M846 -12q-66 0 -103 37q-36 33 -36 90q-150 -135 -299 -135q-147 0 -236 86q-88 85 -88 233q0 73 37 209l119 444q41 158 174 158q79 0 114 -53q38 -59 11 -152l-111 -409q-14 -49 -14 -99q0 -135 151 -135q179 0 238 219l127 471q41 158 174 158q80 0 115 -53
q37 -58 10 -152l-203 -760q-41 -157 -180 -157zM586 -268l-2 -13q-12 -73 -68 -120q-56 -50 -133 -50q-79 0 -123 50q-43 46 -31 120l2 13q30 170 201 170q80 0 123 -49q43 -46 31 -121z" />
    <glyph glyph-name="uni1EE6" unicode="&#x1ee6;" horiz-adv-x="1564" 
d="M1589 1241l-178 -661q-73 -278 -221 -426q-177 -177 -488 -177q-248 0 -393 127q-143 128 -143 357q0 92 35 229l159 598q41 158 177 158q78 0 116 -53q35 -59 11 -152l-156 -579q-23 -97 -23 -156q0 -108 64 -172q69 -66 186 -66q138 0 234 90q92 92 139 267l178 663
q41 158 176 158q79 0 117 -53q34 -58 10 -152zM1026 1755q-25 -14 -51 -14q-31 0 -53 22q-21 21 -21 52q0 42 37 69q68 51 162 51q86 0 139 -47t53 -114q0 -155 -192 -185l-2 -2q-21 -55 -74 -55h-6q-71 0 -62 72l7 55q9 52 73 61q78 12 78 39q0 15 -29 15q-23 0 -59 -19z
" />
    <glyph glyph-name="uni1EE7" unicode="&#x1ee7;" horiz-adv-x="1273" 
d="M846 -12q-66 0 -103 37q-36 33 -36 90q-150 -135 -299 -135q-147 0 -236 86q-88 85 -88 233q0 73 37 209l119 444q41 158 174 158q79 0 114 -53q38 -59 11 -152l-111 -409q-14 -49 -14 -99q0 -135 151 -135q179 0 238 219l127 471q41 158 174 158q80 0 115 -53
q37 -58 10 -152l-203 -760q-41 -157 -180 -157zM786 1419q-25 -14 -51 -14q-31 0 -53 22q-20 20 -20 52q0 43 36 69q68 51 162 51q86 0 139 -47q54 -48 54 -114q0 -155 -193 -185l-2 -2q-21 -55 -74 -55h-6q-70 0 -61 72l6 55q9 52 74 61q77 12 77 39q0 15 -28 15
q-24 0 -60 -19z" />
    <glyph glyph-name="uni1EE8" unicode="&#x1ee8;" horiz-adv-x="1564" 
d="M1573 1184l-162 -604q-73 -278 -221 -426q-177 -177 -488 -177q-248 0 -393 127q-143 128 -143 357q0 92 35 229l159 598q41 158 177 158q78 0 116 -53q35 -59 11 -152l-156 -579q-23 -97 -23 -156q0 -108 64 -172q69 -66 186 -66q138 0 234 90q92 92 139 267l178 663
q41 158 176 158q19 0 39 -4q103 30 150 178q42 51 98 51q63 0 106 -37q43 -40 43 -100q0 -66 -49 -133q-94 -155 -276 -217zM1339 1743l-159 -119q-89 -68 -183 -68q-86 0 -86 58q0 30 27 57l156 172q65 68 116 68q58 0 115 -31q59 -30 59 -70q0 -34 -45 -67z" />
    <glyph glyph-name="uni1EE9" unicode="&#x1ee9;" horiz-adv-x="1273" 
d="M1214 852l-188 -707q-41 -157 -180 -157q-66 0 -103 37q-36 33 -36 90q-150 -135 -299 -135q-147 0 -236 86q-88 85 -88 233q0 73 37 209l119 444q41 158 174 158q79 0 114 -53q38 -59 11 -152l-111 -409q-14 -49 -14 -99q0 -135 151 -135q179 0 238 219l127 471
q41 158 174 158q21 0 31 -2q78 41 118 166q42 51 99 51q63 0 106 -37q43 -40 43 -100q0 -66 -49 -133q-82 -137 -238 -203zM1026 1393l-160 -119q-89 -68 -182 -68q-86 0 -86 58q0 30 27 57l155 172q65 68 117 68q58 0 115 -31q59 -30 59 -70q0 -34 -45 -67z" />
    <glyph glyph-name="uni1EEA" unicode="&#x1eea;" horiz-adv-x="1564" 
d="M1573 1184l-162 -604q-73 -278 -221 -426q-177 -177 -488 -177q-248 0 -393 127q-143 128 -143 357q0 92 35 229l159 598q41 158 177 158q78 0 116 -53q35 -59 11 -152l-156 -579q-23 -97 -23 -156q0 -108 64 -172q69 -66 186 -66q138 0 234 90q92 92 139 267l178 663
q41 158 176 158q19 0 39 -4q103 30 150 178q42 51 98 51q63 0 106 -37q43 -40 43 -100q0 -66 -49 -133q-94 -155 -276 -217zM889 1624l-94 119q-29 43 -29 65q0 36 57 70q53 33 115 33q82 0 109 -76l61 -168q8 -21 8 -43q0 -68 -98 -68q-76 0 -129 68z" />
    <glyph glyph-name="uni1EEB" unicode="&#x1eeb;" horiz-adv-x="1273" 
d="M1214 852l-188 -707q-41 -157 -180 -157q-66 0 -103 37q-36 33 -36 90q-150 -135 -299 -135q-147 0 -236 86q-88 85 -88 233q0 73 37 209l119 444q41 158 174 158q79 0 114 -53q38 -59 11 -152l-111 -409q-14 -49 -14 -99q0 -135 151 -135q179 0 238 219l127 471
q41 158 174 158q21 0 31 -2q78 41 118 166q42 51 99 51q63 0 106 -37q43 -40 43 -100q0 -66 -49 -133q-82 -137 -238 -203zM627 1274l-95 119q-28 42 -28 65q0 36 57 70q53 33 115 33q81 0 108 -76l62 -168q8 -21 8 -43q0 -68 -98 -68q-76 0 -129 68z" />
    <glyph glyph-name="uni1EEC" unicode="&#x1eec;" horiz-adv-x="1564" 
d="M1573 1184l-162 -604q-73 -278 -221 -426q-177 -177 -488 -177q-248 0 -393 127q-143 128 -143 357q0 92 35 229l159 598q41 158 177 158q78 0 116 -53q35 -59 11 -152l-156 -579q-23 -97 -23 -156q0 -108 64 -172q69 -66 186 -66q138 0 234 90q92 92 139 267l178 663
q41 158 176 158q19 0 39 -4q103 30 150 178q42 51 98 51q63 0 106 -37q43 -40 43 -100q0 -66 -49 -133q-94 -155 -276 -217zM1028 1780q-27 -15 -51 -15q-30 0 -53 23q-21 21 -21 51q0 43 37 70q68 51 162 51q86 0 139 -47t53 -115q0 -154 -192 -184l-2 -2q-21 -56 -74 -56
h-6q-71 0 -62 72l7 55q9 53 73 62q78 12 78 39q0 14 -29 14q-25 0 -59 -18z" />
    <glyph glyph-name="uni1EED" unicode="&#x1eed;" horiz-adv-x="1273" 
d="M1214 852l-188 -707q-41 -157 -180 -157q-66 0 -103 37q-36 33 -36 90q-150 -135 -299 -135q-147 0 -236 86q-88 85 -88 233q0 73 37 209l119 444q41 158 174 158q79 0 114 -53q38 -59 11 -152l-111 -409q-14 -49 -14 -99q0 -135 151 -135q179 0 238 219l127 471
q41 158 174 158q21 0 31 -2q78 41 118 166q42 51 99 51q63 0 106 -37q43 -40 43 -100q0 -66 -49 -133q-82 -137 -238 -203zM811 1425q-25 -14 -51 -14q-30 0 -53 23q-21 21 -21 51q0 42 37 69q70 52 162 52q86 0 139 -47t53 -115q0 -154 -192 -184l-2 -3q-21 -55 -74 -55h-6
q-71 0 -62 72l7 55q9 53 73 62q78 12 78 39q0 14 -29 14q-23 0 -59 -19z" />
    <glyph glyph-name="uni1EEE" unicode="&#x1eee;" horiz-adv-x="1564" 
d="M1573 1184l-162 -604q-73 -278 -221 -426q-177 -177 -488 -177q-248 0 -393 127q-143 128 -143 357q0 92 35 229l159 598q41 158 177 158q78 0 116 -53q35 -59 11 -152l-156 -579q-23 -97 -23 -156q0 -108 64 -172q69 -66 186 -66q138 0 234 90q92 92 139 267l178 663
q41 158 176 158q19 0 39 -4q103 30 150 178q42 51 98 51q63 0 106 -37q43 -40 43 -100q0 -66 -49 -133q-94 -155 -276 -217zM739 1556q-86 0 -86 82q0 29 17 60q114 205 278 205q80 0 162 -60q74 -53 109 -53q57 0 110 65q42 48 92 48q86 0 86 -82q0 -31 -16 -60
q-114 -205 -279 -205q-76 0 -161 60q-74 53 -109 53q-58 0 -111 -65q-42 -48 -92 -48z" />
    <glyph glyph-name="uni1EEF" unicode="&#x1eef;" horiz-adv-x="1273" 
d="M1214 852l-188 -707q-41 -157 -180 -157q-66 0 -103 37q-36 33 -36 90q-150 -135 -299 -135q-147 0 -236 86q-88 85 -88 233q0 73 37 209l119 444q41 158 174 158q79 0 114 -53q38 -59 11 -152l-111 -409q-14 -49 -14 -99q0 -135 151 -135q179 0 238 219l127 471
q41 158 174 158q21 0 31 -2q78 41 118 166q42 51 99 51q63 0 106 -37q43 -40 43 -100q0 -66 -49 -133q-82 -137 -238 -203zM469 1210q-86 0 -86 82q0 31 16 60q113 204 279 204q82 0 162 -59q74 -53 108 -53q58 0 111 65q41 47 92 47q86 0 86 -81q0 -31 -16 -60
q-114 -205 -279 -205q-77 0 -162 60q-74 53 -108 53q-57 0 -111 -66q-41 -47 -92 -47z" />
    <glyph glyph-name="uni1EF0" unicode="&#x1ef0;" horiz-adv-x="1564" 
d="M1573 1184l-162 -604q-73 -278 -221 -426q-177 -177 -488 -177q-248 0 -393 127q-143 128 -143 357q0 92 35 229l159 598q41 158 177 158q78 0 116 -53q35 -59 11 -152l-156 -579q-23 -97 -23 -156q0 -108 64 -172q69 -66 186 -66q138 0 234 90q92 92 139 267l178 663
q41 158 176 158q19 0 39 -4q103 30 150 178q42 51 98 51q63 0 106 -37q43 -40 43 -100q0 -66 -49 -133q-94 -155 -276 -217zM854 -268l-2 -13q-12 -73 -68 -120q-56 -50 -133 -50q-79 0 -123 50q-42 45 -30 120l2 13q30 170 200 170q80 0 123 -49q43 -46 31 -121z" />
    <glyph glyph-name="uni1EF1" unicode="&#x1ef1;" horiz-adv-x="1273" 
d="M1214 852l-188 -707q-41 -157 -180 -157q-66 0 -103 37q-36 33 -36 90q-150 -135 -299 -135q-147 0 -236 86q-88 85 -88 233q0 73 37 209l119 444q41 158 174 158q79 0 114 -53q38 -59 11 -152l-111 -409q-14 -49 -14 -99q0 -135 151 -135q179 0 238 219l127 471
q41 158 174 158q21 0 31 -2q78 41 118 166q42 51 99 51q63 0 106 -37q43 -40 43 -100q0 -66 -49 -133q-82 -137 -238 -203zM653 -268l-2 -13q-12 -74 -67 -120q-56 -50 -133 -50q-79 0 -123 50q-43 46 -31 120l2 13q30 170 201 170q80 0 123 -49q42 -45 30 -121z" />
    <glyph glyph-name="Ygrave" unicode="&#x1ef2;" horiz-adv-x="1331" 
d="M803 524l-103 -379q-41 -157 -176 -157q-79 0 -114 53q-37 58 -13 152l97 360l-258 625q-31 76 -31 118q0 63 47 107q49 43 123 43q107 0 153 -123l183 -492l479 527q84 90 170 90q131 0 131 -129q0 -66 -53 -125zM739 1602l-94 118q-29 43 -29 66q0 35 58 69
q53 33 114 33q82 0 109 -76l61 -167q9 -24 9 -43q0 -68 -99 -68q-76 0 -129 68z" />
    <glyph glyph-name="ygrave" unicode="&#x1ef3;" horiz-adv-x="1212" 
d="M127 -55q70 -17 92 -17q56 0 107 66l-131 897q-7 40 -7 74q0 62 45 104q47 41 111 41q63 0 107 -35q42 -36 45 -98l63 -633l385 668q52 98 158 98q135 0 135 -121q0 -41 -41 -106l-569 -910q-193 -307 -445 -307q-93 0 -147 23q-94 40 -94 135q0 57 36 96t86 39
q15 0 64 -14zM596 1274l-94 119q-29 43 -29 65q0 36 57 70q53 33 115 33q82 0 109 -76l61 -168q8 -21 8 -43q0 -68 -98 -68q-76 0 -129 68z" />
    <glyph glyph-name="uni1EF4" unicode="&#x1ef4;" horiz-adv-x="1331" 
d="M803 524l-103 -379q-41 -157 -176 -157q-79 0 -114 53q-37 58 -13 152l97 360l-258 625q-31 76 -31 118q0 63 47 107q49 43 123 43q107 0 153 -123l183 -492l479 527q84 90 170 90q131 0 131 -129q0 -66 -53 -125zM598 -268l-2 -13q-12 -73 -68 -120q-56 -50 -133 -50
q-79 0 -123 50q-42 45 -30 120l2 13q30 170 200 170q80 0 123 -49q43 -46 31 -121z" />
    <glyph glyph-name="uni1EF5" unicode="&#x1ef5;" horiz-adv-x="1212" 
d="M127 -55q70 -17 92 -17q56 0 107 66l-131 897q-7 40 -7 74q0 62 45 104q47 41 111 41q63 0 107 -35q42 -36 45 -98l63 -633l385 668q52 98 158 98q135 0 135 -121q0 -41 -41 -106l-569 -910q-193 -307 -445 -307q-93 0 -147 23q-94 40 -94 135q0 57 36 96t86 39
q15 0 64 -14zM963 -268l-2 -13q-12 -73 -68 -120q-56 -50 -133 -50q-79 0 -123 50q-43 46 -31 120l2 13q30 170 201 170q80 0 123 -49q43 -46 31 -121z" />
    <glyph glyph-name="uni1EF6" unicode="&#x1ef6;" horiz-adv-x="1331" 
d="M803 524l-103 -379q-41 -157 -176 -157q-79 0 -114 53q-37 58 -13 152l97 360l-258 625q-31 76 -31 118q0 63 47 107q49 43 123 43q107 0 153 -123l183 -492l479 527q84 90 170 90q131 0 131 -129q0 -66 -53 -125zM887 1755q-25 -14 -51 -14q-32 0 -54 22q-20 20 -20 52
q0 42 37 69q68 51 162 51q86 0 139 -47t53 -114q0 -155 -192 -185l-3 -2q-21 -55 -73 -55h-6q-71 0 -62 72l6 55q9 52 74 61q78 12 78 39q0 15 -29 15q-23 0 -59 -19z" />
    <glyph glyph-name="uni1EF7" unicode="&#x1ef7;" horiz-adv-x="1212" 
d="M127 -55q70 -17 92 -17q56 0 107 66l-131 897q-7 40 -7 74q0 62 45 104q47 41 111 41q63 0 107 -35q42 -36 45 -98l63 -633l385 668q52 98 158 98q135 0 135 -121q0 -41 -41 -106l-569 -910q-193 -307 -445 -307q-93 0 -147 23q-94 40 -94 135q0 57 36 96t86 39
q15 0 64 -14zM752 1419q-25 -14 -52 -14q-31 0 -53 22q-20 20 -20 52q0 42 37 69q68 51 161 51q87 0 140 -47t53 -114q0 -155 -193 -185l-2 -2q-21 -55 -73 -55h-7q-70 0 -61 72l6 55q9 52 74 61q78 12 78 39q0 15 -29 15q-23 0 -59 -19z" />
    <glyph glyph-name="uni1EF8" unicode="&#x1ef8;" horiz-adv-x="1331" 
d="M803 524l-103 -379q-41 -157 -176 -157q-79 0 -114 53q-37 58 -13 152l97 360l-258 625q-31 76 -31 118q0 63 47 107q49 43 123 43q107 0 153 -123l183 -492l479 527q84 90 170 90q131 0 131 -129q0 -66 -53 -125zM618 1548q-86 0 -86 82q0 29 17 60q113 204 278 204
q82 0 162 -59q74 -53 109 -53q57 0 110 65q41 47 92 47q86 0 86 -82q0 -30 -16 -59q-114 -205 -278 -205q-77 0 -162 60q-74 53 -109 53q-56 0 -110 -66q-41 -47 -93 -47z" />
    <glyph glyph-name="uni1EF9" unicode="&#x1ef9;" horiz-adv-x="1212" 
d="M127 -55q70 -17 92 -17q56 0 107 66l-131 897q-7 40 -7 74q0 62 45 104q47 41 111 41q63 0 107 -35q42 -36 45 -98l63 -633l385 668q52 98 158 98q135 0 135 -121q0 -41 -41 -106l-569 -910q-193 -307 -445 -307q-93 0 -147 23q-94 40 -94 135q0 57 36 96t86 39
q15 0 64 -14zM479 1212q-86 0 -86 82q0 29 17 60q114 205 278 205q80 0 162 -60q74 -53 108 -53q58 0 111 65q42 48 92 48q86 0 86 -82q0 -31 -16 -60q-114 -205 -279 -205q-76 0 -161 60q-74 53 -109 53q-58 0 -111 -65q-42 -48 -92 -48z" />
    <glyph glyph-name="uni2002" unicode="&#x2002;" 
 />
    <glyph glyph-name="uni2003" unicode="&#x2003;" horiz-adv-x="2048" 
 />
    <glyph glyph-name="uni2004" unicode="&#x2004;" horiz-adv-x="681" 
 />
    <glyph glyph-name="uni2005" unicode="&#x2005;" horiz-adv-x="512" 
 />
    <glyph glyph-name="uni2009" unicode="&#x2009;" horiz-adv-x="272" 
 />
    <glyph glyph-name="uni200A" unicode="&#x200a;" horiz-adv-x="153" 
 />
    <glyph glyph-name="endash" unicode="&#x2013;" horiz-adv-x="1087" 
d="M868 489h-600q-61 0 -104 43q-45 39 -45 103q0 62 45 104q44 41 104 41h600q60 0 107 -41q43 -43 43 -104q0 -63 -43 -103q-46 -43 -107 -43z" />
    <glyph glyph-name="emdash" unicode="&#x2014;" horiz-adv-x="1845" 
d="M1626 489h-1358q-61 0 -104 43q-45 39 -45 103q0 62 45 104q44 41 104 41h1358q60 0 107 -41q43 -43 43 -104q0 -63 -43 -103q-46 -43 -107 -43z" />
    <glyph glyph-name="quoteleft" unicode="&#x2018;" horiz-adv-x="653" 
d="M690 1307q-198 -41 -213 -193q122 -34 98 -164l-2 -10q-34 -166 -190 -166q-88 0 -129 62q-38 55 -16 168l2 10q41 203 194 329q124 103 254 103q74 0 74 -68q0 -56 -72 -71z" />
    <glyph glyph-name="quoteright" unicode="&#x2019;" horiz-adv-x="653" 
d="M217 913q198 41 213 193q-122 34 -98 164l2 10q34 166 190 166q88 0 129 -62q39 -56 17 -167l-2 -11q-40 -202 -195 -329q-124 -103 -254 -103q-74 0 -74 68q0 56 72 71z" />
    <glyph glyph-name="quotesinglbase" unicode="&#x201a;" horiz-adv-x="653" 
d="M-66 -193q198 41 213 193q-122 34 -98 164l2 10q34 166 191 166q89 0 129 -61q38 -55 16 -168l-2 -11q-40 -202 -195 -329q-124 -103 -253 -103q-74 0 -74 68q0 56 71 71z" />
    <glyph glyph-name="quotedblleft" unicode="&#x201c;" horiz-adv-x="1173" 
d="M907 772q-88 0 -129 62q-38 55 -16 167l2 11q41 203 194 329q124 103 254 103q74 0 74 -68q0 -56 -72 -71q-198 -41 -213 -193q123 -34 99 -164l-2 -10q-34 -166 -191 -166zM387 772q-88 0 -129 62q-38 55 -16 167l2 11q41 203 194 329q124 103 254 103q74 0 74 -68
q0 -56 -72 -71q-198 -41 -213 -193q123 -34 99 -164l-2 -10q-34 -166 -191 -166z" />
    <glyph glyph-name="quotedblright" unicode="&#x201d;" horiz-adv-x="1173" 
d="M217 913q198 41 213 193q-122 34 -98 164l2 10q34 166 190 166q88 0 129 -62q39 -56 17 -167l-2 -11q-40 -202 -195 -329q-124 -103 -254 -103q-74 0 -74 68q0 56 72 71zM737 913q198 41 213 193q-122 34 -98 164l2 10q34 166 190 166q89 0 130 -62q38 -55 16 -167
l-2 -11q-40 -202 -195 -329q-124 -103 -254 -103q-73 0 -73 68q0 56 71 71z" />
    <glyph glyph-name="quotedblbase" unicode="&#x201e;" horiz-adv-x="1173" 
d="M-66 -193q198 41 213 193q-122 34 -98 164l2 10q34 166 191 166q89 0 129 -61q38 -55 16 -168l-2 -11q-40 -202 -195 -329q-124 -103 -253 -103q-74 0 -74 68q0 56 71 71zM455 -193q198 41 213 193q-123 34 -99 164l2 10q34 166 191 166q89 0 129 -61q38 -55 16 -168
l-2 -11q-41 -203 -194 -329q-124 -103 -254 -103q-74 0 -74 68q0 56 72 71z" />
    </font>
</defs>
</svg>
