<?xml version="1.0" standalone="no"?>
<!DOCTYPE svg PUBLIC "-//W3C//DTD SVG 1.1//EN" "http://www.w3.org/Graphics/SVG/1.1/DTD/svg11.dtd" >
<svg xmlns="http://www.w3.org/2000/svg" xmlns:xlink="http://www.w3.org/1999/xlink" version="1.1">
<metadata>
Created by FontForge 20170731 at Mon May  9 11:54:14 2022
 By Aleksey,,,
Copyright (C) 2006, 2007 Hoefler &#38; Frere-Jones. http://www.typography.com
</metadata>
<defs>
<font id="iCielGothamRounded-BookItalic" horiz-adv-x="1024" >
  <font-face 
    font-family="iCiel Gotham Rounded Book"
    font-weight="300"
    font-style="italic"
    font-stretch="normal"
    units-per-em="2048"
    panose-1="0 0 0 0 0 0 0 0 0 0"
    ascent="1638"
    descent="-410"
    x-height="1059"
    cap-height="1444"
    bbox="-760 -498 2425 2179"
    underline-thickness="102"
    underline-position="-307"
    slope="-15"
    unicode-range="U+0020-FB04"
  />
<missing-glyph 
d="M0 -410v2048h1024v-2048h-1024zM145 1536l367 -799l367 799h-734zM102 -156l353 770l-353 770v-1540zM922 1384l-353 -770l353 -770v1540zM512 492l-367 -799h734z" />
    <glyph glyph-name="uniFB00" unicode="ff" horiz-adv-x="1536" 
d="M500 920l-230 -852q-18 -78 -88 -78q-38 0 -55 26t-8 72l223 832h-72q-65 3 -65 69q0 70 69 70h105l35 127q82 313 362 313q80 0 150 -24q57 -18 57 -70q0 -35 -25 -57q-27 -21 -61 -9q-64 23 -121 23q-160 0 -213 -201l-26 -102h264q69 0 69 -70q0 -69 -69 -69h-301z
M1268 920l-230 -852q-18 -78 -88 -78q-38 0 -55 26t-8 72l223 832h-72q-65 3 -65 69q0 70 69 70h105l35 127q82 313 362 313q80 0 150 -24q57 -18 57 -70q0 -35 -25 -57q-27 -21 -61 -9q-64 23 -121 23q-160 0 -213 -201l-26 -102h264q69 0 69 -70q0 -69 -69 -69h-301z" />
    <glyph glyph-name="uniFB01" unicode="fi" horiz-adv-x="1308" 
d="M1364 1395l-10 -41q-18 -74 -105 -74q-40 0 -63 23q-25 25 -17 57l11 43q21 72 104 72q40 0 66 -23q23 -23 14 -57zM1235 971l-242 -903q-21 -78 -88 -78q-87 0 -63 98l241 903q21 78 88 78q40 0 58 -27t6 -71zM500 920l-230 -852q-18 -78 -88 -78q-38 0 -55 26t-8 72
l223 832h-72q-65 3 -65 69q0 70 69 70h105l35 127q82 313 362 313q80 0 150 -24q57 -18 57 -70q0 -35 -25 -57q-27 -21 -61 -9q-64 23 -121 23q-160 0 -213 -201l-26 -102h264q69 0 69 -70q0 -69 -69 -69h-301z" />
    <glyph glyph-name="uniFB02" unicode="fl" horiz-adv-x="1308" 
d="M1352 1407l-359 -1339q-21 -78 -88 -78q-87 0 -63 98l358 1339q21 78 88 78q41 0 58 -26q18 -27 6 -72zM500 920l-230 -852q-18 -78 -88 -78q-38 0 -55 26t-8 72l223 832h-72q-65 3 -65 69q0 70 69 70h105l35 127q82 313 362 313q80 0 150 -24q57 -18 57 -70
q0 -35 -25 -57q-27 -21 -61 -9q-64 23 -121 23q-160 0 -213 -201l-26 -102h264q69 0 69 -70q0 -69 -69 -69h-301z" />
    <glyph glyph-name="uniFB03" unicode="ffi" horiz-adv-x="2078" 
d="M2132 1395l-10 -41q-18 -74 -105 -74q-40 0 -63 23q-25 25 -17 57l11 43q21 72 104 72q40 0 66 -23q23 -23 14 -57zM2003 971l-242 -903q-21 -78 -88 -78q-87 0 -63 98l241 903q21 78 88 78q40 0 58 -27t6 -71zM500 920l-230 -852q-18 -78 -88 -78q-38 0 -55 26t-8 72
l223 832h-72q-65 3 -65 69q0 70 69 70h105l35 127q82 313 362 313q80 0 150 -24q57 -18 57 -70q0 -35 -25 -57q-27 -21 -61 -9q-64 23 -121 23q-160 0 -213 -201l-26 -102h264q69 0 69 -70q0 -69 -69 -69h-301zM1268 920l-230 -852q-18 -78 -88 -78q-38 0 -55 26t-8 72
l223 832h-72q-65 3 -65 69q0 70 69 70h105l35 127q82 313 362 313q80 0 150 -24q57 -18 57 -70q0 -35 -25 -57q-27 -21 -61 -9q-64 23 -121 23q-160 0 -213 -201l-26 -102h264q69 0 69 -70q0 -69 -69 -69h-301z" />
    <glyph glyph-name="uniFB04" unicode="ffl" horiz-adv-x="2078" 
d="M2120 1407l-359 -1339q-21 -78 -88 -78q-87 0 -63 98l358 1339q21 78 88 78q41 0 58 -26q18 -27 6 -72zM500 920l-230 -852q-18 -78 -88 -78q-38 0 -55 26t-8 72l223 832h-72q-65 3 -65 69q0 70 69 70h105l35 127q82 313 362 313q80 0 150 -24q57 -18 57 -70
q0 -35 -25 -57q-27 -21 -61 -9q-64 23 -121 23q-160 0 -213 -201l-26 -102h264q69 0 69 -70q0 -69 -69 -69h-301zM1268 920l-230 -852q-18 -78 -88 -78q-38 0 -55 26t-8 72l223 832h-72q-65 3 -65 69q0 70 69 70h105l35 127q82 313 362 313q80 0 150 -24q57 -18 57 -70
q0 -35 -25 -57q-27 -21 -61 -9q-64 23 -121 23q-160 0 -213 -201l-26 -102h264q69 0 69 -70q0 -69 -69 -69h-301z" />
    <glyph glyph-name=".notdef" 
d="M0 -410v2048h1024v-2048h-1024zM145 1536l367 -799l367 799h-734zM102 -156l353 770l-353 770v-1540zM922 1384l-353 -770l353 -770v1540zM512 492l-367 -799h734z" />
    <glyph glyph-name=".null" horiz-adv-x="0" 
 />
    <glyph glyph-name="nonmarkingreturn" unicode=" " horiz-adv-x="614" 
 />
    <glyph glyph-name="exclam" unicode="!" horiz-adv-x="555" 
d="M592 1370l-295 -932q-15 -41 -49 -41q-50 0 -41 58l205 923q9 62 71 62h62q30 0 43 -19q14 -19 4 -51zM182 225q43 0 68 -28q27 -27 14 -70l-14 -51q-21 -86 -109 -86q-42 0 -67 28q-24 28 -15 70l15 51q21 86 108 86z" />
    <glyph glyph-name="quotedbl" unicode="&#x22;" horiz-adv-x="905" 
d="M539 1348l-230 -439q-21 -41 -55 -41q-48 0 -33 56l150 446q24 70 92 70h35q39 0 51 -27q10 -30 -10 -65zM940 1348l-227 -439q-21 -41 -56 -41q-47 0 -32 56l149 446q21 70 92 70h33q42 0 51 -27q9 -28 -10 -65z" />
    <glyph glyph-name="numbersign" unicode="#" horiz-adv-x="1396" 
d="M481 504h383l154 434h-385zM780 1364l-98 -285h383l106 303q24 62 82 62q36 0 52 -25q15 -21 6 -55l-101 -285h150q70 0 70 -69q0 -72 -70 -72h-199l-151 -434h172q71 0 71 -70q0 -72 -71 -72h-221l-109 -311q-21 -61 -80 -61q-35 0 -53 24q-16 22 -4 56l100 292h-383
l-108 -311q-21 -61 -80 -61q-35 0 -54 22q-15 24 -6 58l103 292h-148q-71 0 -71 70q0 72 71 72h197l151 434h-172q-71 0 -71 70q0 71 71 71h222l106 303q24 62 80 62q34 0 53 -25q16 -22 4 -55z" />
    <glyph glyph-name="dollar" unicode="$" horiz-adv-x="1275" 
d="M393 -131l41 143q-234 43 -389 189q-33 26 -33 69q0 76 78 76q30 0 57 -24q130 -133 336 -168l140 516q-192 74 -271 147q-88 82 -88 215q0 173 144 287q145 115 356 115l70 -2l18 67q21 64 74 64q31 0 47 -23q15 -21 6 -57l-18 -70q168 -38 292 -141q37 -27 37 -66
q0 -78 -78 -78q-21 0 -59 23q-106 92 -242 121l-133 -488q346 -126 346 -366q0 -182 -149 -301q-150 -117 -387 -117h-29l-41 -147q-15 -64 -72 -64q-74 0 -53 80zM733 631l-135 -488q157 -3 260 68q100 69 100 190q0 141 -225 230zM668 825l127 463q-153 15 -263 -57
q-102 -71 -102 -182q0 -135 238 -224z" />
    <glyph glyph-name="percent" unicode="%" horiz-adv-x="1714" 
d="M475 709q-126 0 -209 86q-80 86 -80 213q0 174 113 305q113 137 279 137q127 0 210 -86q80 -86 80 -213q0 -175 -112 -305q-116 -137 -281 -137zM1235 -14q-126 0 -209 86q-80 83 -80 213q0 174 113 305q116 137 280 137q126 0 209 -86q80 -86 80 -213q0 -175 -112 -305
q-116 -137 -281 -137zM485 821q106 0 183 103q73 98 73 217q0 92 -45 143q-47 53 -127 53q-105 0 -182 -102q-74 -100 -74 -217q0 -197 172 -197zM1245 98q105 0 182 103q74 100 74 217q0 92 -45 143q-47 53 -127 53q-105 0 -182 -102q-74 -100 -74 -219q0 -90 45 -141
q48 -54 127 -54zM1591 1337l-1274 -1312q-35 -35 -63 -35q-55 0 -55 55q0 24 26 53l1274 1311q30 35 62 35q55 0 55 -53q0 -29 -25 -54z" />
    <glyph glyph-name="ampersand" unicode="&#x26;" horiz-adv-x="1417" 
d="M680 856q362 102 362 285q0 81 -55 133q-57 51 -151 51q-100 0 -170 -70t-70 -168q0 -103 84 -231zM500 119q208 0 403 180l-297 420q-387 -102 -387 -361q0 -110 76 -174q77 -65 205 -65zM1110 18l-125 179q-236 -217 -504 -217q-183 0 -299 96q-123 102 -123 270
q0 343 476 475q-91 154 -91 266q0 154 115 263q114 108 283 108q161 0 256 -86q96 -87 96 -223q0 -269 -442 -395l256 -359q102 117 188 256q27 47 66 47q63 0 63 -59q0 -27 -16 -49q-110 -174 -219 -295l133 -189q24 -35 24 -57q0 -69 -71 -69q-41 0 -66 38z" />
    <glyph glyph-name="quotesingle" unicode="'" horiz-adv-x="501" 
d="M539 1348l-230 -439q-21 -41 -55 -41q-48 0 -33 56l150 446q24 70 92 70h35q39 0 51 -27q10 -30 -10 -65z" />
    <glyph glyph-name="parenleft" unicode="(" horiz-adv-x="888" 
d="M606 -160q23 -30 23 -55q0 -64 -68 -64q-27 0 -57 23q-324 312 -324 698q0 314 193 574q202 270 567 432q27 12 45 12q64 0 64 -63q0 -45 -43 -66q-321 -146 -496 -383q-168 -229 -168 -502q0 -314 264 -606z" />
    <glyph glyph-name="parenright" unicode=")" horiz-adv-x="888" 
d="M315 1341q-22 28 -22 54q0 65 67 65q30 0 58 -22q323 -311 323 -699q0 -314 -192 -573q-201 -272 -567 -434q-42 -11 -45 -11q-64 0 -64 64q0 44 43 65q319 145 494 386q168 226 168 499q0 314 -263 606z" />
    <glyph glyph-name="asterisk" unicode="*" horiz-adv-x="880" 
d="M604 1063l-37 -203q-6 -47 -51 -47q-29 0 -41 21q-13 19 -4 47l72 198l-195 -69q-18 -9 -37 -9q-47 0 -47 48q-3 46 49 55l215 37l-166 137q-26 20 -26 47q0 51 49 51q28 0 47 -22l139 -166l37 198q9 54 54 54q28 0 40 -21t3 -51l-72 -197l194 70q13 8 39 8q43 0 43 -49
q0 -47 -47 -53l-215 -37l164 -137q29 -23 29 -47q0 -52 -52 -52q-26 0 -45 25z" />
    <glyph glyph-name="plus" unicode="+" horiz-adv-x="1280" 
d="M750 647l-97 -352q-21 -78 -86 -78q-40 0 -55 27q-18 27 -6 69l90 334h-340q-74 0 -74 74t74 74h379l94 354q21 76 88 76q37 0 55 -27q16 -28 7 -68l-91 -335h340q33 0 54 -21q22 -22 22 -51q0 -31 -22 -53q-23 -23 -54 -23h-378z" />
    <glyph glyph-name="comma" unicode="," horiz-adv-x="522" 
d="M164 225q50 0 69 -32q26 -37 11 -89l-17 -61q-31 -130 -112 -205q-66 -60 -164 -82q-49 -9 -49 35q0 27 35 39q142 49 163 170q-70 12 -55 88l14 53q21 84 105 84z" />
    <glyph glyph-name="hyphen" unicode="-" horiz-adv-x="839" 
d="M655 532h-426q-32 0 -57 25t-25 59q0 33 25 58q24 24 57 24h426q34 0 58 -24t24 -58q0 -35 -24 -59q-25 -25 -58 -25z" />
    <glyph glyph-name="period" unicode="." horiz-adv-x="522" 
d="M166 225q42 0 67 -28q28 -28 15 -70l-15 -51q-21 -86 -108 -86q-43 0 -68 28q-24 27 -14 70l14 51q21 86 109 86z" />
    <glyph glyph-name="slash" unicode="/" horiz-adv-x="1040" 
d="M-174 -154l1339 1756q34 43 74 43q57 0 57 -58q0 -22 -26 -61l-1340 -1755q-34 -43 -73 -43q-58 0 -58 57q0 21 27 61z" />
    <glyph glyph-name="zero" unicode="0" horiz-adv-x="1464" 
d="M659 -25q-235 0 -370 156q-131 149 -131 397q0 354 207 635q220 295 538 295q237 0 371 -155q131 -149 131 -398q0 -354 -207 -635q-220 -295 -539 -295zM670 123q228 0 401 250q166 239 166 532q0 181 -88 291q-95 115 -258 115q-226 0 -399 -250q-166 -239 -166 -533
q0 -180 88 -290q92 -115 256 -115z" />
    <glyph glyph-name="one" unicode="1" horiz-adv-x="739" 
d="M719 1362l-348 -1294q-18 -78 -88 -78q-41 0 -58 26q-22 28 -10 74l317 1182l-210 -66q-15 -6 -33 -6q-64 0 -64 70q0 56 58 71l282 91q56 18 92 18h2q38 0 54 -25q15 -24 6 -63z" />
    <glyph glyph-name="two" unicode="2" horiz-adv-x="1218" 
d="M928 0h-879q-82 0 -82 70q0 45 39 71l803 609q240 181 240 337q0 98 -72 158q-74 62 -201 62q-180 0 -352 -158q-37 -29 -62 -29q-73 0 -73 72q0 36 30 63q217 199 463 199q195 0 314 -98q121 -103 121 -258q0 -218 -308 -449l-661 -502h680q76 0 76 -73q0 -74 -76 -74z
" />
    <glyph glyph-name="three" unicode="3" horiz-adv-x="1239" 
d="M45 193q-25 31 -25 61q0 33 25 55q23 23 53 23q34 0 60 -33q123 -176 358 -176q167 0 283 90q112 87 112 227q0 244 -370 244h-23q-67 0 -67 59q0 33 32 58l551 487h-620q-74 0 -74 72q0 74 74 74h803q73 0 73 -62q0 -40 -49 -80l-555 -487q173 -15 277 -100
q116 -94 116 -252q0 -205 -168 -342q-168 -136 -403 -136q-319 0 -463 218z" />
    <glyph glyph-name="four" unicode="4" horiz-adv-x="1329" 
d="M264 475h590l197 731zM973 340l-72 -272q-21 -78 -88 -78q-38 0 -55 26q-20 26 -8 74l67 250h-692q-84 0 -84 66q0 43 43 86l985 911q57 51 113 51q39 0 57 -27q17 -23 8 -63l-237 -889h143q70 0 70 -67q0 -68 -70 -68h-180z" />
    <glyph glyph-name="five" unicode="5" horiz-adv-x="1234" 
d="M72 166q-33 36 -33 74q0 73 76 73q36 0 63 -30q131 -162 348 -162q185 0 303 106q113 101 113 246q0 127 -88 203q-90 72 -231 72q-109 0 -263 -60q-42 -14 -84 14q-45 34 -24 93l186 571q24 68 84 68h652q73 0 73 -76q0 -74 -73 -74h-609l-151 -450q113 55 245 55
q204 0 328 -109q125 -110 125 -295q0 -212 -164 -356q-171 -154 -434 -154q-260 0 -442 191z" />
    <glyph glyph-name="six" unicode="6" horiz-adv-x="1312" 
d="M1290 1321q37 -27 37 -68q0 -33 -22 -55t-54 -22q-27 0 -55 22q-125 113 -291 113q-194 0 -346 -152q-194 -194 -221 -467q150 209 414 209q206 0 331 -119q121 -118 121 -293q0 -207 -157 -358q-163 -156 -400 -156q-223 0 -348 131q-141 141 -141 398q0 463 284 747
q207 207 476 207q223 0 372 -137zM651 117q165 0 279 108q108 105 108 252q0 117 -77 197q-88 88 -240 88q-174 0 -287 -107q-108 -102 -108 -237q0 -130 84 -211q90 -90 241 -90z" />
    <glyph glyph-name="seven" unicode="7" horiz-adv-x="1200" 
d="M1251 1290l-907 -1245q-40 -55 -90 -55q-68 0 -68 63q0 31 27 72l856 1161h-694q-74 0 -74 74t74 74h844q69 0 69 -60q0 -38 -37 -84z" />
    <glyph glyph-name="eight" unicode="8" horiz-adv-x="1325" 
d="M606 -20q-232 0 -381 110q-147 108 -147 272q0 162 121 271q108 96 297 131q-207 83 -207 297q0 161 145 276q147 117 373 117q214 0 348 -104q135 -105 135 -267q0 -141 -102 -243q-92 -92 -252 -127q244 -86 244 -318q0 -174 -160 -295q-164 -120 -414 -120zM770 799
q164 0 268 84q92 77 92 184q0 106 -90 178q-88 70 -237 70q-152 0 -256 -78q-98 -76 -98 -190q0 -107 88 -177q92 -71 233 -71zM616 119q177 0 289 80q108 76 111 204q0 109 -101 185q-110 78 -272 78q-178 0 -293 -86q-108 -82 -108 -201q-3 -115 102 -186q103 -74 272 -74
z" />
    <glyph glyph-name="nine" unicode="9" horiz-adv-x="1312" 
d="M498 -27q-220 0 -385 148q-39 33 -39 72q0 75 73 75q32 0 58 -20q133 -127 301 -127q193 0 346 153q192 189 219 457q-153 -217 -416 -217q-203 0 -329 123q-123 117 -123 297q3 216 162 366q163 156 399 156q216 0 348 -129q141 -144 141 -407q0 -454 -286 -740
q-213 -207 -469 -207zM692 655q169 0 283 111q108 108 108 250q0 127 -82 209q-92 92 -241 92q-167 0 -281 -111q-108 -108 -108 -260q-3 -120 78 -201q90 -90 243 -90z" />
    <glyph glyph-name="colon" unicode=":" horiz-adv-x="536" 
d="M172 225q43 0 68 -28q27 -27 14 -70l-14 -51q-21 -86 -109 -86q-43 0 -68 28q-24 27 -14 70l14 51q21 86 109 86zM399 1069q42 0 68 -29q27 -27 14 -69l-14 -51q-21 -86 -109 -86q-42 0 -67 28q-24 27 -15 70l15 51q21 86 108 86z" />
    <glyph glyph-name="semicolon" unicode=";" horiz-adv-x="536" 
d="M401 1069q42 0 68 -29q27 -27 14 -69l-14 -51q-21 -86 -109 -86q-42 0 -67 28q-24 27 -14 70l14 51q21 86 108 86zM172 225q51 0 70 -32q25 -36 10 -89l-16 -61q-31 -129 -113 -205q-66 -60 -164 -82q-49 -9 -49 35q0 27 35 39q143 49 164 170q-71 12 -56 88l15 53
q21 84 104 84z" />
    <glyph glyph-name="less" unicode="&#x3c;" horiz-adv-x="1280" 
d="M250 809l907 405q26 13 55 13q62 0 62 -62q0 -51 -51 -71l-871 -383l637 -367q45 -23 45 -68q0 -73 -71 -73q-25 0 -50 14l-675 395q-66 38 -66 90v7q0 69 78 100z" />
    <glyph glyph-name="equal" unicode="=" horiz-adv-x="1280" 
d="M1030 406h-805q-78 0 -78 75q0 31 23 54q22 22 55 22h805q31 0 53 -22q23 -23 23 -54q0 -75 -76 -75zM1159 885h-805q-78 0 -78 76q0 30 23 53q22 22 55 22h805q31 0 53 -22q23 -23 23 -53q0 -76 -76 -76z" />
    <glyph glyph-name="greater" unicode="&#x3e;" horiz-adv-x="1280" 
d="M1130 633l-907 -406q-24 -12 -55 -12q-62 0 -62 61q0 51 52 72l870 383l-637 367q-45 23 -45 67q0 74 72 74q24 0 49 -14l676 -396q65 -41 65 -90v-6q0 -69 -78 -100z" />
    <glyph glyph-name="question" unicode="?" horiz-adv-x="1099" 
d="M336 1174q-39 -25 -62 -25q-67 0 -67 65q0 34 31 62q197 176 448 176q192 0 311 -104q113 -101 113 -258q0 -191 -154 -312q-139 -112 -383 -147l-65 -187q-21 -49 -62 -49h-4q-56 0 -47 62l41 231q9 55 72 64q196 21 311 104q123 86 123 221q0 107 -78 170
q-73 58 -194 58q-172 0 -334 -131zM381 225q43 0 68 -28q27 -27 14 -70l-14 -51q-21 -86 -109 -86q-43 0 -68 28q-24 27 -14 70l14 51q21 86 109 86z" />
    <glyph glyph-name="at" unicode="@" horiz-adv-x="2007" 
d="M920 268q143 0 264 121q121 124 121 277q0 106 -66 172q-64 67 -174 67q-144 0 -250 -121q-106 -118 -106 -288q0 -106 59 -168q60 -60 152 -60zM1417 -238q-198 -88 -430 -88q-383 0 -622 222q-236 217 -236 579q0 397 293 690q298 295 711 295q372 0 596 -211
q213 -201 213 -508q0 -276 -146 -448q-127 -148 -295 -148q-216 0 -256 193q-164 -197 -366 -197q-140 0 -230 90q-96 96 -96 252q0 223 158 389q154 160 346 160q218 0 301 -201l39 125q21 64 76 64q32 0 51 -25q20 -25 8 -65l-141 -453q-35 -109 2 -178q38 -72 133 -72
q120 0 223 127q117 147 117 387q0 276 -195 459q-206 191 -538 191q-381 0 -656 -275q-272 -272 -272 -641q0 -328 215 -528q215 -203 567 -203q214 0 397 80q12 6 25 6q33 0 33 -35q0 -21 -25 -33z" />
    <glyph glyph-name="A" unicode="A" horiz-adv-x="1529" 
d="M467 526h659l-133 734zM1128 1372l238 -1259q6 -38 6 -45q0 -78 -82 -78q-67 0 -82 71l-55 318h-788l-242 -334q-43 -55 -84 -55q-68 0 -68 67q0 30 19 52l921 1271q52 70 119 70h4q76 0 94 -78z" />
    <glyph glyph-name="B" unicode="B" horiz-adv-x="1468" 
d="M434 795h408q190 0 305 77t115 207q0 209 -293 209h-402zM260 145h479q195 0 308 76q112 75 112 211q0 105 -92 164q-88 55 -238 55h-434zM721 0h-567q-40 0 -58 27q-22 28 -10 67l338 1258q21 82 92 82h467q205 0 328 -91q116 -88 116 -243q0 -148 -102 -250
q-91 -91 -256 -127q254 -76 254 -297q0 -187 -160 -305q-165 -121 -442 -121z" />
    <glyph glyph-name="C" unicode="C" horiz-adv-x="1505" 
d="M1300 172q-217 -199 -516 -199q-258 0 -432 160q-178 163 -178 434q0 352 252 619q254 272 608 272q324 0 490 -233q28 -36 28 -70q-3 -81 -82 -78q-42 0 -61 29q-141 203 -389 203q-274 0 -477 -226q-199 -220 -199 -510q0 -203 127 -327q124 -121 322 -121
q222 0 405 162q31 22 57 22q76 0 76 -76q0 -30 -31 -61z" />
    <glyph glyph-name="D" unicode="D" horiz-adv-x="1583" 
d="M264 150h303q367 0 592 225q180 180 180 446q0 201 -120 318q-145 145 -437 145h-213zM516 1434h277q365 0 559 -191q155 -155 155 -412q0 -328 -225 -559q-272 -272 -735 -272h-393q-40 0 -58 27q-22 28 -10 67l338 1258q21 82 92 82z" />
    <glyph glyph-name="E" unicode="E" horiz-adv-x="1337" 
d="M1051 0h-897q-40 0 -58 27q-22 28 -10 67l338 1258q21 82 92 82h870q74 0 74 -74t-74 -74h-819l-131 -489h686q31 0 54 -23q20 -20 20 -51q0 -74 -74 -74h-725l-135 -502h789q73 0 73 -73q0 -74 -73 -74z" />
    <glyph glyph-name="F" unicode="F" horiz-adv-x="1347" 
d="M516 1434h875q75 0 75 -74q0 -31 -22 -53q-23 -23 -53 -23h-824l-137 -512h690q76 0 76 -74q0 -73 -76 -73h-729l-147 -553q-24 -82 -94 -82q-38 0 -58 26t-8 68l340 1268q21 82 92 82z" />
    <glyph glyph-name="G" unicode="G" horiz-adv-x="1605" 
d="M1477 670l-140 -484q-15 -61 -71 -94q-204 -119 -455 -119q-272 0 -449 162q-186 168 -186 449q0 343 252 604q261 270 629 270q320 0 491 -198q31 -31 31 -68q0 -80 -78 -80q-30 0 -57 27q-141 172 -402 172q-291 0 -497 -226q-199 -214 -199 -495q0 -217 133 -344
q129 -123 342 -123q211 0 371 100l113 398h-359q-74 0 -74 71q0 74 74 74h461q36 0 59 -29q20 -26 11 -67z" />
    <glyph glyph-name="H" unicode="H" horiz-adv-x="1548" 
d="M1565 1343l-344 -1275q-18 -78 -88 -78q-41 0 -58 26q-22 28 -10 74l149 555h-817l-155 -577q-21 -78 -90 -78q-41 0 -58 26q-22 28 -10 74l344 1276q21 78 88 78q38 0 59 -27t9 -74l-146 -546h817l152 569q21 78 90 78q38 0 59 -27t9 -74z" />
    <glyph glyph-name="I" unicode="I" horiz-adv-x="595" 
d="M598 1343l-342 -1275q-21 -78 -90 -78q-40 0 -57 26q-23 29 -11 74l344 1276q21 78 88 78q39 0 60 -27q20 -26 8 -74z" />
    <glyph glyph-name="J" unicode="J" horiz-adv-x="1122" 
d="M1171 1343l-223 -837q-71 -262 -196 -387q-139 -139 -355 -139q-266 0 -389 237q-20 26 -20 59q0 76 75 76q44 0 68 -41q80 -182 268 -182q143 0 244 98q91 94 150 310l223 829q21 78 90 78q39 0 57 -27q20 -26 8 -74z" />
    <glyph glyph-name="K" unicode="K" horiz-adv-x="1464" 
d="M322 367l-80 -299q-21 -78 -90 -78q-41 0 -58 26q-22 28 -10 74l344 1276q21 78 88 78q38 0 59 -27t9 -74l-203 -761l1016 831q36 31 67 31q74 0 74 -74q0 -37 -33 -63l-631 -510l353 -674q16 -40 16 -57q0 -33 -24 -54q-25 -22 -56 -22q-61 0 -84 57l-340 658z" />
    <glyph glyph-name="L" unicode="L" horiz-adv-x="1243" 
d="M985 0h-831q-40 0 -58 27q-22 28 -10 67l342 1272q21 78 88 78q38 0 59 -27t9 -74l-320 -1193h721q74 0 74 -76q0 -74 -74 -74z" />
    <glyph glyph-name="M" unicode="M" horiz-adv-x="1779" 
d="M1716 1440h8q44 0 62 -27q22 -28 6 -76l-340 -1269q-18 -78 -92 -78q-40 0 -57 26q-21 27 -9 74l281 1049l-627 -660q-44 -47 -84 -47q-46 0 -67 53l-271 654l-286 -1069q-21 -80 -90 -80q-41 0 -58 26q-20 26 -8 74l340 1264q21 86 92 86h6q57 0 84 -64l301 -749
l699 755q52 58 110 58z" />
    <glyph glyph-name="N" unicode="N" horiz-adv-x="1609" 
d="M1180 270l295 1096q21 78 88 78q39 0 57 -27q21 -27 6 -74l-342 -1277q-21 -72 -82 -72h-4q-59 0 -88 63l-571 1133l-301 -1122q-21 -78 -88 -78q-41 0 -58 26q-20 26 -8 74l342 1270q21 80 94 80h8q63 0 101 -72z" />
    <glyph glyph-name="O" unicode="O" horiz-adv-x="1724" 
d="M809 -27q-275 0 -453 181q-176 176 -176 442q0 340 240 598q249 264 596 264q275 0 452 -180q177 -177 177 -440q0 -343 -240 -598q-249 -267 -596 -267zM819 123q275 0 469 221q187 211 187 487q0 207 -127 340q-132 138 -342 138q-274 0 -469 -222q-187 -211 -187 -487
q0 -207 127 -340q131 -137 342 -137z" />
    <glyph glyph-name="P" unicode="P" horiz-adv-x="1366" 
d="M360 510l-118 -442q-21 -78 -90 -78q-41 0 -58 26q-22 28 -10 74l340 1262q21 82 92 82h379q273 0 410 -134q102 -108 102 -266q0 -245 -195 -387q-189 -137 -512 -137h-340zM399 653h310q249 0 391 97q139 100 139 274q0 105 -65 170q-90 90 -285 90h-322z" />
    <glyph glyph-name="Q" unicode="Q" horiz-adv-x="1724" 
d="M1090 537l174 -215q211 214 211 509q0 207 -127 340q-132 138 -342 138q-274 0 -469 -222q-187 -211 -187 -487q0 -207 127 -340q131 -137 342 -137q183 0 332 104l-170 195q-33 39 -33 70q0 79 76 79q42 0 66 -34zM1339 -8l-96 117q-201 -136 -434 -136q-275 0 -453 181
q-176 176 -176 442q0 340 240 598q249 264 596 264q275 0 452 -180q177 -177 177 -440q0 -377 -285 -641l92 -101q33 -36 33 -67q0 -74 -78 -74q-41 0 -68 37z" />
    <glyph glyph-name="R" unicode="R" horiz-adv-x="1468" 
d="M373 557l-131 -489q-21 -78 -90 -78q-41 0 -58 26q-22 28 -10 74l340 1262q21 82 92 82h447q269 0 403 -131q94 -98 94 -248q0 -179 -127 -312q-129 -129 -393 -170l246 -448q20 -33 20 -59q0 -76 -82 -76q-59 0 -86 53l-276 514h-389zM412 702h389q275 0 407 132
q86 89 86 208q0 97 -59 156q-86 86 -281 86h-385z" />
    <glyph glyph-name="S" unicode="S" horiz-adv-x="1304" 
d="M621 125q157 0 258 76q104 76 104 192q0 85 -63 142q-58 53 -232 120q-208 81 -295 162q-98 88 -98 221q0 177 147 297q149 119 381 119q265 0 453 -164q37 -27 37 -67q0 -78 -80 -78q-31 0 -57 20q-150 144 -367 144q-158 0 -252 -76q-92 -74 -92 -176q0 -85 74 -144
q57 -47 243 -120q194 -73 279 -156q92 -89 92 -223q0 -187 -158 -312q-152 -122 -385 -122q-335 0 -536 213q-31 31 -31 67q0 82 76 82q35 0 61 -29q173 -188 441 -188z" />
    <glyph glyph-name="T" unicode="T" horiz-adv-x="1261" 
d="M907 1284l-325 -1216q-21 -78 -90 -78q-41 0 -58 26q-22 28 -10 74l321 1194h-395q-76 0 -76 74q0 30 23 53t53 23h993q31 0 54 -23q22 -22 22 -53q0 -74 -76 -74h-436z" />
    <glyph glyph-name="U" unicode="U" horiz-adv-x="1552" 
d="M1587 1343l-205 -763q-73 -272 -225 -424q-179 -179 -446 -179q-251 0 -389 129q-134 125 -134 330q0 108 31 223l189 707q21 78 88 78q38 0 59 -27q20 -26 8 -74l-192 -727q-21 -86 -21 -161q0 -148 92 -234q98 -94 283 -94q188 0 319 131q124 127 183 350l205 758
q21 78 88 78q38 0 59 -27q20 -26 8 -74z" />
    <glyph glyph-name="V" unicode="V" horiz-adv-x="1468" 
d="M1581 1325l-885 -1268q-49 -73 -112 -73h-9q-64 0 -79 75l-203 1266q-6 18 -6 43q0 76 84 76q77 0 86 -78l172 -1165l813 1185q34 58 88 58q72 0 72 -62q0 -30 -21 -57z" />
    <glyph glyph-name="W" unicode="W" horiz-adv-x="2217" 
d="M2327 1327l-801 -1272q-43 -73 -105 -73h-8q-71 0 -74 77l-75 1088l-662 -1092q-46 -73 -104 -73h-9q-67 0 -73 77l-117 1264l-2 41q0 80 84 80q78 0 84 -76l90 -1128l680 1144q35 60 90 60h6q69 0 72 -66l72 -1138l704 1144q38 60 92 60q72 0 72 -66q0 -22 -16 -51z" />
    <glyph glyph-name="X" unicode="X" horiz-adv-x="1421" 
d="M864 719l320 -590q20 -33 20 -63q0 -76 -78 -76q-52 0 -79 55l-299 569l-580 -577q-47 -47 -84 -47q-70 0 -70 69q0 38 31 66l623 616l-308 564q-20 33 -20 63q0 76 78 76q53 0 80 -55l290 -545l551 553q44 47 84 47q70 0 70 -70q0 -35 -31 -63z" />
    <glyph glyph-name="Y" unicode="Y" horiz-adv-x="1357" 
d="M752 547l-127 -479q-21 -78 -90 -78q-41 0 -58 26q-22 28 -10 74l129 483l-317 734q-15 35 -15 59q0 78 84 78q55 0 82 -68l279 -667l657 690q45 45 88 45q70 0 70 -68q0 -36 -33 -69z" />
    <glyph glyph-name="Z" unicode="Z" horiz-adv-x="1370" 
d="M27 143l1185 1145h-790q-72 0 -72 72q0 74 72 74h979q65 0 65 -60v-2q0 -39 -43 -82l-1185 -1145h827q74 0 74 -71q0 -74 -74 -74h-1016q-65 0 -65 59v2q0 39 43 82z" />
    <glyph glyph-name="bracketleft" unicode="[" horiz-adv-x="899" 
d="M989 1311h-401l-389 -1454h368q62 0 62 -62q0 -61 -62 -61h-456q-40 0 -60 26q-21 24 -12 62l412 1530q21 82 102 82h436q62 0 62 -62q0 -61 -62 -61z" />
    <glyph glyph-name="backslash" unicode="\" horiz-adv-x="1040" 
d="M432 1579l412 -1743l6 -45q0 -63 -64 -63q-55 0 -67 65l-412 1743l-6 45q0 64 64 64q55 0 67 -66z" />
    <glyph glyph-name="bracketright" unicode="]" horiz-adv-x="899" 
d="M373 -266h-436q-62 0 -62 61q0 62 62 62h401l389 1454h-369q-61 0 -61 61q0 62 61 62h457q37 0 59 -25q20 -26 11 -63l-410 -1530q-21 -82 -102 -82z" />
    <glyph glyph-name="asciicircum" unicode="^" 
d="M309 1077l320 318q54 51 98 51h10q53 0 80 -53l154 -322q10 -30 10 -39q0 -31 -43 -31q-60 0 -88 54l-133 270l-283 -272q-52 -52 -106 -52q-41 0 -41 33q0 21 22 43z" />
    <glyph glyph-name="underscore" unicode="_" horiz-adv-x="1228" 
d="M1022 -328h-1237q-66 0 -66 66q0 63 66 63h1237q65 0 65 -63q0 -66 -65 -66z" />
    <glyph glyph-name="grave" unicode="`" 
d="M719 1247l-117 152q-18 27 -18 41q0 22 34 43q33 20 72 20q55 0 70 -49l71 -182l7 -29q0 -33 -45 -33q-47 0 -74 37z" />
    <glyph glyph-name="a" unicode="a" horiz-adv-x="1179" 
d="M424 100q137 0 256 88q122 88 160 228l20 73q-169 48 -344 48q-141 0 -229 -70t-88 -178q0 -85 61 -137t164 -52zM809 -10q-78 0 -66 80l27 96q-165 -189 -395 -189q-142 0 -236 76q-100 81 -100 217q0 175 133 281q129 102 338 102q177 0 377 -57l6 25q14 49 14 98
q0 215 -286 215q-120 0 -244 -37q-15 -6 -33 -6q-63 0 -63 65q0 53 53 68q148 49 311 49q198 0 307 -86q109 -89 109 -242q0 -61 -23 -145l-141 -532q-18 -78 -88 -78z" />
    <glyph glyph-name="b" unicode="b" horiz-adv-x="1349" 
d="M653 -25q-282 0 -397 263l-45 -170q-21 -78 -88 -78q-38 0 -55 26q-18 27 -9 72l359 1339q21 78 88 78q87 0 63 -98l-143 -530q180 204 401 204q182 0 299 -123q121 -127 121 -325q0 -277 -180 -469q-177 -189 -414 -189zM639 115q185 0 315 151q127 148 127 352
q0 148 -82 236t-217 88q-178 0 -323 -151q-148 -154 -148 -347q0 -137 90 -233q96 -96 238 -96z" />
    <glyph glyph-name="c" unicode="c" horiz-adv-x="1150" 
d="M948 121q-175 -146 -381 -146q-195 0 -327 123q-142 130 -142 340q0 261 187 451q183 192 436 192q250 0 381 -186q26 -29 26 -64q0 -71 -73 -71q-39 0 -64 31q-103 151 -280 151q-180 0 -316 -151q-135 -150 -135 -349q0 -148 96 -241q89 -86 219 -86q148 0 279 110
q25 19 53 19q66 0 66 -68q0 -30 -25 -55z" />
    <glyph glyph-name="d" unicode="d" horiz-adv-x="1349" 
d="M567 115q179 0 324 151q147 156 147 348q0 138 -90 234q-94 94 -237 94q-188 0 -316 -149q-127 -151 -127 -355q0 -145 84 -235q82 -88 215 -88zM961 -10q-74 0 -68 78l29 112q-178 -205 -400 -205q-182 0 -299 123q-121 127 -121 326q0 276 181 469q176 188 413 188
q290 0 398 -262l161 608q21 78 88 78q88 0 64 -98l-356 -1339q-21 -78 -90 -78z" />
    <glyph glyph-name="e" unicode="e" horiz-adv-x="1206" 
d="M279 594h682q10 33 10 82q0 117 -64 190q-70 82 -200 82q-152 0 -271 -104q-109 -94 -157 -250zM575 113q165 0 287 98q29 16 53 16q64 0 64 -63q0 -33 -31 -58q-162 -131 -381 -131q-212 0 -340 125q-129 126 -129 326q0 251 176 448q183 207 441 207q193 0 305 -118
q104 -113 104 -287q0 -63 -14 -129q-15 -72 -86 -72h-766l-2 -51q3 -143 88 -225q89 -86 231 -86z" />
    <glyph glyph-name="f" unicode="f" horiz-adv-x="768" 
d="M500 920l-230 -852q-18 -78 -88 -78q-38 0 -55 26t-8 72l223 832h-72q-65 3 -65 69q0 70 69 70h105l35 127q82 313 362 313q80 0 150 -24q57 -18 57 -70q0 -35 -25 -57q-27 -21 -61 -9q-64 23 -121 23q-160 0 -213 -201l-26 -102h264q69 0 69 -70q0 -69 -69 -69h-301z
" />
    <glyph glyph-name="g" unicode="g" horiz-adv-x="1349" 
d="M588 217q178 0 315 131t137 295q0 123 -86 209q-93 90 -239 90q-175 0 -303 -125q-133 -130 -133 -315q0 -137 94 -213q87 -72 215 -72zM1096 827l43 164q21 78 88 78q37 0 55 -27q17 -26 8 -71l-217 -819q-61 -223 -172 -334q-150 -150 -409 -150q-260 0 -467 148
q-39 26 -39 67q0 70 69 70q25 0 54 -16q178 -134 380 -134q191 0 297 109q86 86 134 254l28 106q-187 -190 -405 -190q-178 0 -297 104q-133 115 -133 295q0 258 186 432q174 168 408 168q269 0 389 -254z" />
    <glyph glyph-name="h" unicode="h" horiz-adv-x="1255" 
d="M1110 590l-139 -522q-18 -78 -86 -78q-41 0 -58 26q-18 27 -6 72l135 512q17 63 17 119q0 106 -64 164q-63 57 -174 57q-121 0 -231 -96q-111 -95 -152 -246l-141 -530q-18 -78 -88 -78q-38 0 -55 26q-18 27 -9 72l359 1339q21 78 88 78q87 0 63 -98l-139 -520
q173 194 369 194q154 0 245 -88q93 -90 93 -239q0 -62 -27 -164z" />
    <glyph glyph-name="i" unicode="i" horiz-adv-x="540" 
d="M598 1395l-10 -41q-18 -74 -105 -74q-40 0 -63 23q-25 25 -17 57l11 43q21 72 104 72q40 0 66 -23q23 -23 14 -57zM469 971l-242 -903q-21 -78 -88 -78q-87 0 -63 98l241 903q21 78 89 78q39 0 57 -27t6 -71z" />
    <glyph glyph-name="j" unicode="j" horiz-adv-x="538" 
d="M467 971l-279 -1041q-73 -264 -290 -264q-140 0 -140 74q0 76 76 67q38 -6 60 -6q100 0 141 142l280 1048q21 78 88 78q40 0 58 -27t6 -71zM596 1395l-10 -41q-18 -74 -105 -74q-40 0 -63 23q-25 25 -17 57l11 43q21 72 104 72q40 0 66 -23q23 -23 14 -57z" />
    <glyph glyph-name="k" unicode="k" horiz-adv-x="1163" 
d="M569 1407l-250 -936l713 569q37 29 64 29q65 0 65 -65q0 -38 -33 -58l-444 -350l242 -475q18 -37 18 -58q0 -73 -80 -73q-56 0 -82 57l-231 451l-285 -226l-55 -204q-18 -78 -88 -78q-38 0 -55 26q-18 27 -9 72l361 1339q21 78 86 78q40 0 57 -26q18 -27 6 -72z" />
    <glyph glyph-name="l" unicode="l" horiz-adv-x="540" 
d="M586 1407l-359 -1339q-21 -78 -88 -78q-87 0 -63 98l358 1339q21 78 88 78q41 0 58 -26q18 -27 6 -72z" />
    <glyph glyph-name="m" unicode="m" horiz-adv-x="1945" 
d="M788 88l136 512q16 59 16 119q0 103 -59 162t-162 59q-114 0 -221 -96q-105 -96 -146 -246l-141 -530q-18 -78 -88 -78q-38 0 -55 26q-18 27 -9 72l242 903q21 78 88 78q77 0 68 -78l-27 -104q173 194 352 194q246 0 301 -239q155 239 426 239q144 0 234 -90t90 -237
q0 -25 -29 -164l-139 -522q-18 -78 -88 -78q-38 0 -55 26q-18 27 -9 72l138 512q14 57 14 119q0 105 -57 162q-59 59 -162 59q-114 0 -221 -96q-105 -96 -146 -246l-141 -530q-18 -78 -86 -78q-40 0 -57 26q-19 28 -7 72z" />
    <glyph glyph-name="n" unicode="n" horiz-adv-x="1255" 
d="M389 1069q77 0 68 -78l-27 -104q173 194 369 194q154 0 245 -88q93 -90 93 -239q0 -62 -27 -164l-139 -522q-18 -78 -86 -78q-41 0 -58 26q-18 27 -6 72l135 512q17 63 17 119q0 106 -64 164q-63 57 -174 57q-121 0 -231 -96q-111 -95 -152 -246l-141 -530
q-18 -78 -88 -78q-38 0 -55 26q-18 27 -9 72l242 903q21 78 88 78z" />
    <glyph glyph-name="o" unicode="o" horiz-adv-x="1306" 
d="M582 -25q-215 0 -351 136q-131 131 -131 340q0 250 185 438q186 192 438 192q217 0 350 -133t133 -340q0 -254 -188 -442q-188 -191 -436 -191zM592 117q177 0 315 147q137 149 137 338q0 161 -92 250q-90 90 -239 90q-179 0 -318 -151q-135 -150 -135 -336
q0 -158 92 -250q88 -88 240 -88z" />
    <glyph glyph-name="p" unicode="p" horiz-adv-x="1349" 
d="M782 942q-178 0 -323 -151q-148 -154 -148 -347q0 -137 90 -233q96 -96 238 -96q185 0 315 151q127 148 127 352q0 148 -82 236t-217 88zM389 1069q77 0 68 -78l-31 -114q180 204 401 204q182 0 299 -123q121 -127 121 -325q0 -277 -180 -469q-177 -189 -414 -189
q-282 0 -397 263l-133 -498q-18 -78 -88 -78q-37 0 -55 27t-9 71l330 1231q21 78 88 78z" />
    <glyph glyph-name="q" unicode="q" horiz-adv-x="1349" 
d="M696 1081q290 0 398 -260l45 170q21 78 88 78q37 0 55 -27q17 -26 8 -71l-327 -1231q-21 -78 -89 -78q-87 0 -63 98l113 422q-186 -207 -402 -207q-182 0 -299 123q-121 127 -121 326q0 276 181 469q176 188 413 188zM711 942q-188 0 -316 -149q-127 -151 -127 -355
q0 -145 84 -235q82 -88 215 -88q180 0 324 153q147 153 147 346q0 138 -90 234q-94 94 -237 94z" />
    <glyph glyph-name="r" unicode="r" horiz-adv-x="823" 
d="M455 977l-49 -189q182 285 415 285q76 0 76 -74q0 -73 -90 -88q-168 -24 -301 -145q-140 -131 -199 -348l-94 -350q-21 -78 -88 -78q-88 0 -64 98l242 903q21 78 86 78q39 0 57 -27q18 -24 9 -65z" />
    <glyph glyph-name="s" unicode="s" horiz-adv-x="1015" 
d="M459 109q95 0 162 49q71 50 71 127q0 103 -200 180q-161 63 -222 119q-77 68 -77 172q0 140 108 231q113 94 293 94q192 0 342 -108q39 -20 39 -66q0 -69 -70 -69q-19 0 -45 16q-146 96 -280 96q-107 0 -170 -51q-60 -48 -60 -117q0 -98 211 -180q289 -120 289 -291
q0 -145 -119 -239q-115 -95 -287 -95q-230 0 -411 144q-33 26 -33 63q0 72 68 72q22 0 55 -23q151 -124 336 -124z" />
    <glyph glyph-name="t" unicode="t" horiz-adv-x="821" 
d="M375 1059l67 252q21 78 88 78q38 0 56 -27q17 -26 8 -72l-64 -231h254q68 0 68 -70q0 -69 -68 -69h-290l-164 -611q-8 -44 -8 -78q0 -108 145 -108q44 0 68 8q75 15 75 -57q0 -47 -51 -70q-68 -22 -143 -22q-118 0 -189 53q-71 56 -71 155q0 56 14 111l166 619h-72
q-65 3 -65 69q0 70 69 70h107z" />
    <glyph glyph-name="u" unicode="u" horiz-adv-x="1255" 
d="M864 -10q-74 0 -65 78l26 104q-174 -195 -370 -195q-155 0 -244 89q-92 89 -92 239q0 66 26 164l138 522q21 78 88 78q87 0 63 -98l-137 -512q-14 -57 -14 -119q0 -105 63 -162q62 -59 172 -59q124 0 234 96q108 96 149 248l141 528q21 78 88 78q40 0 58 -27t6 -71
l-240 -903q-18 -78 -90 -78z" />
    <glyph glyph-name="v" unicode="v" horiz-adv-x="1159" 
d="M1163 950l-635 -901q-47 -65 -102 -65h-4q-71 0 -80 69l-152 891q-6 18 -6 47q0 78 82 78q74 0 80 -76l119 -813l561 832q37 57 86 57q68 0 68 -63q0 -32 -17 -56z" />
    <glyph glyph-name="w" unicode="w" horiz-adv-x="1736" 
d="M276 63l-79 926q0 80 82 80q74 0 77 -76l56 -778l479 793q40 61 92 61h6q67 0 70 -68l55 -786l490 801q30 53 77 53q66 0 66 -61q0 -26 -16 -52l-566 -907q-44 -65 -98 -65h-4q-72 0 -78 79l-57 764l-475 -778q-41 -65 -99 -65h-4q-71 0 -74 79z" />
    <glyph glyph-name="x" unicode="x" horiz-adv-x="1155" 
d="M412 1012l190 -363l389 375q45 45 82 45q66 0 66 -63q0 -38 -37 -72l-430 -397l227 -410q21 -41 21 -66q0 -71 -76 -71q-52 0 -78 57l-203 389l-416 -401q-48 -45 -84 -45q-63 0 -63 63q0 38 37 72l459 424l-217 383q-21 38 -21 65q0 72 76 72q49 0 78 -57z" />
    <glyph glyph-name="y" unicode="y" horiz-adv-x="1175" 
d="M-35 -162q67 -33 133 -33q135 0 273 197l-178 942q-7 25 -7 47q0 78 78 78q74 0 80 -76l145 -819l547 838q34 57 84 57q70 0 70 -65q0 -26 -19 -58l-659 -981q-206 -299 -432 -299q-92 0 -176 41q-47 24 -47 70q0 71 67 71q14 0 41 -10z" />
    <glyph glyph-name="z" unicode="z" horiz-adv-x="1124" 
d="M311 1059h752q70 0 70 -58v-2q0 -40 -35 -67l-877 -799h615q67 0 67 -65q0 -68 -67 -68h-785q-69 0 -69 57v2q0 38 34 68l875 799h-580q-67 0 -67 65q0 68 67 68z" />
    <glyph glyph-name="braceleft" unicode="{" horiz-adv-x="989" 
d="M195 649h20q150 0 221 80q67 76 105 279q41 219 149 321q118 112 363 133q69 3 69 -55q0 -53 -55 -59q-181 -18 -272 -109q-80 -86 -109 -258q-37 -210 -108 -299q-71 -83 -211 -104q149 -37 149 -172q0 -59 -22 -130q-43 -128 -43 -210q0 -174 184 -238q43 -18 43 -55
q0 -30 -21 -45q-24 -17 -55 -9q-305 77 -305 326q0 75 47 227q21 64 21 121q0 127 -166 133h-2q-72 9 -72 62q0 61 70 61z" />
    <glyph glyph-name="bar" unicode="|" horiz-adv-x="620" 
d="M285 -205v1782q0 68 65 68q66 0 66 -68v-1782q0 -67 -66 -67q-65 0 -65 67z" />
    <glyph glyph-name="braceright" unicode="}" horiz-adv-x="989" 
d="M825 526h-20q-152 0 -223 -80q-68 -77 -105 -278q-38 -219 -147 -322q-118 -112 -363 -133q-69 -3 -69 56q0 53 55 59q181 18 272 109q80 86 109 258q37 210 108 299q71 83 211 104q-151 38 -151 172q0 56 24 129q43 142 43 211q0 174 -184 238q-45 17 -45 55q0 31 20 45
q24 17 58 8q303 -76 303 -326q0 -76 -45 -227q-23 -77 -23 -121q0 -124 168 -133h2q72 -9 72 -61q0 -62 -70 -62z" />
    <glyph glyph-name="asciitilde" unicode="~" horiz-adv-x="970" 
d="M225 485q-53 0 -53 50q0 27 14 47q94 168 215 168q70 0 144 -68q65 -59 100 -59q51 0 109 88q24 37 53 37q55 0 55 -50q0 -24 -14 -49q-99 -166 -215 -166q-67 0 -144 68q-65 59 -100 59q-49 0 -108 -90q-21 -35 -56 -35z" />
    <glyph glyph-name="uni00A0" unicode="&#xa0;" horiz-adv-x="614" 
 />
    <glyph glyph-name="exclamdown" unicode="&#xa1;" horiz-adv-x="555" 
d="M59 63l295 932q15 41 49 41q50 0 41 -57l-204 -924q-9 -61 -72 -61h-62q-32 0 -43 20q-14 16 -4 49zM469 1208q-42 0 -68 29q-27 27 -14 70l14 51q21 86 109 86q42 0 68 -29q23 -26 14 -69l-14 -52q-21 -86 -109 -86z" />
    <glyph glyph-name="cent" unicode="&#xa2;" horiz-adv-x="1159" 
d="M1026 311q-171 -139 -395 -139q-39 0 -94 8l-56 -139q-27 -64 -73 -64q-32 0 -48 25q-15 27 -4 59l60 154q-266 120 -266 418q0 267 184 457t446 190q44 0 56 -2l43 115q26 63 73 63q34 0 49 -24q17 -27 3 -60l-48 -119q146 -41 228 -163q24 -34 24 -60q0 -74 -73 -74
q-39 0 -62 29q-68 99 -176 133l-315 -801q20 -4 53 -4q158 0 303 109q29 16 53 16q66 0 66 -69q0 -36 -31 -58zM309 635q0 -203 166 -285l309 789h-20q-189 -3 -322 -154t-133 -350z" />
    <glyph glyph-name="sterling" unicode="&#xa3;" horiz-adv-x="1288" 
d="M928 1300q-129 0 -219 -90q-84 -84 -127 -245l-60 -220h492q71 0 71 -71q0 -70 -71 -70h-531l-123 -461h644q73 0 73 -71q0 -72 -73 -72h-955q-53 0 -53 51q0 41 45 53l158 35l125 465h-91q-71 0 -71 70q0 71 71 71h127l68 248q55 210 164 316q138 141 346 141
q215 0 346 -158q33 -36 33 -67q0 -82 -80 -82q-37 0 -59 28q-102 129 -250 129z" />
    <glyph glyph-name="yen" unicode="&#xa5;" horiz-adv-x="1439" 
d="M762 729l643 670q45 45 80 45q67 0 67 -68q0 -28 -30 -69l-627 -635h285q63 0 63 -64q0 -63 -63 -63h-385l-47 -180h350q63 0 63 -64q0 -63 -63 -63h-385l-45 -170q-18 -78 -86 -78q-40 0 -58 24q-22 28 -10 74l41 150h-344q-66 0 -66 63q0 64 66 64h377l47 180h-344
q-64 0 -64 63q0 64 64 64h325l-278 637q-14 32 -14 57q0 78 79 78q61 0 82 -62z" />
    <glyph glyph-name="section" unicode="&#xa7;" horiz-adv-x="1294" 
d="M807 526q106 0 180 47t74 113q0 98 -246 180q-130 43 -231 43q-107 0 -181 -47q-73 -46 -73 -112q0 -99 245 -181q122 -43 232 -43zM602 111q96 0 158 39q63 37 63 98q0 96 -264 184q-208 70 -285 125q-100 69 -100 172q0 113 105 186q100 69 266 78q-135 73 -135 191
q0 122 116 198q112 74 281 74q230 0 407 -131q35 -24 35 -63q0 -74 -71 -74q-27 0 -48 18q-155 119 -339 119q-96 0 -160 -37q-64 -40 -64 -100q0 -96 264 -184q208 -70 285 -125q101 -70 101 -172q0 -113 -105 -187q-100 -69 -266 -78q135 -70 135 -190q0 -122 -115 -199
q-113 -73 -278 -73q-246 0 -426 139q-31 28 -31 61q0 74 70 74q24 0 51 -18q155 -125 350 -125z" />
    <glyph glyph-name="dieresis" unicode="&#xa8;" 
d="M543 1427q42 0 65 -26q24 -27 15 -64l-15 -51q-21 -80 -106 -80q-42 0 -66 27q-22 26 -14 63l14 52q21 79 107 79zM905 1427q43 0 66 -26t14 -64l-14 -51q-21 -80 -107 -80q-41 0 -65 27q-23 26 -15 63l15 52q21 79 106 79z" />
    <glyph glyph-name="copyright" unicode="&#xa9;" horiz-adv-x="1699" 
d="M897 -25q-308 0 -526 218q-213 219 -213 522q0 306 215 524q219 219 528 219t526 -217q213 -219 213 -522q0 -306 -215 -524q-220 -220 -528 -220zM897 39q285 0 483 201q193 196 193 479q0 284 -193 477q-193 199 -479 199t-481 -201q-195 -198 -195 -479
q0 -284 193 -477q193 -199 479 -199zM907 334q-160 0 -272 115q-109 115 -109 276v4q0 162 109 277q114 114 274 114q151 0 267 -96q22 -19 22 -47q0 -55 -55 -55q-13 0 -39 16q-95 80 -195 80q-114 0 -192 -84q-76 -82 -76 -203v-4q0 -119 78 -203q80 -86 190 -86
q111 0 205 82q15 15 37 15q51 0 51 -50q0 -22 -18 -43q-120 -108 -277 -108z" />
    <glyph glyph-name="ordfeminine" unicode="&#xaa;" horiz-adv-x="798" 
d="M424 913q72 0 139 52q67 51 84 118l8 27q-90 23 -166 23q-72 0 -118 -37q-47 -38 -47 -95q0 -88 100 -88zM537 1348q-66 0 -121 -19q-24 -6 -33 -6q-41 0 -41 45q0 33 39 45q85 29 176 29q231 0 231 -182q0 -30 -12 -82l-78 -287q-12 -53 -59 -53q-52 0 -43 55l12 47
q-93 -106 -219 -106q-77 0 -123 43q-51 42 -51 112q0 102 76 160q74 59 190 59q77 0 191 -30l4 12q8 24 8 49q0 109 -147 109zM606 592h-444q-49 0 -49 47q0 49 49 49h444q47 0 47 -49q0 -47 -47 -47z" />
    <glyph glyph-name="guillemotleft" unicode="&#xab;" horiz-adv-x="1126" 
d="M121 557l379 367q41 41 73 41q62 0 62 -64q0 -31 -25 -53l-346 -342l146 -311q12 -27 12 -48q0 -65 -70 -65q-47 0 -67 45l-168 340q-17 39 -17 47q0 22 21 43zM575 557l379 367q41 41 72 41q64 0 64 -64q0 -28 -25 -53l-346 -342l145 -311q13 -29 13 -48q0 -65 -70 -65
q-48 0 -68 45l-170 340q-16 37 -16 47q0 21 22 43z" />
    <glyph glyph-name="registered" unicode="&#xae;" horiz-adv-x="825" 
d="M567 737q-149 0 -254 105q-102 105 -102 252v2q0 148 104 252q103 106 252 106q150 0 254 -104q103 -106 103 -252v-2q0 -147 -105 -252q-104 -107 -252 -107zM567 776q135 0 226 94q90 96 90 226v2q0 130 -90 223q-91 94 -226 94q-134 0 -225 -94q-90 -96 -90 -225v-2
q0 -131 90 -224q91 -94 225 -94zM428 950v299q0 35 35 35h129q139 0 139 -115q0 -82 -80 -112l70 -82q10 -13 10 -27q0 -35 -33 -35q-16 0 -32 19l-95 115h-73v-97q0 -37 -35 -37t-35 37zM498 1104h88q73 0 73 59q0 60 -73 60h-88v-119z" />
    <glyph glyph-name="overscore" unicode="&#xaf;" 
d="M997 1260h-542q-66 0 -66 65q0 66 66 66h542q66 0 66 -66q0 -65 -66 -65z" />
    <glyph glyph-name="degree" unicode="&#xb0;" horiz-adv-x="792" 
d="M457 815q-121 0 -199 78t-78 197q0 141 105 249q104 107 250 107q122 0 200 -78q76 -76 76 -194q0 -143 -104 -250q-106 -109 -250 -109zM467 922q93 0 160 73t67 168q0 79 -47 129q-47 47 -123 47q-92 0 -159 -73q-68 -74 -68 -168q0 -79 47 -129q47 -47 123 -47z" />
    <glyph glyph-name="plusminus" unicode="&#xb1;" horiz-adv-x="1280" 
d="M774 745l-88 -331q-21 -76 -86 -76q-38 0 -53 27q-18 27 -6 67l84 313h-326q-72 0 -72 72t72 72h365l88 332q21 75 84 75q38 0 55 -26q15 -27 6 -66l-84 -315h324q71 0 71 -70q0 -74 -71 -74h-363zM938 0h-838q-71 0 -71 72q0 29 20 49t51 20h838q31 0 51 -20
q21 -21 21 -49q0 -72 -72 -72z" />
    <glyph glyph-name="acute" unicode="&#xb4;" 
d="M874 1397l-198 -148q-45 -39 -105 -39q-45 0 -45 31q0 15 15 33l174 188q43 43 76 43q37 0 73 -20q39 -20 39 -43q0 -22 -29 -45z" />
    <glyph glyph-name="paragraph" unicode="&#xb6;" horiz-adv-x="1058" 
d="M1075 1346l-344 -1278q-18 -78 -90 -78q-40 0 -57 26q-23 29 -11 74l111 420q-483 21 -483 391q0 246 178 387q184 146 504 146h125q38 0 57 -25t10 -63z" />
    <glyph glyph-name="middot" unicode="&#xb7;" horiz-adv-x="522" 
d="M299 733q43 0 68 -28q27 -27 14 -70l-14 -51q-21 -86 -109 -86q-43 0 -68 28q-24 27 -14 70l14 51q21 86 109 86z" />
    <glyph glyph-name="cedilla" unicode="&#xb8;" 
d="M510 20l-213 -290q-21 -35 -59 -35q-33 0 -54 18q-24 21 -24 43q0 26 22 51l203 213h125z" />
    <glyph glyph-name="ordmasculine" unicode="&#xba;" horiz-adv-x="804" 
d="M502 829q-121 0 -197 76t-76 193q0 140 101 241q102 105 243 105q123 0 199 -76q74 -77 74 -192q0 -141 -101 -242q-102 -105 -243 -105zM508 924q96 0 162 75q67 76 67 172q0 79 -47 129t-123 50q-94 0 -164 -76q-65 -74 -65 -172q0 -79 47 -129q46 -49 123 -49z
M649 592h-483q-49 0 -49 47q0 49 49 49h483q49 0 49 -49q0 -47 -49 -47z" />
    <glyph glyph-name="guillemotright" unicode="&#xbb;" horiz-adv-x="1126" 
d="M1001 496l-378 -369q-41 -41 -74 -41q-62 0 -62 64q0 33 25 55l346 340l-145 311q-13 29 -13 47q0 68 70 68q47 0 68 -47l168 -338q16 -29 16 -47q0 -25 -21 -43zM547 496l-379 -369q-41 -41 -72 -41q-63 0 -63 64q0 31 24 55l346 340l-145 311q-12 27 -12 47q0 68 69 68
q47 0 68 -47l170 -338q16 -37 16 -47q0 -24 -22 -43z" />
    <glyph glyph-name="questiondown" unicode="&#xbf;" horiz-adv-x="1099" 
d="M864 260q39 25 62 25q67 0 67 -66q0 -34 -30 -61q-197 -176 -449 -176q-192 0 -311 104q-113 101 -113 258q0 190 154 311q140 114 383 148l65 186q21 49 62 49h4q56 0 47 -61l-41 -232q-9 -54 -72 -63q-196 -21 -311 -104q-123 -86 -123 -222q0 -105 78 -168
q74 -59 194 -59q172 0 334 131zM819 1208q-41 0 -67 29q-28 28 -15 70l15 51q21 86 108 86q42 0 68 -29q23 -26 14 -69l-14 -52q-21 -86 -109 -86z" />
    <glyph glyph-name="Agrave" unicode="&#xc0;" horiz-adv-x="1529" 
d="M467 526h659l-133 734zM1128 1372l238 -1259q6 -38 6 -45q0 -78 -82 -78q-67 0 -82 71l-55 318h-788l-242 -334q-43 -55 -84 -55q-68 0 -68 67q0 30 19 52l921 1271q52 70 119 70h4q76 0 94 -78zM977 1610l-117 151q-18 27 -18 41q0 22 35 43t71 21q55 0 70 -49l72 -183
l6 -28q0 -33 -45 -33q-47 0 -74 37z" />
    <glyph glyph-name="Aacute" unicode="&#xc1;" horiz-adv-x="1529" 
d="M467 526h659l-133 734zM1128 1372l238 -1259q6 -38 6 -45q0 -78 -82 -78q-67 0 -82 71l-55 318h-788l-242 -334q-43 -55 -84 -55q-68 0 -68 67q0 30 19 52l921 1271q52 70 119 70h4q76 0 94 -78zM1380 1759l-198 -147q-45 -39 -105 -39q-45 0 -45 31q0 14 15 32l174 189
q43 43 75 43q36 0 74 -21q39 -20 39 -43q0 -22 -29 -45z" />
    <glyph glyph-name="Acircumflex" unicode="&#xc2;" horiz-adv-x="1529" 
d="M467 526h659l-133 734zM1128 1372l238 -1259q6 -38 6 -45q0 -78 -82 -78q-67 0 -82 71l-55 318h-788l-242 -334q-43 -55 -84 -55q-68 0 -68 67q0 30 19 52l921 1271q52 70 119 70h4q76 0 94 -78zM1229 1810l92 -172q14 -22 14 -36q0 -29 -39 -29q-63 0 -96 39l-86 106
l-153 -106q-56 -39 -103 -39q-39 0 -39 29q0 15 23 38l184 172q49 46 92 46h35q48 0 76 -48z" />
    <glyph glyph-name="Atilde" unicode="&#xc3;" horiz-adv-x="1529" 
d="M467 526h659l-133 734zM1128 1372l238 -1259q6 -38 6 -45q0 -78 -82 -78q-67 0 -82 71l-55 318h-788l-242 -334q-43 -55 -84 -55q-68 0 -68 67q0 30 19 52l921 1271q52 70 119 70h4q76 0 94 -78zM813 1573q-53 0 -53 47q0 24 14 49q94 166 213 166q69 0 146 -68
q68 -59 100 -59q49 0 108 90q21 35 54 35q55 0 55 -49q0 -27 -14 -47q-94 -168 -215 -168q-68 0 -144 67q-66 60 -102 60q-52 0 -107 -88q-21 -35 -55 -35z" />
    <glyph glyph-name="Adieresis" unicode="&#xc4;" horiz-adv-x="1529" 
d="M467 526h659l-133 734zM1128 1372l238 -1259q6 -38 6 -45q0 -78 -82 -78q-67 0 -82 71l-55 318h-788l-242 -334q-43 -55 -84 -55q-68 0 -68 67q0 30 19 52l921 1271q52 70 119 70h4q76 0 94 -78zM940 1790q42 0 66 -27q23 -26 14 -63l-14 -51q-21 -80 -107 -80
q-42 0 -65 26q-23 27 -15 64l15 51q21 80 106 80zM1303 1790q41 0 65 -27q23 -26 14 -63l-14 -51q-21 -80 -106 -80q-43 0 -66 26t-14 64l14 51q21 80 107 80z" />
    <glyph glyph-name="Aring" unicode="&#xc5;" horiz-adv-x="1529" 
d="M39 -10q-68 0 -68 67q0 30 19 52l938 1292q-84 50 -84 145q0 97 69 160q68 68 164 68q92 0 150 -52q55 -52 55 -129q0 -158 -158 -211l242 -1269q6 -38 6 -45q0 -78 -82 -78q-67 0 -82 71l-55 318h-788l-242 -334q-43 -55 -84 -55zM467 526h659l-133 734zM1051 1444
q60 0 100 43q41 44 41 104q0 103 -117 103q-60 0 -100 -43q-41 -44 -41 -105q0 -102 117 -102z" />
    <glyph glyph-name="AE" unicode="&#xc6;" horiz-adv-x="2181" 
d="M549 526h498l204 764h-51zM1202 1434h1004q73 0 73 -74t-73 -74h-793l-131 -489h660q30 0 53 -23q20 -20 20 -51q0 -74 -73 -74h-699l-135 -502h764q31 0 51 -20q23 -23 23 -53q0 -28 -23 -51t-51 -23h-875q-36 0 -57 27q-20 26 -8 67l78 285h-582l-285 -334
q-49 -55 -90 -55q-63 0 -63 63q0 31 26 64l1071 1249q59 68 115 68z" />
    <glyph glyph-name="Ccedilla" unicode="&#xc7;" horiz-adv-x="1505" 
d="M1300 172q-217 -199 -516 -199h-14l-178 -243q-21 -35 -60 -35q-32 0 -53 18q-24 21 -24 43q0 26 22 51l170 181q-210 41 -338 190q-135 156 -135 389q0 352 252 619q254 272 608 272q324 0 490 -233q28 -36 28 -70q-3 -81 -82 -78q-42 0 -61 29q-141 203 -389 203
q-274 0 -477 -226q-199 -220 -199 -510q0 -203 127 -327q124 -121 322 -121q222 0 405 162q31 22 57 22q76 0 76 -76q0 -30 -31 -61z" />
    <glyph glyph-name="Egrave" unicode="&#xc8;" horiz-adv-x="1337" 
d="M1051 0h-897q-40 0 -58 27q-22 28 -10 67l338 1258q21 82 92 82h870q74 0 74 -74t-74 -74h-819l-131 -489h686q31 0 54 -23q20 -20 20 -51q0 -74 -74 -74h-725l-135 -502h789q73 0 73 -73q0 -74 -73 -74zM885 1589l-117 152q-18 27 -18 41q0 22 34 43q33 20 72 20
q55 0 70 -49l71 -182l7 -29q0 -33 -46 -33t-73 37z" />
    <glyph glyph-name="Eacute" unicode="&#xc9;" horiz-adv-x="1337" 
d="M1288 1739l-198 -148q-45 -39 -105 -39q-45 0 -45 31q0 16 14 33l174 188q43 43 76 43q38 0 74 -20q39 -20 39 -43q0 -22 -29 -45zM1051 0h-897q-40 0 -58 27q-22 28 -10 67l338 1258q21 82 92 82h870q74 0 74 -74t-74 -74h-819l-131 -489h686q31 0 54 -23q20 -20 20 -51
q0 -74 -74 -74h-725l-135 -502h789q73 0 73 -73q0 -74 -73 -74z" />
    <glyph glyph-name="Ecircumflex" unicode="&#xca;" horiz-adv-x="1337" 
d="M1137 1790l92 -172q14 -22 14 -37q0 -29 -39 -29q-63 0 -96 39l-86 107l-154 -107q-56 -39 -102 -39q-39 0 -39 29q0 16 23 39l184 172q48 45 92 45h35q49 0 76 -47zM1051 0h-897q-40 0 -58 27q-22 28 -10 67l338 1258q21 82 92 82h870q74 0 74 -74t-74 -74h-819
l-131 -489h686q31 0 54 -23q20 -20 20 -51q0 -74 -74 -74h-725l-135 -502h789q73 0 73 -73q0 -74 -73 -74z" />
    <glyph glyph-name="Edieresis" unicode="&#xcb;" horiz-adv-x="1337" 
d="M848 1769q42 0 65 -26q24 -27 15 -64l-15 -51q-21 -80 -106 -80q-42 0 -66 27q-22 26 -14 63l14 52q21 79 107 79zM1210 1769q43 0 66 -26t14 -64l-14 -51q-21 -80 -107 -80q-41 0 -65 27q-22 26 -14 63l14 52q21 79 106 79zM1051 0h-897q-40 0 -58 27q-22 28 -10 67
l338 1258q21 82 92 82h870q74 0 74 -74t-74 -74h-819l-131 -489h686q31 0 54 -23q20 -20 20 -51q0 -74 -74 -74h-725l-135 -502h789q73 0 73 -73q0 -74 -73 -74z" />
    <glyph glyph-name="Igrave" unicode="&#xcc;" horiz-adv-x="595" 
d="M598 1343l-342 -1275q-21 -78 -90 -78q-40 0 -57 26q-23 29 -11 74l344 1276q21 78 88 78q39 0 60 -27q20 -26 8 -74zM479 1589l-117 152q-18 27 -18 41q0 22 35 43q33 20 72 20q54 0 69 -49l72 -182l6 -29q0 -33 -45 -33q-47 0 -74 37z" />
    <glyph glyph-name="Iacute" unicode="&#xcd;" horiz-adv-x="595" 
d="M598 1343l-342 -1275q-21 -78 -90 -78q-40 0 -57 26q-23 29 -11 74l344 1276q21 78 88 78q39 0 60 -27q20 -26 8 -74zM881 1739l-199 -148q-45 -39 -104 -39q-46 0 -46 31q0 15 15 33l174 188q43 43 76 43q37 0 73 -20q39 -20 39 -43t-28 -45z" />
    <glyph glyph-name="Icircumflex" unicode="&#xce;" horiz-adv-x="595" 
d="M598 1343l-342 -1275q-21 -78 -90 -78q-40 0 -57 26q-23 29 -11 74l344 1276q21 78 88 78q39 0 60 -27q20 -26 8 -74zM731 1790l92 -172q15 -24 15 -37q0 -29 -39 -29q-64 0 -97 39l-86 107l-153 -107q-56 -39 -103 -39q-38 0 -38 29q0 17 22 39l184 172q48 45 93 45h34
q49 0 76 -47z" />
    <glyph glyph-name="Idieresis" unicode="&#xcf;" horiz-adv-x="595" 
d="M598 1343l-342 -1275q-21 -78 -90 -78q-40 0 -57 26q-23 29 -11 74l344 1276q21 78 88 78q39 0 60 -27q20 -26 8 -74zM442 1769q43 0 66 -26t14 -64l-14 -51q-21 -80 -107 -80q-41 0 -65 27q-22 26 -14 63l14 52q21 79 106 79zM805 1769q42 0 65 -26q24 -27 15 -64
l-15 -51q-21 -80 -106 -80q-42 0 -66 27q-22 26 -14 63l14 52q21 79 107 79z" />
    <glyph glyph-name="Eth" unicode="&#xd0;" horiz-adv-x="1638" 
d="M571 1434h279q366 0 557 -191q158 -158 158 -412q0 -331 -228 -559q-272 -272 -735 -272h-393q-36 0 -57 27q-20 26 -11 67l148 553h-72q-74 0 -74 74t74 74h113l149 557q21 82 92 82zM319 150h304q363 0 594 225q178 178 178 446q0 199 -119 318q-151 145 -438 145h-213
l-131 -489h340q30 0 51 -21q22 -22 22 -53q0 -29 -22 -51q-23 -23 -51 -23h-381z" />
    <glyph glyph-name="Ntilde" unicode="&#xd1;" horiz-adv-x="1609" 
d="M1180 270l295 1096q21 78 88 78q39 0 57 -27q21 -27 6 -74l-342 -1277q-21 -72 -82 -72h-4q-59 0 -88 63l-571 1133l-301 -1122q-21 -78 -88 -78q-41 0 -58 26q-20 26 -8 74l342 1270q21 80 94 80h8q63 0 101 -72zM821 1552q-53 0 -53 47q0 25 14 50q94 166 213 166
q69 0 146 -68q68 -59 100 -59q50 0 109 90q21 34 53 34q55 0 55 -49q0 -27 -14 -47q-94 -168 -215 -168q-67 0 -144 68q-65 59 -102 59q-51 0 -106 -88q-21 -35 -56 -35z" />
    <glyph glyph-name="Ograve" unicode="&#xd2;" horiz-adv-x="1724" 
d="M809 -27q-275 0 -453 181q-176 176 -176 442q0 340 240 598q249 264 596 264q275 0 452 -180q177 -177 177 -440q0 -343 -240 -598q-249 -267 -596 -267zM819 123q275 0 469 221q187 211 187 487q0 207 -127 340q-132 138 -342 138q-274 0 -469 -222q-187 -211 -187 -487
q0 -207 127 -340q131 -137 342 -137zM1022 1610l-117 151q-18 27 -18 41q0 22 35 43t71 21q55 0 70 -49l72 -183l6 -28q0 -33 -45 -33q-47 0 -74 37z" />
    <glyph glyph-name="Oacute" unicode="&#xd3;" horiz-adv-x="1724" 
d="M1425 1759l-198 -147q-45 -39 -105 -39q-45 0 -45 31q0 14 15 32l174 189q43 43 75 43q37 0 74 -21q39 -20 39 -43q0 -22 -29 -45zM809 -27q-275 0 -453 181q-176 176 -176 442q0 340 240 598q249 264 596 264q275 0 452 -180q177 -177 177 -440q0 -343 -240 -598
q-249 -267 -596 -267zM819 123q275 0 469 221q187 211 187 487q0 207 -127 340q-132 138 -342 138q-274 0 -469 -222q-187 -211 -187 -487q0 -207 127 -340q131 -137 342 -137z" />
    <glyph glyph-name="Ocircumflex" unicode="&#xd4;" horiz-adv-x="1724" 
d="M1272 1810l92 -172q14 -22 14 -36q0 -29 -39 -29q-63 0 -96 39l-86 106l-153 -106q-56 -39 -103 -39q-39 0 -39 29q0 15 23 38l184 172q49 46 92 46h35q48 0 76 -48zM809 -27q-275 0 -453 181q-176 176 -176 442q0 340 240 598q249 264 596 264q275 0 452 -180
q177 -177 177 -440q0 -343 -240 -598q-249 -267 -596 -267zM819 123q275 0 469 221q187 211 187 487q0 207 -127 340q-132 138 -342 138q-274 0 -469 -222q-187 -211 -187 -487q0 -207 127 -340q131 -137 342 -137z" />
    <glyph glyph-name="Otilde" unicode="&#xd5;" horiz-adv-x="1724" 
d="M809 -27q-275 0 -453 181q-176 176 -176 442q0 340 240 598q249 264 596 264q275 0 452 -180q177 -177 177 -440q0 -343 -240 -598q-249 -267 -596 -267zM819 123q275 0 469 221q187 211 187 487q0 207 -127 340q-132 138 -342 138q-274 0 -469 -222q-187 -211 -187 -487
q0 -207 127 -340q131 -137 342 -137zM858 1573q-53 0 -53 47q0 24 14 49q94 166 213 166q69 0 146 -68q68 -59 100 -59q49 0 108 90q21 35 54 35q55 0 55 -49q0 -27 -14 -47q-94 -168 -215 -168q-68 0 -144 67q-66 60 -102 60q-52 0 -107 -88q-21 -35 -55 -35z" />
    <glyph glyph-name="Odieresis" unicode="&#xd6;" horiz-adv-x="1724" 
d="M983 1790q42 0 66 -27q23 -26 14 -63l-14 -51q-21 -80 -107 -80q-42 0 -65 26q-23 27 -15 64l15 51q21 80 106 80zM1346 1790q41 0 65 -27q23 -26 14 -63l-14 -51q-21 -80 -106 -80q-43 0 -66 26t-14 64l14 51q21 80 107 80zM809 -27q-275 0 -453 181q-176 176 -176 442
q0 340 240 598q249 264 596 264q275 0 452 -180q177 -177 177 -440q0 -343 -240 -598q-249 -267 -596 -267zM819 123q275 0 469 221q187 211 187 487q0 207 -127 340q-132 138 -342 138q-274 0 -469 -222q-187 -211 -187 -487q0 -207 127 -340q131 -137 342 -137z" />
    <glyph glyph-name="multiply" unicode="&#xd7;" horiz-adv-x="1280" 
d="M795 711l223 -299q18 -27 18 -54q0 -31 -22 -53t-56 -22q-42 0 -63 34l-219 306l-404 -322q-21 -18 -47 -18q-67 0 -67 71q0 36 30 60l406 317l-223 301q-19 25 -19 51q0 30 23 56q22 22 55 22q40 0 64 -35l219 -305l403 322q22 16 47 16q68 0 68 -72q0 -34 -31 -59z" />
    <glyph glyph-name="Oslash" unicode="&#xd8;" horiz-adv-x="1724" 
d="M346 600q0 -126 53 -235l959 802q-137 146 -352 146q-276 0 -471 -223q-189 -213 -189 -490zM819 119q276 0 471 223q189 213 189 489q0 133 -58 240l-956 -803q125 -149 354 -149zM344 168l-184 -156q-40 -32 -72 -32q-53 0 -53 53q0 26 33 59l202 170q-90 153 -90 334
q0 340 240 598q249 264 596 264q282 0 461 -188l180 151q42 33 69 33q56 0 56 -51q0 -32 -35 -62l-197 -165q95 -154 95 -338q0 -343 -240 -598q-249 -267 -596 -267q-282 0 -465 195z" />
    <glyph glyph-name="Ugrave" unicode="&#xd9;" horiz-adv-x="1552" 
d="M1587 1343l-205 -763q-73 -272 -225 -424q-179 -179 -446 -179q-251 0 -389 129q-134 125 -134 330q0 108 31 223l189 707q21 78 88 78q38 0 59 -27q20 -26 8 -74l-192 -727q-21 -86 -21 -161q0 -148 92 -234q98 -94 283 -94q188 0 319 131q124 127 183 350l205 758
q21 78 88 78q38 0 59 -27q20 -26 8 -74zM936 1589l-117 152q-18 27 -18 41q0 22 35 43q33 20 71 20q55 0 70 -49l72 -182l6 -29q0 -33 -45 -33q-47 0 -74 37z" />
    <glyph glyph-name="Uacute" unicode="&#xda;" horiz-adv-x="1552" 
d="M1339 1739l-198 -148q-45 -39 -105 -39q-45 0 -45 31q0 15 15 33l174 188q43 43 75 43q38 0 74 -20q39 -20 39 -43q0 -22 -29 -45zM1587 1343l-205 -763q-73 -272 -225 -424q-179 -179 -446 -179q-251 0 -389 129q-134 125 -134 330q0 108 31 223l189 707q21 78 88 78
q38 0 59 -27q20 -26 8 -74l-192 -727q-21 -86 -21 -161q0 -148 92 -234q98 -94 283 -94q188 0 319 131q124 127 183 350l205 758q21 78 88 78q38 0 59 -27q20 -26 8 -74z" />
    <glyph glyph-name="Ucircumflex" unicode="&#xdb;" horiz-adv-x="1552" 
d="M1188 1790l92 -172q14 -22 14 -37q0 -29 -39 -29q-63 0 -96 39l-86 107l-153 -107q-56 -39 -103 -39q-39 0 -39 29q0 16 23 39l184 172q48 45 92 45h35q49 0 76 -47zM1587 1343l-205 -763q-73 -272 -225 -424q-179 -179 -446 -179q-251 0 -389 129q-134 125 -134 330
q0 108 31 223l189 707q21 78 88 78q38 0 59 -27q20 -26 8 -74l-192 -727q-21 -86 -21 -161q0 -148 92 -234q98 -94 283 -94q188 0 319 131q124 127 183 350l205 758q21 78 88 78q38 0 59 -27q20 -26 8 -74z" />
    <glyph glyph-name="Udieresis" unicode="&#xdc;" horiz-adv-x="1552" 
d="M899 1769q43 0 66 -26t14 -64l-14 -51q-21 -80 -107 -80q-41 0 -65 27q-23 26 -15 63l15 52q21 79 106 79zM1262 1769q42 0 65 -26t14 -64l-14 -51q-21 -80 -106 -80q-42 0 -66 27q-22 26 -14 63l14 52q21 79 107 79zM1587 1343l-205 -763q-73 -272 -225 -424
q-179 -179 -446 -179q-251 0 -389 129q-134 125 -134 330q0 108 31 223l189 707q21 78 88 78q38 0 59 -27q20 -26 8 -74l-192 -727q-21 -86 -21 -161q0 -148 92 -234q98 -94 283 -94q188 0 319 131q124 127 183 350l205 758q21 78 88 78q38 0 59 -27q20 -26 8 -74z" />
    <glyph glyph-name="Yacute" unicode="&#xdd;" horiz-adv-x="1357" 
d="M752 547l-127 -479q-21 -78 -90 -78q-41 0 -58 26q-22 28 -10 74l129 483l-317 734q-15 35 -15 59q0 78 84 78q55 0 82 -68l279 -667l657 690q45 45 88 45q70 0 70 -68q0 -36 -33 -69zM1231 1739l-199 -148q-45 -39 -104 -39q-45 0 -45 31q0 16 14 33l174 188
q43 43 76 43q38 0 74 -20q39 -20 39 -43q0 -22 -29 -45z" />
    <glyph glyph-name="Thorn" unicode="&#xde;" horiz-adv-x="1380" 
d="M334 408h309q251 0 391 96q140 100 140 272q0 107 -68 172q-90 90 -283 90h-321zM543 1188h284q276 0 412 -133q100 -103 100 -269q0 -249 -194 -387q-186 -137 -510 -137h-340l-53 -194q-21 -78 -90 -78q-41 0 -58 26q-22 28 -10 74l344 1276q21 78 88 78q39 0 57 -27
q21 -27 9 -74z" />
    <glyph glyph-name="germandbls" unicode="&#xdf;" horiz-adv-x="1275" 
d="M702 811q377 99 377 342q0 98 -67 156q-70 61 -185 61q-272 0 -366 -371l-250 -931q-18 -78 -88 -78q-38 0 -55 26q-18 27 -9 72l252 938q58 223 178 340q137 143 349 143q175 0 288 -98q111 -99 111 -248q0 -306 -401 -420q294 -85 294 -321q0 -187 -172 -307
q-168 -119 -426 -119q-69 0 -69 65q0 60 61 66q226 12 344 98q103 77 103 199q0 174 -262 242q-64 21 -64 71q0 59 57 74z" />
    <glyph glyph-name="agrave" unicode="&#xe0;" horiz-adv-x="1179" 
d="M424 100q137 0 256 88q122 88 160 228l20 73q-169 48 -344 48q-141 0 -229 -70t-88 -178q0 -85 61 -137t164 -52zM809 -10q-78 0 -66 80l27 96q-165 -189 -395 -189q-142 0 -236 76q-100 81 -100 217q0 175 133 281q129 102 338 102q177 0 377 -57l6 25q14 49 14 98
q0 215 -286 215q-120 0 -244 -37q-15 -6 -33 -6q-63 0 -63 65q0 53 53 68q148 49 311 49q198 0 307 -86q109 -89 109 -242q0 -61 -23 -145l-141 -532q-18 -78 -88 -78zM643 1247l-117 152q-18 27 -18 41q0 22 35 43q33 20 71 20q55 0 70 -49l72 -182l6 -29q0 -33 -45 -33
q-47 0 -74 37z" />
    <glyph glyph-name="aacute" unicode="&#xe1;" horiz-adv-x="1179" 
d="M424 100q137 0 256 88q122 88 160 228l20 73q-169 48 -344 48q-141 0 -229 -70t-88 -178q0 -85 61 -137t164 -52zM809 -10q-78 0 -66 80l27 96q-165 -189 -395 -189q-142 0 -236 76q-100 81 -100 217q0 175 133 281q129 102 338 102q177 0 377 -57l6 25q14 49 14 98
q0 215 -286 215q-120 0 -244 -37q-15 -6 -33 -6q-63 0 -63 65q0 53 53 68q148 49 311 49q198 0 307 -86q109 -89 109 -242q0 -61 -23 -145l-141 -532q-18 -78 -88 -78zM1044 1397l-198 -148q-45 -39 -105 -39q-45 0 -45 31q0 15 15 33l174 188q43 43 76 43q37 0 73 -20
q39 -20 39 -43q0 -22 -29 -45z" />
    <glyph glyph-name="acircumflex" unicode="&#xe2;" horiz-adv-x="1179" 
d="M424 100q137 0 256 88q122 88 160 228l20 73q-169 48 -344 48q-141 0 -229 -70t-88 -178q0 -85 61 -137t164 -52zM809 -10q-78 0 -66 80l27 96q-165 -189 -395 -189q-142 0 -236 76q-100 81 -100 217q0 175 133 281q129 102 338 102q177 0 377 -57l6 25q14 49 14 98
q0 215 -286 215q-120 0 -244 -37q-15 -6 -33 -6q-63 0 -63 65q0 53 53 68q148 49 311 49q198 0 307 -86q109 -89 109 -242q0 -61 -23 -145l-141 -532q-18 -78 -88 -78zM893 1448l92 -172q14 -22 14 -37q0 -29 -38 -29q-64 0 -97 39l-86 107l-153 -107q-56 -39 -103 -39
q-39 0 -39 29q0 16 23 39l184 172q48 45 92 45h35q49 0 76 -47z" />
    <glyph glyph-name="atilde" unicode="&#xe3;" horiz-adv-x="1179" 
d="M424 100q137 0 256 88q122 88 160 228l20 73q-169 48 -344 48q-141 0 -229 -70t-88 -178q0 -85 61 -137t164 -52zM809 -10q-78 0 -66 80l27 96q-165 -189 -395 -189q-142 0 -236 76q-100 81 -100 217q0 175 133 281q129 102 338 102q177 0 377 -57l6 25q14 49 14 98
q0 215 -286 215q-120 0 -244 -37q-15 -6 -33 -6q-63 0 -63 65q0 53 53 68q148 49 311 49q198 0 307 -86q109 -89 109 -242q0 -61 -23 -145l-141 -532q-18 -78 -88 -78zM477 1210q-53 0 -53 47q0 25 14 50q94 166 213 166q69 0 146 -68q68 -59 100 -59q50 0 109 90
q21 34 53 34q55 0 55 -49q0 -27 -14 -47q-94 -168 -215 -168q-67 0 -144 68q-65 59 -102 59q-52 0 -107 -88q-21 -35 -55 -35z" />
    <glyph glyph-name="adieresis" unicode="&#xe4;" horiz-adv-x="1179" 
d="M424 100q137 0 256 88q122 88 160 228l20 73q-169 48 -344 48q-141 0 -229 -70t-88 -178q0 -85 61 -137t164 -52zM809 -10q-78 0 -66 80l27 96q-165 -189 -395 -189q-142 0 -236 76q-100 81 -100 217q0 175 133 281q129 102 338 102q177 0 377 -57l6 25q14 49 14 98
q0 215 -286 215q-120 0 -244 -37q-15 -6 -33 -6q-63 0 -63 65q0 53 53 68q148 49 311 49q198 0 307 -86q109 -89 109 -242q0 -61 -23 -145l-141 -532q-18 -78 -88 -78zM602 1427q43 0 66 -26t14 -64l-14 -51q-21 -80 -107 -80q-41 0 -65 27q-23 26 -15 63l15 52
q21 79 106 79zM965 1427q42 0 65 -26t14 -64l-14 -51q-21 -80 -106 -80q-42 0 -66 27q-22 26 -14 63l14 52q21 79 107 79z" />
    <glyph glyph-name="aring" unicode="&#xe5;" horiz-adv-x="1179" 
d="M424 100q137 0 256 88q122 88 160 228l20 73q-169 48 -344 48q-141 0 -229 -70t-88 -178q0 -85 61 -137t164 -52zM809 -10q-78 0 -66 80l27 96q-165 -189 -395 -189q-142 0 -236 76q-100 81 -100 217q0 175 133 281q129 102 338 102q177 0 377 -57l6 25q14 49 14 98
q0 215 -286 215q-120 0 -244 -37q-15 -6 -33 -6q-63 0 -63 65q0 53 53 68q148 49 311 49q198 0 307 -86q109 -89 109 -242q0 -61 -23 -145l-141 -532q-18 -78 -88 -78zM774 1217q-91 0 -145 51q-54 54 -54 129q0 90 72 159q71 68 164 68q90 0 147 -51q54 -54 54 -129
q0 -91 -72 -160q-70 -67 -166 -67zM778 1296q60 0 103 43q41 44 41 103q0 104 -113 104q-59 0 -102 -43q-43 -46 -43 -104q0 -103 114 -103z" />
    <glyph glyph-name="ae" unicode="&#xe6;" horiz-adv-x="1961" 
d="M522 537q-142 0 -231 -68q-92 -68 -92 -174q0 -89 61 -141q66 -54 176 -54q231 0 443 226q-11 64 -11 98q0 9 4 63q-148 50 -350 50zM1882 676q0 -80 -14 -129q-15 -72 -84 -72h-766q-4 -46 -4 -51q3 -143 88 -225q89 -86 231 -86q165 0 287 98q37 16 55 16q62 0 62 -63
q0 -33 -31 -58q-158 -131 -379 -131q-305 0 -416 244q-230 -242 -514 -242q-157 0 -258 78q-100 78 -100 221q0 176 137 277q129 100 340 100q191 0 371 -57l6 25q14 49 14 98q0 215 -286 215q-126 0 -244 -37q-15 -6 -33 -6q-63 0 -63 65q0 53 53 68q151 49 311 49
q323 0 387 -223q182 231 443 231q194 0 303 -118q104 -113 104 -287zM1038 594h682q9 37 9 82q0 117 -64 190q-70 82 -201 82q-151 0 -270 -104q-108 -97 -156 -250z" />
    <glyph glyph-name="ccedilla" unicode="&#xe7;" horiz-adv-x="1150" 
d="M948 121q-175 -146 -381 -146h-2l-180 -245q-21 -35 -59 -35q-33 0 -54 18q-24 21 -24 43q0 26 22 51l174 183q-151 38 -245 151q-101 122 -101 297q0 261 187 451q183 192 436 192q250 0 381 -186q26 -29 26 -64q0 -71 -73 -71q-39 0 -64 31q-103 151 -280 151
q-180 0 -316 -151q-135 -150 -135 -349q0 -148 96 -241q89 -86 219 -86q148 0 279 110q25 19 53 19q66 0 66 -68q0 -30 -25 -55z" />
    <glyph glyph-name="egrave" unicode="&#xe8;" horiz-adv-x="1206" 
d="M279 594h682q10 33 10 82q0 117 -64 190q-70 82 -200 82q-152 0 -271 -104q-109 -94 -157 -250zM575 113q165 0 287 98q29 16 53 16q64 0 64 -63q0 -33 -31 -58q-162 -131 -381 -131q-212 0 -340 125q-129 126 -129 326q0 251 176 448q183 207 441 207q193 0 305 -118
q104 -113 104 -287q0 -63 -14 -129q-15 -72 -86 -72h-766l-2 -51q3 -143 88 -225q89 -86 231 -86zM682 1247l-117 152q-18 27 -18 41q0 22 35 43q33 20 71 20q55 0 70 -49l72 -182l6 -29q0 -33 -45 -33q-47 0 -74 37z" />
    <glyph glyph-name="eacute" unicode="&#xe9;" horiz-adv-x="1206" 
d="M1085 1397l-198 -148q-45 -39 -105 -39q-45 0 -45 31q0 15 15 33l174 188q43 43 75 43q38 0 74 -20q39 -20 39 -43q0 -22 -29 -45zM279 594h682q10 33 10 82q0 117 -64 190q-70 82 -200 82q-152 0 -271 -104q-109 -94 -157 -250zM575 113q165 0 287 98q29 16 53 16
q64 0 64 -63q0 -33 -31 -58q-162 -131 -381 -131q-212 0 -340 125q-129 126 -129 326q0 251 176 448q183 207 441 207q193 0 305 -118q104 -113 104 -287q0 -63 -14 -129q-15 -72 -86 -72h-766l-2 -51q3 -143 88 -225q89 -86 231 -86z" />
    <glyph glyph-name="ecircumflex" unicode="&#xea;" horiz-adv-x="1206" 
d="M932 1448l92 -172q14 -22 14 -37q0 -29 -39 -29q-63 0 -96 39l-86 107l-153 -107q-56 -39 -103 -39q-39 0 -39 29q0 16 23 39l184 172q48 45 92 45h35q49 0 76 -47zM279 594h682q10 33 10 82q0 117 -64 190q-70 82 -200 82q-152 0 -271 -104q-109 -94 -157 -250zM575 113
q165 0 287 98q29 16 53 16q64 0 64 -63q0 -33 -31 -58q-162 -131 -381 -131q-212 0 -340 125q-129 126 -129 326q0 251 176 448q183 207 441 207q193 0 305 -118q104 -113 104 -287q0 -63 -14 -129q-15 -72 -86 -72h-766l-2 -51q3 -143 88 -225q89 -86 231 -86z" />
    <glyph glyph-name="edieresis" unicode="&#xeb;" horiz-adv-x="1206" 
d="M643 1427q43 0 66 -26t14 -64l-14 -51q-21 -80 -107 -80q-41 0 -65 27q-23 26 -15 63l15 52q21 79 106 79zM1006 1427q42 0 65 -26t14 -64l-14 -51q-21 -80 -106 -80q-42 0 -66 27q-22 26 -14 63l14 52q21 79 107 79zM279 594h682q10 33 10 82q0 117 -64 190
q-70 82 -200 82q-152 0 -271 -104q-109 -94 -157 -250zM575 113q165 0 287 98q29 16 53 16q64 0 64 -63q0 -33 -31 -58q-162 -131 -381 -131q-212 0 -340 125q-129 126 -129 326q0 251 176 448q183 207 441 207q193 0 305 -118q104 -113 104 -287q0 -63 -14 -129
q-15 -72 -86 -72h-766l-2 -51q3 -143 88 -225q89 -86 231 -86z" />
    <glyph glyph-name="igrave" unicode="&#xec;" horiz-adv-x="540" 
d="M469 971l-242 -903q-21 -78 -88 -78q-87 0 -63 98l241 903q21 78 89 78q39 0 57 -27t6 -71zM360 1247l-116 152q-19 28 -19 41q0 22 35 43q33 20 72 20q54 0 69 -49l72 -182l6 -29q0 -33 -45 -33q-47 0 -74 37z" />
    <glyph glyph-name="iacute" unicode="&#xed;" horiz-adv-x="540" 
d="M764 1397l-199 -148q-45 -39 -104 -39q-45 0 -45 31q0 16 14 33l174 188q43 43 76 43q38 0 74 -20q39 -20 39 -43q0 -22 -29 -45zM469 971l-242 -903q-21 -78 -88 -78q-87 0 -63 98l241 903q21 78 89 78q39 0 57 -27t6 -71z" />
    <glyph glyph-name="icircumflex" unicode="&#xee;" horiz-adv-x="540" 
d="M612 1448l93 -172q14 -22 14 -37q0 -29 -39 -29q-63 0 -96 39l-86 107l-154 -107q-56 -39 -102 -39q-39 0 -39 29q0 17 22 39l185 172q48 45 92 45h35q48 0 75 -47zM469 971l-242 -903q-21 -78 -88 -78q-87 0 -63 98l241 903q21 78 89 78q39 0 57 -27t6 -71z" />
    <glyph glyph-name="idieresis" unicode="&#xef;" horiz-adv-x="540" 
d="M326 1427q42 0 65 -26q24 -27 15 -64l-15 -51q-21 -80 -106 -80q-42 0 -66 27q-22 26 -14 63l14 52q21 79 107 79zM688 1427q43 0 66 -26t14 -64l-14 -51q-21 -80 -107 -80q-41 0 -65 27q-23 26 -15 63l15 52q21 79 106 79zM469 971l-242 -903q-21 -78 -88 -78
q-87 0 -63 98l241 903q21 78 89 78q39 0 57 -27t6 -71z" />
    <glyph glyph-name="eth" unicode="&#xf0;" horiz-adv-x="1273" 
d="M502 1247l262 109l-14 35q-11 26 -11 43q0 71 80 71q54 0 72 -49l16 -41l197 84q12 6 33 6q53 0 53 -55q0 -42 -45 -57l-195 -82l131 -322q95 -235 95 -397q0 -249 -168 -426q-180 -189 -445 -189q-205 0 -338 127t-133 322q0 231 170 401q169 166 393 166
q186 0 314 -110l-160 368l-268 -110q-12 -6 -33 -6q-53 0 -53 53q0 44 47 59zM575 117q181 0 310 129q127 130 127 307q0 133 -90 223q-95 92 -252 92q-172 0 -295 -129q-125 -128 -125 -305q0 -145 92 -231q89 -86 233 -86z" />
    <glyph glyph-name="ntilde" unicode="&#xf1;" horiz-adv-x="1255" 
d="M389 1069q77 0 68 -78l-27 -104q173 194 369 194q154 0 245 -88q93 -90 93 -239q0 -62 -27 -164l-139 -522q-18 -78 -86 -78q-41 0 -58 26q-18 27 -6 72l135 512q17 63 17 119q0 106 -64 164q-63 57 -174 57q-121 0 -231 -96q-111 -95 -152 -246l-141 -530
q-18 -78 -88 -78q-38 0 -55 26q-18 27 -9 72l242 903q21 78 88 78zM545 1210q-53 0 -53 47q0 25 14 50q94 166 213 166q68 0 145 -68q68 -59 101 -59q49 0 108 90q21 34 53 34q56 0 56 -49q0 -26 -15 -47q-94 -168 -215 -168q-66 0 -143 68q-65 59 -102 59q-52 0 -107 -88
q-21 -35 -55 -35z" />
    <glyph glyph-name="ograve" unicode="&#xf2;" horiz-adv-x="1306" 
d="M582 -25q-215 0 -351 136q-131 131 -131 340q0 250 185 438q186 192 438 192q217 0 350 -133t133 -340q0 -254 -188 -442q-188 -191 -436 -191zM592 117q177 0 315 147q137 149 137 338q0 161 -92 250q-90 90 -239 90q-179 0 -318 -151q-135 -150 -135 -336
q0 -158 92 -250q88 -88 240 -88zM727 1247l-117 152q-18 27 -18 41q0 22 35 43q33 20 71 20q55 0 70 -49l72 -182l6 -29q0 -33 -45 -33q-47 0 -74 37z" />
    <glyph glyph-name="oacute" unicode="&#xf3;" horiz-adv-x="1306" 
d="M1130 1397l-198 -148q-45 -39 -105 -39q-45 0 -45 31q0 15 15 33l174 188q43 43 76 43q37 0 73 -20q39 -20 39 -43q0 -22 -29 -45zM582 -25q-215 0 -351 136q-131 131 -131 340q0 250 185 438q186 192 438 192q217 0 350 -133t133 -340q0 -254 -188 -442
q-188 -191 -436 -191zM592 117q177 0 315 147q137 149 137 338q0 161 -92 250q-90 90 -239 90q-179 0 -318 -151q-135 -150 -135 -336q0 -158 92 -250q88 -88 240 -88z" />
    <glyph glyph-name="ocircumflex" unicode="&#xf4;" horiz-adv-x="1306" 
d="M979 1448l92 -172q14 -22 14 -37q0 -29 -38 -29q-64 0 -97 39l-86 107l-153 -107q-56 -39 -103 -39q-39 0 -39 29q0 16 23 39l184 172q48 45 92 45h35q49 0 76 -47zM582 -25q-215 0 -351 136q-131 131 -131 340q0 250 185 438q186 192 438 192q217 0 350 -133t133 -340
q0 -254 -188 -442q-188 -191 -436 -191zM592 117q177 0 315 147q137 149 137 338q0 161 -92 250q-90 90 -239 90q-179 0 -318 -151q-135 -150 -135 -336q0 -158 92 -250q88 -88 240 -88z" />
    <glyph glyph-name="otilde" unicode="&#xf5;" horiz-adv-x="1306" 
d="M582 -25q-215 0 -351 136q-131 131 -131 340q0 250 185 438q186 192 438 192q217 0 350 -133t133 -340q0 -254 -188 -442q-188 -191 -436 -191zM592 117q177 0 315 147q137 149 137 338q0 161 -92 250q-90 90 -239 90q-179 0 -318 -151q-135 -150 -135 -336
q0 -158 92 -250q88 -88 240 -88zM565 1210q-53 0 -53 47q0 25 14 50q94 166 213 166q69 0 146 -68q68 -59 100 -59q50 0 109 90q21 34 53 34q55 0 55 -49q0 -27 -14 -47q-94 -168 -215 -168q-67 0 -144 68q-65 59 -102 59q-51 0 -106 -88q-21 -35 -56 -35z" />
    <glyph glyph-name="odieresis" unicode="&#xf6;" horiz-adv-x="1306" 
d="M690 1427q43 0 66 -26t14 -64l-14 -51q-21 -80 -107 -80q-41 0 -65 27q-23 26 -15 63l15 52q21 79 106 79zM1053 1427q42 0 65 -26q24 -27 15 -64l-15 -51q-21 -80 -106 -80q-42 0 -66 27q-22 26 -14 63l14 52q21 79 107 79zM582 -25q-215 0 -351 136q-131 131 -131 340
q0 250 185 438q186 192 438 192q217 0 350 -133t133 -340q0 -254 -188 -442q-188 -191 -436 -191zM592 117q177 0 315 147q137 149 137 338q0 161 -92 250q-90 90 -239 90q-179 0 -318 -151q-135 -150 -135 -336q0 -158 92 -250q88 -88 240 -88z" />
    <glyph glyph-name="divide" unicode="&#xf7;" horiz-adv-x="1280" 
d="M1133 649h-879q-72 0 -72 72t72 72h879q28 0 49 -21q20 -20 20 -51t-20 -51q-21 -21 -49 -21zM821 1243q44 0 70 -26q27 -27 18 -70l-10 -45q-21 -90 -119 -90q-43 0 -69 26q-28 28 -19 70l10 45q21 90 119 90zM604 430q43 0 70 -27t18 -69l-10 -45q-21 -90 -119 -90
q-43 0 -69 26q-28 28 -19 70l10 45q21 90 119 90z" />
    <glyph glyph-name="oslash" unicode="&#xf8;" horiz-adv-x="1306" 
d="M592 113q180 0 317 149q138 147 138 340q0 89 -31 162l-664 -561q87 -90 240 -90zM258 455q0 -79 31 -158l661 559q-88 88 -237 88q-181 0 -320 -151q-135 -150 -135 -338zM242 104l-117 -98q-33 -26 -62 -26q-53 0 -53 51q0 30 31 55l127 104q-68 112 -68 261
q0 250 185 438q186 192 438 192q207 0 338 -125l119 99q33 26 61 26q53 0 53 -49q0 -27 -30 -57l-127 -105q69 -115 69 -262q0 -254 -188 -442q-188 -191 -436 -191q-208 0 -340 129z" />
    <glyph glyph-name="ugrave" unicode="&#xf9;" horiz-adv-x="1255" 
d="M864 -10q-74 0 -65 78l26 104q-174 -195 -370 -195q-155 0 -244 89q-92 89 -92 239q0 66 26 164l138 522q21 78 88 78q87 0 63 -98l-137 -512q-14 -57 -14 -119q0 -105 63 -162q62 -59 172 -59q124 0 234 96q108 96 149 248l141 528q21 78 88 78q40 0 58 -27t6 -71
l-240 -903q-18 -78 -90 -78zM694 1247l-116 152q-19 28 -19 41q0 22 35 43q33 20 72 20q54 0 69 -49l72 -182l6 -29q0 -33 -45 -33q-47 0 -74 37z" />
    <glyph glyph-name="uacute" unicode="&#xfa;" horiz-adv-x="1255" 
d="M1096 1397l-199 -148q-45 -39 -104 -39q-45 0 -45 31q0 16 14 33l174 188q43 43 76 43q37 0 73 -20q39 -20 39 -43t-28 -45zM864 -10q-74 0 -65 78l26 104q-174 -195 -370 -195q-155 0 -244 89q-92 89 -92 239q0 66 26 164l138 522q21 78 88 78q87 0 63 -98l-137 -512
q-14 -57 -14 -119q0 -105 63 -162q62 -59 172 -59q124 0 234 96q108 96 149 248l141 528q21 78 88 78q40 0 58 -27t6 -71l-240 -903q-18 -78 -90 -78z" />
    <glyph glyph-name="ucircumflex" unicode="&#xfb;" horiz-adv-x="1255" 
d="M944 1448l92 -172q15 -24 15 -37q0 -29 -39 -29q-64 0 -97 39l-86 107l-153 -107q-56 -39 -103 -39q-38 0 -38 29q0 17 22 39l184 172q48 45 93 45h34q49 0 76 -47zM864 -10q-74 0 -65 78l26 104q-174 -195 -370 -195q-155 0 -244 89q-92 89 -92 239q0 66 26 164l138 522
q21 78 88 78q87 0 63 -98l-137 -512q-14 -57 -14 -119q0 -105 63 -162q62 -59 172 -59q124 0 234 96q108 96 149 248l141 528q21 78 88 78q40 0 58 -27t6 -71l-240 -903q-18 -78 -90 -78z" />
    <glyph glyph-name="udieresis" unicode="&#xfc;" horiz-adv-x="1255" 
d="M655 1427q43 0 66 -26t14 -64l-14 -51q-21 -80 -107 -80q-41 0 -65 27q-22 26 -14 63l14 52q21 79 106 79zM1018 1427q42 0 65 -26q24 -27 15 -64l-15 -51q-21 -80 -106 -80q-42 0 -66 27q-22 26 -14 63l14 52q21 79 107 79zM864 -10q-74 0 -65 78l26 104
q-174 -195 -370 -195q-155 0 -244 89q-92 89 -92 239q0 66 26 164l138 522q21 78 88 78q87 0 63 -98l-137 -512q-14 -57 -14 -119q0 -105 63 -162q62 -59 172 -59q124 0 234 96q108 96 149 248l141 528q21 78 88 78q40 0 58 -27t6 -71l-240 -903q-18 -78 -90 -78z" />
    <glyph glyph-name="yacute" unicode="&#xfd;" horiz-adv-x="1175" 
d="M-35 -162q67 -33 133 -33q135 0 273 197l-178 942q-7 25 -7 47q0 78 78 78q74 0 80 -76l145 -819l547 838q34 57 84 57q70 0 70 -65q0 -26 -19 -58l-659 -981q-206 -299 -432 -299q-92 0 -176 41q-47 24 -47 70q0 71 67 71q14 0 41 -10zM1028 1397l-199 -148
q-45 -39 -104 -39q-45 0 -45 31q0 16 14 33l174 188q43 43 76 43q38 0 74 -20q39 -20 39 -43q0 -22 -29 -45z" />
    <glyph glyph-name="thorn" unicode="&#xfe;" horiz-adv-x="1349" 
d="M639 115q185 0 315 151q127 148 127 352q0 148 -82 236t-217 88q-178 0 -323 -151q-148 -154 -148 -347q0 -137 90 -233q96 -96 238 -96zM-29 -240l447 1667q21 78 88 78q40 0 57 -26q18 -27 6 -72l-143 -530q180 204 401 204q182 0 299 -123q121 -127 121 -325
q0 -277 -180 -469q-177 -189 -414 -189q-282 0 -397 263l-133 -498q-18 -78 -88 -78q-37 0 -55 27t-9 71z" />
    <glyph glyph-name="ydieresis" unicode="&#xff;" horiz-adv-x="1175" 
d="M-35 -162q67 -33 133 -33q135 0 273 197l-178 942q-7 25 -7 47q0 78 78 78q74 0 80 -76l145 -819l547 838q34 57 84 57q70 0 70 -65q0 -26 -19 -58l-659 -981q-206 -299 -432 -299q-92 0 -176 41q-47 24 -47 70q0 71 67 71q14 0 41 -10zM588 1427q42 0 65 -26
q24 -27 15 -64l-15 -51q-21 -80 -106 -80q-42 0 -66 27q-22 26 -14 63l14 52q21 79 107 79zM950 1427q43 0 66 -26t14 -64l-14 -51q-21 -80 -107 -80q-41 0 -65 27q-23 26 -15 63l15 52q21 79 106 79z" />
    <glyph glyph-name="Amacron" unicode="&#x100;" horiz-adv-x="1529" 
d="M467 526h659l-133 734zM1128 1372l238 -1259q6 -38 6 -45q0 -78 -82 -78q-67 0 -82 71l-55 318h-788l-242 -334q-43 -55 -84 -55q-68 0 -68 67q0 30 19 52l921 1271q52 70 119 70h4q76 0 94 -78zM1376 1622h-542q-66 0 -66 66q0 65 66 65h542q66 0 66 -65q0 -66 -66 -66z
" />
    <glyph glyph-name="amacron" unicode="&#x101;" horiz-adv-x="1179" 
d="M424 100q137 0 256 88q122 88 160 228l20 73q-169 48 -344 48q-141 0 -229 -70t-88 -178q0 -85 61 -137t164 -52zM809 -10q-78 0 -66 80l27 96q-165 -189 -395 -189q-142 0 -236 76q-100 81 -100 217q0 175 133 281q129 102 338 102q177 0 377 -57l6 25q14 49 14 98
q0 215 -286 215q-120 0 -244 -37q-15 -6 -33 -6q-63 0 -63 65q0 53 53 68q148 49 311 49q198 0 307 -86q109 -89 109 -242q0 -61 -23 -145l-141 -532q-18 -78 -88 -78zM1038 1260h-542q-66 0 -66 65q0 66 66 66h542q66 0 66 -66q0 -65 -66 -65z" />
    <glyph glyph-name="Abreve" unicode="&#x102;" horiz-adv-x="1529" 
d="M467 526h659l-133 734zM1128 1372l238 -1259q6 -38 6 -45q0 -78 -82 -78q-67 0 -82 71l-55 318h-788l-242 -334q-43 -55 -84 -55q-68 0 -68 67q0 30 19 52l921 1271q52 70 119 70h4q76 0 94 -78zM1085 1577q-106 0 -174 53q-69 54 -69 150q0 80 63 80q43 0 58 -45
q24 -107 145 -107q112 0 195 111q30 41 65 41q55 0 55 -52q0 -21 -12 -39q-104 -192 -326 -192z" />
    <glyph glyph-name="abreve" unicode="&#x103;" horiz-adv-x="1179" 
d="M424 100q137 0 256 88q122 88 160 228l20 73q-169 48 -344 48q-141 0 -229 -70t-88 -178q0 -85 61 -137t164 -52zM809 -10q-78 0 -66 80l27 96q-165 -189 -395 -189q-142 0 -236 76q-100 81 -100 217q0 175 133 281q129 102 338 102q177 0 377 -57l6 25q14 49 14 98
q0 215 -286 215q-120 0 -244 -37q-15 -6 -33 -6q-63 0 -63 65q0 53 53 68q148 49 311 49q198 0 307 -86q109 -89 109 -242q0 -61 -23 -145l-141 -532q-18 -78 -88 -78zM752 1214q-105 0 -174 54q-70 55 -70 149q0 80 63 80q43 0 58 -45q24 -106 145 -106q113 0 195 110
q30 41 65 41q56 0 56 -51q0 -20 -13 -39q-105 -193 -325 -193z" />
    <glyph glyph-name="Aogonek" unicode="&#x104;" horiz-adv-x="1529" 
d="M1253 -336q-204 0 -204 133q0 103 178 223q-15 9 -15 27l-59 332h-788l-242 -334q-43 -55 -84 -55q-68 0 -68 67q0 30 19 52l921 1271q52 70 119 70h4q76 0 94 -78l238 -1259q6 -38 6 -45q0 -39 -33 -62q-149 -113 -149 -178q0 -49 94 -70q41 -9 41 -45q0 -49 -72 -49z
M467 526h659l-133 734z" />
    <glyph glyph-name="aogonek" unicode="&#x105;" horiz-adv-x="1179" 
d="M854 2q-143 -107 -143 -174q0 -49 94 -70q41 -9 41 -45q0 -49 -72 -49q-100 0 -156 39q-51 36 -51 94q0 105 185 228v16q-6 6 18 125q-165 -189 -395 -189q-142 0 -236 76q-100 81 -100 217q0 175 133 281q129 102 338 102q177 0 377 -57l6 25q14 49 14 98
q0 215 -286 215q-120 0 -244 -37q-15 -6 -33 -6q-63 0 -63 65q0 53 53 68q148 49 311 49q198 0 307 -86q109 -89 109 -242q0 -61 -23 -145l-141 -532q-9 -39 -43 -66zM424 100q137 0 256 88q122 88 160 228l20 73q-169 48 -344 48q-141 0 -229 -70t-88 -178q0 -85 61 -137
t164 -52z" />
    <glyph glyph-name="Cacute" unicode="&#x106;" horiz-adv-x="1505" 
d="M1384 1759l-198 -147q-45 -39 -105 -39q-45 0 -45 31q0 14 15 32l174 189q43 43 75 43q36 0 74 -21q39 -20 39 -43q0 -22 -29 -45zM1300 172q-217 -199 -516 -199q-258 0 -432 160q-178 163 -178 434q0 352 252 619q254 272 608 272q324 0 490 -233q28 -36 28 -70
q-3 -81 -82 -78q-42 0 -61 29q-141 203 -389 203q-274 0 -477 -226q-199 -220 -199 -510q0 -203 127 -327q124 -121 322 -121q222 0 405 162q31 22 57 22q76 0 76 -76q0 -30 -31 -61z" />
    <glyph glyph-name="cacute" unicode="&#x107;" horiz-adv-x="1150" 
d="M1075 1397l-198 -148q-45 -39 -105 -39q-45 0 -45 31q0 16 14 33l174 188q43 43 76 43q38 0 74 -20q39 -20 39 -43q0 -22 -29 -45zM948 121q-175 -146 -381 -146q-195 0 -327 123q-142 130 -142 340q0 261 187 451q183 192 436 192q250 0 381 -186q26 -29 26 -64
q0 -71 -73 -71q-39 0 -64 31q-103 151 -280 151q-180 0 -316 -151q-135 -150 -135 -349q0 -148 96 -241q89 -86 219 -86q148 0 279 110q25 19 53 19q66 0 66 -68q0 -30 -25 -55z" />
    <glyph glyph-name="Cdotaccent" unicode="&#x10a;" horiz-adv-x="1505" 
d="M1300 172q-217 -199 -516 -199q-258 0 -432 160q-178 163 -178 434q0 352 252 619q254 272 608 272q324 0 490 -233q28 -36 28 -70q-3 -81 -82 -78q-42 0 -61 29q-141 203 -389 203q-274 0 -477 -226q-199 -220 -199 -510q0 -203 127 -327q124 -121 322 -121
q222 0 405 162q31 22 57 22q76 0 76 -76q0 -30 -31 -61zM1124 1790q42 0 66 -27q23 -26 14 -63l-14 -51q-21 -80 -107 -80q-42 0 -65 26t-14 64l14 51q21 80 106 80z" />
    <glyph glyph-name="cdotaccent" unicode="&#x10b;" horiz-adv-x="1150" 
d="M948 121q-175 -146 -381 -146q-195 0 -327 123q-142 130 -142 340q0 261 187 451q183 192 436 192q250 0 381 -186q26 -29 26 -64q0 -71 -73 -71q-39 0 -64 31q-103 151 -280 151q-180 0 -316 -151q-135 -150 -135 -349q0 -148 96 -241q89 -86 219 -86q148 0 279 110
q25 19 53 19q66 0 66 -68q0 -30 -25 -55zM815 1427q43 0 66 -26t14 -64l-14 -51q-21 -80 -107 -80q-41 0 -65 27q-23 26 -15 63l15 52q21 79 106 79z" />
    <glyph glyph-name="Ccaron" unicode="&#x10c;" horiz-adv-x="1505" 
d="M995 1622l-94 170q-14 32 -14 37q0 29 41 29q63 0 96 -39l86 -107l154 109q52 37 102 37q37 0 37 -27q0 -18 -21 -39l-186 -172q-44 -47 -92 -47h-33q-49 0 -76 49zM1300 172q-217 -199 -516 -199q-258 0 -432 160q-178 163 -178 434q0 352 252 619q254 272 608 272
q324 0 490 -233q28 -36 28 -70q-3 -81 -82 -78q-42 0 -61 29q-141 203 -389 203q-274 0 -477 -226q-199 -220 -199 -510q0 -203 127 -327q124 -121 322 -121q222 0 405 162q31 22 57 22q76 0 76 -76q0 -30 -31 -61z" />
    <glyph glyph-name="ccaron" unicode="&#x10d;" horiz-adv-x="1150" 
d="M686 1260l-94 170q-14 32 -14 36q0 29 40 29q64 0 97 -39l86 -106l153 108q52 37 103 37q37 0 37 -27q0 -17 -21 -38l-186 -173q-44 -47 -92 -47h-33q-49 0 -76 50zM948 121q-175 -146 -381 -146q-195 0 -327 123q-142 130 -142 340q0 261 187 451q183 192 436 192
q250 0 381 -186q26 -29 26 -64q0 -71 -73 -71q-39 0 -64 31q-103 151 -280 151q-180 0 -316 -151q-135 -150 -135 -349q0 -148 96 -241q89 -86 219 -86q148 0 279 110q25 19 53 19q66 0 66 -68q0 -30 -25 -55z" />
    <glyph glyph-name="Dcaron" unicode="&#x10e;" horiz-adv-x="1583" 
d="M907 1602l-94 170q-14 32 -14 36q0 29 41 29q63 0 96 -39l86 -106l154 108q52 37 102 37q37 0 37 -27q0 -17 -21 -38l-186 -173q-44 -47 -92 -47h-33q-49 0 -76 50zM264 150h303q367 0 592 225q180 180 180 446q0 201 -120 318q-145 145 -437 145h-213zM516 1434h277
q365 0 559 -191q155 -155 155 -412q0 -328 -225 -559q-272 -272 -735 -272h-393q-40 0 -58 27q-22 28 -10 67l338 1258q21 82 92 82z" />
    <glyph glyph-name="dcaron" unicode="&#x10f;" horiz-adv-x="1349" 
d="M1491 1198l82 240q21 61 86 61h33q37 0 37 -29q0 -16 -21 -51l-135 -231q-20 -39 -55 -39q-31 0 -31 25zM567 115q179 0 324 151q147 156 147 348q0 138 -90 234q-94 94 -237 94q-188 0 -316 -149q-127 -151 -127 -355q0 -145 84 -235q82 -88 215 -88zM961 -10
q-74 0 -68 78l29 112q-178 -205 -400 -205q-182 0 -299 123q-121 127 -121 326q0 276 181 469q176 188 413 188q290 0 398 -262l161 608q21 78 88 78q88 0 64 -98l-356 -1339q-21 -78 -90 -78z" />
    <glyph glyph-name="Dcroat" unicode="&#x110;" horiz-adv-x="1638" 
d="M571 1434h279q366 0 557 -191q158 -158 158 -412q0 -331 -228 -559q-272 -272 -735 -272h-393q-36 0 -57 27q-20 26 -11 67l148 553h-72q-74 0 -74 74t74 74h113l149 557q21 82 92 82zM319 150h304q363 0 594 225q178 178 178 446q0 199 -119 318q-151 145 -438 145h-213
l-131 -489h340q30 0 51 -21q22 -22 22 -53q0 -29 -22 -51q-23 -23 -51 -23h-381z" />
    <glyph glyph-name="dslash" unicode="&#x111;" horiz-adv-x="1349" 
d="M961 -10q-74 0 -68 78l29 112q-178 -205 -400 -205q-182 0 -299 123q-121 127 -121 326q0 276 181 469q176 188 413 188q290 0 398 -262l114 434h-299q-57 0 -57 58q0 55 57 55h330l16 61q21 78 88 78q88 0 64 -98l-12 -41h82q57 0 57 -55q0 -58 -57 -58h-111l-315 -1185
q-21 -78 -90 -78zM567 115q179 0 324 151q147 156 147 348q0 138 -90 234q-94 94 -237 94q-188 0 -316 -149q-127 -151 -127 -355q0 -145 84 -235q82 -88 215 -88z" />
    <glyph glyph-name="Emacron" unicode="&#x112;" horiz-adv-x="1337" 
d="M1051 0h-897q-40 0 -58 27q-22 28 -10 67l338 1258q21 82 92 82h870q74 0 74 -74t-74 -74h-819l-131 -489h686q31 0 54 -23q20 -20 20 -51q0 -74 -74 -74h-725l-135 -502h789q73 0 73 -73q0 -74 -73 -74zM1284 1602h-543q-65 0 -65 65q0 66 65 66h543q66 0 66 -66
q0 -65 -66 -65z" />
    <glyph glyph-name="emacron" unicode="&#x113;" horiz-adv-x="1206" 
d="M279 594h682q10 33 10 82q0 117 -64 190q-70 82 -200 82q-152 0 -271 -104q-109 -94 -157 -250zM575 113q165 0 287 98q29 16 53 16q64 0 64 -63q0 -33 -31 -58q-162 -131 -381 -131q-212 0 -340 125q-129 126 -129 326q0 251 176 448q183 207 441 207q193 0 305 -118
q104 -113 104 -287q0 -63 -14 -129q-15 -72 -86 -72h-766l-2 -51q3 -143 88 -225q89 -86 231 -86zM1079 1260h-542q-66 0 -66 65q0 66 66 66h542q66 0 66 -66q0 -65 -66 -65z" />
    <glyph glyph-name="Ebreve" unicode="&#x114;" horiz-adv-x="1337" 
d="M1051 0h-897q-40 0 -58 27q-22 28 -10 67l338 1258q21 82 92 82h870q74 0 74 -74t-74 -74h-819l-131 -489h686q31 0 54 -23q20 -20 20 -51q0 -74 -74 -74h-725l-135 -502h789q73 0 73 -73q0 -74 -73 -74zM995 1556q-105 0 -174 54t-69 149q0 80 63 80q42 0 57 -45
q24 -106 146 -106q112 0 194 110q30 41 66 41q55 0 55 -51q0 -21 -12 -39q-105 -193 -326 -193z" />
    <glyph glyph-name="ebreve" unicode="&#x115;" horiz-adv-x="1206" 
d="M279 594h682q10 33 10 82q0 117 -64 190q-70 82 -200 82q-152 0 -271 -104q-109 -94 -157 -250zM575 113q165 0 287 98q29 16 53 16q64 0 64 -63q0 -33 -31 -58q-162 -131 -381 -131q-212 0 -340 125q-129 126 -129 326q0 251 176 448q183 207 441 207q193 0 305 -118
q104 -113 104 -287q0 -63 -14 -129q-15 -72 -86 -72h-766l-2 -51q3 -143 88 -225q89 -86 231 -86zM791 1214q-106 0 -175 54t-69 149q0 80 63 80q43 0 58 -45q24 -106 145 -106q113 0 195 110q30 41 65 41q55 0 55 -51q0 -21 -12 -39q-105 -193 -325 -193z" />
    <glyph glyph-name="Edotaccent" unicode="&#x116;" horiz-adv-x="1337" 
d="M1051 0h-897q-40 0 -58 27q-22 28 -10 67l338 1258q21 82 92 82h870q74 0 74 -74t-74 -74h-819l-131 -489h686q31 0 54 -23q20 -20 20 -51q0 -74 -74 -74h-725l-135 -502h789q73 0 73 -73q0 -74 -73 -74zM1028 1769q43 0 66 -26t14 -64l-14 -51q-21 -80 -107 -80
q-41 0 -65 27q-23 26 -15 63l15 52q21 79 106 79z" />
    <glyph glyph-name="edotaccent" unicode="&#x117;" horiz-adv-x="1206" 
d="M279 594h682q10 33 10 82q0 117 -64 190q-70 82 -200 82q-152 0 -271 -104q-109 -94 -157 -250zM575 113q165 0 287 98q29 16 53 16q64 0 64 -63q0 -33 -31 -58q-162 -131 -381 -131q-212 0 -340 125q-129 126 -129 326q0 251 176 448q183 207 441 207q193 0 305 -118
q104 -113 104 -287q0 -63 -14 -129q-15 -72 -86 -72h-766l-2 -51q3 -143 88 -225q89 -86 231 -86zM825 1427q43 0 66 -26t14 -64l-14 -51q-21 -80 -107 -80q-41 0 -65 27q-22 26 -14 63l14 52q21 79 106 79z" />
    <glyph glyph-name="Eogonek" unicode="&#x118;" horiz-adv-x="1337" 
d="M1081 4q-151 -112 -151 -176q0 -49 94 -70q44 -9 41 -45q0 -49 -72 -49q-100 0 -153 39q-52 37 -52 94q0 95 150 203h-784q-40 0 -58 27q-22 28 -10 67l338 1258q21 82 92 82h870q74 0 74 -74t-74 -74h-819l-131 -489h686q31 0 54 -23q20 -20 20 -51q0 -74 -74 -74h-725
l-135 -502h789q73 0 73 -71q0 -42 -43 -72z" />
    <glyph glyph-name="eogonek" unicode="&#x119;" horiz-adv-x="1206" 
d="M948 106l-137 -106q-137 -107 -137 -172q0 -49 94 -70q41 -9 41 -45q0 -49 -72 -49q-99 0 -155 39q-52 37 -52 94q0 91 125 185q-51 -7 -88 -7q-212 0 -340 125q-129 126 -129 326q0 251 176 448q183 207 441 207q193 0 305 -118q104 -113 104 -287q0 -63 -14 -129
q-15 -72 -86 -72h-766l-2 -51q3 -143 88 -225q89 -86 231 -86q165 0 287 98q29 16 53 16q64 0 64 -63q0 -33 -31 -58zM279 594h682q10 33 10 82q0 117 -64 190q-70 82 -200 82q-152 0 -271 -104q-109 -94 -157 -250z" />
    <glyph glyph-name="Ecaron" unicode="&#x11a;" horiz-adv-x="1337" 
d="M901 1602l-94 170q-14 32 -14 36q0 29 41 29q63 0 96 -39l86 -106l153 108q52 37 103 37q37 0 37 -27q0 -17 -21 -38l-186 -173q-44 -47 -92 -47h-33q-49 0 -76 50zM1051 0h-897q-40 0 -58 27q-22 28 -10 67l338 1258q21 82 92 82h870q74 0 74 -74t-74 -74h-819
l-131 -489h686q31 0 54 -23q20 -20 20 -51q0 -74 -74 -74h-725l-135 -502h789q73 0 73 -73q0 -74 -73 -74z" />
    <glyph glyph-name="ecaron" unicode="&#x11b;" horiz-adv-x="1206" 
d="M696 1260l-94 170q-14 32 -14 36q0 29 41 29q63 0 96 -39l86 -106l154 108q52 37 102 37q37 0 37 -27q0 -17 -21 -38l-186 -173q-44 -47 -92 -47h-33q-49 0 -76 50zM279 594h682q10 33 10 82q0 117 -64 190q-70 82 -200 82q-152 0 -271 -104q-109 -94 -157 -250zM575 113
q165 0 287 98q29 16 53 16q64 0 64 -63q0 -33 -31 -58q-162 -131 -381 -131q-212 0 -340 125q-129 126 -129 326q0 251 176 448q183 207 441 207q193 0 305 -118q104 -113 104 -287q0 -63 -14 -129q-15 -72 -86 -72h-766l-2 -51q3 -143 88 -225q89 -86 231 -86z" />
    <glyph glyph-name="Gbreve" unicode="&#x11e;" horiz-adv-x="1605" 
d="M1477 670l-140 -484q-15 -61 -71 -94q-204 -119 -455 -119q-272 0 -449 162q-186 168 -186 449q0 343 252 604q261 270 629 270q320 0 491 -198q31 -31 31 -68q0 -80 -78 -80q-30 0 -57 27q-141 172 -402 172q-291 0 -497 -226q-199 -214 -199 -495q0 -217 133 -344
q129 -123 342 -123q211 0 371 100l113 398h-359q-74 0 -74 71q0 74 74 74h461q36 0 59 -29q20 -26 11 -67zM1114 1577q-106 0 -174 53q-70 55 -70 150q0 80 64 80q42 0 57 -45q24 -107 146 -107q111 0 194 111q30 41 66 41q55 0 55 -52q0 -21 -12 -39q-104 -192 -326 -192z
" />
    <glyph glyph-name="gbreve" unicode="&#x11f;" horiz-adv-x="1349" 
d="M588 217q178 0 315 131t137 295q0 123 -86 209q-93 90 -239 90q-175 0 -303 -125q-133 -130 -133 -315q0 -137 94 -213q87 -72 215 -72zM1096 827l43 164q21 78 88 78q37 0 55 -27q17 -26 8 -71l-217 -819q-61 -223 -172 -334q-150 -150 -409 -150q-260 0 -467 148
q-39 26 -39 67q0 70 69 70q25 0 54 -16q178 -134 380 -134q191 0 297 109q86 86 134 254l28 106q-187 -190 -405 -190q-178 0 -297 104q-133 115 -133 295q0 258 186 432q174 168 408 168q269 0 389 -254zM864 1214q-105 0 -174 54t-69 149q0 80 63 80q42 0 57 -45
q24 -106 146 -106q112 0 194 110q30 41 66 41q55 0 55 -51q0 -21 -12 -39q-105 -193 -326 -193z" />
    <glyph glyph-name="Gdotaccent" unicode="&#x120;" horiz-adv-x="1605" 
d="M1477 670l-140 -484q-15 -61 -71 -94q-204 -119 -455 -119q-272 0 -449 162q-186 168 -186 449q0 343 252 604q261 270 629 270q320 0 491 -198q31 -31 31 -68q0 -80 -78 -80q-30 0 -57 27q-141 172 -402 172q-291 0 -497 -226q-199 -214 -199 -495q0 -217 133 -344
q129 -123 342 -123q211 0 371 100l113 398h-359q-74 0 -74 71q0 74 74 74h461q36 0 59 -29q20 -26 11 -67zM1149 1790q41 0 65 -27t15 -63l-15 -51q-21 -80 -106 -80q-43 0 -66 26t-14 64l14 51q21 80 107 80z" />
    <glyph glyph-name="gdotaccent" unicode="&#x121;" horiz-adv-x="1349" 
d="M588 217q178 0 315 131t137 295q0 123 -86 209q-93 90 -239 90q-175 0 -303 -125q-133 -130 -133 -315q0 -137 94 -213q87 -72 215 -72zM1096 827l43 164q21 78 88 78q37 0 55 -27q17 -26 8 -71l-217 -819q-61 -223 -172 -334q-150 -150 -409 -150q-260 0 -467 148
q-39 26 -39 67q0 70 69 70q25 0 54 -16q178 -134 380 -134q191 0 297 109q86 86 134 254l28 106q-187 -190 -405 -190q-178 0 -297 104q-133 115 -133 295q0 258 186 432q174 168 408 168q269 0 389 -254zM899 1427q43 0 66 -26t14 -64l-14 -51q-21 -80 -107 -80
q-41 0 -65 27q-23 26 -15 63l15 52q21 79 106 79z" />
    <glyph glyph-name="uni0122" unicode="&#x122;" horiz-adv-x="1605" 
d="M616 -317q-67 15 -67 67q0 45 26 78q30 37 80 37q86 0 86 -88q0 -112 -84 -193q-82 -82 -192 -82q-33 0 -33 27q0 28 43 37q120 27 141 117zM1477 670l-140 -484q-15 -61 -71 -94q-204 -119 -455 -119q-272 0 -449 162q-186 168 -186 449q0 343 252 604q261 270 629 270
q320 0 491 -198q31 -31 31 -68q0 -80 -78 -80q-30 0 -57 27q-141 172 -402 172q-291 0 -497 -226q-199 -214 -199 -495q0 -217 133 -344q129 -123 342 -123q211 0 371 100l113 398h-359q-74 0 -74 71q0 74 74 74h461q36 0 59 -29q20 -26 11 -67z" />
    <glyph glyph-name="uni0123" unicode="&#x123;" horiz-adv-x="1349" 
d="M899 1386q68 -15 68 -67q0 -43 -27 -78q-30 -37 -80 -37q-86 0 -86 88q0 112 84 193q82 82 193 82q32 0 32 -27q0 -28 -43 -37q-120 -27 -141 -117zM588 217q178 0 315 131t137 295q0 123 -86 209q-93 90 -239 90q-175 0 -303 -125q-133 -130 -133 -315q0 -137 94 -213
q87 -72 215 -72zM1096 827l43 164q21 78 88 78q37 0 55 -27q17 -26 8 -71l-217 -819q-61 -223 -172 -334q-150 -150 -409 -150q-260 0 -467 148q-39 26 -39 67q0 70 69 70q25 0 54 -16q178 -134 380 -134q191 0 297 109q86 86 134 254l28 106q-187 -190 -405 -190
q-178 0 -297 104q-133 115 -133 295q0 258 186 432q174 168 408 168q269 0 389 -254z" />
    <glyph glyph-name="Hbar" unicode="&#x126;" horiz-adv-x="1548" 
d="M1565 1343l-47 -172h77q27 0 45 -18q21 -21 21 -45q0 -64 -66 -64h-112l-262 -976q-18 -78 -88 -78q-41 0 -58 26q-22 28 -10 74l149 555h-817l-155 -577q-21 -78 -90 -78q-41 0 -58 26q-22 28 -10 74l256 954h-76q-65 0 -65 64q0 25 20 45q18 18 45 18h111l53 195
q21 78 88 78q38 0 59 -27t9 -74l-47 -172h817l53 195q21 78 90 78q38 0 59 -27t9 -74zM438 797h817l66 247h-817z" />
    <glyph glyph-name="hbar" unicode="&#x127;" horiz-adv-x="1255" 
d="M1110 590l-139 -522q-18 -78 -86 -78q-41 0 -58 26q-18 27 -6 72l135 512q17 63 17 119q0 106 -64 164q-63 57 -174 57q-121 0 -231 -96q-111 -95 -152 -246l-141 -530q-18 -78 -88 -78q-38 0 -55 26q-18 27 -9 72l312 1165h-82q-56 0 -56 58q0 55 56 55h112l17 61
q21 78 88 78q87 0 63 -98l-12 -41h301q55 0 55 -55q0 -58 -55 -58h-330l-98 -366q173 194 369 194q154 0 245 -88q93 -90 93 -239q0 -62 -27 -164z" />
    <glyph glyph-name="Itilde" unicode="&#x128;" horiz-adv-x="595" 
d="M598 1343l-342 -1275q-21 -78 -90 -78q-40 0 -57 26q-23 29 -11 74l344 1276q21 78 88 78q39 0 60 -27q20 -26 8 -74zM324 1585q-54 0 -54 47q0 22 15 49q94 166 213 166q69 0 145 -67q69 -60 100 -60q50 0 109 90q21 35 53 35q56 0 56 -49q0 -26 -15 -47
q-94 -168 -215 -168q-66 0 -143 68q-65 59 -103 59q-51 0 -106 -88q-21 -35 -55 -35z" />
    <glyph glyph-name="itilde" unicode="&#x129;" horiz-adv-x="540" 
d="M471 971l-242 -903q-21 -78 -88 -78q-87 0 -63 98l241 903q21 78 89 78q39 0 57 -27t6 -71zM195 1210q-54 0 -54 47q0 23 15 50q94 166 213 166q68 0 145 -68q68 -59 100 -59q50 0 109 90q21 34 53 34q55 0 55 -49q0 -27 -14 -47q-94 -168 -215 -168q-66 0 -143 68
q-65 59 -103 59q-51 0 -106 -88q-21 -35 -55 -35z" />
    <glyph glyph-name="Imacron" unicode="&#x12a;" horiz-adv-x="595" 
d="M598 1343l-342 -1275q-21 -78 -90 -78q-40 0 -57 26q-23 29 -11 74l344 1276q21 78 88 78q39 0 60 -27q20 -26 8 -74zM877 1602h-543q-66 0 -66 65q0 66 66 66h543q65 0 65 -66q0 -65 -65 -65z" />
    <glyph glyph-name="imacron" unicode="&#x12b;" horiz-adv-x="540" 
d="M469 971l-242 -903q-21 -78 -88 -78q-87 0 -63 98l241 903q21 78 89 78q39 0 57 -27t6 -71zM760 1260h-543q-65 0 -65 65q0 66 65 66h543q65 0 65 -66q0 -65 -65 -65z" />
    <glyph glyph-name="Ibreve" unicode="&#x12c;" horiz-adv-x="595" 
d="M598 1343l-342 -1275q-21 -78 -90 -78q-40 0 -57 26q-23 29 -11 74l344 1276q21 78 88 78q39 0 60 -27q20 -26 8 -74zM588 1556q-105 0 -174 54q-70 55 -70 149q0 80 64 80q42 0 57 -45q24 -106 145 -106q113 0 195 110q30 41 65 41q56 0 56 -51q0 -20 -13 -39
q-105 -193 -325 -193z" />
    <glyph glyph-name="ibreve" unicode="&#x12d;" horiz-adv-x="540" 
d="M469 971l-242 -903q-21 -78 -88 -78q-87 0 -63 98l241 903q21 78 89 78q39 0 57 -27t6 -71zM469 1214q-105 0 -174 54q-70 55 -70 149q0 80 64 80q42 0 57 -45q24 -106 146 -106q112 0 194 110q30 41 66 41q55 0 55 -51q0 -21 -12 -39q-105 -193 -326 -193z" />
    <glyph glyph-name="Iogonek" unicode="&#x12e;" horiz-adv-x="595" 
d="M129 -336q-101 0 -154 39q-51 36 -51 94q0 100 182 226q-16 29 -8 67l344 1276q21 78 88 78q39 0 60 -27q20 -26 8 -74l-342 -1275q-12 -40 -45 -66q-145 -112 -145 -174q0 -49 94 -70q43 -9 43 -45q-3 -49 -74 -49z" />
    <glyph glyph-name="iogonek" unicode="&#x12f;" horiz-adv-x="540" 
d="M596 1395l-10 -41q-18 -74 -105 -74q-40 0 -63 23q-25 25 -17 57l11 43q21 72 104 72q40 0 66 -23q23 -23 14 -57zM467 971l-242 -903q-9 -39 -43 -66q-145 -109 -145 -174q0 -49 94 -70q43 -9 43 -45q-3 -49 -74 -49q-100 0 -153 39q-51 36 -51 94q0 105 184 228
q-11 14 -8 43q0 16 2 20l241 903q21 78 88 78q40 0 58 -27t6 -71z" />
    <glyph glyph-name="Idotaccent" unicode="&#x130;" horiz-adv-x="595" 
d="M598 1343l-342 -1275q-21 -78 -90 -78q-40 0 -57 26q-23 29 -11 74l344 1276q21 78 88 78q39 0 60 -27q20 -26 8 -74zM625 1769q42 0 65 -26q24 -27 15 -64l-15 -51q-21 -80 -106 -80q-42 0 -66 27q-22 26 -14 63l14 52q21 79 107 79z" />
    <glyph glyph-name="dotlessi" unicode="&#x131;" horiz-adv-x="540" 
d="M469 971l-242 -903q-21 -78 -88 -78q-87 0 -63 98l241 903q21 78 89 78q39 0 57 -27t6 -71z" />
    <glyph glyph-name="uni0136" unicode="&#x136;" horiz-adv-x="1470" 
d="M547 -305q-68 15 -68 67q0 44 27 78q30 37 80 37q86 0 86 -88q0 -111 -84 -192q-82 -82 -193 -82q-33 0 -33 26q0 28 44 37q120 27 141 117zM322 367l-80 -299q-21 -78 -90 -78q-41 0 -58 26q-22 28 -10 74l344 1276q21 78 88 78q38 0 59 -27t9 -74l-203 -761l1016 831
q36 31 67 31q74 0 74 -74q0 -37 -33 -63l-631 -510l353 -674q16 -40 16 -57q0 -33 -24 -54q-25 -22 -56 -22q-61 0 -84 57l-340 658z" />
    <glyph glyph-name="uni0137" unicode="&#x137;" horiz-adv-x="1163" 
d="M375 -315q-68 15 -68 67q0 44 27 78q30 37 80 37q86 0 86 -88q0 -112 -84 -193q-82 -82 -193 -82q-33 0 -33 27q0 28 43 37q121 27 142 117zM569 1407l-250 -936l713 569q37 29 64 29q65 0 65 -65q0 -38 -33 -58l-444 -350l242 -475q18 -37 18 -58q0 -73 -80 -73
q-56 0 -82 57l-231 451l-285 -226l-55 -204q-18 -78 -88 -78q-38 0 -55 26q-18 27 -9 72l361 1339q21 78 86 78q40 0 57 -26q18 -27 6 -72z" />
    <glyph glyph-name="Lacute" unicode="&#x139;" horiz-adv-x="1243" 
d="M893 1739l-199 -148q-45 -39 -104 -39q-45 0 -45 31q0 16 14 33l174 188q43 43 76 43q38 0 74 -20q39 -20 39 -43q0 -22 -29 -45zM985 0h-831q-40 0 -58 27q-22 28 -10 67l342 1272q21 78 88 78q38 0 59 -27t9 -74l-320 -1193h721q74 0 74 -76q0 -74 -74 -74z" />
    <glyph glyph-name="lacute" unicode="&#x13a;" horiz-adv-x="540" 
d="M870 1782l-198 -148q-45 -39 -105 -39q-45 0 -45 31q0 15 15 33l174 188q43 43 75 43q38 0 74 -20q39 -20 39 -43q0 -22 -29 -45zM586 1407l-359 -1339q-21 -78 -88 -78q-87 0 -63 98l358 1339q21 78 88 78q41 0 58 -26q18 -27 6 -72z" />
    <glyph glyph-name="uni013B" unicode="&#x13b;" horiz-adv-x="1243" 
d="M434 -315q-67 15 -67 67q0 45 26 78q30 37 80 37q86 0 86 -88q0 -112 -84 -193q-82 -82 -192 -82q-33 0 -33 27q0 28 43 37q120 27 141 117zM985 0h-831q-40 0 -58 27q-22 28 -10 67l342 1272q21 78 88 78q38 0 59 -27t9 -74l-320 -1193h721q74 0 74 -76q0 -74 -74 -74z
" />
    <glyph glyph-name="uni013C" unicode="&#x13c;" horiz-adv-x="540" 
d="M53 -315q-67 15 -67 67q0 45 26 78q30 37 80 37q86 0 86 -88q0 -112 -84 -193q-82 -82 -192 -82q-33 0 -33 27q0 28 43 37q120 27 141 117zM584 1407l-359 -1339q-21 -78 -88 -78q-87 0 -63 98l358 1339q21 78 88 78q41 0 58 -26q18 -27 6 -72z" />
    <glyph glyph-name="Lcaron" unicode="&#x13d;" horiz-adv-x="1243" 
d="M686 1137l82 239q21 62 86 62h33q37 0 37 -29q0 -17 -21 -51l-135 -232q-20 -39 -55 -39q-31 0 -31 25zM985 0h-831q-40 0 -58 27q-22 28 -10 67l342 1272q21 78 88 78q38 0 59 -27t9 -74l-320 -1193h721q74 0 74 -76q0 -74 -74 -74z" />
    <glyph glyph-name="lcaron" unicode="&#x13e;" horiz-adv-x="540" 
d="M643 1198l82 240q21 61 86 61h33q37 0 37 -29q0 -16 -21 -51l-135 -231q-20 -39 -55 -39q-31 0 -31 25zM586 1407l-359 -1339q-21 -78 -88 -78q-87 0 -63 98l358 1339q21 78 88 78q41 0 58 -26q18 -27 6 -72z" />
    <glyph glyph-name="Ldot" unicode="&#x13f;" horiz-adv-x="1243" 
d="M1032 860q43 0 66 -26q25 -28 16 -66l-10 -41q-18 -80 -111 -80q-43 0 -67 27q-25 28 -17 65l11 41q18 80 112 80zM985 0h-831q-40 0 -58 27q-22 28 -10 67l342 1272q21 78 88 78q38 0 59 -27t9 -74l-320 -1193h721q74 0 74 -76q0 -74 -74 -74z" />
    <glyph glyph-name="ldot" unicode="&#x140;" horiz-adv-x="679" 
d="M690 860q42 0 62 -26q22 -29 14 -64l-10 -39q-21 -80 -99 -80q-38 0 -61 29q-23 26 -14 63l10 39q21 78 98 78zM586 1407l-359 -1339q-21 -78 -88 -78q-87 0 -63 98l358 1339q21 78 88 78q41 0 58 -26q18 -27 6 -72z" />
    <glyph glyph-name="Lslash" unicode="&#x141;" horiz-adv-x="1335" 
d="M223 729l135 39l162 598q21 78 88 78q37 0 58 -27q20 -26 8 -74l-142 -526l361 103q30 6 41 6q63 0 63 -64q0 -51 -61 -69l-444 -127l-140 -516h725q74 0 74 -76q0 -74 -74 -74h-831q-40 0 -58 27q-22 28 -10 67l139 522l-51 -14q-15 -6 -39 -6q-65 0 -65 63q0 52 61 70z
" />
    <glyph glyph-name="lslash" unicode="&#x142;" horiz-adv-x="661" 
d="M193 770l137 37l166 620q21 78 88 78q40 0 57 -26q18 -27 6 -72l-147 -551l59 16q28 7 37 7q61 0 61 -66q0 -55 -57 -70l-141 -41l-170 -634q-21 -78 -88 -78q-88 0 -64 98l152 567l-56 -14q-24 -6 -36 -6q-62 0 -62 65q0 55 58 70z" />
    <glyph glyph-name="Nacute" unicode="&#x143;" horiz-adv-x="1609" 
d="M1386 1739l-198 -148q-45 -39 -105 -39q-45 0 -45 31q0 15 15 33l174 188q43 43 76 43q37 0 73 -20q39 -20 39 -43q0 -22 -29 -45zM1180 270l295 1096q21 78 88 78q39 0 57 -27q21 -27 6 -74l-342 -1277q-21 -72 -82 -72h-4q-59 0 -88 63l-571 1133l-301 -1122
q-21 -78 -88 -78q-41 0 -58 26q-20 26 -8 74l342 1270q21 80 94 80h8q63 0 101 -72z" />
    <glyph glyph-name="nacute" unicode="&#x144;" horiz-adv-x="1255" 
d="M1112 1397l-199 -148q-45 -39 -104 -39q-45 0 -45 31q0 16 14 33l174 188q43 43 76 43q38 0 74 -20q39 -20 39 -43q0 -22 -29 -45zM389 1069q77 0 68 -78l-27 -104q173 194 369 194q154 0 245 -88q93 -90 93 -239q0 -62 -27 -164l-139 -522q-18 -78 -86 -78q-41 0 -58 26
q-18 27 -6 72l135 512q17 63 17 119q0 106 -64 164q-63 57 -174 57q-121 0 -231 -96q-111 -95 -152 -246l-141 -530q-18 -78 -88 -78q-38 0 -55 26q-18 27 -9 72l242 903q21 78 88 78z" />
    <glyph glyph-name="uni0145" unicode="&#x145;" horiz-adv-x="1609" 
d="M588 -305q-68 15 -68 67q0 44 27 78q30 37 80 37q86 0 86 -88q0 -111 -84 -192q-82 -82 -193 -82q-33 0 -33 26q0 28 43 37q121 27 142 117zM1180 270l295 1096q21 78 88 78q39 0 57 -27q21 -27 6 -74l-342 -1277q-21 -72 -82 -72h-4q-59 0 -88 63l-571 1133l-301 -1122
q-21 -78 -88 -78q-41 0 -58 26q-20 26 -8 74l342 1270q21 80 94 80h8q63 0 101 -72z" />
    <glyph glyph-name="uni0146" unicode="&#x146;" horiz-adv-x="1255" 
d="M403 -315q-67 15 -67 67q0 45 26 78q30 37 80 37q86 0 86 -88q0 -112 -84 -193q-82 -82 -192 -82q-33 0 -33 27q0 28 43 37q120 27 141 117zM389 1069q77 0 68 -78l-27 -104q173 194 369 194q154 0 245 -88q93 -90 93 -239q0 -62 -27 -164l-139 -522q-18 -78 -86 -78
q-41 0 -58 26q-18 27 -6 72l135 512q17 63 17 119q0 106 -64 164q-63 57 -174 57q-121 0 -231 -96q-111 -95 -152 -246l-141 -530q-18 -78 -88 -78q-38 0 -55 26q-18 27 -9 72l242 903q21 78 88 78z" />
    <glyph glyph-name="Ncaron" unicode="&#x147;" horiz-adv-x="1609" 
d="M999 1602l-94 170q-14 32 -14 36q0 29 41 29q63 0 96 -39l86 -106l154 108q52 37 102 37q37 0 37 -27q0 -17 -21 -38l-186 -173q-44 -47 -92 -47h-33q-49 0 -76 50zM1180 270l295 1096q21 78 88 78q39 0 57 -27q21 -27 6 -74l-342 -1277q-21 -72 -82 -72h-4q-59 0 -88 63
l-571 1133l-301 -1122q-21 -78 -88 -78q-41 0 -58 26q-20 26 -8 74l342 1270q21 80 94 80h8q63 0 101 -72z" />
    <glyph glyph-name="ncaron" unicode="&#x148;" horiz-adv-x="1255" 
d="M723 1260l-94 170q-15 34 -15 36q0 29 41 29q64 0 97 -39l86 -106l153 108q52 37 103 37q36 0 36 -27q0 -18 -20 -38l-186 -173q-44 -47 -93 -47h-32q-49 0 -76 50zM389 1069q77 0 68 -78l-27 -104q173 194 369 194q154 0 245 -88q93 -90 93 -239q0 -62 -27 -164
l-139 -522q-18 -78 -86 -78q-41 0 -58 26q-18 27 -6 72l135 512q17 63 17 119q0 106 -64 164q-63 57 -174 57q-121 0 -231 -96q-111 -95 -152 -246l-141 -530q-18 -78 -88 -78q-38 0 -55 26q-18 27 -9 72l242 903q21 78 88 78z" />
    <glyph glyph-name="Omacron" unicode="&#x14c;" horiz-adv-x="1724" 
d="M1419 1622h-542q-66 0 -66 66q0 65 66 65h542q66 0 66 -65q0 -66 -66 -66zM809 -27q-275 0 -453 181q-176 176 -176 442q0 340 240 598q249 264 596 264q275 0 452 -180q177 -177 177 -440q0 -343 -240 -598q-249 -267 -596 -267zM819 123q275 0 469 221q187 211 187 487
q0 207 -127 340q-132 138 -342 138q-274 0 -469 -222q-187 -211 -187 -487q0 -207 127 -340q131 -137 342 -137z" />
    <glyph glyph-name="omacron" unicode="&#x14d;" horiz-adv-x="1306" 
d="M1126 1260h-542q-66 0 -66 65q0 66 66 66h542q66 0 66 -66q0 -65 -66 -65zM582 -25q-215 0 -351 136q-131 131 -131 340q0 250 185 438q186 192 438 192q217 0 350 -133t133 -340q0 -254 -188 -442q-188 -191 -436 -191zM592 117q177 0 315 147q137 149 137 338
q0 161 -92 250q-90 90 -239 90q-179 0 -318 -151q-135 -150 -135 -336q0 -158 92 -250q88 -88 240 -88z" />
    <glyph glyph-name="Obreve" unicode="&#x14e;" horiz-adv-x="1724" 
d="M809 -27q-275 0 -453 181q-176 176 -176 442q0 340 240 598q249 264 596 264q275 0 452 -180q177 -177 177 -440q0 -343 -240 -598q-249 -267 -596 -267zM819 123q275 0 469 221q187 211 187 487q0 207 -127 340q-132 138 -342 138q-274 0 -469 -222q-187 -211 -187 -487
q0 -207 127 -340q131 -137 342 -137zM1130 1577q-106 0 -174 53q-69 54 -69 150q0 80 63 80q43 0 58 -45q24 -107 145 -107q113 0 195 111q30 41 65 41q55 0 55 -52q0 -21 -12 -39q-104 -192 -326 -192z" />
    <glyph glyph-name="obreve" unicode="&#x14f;" horiz-adv-x="1306" 
d="M582 -25q-215 0 -351 136q-131 131 -131 340q0 250 185 438q186 192 438 192q217 0 350 -133t133 -340q0 -254 -188 -442q-188 -191 -436 -191zM592 117q177 0 315 147q137 149 137 338q0 161 -92 250q-90 90 -239 90q-179 0 -318 -151q-135 -150 -135 -336
q0 -158 92 -250q88 -88 240 -88zM838 1214q-105 0 -174 54q-70 55 -70 149q0 80 63 80q43 0 58 -45q24 -106 145 -106q113 0 195 110q30 41 65 41q56 0 56 -51q0 -20 -13 -39q-105 -193 -325 -193z" />
    <glyph glyph-name="Ohungarumlaut" unicode="&#x150;" horiz-adv-x="1724" 
d="M1108 1868q33 0 57 -21q23 -20 23 -43q0 -22 -31 -47l-186 -145q-45 -39 -92 -39q-37 0 -37 29q0 18 16 34l174 189q43 43 76 43zM1444 1868q34 0 55 -21q23 -20 23 -43q0 -24 -29 -47l-186 -145q-45 -39 -95 -39q-34 0 -34 29q0 18 16 34l174 189q43 43 76 43zM809 -27
q-275 0 -453 181q-176 176 -176 442q0 340 240 598q249 264 596 264q275 0 452 -180q177 -177 177 -440q0 -343 -240 -598q-249 -267 -596 -267zM819 123q275 0 469 221q187 211 187 487q0 207 -127 340q-132 138 -342 138q-274 0 -469 -222q-187 -211 -187 -487
q0 -207 127 -340q131 -137 342 -137z" />
    <glyph glyph-name="ohungarumlaut" unicode="&#x151;" horiz-adv-x="1306" 
d="M813 1505q34 0 57 -20t23 -43q0 -22 -31 -47l-186 -146q-45 -39 -92 -39q-37 0 -37 29q0 19 16 35l174 188q43 43 76 43zM1149 1505q35 0 55 -20q23 -20 23 -43q0 -24 -29 -47l-186 -146q-45 -39 -94 -39q-35 0 -35 29q0 19 16 35l174 188q43 43 76 43zM582 -25
q-215 0 -351 136q-131 131 -131 340q0 250 185 438q186 192 438 192q217 0 350 -133t133 -340q0 -254 -188 -442q-188 -191 -436 -191zM592 117q177 0 315 147q137 149 137 338q0 161 -92 250q-90 90 -239 90q-179 0 -318 -151q-135 -150 -135 -336q0 -158 92 -250
q88 -88 240 -88z" />
    <glyph glyph-name="OE" unicode="&#x152;" horiz-adv-x="2318" 
d="M901 150h182l306 1134h-273q-363 0 -594 -225q-178 -178 -178 -447q0 -198 119 -317q151 -145 438 -145zM2007 0h-1116q-368 0 -561 193q-156 156 -156 409q0 329 227 559q273 273 736 273h1204q76 0 76 -74t-76 -74h-791l-131 -489h660q28 0 51 -23q22 -22 22 -51
t-22 -51q-23 -23 -51 -23h-699l-135 -502h762q74 0 74 -73q0 -74 -74 -74z" />
    <glyph glyph-name="oe" unicode="&#x153;" horiz-adv-x="2131" 
d="M1208 594h682q8 33 8 82q0 118 -63 190q-70 82 -201 82q-151 0 -270 -104q-112 -97 -156 -250zM592 117q176 0 315 145q137 143 137 332q0 161 -92 256q-89 92 -239 92q-184 0 -318 -149q-135 -147 -135 -336q0 -158 92 -250q90 -90 240 -90zM1503 113q162 0 287 98
q29 16 55 16q62 0 62 -63q0 -33 -31 -58q-165 -131 -377 -131q-158 0 -274 78q-111 74 -152 209q-189 -287 -495 -287q-212 0 -345 136q-133 133 -133 340q0 250 185 438q186 192 438 192q167 0 283 -88q103 -76 145 -213q181 301 491 301q194 0 306 -118q104 -113 104 -287
q0 -57 -16 -135q-15 -66 -76 -66h-774l-2 -51q3 -143 88 -225q89 -86 231 -86z" />
    <glyph glyph-name="Racute" unicode="&#x154;" horiz-adv-x="1468" 
d="M1245 1739l-198 -148q-45 -39 -105 -39q-45 0 -45 31q0 16 14 33l174 188q43 43 76 43q38 0 74 -20q39 -20 39 -43q0 -22 -29 -45zM373 557l-131 -489q-21 -78 -90 -78q-41 0 -58 26q-22 28 -10 74l340 1262q21 82 92 82h447q269 0 403 -131q94 -98 94 -248
q0 -179 -127 -312q-129 -129 -393 -170l246 -448q20 -33 20 -59q0 -76 -82 -76q-59 0 -86 53l-276 514h-389zM412 702h389q275 0 407 132q86 89 86 208q0 97 -59 156q-86 86 -281 86h-385z" />
    <glyph glyph-name="racute" unicode="&#x155;" horiz-adv-x="823" 
d="M901 1397l-199 -148q-45 -39 -104 -39q-45 0 -45 31q0 16 14 33l174 188q43 43 76 43q38 0 74 -20q39 -20 39 -43q0 -22 -29 -45zM455 977l-49 -189q182 285 415 285q76 0 76 -74q0 -73 -90 -88q-168 -24 -301 -145q-140 -131 -199 -348l-94 -350q-21 -78 -88 -78
q-88 0 -64 98l242 903q21 78 86 78q39 0 57 -27q18 -24 9 -65z" />
    <glyph glyph-name="uni0156" unicode="&#x156;" horiz-adv-x="1468" 
d="M516 -305q-67 15 -67 67q0 45 26 78q30 37 80 37q86 0 86 -88q0 -111 -84 -192q-82 -82 -192 -82q-33 0 -33 26q0 28 43 37q120 27 141 117zM373 557l-131 -489q-21 -78 -90 -78q-41 0 -58 26q-22 28 -10 74l340 1262q21 82 92 82h447q269 0 403 -131q94 -98 94 -248
q0 -179 -127 -312q-129 -129 -393 -170l246 -448q20 -33 20 -59q0 -76 -82 -76q-59 0 -86 53l-276 514h-389zM412 702h389q275 0 407 132q86 89 86 208q0 97 -59 156q-86 86 -281 86h-385z" />
    <glyph glyph-name="uni0157" unicode="&#x157;" horiz-adv-x="823" 
d="M53 -315q-67 15 -67 67q0 45 26 78q30 37 80 37q86 0 86 -88q0 -112 -84 -193q-82 -82 -192 -82q-33 0 -33 27q0 28 43 37q120 27 141 117zM453 977l-50 -189q181 285 416 285q76 0 76 -74q0 -73 -90 -88q-168 -24 -301 -145q-140 -131 -199 -348l-94 -350
q-21 -78 -88 -78q-88 0 -64 98l242 903q21 78 86 78q39 0 57 -27q18 -24 9 -65z" />
    <glyph glyph-name="Rcaron" unicode="&#x158;" horiz-adv-x="1468" 
d="M858 1602l-94 170q-14 32 -14 36q0 29 41 29q63 0 96 -39l86 -106l153 108q52 37 103 37q37 0 37 -27q0 -17 -21 -38l-186 -173q-44 -47 -92 -47h-33q-49 0 -76 50zM373 557l-131 -489q-21 -78 -90 -78q-41 0 -58 26q-22 28 -10 74l340 1262q21 82 92 82h447
q269 0 403 -131q94 -98 94 -248q0 -179 -127 -312q-129 -129 -393 -170l246 -448q20 -33 20 -59q0 -76 -82 -76q-59 0 -86 53l-276 514h-389zM412 702h389q275 0 407 132q86 89 86 208q0 97 -59 156q-86 86 -281 86h-385z" />
    <glyph glyph-name="rcaron" unicode="&#x159;" horiz-adv-x="823" 
d="M512 1260l-94 170q-15 34 -15 36q0 29 41 29q64 0 97 -39l86 -106l153 108q52 37 103 37q37 0 37 -27q0 -17 -21 -38l-186 -173q-44 -47 -92 -47h-33q-49 0 -76 50zM455 977l-49 -189q182 285 415 285q76 0 76 -74q0 -73 -90 -88q-168 -24 -301 -145q-140 -131 -199 -348
l-94 -350q-21 -78 -88 -78q-88 0 -64 98l242 903q21 78 86 78q39 0 57 -27q18 -24 9 -65z" />
    <glyph glyph-name="Sacute" unicode="&#x15a;" horiz-adv-x="1304" 
d="M1212 1759l-198 -147q-45 -39 -105 -39q-45 0 -45 31q0 14 15 32l174 189q43 43 75 43q36 0 74 -21q39 -20 39 -43q0 -22 -29 -45zM621 125q157 0 258 76q104 76 104 192q0 85 -63 142q-58 53 -232 120q-208 81 -295 162q-98 88 -98 221q0 177 147 297q149 119 381 119
q265 0 453 -164q37 -27 37 -67q0 -78 -80 -78q-31 0 -57 20q-150 144 -367 144q-158 0 -252 -76q-92 -74 -92 -176q0 -85 74 -144q57 -47 243 -120q194 -73 279 -156q92 -89 92 -223q0 -187 -158 -312q-152 -122 -385 -122q-335 0 -536 213q-31 31 -31 67q0 82 76 82
q35 0 61 -29q173 -188 441 -188z" />
    <glyph glyph-name="sacute" unicode="&#x15b;" horiz-adv-x="1015" 
d="M975 1397l-199 -148q-45 -39 -104 -39q-45 0 -45 31q0 16 14 33l174 188q43 43 76 43q38 0 74 -20q39 -20 39 -43q0 -22 -29 -45zM459 109q95 0 162 49q71 50 71 127q0 103 -200 180q-161 63 -222 119q-77 68 -77 172q0 140 108 231q113 94 293 94q192 0 342 -108
q39 -20 39 -66q0 -69 -70 -69q-19 0 -45 16q-146 96 -280 96q-107 0 -170 -51q-60 -48 -60 -117q0 -98 211 -180q289 -120 289 -291q0 -145 -119 -239q-115 -95 -287 -95q-230 0 -411 144q-33 26 -33 63q0 72 68 72q22 0 55 -23q151 -124 336 -124z" />
    <glyph glyph-name="Scedilla" unicode="&#x15e;" horiz-adv-x="1304" 
d="M621 125q157 0 258 76q104 76 104 192q0 85 -63 142q-58 53 -232 120q-208 81 -295 162q-98 88 -98 221q0 177 147 297q149 119 381 119q265 0 453 -164q37 -27 37 -67q0 -78 -80 -78q-31 0 -57 20q-150 144 -367 144q-158 0 -252 -76q-92 -74 -92 -176q0 -85 74 -144
q57 -47 243 -120q194 -73 279 -156q92 -89 92 -223q0 -187 -158 -312q-152 -122 -385 -122h-16l-182 -250q-21 -35 -60 -35q-32 0 -53 18q-25 22 -25 43q0 25 23 51l174 183q-242 34 -397 203q-31 31 -31 67q0 82 76 82q35 0 61 -29q173 -188 441 -188z" />
    <glyph glyph-name="scedilla" unicode="&#x15f;" horiz-adv-x="1015" 
d="M459 109q95 0 162 49q71 50 71 127q0 103 -200 180q-161 63 -222 119q-77 68 -77 172q0 140 108 231q113 94 293 94q192 0 342 -108q39 -20 39 -66q0 -69 -70 -69q-19 0 -45 16q-146 96 -280 96q-107 0 -170 -51q-60 -48 -60 -117q0 -98 211 -180q289 -120 289 -291
q0 -145 -119 -239q-115 -95 -287 -95h-8l-180 -247q-21 -35 -59 -35q-33 0 -54 18q-24 21 -24 43q0 26 22 51l174 183q-163 35 -282 131q-33 26 -33 63q0 72 68 72q22 0 55 -23q151 -124 336 -124z" />
    <glyph glyph-name="Scaron" unicode="&#x160;" horiz-adv-x="1304" 
d="M823 1622l-94 170q-14 32 -14 37q0 29 41 29q63 0 96 -39l86 -107l154 109q52 37 102 37q37 0 37 -27q0 -18 -21 -39l-186 -172q-44 -47 -92 -47h-33q-49 0 -76 49zM621 125q157 0 258 76q104 76 104 192q0 85 -63 142q-58 53 -232 120q-208 81 -295 162q-98 88 -98 221
q0 177 147 297q149 119 381 119q265 0 453 -164q37 -27 37 -67q0 -78 -80 -78q-31 0 -57 20q-150 144 -367 144q-158 0 -252 -76q-92 -74 -92 -176q0 -85 74 -144q57 -47 243 -120q194 -73 279 -156q92 -89 92 -223q0 -187 -158 -312q-152 -122 -385 -122q-335 0 -536 213
q-31 31 -31 67q0 82 76 82q35 0 61 -29q173 -188 441 -188z" />
    <glyph glyph-name="scaron" unicode="&#x161;" horiz-adv-x="1015" 
d="M588 1260l-94 170q-15 34 -15 36q0 29 41 29q63 0 96 -39l86 -106l154 108q52 37 102 37q37 0 37 -27q0 -18 -20 -38l-187 -173q-44 -47 -92 -47h-32q-49 0 -76 50zM459 109q95 0 162 49q71 50 71 127q0 103 -200 180q-161 63 -222 119q-77 68 -77 172q0 140 108 231
q113 94 293 94q192 0 342 -108q39 -20 39 -66q0 -69 -70 -69q-19 0 -45 16q-146 96 -280 96q-107 0 -170 -51q-60 -48 -60 -117q0 -98 211 -180q289 -120 289 -291q0 -145 -119 -239q-115 -95 -287 -95q-230 0 -411 144q-33 26 -33 63q0 72 68 72q22 0 55 -23
q151 -124 336 -124z" />
    <glyph glyph-name="uni0162" unicode="&#x162;" horiz-adv-x="1261" 
d="M406 -315q-68 15 -68 67q0 44 27 78q30 37 79 37q86 0 86 -88q0 -112 -84 -193q-82 -82 -192 -82q-33 0 -33 27q0 28 43 37q121 27 142 117zM907 1284l-325 -1216q-21 -78 -90 -78q-41 0 -58 26q-22 28 -10 74l321 1194h-395q-76 0 -76 74q0 30 23 53t53 23h993
q31 0 54 -23q22 -22 22 -53q0 -74 -76 -74h-436z" />
    <glyph glyph-name="uni0163" unicode="&#x163;" horiz-adv-x="821" 
d="M252 -315q-68 15 -68 67q0 44 27 78q30 37 80 37q86 0 86 -88q0 -112 -84 -193q-82 -82 -193 -82q-32 0 -32 27q0 28 43 37q120 27 141 117zM375 1059l67 252q21 78 88 78q38 0 56 -27q17 -26 8 -72l-64 -231h254q68 0 68 -70q0 -69 -68 -69h-290l-164 -611
q-8 -44 -8 -78q0 -108 145 -108q44 0 68 8q75 15 75 -57q0 -47 -51 -70q-68 -22 -143 -22q-118 0 -189 53q-71 56 -71 155q0 56 14 111l166 619h-72q-65 3 -65 69q0 70 69 70h107z" />
    <glyph glyph-name="Tcaron" unicode="&#x164;" horiz-adv-x="1261" 
d="M817 1602l-94 170q-14 32 -14 36q0 29 41 29q63 0 96 -39l86 -106l153 108q52 37 103 37q37 0 37 -27q0 -17 -21 -38l-186 -173q-44 -47 -92 -47h-33q-49 0 -76 50zM907 1284l-325 -1216q-21 -78 -90 -78q-41 0 -58 26q-22 28 -10 74l321 1194h-395q-76 0 -76 74
q0 30 23 53t53 23h993q31 0 54 -23q22 -22 22 -53q0 -74 -76 -74h-436z" />
    <glyph glyph-name="tcaron" unicode="&#x165;" horiz-adv-x="821" 
d="M745 1245l82 240q21 61 86 61h33q37 0 37 -28q0 -19 -20 -52l-136 -231q-20 -39 -55 -39q-31 0 -31 25zM375 1059l67 252q21 78 88 78q38 0 56 -27q17 -26 8 -72l-64 -231h254q68 0 68 -70q0 -69 -68 -69h-290l-164 -611q-8 -44 -8 -78q0 -108 145 -108q44 0 68 8
q75 15 75 -57q0 -47 -51 -70q-68 -22 -143 -22q-118 0 -189 53q-71 56 -71 155q0 56 14 111l166 619h-72q-65 3 -65 69q0 70 69 70h107z" />
    <glyph glyph-name="Utilde" unicode="&#x168;" horiz-adv-x="1552" 
d="M1587 1343l-205 -763q-73 -272 -225 -424q-179 -179 -446 -179q-251 0 -389 129q-134 125 -134 330q0 108 31 223l189 707q21 78 88 78q38 0 59 -27q20 -26 8 -74l-192 -727q-21 -86 -21 -161q0 -148 92 -234q98 -94 283 -94q188 0 319 131q124 127 183 350l205 758
q21 78 88 78q38 0 59 -27q20 -26 8 -74zM801 1585q-53 0 -53 47q0 24 14 49q94 166 213 166q69 0 145 -67q69 -60 101 -60q49 0 108 90q21 35 53 35q56 0 56 -49q0 -26 -15 -47q-94 -168 -215 -168q-66 0 -143 68q-65 59 -102 59q-52 0 -107 -88q-21 -35 -55 -35z" />
    <glyph glyph-name="utilde" unicode="&#x169;" horiz-adv-x="1255" 
d="M864 -10q-74 0 -65 78l26 104q-174 -195 -370 -195q-155 0 -244 89q-92 89 -92 239q0 66 26 164l138 522q21 78 88 78q87 0 63 -98l-137 -512q-14 -57 -14 -119q0 -105 63 -162q62 -59 172 -59q124 0 234 96q108 96 149 248l141 528q21 78 88 78q40 0 58 -27t6 -71
l-240 -903q-18 -78 -90 -78zM543 1210q-54 0 -54 47q0 23 15 50q94 166 213 166q68 0 145 -68q68 -59 101 -59q49 0 108 90q21 34 53 34q56 0 56 -49q0 -26 -15 -47q-94 -168 -215 -168q-66 0 -143 68q-65 59 -102 59q-52 0 -107 -88q-21 -35 -55 -35z" />
    <glyph glyph-name="Umacron" unicode="&#x16a;" horiz-adv-x="1552" 
d="M1587 1343l-205 -763q-73 -272 -225 -424q-179 -179 -446 -179q-251 0 -389 129q-134 125 -134 330q0 108 31 223l189 707q21 78 88 78q38 0 59 -27q20 -26 8 -74l-192 -727q-21 -86 -21 -161q0 -148 92 -234q98 -94 283 -94q188 0 319 131q124 127 183 350l205 758
q21 78 88 78q38 0 59 -27q20 -26 8 -74zM1333 1602h-542q-66 0 -66 65q0 66 66 66h542q66 0 66 -66q0 -65 -66 -65z" />
    <glyph glyph-name="umacron" unicode="&#x16b;" horiz-adv-x="1255" 
d="M864 -10q-74 0 -65 78l26 104q-174 -195 -370 -195q-155 0 -244 89q-92 89 -92 239q0 66 26 164l138 522q21 78 88 78q87 0 63 -98l-137 -512q-14 -57 -14 -119q0 -105 63 -162q62 -59 172 -59q124 0 234 96q108 96 149 248l141 528q21 78 88 78q40 0 58 -27t6 -71
l-240 -903q-18 -78 -90 -78zM1092 1260h-543q-66 0 -66 65q0 66 66 66h543q65 0 65 -66q0 -65 -65 -65z" />
    <glyph glyph-name="Ubreve" unicode="&#x16c;" horiz-adv-x="1552" 
d="M1587 1343l-205 -763q-73 -272 -225 -424q-179 -179 -446 -179q-251 0 -389 129q-134 125 -134 330q0 108 31 223l189 707q21 78 88 78q38 0 59 -27q20 -26 8 -74l-192 -727q-21 -86 -21 -161q0 -148 92 -234q98 -94 283 -94q188 0 319 131q124 127 183 350l205 758
q21 78 88 78q38 0 59 -27q20 -26 8 -74zM1047 1556q-106 0 -175 54t-69 149q0 80 63 80q43 0 58 -45q24 -106 145 -106q113 0 195 110q30 41 65 41q55 0 55 -51q0 -21 -12 -39q-105 -193 -325 -193z" />
    <glyph glyph-name="ubreve" unicode="&#x16d;" horiz-adv-x="1255" 
d="M864 -10q-74 0 -65 78l26 104q-174 -195 -370 -195q-155 0 -244 89q-92 89 -92 239q0 66 26 164l138 522q21 78 88 78q87 0 63 -98l-137 -512q-14 -57 -14 -119q0 -105 63 -162q62 -59 172 -59q124 0 234 96q108 96 149 248l141 528q21 78 88 78q40 0 58 -27t6 -71
l-240 -903q-18 -78 -90 -78zM803 1214q-105 0 -174 54q-70 55 -70 149q0 80 64 80q42 0 57 -45q24 -106 145 -106q113 0 195 110q30 41 65 41q56 0 56 -51q0 -20 -13 -39q-105 -193 -325 -193z" />
    <glyph glyph-name="Uring" unicode="&#x16e;" horiz-adv-x="1552" 
d="M1063 1540q-91 0 -145 51q-54 54 -54 129q0 91 72 160q71 68 164 68q89 0 147 -52q53 -53 53 -129q0 -91 -71 -159t-166 -68zM1067 1620q59 0 102 43q41 44 41 102q0 105 -112 105q-60 0 -103 -43q-43 -46 -43 -105q0 -102 115 -102zM1587 1343l-205 -763
q-73 -272 -225 -424q-179 -179 -446 -179q-251 0 -389 129q-134 125 -134 330q0 108 31 223l189 707q21 78 88 78q38 0 59 -27q20 -26 8 -74l-192 -727q-21 -86 -21 -161q0 -148 92 -234q98 -94 283 -94q188 0 319 131q124 127 183 350l205 758q21 78 88 78q38 0 59 -27
q20 -26 8 -74z" />
    <glyph glyph-name="uring" unicode="&#x16f;" horiz-adv-x="1255" 
d="M823 1210q-90 0 -145 52q-53 53 -53 129q0 91 71 159t164 68q91 0 148 -51q53 -53 53 -129q0 -91 -72 -160q-71 -68 -166 -68zM827 1290q60 0 103 43q41 44 41 103q0 104 -113 104q-59 0 -102 -43q-43 -46 -43 -104q0 -103 114 -103zM864 -10q-74 0 -65 78l26 104
q-174 -195 -370 -195q-155 0 -244 89q-92 89 -92 239q0 66 26 164l138 522q21 78 88 78q87 0 63 -98l-137 -512q-14 -57 -14 -119q0 -105 63 -162q62 -59 172 -59q124 0 234 96q108 96 149 248l141 528q21 78 88 78q40 0 58 -27t6 -71l-240 -903q-18 -78 -90 -78z" />
    <glyph glyph-name="Uhungarumlaut" unicode="&#x170;" horiz-adv-x="1552" 
d="M1587 1343l-205 -763q-73 -272 -225 -424q-179 -179 -446 -179q-251 0 -389 129q-134 125 -134 330q0 108 31 223l189 707q21 78 88 78q38 0 59 -27q20 -26 8 -74l-192 -727q-21 -86 -21 -161q0 -148 92 -234q98 -94 283 -94q188 0 319 131q124 127 183 350l205 758
q21 78 88 78q38 0 59 -27q20 -26 8 -74zM1020 1847q34 0 57 -20t23 -43q0 -22 -31 -47l-186 -146q-45 -39 -92 -39q-37 0 -37 29q0 19 16 35l174 188q43 43 76 43zM1356 1847q35 0 55 -20q23 -20 23 -43q0 -24 -29 -47l-186 -146q-45 -39 -95 -39q-34 0 -34 29q0 19 16 35
l174 188q43 43 76 43z" />
    <glyph glyph-name="uhungarumlaut" unicode="&#x171;" horiz-adv-x="1255" 
d="M864 -10q-74 0 -65 78l26 104q-174 -195 -370 -195q-155 0 -244 89q-92 89 -92 239q0 66 26 164l138 522q21 78 88 78q87 0 63 -98l-137 -512q-14 -57 -14 -119q0 -105 63 -162q62 -59 172 -59q124 0 234 96q108 96 149 248l141 528q21 78 88 78q40 0 58 -27t6 -71
l-240 -903q-18 -78 -90 -78zM778 1505q35 0 58 -20q22 -19 22 -43q0 -22 -31 -47l-186 -146q-45 -39 -92 -39q-37 0 -37 29q0 19 16 35l174 188q43 43 76 43zM1114 1505q35 0 55 -20q23 -20 23 -43q0 -24 -29 -47l-186 -146q-45 -39 -94 -39q-35 0 -35 29q0 19 16 35
l174 188q43 43 76 43z" />
    <glyph glyph-name="Uogonek" unicode="&#x172;" horiz-adv-x="1552" 
d="M1587 1343l-205 -763q-73 -272 -225 -424q-179 -179 -446 -179h-6q-115 -89 -115 -149q0 -49 94 -70q43 -9 43 -45q-3 -49 -74 -49q-100 0 -153 39q-51 36 -51 94q0 90 131 191q-189 30 -291 153q-101 119 -101 295q0 108 31 223l189 707q21 78 88 78q38 0 59 -27
q20 -26 8 -74l-192 -727q-21 -86 -21 -161q0 -148 92 -234q98 -94 283 -94q188 0 319 131q124 127 183 350l205 758q21 78 88 78q38 0 59 -27q20 -26 8 -74z" />
    <glyph glyph-name="uogonek" unicode="&#x173;" horiz-adv-x="1255" 
d="M1194 971l-240 -903q-9 -39 -43 -66q-143 -107 -143 -174q0 -49 94 -70q41 -9 41 -45q0 -49 -72 -49q-99 0 -155 39q-51 36 -51 94q0 105 184 228q-13 16 -10 43l26 104q-174 -195 -370 -195q-155 0 -244 89q-92 89 -92 239q0 66 26 164l138 522q21 78 88 78q87 0 63 -98
l-137 -512q-14 -57 -14 -119q0 -105 63 -162q62 -59 172 -59q124 0 234 96q108 96 149 248l141 528q21 78 88 78q40 0 58 -27t6 -71z" />
    <glyph glyph-name="Wcircumflex" unicode="&#x174;" horiz-adv-x="2217" 
d="M1516 1790l92 -172q14 -22 14 -37q0 -29 -39 -29q-63 0 -96 39l-86 107l-154 -107q-56 -39 -102 -39q-39 0 -39 29q0 17 22 39l185 172q48 45 92 45h35q49 0 76 -47zM2327 1327l-801 -1272q-43 -73 -105 -73h-8q-71 0 -74 77l-75 1088l-662 -1092q-46 -73 -104 -73h-9
q-67 0 -73 77l-117 1264l-2 41q0 80 84 80q78 0 84 -76l90 -1128l680 1144q35 60 90 60h6q69 0 72 -66l72 -1138l704 1144q38 60 92 60q72 0 72 -66q0 -22 -16 -51z" />
    <glyph glyph-name="wcircumflex" unicode="&#x175;" horiz-adv-x="1736" 
d="M1186 1448l92 -172q14 -22 14 -37q0 -29 -39 -29q-63 0 -96 39l-86 107l-153 -107q-56 -39 -103 -39q-39 0 -39 29q0 16 23 39l184 172q48 45 92 45h35q49 0 76 -47zM276 63l-79 926q0 80 82 80q74 0 77 -76l56 -778l479 793q40 61 92 61h6q67 0 70 -68l55 -786l490 801
q30 53 77 53q66 0 66 -61q0 -26 -16 -52l-566 -907q-44 -65 -98 -65h-4q-72 0 -78 79l-57 764l-475 -778q-41 -65 -99 -65h-4q-71 0 -74 79z" />
    <glyph glyph-name="Ycircumflex" unicode="&#x176;" horiz-adv-x="1357" 
d="M752 547l-127 -479q-21 -78 -90 -78q-41 0 -58 26q-22 28 -10 74l129 483l-317 734q-15 35 -15 59q0 78 84 78q55 0 82 -68l279 -667l657 690q45 45 88 45q70 0 70 -68q0 -36 -33 -69zM1079 1790l92 -172q15 -24 15 -37q0 -29 -39 -29q-63 0 -96 39l-86 107l-154 -107
q-56 -39 -102 -39q-39 0 -39 29q0 17 22 39l185 172q48 45 92 45h35q48 0 75 -47z" />
    <glyph glyph-name="ycircumflex" unicode="&#x177;" horiz-adv-x="1175" 
d="M-35 -162q67 -33 133 -33q135 0 273 197l-178 942q-7 25 -7 47q0 78 78 78q74 0 80 -76l145 -819l547 838q34 57 84 57q70 0 70 -65q0 -26 -19 -58l-659 -981q-206 -299 -432 -299q-92 0 -176 41q-47 24 -47 70q0 71 67 71q14 0 41 -10zM874 1448l93 -172q14 -22 14 -37
q0 -29 -39 -29q-63 0 -96 39l-86 107l-154 -107q-56 -39 -102 -39q-39 0 -39 29q0 17 22 39l185 172q48 45 92 45h35q48 0 75 -47z" />
    <glyph glyph-name="Ydieresis" unicode="&#x178;" horiz-adv-x="1357" 
d="M752 547l-127 -479q-21 -78 -90 -78q-41 0 -58 26q-22 28 -10 74l129 483l-317 734q-15 35 -15 59q0 78 84 78q55 0 82 -68l279 -667l657 690q45 45 88 45q70 0 70 -68q0 -36 -33 -69zM791 1769q42 0 65 -26t14 -64l-14 -51q-21 -80 -106 -80q-42 0 -66 27q-22 26 -14 63
l14 52q21 79 107 79zM1153 1769q43 0 66 -26t14 -64l-14 -51q-21 -80 -107 -80q-41 0 -65 27q-23 26 -15 63l15 52q21 79 106 79z" />
    <glyph glyph-name="Zacute" unicode="&#x179;" horiz-adv-x="1370" 
d="M1225 1739l-199 -148q-45 -39 -104 -39q-45 0 -45 31q0 16 14 33l174 188q43 43 76 43q37 0 73 -20q39 -20 39 -43t-28 -45zM27 143l1185 1145h-790q-72 0 -72 72q0 74 72 74h979q65 0 65 -60v-2q0 -39 -43 -82l-1185 -1145h827q74 0 74 -71q0 -74 -74 -74h-1016
q-65 0 -65 59v2q0 39 43 82z" />
    <glyph glyph-name="zacute" unicode="&#x17a;" horiz-adv-x="1124" 
d="M1014 1397l-199 -148q-45 -39 -104 -39q-45 0 -45 31q0 16 14 33l174 188q43 43 76 43q38 0 74 -20q38 -20 38 -43t-28 -45zM311 1059h752q70 0 70 -58v-2q0 -40 -35 -67l-877 -799h615q67 0 67 -65q0 -68 -67 -68h-785q-69 0 -69 57v2q0 38 34 68l875 799h-580
q-67 0 -67 65q0 68 67 68z" />
    <glyph glyph-name="Zdotaccent" unicode="&#x17b;" horiz-adv-x="1370" 
d="M27 143l1185 1145h-790q-72 0 -72 72q0 74 72 74h979q65 0 65 -60v-2q0 -39 -43 -82l-1185 -1145h827q74 0 74 -71q0 -74 -74 -74h-1016q-65 0 -65 59v2q0 39 43 82zM963 1769q42 0 65 -26t14 -64l-14 -51q-21 -80 -106 -80q-42 0 -66 27q-22 26 -14 63l14 52
q21 79 107 79z" />
    <glyph glyph-name="zdotaccent" unicode="&#x17c;" horiz-adv-x="1124" 
d="M311 1059h752q70 0 70 -58v-2q0 -40 -35 -67l-877 -799h615q67 0 67 -65q0 -68 -67 -68h-785q-69 0 -69 57v2q0 38 34 68l875 799h-580q-67 0 -67 65q0 68 67 68zM754 1427q42 0 65 -26q24 -27 15 -64l-15 -51q-21 -80 -106 -80q-42 0 -66 27q-22 26 -14 63l14 52
q21 79 107 79z" />
    <glyph glyph-name="Zcaron" unicode="&#x17d;" horiz-adv-x="1370" 
d="M836 1602l-95 170q-14 32 -14 36q0 29 41 29q63 0 96 -39l86 -106l154 108q52 37 102 37q37 0 37 -27q0 -18 -20 -38l-187 -173q-44 -47 -92 -47h-33q-48 0 -75 50zM27 143l1185 1145h-790q-72 0 -72 72q0 74 72 74h979q65 0 65 -60v-2q0 -39 -43 -82l-1185 -1145h827
q74 0 74 -71q0 -74 -74 -74h-1016q-65 0 -65 59v2q0 39 43 82z" />
    <glyph glyph-name="zcaron" unicode="&#x17e;" horiz-adv-x="1124" 
d="M625 1260l-95 170q-14 32 -14 36q0 29 41 29q63 0 96 -39l86 -106l154 108q52 37 102 37q37 0 37 -27q0 -18 -20 -38l-187 -173q-44 -47 -92 -47h-33q-48 0 -75 50zM311 1059h752q70 0 70 -58v-2q0 -40 -35 -67l-877 -799h615q67 0 67 -65q0 -68 -67 -68h-785
q-69 0 -69 57v2q0 38 34 68l875 799h-580q-67 0 -67 65q0 68 67 68z" />
    <glyph glyph-name="florin" unicode="&#x192;" horiz-adv-x="1087" 
d="M88 -23q-102 0 -102 70q0 65 88 68q136 0 219 194l201 455h-123q-27 0 -47 20q-21 21 -21 47q0 70 70 70h180l111 248q132 305 385 305q69 0 118 -14q58 -15 58 -66q0 -30 -21 -51t-45 -18q-10 0 -43 8q-35 6 -67 6q-153 0 -248 -213l-90 -205h229q68 0 68 -70
q0 -67 -68 -67h-289l-219 -498q-126 -289 -344 -289z" />
    <glyph glyph-name="Ohorn" unicode="&#x1a0;" horiz-adv-x="1724" 
d="M1288 344q187 211 187 487q0 207 -127 340q-132 138 -342 138q-274 0 -469 -222q-187 -211 -187 -487q0 -207 127 -340q131 -137 342 -137q275 0 469 221zM1430 1315q7 -6 38 -37q177 -177 177 -440q0 -343 -240 -598q-249 -267 -596 -267q-275 0 -453 181
q-176 176 -176 442q0 340 240 598q249 264 596 264q104 0 192 -24q227 0 271 151q25 25 59 25q72 0 72 -66q0 -37 -35 -96q-50 -95 -145 -133z" />
    <glyph glyph-name="ohorn" unicode="&#x1a1;" horiz-adv-x="1306" 
d="M907 264q137 149 137 338q0 161 -92 250q-90 90 -239 90q-179 0 -318 -151q-135 -150 -135 -336q0 -158 92 -250q88 -88 240 -88q177 0 315 147zM1071 950l2 -2q133 -133 133 -340q0 -254 -188 -442q-188 -191 -436 -191q-215 0 -351 136q-131 131 -131 340
q0 250 185 438q186 192 438 192q83 0 154 -18q173 -12 217 145q25 25 59 25q72 0 72 -66q0 -37 -35 -96q-38 -78 -119 -121z" />
    <glyph glyph-name="Uhorn" unicode="&#x1af;" horiz-adv-x="1552" 
d="M1573 1292l-191 -712q-73 -272 -225 -424q-179 -179 -446 -179q-251 0 -389 129q-134 125 -134 330q0 108 31 223l189 707q21 78 88 78q38 0 59 -27q20 -26 8 -74l-192 -727q-21 -86 -21 -161q0 -148 92 -234q98 -94 283 -94q188 0 319 131q124 127 183 350l205 758
q21 78 88 78q10 0 30 -4q134 9 174 145q25 25 60 25q71 0 71 -66q0 -38 -34 -96q-70 -141 -248 -156z" />
    <glyph glyph-name="uhorn" unicode="&#x1b0;" horiz-adv-x="1255" 
d="M1180 915l-226 -847q-18 -78 -90 -78q-74 0 -65 78l26 104q-174 -195 -370 -195q-155 0 -244 89q-92 89 -92 239q0 66 26 164l138 522q21 78 88 78q87 0 63 -98l-137 -512q-14 -57 -14 -119q0 -105 63 -162q62 -59 172 -59q124 0 234 96q108 96 149 248l141 528
q21 78 88 78q18 0 33 -6q128 12 166 145q25 25 60 25q71 0 71 -66q0 -37 -35 -96q-71 -141 -245 -156z" />
    <glyph glyph-name="Aringacute" unicode="&#x1fa;" horiz-adv-x="1529" 
d="M1434 2011l-199 -147q-45 -39 -105 -39q-45 0 -45 30q0 15 15 33l174 189q43 43 76 43q36 0 73 -21q39 -20 39 -43t-28 -45zM39 -10q-68 0 -68 67q0 30 19 52l938 1292q-84 50 -84 145q0 97 69 160q68 68 164 68q92 0 150 -52q55 -52 55 -129q0 -158 -158 -211l242 -1269
q6 -38 6 -45q0 -78 -82 -78q-67 0 -82 71l-55 318h-788l-242 -334q-43 -55 -84 -55zM467 526h659l-133 734zM1051 1444q60 0 100 43q41 44 41 104q0 103 -117 103q-60 0 -100 -43q-41 -44 -41 -105q0 -102 117 -102z" />
    <glyph glyph-name="aringacute" unicode="&#x1fb;" horiz-adv-x="1179" 
d="M424 100q137 0 256 88q122 88 160 228l20 73q-169 48 -344 48q-141 0 -229 -70t-88 -178q0 -85 61 -137t164 -52zM809 -10q-78 0 -66 80l27 96q-165 -189 -395 -189q-142 0 -236 76q-100 81 -100 217q0 175 133 281q129 102 338 102q177 0 377 -57l6 25q14 49 14 98
q0 215 -286 215q-120 0 -244 -37q-15 -6 -33 -6q-63 0 -63 65q0 53 53 68q148 49 311 49q198 0 307 -86q109 -89 109 -242q0 -61 -23 -145l-141 -532q-18 -78 -88 -78zM1145 1880l-199 -147q-45 -39 -104 -39q-45 0 -45 30q0 16 14 33l174 189q43 43 76 43q37 0 74 -21
q39 -20 39 -43q0 -22 -29 -45zM774 1217q-91 0 -145 51q-54 54 -54 129q0 90 72 159q71 68 164 68q90 0 147 -51q54 -54 54 -129q0 -91 -72 -160q-70 -67 -166 -67zM778 1296q60 0 103 43q41 44 41 103q0 104 -113 104q-59 0 -102 -43q-43 -46 -43 -104q0 -103 114 -103z
" />
    <glyph glyph-name="AEacute" unicode="&#x1fc;" horiz-adv-x="2181" 
d="M1835 1739l-199 -148q-45 -39 -104 -39q-45 0 -45 31q0 16 14 33l174 188q43 43 76 43q38 0 74 -20q39 -20 39 -43q0 -22 -29 -45zM549 526h498l204 764h-51zM1202 1434h1004q73 0 73 -74t-73 -74h-793l-131 -489h660q30 0 53 -23q20 -20 20 -51q0 -74 -73 -74h-699
l-135 -502h764q31 0 51 -20q23 -23 23 -53q0 -28 -23 -51t-51 -23h-875q-36 0 -57 27q-20 26 -8 67l78 285h-582l-285 -334q-49 -55 -90 -55q-63 0 -63 63q0 31 26 64l1071 1249q59 68 115 68z" />
    <glyph glyph-name="aeacute" unicode="&#x1fd;" horiz-adv-x="1961" 
d="M1423 1397l-198 -148q-45 -39 -105 -39q-45 0 -45 31q0 15 15 33l174 188q43 43 75 43q38 0 74 -20q39 -20 39 -43q0 -22 -29 -45zM522 537q-142 0 -231 -68q-92 -68 -92 -174q0 -89 61 -141q66 -54 176 -54q231 0 443 226q-11 64 -11 98q0 9 4 63q-148 50 -350 50z
M1882 676q0 -80 -14 -129q-15 -72 -84 -72h-766q-4 -46 -4 -51q3 -143 88 -225q89 -86 231 -86q165 0 287 98q37 16 55 16q62 0 62 -63q0 -33 -31 -58q-158 -131 -379 -131q-305 0 -416 244q-230 -242 -514 -242q-157 0 -258 78q-100 78 -100 221q0 176 137 277
q129 100 340 100q191 0 371 -57l6 25q14 49 14 98q0 215 -286 215q-126 0 -244 -37q-15 -6 -33 -6q-63 0 -63 65q0 53 53 68q151 49 311 49q323 0 387 -223q182 231 443 231q194 0 303 -118q104 -113 104 -287zM1038 594h682q9 37 9 82q0 117 -64 190q-70 82 -201 82
q-151 0 -270 -104q-108 -97 -156 -250z" />
    <glyph glyph-name="Oslashacute" unicode="&#x1fe;" horiz-adv-x="1724" 
d="M346 600q0 -126 53 -235l959 802q-137 146 -352 146q-276 0 -471 -223q-189 -213 -189 -490zM819 119q276 0 471 223q189 213 189 489q0 133 -58 240l-956 -803q125 -149 354 -149zM344 168l-184 -156q-40 -32 -72 -32q-53 0 -53 53q0 26 33 59l202 170q-90 153 -90 334
q0 340 240 598q249 264 596 264q282 0 461 -188l180 151q42 33 69 33q56 0 56 -51q0 -32 -35 -62l-197 -165q95 -154 95 -338q0 -343 -240 -598q-249 -267 -596 -267q-282 0 -465 195zM1434 1759l-199 -147q-45 -39 -105 -39q-45 0 -45 31q0 14 15 32l174 189q43 43 76 43
q36 0 73 -21q39 -20 39 -43t-28 -45z" />
    <glyph glyph-name="oslashacute" unicode="&#x1ff;" horiz-adv-x="1306" 
d="M592 113q180 0 317 149q138 147 138 340q0 89 -31 162l-664 -561q87 -90 240 -90zM258 455q0 -79 31 -158l661 559q-88 88 -237 88q-181 0 -320 -151q-135 -150 -135 -338zM242 104l-117 -98q-33 -26 -62 -26q-53 0 -53 51q0 30 31 55l127 104q-68 112 -68 261
q0 250 185 438q186 192 438 192q207 0 338 -125l119 99q33 26 61 26q53 0 53 -49q0 -27 -30 -57l-127 -105q69 -115 69 -262q0 -254 -188 -442q-188 -191 -436 -191q-208 0 -340 129zM1141 1397l-199 -148q-45 -39 -104 -39q-45 0 -45 31q0 16 14 33l174 188q43 43 76 43
q37 0 73 -20q39 -20 39 -43t-28 -45z" />
    <glyph glyph-name="uni0218" unicode="&#x218;" horiz-adv-x="1304" 
d="M416 -317q-68 15 -68 67q0 44 27 78q30 37 80 37q86 0 86 -88q0 -112 -84 -193q-82 -82 -193 -82q-33 0 -33 27q0 28 43 37q121 27 142 117zM621 125q157 0 258 76q104 76 104 192q0 85 -63 142q-58 53 -232 120q-208 81 -295 162q-98 88 -98 221q0 177 147 297
q149 119 381 119q265 0 453 -164q37 -27 37 -67q0 -78 -80 -78q-31 0 -57 20q-150 144 -367 144q-158 0 -252 -76q-92 -74 -92 -176q0 -85 74 -144q57 -47 243 -120q194 -73 279 -156q92 -89 92 -223q0 -187 -158 -312q-152 -122 -385 -122q-335 0 -536 213q-31 31 -31 67
q0 82 76 82q35 0 61 -29q173 -188 441 -188z" />
    <glyph glyph-name="uni0219" unicode="&#x219;" horiz-adv-x="1015" 
d="M272 -315q-67 15 -67 67q0 45 26 78q30 37 80 37q86 0 86 -88q0 -112 -84 -193q-82 -82 -192 -82q-33 0 -33 27q0 28 43 37q120 27 141 117zM459 109q95 0 162 49q71 50 71 127q0 103 -200 180q-161 63 -222 119q-77 68 -77 172q0 140 108 231q113 94 293 94
q192 0 342 -108q39 -20 39 -66q0 -69 -70 -69q-19 0 -45 16q-146 96 -280 96q-107 0 -170 -51q-60 -48 -60 -117q0 -98 211 -180q289 -120 289 -291q0 -145 -119 -239q-115 -95 -287 -95q-230 0 -411 144q-33 26 -33 63q0 72 68 72q22 0 55 -23q151 -124 336 -124z" />
    <glyph glyph-name="uni0259" unicode="&#x259;" horiz-adv-x="1206" 
d="M928 465h-682q-10 -33 -10 -82q0 -118 63 -190q70 -82 201 -82q151 0 270 104q110 96 158 250zM631 946q-165 0 -287 -98q-31 -17 -53 -17q-64 0 -64 64q0 32 31 57q162 131 381 131q212 0 340 -125q129 -126 129 -325q0 -252 -176 -449q-183 -207 -440 -207
q-191 0 -306 121q-104 110 -104 285q0 63 14 129q15 72 86 72h766l2 51q-3 142 -88 227q-90 84 -231 84z" />
    <glyph glyph-name="circumflex" unicode="&#x2c6;" 
d="M862 1448l92 -172q15 -24 15 -37q0 -29 -39 -29q-63 0 -96 39l-86 107l-154 -107q-56 -39 -102 -39q-39 0 -39 29q0 17 22 39l184 172q48 45 93 45h34q49 0 76 -47z" />
    <glyph glyph-name="caron" unicode="&#x2c7;" 
d="M604 1260l-94 170q-14 32 -14 36q0 29 41 29q63 0 96 -39l86 -106l153 108q52 37 103 37q37 0 37 -27q0 -17 -21 -38l-186 -173q-44 -47 -92 -47h-33q-49 0 -76 50z" />
    <glyph glyph-name="breve" unicode="&#x2d8;" 
d="M705 1214q-106 0 -175 54t-69 149q0 80 63 80q43 0 58 -45q24 -106 145 -106q113 0 195 110q30 41 65 41q55 0 55 -51q0 -21 -12 -39q-105 -193 -325 -193z" />
    <glyph glyph-name="dotaccent" unicode="&#x2d9;" 
d="M741 1427q43 0 66 -26t14 -64l-14 -51q-21 -80 -107 -80q-41 0 -65 27q-22 26 -14 63l14 52q21 79 106 79z" />
    <glyph glyph-name="ring" unicode="&#x2da;" 
d="M729 1217q-91 0 -145 51q-54 54 -54 129q0 90 72 159q71 68 164 68q90 0 147 -51q54 -54 54 -129q0 -91 -72 -160q-70 -67 -166 -67zM733 1296q60 0 103 43q41 44 41 103q0 104 -113 104q-59 0 -102 -43q-44 -47 -44 -104q0 -103 115 -103z" />
    <glyph glyph-name="ogonek" unicode="&#x2db;" 
d="M403 -336q-100 0 -153 39q-51 36 -51 94q0 104 196 236l99 -27q-154 -112 -154 -178q0 -49 94 -70q43 -9 43 -45q-3 -49 -74 -49z" />
    <glyph glyph-name="tilde" unicode="&#x2dc;" 
d="M434 1210q-53 0 -53 47q0 25 14 50q94 166 213 166q69 0 146 -68q68 -59 100 -59q50 0 109 90q21 34 53 34q55 0 55 -49q0 -27 -14 -47q-94 -168 -215 -168q-67 0 -144 68q-65 59 -102 59q-52 0 -107 -88q-21 -35 -55 -35z" />
    <glyph glyph-name="hungarumlaut" unicode="&#x2dd;" 
d="M655 1505q35 0 58 -20q22 -19 22 -43q0 -23 -30 -47l-187 -146q-45 -39 -92 -39q-37 0 -37 29q0 18 17 35l174 188q43 43 75 43zM991 1505q36 0 56 -20q22 -19 22 -43t-29 -47l-186 -146q-45 -39 -94 -39q-35 0 -35 29q0 19 16 35l174 188q43 43 76 43z" />
    <glyph glyph-name="gravecomb" unicode="&#x300;" horiz-adv-x="0" 
d="M-565 1247l-117 152q-18 27 -18 41q0 22 34 43q33 20 72 20q55 0 70 -49l71 -182l7 -29q0 -33 -46 -33t-73 37z" />
    <glyph glyph-name="acutecomb" unicode="&#x301;" horiz-adv-x="0" 
d="M-322 1397l-198 -148q-45 -39 -105 -39q-45 0 -45 31q0 15 15 33l174 188q43 43 75 43q38 0 74 -20q39 -20 39 -43q0 -22 -29 -45z" />
    <glyph glyph-name="tildecomb" unicode="&#x303;" horiz-adv-x="0" 
d="M-707 1210q-53 0 -53 47q0 23 15 50q94 166 213 166q68 0 145 -68q68 -59 100 -59q50 0 109 90q21 34 53 34q55 0 55 -49q0 -27 -14 -47q-94 -168 -215 -168q-66 0 -143 68q-65 59 -103 59q-51 0 -106 -88q-21 -35 -56 -35z" />
    <glyph glyph-name="hookabovecomb" unicode="&#x309;" horiz-adv-x="1099" 
d="M547 1456q-22 -16 -41 -16q-60 0 -60 57q0 27 23 47q89 80 201 80q88 0 145 -51q55 -49 55 -125q0 -92 -73 -150q-62 -48 -152 -63l-8 -16q-15 -37 -53 -37h-2q-59 0 -50 59l7 51q9 45 55 51q72 9 111 35q36 26 36 64q0 31 -20 45q-22 16 -57 16q-58 0 -117 -47z" />
    <glyph glyph-name="uni031B" unicode="&#x31b;" horiz-adv-x="1421" 
d="M897 -14l4 147q181 -15 227 146q24 24 60 24q72 0 72 -65q0 -38 -35 -97q-84 -170 -328 -155z" />
    <glyph glyph-name="dotbelowcomb" unicode="&#x323;" horiz-adv-x="0" 
d="M-430 -156q43 0 68 -28q27 -27 14 -70l-14 -51q-21 -86 -109 -86q-42 0 -68 29q-23 26 -14 69l14 51q21 86 109 86z" />
    <glyph glyph-name="uni0326" unicode="&#x326;" 
d="M281 -315q-68 15 -68 67q0 44 27 78q30 37 79 37q87 0 87 -88q0 -112 -84 -193q-82 -82 -193 -82q-33 0 -33 27q0 28 43 37q121 27 142 117z" />
    <glyph glyph-name="Wgrave" unicode="&#x1e80;" horiz-adv-x="2217" 
d="M2327 1327l-801 -1272q-43 -73 -105 -73h-8q-71 0 -74 77l-75 1088l-662 -1092q-46 -73 -104 -73h-9q-67 0 -73 77l-117 1264l-2 41q0 80 84 80q78 0 84 -76l90 -1128l680 1144q35 60 90 60h6q69 0 72 -66l72 -1138l704 1144q38 60 92 60q72 0 72 -66q0 -22 -16 -51z
M1266 1589l-117 152q-19 28 -19 41q0 22 35 43q33 20 72 20q55 0 70 -49l71 -182l6 -29q0 -33 -45 -33q-46 0 -73 37z" />
    <glyph glyph-name="wgrave" unicode="&#x1e81;" horiz-adv-x="1736" 
d="M276 63l-79 926q0 80 82 80q74 0 77 -76l56 -778l479 793q40 61 92 61h6q67 0 70 -68l55 -786l490 801q30 53 77 53q66 0 66 -61q0 -26 -16 -52l-566 -907q-44 -65 -98 -65h-4q-72 0 -78 79l-57 764l-475 -778q-41 -65 -99 -65h-4q-71 0 -74 79zM934 1247l-117 152
q-18 27 -18 41q0 22 35 43q33 20 71 20q55 0 70 -49l72 -182l6 -29q0 -33 -45 -33q-47 0 -74 37z" />
    <glyph glyph-name="Wacute" unicode="&#x1e82;" horiz-adv-x="2217" 
d="M1669 1739l-199 -148q-45 -39 -104 -39q-45 0 -45 31q0 16 14 33l174 188q43 43 76 43q38 0 74 -20q39 -20 39 -43q0 -22 -29 -45zM2327 1327l-801 -1272q-43 -73 -105 -73h-8q-71 0 -74 77l-75 1088l-662 -1092q-46 -73 -104 -73h-9q-67 0 -73 77l-117 1264l-2 41
q0 80 84 80q78 0 84 -76l90 -1128l680 1144q35 60 90 60h6q69 0 72 -66l72 -1138l704 1144q38 60 92 60q72 0 72 -66q0 -22 -16 -51z" />
    <glyph glyph-name="wacute" unicode="&#x1e83;" horiz-adv-x="1736" 
d="M1337 1397l-198 -148q-45 -39 -105 -39q-45 0 -45 31q0 15 15 33l174 188q43 43 75 43q38 0 74 -20q39 -20 39 -43q0 -22 -29 -45zM276 63l-79 926q0 80 82 80q74 0 77 -76l56 -778l479 793q40 61 92 61h6q67 0 70 -68l55 -786l490 801q30 53 77 53q66 0 66 -61
q0 -26 -16 -52l-566 -907q-44 -65 -98 -65h-4q-72 0 -78 79l-57 764l-475 -778q-41 -65 -99 -65h-4q-71 0 -74 79z" />
    <glyph glyph-name="Wdieresis" unicode="&#x1e84;" horiz-adv-x="2217" 
d="M1227 1769q42 0 65 -26q24 -27 15 -64l-15 -51q-21 -80 -106 -80q-42 0 -66 27q-22 26 -14 63l14 52q21 79 107 79zM1589 1769q43 0 66 -26t14 -64l-14 -51q-21 -80 -107 -80q-41 0 -65 27q-23 26 -15 63l15 52q21 79 106 79zM2327 1327l-801 -1272q-43 -73 -105 -73h-8
q-71 0 -74 77l-75 1088l-662 -1092q-46 -73 -104 -73h-9q-67 0 -73 77l-117 1264l-2 41q0 80 84 80q78 0 84 -76l90 -1128l680 1144q35 60 90 60h6q69 0 72 -66l72 -1138l704 1144q38 60 92 60q72 0 72 -66q0 -22 -16 -51z" />
    <glyph glyph-name="wdieresis" unicode="&#x1e85;" horiz-adv-x="1736" 
d="M897 1427q43 0 66 -26t14 -64l-14 -51q-21 -80 -107 -80q-41 0 -65 27q-23 26 -15 63l15 52q21 79 106 79zM1260 1427q42 0 65 -26t14 -64l-14 -51q-21 -80 -106 -80q-42 0 -66 27q-22 26 -14 63l14 52q21 79 107 79zM276 63l-79 926q0 80 82 80q74 0 77 -76l56 -778
l479 793q40 61 92 61h6q67 0 70 -68l55 -786l490 801q30 53 77 53q66 0 66 -61q0 -26 -16 -52l-566 -907q-44 -65 -98 -65h-4q-72 0 -78 79l-57 764l-475 -778q-41 -65 -99 -65h-4q-71 0 -74 79z" />
    <glyph glyph-name="uni1EA0" unicode="&#x1ea0;" horiz-adv-x="1529" 
d="M467 526h659l-133 734zM1128 1372l238 -1259q6 -38 6 -45q0 -78 -82 -78q-67 0 -82 71l-55 318h-788l-242 -334q-43 -55 -84 -55q-68 0 -68 67q0 30 19 52l921 1271q52 70 119 70h4q76 0 94 -78zM598 -156q43 0 68 -28q27 -27 14 -70l-14 -51q-21 -86 -109 -86
q-42 0 -68 29q-23 26 -14 69l14 51q21 86 109 86z" />
    <glyph glyph-name="uni1EA1" unicode="&#x1ea1;" horiz-adv-x="1179" 
d="M424 100q137 0 256 88q122 88 160 228l20 73q-169 48 -344 48q-141 0 -229 -70t-88 -178q0 -85 61 -137t164 -52zM809 -10q-78 0 -66 80l27 96q-165 -189 -395 -189q-142 0 -236 76q-100 81 -100 217q0 175 133 281q129 102 338 102q177 0 377 -57l6 25q14 49 14 98
q0 215 -286 215q-120 0 -244 -37q-15 -6 -33 -6q-63 0 -63 65q0 53 53 68q148 49 311 49q198 0 307 -86q109 -89 109 -242q0 -61 -23 -145l-141 -532q-18 -78 -88 -78zM358 -156q43 0 68 -28q27 -27 14 -70l-14 -51q-21 -86 -109 -86q-41 0 -67 29q-23 26 -14 69l14 51
q21 86 108 86z" />
    <glyph glyph-name="uni1EA2" unicode="&#x1ea2;" horiz-adv-x="1529" 
d="M467 526h659l-133 734zM1128 1372l238 -1259q6 -38 6 -45q0 -78 -82 -78q-67 0 -82 71l-55 318h-788l-242 -334q-43 -55 -84 -55q-68 0 -68 67q0 30 19 52l921 1271q52 70 119 70h4q76 0 94 -78zM1022 1831q-22 -16 -41 -16q-59 0 -59 57q0 28 22 47q89 80 201 80
q88 0 145 -51q56 -50 56 -125q0 -91 -74 -150q-62 -48 -152 -63l-8 -17q-15 -37 -53 -37h-2q-58 0 -49 60l6 51q9 45 55 51q72 9 111 35q37 27 37 64q0 30 -21 45q-22 16 -57 16q-58 0 -117 -47z" />
    <glyph glyph-name="uni1EA3" unicode="&#x1ea3;" horiz-adv-x="1179" 
d="M424 100q137 0 256 88q122 88 160 228l20 73q-169 48 -344 48q-141 0 -229 -70t-88 -178q0 -85 61 -137t164 -52zM809 -10q-78 0 -66 80l27 96q-165 -189 -395 -189q-142 0 -236 76q-100 81 -100 217q0 175 133 281q129 102 338 102q177 0 377 -57l6 25q14 49 14 98
q0 215 -286 215q-120 0 -244 -37q-15 -6 -33 -6q-63 0 -63 65q0 53 53 68q148 49 311 49q198 0 307 -86q109 -89 109 -242q0 -61 -23 -145l-141 -532q-18 -78 -88 -78zM678 1456q-22 -16 -41 -16q-59 0 -59 57q0 28 22 47q89 80 201 80q88 0 145 -51q55 -49 55 -125
q0 -92 -73 -150q-62 -48 -152 -63l-8 -16q-15 -37 -53 -37h-2q-58 0 -49 59l6 51q9 45 55 51q72 9 111 35q36 26 36 64q0 31 -20 45q-22 16 -57 16q-58 0 -117 -47z" />
    <glyph glyph-name="uni1EA4" unicode="&#x1ea4;" horiz-adv-x="1529" 
d="M467 526h659l-133 734zM1128 1372l238 -1259q6 -38 6 -45q0 -78 -82 -78q-67 0 -82 71l-55 318h-788l-242 -334q-43 -55 -84 -55q-68 0 -68 67q0 30 19 52l921 1271q52 70 119 70h4q76 0 94 -78zM1225 1808l92 -172q14 -22 14 -37q0 -28 -39 -28q-63 0 -96 39l-86 106
l-154 -106q-56 -39 -102 -39q-39 0 -39 28q0 16 23 39l184 172q48 45 92 45h35q49 0 76 -47zM1661 1937l-199 -147q-45 -39 -104 -39q-45 0 -45 31q0 16 14 33l174 188q43 43 76 43q37 0 74 -21q39 -20 39 -43q0 -22 -29 -45z" />
    <glyph glyph-name="uni1EA5" unicode="&#x1ea5;" horiz-adv-x="1179" 
d="M424 100q137 0 256 88q122 88 160 228l20 73q-169 48 -344 48q-141 0 -229 -70t-88 -178q0 -85 61 -137t164 -52zM809 -10q-78 0 -66 80l27 96q-165 -189 -395 -189q-142 0 -236 76q-100 81 -100 217q0 175 133 281q129 102 338 102q177 0 377 -57l6 25q14 49 14 98
q0 215 -286 215q-120 0 -244 -37q-15 -6 -33 -6q-63 0 -63 65q0 53 53 68q148 49 311 49q198 0 307 -86q109 -89 109 -242q0 -61 -23 -145l-141 -532q-18 -78 -88 -78zM897 1448l92 -172q15 -24 15 -37q0 -29 -39 -29q-64 0 -97 39l-86 107l-153 -107q-56 -39 -103 -39
q-39 0 -39 29q0 16 23 39l184 172q48 45 92 45h35q49 0 76 -47zM1333 1632l-198 -147q-45 -39 -105 -39q-45 0 -45 31q0 15 14 32l175 189q43 43 75 43q37 0 74 -21q39 -20 39 -43q0 -22 -29 -45z" />
    <glyph glyph-name="uni1EA6" unicode="&#x1ea6;" horiz-adv-x="1529" 
d="M467 526h659l-133 734zM1128 1372l238 -1259q6 -38 6 -45q0 -78 -82 -78q-67 0 -82 71l-55 318h-788l-242 -334q-43 -55 -84 -55q-68 0 -68 67q0 30 19 52l921 1271q52 70 119 70h4q76 0 94 -78zM1223 1806l92 -172q14 -22 14 -37q0 -28 -39 -28q-63 0 -96 39l-86 106
l-154 -106q-56 -39 -102 -39q-39 0 -39 28q0 16 23 39l184 172q48 45 92 45h35q49 0 76 -47zM776 1786l-117 151q-18 27 -18 41q0 22 35 43q34 21 72 21q54 0 69 -49l72 -183l6 -28q0 -33 -45 -33q-47 0 -74 37z" />
    <glyph glyph-name="uni1EA7" unicode="&#x1ea7;" horiz-adv-x="1179" 
d="M424 100q137 0 256 88q122 88 160 228l20 73q-169 48 -344 48q-141 0 -229 -70t-88 -178q0 -85 61 -137t164 -52zM809 -10q-78 0 -66 80l27 96q-165 -189 -395 -189q-142 0 -236 76q-100 81 -100 217q0 175 133 281q129 102 338 102q177 0 377 -57l6 25q14 49 14 98
q0 215 -286 215q-120 0 -244 -37q-15 -6 -33 -6q-63 0 -63 65q0 53 53 68q148 49 311 49q198 0 307 -86q109 -89 109 -242q0 -61 -23 -145l-141 -532q-18 -78 -88 -78zM897 1448l92 -172q15 -24 15 -37q0 -29 -39 -29q-64 0 -97 39l-86 107l-153 -107q-56 -39 -103 -39
q-39 0 -39 29q0 16 23 39l184 172q48 45 92 45h35q49 0 76 -47zM485 1530l-116 151q-19 28 -19 41q0 22 35 43t72 21q54 0 69 -49l72 -183l6 -28q0 -33 -45 -33q-47 0 -74 37z" />
    <glyph glyph-name="uni1EA8" unicode="&#x1ea8;" horiz-adv-x="1529" 
d="M467 526h659l-133 734zM1128 1372l238 -1259q6 -38 6 -45q0 -78 -82 -78q-67 0 -82 71l-55 318h-788l-242 -334q-43 -55 -84 -55q-68 0 -68 67q0 30 19 52l921 1271q52 70 119 70h4q76 0 94 -78zM1225 1808l92 -172q14 -22 14 -37q0 -28 -39 -28q-63 0 -96 39l-86 106
l-154 -106q-56 -39 -102 -39q-39 0 -39 28q0 16 23 39l184 172q48 45 92 45h35q49 0 76 -47zM1339 1980q-22 -16 -41 -16q-59 0 -59 57q0 27 23 47q89 80 200 80q89 0 146 -51q55 -49 55 -125q0 -90 -74 -149q-64 -49 -151 -64l-8 -16q-15 -37 -54 -37h-2q-58 0 -49 59l6 52
q9 45 55 51q72 9 111 35q37 27 37 63q0 30 -21 45q-24 17 -57 17q-57 0 -117 -48z" />
    <glyph glyph-name="uni1EA9" unicode="&#x1ea9;" horiz-adv-x="1179" 
d="M424 100q137 0 256 88q122 88 160 228l20 73q-169 48 -344 48q-141 0 -229 -70t-88 -178q0 -85 61 -137t164 -52zM809 -10q-78 0 -66 80l27 96q-165 -189 -395 -189q-142 0 -236 76q-100 81 -100 217q0 175 133 281q129 102 338 102q177 0 377 -57l6 25q14 49 14 98
q0 215 -286 215q-120 0 -244 -37q-15 -6 -33 -6q-63 0 -63 65q0 53 53 68q148 49 311 49q198 0 307 -86q109 -89 109 -242q0 -61 -23 -145l-141 -532q-18 -78 -88 -78zM897 1448l92 -172q15 -24 15 -37q0 -29 -39 -29q-64 0 -97 39l-86 107l-153 -107q-56 -39 -103 -39
q-39 0 -39 29q0 16 23 39l184 172q48 45 92 45h35q49 0 76 -47zM987 1671q-22 -16 -41 -16q-59 0 -59 57q0 28 22 47q89 80 201 80q88 0 145 -51q56 -50 56 -125q0 -91 -74 -150q-62 -48 -152 -63l-8 -16q-15 -37 -53 -37h-2q-58 0 -49 59l6 51q9 46 55 52q74 9 111 34
q37 27 37 64q0 30 -21 45q-22 16 -57 16q-58 0 -117 -47z" />
    <glyph glyph-name="uni1EAA" unicode="&#x1eaa;" horiz-adv-x="1529" 
d="M467 526h659l-133 734zM1128 1372l238 -1259q6 -38 6 -45q0 -78 -82 -78q-67 0 -82 71l-55 318h-788l-242 -334q-43 -55 -84 -55q-68 0 -68 67q0 30 19 52l921 1271q52 70 119 70h4q76 0 94 -78zM1225 1808l92 -172q14 -22 14 -37q0 -28 -39 -28q-63 0 -96 39l-86 106
l-154 -106q-56 -39 -102 -39q-39 0 -39 28q0 16 23 39l184 172q48 45 92 45h35q49 0 76 -47zM903 1862q-53 0 -53 47q0 24 14 49q94 166 213 166q69 0 146 -68q68 -59 100 -59q50 0 109 90q21 35 53 35q55 0 55 -49q0 -28 -14 -48q-93 -167 -215 -167q-68 0 -144 67
q-66 60 -102 60q-51 0 -107 -89q-21 -34 -55 -34z" />
    <glyph glyph-name="uni1EAB" unicode="&#x1eab;" horiz-adv-x="1179" 
d="M424 100q137 0 256 88q122 88 160 228l20 73q-169 48 -344 48q-141 0 -229 -70t-88 -178q0 -85 61 -137t164 -52zM809 -10q-78 0 -66 80l27 96q-165 -189 -395 -189q-142 0 -236 76q-100 81 -100 217q0 175 133 281q129 102 338 102q177 0 377 -57l6 25q14 49 14 98
q0 215 -286 215q-120 0 -244 -37q-15 -6 -33 -6q-63 0 -63 65q0 53 53 68q148 49 311 49q198 0 307 -86q109 -89 109 -242q0 -61 -23 -145l-141 -532q-18 -78 -88 -78zM897 1448l92 -172q15 -24 15 -37q0 -29 -39 -29q-64 0 -97 39l-86 107l-153 -107q-56 -39 -103 -39
q-39 0 -39 29q0 16 23 39l184 172q48 45 92 45h35q49 0 76 -47zM600 1516q-53 0 -53 47q0 24 14 49q94 166 213 166q69 0 146 -68q68 -59 100 -59q49 0 108 90q21 35 54 35q55 0 55 -50q0 -27 -14 -47q-94 -168 -215 -168q-67 0 -144 68q-65 59 -102 59q-52 0 -107 -88
q-21 -34 -55 -34z" />
    <glyph glyph-name="uni1EAC" unicode="&#x1eac;" horiz-adv-x="1529" 
d="M467 526h659l-133 734zM1128 1372l238 -1259q6 -38 6 -45q0 -78 -82 -78q-67 0 -82 71l-55 318h-788l-242 -334q-43 -55 -84 -55q-68 0 -68 67q0 30 19 52l921 1271q52 70 119 70h4q76 0 94 -78zM1225 1808l92 -172q14 -22 14 -37q0 -28 -39 -28q-63 0 -96 39l-86 106
l-154 -106q-56 -39 -102 -39q-39 0 -39 28q0 16 23 39l184 172q48 45 92 45h35q49 0 76 -47zM651 -156q43 0 68 -28q27 -27 14 -70l-14 -51q-21 -86 -109 -86q-41 0 -67 29q-24 27 -15 69l15 51q21 86 108 86z" />
    <glyph glyph-name="uni1EAD" unicode="&#x1ead;" horiz-adv-x="1179" 
d="M424 100q137 0 256 88q122 88 160 228l20 73q-169 48 -344 48q-141 0 -229 -70t-88 -178q0 -85 61 -137t164 -52zM809 -10q-78 0 -66 80l27 96q-165 -189 -395 -189q-142 0 -236 76q-100 81 -100 217q0 175 133 281q129 102 338 102q177 0 377 -57l6 25q14 49 14 98
q0 215 -286 215q-120 0 -244 -37q-15 -6 -33 -6q-63 0 -63 65q0 53 53 68q148 49 311 49q198 0 307 -86q109 -89 109 -242q0 -61 -23 -145l-141 -532q-18 -78 -88 -78zM930 1448l92 -172q14 -22 14 -37q0 -29 -39 -29q-63 0 -96 39l-86 107l-153 -107q-56 -39 -103 -39
q-39 0 -39 29q0 16 23 39l184 172q48 45 92 45h35q49 0 76 -47zM358 -156q43 0 68 -28q27 -27 14 -70l-14 -51q-21 -86 -109 -86q-41 0 -67 29q-23 26 -14 69l14 51q21 86 108 86z" />
    <glyph glyph-name="uni1EAE" unicode="&#x1eae;" horiz-adv-x="1529" 
d="M467 526h659l-133 734zM1128 1372l238 -1259q6 -38 6 -45q0 -78 -82 -78q-67 0 -82 71l-55 318h-788l-242 -334q-43 -55 -84 -55q-68 0 -68 67q0 30 19 52l921 1271q52 70 119 70h4q76 0 94 -78zM1059 1571q-106 0 -174 53q-70 55 -70 150q0 79 64 79q42 0 57 -45
q24 -106 145 -106q113 0 195 110q30 41 65 41q56 0 56 -51q0 -20 -13 -39q-104 -192 -325 -192zM1370 2032l-199 -148q-45 -39 -104 -39q-45 0 -45 31q0 16 14 33l174 188q43 43 76 43q38 0 74 -20q39 -20 39 -43q0 -22 -29 -45z" />
    <glyph glyph-name="uni1EAF" unicode="&#x1eaf;" horiz-adv-x="1179" 
d="M424 100q137 0 256 88q122 88 160 228l20 73q-169 48 -344 48q-141 0 -229 -70t-88 -178q0 -85 61 -137t164 -52zM809 -10q-78 0 -66 80l27 96q-165 -189 -395 -189q-142 0 -236 76q-100 81 -100 217q0 175 133 281q129 102 338 102q177 0 377 -57l6 25q14 49 14 98
q0 215 -286 215q-120 0 -244 -37q-15 -6 -33 -6q-63 0 -63 65q0 53 53 68q148 49 311 49q198 0 307 -86q109 -89 109 -242q0 -61 -23 -145l-141 -532q-18 -78 -88 -78zM752 1210q-105 0 -174 54q-70 55 -70 149q0 80 63 80q43 0 58 -45q24 -107 145 -107q112 0 195 111
q30 41 65 41q56 0 56 -51q0 -20 -13 -39q-105 -193 -325 -193zM1065 1704l-199 -148q-44 -38 -104 -38q-45 0 -45 30q0 16 14 33l174 188q43 43 76 43q38 0 74 -20q39 -20 39 -43q0 -22 -29 -45z" />
    <glyph glyph-name="uni1EB0" unicode="&#x1eb0;" horiz-adv-x="1529" 
d="M467 526h659l-133 734zM1128 1372l238 -1259q6 -38 6 -45q0 -78 -82 -78q-67 0 -82 71l-55 318h-788l-242 -334q-43 -55 -84 -55q-68 0 -68 67q0 30 19 52l921 1271q52 70 119 70h4q76 0 94 -78zM1085 1573q-106 0 -174 53q-69 54 -69 150q0 79 63 79q43 0 58 -45
q24 -106 145 -106q112 0 195 111q30 40 65 40q55 0 55 -51q0 -21 -12 -39q-104 -192 -326 -192zM1077 1894l-116 152q-19 28 -19 41q0 22 35 43q33 20 72 20q54 0 69 -49l72 -182l6 -29q0 -32 -45 -32q-48 0 -74 36z" />
    <glyph glyph-name="uni1EB1" unicode="&#x1eb1;" horiz-adv-x="1179" 
d="M424 100q137 0 256 88q122 88 160 228l20 73q-169 48 -344 48q-141 0 -229 -70t-88 -178q0 -85 61 -137t164 -52zM809 -10q-78 0 -66 80l27 96q-165 -189 -395 -189q-142 0 -236 76q-100 81 -100 217q0 175 133 281q129 102 338 102q177 0 377 -57l6 25q14 49 14 98
q0 215 -286 215q-120 0 -244 -37q-15 -6 -33 -6q-63 0 -63 65q0 53 53 68q148 49 311 49q198 0 307 -86q109 -89 109 -242q0 -61 -23 -145l-141 -532q-18 -78 -88 -78zM752 1210q-105 0 -174 54q-70 55 -70 149q0 80 63 80q43 0 58 -45q24 -107 145 -107q112 0 195 111
q30 41 65 41q56 0 56 -51q0 -20 -13 -39q-105 -193 -325 -193zM750 1540l-117 152q-19 28 -19 41q0 22 35 43q33 20 72 20q55 0 70 -49l71 -182l6 -29q0 -33 -45 -33q-46 0 -73 37z" />
    <glyph glyph-name="uni1EB2" unicode="&#x1eb2;" horiz-adv-x="1529" 
d="M467 526h659l-133 734zM1128 1372l238 -1259q6 -38 6 -45q0 -78 -82 -78q-67 0 -82 71l-55 318h-788l-242 -334q-43 -55 -84 -55q-68 0 -68 67q0 30 19 52l921 1271q52 70 119 70h4q76 0 94 -78zM1087 1571q-106 0 -174 53q-69 54 -69 150q0 79 63 79q43 0 58 -45
q24 -106 145 -106q113 0 195 110q30 41 65 41q55 0 55 -51q0 -21 -12 -39q-104 -192 -326 -192zM1100 2052q-21 -12 -41 -12q-60 0 -60 43q0 19 23 35q89 59 201 59q89 0 145 -39q55 -37 55 -92q0 -70 -73 -113q-66 -38 -152 -47l-8 -12q-16 -29 -53 -29h-2q-30 0 -42 11
t-8 34l7 39q9 34 55 37q61 5 110 27q37 21 37 47q0 24 -20 35q-21 12 -57 12q-58 0 -117 -35z" />
    <glyph glyph-name="uni1EB3" unicode="&#x1eb3;" horiz-adv-x="1179" 
d="M424 100q137 0 256 88q122 88 160 228l20 73q-169 48 -344 48q-141 0 -229 -70t-88 -178q0 -85 61 -137t164 -52zM809 -10q-78 0 -66 80l27 96q-165 -189 -395 -189q-142 0 -236 76q-100 81 -100 217q0 175 133 281q129 102 338 102q177 0 377 -57l6 25q14 49 14 98
q0 215 -286 215q-120 0 -244 -37q-15 -6 -33 -6q-63 0 -63 65q0 53 53 68q148 49 311 49q198 0 307 -86q109 -89 109 -242q0 -61 -23 -145l-141 -532q-18 -78 -88 -78zM752 1210q-105 0 -174 54q-70 55 -70 149q0 80 63 80q43 0 58 -45q24 -107 145 -107q112 0 195 111
q30 41 65 41q56 0 56 -51q0 -20 -13 -39q-105 -193 -325 -193zM776 1776q-24 -17 -41 -17q-59 0 -59 58q0 28 22 47q89 80 201 80q87 0 145 -52q56 -50 56 -125q0 -90 -74 -149q-64 -49 -152 -64l-8 -16q-15 -37 -53 -37h-2q-58 0 -49 60l6 51q9 45 55 51q72 9 111 35
q37 27 37 63q0 30 -21 45q-24 17 -57 17q-58 0 -117 -47z" />
    <glyph glyph-name="uni1EB4" unicode="&#x1eb4;" horiz-adv-x="1529" 
d="M467 526h659l-133 734zM1128 1372l238 -1259q6 -38 6 -45q0 -78 -82 -78q-67 0 -82 71l-55 318h-788l-242 -334q-43 -55 -84 -55q-68 0 -68 67q0 30 19 52l921 1271q52 70 119 70h4q76 0 94 -78zM1090 1571q-107 0 -175 53q-69 54 -69 150q0 79 63 79q43 0 58 -45
q24 -106 145 -106q113 0 195 110q30 41 65 41q55 0 55 -51q0 -21 -12 -39q-104 -192 -325 -192zM836 1898q-54 0 -54 48q0 22 15 49q94 166 213 166q68 0 145 -68q68 -59 100 -59q50 0 109 90q21 35 53 35q56 0 56 -50q0 -26 -15 -47q-94 -168 -215 -168q-66 0 -143 68
q-65 59 -103 59q-51 0 -106 -88q-21 -35 -55 -35z" />
    <glyph glyph-name="uni1EB5" unicode="&#x1eb5;" horiz-adv-x="1179" 
d="M424 100q137 0 256 88q122 88 160 228l20 73q-169 48 -344 48q-141 0 -229 -70t-88 -178q0 -85 61 -137t164 -52zM809 -10q-78 0 -66 80l27 96q-165 -189 -395 -189q-142 0 -236 76q-100 81 -100 217q0 175 133 281q129 102 338 102q177 0 377 -57l6 25q14 49 14 98
q0 215 -286 215q-120 0 -244 -37q-15 -6 -33 -6q-63 0 -63 65q0 53 53 68q148 49 311 49q198 0 307 -86q109 -89 109 -242q0 -61 -23 -145l-141 -532q-18 -78 -88 -78zM752 1210q-105 0 -174 54q-70 55 -70 149q0 80 63 80q43 0 58 -45q24 -107 145 -107q112 0 195 111
q30 41 65 41q56 0 56 -51q0 -20 -13 -39q-105 -193 -325 -193zM530 1546q-53 0 -53 47q0 22 15 49q94 166 213 166q69 0 145 -67q69 -60 100 -60q49 0 109 91q21 34 53 34q55 0 55 -49q0 -27 -14 -47q-94 -168 -215 -168q-66 0 -143 68q-65 59 -103 59q-51 0 -106 -88
q-21 -35 -56 -35z" />
    <glyph glyph-name="uni1EB6" unicode="&#x1eb6;" horiz-adv-x="1529" 
d="M467 526h659l-133 734zM1128 1372l238 -1259q6 -38 6 -45q0 -78 -82 -78q-67 0 -82 71l-55 318h-788l-242 -334q-43 -55 -84 -55q-68 0 -68 67q0 30 19 52l921 1271q52 70 119 70h4q76 0 94 -78zM1071 1589q-106 0 -174 53q-70 55 -70 150q0 80 64 80q42 0 57 -45
q24 -107 146 -107q112 0 194 111q30 41 66 41q55 0 55 -51q0 -21 -12 -39q-105 -193 -326 -193zM598 -156q43 0 68 -28q27 -27 14 -70l-14 -51q-21 -86 -109 -86q-42 0 -68 29q-23 26 -14 69l14 51q21 86 109 86z" />
    <glyph glyph-name="uni1EB7" unicode="&#x1eb7;" horiz-adv-x="1179" 
d="M424 100q137 0 256 88q122 88 160 228l20 73q-169 48 -344 48q-141 0 -229 -70t-88 -178q0 -85 61 -137t164 -52zM809 -10q-78 0 -66 80l27 96q-165 -189 -395 -189q-142 0 -236 76q-100 81 -100 217q0 175 133 281q129 102 338 102q177 0 377 -57l6 25q14 49 14 98
q0 215 -286 215q-120 0 -244 -37q-15 -6 -33 -6q-63 0 -63 65q0 53 53 68q148 49 311 49q198 0 307 -86q109 -89 109 -242q0 -61 -23 -145l-141 -532q-18 -78 -88 -78zM752 1210q-105 0 -174 54q-70 55 -70 149q0 80 63 80q43 0 58 -45q24 -107 145 -107q112 0 195 111
q30 41 65 41q56 0 56 -51q0 -20 -13 -39q-105 -193 -325 -193zM389 -156q43 0 68 -28q27 -27 14 -70l-14 -51q-21 -86 -109 -86q-41 0 -67 29q-24 27 -15 69l15 51q21 86 108 86z" />
    <glyph glyph-name="uni1EB8" unicode="&#x1eb8;" horiz-adv-x="1337" 
d="M1051 0h-897q-40 0 -58 27q-22 28 -10 67l338 1258q21 82 92 82h870q74 0 74 -74t-74 -74h-819l-131 -489h686q31 0 54 -23q20 -20 20 -51q0 -74 -74 -74h-725l-135 -502h789q73 0 73 -73q0 -74 -73 -74zM526 -156q43 0 68 -28q27 -27 14 -70l-14 -51q-21 -86 -109 -86
q-41 0 -67 29q-24 27 -15 69l15 51q21 86 108 86z" />
    <glyph glyph-name="uni1EB9" unicode="&#x1eb9;" horiz-adv-x="1206" 
d="M279 594h682q10 33 10 82q0 117 -64 190q-70 82 -200 82q-152 0 -271 -104q-109 -94 -157 -250zM575 113q165 0 287 98q29 16 53 16q64 0 64 -63q0 -33 -31 -58q-162 -131 -381 -131q-212 0 -340 125q-129 126 -129 326q0 251 176 448q183 207 441 207q193 0 305 -118
q104 -113 104 -287q0 -63 -14 -129q-15 -72 -86 -72h-766l-2 -51q3 -143 88 -225q89 -86 231 -86zM403 -156q43 0 68 -28q27 -27 14 -70l-14 -51q-21 -86 -109 -86q-41 0 -67 29q-23 26 -14 69l14 51q21 86 108 86z" />
    <glyph glyph-name="uni1EBA" unicode="&#x1eba;" horiz-adv-x="1337" 
d="M1051 0h-897q-40 0 -58 27q-22 28 -10 67l338 1258q21 82 92 82h870q74 0 74 -74t-74 -74h-819l-131 -489h686q31 0 54 -23q20 -20 20 -51q0 -74 -74 -74h-725l-135 -502h789q73 0 73 -73q0 -74 -73 -74zM950 1831q-22 -16 -41 -16q-59 0 -59 57q0 28 22 47q89 80 201 80
q89 0 146 -51q55 -49 55 -125q0 -91 -74 -150q-63 -48 -151 -63l-9 -17q-15 -37 -53 -37h-2q-58 0 -49 60l6 51q9 45 55 51q72 9 111 35q37 27 37 64q0 30 -21 45q-22 16 -57 16q-58 0 -117 -47z" />
    <glyph glyph-name="uni1EBB" unicode="&#x1ebb;" horiz-adv-x="1206" 
d="M279 594h682q10 33 10 82q0 117 -64 190q-70 82 -200 82q-152 0 -271 -104q-109 -94 -157 -250zM575 113q165 0 287 98q29 16 53 16q64 0 64 -63q0 -33 -31 -58q-162 -131 -381 -131q-212 0 -340 125q-129 126 -129 326q0 251 176 448q183 207 441 207q193 0 305 -118
q104 -113 104 -287q0 -63 -14 -129q-15 -72 -86 -72h-766l-2 -51q3 -143 88 -225q89 -86 231 -86zM725 1456q-22 -16 -41 -16q-59 0 -59 57q0 28 22 47q89 80 201 80q88 0 145 -51q56 -50 56 -125q0 -91 -74 -150q-62 -48 -152 -63l-8 -16q-15 -37 -53 -37h-2q-58 0 -49 59
l6 51q9 45 55 51q72 9 111 35q37 27 37 64q0 30 -21 45q-22 16 -57 16q-58 0 -117 -47z" />
    <glyph glyph-name="uni1EBC" unicode="&#x1ebc;" horiz-adv-x="1337" 
d="M1051 0h-897q-40 0 -58 27q-22 28 -10 67l338 1258q21 82 92 82h870q74 0 74 -74t-74 -74h-819l-131 -489h686q31 0 54 -23q20 -20 20 -51q0 -74 -74 -74h-725l-135 -502h789q73 0 73 -73q0 -74 -73 -74zM752 1585q-54 0 -54 47q0 22 15 49q94 166 213 166q69 0 145 -67
q69 -60 100 -60q50 0 109 90q21 35 53 35q56 0 56 -49q0 -26 -15 -47q-94 -168 -215 -168q-66 0 -143 68q-65 59 -103 59q-51 0 -106 -88q-21 -35 -55 -35z" />
    <glyph glyph-name="uni1EBD" unicode="&#x1ebd;" horiz-adv-x="1206" 
d="M279 594h682q10 33 10 82q0 117 -64 190q-70 82 -200 82q-152 0 -271 -104q-109 -94 -157 -250zM575 113q165 0 287 98q29 16 53 16q64 0 64 -63q0 -33 -31 -58q-162 -131 -381 -131q-212 0 -340 125q-129 126 -129 326q0 251 176 448q183 207 441 207q193 0 305 -118
q104 -113 104 -287q0 -63 -14 -129q-15 -72 -86 -72h-766l-2 -51q3 -143 88 -225q89 -86 231 -86zM528 1210q-53 0 -53 47q0 25 14 50q94 166 213 166q69 0 146 -68q68 -59 100 -59q50 0 109 90q21 34 53 34q55 0 55 -49q0 -27 -14 -47q-94 -168 -215 -168q-66 0 -143 68
q-65 59 -103 59q-51 0 -106 -88q-21 -35 -56 -35z" />
    <glyph glyph-name="uni1EBE" unicode="&#x1ebe;" horiz-adv-x="1337" 
d="M1051 0h-897q-40 0 -58 27q-22 28 -10 67l338 1258q21 82 92 82h870q74 0 74 -74t-74 -74h-819l-131 -489h686q31 0 54 -23q20 -20 20 -51q0 -74 -74 -74h-725l-135 -502h789q73 0 73 -73q0 -74 -73 -74zM1171 1810l93 -172q14 -22 14 -36q0 -29 -39 -29q-63 0 -96 39
l-86 106l-154 -106q-56 -39 -102 -39q-39 0 -39 29q0 16 22 38l185 172q49 46 92 46h35q47 0 75 -48zM1608 1939l-199 -147q-45 -39 -104 -39q-45 0 -45 31q0 16 14 33l174 188q43 43 76 43q37 0 73 -20q39 -20 39 -43q0 -24 -28 -46z" />
    <glyph glyph-name="uni1EBF" unicode="&#x1ebf;" horiz-adv-x="1206" 
d="M279 594h682q10 33 10 82q0 117 -64 190q-70 82 -200 82q-152 0 -271 -104q-109 -94 -157 -250zM575 113q165 0 287 98q29 16 53 16q64 0 64 -63q0 -33 -31 -58q-162 -131 -381 -131q-212 0 -340 125q-129 126 -129 326q0 251 176 448q183 207 441 207q193 0 305 -118
q104 -113 104 -287q0 -63 -14 -129q-15 -72 -86 -72h-766l-2 -51q3 -143 88 -225q89 -86 231 -86zM930 1448l92 -172q14 -22 14 -37q0 -29 -39 -29q-63 0 -96 39l-86 107l-153 -107q-56 -39 -103 -39q-39 0 -39 29q0 16 23 39l184 172q48 45 92 45h35q49 0 76 -47z
M1358 1597l-199 -147q-45 -39 -104 -39q-45 0 -45 31q0 16 14 33l174 188q43 43 76 43q38 0 74 -20q38 -20 38 -44q0 -23 -28 -45z" />
    <glyph glyph-name="uni1EC0" unicode="&#x1ec0;" horiz-adv-x="1337" 
d="M1051 0h-897q-40 0 -58 27q-22 28 -10 67l338 1258q21 82 92 82h870q74 0 74 -74t-74 -74h-819l-131 -489h686q31 0 54 -23q20 -20 20 -51q0 -74 -74 -74h-725l-135 -502h789q73 0 73 -73q0 -74 -73 -74zM1141 1794l92 -172q14 -22 14 -37q0 -29 -39 -29q-63 0 -96 39
l-86 107l-154 -107q-56 -39 -102 -39q-39 0 -39 29q0 16 23 39l184 172q48 45 92 45h35q49 0 76 -47zM694 1774l-116 151q-19 29 -19 41q0 22 35 43q34 21 72 21q54 0 69 -50l72 -182l6 -29q0 -32 -45 -32q-47 0 -74 37z" />
    <glyph glyph-name="uni1EC1" unicode="&#x1ec1;" horiz-adv-x="1206" 
d="M279 594h682q10 33 10 82q0 117 -64 190q-70 82 -200 82q-152 0 -271 -104q-109 -94 -157 -250zM575 113q165 0 287 98q29 16 53 16q64 0 64 -63q0 -33 -31 -58q-162 -131 -381 -131q-212 0 -340 125q-129 126 -129 326q0 251 176 448q183 207 441 207q193 0 305 -118
q104 -113 104 -287q0 -63 -14 -129q-15 -72 -86 -72h-766l-2 -51q3 -143 88 -225q89 -86 231 -86zM930 1448l92 -172q14 -22 14 -37q0 -29 -39 -29q-63 0 -96 39l-86 107l-153 -107q-56 -39 -103 -39q-39 0 -39 29q0 16 23 39l184 172q48 45 92 45h35q49 0 76 -47zM547 1489
l-117 151q-18 27 -18 41q0 22 34 43t72 21q55 0 70 -49l71 -183l7 -28q0 -33 -45 -33q-47 0 -74 37z" />
    <glyph glyph-name="uni1EC2" unicode="&#x1ec2;" horiz-adv-x="1337" 
d="M1051 0h-897q-40 0 -58 27q-22 28 -10 67l338 1258q21 82 92 82h870q74 0 74 -74t-74 -74h-819l-131 -489h686q31 0 54 -23q20 -20 20 -51q0 -74 -74 -74h-725l-135 -502h789q73 0 73 -73q0 -74 -73 -74zM1141 1794l92 -172q14 -22 14 -37q0 -29 -39 -29q-63 0 -96 39
l-86 107l-154 -107q-56 -39 -102 -39q-39 0 -39 29q0 16 23 39l184 172q48 45 92 45h35q49 0 76 -47zM1255 1966q-22 -16 -41 -16q-59 0 -59 57q0 27 23 47q89 80 200 80q89 0 146 -51q55 -49 55 -125q0 -91 -74 -150q-63 -48 -151 -63l-8 -16q-15 -37 -54 -37h-2
q-58 0 -49 59l6 51q9 45 56 51q71 9 110 35q37 27 37 64q0 31 -20 45q-22 16 -58 16q-58 0 -117 -47z" />
    <glyph glyph-name="uni1EC3" unicode="&#x1ec3;" horiz-adv-x="1206" 
d="M279 594h682q10 33 10 82q0 117 -64 190q-70 82 -200 82q-152 0 -271 -104q-109 -94 -157 -250zM575 113q165 0 287 98q29 16 53 16q64 0 64 -63q0 -33 -31 -58q-162 -131 -381 -131q-212 0 -340 125q-129 126 -129 326q0 251 176 448q183 207 441 207q193 0 305 -118
q104 -113 104 -287q0 -63 -14 -129q-15 -72 -86 -72h-766l-2 -51q3 -143 88 -225q89 -86 231 -86zM930 1448l92 -172q14 -22 14 -37q0 -29 -39 -29q-63 0 -96 39l-86 107l-153 -107q-56 -39 -103 -39q-39 0 -39 29q0 16 23 39l184 172q48 45 92 45h35q49 0 76 -47z
M1034 1645q-24 -17 -41 -17q-59 0 -59 58q0 28 22 47q88 79 201 79q89 0 146 -51q55 -49 55 -125q0 -90 -74 -149q-64 -49 -151 -64l-9 -16q-15 -37 -53 -37h-2q-58 0 -49 60l6 51q9 45 55 51q72 9 111 35q37 27 37 63q0 30 -21 45q-24 17 -57 17q-58 0 -117 -47z" />
    <glyph glyph-name="uni1EC4" unicode="&#x1ec4;" horiz-adv-x="1337" 
d="M1051 0h-897q-40 0 -58 27q-22 28 -10 67l338 1258q21 82 92 82h870q74 0 74 -74t-74 -74h-819l-131 -489h686q31 0 54 -23q20 -20 20 -51q0 -74 -74 -74h-725l-135 -502h789q73 0 73 -73q0 -74 -73 -74zM1139 1794l92 -172q14 -22 14 -37q0 -29 -39 -29q-63 0 -96 39
l-86 107l-154 -107q-56 -39 -102 -39q-39 0 -39 29q0 16 23 39l184 172q48 45 92 45h35q49 0 76 -47zM817 1847q-53 0 -53 47q0 25 14 50q94 165 213 165q70 0 146 -67q69 -60 100 -60q49 0 109 91q21 34 53 34q55 0 55 -49q0 -27 -14 -47q-94 -168 -215 -168q-67 0 -144 68
q-65 59 -102 59q-52 0 -107 -88q-21 -35 -55 -35z" />
    <glyph glyph-name="uni1EC5" unicode="&#x1ec5;" horiz-adv-x="1206" 
d="M279 594h682q10 33 10 82q0 117 -64 190q-70 82 -200 82q-152 0 -271 -104q-109 -94 -157 -250zM575 113q165 0 287 98q29 16 53 16q64 0 64 -63q0 -33 -31 -58q-162 -131 -381 -131q-212 0 -340 125q-129 126 -129 326q0 251 176 448q183 207 441 207q193 0 305 -118
q104 -113 104 -287q0 -63 -14 -129q-15 -72 -86 -72h-766l-2 -51q3 -143 88 -225q89 -86 231 -86zM930 1448l92 -172q14 -22 14 -37q0 -29 -39 -29q-63 0 -96 39l-86 107l-153 -107q-56 -39 -103 -39q-39 0 -39 29q0 16 23 39l184 172q48 45 92 45h35q49 0 76 -47zM623 1530
q-54 0 -54 47q0 22 15 49q94 166 213 166q68 0 145 -68q68 -59 100 -59q50 0 109 90q21 35 53 35q56 0 56 -49q0 -26 -15 -47q-94 -168 -215 -168q-67 0 -143 67q-66 60 -103 60q-51 0 -106 -88q-21 -35 -55 -35z" />
    <glyph glyph-name="uni1EC6" unicode="&#x1ec6;" horiz-adv-x="1337" 
d="M1051 0h-897q-40 0 -58 27q-22 28 -10 67l338 1258q21 82 92 82h870q74 0 74 -74t-74 -74h-819l-131 -489h686q31 0 54 -23q20 -20 20 -51q0 -74 -74 -74h-725l-135 -502h789q73 0 73 -73q0 -74 -73 -74zM1200 1823l92 -172q15 -24 15 -37q0 -29 -39 -29q-64 0 -97 39
l-86 107l-153 -107q-56 -39 -103 -39q-38 0 -38 29q0 17 22 39l184 172q48 45 93 45h34q49 0 76 -47zM526 -156q43 0 68 -28q27 -27 14 -70l-14 -51q-21 -86 -109 -86q-41 0 -67 29q-24 27 -15 69l15 51q21 86 108 86z" />
    <glyph glyph-name="uni1EC7" unicode="&#x1ec7;" horiz-adv-x="1206" 
d="M279 594h682q10 33 10 82q0 117 -64 190q-70 82 -200 82q-152 0 -271 -104q-109 -94 -157 -250zM575 113q165 0 287 98q29 16 53 16q64 0 64 -63q0 -33 -31 -58q-162 -131 -381 -131q-212 0 -340 125q-129 126 -129 326q0 251 176 448q183 207 441 207q193 0 305 -118
q104 -113 104 -287q0 -63 -14 -129q-15 -72 -86 -72h-766l-2 -51q3 -143 88 -225q89 -86 231 -86zM930 1448l92 -172q14 -22 14 -37q0 -29 -39 -29q-63 0 -96 39l-86 107l-153 -107q-56 -39 -103 -39q-39 0 -39 29q0 16 23 39l184 172q48 45 92 45h35q49 0 76 -47zM504 -156
q42 0 67 -28q28 -28 15 -70l-15 -51q-21 -86 -108 -86q-42 0 -68 29q-23 26 -14 69l14 51q21 86 109 86z" />
    <glyph glyph-name="uni1EC8" unicode="&#x1ec8;" horiz-adv-x="595" 
d="M598 1343l-342 -1275q-21 -78 -90 -78q-40 0 -57 26q-23 29 -11 74l344 1276q21 78 88 78q39 0 60 -27q20 -26 8 -74zM522 1831q-22 -16 -41 -16q-59 0 -59 57q0 28 22 47q89 80 201 80q89 0 146 -51q55 -49 55 -125q0 -91 -74 -150q-63 -48 -151 -63l-9 -17
q-15 -37 -53 -37h-2q-58 0 -49 60l6 51q9 45 55 51q72 9 111 35q37 27 37 64q0 30 -21 45q-22 16 -57 16q-58 0 -117 -47z" />
    <glyph glyph-name="uni1EC9" unicode="&#x1ec9;" horiz-adv-x="540" 
d="M471 971l-242 -903q-21 -78 -88 -78q-87 0 -63 98l241 903q21 78 89 78q39 0 57 -27t6 -71zM391 1456q-22 -16 -41 -16q-59 0 -59 57q0 28 22 47q89 80 201 80q88 0 145 -51q56 -50 56 -125q0 -91 -74 -150q-62 -48 -152 -63l-8 -16q-15 -37 -53 -37h-2q-58 0 -49 59
l6 51q9 45 55 51q72 9 111 35q37 27 37 64q0 30 -21 45q-22 16 -57 16q-58 0 -117 -47z" />
    <glyph glyph-name="uni1ECA" unicode="&#x1eca;" horiz-adv-x="595" 
d="M598 1343l-342 -1275q-21 -78 -90 -78q-40 0 -57 26q-23 29 -11 74l344 1276q21 78 88 78q39 0 60 -27q20 -26 8 -74zM98 -156q43 0 68 -28q27 -27 14 -70l-14 -51q-21 -86 -109 -86q-41 0 -67 29q-24 27 -15 69l15 51q21 86 108 86z" />
    <glyph glyph-name="uni1ECB" unicode="&#x1ecb;" horiz-adv-x="540" 
d="M600 1395l-10 -41q-18 -74 -105 -74q-40 0 -63 23q-24 24 -16 57l10 43q21 72 104 72q40 0 66 -23q23 -23 14 -57zM471 971l-242 -903q-21 -78 -88 -78q-87 0 -63 98l241 903q21 78 89 78q39 0 57 -27t6 -71zM72 -156q42 0 67 -28q28 -28 15 -70l-15 -51
q-21 -86 -108 -86q-42 0 -68 29q-23 26 -14 69l14 51q21 86 109 86z" />
    <glyph glyph-name="uni1ECC" unicode="&#x1ecc;" horiz-adv-x="1724" 
d="M809 -27q-275 0 -453 181q-176 176 -176 442q0 340 240 598q249 264 596 264q275 0 452 -180q177 -177 177 -440q0 -343 -240 -598q-249 -267 -596 -267zM819 123q275 0 469 221q187 211 187 487q0 207 -127 340q-132 138 -342 138q-274 0 -469 -222q-187 -211 -187 -487
q0 -207 127 -340q131 -137 342 -137zM745 -156q43 0 68 -28q27 -27 14 -70l-14 -51q-21 -86 -108 -86q-42 0 -68 29q-23 26 -14 69l14 51q21 86 108 86z" />
    <glyph glyph-name="uni1ECD" unicode="&#x1ecd;" horiz-adv-x="1306" 
d="M582 -25q-215 0 -351 136q-131 131 -131 340q0 250 185 438q186 192 438 192q217 0 350 -133t133 -340q0 -254 -188 -442q-188 -191 -436 -191zM592 117q177 0 315 147q137 149 137 338q0 161 -92 250q-90 90 -239 90q-179 0 -318 -151q-135 -150 -135 -336
q0 -158 92 -250q88 -88 240 -88zM553 -156q43 0 68 -28q27 -27 14 -70l-14 -51q-21 -86 -109 -86q-42 0 -68 29q-23 26 -14 69l14 51q21 86 109 86z" />
    <glyph glyph-name="uni1ECE" unicode="&#x1ece;" horiz-adv-x="1724" 
d="M809 -27q-275 0 -453 181q-176 176 -176 442q0 340 240 598q249 264 596 264q275 0 452 -180q177 -177 177 -440q0 -343 -240 -598q-249 -267 -596 -267zM819 123q275 0 469 221q187 211 187 487q0 207 -127 340q-132 138 -342 138q-274 0 -469 -222q-187 -211 -187 -487
q0 -207 127 -340q131 -137 342 -137zM1085 1831q-22 -16 -41 -16q-59 0 -59 57q0 27 23 47q89 80 200 80q89 0 146 -51q55 -49 55 -125q0 -91 -74 -150q-63 -48 -151 -63l-8 -17q-15 -37 -54 -37h-2q-58 0 -49 60l6 51q9 45 56 51q71 9 110 35q37 27 37 64q0 31 -20 45
q-22 16 -58 16q-58 0 -117 -47z" />
    <glyph glyph-name="uni1ECF" unicode="&#x1ecf;" horiz-adv-x="1306" 
d="M582 -25q-215 0 -351 136q-131 131 -131 340q0 250 185 438q186 192 438 192q217 0 350 -133t133 -340q0 -254 -188 -442q-188 -191 -436 -191zM592 117q177 0 315 147q137 149 137 338q0 161 -92 250q-90 90 -239 90q-179 0 -318 -151q-135 -150 -135 -336
q0 -158 92 -250q88 -88 240 -88zM774 1456q-22 -16 -41 -16q-59 0 -59 57q0 28 22 47q89 80 201 80q88 0 145 -51q56 -50 56 -125q0 -91 -74 -150q-62 -48 -152 -63l-8 -16q-15 -37 -53 -37h-2q-58 0 -49 59l6 51q9 45 55 51q72 9 111 35q37 27 37 64q0 30 -21 45
q-22 16 -57 16q-58 0 -117 -47z" />
    <glyph glyph-name="uni1ED0" unicode="&#x1ed0;" horiz-adv-x="1724" 
d="M809 -27q-275 0 -453 181q-176 176 -176 442q0 340 240 598q249 264 596 264q275 0 452 -180q177 -177 177 -440q0 -343 -240 -598q-249 -267 -596 -267zM819 123q275 0 469 221q187 211 187 487q0 207 -127 340q-132 138 -342 138q-274 0 -469 -222q-187 -211 -187 -487
q0 -207 127 -340q131 -137 342 -137zM1272 1808l92 -172q14 -22 14 -37q0 -28 -39 -28q-63 0 -96 39l-86 106l-153 -106q-56 -39 -103 -39q-39 0 -39 28q0 16 23 39l184 172q48 45 92 45h35q49 0 76 -47zM1708 1937l-199 -147q-45 -39 -104 -39q-45 0 -45 31q0 16 14 33
l174 188q43 43 76 43q36 0 74 -21q39 -20 39 -43q0 -22 -29 -45z" />
    <glyph glyph-name="uni1ED1" unicode="&#x1ed1;" horiz-adv-x="1306" 
d="M582 -25q-215 0 -351 136q-131 131 -131 340q0 250 185 438q186 192 438 192q217 0 350 -133t133 -340q0 -254 -188 -442q-188 -191 -436 -191zM592 117q177 0 315 147q137 149 137 338q0 161 -92 250q-90 90 -239 90q-179 0 -318 -151q-135 -150 -135 -336
q0 -158 92 -250q88 -88 240 -88zM975 1448l92 -172q14 -22 14 -37q0 -29 -39 -29q-63 0 -96 39l-86 107l-153 -107q-56 -39 -103 -39q-39 0 -39 29q0 16 23 39l184 172q48 45 92 45h35q49 0 76 -47zM1397 1606l-199 -148q-45 -39 -104 -39q-45 0 -45 31q0 16 14 33l174 188
q43 43 76 43q37 0 73 -20q39 -20 39 -43t-28 -45z" />
    <glyph glyph-name="uni1ED2" unicode="&#x1ed2;" horiz-adv-x="1724" 
d="M809 -27q-275 0 -453 181q-176 176 -176 442q0 340 240 598q249 264 596 264q275 0 452 -180q177 -177 177 -440q0 -343 -240 -598q-249 -267 -596 -267zM819 123q275 0 469 221q187 211 187 487q0 207 -127 340q-132 138 -342 138q-274 0 -469 -222q-187 -211 -187 -487
q0 -207 127 -340q131 -137 342 -137zM1270 1808l92 -172q14 -22 14 -37q0 -28 -39 -28q-63 0 -96 39l-86 106l-154 -106q-56 -39 -102 -39q-39 0 -39 28q0 16 23 39l184 172q48 45 92 45h35q49 0 76 -47zM823 1788l-116 151q-19 28 -19 41q0 22 35 43t72 21q54 0 69 -49
l72 -183l6 -28q0 -33 -45 -33q-47 0 -74 37z" />
    <glyph glyph-name="uni1ED3" unicode="&#x1ed3;" horiz-adv-x="1306" 
d="M582 -25q-215 0 -351 136q-131 131 -131 340q0 250 185 438q186 192 438 192q217 0 350 -133t133 -340q0 -254 -188 -442q-188 -191 -436 -191zM592 117q177 0 315 147q137 149 137 338q0 161 -92 250q-90 90 -239 90q-179 0 -318 -151q-135 -150 -135 -336
q0 -158 92 -250q88 -88 240 -88zM975 1448l92 -172q14 -22 14 -37q0 -29 -39 -29q-63 0 -96 39l-86 107l-153 -107q-56 -39 -103 -39q-39 0 -39 29q0 16 23 39l184 172q48 45 92 45h35q49 0 76 -47zM555 1497l-117 152q-18 27 -18 41q0 22 35 43q33 20 71 20q55 0 70 -49
l72 -182l6 -29q0 -33 -45 -33q-47 0 -74 37z" />
    <glyph glyph-name="uni1ED4" unicode="&#x1ed4;" horiz-adv-x="1724" 
d="M809 -27q-275 0 -453 181q-176 176 -176 442q0 340 240 598q249 264 596 264q275 0 452 -180q177 -177 177 -440q0 -343 -240 -598q-249 -267 -596 -267zM819 123q275 0 469 221q187 211 187 487q0 207 -127 340q-132 138 -342 138q-274 0 -469 -222q-187 -211 -187 -487
q0 -207 127 -340q131 -137 342 -137zM1270 1808l92 -172q14 -22 14 -37q0 -28 -39 -28q-63 0 -96 39l-86 106l-154 -106q-56 -39 -102 -39q-39 0 -39 28q0 16 23 39l184 172q48 45 92 45h35q49 0 76 -47zM1384 1980q-22 -16 -41 -16q-59 0 -59 57q0 27 23 47q89 80 200 80
q89 0 146 -51q55 -49 55 -125q0 -90 -74 -149q-64 -49 -151 -64l-8 -16q-15 -37 -54 -37h-2q-58 0 -49 59l6 52q9 45 56 51q71 9 110 35q37 27 37 63q0 31 -20 45q-24 17 -58 17q-57 0 -117 -48z" />
    <glyph glyph-name="uni1ED5" unicode="&#x1ed5;" horiz-adv-x="1306" 
d="M582 -25q-215 0 -351 136q-131 131 -131 340q0 250 185 438q186 192 438 192q217 0 350 -133t133 -340q0 -254 -188 -442q-188 -191 -436 -191zM592 117q177 0 315 147q137 149 137 338q0 161 -92 250q-90 90 -239 90q-179 0 -318 -151q-135 -150 -135 -336
q0 -158 92 -250q88 -88 240 -88zM975 1448l92 -172q14 -22 14 -37q0 -29 -39 -29q-63 0 -96 39l-86 107l-153 -107q-56 -39 -103 -39q-39 0 -39 29q0 16 23 39l184 172q48 45 92 45h35q49 0 76 -47zM1077 1661q-22 -16 -41 -16q-59 0 -59 57q0 28 22 47q89 80 201 80
q89 0 146 -51q55 -49 55 -125q0 -91 -74 -150q-63 -48 -151 -63l-9 -17q-15 -37 -53 -37h-2q-58 0 -49 60l6 51q9 45 55 51q72 9 111 35q37 27 37 64q0 30 -21 45q-22 16 -57 16q-58 0 -117 -47z" />
    <glyph glyph-name="uni1ED6" unicode="&#x1ed6;" horiz-adv-x="1724" 
d="M809 -27q-275 0 -453 181q-176 176 -176 442q0 340 240 598q249 264 596 264q275 0 452 -180q177 -177 177 -440q0 -343 -240 -598q-249 -267 -596 -267zM819 123q275 0 469 221q187 211 187 487q0 207 -127 340q-132 138 -342 138q-274 0 -469 -222q-187 -211 -187 -487
q0 -207 127 -340q131 -137 342 -137zM1270 1808l92 -172q14 -22 14 -37q0 -28 -39 -28q-63 0 -96 39l-86 106l-154 -106q-56 -39 -102 -39q-39 0 -39 28q0 16 23 39l184 172q48 45 92 45h35q49 0 76 -47zM948 1862q-53 0 -53 47q0 24 14 49q94 166 213 166q69 0 146 -68
q68 -59 100 -59q50 0 109 90q21 35 53 35q55 0 55 -49q0 -28 -14 -48q-93 -167 -215 -167q-68 0 -144 67q-66 60 -102 60q-50 0 -106 -89q-21 -34 -56 -34z" />
    <glyph glyph-name="uni1ED7" unicode="&#x1ed7;" horiz-adv-x="1306" 
d="M582 -25q-215 0 -351 136q-131 131 -131 340q0 250 185 438q186 192 438 192q217 0 350 -133t133 -340q0 -254 -188 -442q-188 -191 -436 -191zM592 117q177 0 315 147q137 149 137 338q0 161 -92 250q-90 90 -239 90q-179 0 -318 -151q-135 -150 -135 -336
q0 -158 92 -250q88 -88 240 -88zM975 1448l92 -172q14 -22 14 -37q0 -29 -39 -29q-63 0 -96 39l-86 107l-153 -107q-56 -39 -103 -39q-39 0 -39 29q0 16 23 39l184 172q48 45 92 45h35q49 0 76 -47zM700 1505q-53 0 -53 47q0 23 15 50q94 165 212 165q70 0 146 -67
q69 -60 100 -60q49 0 109 91q21 34 53 34q55 0 55 -49q0 -27 -14 -47q-94 -168 -215 -168q-66 0 -143 68q-65 59 -103 59q-51 0 -106 -88q-21 -35 -56 -35z" />
    <glyph glyph-name="uni1ED8" unicode="&#x1ed8;" horiz-adv-x="1724" 
d="M809 -27q-275 0 -453 181q-176 176 -176 442q0 340 240 598q249 264 596 264q275 0 452 -180q177 -177 177 -440q0 -343 -240 -598q-249 -267 -596 -267zM819 123q275 0 469 221q187 211 187 487q0 207 -127 340q-132 138 -342 138q-274 0 -469 -222q-187 -211 -187 -487
q0 -207 127 -340q131 -137 342 -137zM1270 1808l92 -172q14 -22 14 -37q0 -28 -39 -28q-63 0 -96 39l-86 106l-154 -106q-56 -39 -102 -39q-39 0 -39 28q0 16 23 39l184 172q48 45 92 45h35q49 0 76 -47zM741 -156q43 0 68 -28q27 -27 14 -70l-14 -51q-21 -86 -109 -86
q-41 0 -67 29q-24 27 -15 69l15 51q21 86 108 86z" />
    <glyph glyph-name="uni1ED9" unicode="&#x1ed9;" horiz-adv-x="1306" 
d="M582 -25q-215 0 -351 136q-131 131 -131 340q0 250 185 438q186 192 438 192q217 0 350 -133t133 -340q0 -254 -188 -442q-188 -191 -436 -191zM592 117q177 0 315 147q137 149 137 338q0 161 -92 250q-90 90 -239 90q-179 0 -318 -151q-135 -150 -135 -336
q0 -158 92 -250q88 -88 240 -88zM975 1448l92 -172q14 -22 14 -37q0 -29 -39 -29q-63 0 -96 39l-86 107l-153 -107q-56 -39 -103 -39q-39 0 -39 29q0 16 23 39l184 172q48 45 92 45h35q49 0 76 -47zM551 -156q42 0 67 -28q28 -28 15 -70l-15 -51q-21 -86 -108 -86
q-42 0 -68 29q-23 26 -14 69l14 51q21 86 109 86z" />
    <glyph glyph-name="uni1EDA" unicode="&#x1eda;" horiz-adv-x="1724" 
d="M1288 344q187 211 187 487q0 207 -127 340q-132 138 -342 138q-274 0 -469 -222q-187 -211 -187 -487q0 -207 127 -340q131 -137 342 -137q275 0 469 221zM1430 1315q7 -6 38 -37q177 -177 177 -440q0 -343 -240 -598q-249 -267 -596 -267q-275 0 -453 181
q-176 176 -176 442q0 340 240 598q249 264 596 264q104 0 192 -24q227 0 271 151q25 25 59 25q72 0 72 -66q0 -37 -35 -96q-50 -95 -145 -133zM1294 1757l-198 -147q-45 -39 -105 -39q-45 0 -45 31q0 14 15 32l174 189q43 43 75 43q36 0 74 -21q39 -20 39 -43q0 -22 -29 -45
z" />
    <glyph glyph-name="uni1EDB" unicode="&#x1edb;" horiz-adv-x="1306" 
d="M907 264q137 149 137 338q0 161 -92 250q-90 90 -239 90q-179 0 -318 -151q-135 -150 -135 -336q0 -158 92 -250q88 -88 240 -88q177 0 315 147zM1071 950l2 -2q133 -133 133 -340q0 -254 -188 -442q-188 -191 -436 -191q-215 0 -351 136q-131 131 -131 340
q0 250 185 438q186 192 438 192q83 0 154 -18q173 -12 217 145q25 25 59 25q72 0 72 -66q0 -37 -35 -96q-38 -78 -119 -121zM1012 1397l-199 -148q-45 -39 -104 -39q-45 0 -45 31q0 16 14 33l174 188q43 43 76 43q37 0 73 -20q39 -20 39 -43t-28 -45z" />
    <glyph glyph-name="uni1EDC" unicode="&#x1edc;" horiz-adv-x="1724" 
d="M1288 344q187 211 187 487q0 207 -127 340q-132 138 -342 138q-274 0 -469 -222q-187 -211 -187 -487q0 -207 127 -340q131 -137 342 -137q275 0 469 221zM1430 1315q7 -6 38 -37q177 -177 177 -440q0 -343 -240 -598q-249 -267 -596 -267q-275 0 -453 181
q-176 176 -176 442q0 340 240 598q249 264 596 264q104 0 192 -24q227 0 271 151q25 25 59 25q72 0 72 -66q0 -37 -35 -96q-50 -95 -145 -133zM995 1608l-116 151q-19 28 -19 41q0 22 35 43t72 21q54 0 69 -49l72 -183l6 -28q0 -33 -45 -33q-47 0 -74 37z" />
    <glyph glyph-name="uni1EDD" unicode="&#x1edd;" horiz-adv-x="1306" 
d="M907 264q137 149 137 338q0 161 -92 250q-90 90 -239 90q-179 0 -318 -151q-135 -150 -135 -336q0 -158 92 -250q88 -88 240 -88q177 0 315 147zM1071 950l2 -2q133 -133 133 -340q0 -254 -188 -442q-188 -191 -436 -191q-215 0 -351 136q-131 131 -131 340
q0 250 185 438q186 192 438 192q83 0 154 -18q173 -12 217 145q25 25 59 25q72 0 72 -66q0 -37 -35 -96q-38 -78 -119 -121zM700 1247l-116 152q-19 28 -19 41q0 22 35 43q33 20 72 20q54 0 69 -49l72 -182l6 -29q0 -33 -45 -33q-47 0 -74 37z" />
    <glyph glyph-name="uni1EDE" unicode="&#x1ede;" horiz-adv-x="1724" 
d="M1288 344q187 211 187 487q0 207 -127 340q-132 138 -342 138q-274 0 -469 -222q-187 -211 -187 -487q0 -207 127 -340q131 -137 342 -137q275 0 469 221zM1430 1315q7 -6 38 -37q177 -177 177 -440q0 -343 -240 -598q-249 -267 -596 -267q-275 0 -453 181
q-176 176 -176 442q0 340 240 598q249 264 596 264q104 0 192 -24q227 0 271 151q25 25 59 25q72 0 72 -66q0 -37 -35 -96q-50 -95 -145 -133zM961 1845q-22 -16 -41 -16q-60 0 -60 57q0 27 23 47q89 80 200 80q89 0 146 -51q55 -49 55 -125q0 -90 -74 -149
q-64 -49 -151 -64l-8 -16q-15 -37 -54 -37h-2q-58 0 -49 59l6 51q9 46 56 52q73 9 110 34q37 27 37 64q0 31 -20 45q-22 16 -58 16q-57 0 -116 -47z" />
    <glyph glyph-name="uni1EDF" unicode="&#x1edf;" horiz-adv-x="1306" 
d="M907 264q137 149 137 338q0 161 -92 250q-90 90 -239 90q-179 0 -318 -151q-135 -150 -135 -336q0 -158 92 -250q88 -88 240 -88q177 0 315 147zM1071 950l2 -2q133 -133 133 -340q0 -254 -188 -442q-188 -191 -436 -191q-215 0 -351 136q-131 131 -131 340
q0 250 185 438q186 192 438 192q83 0 154 -18q173 -12 217 145q25 25 59 25q72 0 72 -66q0 -37 -35 -96q-38 -78 -119 -121zM666 1485q-24 -17 -41 -17q-60 0 -60 58q0 27 23 47q89 80 200 80q89 0 146 -51q55 -49 55 -125q0 -91 -74 -150q-63 -48 -151 -63l-8 -17
q-15 -37 -54 -37h-2q-58 0 -49 60l6 51q9 45 56 51q71 9 110 35q37 27 37 63q0 32 -20 46q-22 16 -58 16q-57 0 -116 -47z" />
    <glyph glyph-name="uni1EE0" unicode="&#x1ee0;" horiz-adv-x="1724" 
d="M1288 344q187 211 187 487q0 207 -127 340q-132 138 -342 138q-274 0 -469 -222q-187 -211 -187 -487q0 -207 127 -340q131 -137 342 -137q275 0 469 221zM1430 1315q7 -6 38 -37q177 -177 177 -440q0 -343 -240 -598q-249 -267 -596 -267q-275 0 -453 181
q-176 176 -176 442q0 340 240 598q249 264 596 264q104 0 192 -24q227 0 271 151q25 25 59 25q72 0 72 -66q0 -37 -35 -96q-50 -95 -145 -133zM684 1575q-53 0 -53 47q0 24 14 49q94 166 213 166q69 0 146 -68q68 -59 100 -59q49 0 108 90q21 35 54 35q55 0 55 -49
q0 -27 -14 -47q-94 -168 -215 -168q-68 0 -144 67q-66 60 -102 60q-52 0 -107 -88q-21 -35 -55 -35z" />
    <glyph glyph-name="uni1EE1" unicode="&#x1ee1;" horiz-adv-x="1306" 
d="M907 264q137 149 137 338q0 161 -92 250q-90 90 -239 90q-179 0 -318 -151q-135 -150 -135 -336q0 -158 92 -250q88 -88 240 -88q177 0 315 147zM1071 950l2 -2q133 -133 133 -340q0 -254 -188 -442q-188 -191 -436 -191q-215 0 -351 136q-131 131 -131 340
q0 250 185 438q186 192 438 192q83 0 154 -18q173 -12 217 145q25 25 59 25q72 0 72 -66q0 -37 -35 -96q-38 -78 -119 -121zM451 1214q-54 0 -54 48q0 22 15 49q94 166 213 166q68 0 145 -68q68 -59 100 -59q50 0 109 90q21 35 53 35q55 0 55 -50q0 -27 -14 -47
q-94 -168 -215 -168q-66 0 -143 68q-65 59 -103 59q-51 0 -106 -88q-21 -35 -55 -35z" />
    <glyph glyph-name="uni1EE2" unicode="&#x1ee2;" horiz-adv-x="1724" 
d="M1288 344q187 211 187 487q0 207 -127 340q-132 138 -342 138q-274 0 -469 -222q-187 -211 -187 -487q0 -207 127 -340q131 -137 342 -137q275 0 469 221zM1430 1315q7 -6 38 -37q177 -177 177 -440q0 -343 -240 -598q-249 -267 -596 -267q-275 0 -453 181
q-176 176 -176 442q0 340 240 598q249 264 596 264q104 0 192 -24q227 0 271 151q25 25 59 25q72 0 72 -66q0 -37 -35 -96q-50 -95 -145 -133zM815 -156q43 0 68 -28q27 -27 14 -70l-14 -51q-21 -86 -109 -86q-41 0 -67 29q-24 27 -15 69l15 51q21 86 108 86z" />
    <glyph glyph-name="uni1EE3" unicode="&#x1ee3;" horiz-adv-x="1306" 
d="M907 264q137 149 137 338q0 161 -92 250q-90 90 -239 90q-179 0 -318 -151q-135 -150 -135 -336q0 -158 92 -250q88 -88 240 -88q177 0 315 147zM1071 950l2 -2q133 -133 133 -340q0 -254 -188 -442q-188 -191 -436 -191q-215 0 -351 136q-131 131 -131 340
q0 250 185 438q186 192 438 192q83 0 154 -18q173 -12 217 145q25 25 59 25q72 0 72 -66q0 -37 -35 -96q-38 -78 -119 -121zM602 -156q43 0 68 -28q27 -27 14 -70l-14 -51q-21 -86 -109 -86q-41 0 -67 29q-24 27 -15 69l15 51q21 86 108 86z" />
    <glyph glyph-name="uni1EE4" unicode="&#x1ee4;" horiz-adv-x="1552" 
d="M1587 1343l-205 -763q-73 -272 -225 -424q-179 -179 -446 -179q-251 0 -389 129q-134 125 -134 330q0 108 31 223l189 707q21 78 88 78q38 0 59 -27q20 -26 8 -74l-192 -727q-21 -86 -21 -161q0 -148 92 -234q98 -94 283 -94q188 0 319 131q124 127 183 350l205 758
q21 78 88 78q38 0 59 -27q20 -26 8 -74zM575 -156q43 0 68 -28q27 -27 14 -70l-14 -51q-21 -86 -108 -86q-42 0 -68 29q-23 26 -14 69l14 51q21 86 108 86z" />
    <glyph glyph-name="uni1EE5" unicode="&#x1ee5;" horiz-adv-x="1255" 
d="M864 -10q-74 0 -65 78l26 104q-174 -195 -370 -195q-155 0 -244 89q-92 89 -92 239q0 66 26 164l138 522q21 78 88 78q87 0 63 -98l-137 -512q-14 -57 -14 -119q0 -105 63 -162q62 -59 172 -59q124 0 234 96q108 96 149 248l141 528q21 78 88 78q40 0 58 -27t6 -71
l-240 -903q-18 -78 -90 -78zM473 -156q43 0 68 -28q27 -27 14 -70l-14 -51q-21 -86 -109 -86q-41 0 -67 29q-24 27 -15 69l15 51q21 86 108 86z" />
    <glyph glyph-name="uni1EE6" unicode="&#x1ee6;" horiz-adv-x="1552" 
d="M1587 1343l-205 -763q-73 -272 -225 -424q-179 -179 -446 -179q-251 0 -389 129q-134 125 -134 330q0 108 31 223l189 707q21 78 88 78q38 0 59 -27q20 -26 8 -74l-192 -727q-21 -86 -21 -161q0 -148 92 -234q98 -94 283 -94q188 0 319 131q124 127 183 350l205 758
q21 78 88 78q38 0 59 -27q20 -26 8 -74zM999 1831q-22 -16 -41 -16q-59 0 -59 57q0 27 23 47q89 80 200 80q89 0 146 -51q55 -49 55 -125q0 -91 -74 -150q-63 -48 -151 -63l-8 -17q-15 -37 -54 -37h-2q-58 0 -49 60l6 51q9 45 56 51q71 9 110 35q37 27 37 64q0 31 -20 45
q-22 16 -58 16q-58 0 -117 -47z" />
    <glyph glyph-name="uni1EE7" unicode="&#x1ee7;" horiz-adv-x="1255" 
d="M864 -10q-74 0 -65 78l26 104q-174 -195 -370 -195q-155 0 -244 89q-92 89 -92 239q0 66 26 164l138 522q21 78 88 78q87 0 63 -98l-137 -512q-14 -57 -14 -119q0 -105 63 -162q62 -59 172 -59q124 0 234 96q108 96 149 248l141 528q21 78 88 78q40 0 58 -27t6 -71
l-240 -903q-18 -78 -90 -78zM739 1456q-22 -16 -41 -16q-59 0 -59 57q0 27 23 47q89 80 200 80q89 0 146 -51q55 -49 55 -125q0 -91 -74 -150q-63 -48 -151 -63l-9 -16q-15 -37 -53 -37h-2q-58 0 -49 59l6 51q9 45 55 51q72 9 111 35q37 27 37 64q0 30 -21 45q-22 16 -57 16
q-58 0 -117 -47z" />
    <glyph glyph-name="uni1EE8" unicode="&#x1ee8;" horiz-adv-x="1552" 
d="M1573 1292l-191 -712q-73 -272 -225 -424q-179 -179 -446 -179q-251 0 -389 129q-134 125 -134 330q0 108 31 223l189 707q21 78 88 78q38 0 59 -27q20 -26 8 -74l-192 -727q-21 -86 -21 -161q0 -148 92 -234q98 -94 283 -94q188 0 319 131q124 127 183 350l205 758
q21 78 88 78q10 0 30 -4q134 9 174 145q25 25 60 25q71 0 71 -66q0 -38 -34 -96q-70 -141 -248 -156zM1290 1757l-198 -147q-45 -39 -105 -39q-45 0 -45 31q0 15 14 32l174 189q43 43 76 43q36 0 74 -21q39 -20 39 -43q0 -22 -29 -45z" />
    <glyph glyph-name="uni1EE9" unicode="&#x1ee9;" horiz-adv-x="1255" 
d="M1180 915l-226 -847q-18 -78 -90 -78q-74 0 -65 78l26 104q-174 -195 -370 -195q-155 0 -244 89q-92 89 -92 239q0 66 26 164l138 522q21 78 88 78q87 0 63 -98l-137 -512q-14 -57 -14 -119q0 -105 63 -162q62 -59 172 -59q124 0 234 96q108 96 149 248l141 528
q21 78 88 78q18 0 33 -6q128 12 166 145q25 25 60 25q71 0 71 -66q0 -37 -35 -96q-71 -141 -245 -156zM1049 1397l-199 -148q-45 -39 -105 -39q-45 0 -45 31q0 15 15 33l174 188q43 43 76 43q37 0 73 -20q39 -20 39 -43t-28 -45z" />
    <glyph glyph-name="uni1EEA" unicode="&#x1eea;" horiz-adv-x="1552" 
d="M1573 1292l-191 -712q-73 -272 -225 -424q-179 -179 -446 -179q-251 0 -389 129q-134 125 -134 330q0 108 31 223l189 707q21 78 88 78q38 0 59 -27q20 -26 8 -74l-192 -727q-21 -86 -21 -161q0 -148 92 -234q98 -94 283 -94q188 0 319 131q124 127 183 350l205 758
q21 78 88 78q10 0 30 -4q134 9 174 145q25 25 60 25q71 0 71 -66q0 -38 -34 -96q-70 -141 -248 -156zM950 1608l-116 151q-19 28 -19 41q0 22 35 43q34 21 72 21q54 0 69 -49l72 -183l6 -28q0 -33 -45 -33q-47 0 -74 37z" />
    <glyph glyph-name="uni1EEB" unicode="&#x1eeb;" horiz-adv-x="1255" 
d="M1180 915l-226 -847q-18 -78 -90 -78q-74 0 -65 78l26 104q-174 -195 -370 -195q-155 0 -244 89q-92 89 -92 239q0 66 26 164l138 522q21 78 88 78q87 0 63 -98l-137 -512q-14 -57 -14 -119q0 -105 63 -162q62 -59 172 -59q124 0 234 96q108 96 149 248l141 528
q21 78 88 78q18 0 33 -6q128 12 166 145q25 25 60 25q71 0 71 -66q0 -37 -35 -96q-71 -141 -245 -156zM684 1247l-117 152q-18 27 -18 41q0 22 35 43q33 20 71 20q55 0 70 -49l72 -182l6 -29q0 -33 -45 -33q-47 0 -74 37z" />
    <glyph glyph-name="uni1EEC" unicode="&#x1eec;" horiz-adv-x="1552" 
d="M1573 1292l-191 -712q-73 -272 -225 -424q-179 -179 -446 -179q-251 0 -389 129q-134 125 -134 330q0 108 31 223l189 707q21 78 88 78q38 0 59 -27q20 -26 8 -74l-192 -727q-21 -86 -21 -161q0 -148 92 -234q98 -94 283 -94q188 0 319 131q124 127 183 350l205 758
q21 78 88 78q10 0 30 -4q134 9 174 145q25 25 60 25q71 0 71 -66q0 -38 -34 -96q-70 -141 -248 -156zM1001 1845q-22 -16 -40 -16q-60 0 -60 57q0 27 23 47q89 80 200 80q89 0 146 -51q55 -49 55 -125q0 -90 -74 -149q-64 -49 -151 -64l-8 -16q-15 -37 -54 -37h-2
q-58 0 -49 59l6 51q9 46 56 52q73 9 110 34q37 27 37 64q0 31 -20 45q-22 16 -58 16q-58 0 -117 -47z" />
    <glyph glyph-name="uni1EED" unicode="&#x1eed;" horiz-adv-x="1255" 
d="M1180 915l-226 -847q-18 -78 -90 -78q-74 0 -65 78l26 104q-174 -195 -370 -195q-155 0 -244 89q-92 89 -92 239q0 66 26 164l138 522q21 78 88 78q87 0 63 -98l-137 -512q-14 -57 -14 -119q0 -105 63 -162q62 -59 172 -59q124 0 234 96q108 96 149 248l141 528
q21 78 88 78q18 0 33 -6q128 12 166 145q25 25 60 25q71 0 71 -66q0 -37 -35 -96q-71 -141 -245 -156zM752 1456q-22 -16 -41 -16q-60 0 -60 57q0 27 23 47q89 80 200 80q89 0 146 -51q55 -49 55 -125q0 -91 -74 -150q-63 -48 -151 -63l-8 -16q-15 -37 -54 -37h-2
q-58 0 -49 59l6 51q9 45 56 51q71 9 110 35q37 27 37 64q0 31 -20 45q-22 16 -58 16q-57 0 -116 -47z" />
    <glyph glyph-name="uni1EEE" unicode="&#x1eee;" horiz-adv-x="1552" 
d="M1573 1292l-191 -712q-73 -272 -225 -424q-179 -179 -446 -179q-251 0 -389 129q-134 125 -134 330q0 108 31 223l189 707q21 78 88 78q38 0 59 -27q20 -26 8 -74l-192 -727q-21 -86 -21 -161q0 -148 92 -234q98 -94 283 -94q188 0 319 131q124 127 183 350l205 758
q21 78 88 78q10 0 30 -4q134 9 174 145q25 25 60 25q71 0 71 -66q0 -38 -34 -96q-70 -141 -248 -156zM768 1575q-53 0 -53 47q0 24 14 49q94 166 213 166q68 0 145 -68q68 -59 101 -59q49 0 108 90q21 35 54 35q55 0 55 -49q0 -27 -14 -47q-94 -168 -215 -168q-68 0 -144 67
q-66 60 -102 60q-52 0 -107 -88q-21 -35 -55 -35z" />
    <glyph glyph-name="uni1EEF" unicode="&#x1eef;" horiz-adv-x="1255" 
d="M1180 915l-226 -847q-18 -78 -90 -78q-74 0 -65 78l26 104q-174 -195 -370 -195q-155 0 -244 89q-92 89 -92 239q0 66 26 164l138 522q21 78 88 78q87 0 63 -98l-137 -512q-14 -57 -14 -119q0 -105 63 -162q62 -59 172 -59q124 0 234 96q108 96 149 248l141 528
q21 78 88 78q18 0 33 -6q128 12 166 145q25 25 60 25q71 0 71 -66q0 -37 -35 -96q-71 -141 -245 -156zM563 1210q-53 0 -53 47q0 25 14 50q94 166 213 166q69 0 146 -68q68 -59 100 -59q50 0 109 90q21 34 53 34q55 0 55 -49q0 -27 -14 -47q-94 -168 -215 -168
q-67 0 -144 68q-65 59 -102 59q-52 0 -107 -88q-21 -35 -55 -35z" />
    <glyph glyph-name="uni1EF0" unicode="&#x1ef0;" horiz-adv-x="1552" 
d="M1573 1292l-191 -712q-73 -272 -225 -424q-179 -179 -446 -179q-251 0 -389 129q-134 125 -134 330q0 108 31 223l189 707q21 78 88 78q38 0 59 -27q20 -26 8 -74l-192 -727q-21 -86 -21 -161q0 -148 92 -234q98 -94 283 -94q188 0 319 131q124 127 183 350l205 758
q21 78 88 78q10 0 30 -4q134 9 174 145q25 25 60 25q71 0 71 -66q0 -38 -34 -96q-70 -141 -248 -156zM686 -156q43 0 68 -28q27 -27 14 -70l-14 -51q-21 -86 -109 -86q-41 0 -67 29q-24 27 -15 69l15 51q21 86 108 86z" />
    <glyph glyph-name="uni1EF1" unicode="&#x1ef1;" horiz-adv-x="1255" 
d="M1180 915l-226 -847q-18 -78 -90 -78q-74 0 -65 78l26 104q-174 -195 -370 -195q-155 0 -244 89q-92 89 -92 239q0 66 26 164l138 522q21 78 88 78q87 0 63 -98l-137 -512q-14 -57 -14 -119q0 -105 63 -162q62 -59 172 -59q124 0 234 96q108 96 149 248l141 528
q21 78 88 78q18 0 33 -6q128 12 166 145q25 25 60 25q71 0 71 -66q0 -37 -35 -96q-71 -141 -245 -156zM475 -156q43 0 68 -28q27 -27 14 -70l-14 -51q-21 -86 -109 -86q-41 0 -67 29q-24 27 -15 69l15 51q21 86 108 86z" />
    <glyph glyph-name="Ygrave" unicode="&#x1ef2;" horiz-adv-x="1357" 
d="M752 547l-127 -479q-21 -78 -90 -78q-41 0 -58 26q-22 28 -10 74l129 483l-317 734q-15 35 -15 59q0 78 84 78q55 0 82 -68l279 -667l657 690q45 45 88 45q70 0 70 -68q0 -36 -33 -69zM827 1589l-116 152q-19 28 -19 41q0 22 35 43q33 20 72 20q54 0 69 -49l72 -182
l6 -29q0 -33 -45 -33q-47 0 -74 37z" />
    <glyph glyph-name="ygrave" unicode="&#x1ef3;" horiz-adv-x="1175" 
d="M-35 -162q67 -33 133 -33q135 0 273 197l-178 942q-7 25 -7 47q0 78 78 78q74 0 80 -76l145 -819l547 838q34 57 84 57q70 0 70 -65q0 -26 -19 -58l-659 -981q-206 -299 -432 -299q-92 0 -176 41q-47 24 -47 70q0 71 67 71q14 0 41 -10zM627 1247l-117 152q-18 27 -18 41
q0 22 34 43q33 20 72 20q55 0 70 -49l71 -182l6 -29q0 -33 -45 -33q-46 0 -73 37z" />
    <glyph glyph-name="uni1EF4" unicode="&#x1ef4;" horiz-adv-x="1357" 
d="M752 547l-127 -479q-21 -78 -90 -78q-41 0 -58 26q-22 28 -10 74l129 483l-317 734q-15 35 -15 59q0 78 84 78q55 0 82 -68l279 -667l657 690q45 45 88 45q70 0 70 -68q0 -36 -33 -69zM467 -156q43 0 68 -28q27 -27 14 -70l-14 -51q-21 -86 -109 -86q-42 0 -68 29
q-23 26 -14 69l14 51q21 86 109 86z" />
    <glyph glyph-name="uni1EF5" unicode="&#x1ef5;" horiz-adv-x="1175" 
d="M-35 -162q67 -33 133 -33q135 0 273 197l-178 942q-7 25 -7 47q0 78 78 78q74 0 80 -76l145 -819l547 838q34 57 84 57q70 0 70 -65q0 -26 -19 -58l-659 -981q-206 -299 -432 -299q-92 0 -176 41q-47 24 -47 70q0 71 67 71q14 0 41 -10zM739 -156q43 0 68 -28
q27 -27 14 -70l-14 -51q-21 -86 -109 -86q-41 0 -67 29q-24 27 -15 69l15 51q21 86 108 86z" />
    <glyph glyph-name="uni1EF6" unicode="&#x1ef6;" horiz-adv-x="1357" 
d="M752 547l-127 -479q-21 -78 -90 -78q-41 0 -58 26q-22 28 -10 74l129 483l-317 734q-15 35 -15 59q0 78 84 78q55 0 82 -68l279 -667l657 690q45 45 88 45q70 0 70 -68q0 -36 -33 -69zM891 1831q-22 -16 -41 -16q-59 0 -59 57q0 28 22 47q89 80 201 80q88 0 145 -51
q55 -49 55 -125q0 -92 -73 -150q-62 -48 -152 -63l-8 -17q-15 -37 -53 -37h-2q-58 0 -49 60l6 51q9 45 55 51q72 9 111 35q36 26 36 64q0 31 -20 45q-22 16 -57 16q-58 0 -117 -47z" />
    <glyph glyph-name="uni1EF7" unicode="&#x1ef7;" horiz-adv-x="1175" 
d="M-35 -162q67 -33 133 -33q135 0 273 197l-178 942q-7 25 -7 47q0 78 78 78q74 0 80 -76l145 -819l547 838q34 57 84 57q70 0 70 -65q0 -26 -19 -58l-659 -981q-206 -299 -432 -299q-92 0 -176 41q-47 24 -47 70q0 71 67 71q14 0 41 -10zM682 1456q-22 -16 -41 -16
q-59 0 -59 57q0 28 22 47q89 80 201 80q88 0 145 -51q56 -50 56 -125q0 -91 -74 -150q-62 -48 -152 -63l-8 -16q-15 -37 -53 -37h-2q-58 0 -49 59l6 51q9 45 55 51q72 9 111 35q37 27 37 64q0 30 -21 45q-22 16 -57 16q-58 0 -117 -47z" />
    <glyph glyph-name="uni1EF8" unicode="&#x1ef8;" horiz-adv-x="1357" 
d="M752 547l-127 -479q-21 -78 -90 -78q-41 0 -58 26q-22 28 -10 74l129 483l-317 734q-15 35 -15 59q0 78 84 78q55 0 82 -68l279 -667l657 690q45 45 88 45q70 0 70 -68q0 -36 -33 -69zM692 1585q-53 0 -53 47q0 24 14 49q94 166 213 166q70 0 146 -67q69 -60 100 -60
q50 0 109 90q21 35 53 35q55 0 55 -49q0 -27 -14 -47q-94 -168 -215 -168q-67 0 -144 68q-65 59 -102 59q-51 0 -106 -88q-21 -35 -56 -35z" />
    <glyph glyph-name="uni1EF9" unicode="&#x1ef9;" horiz-adv-x="1175" 
d="M-35 -162q67 -33 133 -33q135 0 273 197l-178 942q-7 25 -7 47q0 78 78 78q74 0 80 -76l145 -819l547 838q34 57 84 57q70 0 70 -65q0 -26 -19 -58l-659 -981q-206 -299 -432 -299q-92 0 -176 41q-47 24 -47 70q0 71 67 71q14 0 41 -10zM485 1210q-53 0 -53 47
q0 25 14 50q94 166 213 166q69 0 146 -68q68 -59 100 -59q50 0 109 90q21 34 53 34q55 0 55 -49q0 -27 -14 -47q-94 -168 -215 -168q-66 0 -143 68q-65 59 -103 59q-51 0 -106 -88q-21 -35 -56 -35z" />
    <glyph glyph-name="uni2002" unicode="&#x2002;" 
 />
    <glyph glyph-name="uni2003" unicode="&#x2003;" horiz-adv-x="2048" 
 />
    <glyph glyph-name="uni2004" unicode="&#x2004;" horiz-adv-x="681" 
 />
    <glyph glyph-name="uni2005" unicode="&#x2005;" horiz-adv-x="512" 
 />
    <glyph glyph-name="uni2009" unicode="&#x2009;" horiz-adv-x="272" 
 />
    <glyph glyph-name="uni200A" unicode="&#x200a;" horiz-adv-x="153" 
 />
    <glyph glyph-name="endash" unicode="&#x2013;" horiz-adv-x="1083" 
d="M903 537h-676q-33 0 -55 22q-25 25 -25 57q0 34 25 56q22 22 55 22h676q78 0 78 -78q0 -79 -78 -79z" />
    <glyph glyph-name="emdash" unicode="&#x2014;" horiz-adv-x="1841" 
d="M1661 537h-1434q-33 0 -55 22q-25 25 -25 57q0 34 25 56q22 22 55 22h1434q78 0 78 -78q0 -79 -78 -79z" />
    <glyph glyph-name="quoteleft" unicode="&#x2018;" horiz-adv-x="522" 
d="M377 969q-51 0 -70 32q-25 36 -10 89l16 61q31 129 113 205q66 60 164 82q49 9 49 -35q0 -27 -35 -39q-143 -49 -164 -170q71 -12 56 -88l-15 -53q-21 -84 -104 -84z" />
    <glyph glyph-name="quoteright" unicode="&#x2019;" horiz-adv-x="522" 
d="M479 1444q50 0 70 -33q25 -36 10 -88l-16 -61q-31 -129 -113 -205q-66 -60 -164 -82q-49 -9 -49 35q0 27 35 39q143 49 164 170q-71 12 -56 88l15 53q21 84 104 84z" />
    <glyph glyph-name="quotesinglbase" unicode="&#x201a;" horiz-adv-x="522" 
d="M164 225q50 0 69 -32q26 -37 11 -89l-17 -61q-31 -130 -112 -205q-66 -60 -164 -82q-49 -9 -49 35q0 27 35 39q142 49 163 170q-70 12 -55 88l14 53q21 84 105 84z" />
    <glyph glyph-name="quotedblleft" unicode="&#x201c;" horiz-adv-x="931" 
d="M377 969q-51 0 -70 32q-25 36 -10 89l16 61q31 129 113 205q66 60 164 82q49 9 49 -35q0 -27 -35 -39q-143 -49 -164 -170q71 -12 56 -88l-15 -53q-21 -84 -104 -84zM786 969q-50 0 -69 32q-25 36 -10 89l16 61q31 129 113 205q66 61 163 82q50 9 50 -35q0 -27 -35 -39
q-143 -49 -164 -170q70 -12 55 -88l-14 -53q-21 -84 -105 -84z" />
    <glyph glyph-name="quotedblright" unicode="&#x201d;" horiz-adv-x="931" 
d="M889 1444q49 0 69 -33q26 -37 11 -88l-17 -61q-31 -130 -112 -205q-66 -60 -164 -82q-49 -9 -49 35q0 27 35 39q142 49 163 170q-70 12 -55 88l14 53q21 84 105 84zM479 1444q50 0 70 -33q25 -36 10 -88l-16 -61q-31 -129 -113 -205q-66 -60 -164 -82q-49 -9 -49 35
q0 27 35 39q143 49 164 170q-71 12 -56 88l15 53q21 84 104 84z" />
    <glyph glyph-name="quotedblbase" unicode="&#x201e;" horiz-adv-x="931" 
d="M573 225q51 0 70 -32q25 -36 10 -89l-16 -61q-31 -129 -113 -205q-66 -60 -164 -82q-49 -9 -49 35q0 27 35 39q143 49 164 170q-70 12 -55 88l14 53q21 84 104 84zM164 225q50 0 69 -32q26 -37 11 -89l-17 -61q-31 -130 -112 -205q-66 -60 -164 -82q-49 -9 -49 35
q0 27 35 39q142 49 163 170q-70 12 -55 88l14 53q21 84 105 84z" />
    <glyph glyph-name="dagger" unicode="&#x2020;" horiz-adv-x="841" 
d="M676 1366l-74 -221l193 12q23 3 43 -14q16 -16 16 -39q0 -56 -59 -53l-217 14l-129 -533q-12 -55 -62 -55q-63 0 -45 68l150 520l-193 -12q-21 -3 -41 14q-16 16 -16 39q0 56 57 53l213 -14l51 237q9 62 66 62q29 0 45 -23q11 -20 2 -55z" />
    <glyph glyph-name="daggerdbl" unicode="&#x2021;" horiz-adv-x="870" 
d="M514 717l-106 -348l192 12q23 3 43 -14q16 -16 16 -39q0 -57 -59 -54l-211 15l-51 -238q-12 -61 -66 -61q-29 0 -45 22q-14 20 -2 56l72 221l-193 -13q-20 -3 -41 15q-16 16 -16 39q0 56 59 53l213 -14l82 348l105 348l-191 -12q-24 -3 -41 14q-18 15 -18 39q0 56 59 53
l213 -14l50 237q12 62 65 62q29 0 45 -23q11 -20 2 -55l-72 -221l193 12q21 3 41 -14q16 -16 16 -39q0 -56 -59 -53l-215 14z" />
    <glyph glyph-name="bullet" unicode="&#x2022;" horiz-adv-x="978" 
d="M483 442q-97 0 -159 62t-62 166q0 128 90 229q87 100 217 100q99 0 160 -61q62 -62 62 -164q0 -127 -91 -229q-92 -103 -217 -103z" />
    <glyph glyph-name="ellipsis" unicode="&#x2026;" horiz-adv-x="1503" 
d="M250 131l-14 -59q-15 -82 -109 -82q-45 0 -68 26q-25 25 -16 64l16 59q21 84 109 84q42 0 65 -26q25 -29 17 -66zM743 131l-16 -59q-15 -82 -109 -82q-44 0 -67 26q-25 25 -16 64l16 59q21 84 108 84q45 0 68 -26q25 -28 16 -66zM1235 131l-16 -59q-15 -82 -109 -82
q-46 0 -66 26q-25 25 -16 64l14 59q21 84 109 84q45 0 68 -26q25 -28 16 -66z" />
    <glyph glyph-name="perthousand" unicode="&#x2030;" horiz-adv-x="2510" 
d="M475 709q-126 0 -209 86q-80 86 -80 213q0 174 113 305q113 137 279 137q127 0 210 -86q80 -86 80 -213q0 -175 -112 -305q-116 -137 -281 -137zM1235 -14q-126 0 -209 86q-80 83 -80 213q0 174 113 305q116 137 280 137q126 0 209 -86q80 -86 80 -213q0 -175 -112 -305
q-116 -137 -281 -137zM485 821q106 0 183 103q73 98 73 217q0 92 -45 143q-47 53 -127 53q-105 0 -182 -102q-74 -100 -74 -217q0 -197 172 -197zM1245 98q105 0 182 103q74 100 74 217q0 92 -45 143q-47 53 -127 53q-105 0 -182 -102q-74 -100 -74 -219q0 -90 45 -141
q48 -54 127 -54zM2032 -14q-126 0 -209 86q-80 83 -80 213q0 175 112 305q116 137 281 137q126 0 209 -86q80 -86 80 -213q0 -174 -113 -305q-116 -137 -280 -137zM2042 98q105 0 182 103q74 100 74 217q0 92 -45 143q-47 53 -127 53q-106 0 -182 -102q-74 -100 -74 -219
q0 -90 45 -141q48 -54 127 -54zM1591 1337l-1274 -1312q-35 -35 -63 -35q-55 0 -55 55q0 24 26 53l1274 1311q30 35 62 35q55 0 55 -53q0 -29 -25 -54z" />
    <glyph glyph-name="guilsinglleft" unicode="&#x2039;" horiz-adv-x="671" 
d="M121 557l379 367q41 41 73 41q62 0 62 -64q0 -31 -25 -53l-346 -342l146 -311q12 -27 12 -48q0 -65 -70 -65q-47 0 -67 45l-168 340q-17 39 -17 47q0 22 21 43z" />
    <glyph glyph-name="guilsinglright" unicode="&#x203a;" horiz-adv-x="671" 
d="M547 496l-379 -369q-41 -41 -72 -41q-63 0 -63 64q0 31 24 55l346 340l-145 311q-12 27 -12 47q0 68 69 68q47 0 68 -47l170 -338q16 -37 16 -47q0 -24 -22 -43z" />
    <glyph glyph-name="fraction" unicode="&#x2044;" horiz-adv-x="1110" 
d="M1300 1444l-1306 -1606q-40 -49 -76 -49q-57 0 -57 57q0 33 26 62l1307 1605q41 50 76 50q57 0 57 -58q0 -31 -27 -61z" />
    <glyph glyph-name="Euro" unicode="&#x20ac;" horiz-adv-x="1421" 
d="M522 963h484q65 0 65 -64q0 -63 -65 -63h-533q-35 -128 -41 -222h481q66 0 66 -65q0 -64 -66 -64h-481q9 -165 103 -262q90 -100 243 -100q194 0 350 156q24 24 60 24q72 0 72 -65q0 -42 -33 -68q-201 -195 -453 -195q-216 0 -354 138q-143 137 -158 372h-121
q-63 0 -63 64q0 65 63 65h123q6 122 39 222h-70q-63 0 -63 63q0 64 63 64h111q89 219 262 354q182 141 406 141q307 0 436 -260q20 -33 20 -59q0 -76 -82 -76q-43 0 -63 39q-105 209 -330 209q-307 0 -471 -348z" />
    <glyph glyph-name="uni2117" unicode="&#x2117;" horiz-adv-x="1699" 
d="M897 -25q-308 0 -526 218q-213 219 -213 522q0 306 215 524q219 219 528 219t526 -217q213 -219 213 -522q0 -306 -215 -524q-220 -220 -528 -220zM897 39q285 0 483 201q193 196 193 479q0 284 -193 477q-193 199 -479 199t-481 -201q-195 -198 -195 -479
q0 -284 193 -477q193 -199 479 -199zM647 399v656q0 57 58 57h241q137 0 215 -63q80 -68 80 -183v-4q0 -120 -94 -190q-82 -64 -217 -64h-170v-209q0 -57 -55 -57q-58 0 -58 57zM760 711h174q192 0 192 149v4q0 146 -190 146h-176v-299z" />
    <glyph glyph-name="uni2120" unicode="&#x2120;" horiz-adv-x="1447" 
d="M1526 1436h6q49 0 37 -62l-154 -538q-15 -41 -49 -41q-50 0 -35 57l117 410l-260 -281q-21 -27 -49 -27q-25 0 -41 29l-109 279l-123 -426q-15 -41 -49 -41q-50 0 -35 57l152 537q15 47 49 47h4q30 0 47 -39l129 -330l305 338q28 31 58 31zM203 967q16 0 33 -17
q82 -82 190 -82q62 0 104 31q41 30 41 78q0 56 -125 108q-174 70 -174 170q0 83 68 136q71 53 172 53q128 0 205 -74q18 -18 18 -37q0 -41 -41 -41q-20 0 -37 17q-71 59 -153 59q-61 0 -103 -31q-36 -26 -36 -69q0 -62 135 -111q162 -61 162 -168q0 -84 -72 -141
q-70 -55 -172 -55q-146 0 -244 98q-14 17 -14 33q0 43 43 43z" />
    <glyph glyph-name="trademark" unicode="&#x2122;" horiz-adv-x="1419" 
d="M551 1348l-145 -512q-9 -43 -50 -43q-52 0 -37 57l140 498h-156q-43 0 -43 43t43 43h428q43 0 43 -41q0 -45 -43 -45h-180zM1497 1436h6q49 0 37 -62l-154 -538q-9 -41 -49 -41q-49 0 -34 57l116 410l-260 -281q-21 -27 -49 -27q-25 0 -41 29l-108 279l-123 -426
q-15 -41 -50 -41q-49 0 -34 57l151 537q15 47 49 47h4q31 0 48 -39l129 -330l305 338q28 31 57 31z" />
    <glyph glyph-name="minus" unicode="&#x2212;" horiz-adv-x="1280" 
d="M1126 645h-868q-76 0 -76 76t76 76h868q76 0 76 -76t-76 -76z" />
    <glyph glyph-name="cir.acute" unicode="&#xe00d;" horiz-adv-x="0" 
d="M864 1810l92 -172q15 -24 15 -36q0 -29 -39 -29q-63 0 -96 39l-86 106l-154 -106q-56 -39 -102 -39q-39 0 -39 29q0 16 22 38l185 172q49 46 92 46h34q48 0 76 -48zM1300 1939l-198 -147q-45 -39 -105 -39q-45 0 -45 31q0 15 15 33l174 188q43 43 76 43q37 0 73 -20
q39 -20 39 -43t-29 -46z" />
    <glyph glyph-name="cir.grave" unicode="&#xe00e;" horiz-adv-x="0" 
d="M862 1810l92 -172q15 -24 15 -36q0 -29 -39 -29q-63 0 -96 39l-86 106l-154 -106q-56 -39 -102 -39q-39 0 -39 29q0 16 22 38l184 172q49 46 93 46h34q48 0 76 -48zM416 1790l-117 152q-18 27 -18 40q0 22 34 43q35 21 72 21q55 0 70 -49l71 -182l7 -29q0 -33 -46 -33
t-73 37z" />
    <glyph glyph-name="cir.tilde" unicode="&#xe00f;" horiz-adv-x="0" 
d="M862 1808l92 -172q15 -24 15 -37q0 -28 -39 -28q-63 0 -96 39l-86 106l-154 -106q-56 -39 -102 -39q-39 0 -39 28q0 17 22 39l184 172q48 45 93 45h34q49 0 76 -47zM541 1862q-54 0 -54 47q0 22 15 49q94 166 213 166q68 0 145 -68q68 -59 101 -59q49 0 108 90
q21 35 53 35q56 0 56 -49q0 -27 -15 -48q-93 -167 -215 -167q-67 0 -143 67q-66 60 -103 60q-50 0 -106 -89q-21 -34 -55 -34z" />
    <glyph glyph-name="breve.tilde" unicode="&#xe010;" horiz-adv-x="0" 
d="M705 1571q-107 0 -175 53q-69 54 -69 150q0 79 63 79q43 0 58 -45q24 -106 145 -106q113 0 195 110q30 41 65 41q55 0 55 -51q0 -21 -12 -39q-104 -192 -325 -192zM451 1898q-54 0 -54 48q0 22 15 49q94 166 213 166q68 0 145 -68q68 -59 100 -59q50 0 109 90
q21 35 53 35q55 0 55 -50q0 -27 -14 -47q-94 -168 -215 -168q-66 0 -143 68q-65 59 -103 59q-51 0 -106 -88q-21 -35 -55 -35z" />
    <glyph glyph-name="breve.acute" unicode="&#xe011;" horiz-adv-x="0" 
d="M705 1571q-107 0 -175 53q-69 54 -69 150q0 79 63 79q43 0 58 -45q24 -106 145 -106q113 0 195 110q30 41 65 41q55 0 55 -51q0 -21 -12 -39q-104 -192 -325 -192zM1016 2032l-199 -148q-45 -39 -104 -39q-45 0 -45 31q0 16 14 33l174 188q43 43 76 43q38 0 74 -20
q38 -20 38 -43t-28 -45z" />
    <glyph glyph-name="breve.grave" unicode="&#xe012;" horiz-adv-x="0" 
d="M705 1573q-107 0 -175 53q-69 54 -69 150q0 79 63 79q43 0 58 -45q24 -106 145 -106q113 0 195 111q30 40 65 40q55 0 55 -51q0 -21 -12 -39q-104 -192 -325 -192zM696 1894l-116 152q-19 28 -19 41q0 22 35 43q33 20 72 20q54 0 69 -49l72 -182l6 -29q0 -32 -45 -32
q-48 0 -74 36z" />
    <glyph glyph-name="breve.hook" unicode="&#xe013;" horiz-adv-x="0" 
d="M705 1573q-107 0 -175 53q-69 54 -69 150q0 79 63 79q43 0 58 -45q24 -106 145 -106q113 0 195 111q30 40 65 40q55 0 55 -51q0 -21 -12 -39q-104 -192 -325 -192zM717 2052q-21 -12 -41 -12q-60 0 -60 43q0 21 23 37q89 59 201 59q89 0 145 -39q55 -37 55 -94
q0 -68 -73 -111q-64 -37 -152 -49l-8 -12q-15 -27 -53 -27h-2q-30 0 -42 11t-8 34l7 37q9 36 55 39q69 6 110 27q37 18 37 47q0 24 -20 35q-21 12 -57 12q-59 0 -117 -37z" />
    <glyph glyph-name="cir.hook" unicode="&#xe014;" horiz-adv-x="0" 
d="M862 1806l92 -172q15 -24 15 -37q0 -28 -39 -28q-63 0 -96 39l-86 106l-154 -106q-56 -39 -102 -39q-39 0 -39 28q0 17 22 39l184 172q48 45 93 45h34q49 0 76 -47zM977 1978q-22 -16 -41 -16q-59 0 -59 57q0 28 22 47q89 80 201 80q88 0 145 -51q55 -49 55 -125
q0 -91 -73 -149q-64 -49 -152 -64l-8 -16q-15 -37 -53 -37h-2q-58 0 -49 59l6 52q9 45 55 51q72 9 111 35q36 26 36 63q0 31 -20 45q-22 16 -57 16q-58 0 -117 -47z" />
    <glyph glyph-name="uniE015" unicode="&#xe015;" 
d="M719 1247l-117 152q-18 27 -18 41q0 22 34 43q33 20 72 20q55 0 70 -49l71 -182l7 -29q0 -33 -45 -33q-47 0 -74 37z" />
    <glyph glyph-name="uniE016" unicode="&#xe016;" 
d="M874 1397l-198 -148q-45 -39 -105 -39q-45 0 -45 31q0 15 15 33l174 188q43 43 76 43q37 0 73 -20q39 -20 39 -43q0 -22 -29 -45z" />
    </font>
</defs>
</svg>
