<?xml version="1.0" standalone="no"?>
<!DOCTYPE svg PUBLIC "-//W3C//DTD SVG 1.1//EN" "http://www.w3.org/Graphics/SVG/1.1/DTD/svg11.dtd" >
<svg xmlns="http://www.w3.org/2000/svg" xmlns:xlink="http://www.w3.org/1999/xlink" version="1.1">
<metadata>
Created by FontForge 20170731 at Mon May  9 11:54:15 2022
 By Aleksey,,,
Copyright (C) 2006, 2007 Hoefler &#38; Frere-Jones. http://www.typography.com
</metadata>
<defs>
<font id="iCielGothamRounded-Medium" horiz-adv-x="1202" >
  <font-face 
    font-family="iCiel Gotham Rounded Medium"
    font-weight="300"
    font-stretch="normal"
    units-per-em="2048"
    panose-1="2 0 0 0 0 0 0 0 0 0"
    ascent="1638"
    descent="-410"
    x-height="1081"
    cap-height="1444"
    bbox="-760 -563 2417 2226"
    underline-thickness="102"
    underline-position="-307"
    unicode-range="U+0020-FB04"
  />
<missing-glyph horiz-adv-x="1024" 
d="M0 -410v2048h1024v-2048h-1024zM145 1536l367 -799l367 799h-734zM102 -156l353 770l-353 770v-1540zM922 1384l-353 -770l353 -770v1540zM512 492l-367 -799h734z" />
    <glyph glyph-name="f_f" unicode="ff" horiz-adv-x="1540" 
d="M211 113v755h-43q-43 0 -74 31q-31 28 -31 72q0 42 31 73t74 31h43v80q0 178 88 266q86 86 244 86q60 0 125 -10q86 -12 86 -102q0 -43 -31 -74q-32 -32 -74 -29q-36 4 -51 4q-143 0 -143 -163v-60h192q45 0 74 -29q31 -31 31 -73q0 -44 -31 -72q-31 -31 -74 -31h-188
v-755q0 -52 -37 -86q-37 -37 -88 -37q-52 0 -86 37q-37 34 -37 86zM981 113v755h-43q-43 0 -74 31q-30 27 -30 72q0 43 30 73q31 31 74 31h43v80q0 178 88 266q86 86 244 86q60 0 125 -10q86 -12 86 -102q0 -43 -31 -74q-32 -32 -74 -29q-36 4 -51 4q-143 0 -143 -163v-60
h192q45 0 74 -29q31 -31 31 -73q0 -44 -31 -72q-31 -31 -74 -31h-188v-755q0 -52 -37 -86q-37 -37 -88 -37q-52 0 -86 37q-37 34 -37 86z" />
    <glyph glyph-name="fi" unicode="fi" horiz-adv-x="1355" 
d="M922 1360v12q0 53 41 88q39 33 100 33t100 -33q41 -35 41 -88v-12q0 -53 -41 -88t-100 -35t-100 35t-41 88zM940 113v856q0 53 35 88q37 37 88 37q54 0 88 -37q37 -34 37 -88v-856q0 -51 -37 -88q-35 -35 -88 -35q-51 0 -86 35q-37 37 -37 88zM211 113v755h-43
q-43 0 -74 31q-31 28 -31 72q0 42 31 73t74 31h43v80q0 178 88 266q86 86 244 86q60 0 125 -10q86 -12 86 -102q0 -43 -31 -74q-32 -32 -74 -29q-36 4 -51 4q-143 0 -143 -163v-60h192q45 0 74 -29q31 -31 31 -73q0 -44 -31 -72q-31 -31 -74 -31h-188v-755q0 -52 -37 -86
q-37 -37 -88 -37q-52 0 -86 37q-37 34 -37 86z" />
    <glyph glyph-name="fl" unicode="fl" horiz-adv-x="1355" 
d="M940 113v1269q0 51 35 86q37 37 88 37t88 -37q37 -34 37 -86v-1269q0 -51 -37 -88q-35 -35 -88 -35q-51 0 -86 35q-37 37 -37 88zM211 113v755h-43q-43 0 -74 31q-31 28 -31 72q0 42 31 73t74 31h43v80q0 178 88 266q86 86 244 86q60 0 125 -10q86 -12 86 -102
q0 -43 -31 -74q-32 -32 -74 -29q-36 4 -51 4q-143 0 -143 -163v-60h192q45 0 74 -29q31 -31 31 -73q0 -44 -31 -72q-31 -31 -74 -31h-188v-755q0 -52 -37 -86q-37 -37 -88 -37q-52 0 -86 37q-37 34 -37 86z" />
    <glyph glyph-name="f_f_i" unicode="ffi" horiz-adv-x="2125" 
d="M1692 1360v12q0 53 41 88q39 33 100 33t100 -33q41 -35 41 -88v-12q0 -53 -41 -88t-100 -35t-100 35t-41 88zM1710 113v856q0 53 35 88q37 37 88 37q54 0 88 -37q37 -34 37 -88v-856q0 -51 -37 -88q-35 -35 -88 -35q-51 0 -86 35q-37 37 -37 88zM211 113v755h-43
q-43 0 -74 31q-31 28 -31 72q0 42 31 73t74 31h43v80q0 178 88 266q86 86 244 86q60 0 125 -10q86 -12 86 -102q0 -43 -31 -74q-32 -32 -74 -29q-36 4 -51 4q-143 0 -143 -163v-60h192q45 0 74 -29q31 -31 31 -73q0 -44 -31 -72q-31 -31 -74 -31h-188v-755q0 -52 -37 -86
q-37 -37 -88 -37q-52 0 -86 37q-37 34 -37 86zM981 113v755h-43q-43 0 -74 31q-30 27 -30 72q0 43 30 73q31 31 74 31h43v80q0 178 88 266q86 86 244 86q60 0 125 -10q86 -12 86 -102q0 -43 -31 -74q-32 -32 -74 -29q-36 4 -51 4q-143 0 -143 -163v-60h192q45 0 74 -29
q31 -31 31 -73q0 -44 -31 -72q-31 -31 -74 -31h-188v-755q0 -52 -37 -86q-37 -37 -88 -37q-52 0 -86 37q-37 34 -37 86z" />
    <glyph glyph-name="f_f_l" unicode="ffl" horiz-adv-x="2125" 
d="M211 113v755h-43q-43 0 -74 31q-31 28 -31 72q0 42 31 73t74 31h43v80q0 178 88 266q86 86 244 86q60 0 125 -10q86 -12 86 -102q0 -43 -31 -74q-32 -32 -74 -29q-36 4 -51 4q-143 0 -143 -163v-60h192q45 0 74 -29q31 -31 31 -73q0 -44 -31 -72q-31 -31 -74 -31h-188
v-755q0 -52 -37 -86q-37 -37 -88 -37q-52 0 -86 37q-37 34 -37 86zM981 113v755h-43q-43 0 -74 31q-30 27 -30 72q0 43 30 73q31 31 74 31h43v80q0 178 88 266q86 86 244 86q60 0 125 -10q86 -12 86 -102q0 -43 -31 -74q-32 -32 -74 -29q-36 4 -51 4q-143 0 -143 -163v-60
h192q45 0 74 -29q31 -31 31 -73q0 -44 -31 -72q-31 -31 -74 -31h-188v-755q0 -52 -37 -86q-37 -37 -88 -37q-52 0 -86 37q-37 34 -37 86zM1710 113v1269q0 51 35 86q37 37 88 37t88 -37q37 -34 37 -86v-1269q0 -51 -37 -88q-35 -35 -88 -35q-51 0 -86 35q-37 37 -37 88z" />
    <glyph glyph-name=".notdef" horiz-adv-x="1024" 
d="M0 -410v2048h1024v-2048h-1024zM145 1536l367 -799l367 799h-734zM102 -156l353 770l-353 770v-1540zM922 1384l-353 -770l353 -770v1540zM512 492l-367 -799h734z" />
    <glyph glyph-name=".null" horiz-adv-x="0" 
 />
    <glyph glyph-name="nonmarkingreturn" horiz-adv-x="682" 
 />
    <glyph glyph-name="space" unicode=" " horiz-adv-x="614" 
 />
    <glyph glyph-name="exclam" unicode="!" horiz-adv-x="618" 
d="M236 516l-72 836q-9 88 72 88h147q33 0 55 -25q22 -28 19 -63l-72 -836q-6 -74 -76 -74q-67 0 -73 74zM164 131v21q0 60 43 100q41 41 102 41q64 0 105 -41t41 -100v-21q0 -59 -41 -100t-105 -41q-61 0 -102 41q-43 40 -43 100z" />
    <glyph glyph-name="quotedbl" unicode="&#x22;" horiz-adv-x="997" 
d="M578 887l34 438q9 115 117 115h82q66 0 66 -68q0 -10 -9 -45l-149 -455q-21 -63 -74 -63q-73 0 -67 78zM127 887l37 438q9 115 117 115h79q68 0 68 -68q0 -14 -8 -45l-150 -455q-21 -63 -73 -63q-73 0 -70 78z" />
    <glyph glyph-name="numbersign" unicode="#" horiz-adv-x="1433" 
d="M233 115l37 215h-94q-46 0 -76 30t-30 76q0 42 30 76q31 31 76 31h131l62 356h-119q-45 0 -74 33q-33 29 -33 74q0 42 33 75q31 31 74 31h156l40 244q15 88 107 88q49 0 82 -39q30 -37 24 -86l-36 -207h321l41 244q15 88 109 88q51 0 80 -39q33 -39 24 -86l-35 -207h94
q40 0 76 -31q31 -31 31 -75q0 -43 -31 -74q-33 -33 -76 -33h-131l-61 -356h117q44 0 75 -31t31 -76q0 -43 -31 -74q-28 -32 -75 -32h-154l-43 -252q-15 -88 -106 -88q-49 0 -82 39q-34 37 -25 86l39 215h-322l-43 -252q-15 -88 -108 -88q-50 0 -80 37q-34 37 -25 88z
M526 543h320l61 356h-319z" />
    <glyph glyph-name="dollar" unicode="$" horiz-adv-x="1314" 
d="M584 1432v43q0 37 26 63q28 25 64 25q35 0 63 -25q25 -28 25 -63v-45q169 -21 317 -113q62 -35 62 -98q0 -47 -33 -80t-82 -33q-31 0 -61 18q-116 70 -211 90v-393q232 -58 340 -157q104 -101 104 -265q0 -165 -121 -274q-116 -107 -315 -125v-123q0 -36 -25 -61
q-27 -27 -63 -27q-37 0 -64 27q-26 23 -26 61v127q-225 24 -420 160q-55 34 -55 98q0 48 32 80q33 33 80 33q38 0 68 -23q147 -109 303 -137v403q-228 58 -332 154q-106 97 -106 268q0 165 118 271q121 106 312 121zM956 385q0 131 -202 195v-373q202 21 202 178zM395 1055
q0 -126 197 -191v363q-197 -18 -197 -172z" />
    <glyph glyph-name="percent" unicode="%" horiz-adv-x="1738" 
d="M434 717q-150 0 -244 108q-92 103 -92 254v4q0 152 95 258q95 109 245 109t244 -107q92 -106 92 -256v-4q0 -152 -92 -258q-99 -108 -248 -108zM315 70q0 24 19 53l940 1284q21 37 69 37q82 0 82 -80q0 -26 -18 -53l-940 -1284q-24 -37 -72 -37q-80 0 -80 80zM1300 -16
q-148 0 -243 108q-92 103 -92 254v4q0 154 94 258q95 109 246 109q149 0 243 -107q92 -106 92 -256v-4q0 -151 -94 -258q-94 -108 -246 -108zM438 874q69 0 113 62q41 59 41 143v4q0 91 -45 148q-46 61 -113 61q-69 0 -112 -61q-41 -59 -41 -144v-4q0 -90 45 -147
q47 -62 112 -62zM1305 141q68 0 112 62q41 59 41 143v4q0 91 -45 148q-46 61 -113 61q-69 0 -112 -61q-41 -59 -41 -144v-4q0 -90 45 -147q47 -62 113 -62z" />
    <glyph glyph-name="ampersand" unicode="&#x26;" horiz-adv-x="1425" 
d="M1229 -20q-50 0 -88 38l-150 152q-196 -190 -442 -190q-206 0 -336 112q-133 115 -133 297v4q0 270 305 402q-119 149 -119 299v4q0 150 111 252q114 108 301 108q170 0 276 -100q105 -99 105 -246v-4q0 -253 -314 -373l244 -248q56 79 119 205q28 60 94 60q45 0 76 -31
q33 -33 33 -76q0 -28 -15 -55q-64 -119 -155 -252l159 -160q39 -39 39 -86q0 -45 -30 -80q-32 -32 -80 -32zM610 870q226 83 226 224v4q0 71 -45 116q-46 46 -117 46q-75 0 -125 -50q-47 -47 -47 -123v-4q0 -93 108 -213zM573 188q140 0 273 127l-320 326
q-192 -82 -192 -240v-4q0 -91 67 -149q69 -60 172 -60z" />
    <glyph glyph-name="quotesingle" unicode="'" horiz-adv-x="550" 
d="M127 887l37 438q9 115 117 115h79q70 0 70 -68q0 -14 -8 -45l-150 -455q-21 -63 -75 -63q-73 0 -70 78z" />
    <glyph glyph-name="parenleft" unicode="(" horiz-adv-x="903" 
d="M709 -276q-43 0 -60 14q-520 311 -520 850t520 850q17 14 60 14q37 0 65 -31q29 -32 29 -69q0 -54 -41 -84q-385 -271 -385 -680t385 -680q41 -30 41 -84q0 -38 -29 -70q-27 -30 -65 -30z" />
    <glyph glyph-name="parenright" unicode=")" horiz-adv-x="903" 
d="M193 -276q-39 0 -66 30q-29 32 -29 70q0 50 43 84q385 274 385 680t-385 680q-43 34 -43 84q0 37 29 69q28 31 66 31q42 0 59 -14q522 -310 522 -850q0 -539 -522 -850q-17 -14 -59 -14z" />
    <glyph glyph-name="asterisk" unicode="*" horiz-adv-x="880" 
d="M377 848l20 184l-153 -112q-30 -21 -51 -21q-68 0 -68 70q0 42 47 63l180 78l-180 80q-47 21 -47 63q0 68 70 68q22 0 49 -21l153 -112l-20 182q-3 35 14 55q20 23 49 23t49 -23q18 -21 15 -53l-21 -184l154 112q27 21 51 21q68 0 68 -68q0 -42 -47 -63l-181 -80l181 -78
q47 -21 47 -65q0 -68 -70 -68q-19 0 -49 21l-154 112l21 -182q3 -34 -15 -55q-20 -23 -49 -23t-49 23q-17 20 -14 53z" />
    <glyph glyph-name="plus" unicode="+" horiz-adv-x="1298" 
d="M532 324v284h-290q-47 0 -80 33t-33 80t33 80t80 33h290v284q0 49 35 84q33 33 82 33t82 -33q35 -35 35 -84v-284h291q47 0 80 -33q32 -32 32 -80t-32 -80q-33 -33 -80 -33h-291v-284q0 -47 -35 -82t-82 -35t-82 35t-35 82z" />
    <glyph glyph-name="comma" unicode="," horiz-adv-x="550" 
d="M61 -240q0 47 48 56q145 47 139 184q-117 34 -117 139v17q0 59 39 98t100 39q148 0 148 -180v-23q0 -195 -101 -299q-91 -88 -192 -88q-64 0 -64 57z" />
    <glyph glyph-name="hyphen" unicode="-" horiz-adv-x="835" 
d="M610 506h-385q-50 0 -84 37q-37 34 -37 84q0 52 37 86q34 37 84 37h385q49 0 86 -37q35 -35 35 -86q0 -49 -35 -84q-37 -37 -86 -37z" />
    <glyph glyph-name="period" unicode="." horiz-adv-x="550" 
d="M131 131v21q0 59 41 100t104 41q62 0 103 -41t41 -100v-21q0 -59 -41 -100t-103 -41q-63 0 -104 41t-41 100z" />
    <glyph glyph-name="slash" unicode="/" horiz-adv-x="1067" 
d="M0 -178q0 25 12 49l838 1716q27 58 90 58q39 0 68 -29q28 -28 28 -66q0 -16 -10 -49l-840 -1716q-26 -57 -88 -57q-41 0 -69 28q-29 29 -29 66z" />
    <glyph glyph-name="zero" unicode="0" horiz-adv-x="1482" 
d="M739 -25q-276 0 -452 215q-170 209 -170 523v4q0 313 172 524q178 217 454 217q277 0 453 -215q170 -209 170 -522v-4q0 -313 -172 -524q-179 -218 -455 -218zM743 203q164 0 265 149q98 143 98 361v4q0 221 -100 362q-106 152 -267 152t-264 -148q-98 -143 -98 -362v-4
q0 -222 100 -363q103 -151 266 -151z" />
    <glyph glyph-name="one" unicode="1" horiz-adv-x="811" 
d="M365 115v1081l-148 -45q-21 -6 -45 -6q-45 0 -78 33q-33 29 -33 73q0 88 84 109l217 70q80 22 123 22h4q54 0 91 -37q34 -34 34 -88v-1212q0 -52 -36 -88q-34 -37 -89 -37q-51 0 -88 37q-36 36 -36 88z" />
    <glyph glyph-name="two" unicode="2" horiz-adv-x="1255" 
d="M88 119q0 71 66 125l440 374q268 229 268 388q0 101 -65 163q-66 60 -166 60q-150 0 -283 -160q-33 -39 -88 -39q-49 0 -82 33t-33 82q0 41 29 78q187 231 475 231q211 0 342 -119q131 -116 131 -309v-4q0 -157 -90 -285q-71 -98 -282 -270l-295 -246h581q49 0 78 -33
q33 -29 33 -77q0 -45 -33 -78q-29 -33 -78 -33h-813q-135 0 -135 119z" />
    <glyph glyph-name="three" unicode="3" horiz-adv-x="1265" 
d="M637 -25q-292 0 -485 187q-41 35 -41 90q0 50 36 86q35 35 84 35q48 0 84 -33q137 -137 326 -137q105 0 176 59q72 63 72 158v4q0 105 -90 164q-86 57 -240 57h-51q-47 0 -76 33q-33 29 -33 76q0 48 54 102l335 358h-520q-45 0 -78 33q-32 28 -32 76q0 50 32 78
q33 33 78 33h733q125 0 125 -111q0 -66 -71 -137l-338 -350q422 -53 422 -402v-4q0 -198 -140 -326q-138 -129 -362 -129z" />
    <glyph glyph-name="four" unicode="4" horiz-adv-x="1396" 
d="M844 109v213h-641q-54 0 -86 32q-37 34 -37 86q0 69 55 133l674 799q70 82 154 82q51 0 86 -35q36 -33 36 -86v-805h111q47 0 74 -30q30 -30 30 -74q0 -45 -30 -72q-27 -30 -74 -30h-111v-213q0 -50 -34 -84q-35 -35 -86 -35t-86 35t-35 84zM373 528h471v568z" />
    <glyph glyph-name="five" unicode="5" horiz-adv-x="1275" 
d="M631 -25q-259 0 -459 156q-51 39 -51 98q0 49 37 86q35 35 84 35q43 0 73 -24q151 -121 312 -121q124 0 200 67q78 69 78 181v4q0 108 -84 174q-78 63 -213 63q-82 0 -159 -24q-83 -25 -87 -25q-48 0 -118 49q-52 37 -49 111l30 516q3 48 37 82q31 31 78 31h649
q47 0 80 -33t33 -80q0 -45 -33 -78t-80 -33h-538l-23 -336q115 41 227 41q224 0 355 -110q145 -121 145 -340v-4q0 -217 -147 -352q-146 -134 -377 -134z" />
    <glyph glyph-name="six" unicode="6" horiz-adv-x="1343" 
d="M690 -25q-247 0 -399 152q-174 174 -174 547v4q0 345 155 555q166 225 459 225q209 0 359 -102q63 -40 63 -109q0 -47 -35 -82q-38 -35 -86 -35q-27 0 -63 19q-121 80 -246 80q-157 0 -248 -129q-87 -125 -96 -326q147 144 344 144q216 0 354 -117q146 -128 146 -334v-4
q0 -211 -154 -350q-150 -138 -379 -138zM684 195q132 0 211 73q76 70 76 185v4q0 107 -80 178q-84 72 -213 72q-130 0 -213 -74q-78 -72 -78 -178v-4q0 -113 82 -183q82 -73 215 -73z" />
    <glyph glyph-name="seven" unicode="7" horiz-adv-x="1247" 
d="M281 102q0 36 22 78l557 1032h-620q-45 0 -78 33t-33 78q0 49 33 78q33 33 78 33h804q115 0 115 -113q0 -56 -35 -121l-594 -1126q-47 -84 -120 -84q-52 0 -91 28q-38 32 -38 84z" />
    <glyph glyph-name="eight" unicode="8" horiz-adv-x="1290" 
d="M645 -20q-241 0 -391 112q-156 114 -156 299v4q0 240 258 348q-209 111 -209 320v4q0 164 142 276q141 111 356 111t356 -111q142 -112 142 -276v-4q0 -209 -209 -320q258 -117 258 -344v-4q0 -189 -156 -303q-147 -112 -391 -112zM645 827q109 0 184 60q72 60 72 151v4
q0 84 -70 142q-74 59 -186 59t-186 -59q-70 -55 -70 -140v-4q0 -94 74 -153q72 -60 182 -60zM645 190q139 0 221 64q80 59 80 152v4q0 95 -86 157q-88 60 -215 60q-128 0 -213 -60q-86 -62 -86 -157v-4q0 -90 80 -152q82 -64 219 -64z" />
    <glyph glyph-name="nine" unicode="9" horiz-adv-x="1343" 
d="M612 -25q-213 0 -387 119q-57 37 -57 105q0 47 35 82q32 32 84 32q36 0 69 -20q125 -88 262 -88q155 0 250 127q91 124 97 323q-127 -151 -336 -151q-231 0 -369 123q-139 127 -139 331v5q0 214 147 352q149 143 387 143q243 0 400 -151q172 -175 172 -547v-4
q0 -353 -162 -563q-167 -218 -453 -218zM666 715q132 0 213 78q77 71 77 180v4q0 115 -82 188q-82 76 -217 76q-130 0 -208 -78q-76 -73 -76 -188v-4q0 -114 80 -185t213 -71z" />
    <glyph glyph-name="colon" unicode=":" horiz-adv-x="571" 
d="M141 932v18q0 62 41 103t105 41q61 0 102 -41t41 -103v-18q0 -62 -41 -103t-102 -41q-64 0 -105 41t-41 103zM141 131v21q0 59 41 100t105 41q61 0 102 -41t41 -100v-21q0 -59 -41 -100t-102 -41q-64 0 -105 41t-41 100z" />
    <glyph glyph-name="semicolon" unicode=";" horiz-adv-x="571" 
d="M141 932v18q0 62 41 103t105 41q61 0 102 -41t41 -103v-18q0 -62 -41 -103t-102 -41q-64 0 -105 41t-41 103zM72 -240q0 47 47 56q145 47 139 184q-117 34 -117 139v17q0 59 39 98t101 39q147 0 147 -180v-23q0 -196 -100 -299q-91 -88 -193 -88q-63 0 -63 57z" />
    <glyph glyph-name="less" unicode="&#x3c;" horiz-adv-x="1298" 
d="M1018 197q-18 0 -55 16l-740 362q-98 46 -98 138v16q0 91 98 137l740 363q37 16 63 16q42 3 70 -28q30 -30 30 -76q0 -69 -69 -103l-674 -315l674 -317q69 -34 69 -105q0 -46 -30 -76q-31 -28 -78 -28z" />
    <glyph glyph-name="equal" unicode="=" horiz-adv-x="1298" 
d="M1038 862h-778q-49 0 -82 33t-33 82t33 82t82 33h778q49 0 82 -33t33 -82t-33 -82t-82 -33zM1038 350h-778q-49 0 -82 33t-33 82q0 47 33 80q35 35 82 35h778q47 0 82 -35q33 -33 33 -80q0 -49 -33 -82t-82 -33z" />
    <glyph glyph-name="greater" unicode="&#x3e;" horiz-adv-x="1298" 
d="M281 1245q18 0 55 -16l737 -363q101 -46 101 -137v-16q0 -92 -101 -138l-737 -362q-37 -16 -64 -16q-41 -3 -69 28q-31 31 -31 76q0 70 70 100l673 318l-673 317q-70 34 -70 105q0 45 31 76q31 28 78 28z" />
    <glyph glyph-name="question" unicode="?" horiz-adv-x="1107" 
d="M514 442h-12q-79 0 -88 82l-21 176q-15 94 80 103q299 27 299 221v4q0 89 -61 141q-66 54 -174 54q-154 0 -279 -113q-37 -29 -76 -29q-49 0 -82 33q-32 32 -32 80q0 53 41 88q182 170 434 170q217 0 348 -113q133 -115 133 -303v-4q0 -344 -414 -414l-8 -94
q-15 -82 -88 -82zM356 131v21q0 59 41 100t105 41q63 0 104 -41t41 -100v-21q0 -59 -41 -100t-104 -41q-64 0 -105 41t-41 100z" />
    <glyph glyph-name="at" unicode="@" horiz-adv-x="2007" 
d="M1022 -332q-388 0 -653 262q-260 260 -260 631q0 370 260 633q261 264 637 264q370 0 634 -246q258 -243 258 -565q0 -247 -118 -383q-109 -127 -279 -127q-215 0 -303 144q-138 -144 -317 -144q-158 0 -263 105q-108 111 -108 282q0 216 143 365q138 147 322 147
q189 0 289 -151l6 37q18 102 106 102q49 0 76 -35q32 -40 23 -90l-78 -438q-11 -75 -11 -88q0 -146 160 -146q114 0 191 105q80 115 80 315q0 290 -232 508q-240 225 -579 225q-346 0 -582 -239q-234 -240 -234 -580q0 -343 234 -577q238 -238 598 -238q260 0 487 127
q9 6 23 6q33 0 33 -37q0 -20 -19 -30q-243 -144 -524 -144zM936 315q112 0 197 97q86 95 86 227q0 98 -62 160q-61 61 -153 61q-114 0 -197 -92q-86 -95 -86 -231q0 -105 59 -164q58 -58 156 -58z" />
    <glyph glyph-name="A" unicode="A" horiz-adv-x="1583" 
d="M86 106q0 21 16 58l533 1188q47 102 151 102h13q103 0 149 -102l533 -1188q14 -25 14 -53q0 -51 -35 -86t-84 -35q-86 0 -123 88l-116 268h-697l-121 -276q-35 -80 -116 -80q-47 0 -82 35t-35 81zM537 569h503l-252 580z" />
    <glyph glyph-name="B" unicode="B" horiz-adv-x="1478" 
d="M184 127v1180q0 53 37 90t90 37h516q248 0 375 -127q96 -96 96 -238v-4q0 -213 -204 -320q284 -94 284 -348v-4q0 -187 -145 -293q-138 -100 -385 -100h-537q-53 0 -90 37t-37 90zM432 829h344q271 0 271 195v4q0 182 -252 182h-363v-381zM432 223h418q276 0 276 197v4
q0 192 -295 192h-399v-393z" />
    <glyph glyph-name="C" unicode="C" horiz-adv-x="1511" 
d="M850 -25q-311 0 -520 215q-209 212 -209 523v4q0 311 207 524q211 217 532 217q282 0 492 -162q49 -37 49 -100q0 -51 -37 -88q-35 -35 -88 -35q-40 0 -76 25q-159 129 -342 129q-202 0 -338 -148q-135 -144 -135 -358v-4q0 -214 133 -359q137 -149 340 -149
q197 0 359 137q37 29 75 29q46 0 84 -35q35 -35 35 -82q0 -52 -41 -90q-217 -193 -520 -193z" />
    <glyph glyph-name="D" unicode="D" horiz-adv-x="1601" 
d="M184 127v1180q0 53 37 90t90 37h408q334 0 551 -205q211 -202 211 -508v-4q0 -308 -211 -510q-219 -207 -551 -207h-408q-53 0 -90 37t-37 90zM436 229h283q224 0 362 138q136 133 136 346v4q0 212 -136 348q-139 139 -362 139h-283v-975z" />
    <glyph glyph-name="E" unicode="E" horiz-adv-x="1372" 
d="M1155 0h-844q-53 0 -90 37t-37 90v1180q0 53 37 90t90 37h834q47 0 80 -33q32 -32 32 -80t-32 -80q-33 -33 -80 -33h-709v-372h617q47 0 80 -33q32 -32 32 -82q0 -46 -32 -78q-33 -33 -80 -33h-617v-385h719q48 0 80 -32q33 -33 33 -80t-33 -80t-80 -33z" />
    <glyph glyph-name="F" unicode="F" horiz-adv-x="1343" 
d="M184 115v1192q0 53 37 90t90 37h836q49 0 82 -33t33 -82t-33 -82t-82 -33h-711v-391h619q49 0 82 -33q32 -32 32 -82t-32 -82t-82 -32h-619v-469q0 -51 -37 -88q-34 -37 -88 -37q-53 0 -90 37q-37 34 -37 88z" />
    <glyph glyph-name="G" unicode="G" horiz-adv-x="1605" 
d="M864 -25q-330 0 -540 213q-203 206 -203 525v4q0 306 207 522q213 219 532 219q286 0 490 -145q51 -39 51 -103q0 -51 -37 -88t-88 -37q-34 0 -78 29q-152 113 -348 113q-197 0 -332 -150q-133 -148 -133 -356v-4q0 -222 133 -367q139 -145 354 -145q203 0 347 108v269
h-283q-46 0 -80 30q-33 33 -33 78t33 78t80 33h399q53 0 90 -37t37 -90v-383q0 -105 -88 -160q-234 -156 -510 -156z" />
    <glyph glyph-name="H" unicode="H" horiz-adv-x="1556" 
d="M184 115v1204q0 54 37 88q37 37 90 37q54 0 88 -37q37 -34 37 -88v-481h684v481q0 54 37 88q37 37 88 37q53 0 90 -37q37 -34 37 -88v-1204q0 -54 -37 -88q-37 -37 -90 -37q-51 0 -88 37t-37 88v489h-684v-489q0 -51 -37 -88q-34 -37 -88 -37q-53 0 -90 37q-37 34 -37 88
z" />
    <glyph glyph-name="I" unicode="I" horiz-adv-x="649" 
d="M199 115v1204q0 54 37 88q37 37 90 37q54 0 88 -37q37 -34 37 -88v-1204q0 -51 -37 -88q-34 -37 -88 -37q-53 0 -90 37q-37 34 -37 88z" />
    <glyph glyph-name="J" unicode="J" horiz-adv-x="1146" 
d="M502 -20q-234 0 -391 157q-43 40 -43 94q0 52 34 86q35 35 86 35q42 0 78 -28q108 -111 234 -111q231 0 231 283v823q0 51 37 88t90 37t90 -37t37 -88v-832q0 -246 -135 -381q-126 -126 -348 -126z" />
    <glyph glyph-name="K" unicode="K" horiz-adv-x="1460" 
d="M184 115v1204q0 54 37 88q37 37 90 37q54 0 88 -37q37 -34 37 -88v-606l680 684q44 47 105 47q49 0 84 -35q32 -32 32 -82q0 -55 -45 -94l-446 -430l483 -600q35 -47 35 -90q0 -51 -37 -88q-38 -35 -90 -35q-60 0 -107 59l-460 588l-234 -225v-297q0 -51 -37 -88
q-34 -37 -88 -37q-53 0 -90 37q-37 34 -37 88z" />
    <glyph glyph-name="L" unicode="L" horiz-adv-x="1267" 
d="M184 127v1192q0 54 37 88q37 37 90 37q54 0 88 -37q37 -34 37 -88v-1090h649q50 0 82 -32q33 -33 33 -82t-33 -82t-82 -33h-774q-53 0 -90 37t-37 90z" />
    <glyph glyph-name="M" unicode="M" horiz-adv-x="1777" 
d="M184 113v1202q0 53 37 90t90 37h27q73 0 117 -68l434 -680l436 682q41 66 115 66h26q53 0 90 -37t37 -90v-1200q0 -54 -37 -88q-37 -37 -90 -37q-51 0 -88 37t-37 88v860l-350 -526q-45 -66 -106 -66q-60 0 -105 66l-348 522v-858q0 -51 -37 -88q-35 -35 -88 -35
q-50 0 -88 35q-35 38 -35 88z" />
    <glyph glyph-name="N" unicode="N" horiz-adv-x="1617" 
d="M184 113v1202q0 53 37 90t90 37h27q72 0 131 -74l717 -928v881q0 52 37 86q34 37 86 37q51 0 88 -37q37 -34 37 -86v-1204q0 -53 -35 -88q-37 -37 -88 -37h-11q-73 0 -131 76l-737 954v-909q0 -52 -37 -86q-34 -37 -86 -37q-51 0 -88 37q-37 34 -37 86z" />
    <glyph glyph-name="O" unicode="O" horiz-adv-x="1740" 
d="M868 -25q-326 0 -538 218q-209 212 -209 520v4q0 308 211 522q216 219 540 219q328 0 539 -217q209 -212 209 -520v-4q0 -308 -211 -522q-217 -220 -541 -220zM872 209q211 0 349 147q135 144 135 357v4q0 214 -137 360q-138 150 -351 150q-209 0 -348 -148
q-135 -144 -135 -358v-4q0 -216 137 -359q137 -149 350 -149z" />
    <glyph glyph-name="P" unicode="P" horiz-adv-x="1368" 
d="M184 115v1192q0 53 37 90t90 37h439q250 0 399 -131q145 -133 145 -349v-4q0 -233 -168 -364q-155 -125 -405 -125h-285v-346q0 -51 -37 -88q-34 -37 -88 -37q-53 0 -90 37q-37 34 -37 88zM436 688h293q141 0 225 72t84 184v4q0 122 -84 191q-83 65 -225 65h-293v-516z
" />
    <glyph glyph-name="Q" unicode="Q" horiz-adv-x="1740" 
d="M868 -25q-326 0 -538 218q-209 212 -209 520v4q0 308 211 522q216 219 540 219q328 0 539 -217q209 -212 209 -520v-4q0 -243 -145 -441l92 -75q47 -41 47 -99q0 -49 -35 -84q-33 -36 -84 -36q-52 0 -88 36l-102 93q-192 -136 -437 -136zM1120 274l-178 152
q-47 41 -47 98q0 48 35 86q35 35 84 35q45 0 88 -37l184 -168q70 119 70 273v4q0 214 -137 360q-138 150 -351 150q-209 0 -348 -148q-135 -144 -135 -358v-4q0 -216 137 -359q137 -149 350 -149q136 0 248 65z" />
    <glyph glyph-name="R" unicode="R" horiz-adv-x="1480" 
d="M184 115v1192q0 53 37 90t90 37h512q267 0 414 -144q119 -122 119 -309v-4q0 -326 -326 -428l275 -346q41 -53 41 -97q0 -49 -37 -83q-36 -33 -84 -33q-73 0 -123 65l-348 445h-318v-385q0 -51 -37 -88q-34 -37 -88 -37q-53 0 -90 37q-37 34 -37 88zM436 723h369
q135 0 215 65t80 175v4q0 237 -297 237h-367v-481z" />
    <glyph glyph-name="S" unicode="S" horiz-adv-x="1310" 
d="M686 -20q-298 0 -539 180q-49 34 -49 96q0 49 35 84q33 33 84 33q41 0 74 -23q187 -147 401 -147q119 0 187 51q67 49 67 129v4q0 79 -61 125q-67 47 -262 94q-252 62 -353 144q-125 98 -125 284v4q0 184 138 301q139 115 352 115q254 0 455 -133q55 -30 55 -100
q0 -47 -35 -82t-84 -35q-35 0 -65 18q-171 109 -330 109q-108 0 -172 -49q-62 -47 -62 -121v-4q0 -82 68 -129q74 -49 274 -97q236 -58 344 -147q115 -103 115 -272v-4q0 -200 -143 -316q-136 -112 -369 -112z" />
    <glyph glyph-name="T" unicode="T" horiz-adv-x="1327" 
d="M537 115v1085h-349q-47 0 -82 35q-34 34 -34 82t34 82q35 35 82 35h953q47 0 82 -35q32 -32 32 -82t-32 -82q-35 -35 -82 -35h-350v-1085q0 -51 -37 -88t-90 -37q-54 0 -91 37q-36 36 -36 88z" />
    <glyph glyph-name="U" unicode="U" horiz-adv-x="1550" 
d="M772 -23q-284 0 -444 160q-166 163 -166 471v711q0 54 37 88q37 37 90 37q54 0 88 -37q37 -34 37 -88v-701q0 -193 96 -303q94 -104 266 -104q171 0 264 100q97 105 97 297v711q0 54 37 88q37 37 90 37q54 0 88 -37q37 -34 37 -88v-698q0 -314 -168 -482
q-158 -162 -449 -162z" />
    <glyph glyph-name="V" unicode="V" horiz-adv-x="1501" 
d="M758 -20h-15q-99 0 -143 102l-502 1180q-14 32 -14 59q0 52 37 86q37 37 90 37q94 0 129 -90l414 -1035l420 1043q30 82 120 82q53 0 88 -35q37 -34 37 -86q0 -26 -12 -53l-504 -1188q-43 -102 -145 -102z" />
    <glyph glyph-name="W" unicode="W" horiz-adv-x="2250" 
d="M520 84l-424 1188q-10 27 -10 49q0 52 39 88q38 35 90 35q98 0 125 -92l330 -985l323 981q34 100 127 100h19q98 0 127 -100l323 -981l330 987q35 90 123 90q50 0 88 -35q37 -34 37 -86q0 -22 -13 -51l-423 -1188q-37 -104 -132 -104h-24q-92 0 -129 104l-320 936
l-319 -936q-37 -104 -131 -104h-25q-91 0 -131 104z" />
    <glyph glyph-name="X" unicode="X" horiz-adv-x="1462" 
d="M111 106q0 45 36 95l426 528l-401 498q-39 51 -39 94q0 53 35 88q38 35 90 35q68 0 115 -62l362 -477l359 469q52 70 123 70q41 0 77 -31q37 -34 37 -84q0 -48 -39 -96l-401 -500l422 -526q39 -51 39 -94q0 -53 -35 -88q-38 -35 -90 -35q-69 0 -115 61l-385 502
l-379 -494q-51 -69 -123 -69q-43 0 -78 30q-36 33 -36 86z" />
    <glyph glyph-name="Y" unicode="Y" horiz-adv-x="1425" 
d="M588 115v442l-494 678q-28 45 -28 88q0 53 36 86q38 35 91 35q70 0 122 -76l400 -575l405 577q52 76 121 76q53 0 90 -37q33 -33 33 -86q0 -43 -35 -90l-489 -670v-448q0 -54 -37 -88q-37 -37 -90 -37q-51 0 -88 37t-37 88z" />
    <glyph glyph-name="Z" unicode="Z" horiz-adv-x="1437" 
d="M1206 0h-968q-45 0 -78 33q-35 35 -35 78v6q0 63 47 116l807 977h-719q-45 0 -78 33q-32 32 -32 78q0 48 32 80q33 33 78 33h942q47 0 80 -33t33 -78v-6q0 -60 -45 -117l-809 -977h745q47 0 80 -33t33 -79q0 -45 -33 -78t-80 -33z" />
    <glyph glyph-name="bracketleft" unicode="[" horiz-adv-x="931" 
d="M180 -143v1454q0 51 35 86q34 37 86 37h422q41 0 70 -29q28 -28 28 -70q0 -39 -28 -67q-29 -29 -70 -29h-305v-1311h305q42 0 70 -28t28 -68q0 -39 -28 -70q-28 -28 -70 -28h-422q-52 0 -86 37q-35 35 -35 86z" />
    <glyph glyph-name="backslash" unicode="\" horiz-adv-x="1067" 
d="M1067 -178q0 -37 -29 -66q-28 -28 -69 -28q-62 0 -88 57l-840 1716q-10 33 -10 49q0 38 28 66q29 29 68 29q63 0 90 -58l838 -1716q12 -24 12 -49z" />
    <glyph glyph-name="bracketright" unicode="]" horiz-adv-x="931" 
d="M752 1311v-1454q0 -52 -37 -86q-34 -37 -86 -37h-422q-40 0 -68 28t-28 70q0 40 28 68t68 28h307v1311h-307q-39 0 -68 29q-28 28 -28 67q0 42 28 70q29 29 68 29h422q52 0 86 -37q37 -34 37 -86z" />
    <glyph glyph-name="asciicircum" unicode="^" horiz-adv-x="1024" 
d="M510 1280l-148 -190q-72 -91 -147 -91q-57 0 -57 41q0 28 24 62l195 266q53 74 125 74h18q71 0 127 -74l195 -266q22 -36 22 -62q0 -41 -57 -41q-78 0 -150 91z" />
    <glyph glyph-name="underscore" unicode="_" horiz-adv-x="1228" 
d="M1233 -328h-1237q-39 0 -68 29q-28 28 -28 68q0 39 28 67q29 29 68 29h1237q38 0 67 -29t29 -67q0 -39 -29 -68t-67 -29z" />
    <glyph glyph-name="grave" unicode="`" horiz-adv-x="1024" 
d="M600 1208q-84 0 -143 56l-140 131q-34 30 -34 61q0 28 49 55q48 25 98 25q60 0 98 -59l117 -181q19 -28 19 -45q0 -43 -64 -43z" />
    <glyph glyph-name="a" unicode="a" 
d="M467 -23q-159 0 -268 86q-115 92 -115 248v4q0 172 125 263q118 86 321 86q152 0 291 -46v27q0 236 -268 236q-133 0 -240 -43q-24 -7 -39 -7q-42 0 -73 31q-31 28 -31 72q0 71 68 98q168 64 348 64q240 0 358 -121q117 -114 117 -334v-532q0 -49 -35 -84t-86 -35
q-54 0 -88 30q-33 29 -33 74v41q-134 -158 -352 -158zM537 158q125 0 206 63q82 64 82 168v74q-110 43 -245 43q-254 0 -254 -180v-4q0 -75 61 -121q58 -43 150 -43z" />
    <glyph glyph-name="b" unicode="b" horiz-adv-x="1374" 
d="M156 113v1269q0 54 34 88q38 35 89 35q53 0 88 -35q36 -36 36 -88v-481q144 203 369 203q200 0 346 -146q156 -156 156 -415v-4q0 -257 -156 -416q-143 -146 -346 -146q-225 0 -369 191v-55q0 -53 -36 -86q-37 -37 -88 -37q-52 0 -86 37q-37 34 -37 86zM713 193
q131 0 219 94q90 96 90 252v4q0 152 -92 252q-88 94 -217 94q-128 0 -221 -96q-95 -100 -95 -250v-4q0 -150 95 -250q93 -96 221 -96z" />
    <glyph glyph-name="c" unicode="c" horiz-adv-x="1169" 
d="M655 -25q-240 0 -399 164q-160 165 -160 396v4q0 232 160 397q162 168 403 168q223 0 379 -135q39 -33 39 -86q0 -47 -33 -80t-81 -33q-38 0 -74 25q-112 92 -232 92q-135 0 -223 -101q-90 -104 -90 -243v-4q0 -142 90 -246q90 -100 234 -100q125 0 241 96q29 26 68 26
q48 0 76 -32q30 -30 30 -76q0 -51 -34 -78q-160 -154 -394 -154z" />
    <glyph glyph-name="d" unicode="d" horiz-adv-x="1374" 
d="M1219 1382v-1269q0 -51 -37 -88q-35 -35 -86 -35q-53 0 -88 35q-37 37 -37 88v67q-144 -203 -369 -203q-200 0 -346 146q-156 159 -156 416v4q0 258 154 415q146 146 348 146q225 0 369 -191v469q0 51 37 88q35 35 86 35q53 0 88 -35q37 -37 37 -88zM662 889
q-131 0 -220 -92q-92 -95 -92 -254v-4q0 -152 92 -252q88 -94 220 -94q129 0 219 96q94 98 94 250v4q0 151 -94 252q-88 94 -219 94z" />
    <glyph glyph-name="e" unicode="e" horiz-adv-x="1236" 
d="M342 616h555q-12 127 -82 203q-73 82 -192 82q-112 0 -189 -80q-77 -77 -92 -205zM1040 119q-159 -144 -389 -144q-239 0 -395 156q-160 157 -160 406v4q0 232 148 397q150 166 381 166q243 0 387 -172q127 -154 127 -361q0 -51 -35 -86q-32 -32 -82 -32h-678
q21 -129 107 -203q84 -72 204 -72q143 0 256 94q30 23 64 23q40 0 69 -29t29 -71q0 -43 -33 -76z" />
    <glyph glyph-name="f" unicode="f" horiz-adv-x="770" 
d="M211 113v755h-43q-43 0 -74 31q-31 28 -31 72q0 42 31 73t74 31h43v80q0 178 88 266q86 86 244 86q60 0 125 -10q86 -12 86 -102q0 -43 -31 -74q-32 -32 -74 -29q-36 4 -51 4q-143 0 -143 -163v-60h192q45 0 74 -29q31 -31 31 -73q0 -44 -31 -72q-31 -31 -74 -31h-188
v-755q0 -52 -37 -86q-37 -37 -88 -37q-52 0 -86 37q-37 34 -37 86z" />
    <glyph glyph-name="g" unicode="g" horiz-adv-x="1374" 
d="M637 -332q-215 0 -418 96q-69 26 -69 99q0 41 30 71q31 31 74 31q22 0 45 -10q154 -86 332 -86q342 0 342 332v84q-153 -199 -381 -199q-201 0 -340 133q-152 146 -152 373v4q0 229 152 375q142 133 340 133q226 0 379 -184v51q0 52 37 86q34 37 86 37q54 0 88 -37
q37 -34 37 -88v-748q0 -269 -138 -407q-146 -146 -444 -146zM657 297q133 0 224 82q94 85 94 215v4q0 130 -94 215q-91 82 -224 82q-132 0 -217 -82q-90 -84 -90 -215v-4q0 -131 90 -215q88 -82 217 -82z" />
    <glyph glyph-name="h" unicode="h" horiz-adv-x="1269" 
d="M156 113v1269q0 52 34 86q37 37 89 37q51 0 88 -37q36 -33 36 -86v-467q133 189 338 189q181 0 285 -113q100 -109 100 -301v-577q0 -51 -34 -88q-35 -35 -88 -35q-54 0 -89 35q-36 36 -36 88v501q0 265 -232 265q-107 0 -176 -72q-68 -71 -68 -197v-497q0 -52 -36 -88
q-35 -35 -88 -35q-51 0 -86 35q-37 37 -37 88z" />
    <glyph glyph-name="i" unicode="i" horiz-adv-x="585" 
d="M152 1360v12q0 53 41 88q39 33 100 33t100 -33q41 -35 41 -88v-12q0 -53 -41 -88t-100 -35t-100 35t-41 88zM170 113v856q0 53 35 88q37 37 88 37q54 0 88 -37q37 -34 37 -88v-856q0 -51 -37 -88q-35 -35 -88 -35q-51 0 -86 35q-37 37 -37 88z" />
    <glyph glyph-name="j" unicode="j" horiz-adv-x="585" 
d="M119 -334h-19q-135 3 -135 103q0 44 29 73t69 29l15 -2q92 0 92 117v983q0 53 35 88q37 37 88 37q54 0 88 -37q37 -34 37 -88v-983q0 -320 -299 -320zM152 1360v12q0 53 41 88q39 33 100 33t100 -33q41 -35 41 -88v-12q0 -53 -41 -88t-100 -35t-100 35t-41 88z" />
    <glyph glyph-name="k" unicode="k" horiz-adv-x="1187" 
d="M156 113v1269q0 52 34 86q37 37 89 37q51 0 88 -37q36 -33 36 -86v-798l465 456q54 54 107 54q45 0 80 -35q28 -31 28 -78q0 -52 -55 -104l-287 -265l328 -428q33 -44 33 -82q0 -47 -35 -82q-35 -30 -82 -30q-65 0 -108 55l-310 412l-164 -156v-188q0 -52 -36 -88
q-35 -35 -88 -35q-51 0 -86 35q-37 37 -37 88z" />
    <glyph glyph-name="l" unicode="l" horiz-adv-x="585" 
d="M170 113v1269q0 51 35 86q37 37 88 37t88 -37q37 -34 37 -86v-1269q0 -51 -37 -88q-35 -35 -88 -35q-51 0 -86 35q-37 37 -37 88z" />
    <glyph glyph-name="m" unicode="m" horiz-adv-x="1945" 
d="M156 113v856q0 54 34 88q37 37 89 37q54 0 88 -37q36 -33 36 -88v-51q134 186 330 186q229 0 324 -191q144 191 364 191q176 0 279 -109q100 -106 100 -305v-577q0 -50 -35 -88q-35 -35 -88 -35t-88 35q-37 37 -37 88v501q0 265 -219 265q-105 0 -166 -70
q-65 -71 -65 -199v-497q0 -51 -37 -88q-35 -35 -86 -35q-53 0 -88 35q-37 37 -37 88v503q0 263 -219 263q-102 0 -168 -72q-64 -73 -64 -197v-497q0 -52 -36 -88q-35 -35 -88 -35q-51 0 -86 35q-37 37 -37 88z" />
    <glyph glyph-name="n" unicode="n" horiz-adv-x="1269" 
d="M156 113v856q0 54 34 88q37 37 89 37q54 0 88 -37q36 -33 36 -88v-54q133 189 338 189q181 0 285 -113q100 -109 100 -301v-577q0 -51 -34 -88q-35 -35 -88 -35q-54 0 -89 35q-36 36 -36 88v501q0 265 -232 265q-107 0 -176 -72q-68 -71 -68 -197v-497q0 -52 -36 -88
q-35 -35 -88 -35q-51 0 -86 35q-37 37 -37 88z" />
    <glyph glyph-name="o" unicode="o" horiz-adv-x="1345" 
d="M670 -25q-246 0 -410 164t-164 396v4q0 235 164 399q169 166 414 166q244 0 411 -164q164 -164 164 -397v-4q0 -234 -164 -398q-169 -166 -415 -166zM674 193q149 0 239 100q88 98 88 242v4q0 142 -92 245q-95 103 -239 103q-147 0 -238 -101q-88 -98 -88 -243v-4
q0 -141 92 -244q94 -102 238 -102z" />
    <glyph glyph-name="p" unicode="p" horiz-adv-x="1374" 
d="M156 -215v1184q0 54 34 88q37 37 89 37q54 0 88 -37q36 -33 36 -88v-68q144 203 369 203q200 0 346 -146q156 -156 156 -415v-4q0 -257 -156 -416q-143 -146 -346 -146q-225 0 -369 191v-383q0 -52 -36 -88q-35 -35 -88 -35q-51 0 -86 35q-37 37 -37 88zM713 193
q131 0 219 94q90 96 90 252v4q0 152 -92 252q-88 94 -217 94q-128 0 -221 -96q-95 -100 -95 -250v-4q0 -150 95 -250q93 -96 221 -96z" />
    <glyph glyph-name="q" unicode="q" horiz-adv-x="1374" 
d="M1219 969v-1184q0 -51 -37 -88q-35 -35 -86 -35q-53 0 -88 35q-37 37 -37 88v395q-144 -203 -369 -203q-200 0 -346 146q-156 159 -156 416v4q0 258 154 415q146 146 348 146q225 0 369 -191v58q0 52 37 86q34 37 86 37q54 0 88 -37q37 -34 37 -88zM662 889
q-131 0 -220 -92q-92 -95 -92 -254v-4q0 -152 92 -252q88 -94 220 -94q129 0 219 96q94 98 94 250v4q0 151 -94 252q-88 94 -219 94z" />
    <glyph glyph-name="r" unicode="r" horiz-adv-x="845" 
d="M156 113v856q0 54 34 88q37 37 89 37q54 0 88 -37q36 -33 36 -88v-111q102 238 273 238q123 0 123 -123q0 -101 -99 -119q-297 -52 -297 -422v-319q0 -53 -36 -86q-37 -37 -88 -37t-86 35q-37 37 -37 88z" />
    <glyph glyph-name="s" unicode="s" horiz-adv-x="1026" 
d="M526 -20q-223 0 -411 129q-47 24 -47 86q0 40 28 71q29 29 72 29q31 0 53 -14q156 -105 311 -105q168 0 168 117v4q0 55 -73 92q-49 23 -168 60q-159 44 -230 98q-108 79 -108 219v4q0 152 112 242q107 88 273 88q174 0 340 -88q59 -30 59 -94q0 -44 -28 -72
q-32 -29 -74 -29q-25 0 -49 12q-145 74 -254 74q-152 0 -152 -106v-4q0 -52 74 -93q43 -19 170 -61q336 -105 336 -315v-5q0 -165 -117 -256q-109 -83 -285 -83z" />
    <glyph glyph-name="t" unicode="t" horiz-adv-x="841" 
d="M518 -18q-311 0 -311 317v569h-41q-45 0 -76 31t-31 76t31 76q30 30 76 30h41v185q0 52 37 86q37 37 88 37q52 0 86 -37q37 -34 37 -86v-185h194q46 0 76 -30q33 -29 33 -76t-33 -76q-31 -31 -76 -31h-194v-530q0 -135 133 -135q11 0 39 4l22 2q42 0 74 -29
q31 -31 31 -74q0 -68 -66 -96q-86 -28 -170 -28z" />
    <glyph glyph-name="u" unicode="u" horiz-adv-x="1269" 
d="M1116 969v-856q0 -52 -37 -86q-37 -37 -88 -37q-50 0 -88 35q-37 37 -37 88v55q-129 -191 -338 -191q-180 0 -284 113q-101 113 -101 303v576q0 51 37 88q34 37 86 37q54 0 88 -37q37 -34 37 -88v-502q0 -262 232 -262q110 0 176 69q67 70 67 197v498q0 54 37 88
q37 37 88 37t88 -37t37 -88z" />
    <glyph glyph-name="v" unicode="v" horiz-adv-x="1200" 
d="M1108 915l-360 -827q-50 -108 -142 -108h-12q-94 0 -141 108l-361 825q-14 41 -14 62q0 48 37 82q37 37 86 37q85 0 123 -90l278 -717l283 721q38 86 116 86q51 0 86 -35t35 -84q0 -35 -14 -60z" />
    <glyph glyph-name="w" unicode="w" horiz-adv-x="1746" 
d="M526 -18h-8q-100 0 -137 110l-291 823q-12 35 -12 64q0 47 33 80q35 35 88 35q90 0 120 -99l209 -655l211 655q30 99 127 99h15q97 0 127 -99l213 -655l211 657q28 97 120 97q49 0 84 -35q33 -33 33 -80q0 -22 -10 -55l-295 -832q-40 -110 -137 -110h-8q-102 0 -136 106
l-211 643l-213 -643q-34 -106 -133 -106z" />
    <glyph glyph-name="x" unicode="x" horiz-adv-x="1173" 
d="M98 94q0 45 35 86l307 369l-284 338q-41 53 -41 94q0 49 35 84q36 31 79 31q65 0 115 -62l244 -319l248 317q49 64 106 64q48 0 84 -31q33 -33 33 -78q0 -43 -35 -84l-293 -350l303 -358q41 -53 41 -95q0 -49 -35 -84q-34 -30 -79 -30q-70 0 -115 63l-262 338l-262 -338
q-51 -63 -109 -63q-47 0 -82 30q-33 33 -33 78z" />
    <glyph glyph-name="y" unicode="y" 
d="M352 -334q-93 0 -172 31q-78 28 -78 102q0 46 31 74q29 29 70 29q24 0 45 -8q52 -15 86 -15q97 0 153 115l9 22l-402 897q-14 32 -14 60q0 51 35 86t88 35q83 0 121 -95l290 -718l271 718q38 95 119 95q50 0 83 -33q35 -35 35 -84q0 -26 -10 -59l-395 -949
q-70 -166 -152 -233q-82 -70 -213 -70z" />
    <glyph glyph-name="z" unicode="z" horiz-adv-x="1146" 
d="M954 0h-733q-49 0 -86 29q-35 27 -35 71v4q0 60 56 119l575 656h-510q-43 0 -71 28q-31 31 -31 72q0 43 31 74q28 28 71 28h713q51 0 84 -26q35 -27 35 -72v-6q0 -59 -54 -119l-577 -655h532q42 0 74 -29q29 -32 29 -74q0 -39 -29 -71q-32 -29 -74 -29z" />
    <glyph glyph-name="braceleft" unicode="{" horiz-adv-x="997" 
d="M788 -276q-230 50 -319 149q-82 88 -82 248l4 147q0 215 -192 221q-105 6 -105 99q0 92 105 98q101 3 149 57q43 52 43 166l-4 148q0 158 82 246q89 99 319 149q47 9 80 -14t33 -70q0 -66 -57 -84q-143 -44 -189 -102q-39 -51 -39 -162l5 -152q0 -212 -213 -280
q213 -71 213 -281l-5 -151q0 -111 39 -162q47 -59 189 -103q57 -18 57 -84q0 -46 -33 -69t-80 -14z" />
    <glyph glyph-name="bar" unicode="|" horiz-adv-x="677" 
d="M240 -174v1720q0 42 28 70q29 29 70 29q40 0 72 -29q28 -28 28 -70v-1720q0 -42 -28 -70q-31 -28 -72 -28q-42 0 -70 28t-28 70z" />
    <glyph glyph-name="braceright" unicode="}" horiz-adv-x="997" 
d="M209 1452q230 -50 319 -149q82 -88 82 -246l-4 -148q0 -115 45 -166q48 -54 150 -57q102 -6 102 -98q0 -93 -102 -99q-195 -6 -195 -221l4 -147q0 -160 -82 -248q-89 -99 -319 -149q-47 -9 -80 14t-33 69q0 66 60 84q138 43 186 103q39 51 39 162l-4 151q0 213 213 281
q-213 71 -213 280l4 152q0 111 -39 162q-47 59 -186 102q-60 18 -60 84q0 47 33 70t80 14z" />
    <glyph glyph-name="asciitilde" unicode="~" horiz-adv-x="1013" 
d="M274 506q-21 -41 -65 -41q-33 0 -53 20q-23 23 -23 50q0 32 8 45q67 186 209 186q64 0 162 -39q103 -41 131 -41q62 0 96 64q21 43 66 43q30 0 53 -23t23 -47q0 -29 -9 -47q-67 -187 -208 -187q-59 0 -162 41t-131 41q-62 0 -97 -65z" />
    <glyph glyph-name="uni00A0" unicode="&#xa0;" horiz-adv-x="614" 
 />
    <glyph glyph-name="exclamdown" unicode="&#xa1;" horiz-adv-x="618" 
d="M385 918l72 -836q3 -37 -19 -62q-20 -26 -55 -26h-147q-81 0 -72 88l72 836q6 73 73 73q70 0 76 -73zM455 1303v-19q0 -61 -41 -102t-105 -41q-61 0 -102 41q-43 40 -43 102v19q0 60 43 100q41 41 102 41q64 0 105 -41t41 -100z" />
    <glyph glyph-name="cent" unicode="&#xa2;" horiz-adv-x="1189" 
d="M449 84l22 113q-161 58 -262 200q-103 145 -103 326v4q0 232 160 397q163 166 402 166h16l18 94q15 72 89 72q39 0 67 -31q25 -32 16 -75l-16 -86q101 -34 195 -113q37 -34 37 -84q0 -45 -33 -78q-29 -33 -78 -33q-42 0 -70 25q-52 43 -102 66l-131 -668q133 3 242 98
q36 25 69 25q42 0 70 -31q30 -30 30 -74q0 -50 -32 -75q-166 -158 -398 -158h-14l-22 -115q-15 -72 -86 -72q-43 0 -68 31q-27 34 -18 76zM348 731v-4q0 -222 174 -313l129 661q-129 -3 -217 -104q-86 -100 -86 -240z" />
    <glyph glyph-name="sterling" unicode="&#xa3;" horiz-adv-x="1318" 
d="M119 88q0 69 67 90l105 31v360h-66q-44 0 -75 31t-31 76q0 40 31 76q30 30 75 30h66v189q0 229 127 356q124 127 344 127q243 0 399 -166q39 -39 39 -90t-37 -88q-35 -35 -88 -35q-57 0 -90 39q-101 107 -219 107q-91 0 -152 -58q-67 -70 -67 -198v-183h414q41 0 75 -30
q31 -36 31 -76q0 -45 -31 -76q-36 -31 -75 -31h-414v-350h565q49 0 78 -33q33 -29 33 -77q0 -45 -33 -78q-31 -31 -78 -31h-897q-96 0 -96 88z" />
    <glyph glyph-name="yen" unicode="&#xa5;" horiz-adv-x="1404" 
d="M823 541v-150h316q37 0 63 -26q27 -27 27 -66q0 -36 -27 -63t-63 -27h-316v-98q0 -51 -35 -86t-86 -35t-86 35q-34 34 -34 86v98h-316q-36 0 -63 27t-27 63q0 39 27 66q26 26 63 26h316v150h-316q-37 0 -63 26q-27 27 -27 64q0 38 27 65t63 27h244l-377 516
q-31 45 -31 86q0 49 35 84q38 35 90 35q73 0 119 -70l359 -534l362 532q47 72 115 72q50 0 86 -31q35 -35 35 -86q0 -46 -31 -88l-381 -516h248q36 0 63 -27t27 -65q0 -37 -27 -64q-26 -26 -63 -26h-316z" />
    <glyph glyph-name="section" unicode="&#xa7;" horiz-adv-x="1294" 
d="M668 -20q-250 0 -426 147q-37 34 -37 78q0 43 31 74q28 28 71 28q37 0 64 -24q139 -115 295 -115q165 0 165 100v4q0 86 -270 144q-235 51 -340 121q-102 67 -102 178v4q0 178 219 237q-113 70 -113 195v4q0 138 107 217q107 82 295 82q251 0 426 -147q37 -34 37 -78
q0 -43 -29 -72q-32 -29 -74 -29q-33 0 -63 23q-139 115 -295 115q-166 0 -166 -101v-4q0 -79 270 -143q238 -54 340 -121q103 -68 103 -178v-4q0 -179 -220 -238q115 -71 115 -194v-4q0 -135 -108 -218q-106 -81 -295 -81zM795 569q67 0 112 31q45 33 45 80v4q0 85 -239 143
q-142 37 -213 37q-70 0 -113 -30q-45 -33 -45 -80v-4q0 -86 242 -144q139 -37 211 -37z" />
    <glyph glyph-name="dieresis" unicode="&#xa8;" horiz-adv-x="1024" 
d="M717 1475q53 0 94 -35q39 -36 39 -92v-15q0 -57 -39 -90q-41 -35 -94 -35q-55 0 -96 35q-39 33 -39 90v15q0 56 39 92q41 35 96 35zM309 1475q53 0 94 -35q39 -36 39 -92v-15q0 -57 -39 -90q-41 -35 -94 -35q-55 0 -96 35q-39 33 -39 90v15q0 56 39 92q41 35 96 35z" />
    <glyph glyph-name="copyright" unicode="&#xa9;" horiz-adv-x="1699" 
d="M848 -25q-308 0 -526 218q-213 216 -213 520v4q0 304 215 522q219 219 528 219t526 -217q213 -216 213 -520v-4q0 -304 -215 -522q-220 -220 -528 -220zM848 49q281 0 475 197q190 193 190 471v4q0 275 -188 469q-194 194 -473 194q-282 0 -475 -196q-191 -194 -191 -471
v-4q0 -275 191 -469q192 -195 471 -195zM858 326q-167 0 -280 116q-113 113 -113 281v4q0 170 113 283q112 118 284 118q159 0 266 -88q33 -20 33 -61q0 -76 -74 -76q-22 0 -49 21q-83 65 -176 65q-102 0 -172 -76q-69 -75 -69 -184v-4q0 -107 69 -182q72 -78 172 -78
q103 0 189 74q21 18 45 18q71 0 71 -72q0 -32 -22 -51q-126 -108 -287 -108z" />
    <glyph glyph-name="ordfeminine" unicode="&#xaa;" horiz-adv-x="798" 
d="M326 825q-89 0 -148 47q-63 51 -63 138v4q0 190 245 190q70 0 156 -22v10q0 125 -143 125q-55 0 -119 -23q-18 -6 -31 -6q-61 0 -61 60q0 43 39 57q90 35 190 35q134 0 199 -68q63 -60 63 -182v-295q0 -68 -71 -68q-68 0 -68 64v16q-70 -82 -188 -82zM612 578h-454
q-60 0 -60 59t60 59h454q62 0 62 -59t-62 -59zM362 930q64 0 111 35q43 34 43 88v37q-68 22 -129 22q-131 0 -131 -92v-4q0 -86 106 -86z" />
    <glyph glyph-name="guillemotleft" unicode="&#xab;" horiz-adv-x="1241" 
d="M1001 86q-52 0 -86 43l-264 340q-30 41 -30 72q0 33 30 71l258 334q34 49 92 49q45 0 72 -30q29 -29 29 -72q0 -33 -29 -70l-215 -280l219 -287q27 -35 27 -68q-3 -43 -31 -71q-28 -31 -72 -31zM485 86q-52 0 -86 43l-264 340q-29 43 -29 72q0 34 29 71l258 334
q40 49 94 49q43 0 70 -30q29 -32 29 -72q0 -35 -27 -70l-217 -280l221 -287q25 -31 25 -68q0 -42 -29 -71q-31 -31 -74 -31z" />
    <glyph glyph-name="registered" unicode="&#xae;" horiz-adv-x="782" 
d="M391 737q-149 0 -254 105q-102 105 -102 252v2q0 148 104 252q103 106 252 106q150 0 254 -104q103 -106 103 -252v-2q0 -147 -105 -252q-104 -107 -252 -107zM391 776q134 0 225 94q91 97 91 226v2q0 129 -91 223t-225 94t-225 -94q-90 -96 -90 -225v-2q0 -131 90 -224
q91 -94 225 -94zM244 954v287q0 47 45 47h129q149 0 149 -123q0 -82 -73 -112l55 -68q12 -12 12 -33q0 -43 -45 -43q-18 0 -37 19l-86 106h-59v-80q0 -45 -45 -45t-45 45zM334 1108h78q63 0 63 51t-63 51h-78v-102z" />
    <glyph glyph-name="macron" unicode="&#xaf;" horiz-adv-x="1024" 
d="M784 1241h-544q-37 0 -64 27q-26 26 -26 63q0 38 26 64t64 26h544q38 0 64 -26t26 -64q0 -37 -26 -63q-27 -27 -64 -27z" />
    <glyph glyph-name="degree" unicode="&#xb0;" horiz-adv-x="964" 
d="M483 780q-135 0 -237 99q-105 102 -105 233v4q0 133 105 232q101 98 237 98q137 0 238 -98q102 -99 102 -232v-4q0 -131 -102 -233q-102 -99 -238 -99zM483 915q81 0 138 60q55 58 55 137v4q0 79 -55 137t-138 58q-84 0 -139 -58t-55 -137v-4q0 -79 55 -137
q60 -60 139 -60z" />
    <glyph glyph-name="plusminus" unicode="&#xb1;" horiz-adv-x="1298" 
d="M537 487l2 277h-289q-47 0 -76 33q-33 29 -33 75q0 47 33 76q29 33 76 33h289l-2 276q0 48 32 80q33 33 80 33t80 -33t33 -80l-2 -276h287q44 0 77 -33q33 -29 33 -76q0 -46 -33 -75q-33 -33 -77 -33h-287l2 -277q0 -46 -33 -79t-80 -33t-80 33q-32 32 -32 79zM1053 0
h-807q-43 0 -74 31t-31 73q0 45 31 76t74 31h807q42 0 73 -31t31 -76q0 -42 -31 -73t-73 -31z" />
    <glyph glyph-name="acute" unicode="&#xb4;" horiz-adv-x="1024" 
d="M424 1208q-62 0 -62 43q0 18 17 45l117 181q38 59 98 59q50 0 98 -25q49 -27 49 -55q0 -31 -34 -61l-138 -131q-59 -56 -145 -56z" />
    <glyph glyph-name="paragraph" unicode="&#xb6;" horiz-adv-x="1140" 
d="M709 115v385h-37q-267 0 -420 118q-170 126 -170 347v4q0 216 156 342q150 123 399 123h199q53 0 90 -37t37 -90v-1192q0 -54 -37 -88q-37 -37 -90 -37q-54 0 -91 37q-36 36 -36 88z" />
    <glyph glyph-name="periodcentered" unicode="&#xb7;" horiz-adv-x="550" 
d="M131 618v19q0 60 43 100q41 41 102 41q59 0 103 -41q41 -41 41 -100v-19q0 -61 -41 -102q-44 -41 -103 -41q-61 0 -102 41q-43 40 -43 102z" />
    <glyph glyph-name="cedilla" unicode="&#xb8;" horiz-adv-x="1024" 
d="M639 20l-125 -288q-25 -60 -80 -60q-37 0 -90 29q-53 30 -53 61q0 26 16 48l146 210h186z" />
    <glyph glyph-name="ordmasculine" unicode="&#xba;" horiz-adv-x="798" 
d="M397 823q-129 0 -219 90q-88 88 -88 217v5q0 131 88 219q90 90 223 90q132 0 222 -90q86 -89 86 -217v-4q0 -132 -88 -220q-90 -90 -224 -90zM645 578h-491q-60 0 -60 59t60 59h491q60 0 60 -59t-60 -59zM401 950q71 0 119 54q45 51 45 126v5q0 76 -47 129
q-50 53 -121 53t-118 -53q-46 -52 -46 -127v-4q0 -73 48 -127q50 -56 120 -56z" />
    <glyph glyph-name="guillemotright" unicode="&#xbb;" horiz-adv-x="1241" 
d="M756 995q53 0 86 -45l264 -338q31 -42 31 -73q0 -30 -31 -72l-258 -332q-40 -49 -94 -49q-42 0 -70 31q-29 32 -29 71q0 36 27 70l217 279l-221 286q-25 36 -25 70q0 43 31 74q28 28 72 28zM240 995q53 0 86 -45l264 -338q31 -42 31 -73q0 -30 -31 -72l-258 -332
q-34 -49 -92 -49q-44 0 -72 31q-29 29 -29 71q0 33 29 70l215 279l-219 286q-27 35 -27 70q3 43 31 74q28 28 72 28z" />
    <glyph glyph-name="questiondown" unicode="&#xbf;" horiz-adv-x="1107" 
d="M594 991h12q79 0 88 -82l21 -176q12 -87 -80 -102q-297 -27 -297 -221v-4q0 -88 61 -140q64 -55 172 -55q154 0 279 113q39 28 76 28q49 0 82 -33q32 -32 32 -79q0 -53 -41 -88q-182 -170 -434 -170q-219 0 -346 112q-133 115 -133 303v4q0 343 412 414l10 94q9 82 86 82
zM752 1303v-19q0 -61 -41 -102t-105 -41q-63 0 -104 41t-41 102v19q0 59 41 100t104 41q64 0 105 -41t41 -100z" />
    <glyph glyph-name="Agrave" unicode="&#xc0;" horiz-adv-x="1583" 
d="M86 106q0 21 16 58l533 1188q47 102 151 102h13q103 0 149 -102l533 -1188q14 -25 14 -53q0 -51 -35 -86t-84 -35q-86 0 -123 88l-116 268h-697l-121 -276q-35 -80 -116 -80q-47 0 -82 35t-35 81zM537 569h503l-252 580zM797 1563q-86 0 -144 55l-139 131q-35 30 -35 61
q0 29 49 56q46 24 99 24q60 0 98 -59l117 -180q18 -27 18 -45q0 -43 -63 -43z" />
    <glyph glyph-name="Aacute" unicode="&#xc1;" horiz-adv-x="1583" 
d="M86 106q0 21 16 58l533 1188q47 102 151 102h13q103 0 149 -102l533 -1188q14 -25 14 -53q0 -51 -35 -86t-84 -35q-86 0 -123 88l-116 268h-697l-121 -276q-35 -80 -116 -80q-47 0 -82 35t-35 81zM537 569h503l-252 580zM782 1563q-61 0 -61 43q0 19 16 45l117 180
q38 59 98 59q52 0 99 -24q49 -27 49 -56q0 -31 -35 -61l-137 -131q-58 -55 -146 -55z" />
    <glyph glyph-name="Acircumflex" unicode="&#xc2;" horiz-adv-x="1583" 
d="M86 106q0 21 16 58l533 1188q47 102 151 102h13q103 0 149 -102l533 -1188q14 -25 14 -53q0 -51 -35 -86t-84 -35q-86 0 -123 88l-116 268h-697l-121 -276q-35 -80 -116 -80q-47 0 -82 35t-35 81zM537 569h503l-252 580zM786 1710l-106 -92q-64 -55 -152 -55
q-55 0 -55 41q0 13 25 49l135 170q50 59 119 59h73q72 0 119 -59l135 -170q25 -36 25 -49q0 -41 -60 -41q-84 0 -151 55z" />
    <glyph glyph-name="Atilde" unicode="&#xc3;" horiz-adv-x="1583" 
d="M86 106q0 21 16 58l533 1188q47 102 151 102h13q103 0 149 -102l533 -1188q14 -25 14 -53q0 -51 -35 -86t-84 -35q-86 0 -123 88l-116 268h-697l-121 -276q-35 -80 -116 -80q-47 0 -82 35t-35 81zM537 569h503l-252 580zM567 1589q-27 -41 -67 -41q-33 0 -54 21
q-22 22 -22 47q0 23 8 47q67 186 209 186q59 0 162 -41t133 -41q59 0 94 66q27 41 68 41q32 0 53 -21q23 -23 23 -47q0 -20 -9 -47q-67 -186 -209 -186q-58 0 -161 41t-133 41q-60 0 -95 -66z" />
    <glyph glyph-name="Adieresis" unicode="&#xc4;" horiz-adv-x="1583" 
d="M86 106q0 21 16 58l533 1188q47 102 151 102h13q103 0 149 -102l533 -1188q14 -25 14 -53q0 -51 -35 -86t-84 -35q-86 0 -123 88l-116 268h-697l-121 -276q-35 -80 -116 -80q-47 0 -82 35t-35 81zM537 569h503l-252 580zM993 1829q53 0 94 -35q39 -36 39 -92v-14
q0 -58 -39 -91q-40 -34 -94 -34q-56 0 -96 34q-39 33 -39 91v14q0 56 39 92q41 35 96 35zM586 1829q53 0 94 -35q39 -36 39 -92v-14q0 -58 -39 -91q-40 -34 -94 -34q-57 0 -97 34q-38 32 -38 91v14q0 57 38 92q41 35 97 35z" />
    <glyph glyph-name="Aring" unicode="&#xc5;" horiz-adv-x="1617" 
d="M944 1401l555 -1239q14 -25 14 -51q0 -50 -34 -84q-34 -37 -86 -37q-83 0 -123 88l-117 268h-696l-119 -276q-38 -80 -117 -80q-49 0 -84 35t-35 81q0 13 15 54l557 1241q-99 67 -99 178v4q0 89 72 158q71 65 162 65q93 0 164 -65q69 -66 69 -158v-4q0 -114 -98 -178z
M809 1454q50 0 90 37q37 37 37 88v4q0 51 -37 88q-40 37 -90 37t-90 -37q-37 -37 -37 -88v-4q0 -51 37 -88q40 -37 90 -37zM553 569h504l-252 580z" />
    <glyph glyph-name="AE" unicode="&#xc6;" horiz-adv-x="2140" 
d="M70 92q0 43 20 72l690 1182q49 88 148 88h985q47 0 80 -33q32 -32 32 -80t-32 -80q-33 -33 -80 -33h-664v-372h572q47 0 80 -33q32 -32 32 -82q0 -46 -32 -78q-33 -33 -80 -33h-572v-385h674q48 0 80 -32q33 -33 33 -80t-33 -80t-80 -33h-799q-53 0 -90 37t-37 90v219
h-540l-166 -289q-40 -69 -111 -69q-48 0 -78 30q-32 25 -32 74zM586 569h411v645h-41z" />
    <glyph glyph-name="Ccedilla" unicode="&#xc7;" horiz-adv-x="1511" 
d="M1370 168q-203 -182 -477 -191l-105 -245q-25 -60 -79 -60q-38 0 -91 29q-53 30 -53 61q0 24 17 48l123 180q-256 47 -420 250q-164 200 -164 473v4q0 311 207 524q211 217 532 217q282 0 492 -162q49 -37 49 -100q0 -51 -37 -88q-35 -35 -88 -35q-40 0 -76 25
q-159 129 -342 129q-202 0 -338 -148q-135 -144 -135 -358v-4q0 -214 133 -359q137 -149 340 -149q197 0 359 137q37 29 75 29q46 0 84 -35q35 -35 35 -82q0 -52 -41 -90z" />
    <glyph glyph-name="Egrave" unicode="&#xc8;" horiz-adv-x="1372" 
d="M1155 0h-844q-53 0 -90 37t-37 90v1180q0 53 37 90t90 37h834q47 0 80 -33q32 -32 32 -80t-32 -80q-33 -33 -80 -33h-709v-372h617q47 0 80 -33q32 -32 32 -82q0 -46 -32 -78q-33 -33 -80 -33h-617v-385h719q48 0 80 -32q33 -33 33 -80t-33 -80t-80 -33zM725 1542
q-85 0 -143 55l-140 132q-34 30 -34 61q0 28 49 55q48 25 98 25q60 0 98 -60l117 -180q18 -27 18 -45q0 -43 -63 -43z" />
    <glyph glyph-name="Eacute" unicode="&#xc9;" horiz-adv-x="1372" 
d="M713 1542q-62 0 -62 43q0 18 17 45l116 180q38 60 99 60q50 0 98 -25q49 -27 49 -55q0 -31 -35 -61l-137 -132q-58 -55 -145 -55zM1155 0h-844q-53 0 -90 37t-37 90v1180q0 53 37 90t90 37h834q47 0 80 -33q32 -32 32 -80t-32 -80q-33 -33 -80 -33h-709v-372h617
q47 0 80 -33q32 -32 32 -82q0 -46 -32 -78q-33 -33 -80 -33h-617v-385h719q48 0 80 -32q33 -33 33 -80t-33 -80t-80 -33z" />
    <glyph glyph-name="Ecircumflex" unicode="&#xca;" horiz-adv-x="1372" 
d="M717 1690l-107 -93q-64 -55 -151 -55q-56 0 -56 41q0 13 25 49l135 170q51 60 119 60h74q70 0 118 -60l136 -170q24 -34 24 -49q0 -41 -59 -41q-85 0 -152 55zM1155 0h-844q-53 0 -90 37t-37 90v1180q0 53 37 90t90 37h834q47 0 80 -33q32 -32 32 -80t-32 -80
q-33 -33 -80 -33h-709v-372h617q47 0 80 -33q32 -32 32 -82q0 -46 -32 -78q-33 -33 -80 -33h-617v-385h719q48 0 80 -32q33 -33 33 -80t-33 -80t-80 -33z" />
    <glyph glyph-name="Edieresis" unicode="&#xcb;" horiz-adv-x="1372" 
d="M924 1808q54 0 94 -34q39 -36 39 -93v-14q0 -57 -39 -90q-41 -35 -94 -35q-56 0 -97 35q-39 33 -39 90v14q0 57 39 93q40 34 97 34zM516 1808q54 0 94 -34q39 -36 39 -93v-14q0 -57 -39 -90q-41 -35 -94 -35q-55 0 -96 35q-39 33 -39 90v14q0 57 39 93q40 34 96 34z
M1155 0h-844q-53 0 -90 37t-37 90v1180q0 53 37 90t90 37h834q47 0 80 -33q32 -32 32 -80t-32 -80q-33 -33 -80 -33h-709v-372h617q47 0 80 -33q32 -32 32 -82q0 -46 -32 -78q-33 -33 -80 -33h-617v-385h719q48 0 80 -32q33 -33 33 -80t-33 -80t-80 -33z" />
    <glyph glyph-name="Igrave" unicode="&#xcc;" horiz-adv-x="649" 
d="M199 115v1204q0 54 37 88q37 37 90 37q54 0 88 -37q37 -34 37 -88v-1204q0 -51 -37 -88q-34 -37 -88 -37q-53 0 -90 37q-37 34 -37 88zM332 1542q-86 0 -144 55l-139 132q-35 30 -35 61q0 28 49 55q48 25 99 25q60 0 98 -60l117 -180q18 -27 18 -45q0 -43 -63 -43z" />
    <glyph glyph-name="Iacute" unicode="&#xcd;" horiz-adv-x="649" 
d="M199 115v1204q0 54 37 88q37 37 90 37q54 0 88 -37q37 -34 37 -88v-1204q0 -51 -37 -88q-34 -37 -88 -37q-53 0 -90 37q-37 34 -37 88zM319 1542q-61 0 -61 43q0 19 16 45l117 180q38 60 98 60q51 0 99 -25q49 -27 49 -55q0 -31 -35 -61l-137 -132q-58 -55 -146 -55z" />
    <glyph glyph-name="Icircumflex" unicode="&#xce;" horiz-adv-x="649" 
d="M199 115v1204q0 54 37 88q37 37 90 37q54 0 88 -37q37 -34 37 -88v-1204q0 -51 -37 -88q-34 -37 -88 -37q-53 0 -90 37q-37 34 -37 88zM324 1690l-107 -93q-64 -55 -151 -55q-56 0 -56 41q0 13 25 49l135 170q51 60 119 60h73q71 0 119 -60l135 -170q25 -36 25 -49
q0 -41 -59 -41q-85 0 -152 55z" />
    <glyph glyph-name="Idieresis" unicode="&#xcf;" horiz-adv-x="649" 
d="M199 115v1204q0 54 37 88q37 37 90 37q54 0 88 -37q37 -34 37 -88v-1204q0 -51 -37 -88q-34 -37 -88 -37q-53 0 -90 37q-37 34 -37 88zM530 1808q55 0 95 -34q39 -36 39 -93v-14q0 -57 -39 -90q-41 -35 -95 -35q-55 0 -96 35q-39 33 -39 90v14q0 57 39 93q40 34 96 34z
M123 1808q54 0 94 -34q39 -36 39 -93v-14q0 -57 -39 -90q-41 -35 -94 -35q-55 0 -96 35q-39 33 -39 90v14q0 57 39 93q40 34 96 34z" />
    <glyph glyph-name="Eth" unicode="&#xd0;" horiz-adv-x="1662" 
d="M193 834h53v473q0 53 37 90t90 37h407q334 0 551 -205q211 -202 211 -508v-4q0 -308 -211 -510q-219 -207 -551 -207h-407q-53 0 -90 37t-37 90v481h-53q-45 0 -78 33t-33 80t33 80q29 33 78 33zM496 1204v-370h260q49 0 78 -33q32 -32 32 -80t-32 -80q-33 -33 -78 -33
h-260v-379h284q225 0 363 138q135 132 135 346v4q0 213 -135 348q-139 139 -363 139h-284z" />
    <glyph glyph-name="Ntilde" unicode="&#xd1;" horiz-adv-x="1617" 
d="M184 113v1202q0 53 37 90t90 37h27q72 0 131 -74l717 -928v881q0 52 37 86q34 37 86 37q51 0 88 -37q37 -34 37 -86v-1204q0 -53 -35 -88q-37 -37 -88 -37h-11q-73 0 -131 76l-737 954v-909q0 -52 -37 -86q-34 -37 -86 -37q-51 0 -88 37q-37 34 -37 86zM586 1569
q-27 -41 -68 -41q-33 0 -53 20q-23 23 -23 47q0 20 9 47q67 187 208 187q59 0 162 -41t133 -41q60 0 95 65q27 41 67 41q33 0 53 -20q23 -23 23 -47q0 -23 -8 -47q-67 -187 -209 -187q-59 0 -162 41t-133 41q-59 0 -94 -65z" />
    <glyph glyph-name="Ograve" unicode="&#xd2;" horiz-adv-x="1740" 
d="M868 -25q-326 0 -538 218q-209 212 -209 520v4q0 308 211 522q216 219 540 219q328 0 539 -217q209 -212 209 -520v-4q0 -308 -211 -522q-217 -220 -541 -220zM872 209q211 0 349 147q135 144 135 357v4q0 214 -137 360q-138 150 -351 150q-209 0 -348 -148
q-135 -144 -135 -358v-4q0 -216 137 -359q137 -149 350 -149zM877 1563q-86 0 -144 55l-139 131q-35 30 -35 61q0 29 49 56q46 24 99 24q60 0 98 -59l117 -180q18 -27 18 -45q0 -43 -63 -43z" />
    <glyph glyph-name="Oacute" unicode="&#xd3;" horiz-adv-x="1740" 
d="M862 1563q-61 0 -61 43q0 19 16 45l117 180q38 59 98 59q52 0 98 -24q50 -27 50 -56q0 -31 -35 -61l-137 -131q-58 -55 -146 -55zM868 -25q-326 0 -538 218q-209 212 -209 520v4q0 308 211 522q216 219 540 219q328 0 539 -217q209 -212 209 -520v-4q0 -308 -211 -522
q-217 -220 -541 -220zM872 209q211 0 349 147q135 144 135 357v4q0 214 -137 360q-138 150 -351 150q-209 0 -348 -148q-135 -144 -135 -358v-4q0 -216 137 -359q137 -149 350 -149z" />
    <glyph glyph-name="Ocircumflex" unicode="&#xd4;" horiz-adv-x="1740" 
d="M868 1710l-106 -92q-64 -55 -152 -55q-55 0 -55 41q0 13 25 49l135 170q50 59 119 59h73q72 0 119 -59l135 -170q25 -36 25 -49q0 -41 -60 -41q-84 0 -151 55zM868 -25q-326 0 -538 218q-209 212 -209 520v4q0 308 211 522q216 219 540 219q328 0 539 -217
q209 -212 209 -520v-4q0 -308 -211 -522q-217 -220 -541 -220zM872 209q211 0 349 147q135 144 135 357v4q0 214 -137 360q-138 150 -351 150q-209 0 -348 -148q-135 -144 -135 -358v-4q0 -216 137 -359q137 -149 350 -149z" />
    <glyph glyph-name="Otilde" unicode="&#xd5;" horiz-adv-x="1740" 
d="M868 -25q-326 0 -538 218q-209 212 -209 520v4q0 308 211 522q216 219 540 219q328 0 539 -217q209 -212 209 -520v-4q0 -308 -211 -522q-217 -220 -541 -220zM872 209q211 0 349 147q135 144 135 357v4q0 214 -137 360q-138 150 -351 150q-209 0 -348 -148
q-135 -144 -135 -358v-4q0 -216 137 -359q137 -149 350 -149zM647 1589q-27 -41 -67 -41q-33 0 -54 21q-22 22 -22 47q0 23 8 47q67 186 209 186q59 0 162 -41t133 -41q59 0 94 66q27 41 68 41q32 0 53 -21q22 -22 22 -47q0 -23 -8 -47q-67 -186 -209 -186q-59 0 -162 41
t-133 41q-59 0 -94 -66z" />
    <glyph glyph-name="Odieresis" unicode="&#xd6;" horiz-adv-x="1740" 
d="M1075 1829q53 0 94 -35q39 -36 39 -92v-14q0 -58 -39 -91q-40 -34 -94 -34q-56 0 -96 34q-39 33 -39 91v14q0 56 39 92q41 35 96 35zM668 1829q53 0 94 -35q39 -36 39 -92v-14q0 -58 -39 -91q-40 -34 -94 -34q-57 0 -97 34q-39 33 -39 91v14q0 56 39 92q41 35 97 35z
M868 -25q-326 0 -538 218q-209 212 -209 520v4q0 308 211 522q216 219 540 219q328 0 539 -217q209 -212 209 -520v-4q0 -308 -211 -522q-217 -220 -541 -220zM872 209q211 0 349 147q135 144 135 357v4q0 214 -137 360q-138 150 -351 150q-209 0 -348 -148
q-135 -144 -135 -358v-4q0 -216 137 -359q137 -149 350 -149z" />
    <glyph glyph-name="multiply" unicode="&#xd7;" horiz-adv-x="1298" 
d="M1065 985l-266 -262l268 -262q35 -35 35 -82q0 -45 -33 -78q-29 -33 -78 -33q-46 0 -82 33l-262 270l-264 -268q-30 -35 -80 -35q-45 0 -76 31q-30 30 -30 76q0 49 36 82l267 262l-271 262q-32 35 -32 82q0 50 32 78q33 33 78 33q47 0 82 -35l262 -269l264 269
q30 35 78 35q47 0 78 -31t31 -78q0 -46 -37 -80z" />
    <glyph glyph-name="Oslash" unicode="&#xd8;" horiz-adv-x="1740" 
d="M868 -25q-252 0 -446 138l-98 -99q-30 -34 -78 -34q-88 0 -88 81q0 41 35 76l96 101q-168 201 -168 475v4q0 308 211 522q216 219 540 219q255 0 447 -139l98 100q35 35 78 35q88 0 88 -80q0 -43 -35 -78l-96 -100q168 -201 168 -475v-4q0 -308 -211 -522
q-217 -220 -541 -220zM381 721v-4q0 -160 86 -293l684 715q-127 92 -283 92q-212 0 -350 -150q-137 -146 -137 -360zM872 203q214 0 351 149q137 146 137 361v4q0 157 -86 293l-686 -717q128 -90 284 -90z" />
    <glyph glyph-name="Ugrave" unicode="&#xd9;" horiz-adv-x="1550" 
d="M772 -23q-284 0 -444 160q-166 163 -166 471v711q0 54 37 88q37 37 90 37q54 0 88 -37q37 -34 37 -88v-701q0 -193 96 -303q94 -104 266 -104q171 0 264 100q97 105 97 297v711q0 54 37 88q37 37 90 37q54 0 88 -37q37 -34 37 -88v-698q0 -314 -168 -482
q-158 -162 -449 -162zM780 1542q-85 0 -143 55l-139 132q-35 30 -35 61q0 28 49 55q48 25 98 25q61 0 99 -60l116 -180q19 -29 19 -45q0 -43 -64 -43z" />
    <glyph glyph-name="Uacute" unicode="&#xda;" horiz-adv-x="1550" 
d="M768 1542q-61 0 -61 43q0 19 16 45l117 180q38 60 98 60q50 0 98 -25q49 -27 49 -55q0 -31 -34 -61l-138 -132q-58 -55 -145 -55zM772 -23q-284 0 -444 160q-166 163 -166 471v711q0 54 37 88q37 37 90 37q54 0 88 -37q37 -34 37 -88v-701q0 -193 96 -303
q94 -104 266 -104q171 0 264 100q97 105 97 297v711q0 54 37 88q37 37 90 37q54 0 88 -37q37 -34 37 -88v-698q0 -314 -168 -482q-158 -162 -449 -162z" />
    <glyph glyph-name="Ucircumflex" unicode="&#xdb;" horiz-adv-x="1550" 
d="M772 1690l-106 -93q-64 -55 -152 -55q-55 0 -55 41q0 15 24 49l135 170q51 60 119 60h74q71 0 119 -60l135 -170q25 -36 25 -49q0 -41 -60 -41q-84 0 -151 55zM772 -23q-284 0 -444 160q-166 163 -166 471v711q0 54 37 88q37 37 90 37q54 0 88 -37q37 -34 37 -88v-701
q0 -193 96 -303q94 -104 266 -104q171 0 264 100q97 105 97 297v711q0 54 37 88q37 37 90 37q54 0 88 -37q37 -34 37 -88v-698q0 -314 -168 -482q-158 -162 -449 -162z" />
    <glyph glyph-name="Udieresis" unicode="&#xdc;" horiz-adv-x="1550" 
d="M979 1808q54 0 94 -34q39 -36 39 -93v-14q0 -57 -39 -90q-41 -35 -94 -35q-55 0 -96 35q-39 33 -39 90v14q0 57 39 93q40 34 96 34zM571 1808q55 0 95 -34q39 -36 39 -93v-14q0 -57 -39 -90q-41 -35 -95 -35q-55 0 -96 35q-39 33 -39 90v14q0 57 39 93q40 34 96 34z
M772 -23q-284 0 -444 160q-166 163 -166 471v711q0 54 37 88q37 37 90 37q54 0 88 -37q37 -34 37 -88v-701q0 -193 96 -303q94 -104 266 -104q171 0 264 100q97 105 97 297v711q0 54 37 88q37 37 90 37q54 0 88 -37q37 -34 37 -88v-698q0 -314 -168 -482
q-158 -162 -449 -162z" />
    <glyph glyph-name="Yacute" unicode="&#xdd;" horiz-adv-x="1425" 
d="M588 115v442l-494 678q-28 45 -28 88q0 53 36 86q38 35 91 35q70 0 122 -76l400 -575l405 577q52 76 121 76q53 0 90 -37q33 -33 33 -86q0 -43 -35 -90l-489 -670v-448q0 -54 -37 -88q-37 -37 -90 -37q-51 0 -88 37t-37 88zM707 1542q-62 0 -62 43q0 18 17 45l116 180
q38 60 99 60q50 0 98 -25q49 -27 49 -55q0 -31 -35 -61l-137 -132q-58 -55 -145 -55z" />
    <glyph glyph-name="Thorn" unicode="&#xde;" horiz-adv-x="1378" 
d="M184 115v1204q0 54 37 88q37 37 90 37q54 0 88 -37q37 -34 37 -88v-109h314q250 0 399 -131q145 -133 145 -348v-4q0 -236 -168 -367q-155 -122 -405 -122h-285v-123q0 -51 -37 -88q-34 -37 -88 -37q-53 0 -90 37q-37 34 -37 88zM436 463h293q142 0 225 74q84 72 84 184
v4q0 121 -84 190q-84 66 -225 66h-293v-518z" />
    <glyph glyph-name="germandbls" unicode="&#xdf;" horiz-adv-x="1269" 
d="M596 96q0 78 88 99q238 38 238 213v4q0 159 -236 217q-90 27 -90 108q0 68 53 103q189 106 189 258v4q0 88 -58 143q-56 53 -149 53q-101 0 -166 -71q-64 -70 -64 -191v-925q0 -53 -36 -86q-35 -35 -89 -35q-51 0 -86 35q-34 34 -34 86v917q0 224 131 352
q132 129 356 129q205 0 326 -112q116 -107 116 -273v-4q0 -225 -227 -350q311 -105 311 -364v-5q0 -188 -143 -301q-130 -103 -317 -106q-113 0 -113 102z" />
    <glyph glyph-name="agrave" unicode="&#xe0;" 
d="M467 -23q-159 0 -268 86q-115 92 -115 248v4q0 172 125 263q118 86 321 86q152 0 291 -46v27q0 236 -268 236q-133 0 -240 -43q-24 -7 -39 -7q-42 0 -73 31q-31 28 -31 72q0 71 68 98q168 64 348 64q240 0 358 -121q117 -114 117 -334v-532q0 -49 -35 -84t-86 -35
q-54 0 -88 30q-33 29 -33 74v41q-134 -158 -352 -158zM537 158q125 0 206 63q82 64 82 168v74q-110 43 -245 43q-254 0 -254 -180v-4q0 -75 61 -121q58 -43 150 -43zM608 1208q-84 0 -143 56l-139 131q-35 30 -35 61q0 28 49 55q48 25 98 25q61 0 99 -59l116 -181
q19 -28 19 -45q0 -43 -64 -43z" />
    <glyph glyph-name="aacute" unicode="&#xe1;" 
d="M467 -23q-159 0 -268 86q-115 92 -115 248v4q0 172 125 263q118 86 321 86q152 0 291 -46v27q0 236 -268 236q-133 0 -240 -43q-24 -7 -39 -7q-42 0 -73 31q-31 28 -31 72q0 71 68 98q168 64 348 64q240 0 358 -121q117 -114 117 -334v-532q0 -49 -35 -84t-86 -35
q-54 0 -88 30q-33 29 -33 74v41q-134 -158 -352 -158zM537 158q125 0 206 63q82 64 82 168v74q-110 43 -245 43q-254 0 -254 -180v-4q0 -75 61 -121q58 -43 150 -43zM596 1208q-61 0 -61 43q0 19 16 45l117 181q38 59 98 59q50 0 98 -25q49 -27 49 -55q0 -31 -34 -61
l-138 -131q-59 -56 -145 -56z" />
    <glyph glyph-name="acircumflex" unicode="&#xe2;" 
d="M467 -23q-159 0 -268 86q-115 92 -115 248v4q0 172 125 263q118 86 321 86q152 0 291 -46v27q0 236 -268 236q-133 0 -240 -43q-24 -7 -39 -7q-42 0 -73 31q-31 28 -31 72q0 71 68 98q168 64 348 64q240 0 358 -121q117 -114 117 -334v-532q0 -49 -35 -84t-86 -35
q-54 0 -88 30q-33 29 -33 74v41q-134 -158 -352 -158zM537 158q125 0 206 63q82 64 82 168v74q-110 43 -245 43q-254 0 -254 -180v-4q0 -75 61 -121q58 -43 150 -43zM600 1356l-106 -92q-65 -56 -152 -56q-55 0 -55 41q0 15 24 49l135 170q51 60 119 60h74q71 0 119 -60
l135 -170q25 -36 25 -49q0 -41 -60 -41q-83 0 -151 56z" />
    <glyph glyph-name="atilde" unicode="&#xe3;" 
d="M467 -23q-159 0 -268 86q-115 92 -115 248v4q0 172 125 263q118 86 321 86q152 0 291 -46v27q0 236 -268 236q-133 0 -240 -43q-24 -7 -39 -7q-42 0 -73 31q-31 28 -31 72q0 71 68 98q168 64 348 64q240 0 358 -121q117 -114 117 -334v-532q0 -49 -35 -84t-86 -35
q-54 0 -88 30q-33 29 -33 74v41q-134 -158 -352 -158zM381 1235q-27 -41 -68 -41q-33 0 -53 20q-22 22 -22 48q0 23 8 47q67 186 209 186q58 0 161 -41t134 -41q59 0 94 66q27 41 67 41q33 0 54 -21q22 -22 22 -47q0 -23 -8 -47q-67 -186 -209 -186q-59 0 -162 41
q-101 40 -133 40q-59 0 -94 -65zM537 158q125 0 206 63q82 64 82 168v74q-110 43 -245 43q-254 0 -254 -180v-4q0 -75 61 -121q58 -43 150 -43z" />
    <glyph glyph-name="adieresis" unicode="&#xe4;" 
d="M467 -23q-159 0 -268 86q-115 92 -115 248v4q0 172 125 263q118 86 321 86q152 0 291 -46v27q0 236 -268 236q-133 0 -240 -43q-24 -7 -39 -7q-42 0 -73 31q-31 28 -31 72q0 71 68 98q168 64 348 64q240 0 358 -121q117 -114 117 -334v-532q0 -49 -35 -84t-86 -35
q-54 0 -88 30q-33 29 -33 74v41q-134 -158 -352 -158zM537 158q125 0 206 63q82 64 82 168v74q-110 43 -245 43q-254 0 -254 -180v-4q0 -75 61 -121q58 -43 150 -43zM807 1475q53 0 94 -35q39 -36 39 -92v-15q0 -57 -39 -90q-41 -35 -94 -35q-55 0 -96 35q-39 33 -39 90v15
q0 56 39 92q41 35 96 35zM399 1475q54 0 95 -35q38 -35 38 -92v-15q0 -58 -38 -90q-41 -35 -95 -35q-55 0 -96 35q-39 33 -39 90v15q0 56 39 92q41 35 96 35z" />
    <glyph glyph-name="aring" unicode="&#xe5;" 
d="M467 -23q-159 0 -268 86q-115 92 -115 248v4q0 172 125 263q118 86 321 86q152 0 291 -46v27q0 236 -268 236q-133 0 -240 -43q-24 -7 -39 -7q-42 0 -73 31q-31 28 -31 72q0 71 68 98q168 64 348 64q240 0 358 -121q117 -114 117 -334v-532q0 -49 -35 -84t-86 -35
q-54 0 -88 30q-33 29 -33 74v41q-134 -158 -352 -158zM602 1214q-90 0 -162 66q-71 68 -71 158v4q0 92 71 157q72 66 162 66q92 0 164 -66q70 -64 70 -157v-4q0 -91 -70 -158q-72 -66 -164 -66zM537 158q125 0 206 63q82 64 82 168v74q-110 43 -245 43q-254 0 -254 -180v-4
q0 -75 61 -121q58 -43 150 -43zM602 1313q50 0 90 37q37 37 37 88v4q0 51 -37 88q-40 37 -90 37t-90 -37q-37 -37 -37 -88v-4q0 -51 37 -88q40 -37 90 -37z" />
    <glyph glyph-name="ae" unicode="&#xe6;" horiz-adv-x="1949" 
d="M1053 616h557q-12 127 -82 203q-73 82 -193 82q-113 0 -190 -80q-77 -77 -92 -205zM532 160q171 0 322 139q-31 74 -41 166q-115 41 -238 41q-249 0 -249 -180v-4q0 -73 61 -119q58 -43 145 -43zM1751 119q-159 -144 -389 -144q-262 0 -418 185q-219 -183 -452 -183
q-174 0 -289 89q-119 88 -119 245v4q0 171 123 263q118 86 319 86q148 0 287 -46v27q0 236 -264 236q-123 0 -236 -43q-24 -7 -39 -7q-42 0 -73 31q-31 28 -31 72q0 71 68 98q158 64 344 64q279 0 381 -176q141 184 378 184t381 -172q127 -154 127 -361q0 -54 -32 -86
t-84 -32h-676q21 -130 106 -203q84 -72 203 -72q145 0 258 94q30 23 62 23q42 0 71 -29t29 -71q0 -46 -35 -76z" />
    <glyph glyph-name="ccedilla" unicode="&#xe7;" horiz-adv-x="1169" 
d="M1049 129q-149 -143 -349 -152l-106 -245q-25 -60 -80 -60q-37 0 -90 29q-53 30 -53 61q0 26 16 48l125 184q-187 47 -299 194q-117 150 -117 347v4q0 232 160 397q162 168 403 168q223 0 379 -135q39 -33 39 -86q0 -47 -33 -80t-81 -33q-38 0 -74 25q-112 92 -232 92
q-135 0 -223 -101q-90 -104 -90 -243v-4q0 -142 90 -246q90 -100 234 -100q125 0 241 96q29 26 68 26q48 0 76 -32q30 -30 30 -76q0 -51 -34 -78z" />
    <glyph glyph-name="egrave" unicode="&#xe8;" horiz-adv-x="1236" 
d="M342 616h555q-12 127 -82 203q-73 82 -192 82q-112 0 -189 -80q-77 -77 -92 -205zM1040 119q-159 -144 -389 -144q-239 0 -395 156q-160 157 -160 406v4q0 232 148 397q150 166 381 166q243 0 387 -172q127 -154 127 -361q0 -51 -35 -86q-32 -32 -82 -32h-678
q21 -129 107 -203q84 -72 204 -72q143 0 256 94q30 23 64 23q40 0 69 -29t29 -71q0 -43 -33 -76zM627 1208q-85 0 -144 56l-139 131q-35 30 -35 61q0 28 49 55q48 25 99 25q60 0 98 -59l117 -181q18 -27 18 -45q0 -43 -63 -43z" />
    <glyph glyph-name="eacute" unicode="&#xe9;" horiz-adv-x="1236" 
d="M614 1208q-61 0 -61 43q0 19 16 45l117 181q38 59 98 59q51 0 99 -25q49 -27 49 -55q0 -31 -35 -61l-137 -131q-59 -56 -146 -56zM342 616h555q-12 127 -82 203q-73 82 -192 82q-112 0 -189 -80q-77 -77 -92 -205zM1040 119q-159 -144 -389 -144q-239 0 -395 156
q-160 157 -160 406v4q0 232 148 397q150 166 381 166q243 0 387 -172q127 -154 127 -361q0 -51 -35 -86q-32 -32 -82 -32h-678q21 -129 107 -203q84 -72 204 -72q143 0 256 94q30 23 64 23q40 0 69 -29t29 -71q0 -43 -33 -76z" />
    <glyph glyph-name="ecircumflex" unicode="&#xea;" horiz-adv-x="1236" 
d="M618 1356l-106 -92q-65 -56 -152 -56q-55 0 -55 41q0 13 25 49l135 170q51 60 119 60h73q71 0 119 -60l135 -170q25 -36 25 -49q0 -41 -59 -41q-84 0 -152 56zM342 616h555q-12 127 -82 203q-73 82 -192 82q-112 0 -189 -80q-77 -77 -92 -205zM1040 119
q-159 -144 -389 -144q-239 0 -395 156q-160 157 -160 406v4q0 232 148 397q150 166 381 166q243 0 387 -172q127 -154 127 -361q0 -51 -35 -86q-32 -32 -82 -32h-678q21 -129 107 -203q84 -72 204 -72q143 0 256 94q30 23 64 23q40 0 69 -29t29 -71q0 -43 -33 -76z" />
    <glyph glyph-name="edieresis" unicode="&#xeb;" horiz-adv-x="1236" 
d="M825 1475q54 0 95 -35q38 -35 38 -92v-15q0 -58 -38 -90q-41 -35 -95 -35q-55 0 -96 35q-39 33 -39 90v15q0 56 39 92q41 35 96 35zM418 1475q53 0 94 -35q39 -36 39 -92v-15q0 -57 -39 -90q-41 -35 -94 -35q-55 0 -96 35q-39 33 -39 90v15q0 56 39 92q41 35 96 35z
M342 616h555q-12 127 -82 203q-73 82 -192 82q-112 0 -189 -80q-77 -77 -92 -205zM1040 119q-159 -144 -389 -144q-239 0 -395 156q-160 157 -160 406v4q0 232 148 397q150 166 381 166q243 0 387 -172q127 -154 127 -361q0 -51 -35 -86q-32 -32 -82 -32h-678
q21 -129 107 -203q84 -72 204 -72q143 0 256 94q30 23 64 23q40 0 69 -29t29 -71q0 -43 -33 -76z" />
    <glyph glyph-name="igrave" unicode="&#xec;" horiz-adv-x="585" 
d="M170 113v856q0 53 35 88q37 37 88 37q54 0 88 -37q37 -34 37 -88v-856q0 -51 -37 -88q-35 -35 -88 -35q-51 0 -86 35q-37 37 -37 88zM299 1208q-84 0 -143 56l-140 131q-34 30 -34 61q0 28 49 55q48 25 98 25q60 0 98 -59l117 -181q18 -27 18 -45q0 -43 -63 -43z" />
    <glyph glyph-name="iacute" unicode="&#xed;" horiz-adv-x="585" 
d="M287 1208q-62 0 -62 43q0 18 17 45l116 181q38 59 99 59q50 0 98 -25q49 -27 49 -55q0 -31 -35 -61l-137 -131q-59 -56 -145 -56zM170 113v856q0 53 35 88q37 37 88 37q54 0 88 -37q37 -34 37 -88v-856q0 -51 -37 -88q-35 -35 -88 -35q-51 0 -86 35q-37 37 -37 88z" />
    <glyph glyph-name="icircumflex" unicode="&#xee;" horiz-adv-x="585" 
d="M291 1356l-107 -92q-65 -56 -151 -56q-56 0 -56 41q0 13 25 49l135 170q51 60 119 60h74q71 0 119 -60l135 -170q24 -34 24 -49q0 -41 -59 -41q-84 0 -152 56zM170 113v856q0 53 35 88q37 37 88 37q54 0 88 -37q37 -34 37 -88v-856q0 -51 -37 -88q-35 -35 -88 -35
q-51 0 -86 35q-37 37 -37 88z" />
    <glyph glyph-name="idieresis" unicode="&#xef;" horiz-adv-x="585" 
d="M498 1475q53 0 94 -35q39 -36 39 -92v-15q0 -57 -39 -90q-41 -35 -94 -35q-56 0 -97 35q-39 33 -39 90v15q0 56 39 92q41 35 97 35zM90 1475q53 0 94 -35q39 -36 39 -92v-15q0 -57 -39 -90q-41 -35 -94 -35q-55 0 -96 35q-39 33 -39 90v15q0 56 39 92q41 35 96 35z
M170 113v856q0 53 35 88q37 37 88 37q54 0 88 -37q37 -34 37 -88v-856q0 -51 -37 -88q-35 -35 -88 -35q-51 0 -86 35q-37 37 -37 88z" />
    <glyph glyph-name="eth" unicode="&#xf0;" horiz-adv-x="1314" 
d="M856 911l-213 293l-223 -98q-15 -6 -35 -6q-78 0 -78 78q0 52 55 73l187 82q-21 27 -21 66q0 47 33 80q32 32 80 32q58 0 98 -55l23 -33l178 78q21 8 35 8q34 0 55 -24q23 -23 23 -55q0 -52 -54 -74l-147 -64l184 -262q178 -257 178 -500q0 -232 -151 -389
q-156 -166 -416 -166q-234 0 -395 158q-156 153 -156 377q0 216 137 350q135 135 338 135q144 0 285 -84zM971 506q0 127 -90 217t-232 90q-140 0 -225 -88q-84 -87 -84 -221q0 -132 88 -223q92 -95 229 -95q139 0 228 95q86 89 86 225z" />
    <glyph glyph-name="ntilde" unicode="&#xf1;" horiz-adv-x="1269" 
d="M156 113v856q0 54 34 88q37 37 89 37q54 0 88 -37q36 -33 36 -88v-54q133 189 338 189q181 0 285 -113q100 -109 100 -301v-577q0 -51 -34 -88q-35 -35 -88 -35q-54 0 -89 35q-36 36 -36 88v501q0 265 -232 265q-107 0 -176 -72q-68 -71 -68 -197v-497q0 -52 -36 -88
q-35 -35 -88 -35q-51 0 -86 35q-37 37 -37 88zM416 1235q-27 -41 -68 -41q-33 0 -53 20q-23 23 -23 48q0 20 9 47q67 186 208 186q59 0 162 -41t133 -41q60 0 95 66q27 41 67 41q32 0 53 -21q23 -23 23 -47q0 -23 -8 -47q-67 -186 -209 -186q-59 0 -162 41q-101 40 -133 40
q-59 0 -94 -65z" />
    <glyph glyph-name="ograve" unicode="&#xf2;" horiz-adv-x="1345" 
d="M670 -25q-246 0 -410 164t-164 396v4q0 235 164 399q169 166 414 166q244 0 411 -164q164 -164 164 -397v-4q0 -234 -164 -398q-169 -166 -415 -166zM674 193q149 0 239 100q88 98 88 242v4q0 142 -92 245q-95 103 -239 103q-147 0 -238 -101q-88 -98 -88 -243v-4
q0 -141 92 -244q94 -102 238 -102zM678 1208q-84 0 -143 56l-140 131q-35 30 -35 61q0 28 50 55q48 25 98 25q60 0 98 -59l117 -181q18 -27 18 -45q0 -43 -63 -43z" />
    <glyph glyph-name="oacute" unicode="&#xf3;" horiz-adv-x="1345" 
d="M666 1208q-62 0 -62 43q0 18 17 45l116 181q38 59 99 59q50 0 98 -25q49 -27 49 -55q0 -31 -35 -61l-137 -131q-59 -56 -145 -56zM670 -25q-246 0 -410 164t-164 396v4q0 235 164 399q169 166 414 166q244 0 411 -164q164 -164 164 -397v-4q0 -234 -164 -398
q-169 -166 -415 -166zM674 193q149 0 239 100q88 98 88 242v4q0 142 -92 245q-95 103 -239 103q-147 0 -238 -101q-88 -98 -88 -243v-4q0 -141 92 -244q94 -102 238 -102z" />
    <glyph glyph-name="ocircumflex" unicode="&#xf4;" horiz-adv-x="1345" 
d="M670 1356l-107 -92q-65 -56 -151 -56q-56 0 -56 41q0 13 25 49l135 170q51 60 119 60h74q70 0 118 -60l136 -170q24 -34 24 -49q0 -41 -59 -41q-84 0 -152 56zM670 -25q-246 0 -410 164t-164 396v4q0 235 164 399q169 166 414 166q244 0 411 -164q164 -164 164 -397v-4
q0 -234 -164 -398q-169 -166 -415 -166zM674 193q149 0 239 100q88 98 88 242v4q0 142 -92 245q-95 103 -239 103q-147 0 -238 -101q-88 -98 -88 -243v-4q0 -141 92 -244q94 -102 238 -102z" />
    <glyph glyph-name="otilde" unicode="&#xf5;" horiz-adv-x="1345" 
d="M670 -25q-246 0 -410 164t-164 396v4q0 235 164 399q169 166 414 166q244 0 411 -164q164 -164 164 -397v-4q0 -234 -164 -398q-169 -166 -415 -166zM674 193q149 0 239 100q88 98 88 242v4q0 142 -92 245q-95 103 -239 103q-147 0 -238 -101q-88 -98 -88 -243v-4
q0 -141 92 -244q94 -102 238 -102zM449 1235q-27 -41 -68 -41q-33 0 -53 20q-23 23 -23 48q0 23 8 47q67 186 209 186q59 0 162 -41t133 -41q59 0 94 66q27 41 68 41q32 0 53 -21q23 -23 23 -47q0 -23 -8 -47q-67 -186 -209 -186q-59 0 -162 41q-101 40 -133 40
q-59 0 -94 -65z" />
    <glyph glyph-name="odieresis" unicode="&#xf6;" horiz-adv-x="1345" 
d="M877 1475q53 0 94 -35q39 -36 39 -92v-15q0 -57 -39 -90q-41 -35 -94 -35q-56 0 -97 35q-39 33 -39 90v15q0 56 39 92q41 35 97 35zM469 1475q53 0 94 -35q39 -36 39 -92v-15q0 -57 -39 -90q-41 -35 -94 -35q-55 0 -96 35q-39 33 -39 90v15q0 56 39 92q41 35 96 35z
M670 -25q-246 0 -410 164t-164 396v4q0 235 164 399q169 166 414 166q244 0 411 -164q164 -164 164 -397v-4q0 -234 -164 -398q-169 -166 -415 -166zM674 193q149 0 239 100q88 98 88 242v4q0 142 -92 245q-95 103 -239 103q-147 0 -238 -101q-88 -98 -88 -243v-4
q0 -141 92 -244q94 -102 238 -102z" />
    <glyph glyph-name="divide" unicode="&#xf7;" horiz-adv-x="1298" 
d="M1063 614h-827q-47 0 -76 33q-31 31 -31 74q0 40 31 76q30 30 76 30h827q46 0 76 -30q30 -35 30 -76q0 -44 -30 -74q-29 -33 -76 -33zM649 1288q59 0 101 -39q41 -41 41 -96v-10q0 -55 -41 -96t-101 -41q-59 0 -100 41t-41 96v10q0 55 41 96q42 39 100 39zM649 436
q60 0 101 -41t41 -96v-10q0 -55 -41 -96q-39 -39 -101 -39q-61 0 -100 39q-41 41 -41 96v10q0 55 41 96t100 41z" />
    <glyph glyph-name="oslash" unicode="&#xf8;" horiz-adv-x="1345" 
d="M670 -25q-185 0 -332 99l-59 -62q-37 -37 -78 -37q-33 0 -56 23q-24 21 -24 53q0 41 35 76l59 61q-119 146 -119 347v4q0 235 164 399q169 166 414 166q191 0 332 -100l61 63q37 37 78 37q34 0 55 -21q25 -22 25 -53q0 -37 -35 -78l-62 -61q121 -154 121 -348v-4
q0 -234 -164 -398q-169 -166 -415 -166zM338 543v-4q0 -101 45 -181l469 480q-82 55 -182 55q-147 0 -242 -105q-90 -101 -90 -245zM674 186q150 0 244 105q90 101 90 244v4q0 97 -47 180l-469 -479q79 -54 182 -54z" />
    <glyph glyph-name="ugrave" unicode="&#xf9;" horiz-adv-x="1269" 
d="M1116 969v-856q0 -52 -37 -86q-37 -37 -88 -37q-50 0 -88 35q-37 37 -37 88v55q-129 -191 -338 -191q-180 0 -284 113q-101 113 -101 303v576q0 51 37 88q34 37 86 37q54 0 88 -37q37 -34 37 -88v-502q0 -262 232 -262q110 0 176 69q67 70 67 197v498q0 54 37 88
q37 37 88 37t88 -37t37 -88zM633 1208q-85 0 -144 56l-139 131q-35 30 -35 61q0 28 50 55q48 25 98 25q60 0 98 -59l117 -181q18 -27 18 -45q0 -43 -63 -43z" />
    <glyph glyph-name="uacute" unicode="&#xfa;" horiz-adv-x="1269" 
d="M621 1208q-62 0 -62 43q0 19 16 45l117 181q38 59 99 59q50 0 98 -25q49 -27 49 -55q0 -31 -35 -61l-137 -131q-59 -56 -145 -56zM1116 969v-856q0 -52 -37 -86q-37 -37 -88 -37q-50 0 -88 35q-37 37 -37 88v55q-129 -191 -338 -191q-180 0 -284 113q-101 113 -101 303
v576q0 51 37 88q34 37 86 37q54 0 88 -37q37 -34 37 -88v-502q0 -262 232 -262q110 0 176 69q67 70 67 197v498q0 54 37 88q37 37 88 37t88 -37t37 -88z" />
    <glyph glyph-name="ucircumflex" unicode="&#xfb;" horiz-adv-x="1269" 
d="M625 1356l-107 -92q-65 -56 -151 -56q-56 0 -56 41q0 13 25 49l135 170q51 60 119 60h74q70 0 118 -60l136 -170q24 -34 24 -49q0 -41 -59 -41q-84 0 -152 56zM1116 969v-856q0 -52 -37 -86q-37 -37 -88 -37q-50 0 -88 35q-37 37 -37 88v55q-129 -191 -338 -191
q-180 0 -284 113q-101 113 -101 303v576q0 51 37 88q34 37 86 37q54 0 88 -37q37 -34 37 -88v-502q0 -262 232 -262q110 0 176 69q67 70 67 197v498q0 54 37 88q37 37 88 37t88 -37t37 -88z" />
    <glyph glyph-name="udieresis" unicode="&#xfc;" horiz-adv-x="1269" 
d="M831 1475q54 0 95 -35q39 -36 39 -92v-15q0 -57 -39 -90q-41 -35 -95 -35q-55 0 -96 35q-39 33 -39 90v15q0 56 39 92q41 35 96 35zM424 1475q53 0 94 -35q39 -36 39 -92v-15q0 -57 -39 -90q-41 -35 -94 -35q-55 0 -96 35q-39 33 -39 90v15q0 56 39 92q41 35 96 35z
M1116 969v-856q0 -52 -37 -86q-37 -37 -88 -37q-50 0 -88 35q-37 37 -37 88v55q-129 -191 -338 -191q-180 0 -284 113q-101 113 -101 303v576q0 51 37 88q34 37 86 37q54 0 88 -37q37 -34 37 -88v-502q0 -262 232 -262q110 0 176 69q67 70 67 197v498q0 54 37 88
q37 37 88 37t88 -37t37 -88z" />
    <glyph glyph-name="yacute" unicode="&#xfd;" 
d="M352 -334q-93 0 -172 31q-78 28 -78 102q0 46 31 74q29 29 70 29q24 0 45 -8q52 -15 86 -15q97 0 153 115l9 22l-402 897q-14 32 -14 60q0 51 35 86t88 35q83 0 121 -95l290 -718l271 718q38 95 119 95q50 0 83 -33q35 -35 35 -84q0 -26 -10 -59l-395 -949
q-70 -166 -152 -233q-82 -70 -213 -70zM596 1208q-61 0 -61 43q0 19 16 45l117 181q38 59 98 59q50 0 98 -25q49 -27 49 -55q0 -31 -34 -61l-138 -131q-59 -56 -145 -56z" />
    <glyph glyph-name="thorn" unicode="&#xfe;" horiz-adv-x="1374" 
d="M156 -215v1597q0 54 34 88q38 35 89 35q53 0 88 -35q36 -36 36 -88v-481q144 203 369 203q200 0 346 -146q156 -156 156 -415v-4q0 -257 -156 -416q-143 -146 -346 -146q-225 0 -369 191v-383q0 -52 -36 -88q-35 -35 -88 -35q-51 0 -86 35q-37 37 -37 88zM713 193
q131 0 219 94q90 96 90 252v4q0 152 -92 252q-88 94 -217 94q-128 0 -221 -96q-95 -100 -95 -250v-4q0 -150 95 -250q93 -96 221 -96z" />
    <glyph glyph-name="ydieresis" unicode="&#xff;" 
d="M352 -334q-93 0 -172 31q-78 28 -78 102q0 46 31 74q29 29 70 29q24 0 45 -8q52 -15 86 -15q97 0 153 115l9 22l-402 897q-14 32 -14 60q0 51 35 86t88 35q83 0 121 -95l290 -718l271 718q38 95 119 95q50 0 83 -33q35 -35 35 -84q0 -26 -10 -59l-395 -949
q-70 -166 -152 -233q-82 -70 -213 -70zM807 1475q53 0 94 -35q39 -36 39 -92v-15q0 -57 -39 -90q-41 -35 -94 -35q-55 0 -96 35q-39 33 -39 90v15q0 56 39 92q41 35 96 35zM399 1475q54 0 95 -35q38 -35 38 -92v-15q0 -58 -38 -90q-41 -35 -95 -35q-55 0 -96 35
q-39 33 -39 90v15q0 56 39 92q41 35 96 35z" />
    <glyph glyph-name="Amacron" unicode="&#x100;" horiz-adv-x="1583" 
d="M86 106q0 21 16 58l533 1188q47 102 151 102h13q103 0 149 -102l533 -1188q14 -25 14 -53q0 -51 -35 -86t-84 -35q-86 0 -123 88l-116 268h-697l-121 -276q-35 -80 -116 -80q-47 0 -82 35t-35 81zM537 569h503l-252 580zM1061 1595h-545q-36 0 -63 27t-27 64q0 36 27 63
t63 27h545q36 0 63 -27t27 -63q0 -37 -27 -64t-63 -27z" />
    <glyph glyph-name="amacron" unicode="&#x101;" 
d="M467 -23q-159 0 -268 86q-115 92 -115 248v4q0 172 125 263q118 86 321 86q152 0 291 -46v27q0 236 -268 236q-133 0 -240 -43q-24 -7 -39 -7q-42 0 -73 31q-31 28 -31 72q0 71 68 98q168 64 348 64q240 0 358 -121q117 -114 117 -334v-532q0 -49 -35 -84t-86 -35
q-54 0 -88 30q-33 29 -33 74v41q-134 -158 -352 -158zM537 158q125 0 206 63q82 64 82 168v74q-110 43 -245 43q-254 0 -254 -180v-4q0 -75 61 -121q58 -43 150 -43zM874 1241h-544q-37 0 -64 27q-26 26 -26 63q0 38 26 64t64 26h544q38 0 64 -26q27 -27 27 -64
q0 -36 -27 -63t-64 -27z" />
    <glyph glyph-name="Abreve" unicode="&#x102;" horiz-adv-x="1583" 
d="M86 106q0 21 16 58l533 1188q47 102 151 102h13q103 0 149 -102l533 -1188q14 -25 14 -53q0 -51 -35 -86t-84 -35q-86 0 -123 88l-116 268h-697l-121 -276q-35 -80 -116 -80q-47 0 -82 35t-35 81zM537 569h503l-252 580zM788 1569q-221 0 -313 164q-16 37 -16 63
q0 88 86 88q51 0 78 -47q52 -94 165 -94q117 0 166 94q27 47 78 47q86 0 86 -88q0 -26 -16 -63q-92 -164 -314 -164z" />
    <glyph glyph-name="abreve" unicode="&#x103;" 
d="M467 -23q-159 0 -268 86q-115 92 -115 248v4q0 172 125 263q118 86 321 86q152 0 291 -46v27q0 236 -268 236q-133 0 -240 -43q-24 -7 -39 -7q-42 0 -73 31q-31 28 -31 72q0 71 68 98q168 64 348 64q240 0 358 -121q117 -114 117 -334v-532q0 -49 -35 -84t-86 -35
q-54 0 -88 30q-33 29 -33 74v41q-134 -158 -352 -158zM537 158q125 0 206 63q82 64 82 168v74q-110 43 -245 43q-254 0 -254 -180v-4q0 -75 61 -121q58 -43 150 -43zM602 1214q-221 0 -313 164q-17 39 -17 64q0 88 86 88q51 0 78 -47q52 -94 166 -94q117 0 166 94
q27 47 78 47q86 0 86 -88q0 -25 -17 -64q-92 -164 -313 -164z" />
    <glyph glyph-name="Aogonek" unicode="&#x104;" horiz-adv-x="1617" 
d="M102 106q0 12 17 58l532 1188q47 102 152 102h14q103 0 150 -102l534 -1192q15 -35 15 -54q0 -47 -48 -98q-77 -77 -77 -137q0 -63 90 -84q67 -15 67 -63q0 -64 -82 -64q-109 0 -180 41q-82 46 -82 131q0 86 94 184l-145 330h-696l-119 -276q-35 -80 -119 -80
q-47 0 -82 35t-35 81zM553 569h504l-252 580z" />
    <glyph glyph-name="aogonek" unicode="&#x105;" 
d="M741 -174q0 94 109 197q-31 28 -31 110v2q-134 -158 -352 -158q-159 0 -268 86q-115 92 -115 248v4q0 172 125 263q118 86 321 86q152 0 291 -46v27q0 236 -268 236q-133 0 -240 -43q-24 -7 -39 -7q-42 0 -73 31q-31 28 -31 72q0 71 68 98q168 64 348 64q240 0 358 -121
q117 -114 117 -334v-535q0 -52 -49 -98q-82 -79 -82 -139q0 -61 88 -82q67 -15 67 -63q0 -64 -81 -64q-113 0 -181 39q-82 46 -82 127zM537 158q125 0 206 63q82 64 82 168v74q-110 43 -245 43q-254 0 -254 -180v-4q0 -75 61 -121q58 -43 150 -43z" />
    <glyph glyph-name="Cacute" unicode="&#x106;" horiz-adv-x="1511" 
d="M829 1563q-61 0 -61 43q0 19 16 45l117 180q38 59 98 59q53 0 99 -24q49 -27 49 -56q0 -31 -35 -61l-137 -131q-58 -55 -146 -55zM850 -25q-311 0 -520 215q-209 212 -209 523v4q0 311 207 524q211 217 532 217q282 0 492 -162q49 -37 49 -100q0 -51 -37 -88
q-35 -35 -88 -35q-40 0 -76 25q-159 129 -342 129q-202 0 -338 -148q-135 -144 -135 -358v-4q0 -214 133 -359q137 -149 340 -149q197 0 359 137q37 29 75 29q46 0 84 -35q35 -35 35 -82q0 -52 -41 -90q-217 -193 -520 -193z" />
    <glyph glyph-name="cacute" unicode="&#x107;" horiz-adv-x="1169" 
d="M639 1208q-61 0 -61 43q0 19 16 45l117 181q38 59 98 59q50 0 98 -25q49 -27 49 -55q0 -31 -34 -61l-138 -131q-59 -56 -145 -56zM655 -25q-240 0 -399 164q-160 165 -160 396v4q0 232 160 397q162 168 403 168q223 0 379 -135q39 -33 39 -86q0 -47 -33 -80t-81 -33
q-38 0 -74 25q-112 92 -232 92q-135 0 -223 -101q-90 -104 -90 -243v-4q0 -142 90 -246q90 -100 234 -100q125 0 241 96q29 26 68 26q48 0 76 -32q30 -30 30 -76q0 -51 -34 -78q-160 -154 -394 -154z" />
    <glyph glyph-name="Cdotaccent" unicode="&#x10a;" horiz-adv-x="1511" 
d="M850 -25q-311 0 -520 215q-209 212 -209 523v4q0 311 207 524q211 217 532 217q282 0 492 -162q49 -37 49 -100q0 -51 -37 -88q-35 -35 -88 -35q-40 0 -76 25q-159 129 -342 129q-202 0 -338 -148q-135 -144 -135 -358v-4q0 -214 133 -359q137 -149 340 -149
q197 0 359 137q37 29 75 29q46 0 84 -35q35 -35 35 -82q0 -52 -41 -90q-217 -193 -520 -193zM975 1702v-14q0 -56 -41 -91q-40 -34 -98 -34q-57 0 -97 34q-41 35 -41 91v14q0 54 41 92q41 35 97 35q57 0 98 -35q41 -38 41 -92z" />
    <glyph glyph-name="cdotaccent" unicode="&#x10b;" horiz-adv-x="1169" 
d="M655 -25q-240 0 -399 164q-160 165 -160 396v4q0 232 160 397q162 168 403 168q223 0 379 -135q39 -33 39 -86q0 -47 -33 -80t-81 -33q-38 0 -74 25q-112 92 -232 92q-135 0 -223 -101q-90 -104 -90 -243v-4q0 -142 90 -246q90 -100 234 -100q125 0 241 96q29 26 68 26
q48 0 76 -32q30 -30 30 -76q0 -51 -34 -78q-160 -154 -394 -154zM784 1348v-15q0 -55 -41 -90t-98 -35q-55 0 -96 35t-41 90v15q0 54 41 92q41 35 96 35q57 0 98 -35q41 -38 41 -92z" />
    <glyph glyph-name="Ccaron" unicode="&#x10c;" horiz-adv-x="1511" 
d="M838 1737l106 92q67 55 152 55q55 0 55 -41q0 -13 -25 -49l-135 -170q-47 -59 -119 -59h-73q-69 0 -119 59l-135 170q-25 36 -25 49q0 41 60 41q87 0 151 -55zM850 -25q-311 0 -520 215q-209 212 -209 523v4q0 311 207 524q211 217 532 217q282 0 492 -162
q49 -37 49 -100q0 -51 -37 -88q-35 -35 -88 -35q-40 0 -76 25q-159 129 -342 129q-202 0 -338 -148q-135 -144 -135 -358v-4q0 -214 133 -359q137 -149 340 -149q197 0 359 137q37 29 75 29q46 0 84 -35q35 -35 35 -82q0 -52 -41 -90q-217 -193 -520 -193z" />
    <glyph glyph-name="ccaron" unicode="&#x10d;" horiz-adv-x="1169" 
d="M647 1382l107 93q67 55 151 55q56 0 56 -41q0 -13 -25 -49l-135 -170q-48 -60 -119 -60h-74q-68 0 -119 60l-135 170q-24 34 -24 49q0 41 59 41q88 0 152 -55zM655 -25q-240 0 -399 164q-160 165 -160 396v4q0 232 160 397q162 168 403 168q223 0 379 -135q39 -33 39 -86
q0 -47 -33 -80t-81 -33q-38 0 -74 25q-112 92 -232 92q-135 0 -223 -101q-90 -104 -90 -243v-4q0 -142 90 -246q90 -100 234 -100q125 0 241 96q29 26 68 26q48 0 76 -32q30 -30 30 -76q0 -51 -34 -78q-160 -154 -394 -154z" />
    <glyph glyph-name="Dcaron" unicode="&#x10e;" horiz-adv-x="1601" 
d="M774 1716l107 92q68 56 151 56q55 0 55 -41q0 -15 -24 -49l-135 -170q-48 -60 -119 -60h-74q-68 0 -119 60l-135 170q-24 34 -24 49q0 41 59 41q87 0 152 -56zM184 127v1180q0 53 37 90t90 37h408q334 0 551 -205q211 -202 211 -508v-4q0 -308 -211 -510
q-219 -207 -551 -207h-408q-53 0 -90 37t-37 90zM436 229h283q224 0 362 138q136 133 136 346v4q0 212 -136 348q-139 139 -362 139h-283v-975z" />
    <glyph glyph-name="dcaron" unicode="&#x10f;" horiz-adv-x="1374" 
d="M1333 1161l6 254q3 90 91 90h36q64 0 64 -59q0 -26 -8 -47l-76 -248q-15 -51 -60 -51q-56 0 -53 61zM1219 1382v-1269q0 -51 -37 -88q-35 -35 -86 -35q-53 0 -88 35q-37 37 -37 88v67q-144 -203 -369 -203q-200 0 -346 146q-156 159 -156 416v4q0 258 154 415
q146 146 348 146q225 0 369 -191v469q0 51 37 88q35 35 86 35q53 0 88 -35q37 -37 37 -88zM662 889q-131 0 -220 -92q-92 -95 -92 -254v-4q0 -152 92 -252q88 -94 220 -94q129 0 219 96q94 98 94 250v4q0 151 -94 252q-88 94 -219 94z" />
    <glyph glyph-name="Dcroat" unicode="&#x110;" horiz-adv-x="1662" 
d="M193 834h53v473q0 53 37 90t90 37h407q334 0 551 -205q211 -202 211 -508v-4q0 -308 -211 -510q-219 -207 -551 -207h-407q-53 0 -90 37t-37 90v481h-53q-45 0 -78 33t-33 80t33 80q29 33 78 33zM496 1204v-370h260q49 0 78 -33q32 -32 32 -80t-32 -80q-33 -33 -78 -33
h-260v-379h284q225 0 363 138q135 132 135 346v4q0 213 -135 348q-139 139 -363 139h-284z" />
    <glyph glyph-name="dcroat" unicode="&#x111;" horiz-adv-x="1374" 
d="M1219 1382v-2h77q32 0 54 -22q20 -20 20 -51q0 -74 -74 -74h-77v-1120q0 -51 -37 -88q-35 -35 -86 -35q-53 0 -88 35q-37 37 -37 88v67q-144 -203 -369 -203q-200 0 -346 146q-156 159 -156 416v4q0 258 154 415q146 146 348 146q225 0 369 -191v320h-273q-73 0 -73 74
q0 29 22 51t51 22h273v2q0 51 37 88q35 35 86 35q53 0 88 -35q37 -37 37 -88zM662 889q-131 0 -220 -92q-92 -95 -92 -254v-4q0 -152 92 -252q88 -94 220 -94q129 0 219 96q94 98 94 250v4q0 151 -94 252q-88 94 -219 94z" />
    <glyph glyph-name="Emacron" unicode="&#x112;" horiz-adv-x="1372" 
d="M1155 0h-844q-53 0 -90 37t-37 90v1180q0 53 37 90t90 37h834q47 0 80 -33q32 -32 32 -80t-32 -80q-33 -33 -80 -33h-709v-372h617q47 0 80 -33q32 -32 32 -82q0 -46 -32 -78q-33 -33 -80 -33h-617v-385h719q48 0 80 -32q33 -33 33 -80t-33 -80t-80 -33zM991 1575h-545
q-36 0 -63 27t-27 63q0 37 27 64q26 26 63 26h545q38 0 64 -26t26 -64q0 -37 -26 -63q-27 -27 -64 -27z" />
    <glyph glyph-name="emacron" unicode="&#x113;" horiz-adv-x="1236" 
d="M342 616h555q-12 127 -82 203q-73 82 -192 82q-112 0 -189 -80q-77 -77 -92 -205zM1040 119q-159 -144 -389 -144q-239 0 -395 156q-160 157 -160 406v4q0 232 148 397q150 166 381 166q243 0 387 -172q127 -154 127 -361q0 -51 -35 -86q-32 -32 -82 -32h-678
q21 -129 107 -203q84 -72 204 -72q143 0 256 94q30 23 64 23q40 0 69 -29t29 -71q0 -43 -33 -76zM893 1241h-545q-36 0 -63 27t-27 63q0 37 27 64q26 26 63 26h545q37 0 63 -26q27 -27 27 -64q0 -36 -27 -63t-63 -27z" />
    <glyph glyph-name="Ebreve" unicode="&#x114;" horiz-adv-x="1372" 
d="M1155 0h-844q-53 0 -90 37t-37 90v1180q0 53 37 90t90 37h834q47 0 80 -33q32 -32 32 -80t-32 -80q-33 -33 -80 -33h-709v-372h617q47 0 80 -33q32 -32 32 -82q0 -46 -32 -78q-33 -33 -80 -33h-617v-385h719q48 0 80 -32q33 -33 33 -80t-33 -80t-80 -33zM719 1548
q-221 0 -313 164q-17 39 -17 64q0 88 86 88q51 0 78 -47q53 -95 166 -95q116 0 166 95q27 47 78 47q86 0 86 -88q0 -25 -17 -64q-92 -164 -313 -164z" />
    <glyph glyph-name="ebreve" unicode="&#x115;" horiz-adv-x="1236" 
d="M342 616h555q-12 127 -82 203q-73 82 -192 82q-112 0 -189 -80q-77 -77 -92 -205zM1040 119q-159 -144 -389 -144q-239 0 -395 156q-160 157 -160 406v4q0 232 148 397q150 166 381 166q243 0 387 -172q127 -154 127 -361q0 -51 -35 -86q-32 -32 -82 -32h-678
q21 -129 107 -203q84 -72 204 -72q143 0 256 94q30 23 64 23q40 0 69 -29t29 -71q0 -43 -33 -76zM621 1214q-222 0 -314 164q-16 37 -16 64q0 88 86 88q51 0 78 -47q52 -94 166 -94q116 0 165 94q27 47 78 47q86 0 86 -88q0 -27 -16 -64q-92 -164 -313 -164z" />
    <glyph glyph-name="Edotaccent" unicode="&#x116;" horiz-adv-x="1372" 
d="M1155 0h-844q-53 0 -90 37t-37 90v1180q0 53 37 90t90 37h834q47 0 80 -33q32 -32 32 -80t-32 -80q-33 -33 -80 -33h-709v-372h617q47 0 80 -33q32 -32 32 -82q0 -46 -32 -78q-33 -33 -80 -33h-617v-385h719q48 0 80 -32q33 -33 33 -80t-33 -80t-80 -33zM858 1681v-14
q0 -55 -41 -90t-98 -35q-55 0 -96 35t-41 90v14q0 55 41 93q40 34 96 34q58 0 98 -34q41 -38 41 -93z" />
    <glyph glyph-name="edotaccent" unicode="&#x117;" horiz-adv-x="1236" 
d="M342 616h555q-12 127 -82 203q-73 82 -192 82q-112 0 -189 -80q-77 -77 -92 -205zM1040 119q-159 -144 -389 -144q-239 0 -395 156q-160 157 -160 406v4q0 232 148 397q150 166 381 166q243 0 387 -172q127 -154 127 -361q0 -51 -35 -86q-32 -32 -82 -32h-678
q21 -129 107 -203q84 -72 204 -72q143 0 256 94q30 23 64 23q40 0 69 -29t29 -71q0 -43 -33 -76zM760 1348v-15q0 -55 -41 -90t-98 -35q-56 0 -97 35t-41 90v15q0 54 41 92q41 35 97 35q57 0 98 -35q41 -38 41 -92z" />
    <glyph glyph-name="Eogonek" unicode="&#x118;" horiz-adv-x="1372" 
d="M1014 0h-703q-53 0 -90 37t-37 90v1180q0 53 37 90t90 37h834q47 0 80 -33q32 -32 32 -80t-32 -80q-33 -33 -80 -33h-709v-372h617q47 0 80 -33q32 -32 32 -82q0 -46 -32 -78q-33 -33 -80 -33h-617v-385h717q47 0 82 -30q33 -29 33 -74q0 -57 -64 -115q-86 -74 -86 -135
q0 -63 88 -84q70 -15 70 -63q0 -64 -82 -64q-112 0 -180 39q-84 47 -84 133q0 78 84 168z" />
    <glyph glyph-name="eogonek" unicode="&#x119;" horiz-adv-x="1236" 
d="M1139 571q0 -51 -35 -86q-32 -32 -82 -32h-678q21 -129 107 -203q84 -72 204 -72q143 0 256 94q30 23 64 23q40 0 69 -29t29 -71q0 -40 -33 -76l-88 -82q-90 -84 -90 -156q0 -73 90 -94q68 -15 68 -63q0 -64 -80 -64q-264 0 -264 176q0 70 69 148q-61 -9 -94 -9
q-239 0 -395 156q-160 157 -160 406v4q0 232 148 397q150 166 381 166q243 0 387 -172q127 -154 127 -361zM342 616h555q-12 127 -82 203q-73 82 -192 82q-112 0 -189 -80q-77 -77 -92 -205z" />
    <glyph glyph-name="Ecaron" unicode="&#x11a;" horiz-adv-x="1372" 
d="M721 1716l106 92q68 56 152 56q55 0 55 -41q0 -15 -24 -49l-136 -170q-48 -60 -118 -60h-74q-68 0 -119 60l-135 170q-25 36 -25 49q0 41 60 41q86 0 151 -56zM1155 0h-844q-53 0 -90 37t-37 90v1180q0 53 37 90t90 37h834q47 0 80 -33q32 -32 32 -80t-32 -80
q-33 -33 -80 -33h-709v-372h617q47 0 80 -33q32 -32 32 -82q0 -46 -32 -78q-33 -33 -80 -33h-617v-385h719q48 0 80 -32q33 -33 33 -80t-33 -80t-80 -33z" />
    <glyph glyph-name="ecaron" unicode="&#x11b;" horiz-adv-x="1236" 
d="M623 1382l106 93q67 55 152 55q55 0 55 -41q0 -13 -25 -49l-135 -170q-48 -60 -119 -60h-73q-68 0 -119 60l-135 170q-25 36 -25 49q0 41 60 41q87 0 151 -55zM342 616h555q-12 127 -82 203q-73 82 -192 82q-112 0 -189 -80q-77 -77 -92 -205zM1040 119
q-159 -144 -389 -144q-239 0 -395 156q-160 157 -160 406v4q0 232 148 397q150 166 381 166q243 0 387 -172q127 -154 127 -361q0 -51 -35 -86q-32 -32 -82 -32h-678q21 -129 107 -203q84 -72 204 -72q143 0 256 94q30 23 64 23q40 0 69 -29t29 -71q0 -43 -33 -76z" />
    <glyph glyph-name="Gbreve" unicode="&#x11e;" horiz-adv-x="1605" 
d="M864 -25q-330 0 -540 213q-203 206 -203 525v4q0 306 207 522q213 219 532 219q286 0 490 -145q51 -39 51 -103q0 -51 -37 -88t-88 -37q-34 0 -78 29q-152 113 -348 113q-197 0 -332 -150q-133 -148 -133 -356v-4q0 -222 133 -367q139 -145 354 -145q203 0 347 108v269
h-283q-46 0 -80 30q-33 33 -33 78t33 78t80 33h399q53 0 90 -37t37 -90v-383q0 -105 -88 -160q-234 -156 -510 -156zM844 1569q-222 0 -314 164q-16 37 -16 63q0 88 86 88q51 0 78 -47q52 -94 166 -94q117 0 166 94q27 47 77 47q87 0 87 -88q0 -24 -17 -63
q-92 -164 -313 -164z" />
    <glyph glyph-name="gbreve" unicode="&#x11f;" horiz-adv-x="1374" 
d="M637 -332q-215 0 -418 96q-69 26 -69 99q0 41 30 71q31 31 74 31q22 0 45 -10q154 -86 332 -86q342 0 342 332v84q-153 -199 -381 -199q-201 0 -340 133q-152 146 -152 373v4q0 229 152 375q142 133 340 133q226 0 379 -184v51q0 52 37 86q34 37 86 37q54 0 88 -37
q37 -34 37 -88v-748q0 -269 -138 -407q-146 -146 -444 -146zM657 297q133 0 224 82q94 85 94 215v4q0 130 -94 215q-91 82 -224 82q-132 0 -217 -82q-90 -84 -90 -215v-4q0 -131 90 -215q88 -82 217 -82zM668 1214q-222 0 -314 164q-16 37 -16 64q0 88 86 88q51 0 78 -47
q52 -94 166 -94q117 0 166 94q27 47 77 47q86 0 86 -88q0 -27 -16 -64q-92 -164 -313 -164z" />
    <glyph glyph-name="Gdotaccent" unicode="&#x120;" horiz-adv-x="1605" 
d="M864 -25q-330 0 -540 213q-203 206 -203 525v4q0 306 207 522q213 219 532 219q286 0 490 -145q51 -39 51 -103q0 -51 -37 -88t-88 -37q-34 0 -78 29q-152 113 -348 113q-197 0 -332 -150q-133 -148 -133 -356v-4q0 -222 133 -367q139 -145 354 -145q203 0 347 108v269
h-283q-46 0 -80 30q-33 33 -33 78t33 78t80 33h399q53 0 90 -37t37 -90v-383q0 -105 -88 -160q-234 -156 -510 -156zM983 1702v-14q0 -56 -41 -91q-40 -34 -98 -34q-56 0 -96 34q-41 35 -41 91v14q0 54 41 92q41 35 96 35q57 0 98 -35q41 -38 41 -92z" />
    <glyph glyph-name="gdotaccent" unicode="&#x121;" horiz-adv-x="1374" 
d="M637 -332q-215 0 -418 96q-69 26 -69 99q0 41 30 71q31 31 74 31q22 0 45 -10q154 -86 332 -86q342 0 342 332v84q-153 -199 -381 -199q-201 0 -340 133q-152 146 -152 373v4q0 229 152 375q142 133 340 133q226 0 379 -184v51q0 52 37 86q34 37 86 37q54 0 88 -37
q37 -34 37 -88v-748q0 -269 -138 -407q-146 -146 -444 -146zM657 297q133 0 224 82q94 85 94 215v4q0 130 -94 215q-91 82 -224 82q-132 0 -217 -82q-90 -84 -90 -215v-4q0 -131 90 -215q88 -82 217 -82zM807 1348v-15q0 -55 -41 -90t-98 -35q-56 0 -97 35t-41 90v15
q0 54 41 92q41 35 97 35q57 0 98 -35q41 -38 41 -92z" />
    <glyph glyph-name="uni0122" unicode="&#x122;" horiz-adv-x="1605" 
d="M825 -346q-110 18 -110 108v5q0 47 35 77q36 31 90 31q131 0 131 -143v-6q0 -146 -88 -222q-73 -67 -176 -67q-54 0 -54 43q0 34 43 43q132 27 129 131zM864 -25q-330 0 -540 213q-203 206 -203 525v4q0 306 207 522q213 219 532 219q286 0 490 -145q51 -39 51 -103
q0 -51 -37 -88t-88 -37q-34 0 -78 29q-152 113 -348 113q-197 0 -332 -150q-133 -148 -133 -356v-4q0 -222 133 -367q139 -145 354 -145q203 0 347 108v269h-283q-46 0 -80 30q-33 33 -33 78t33 78t80 33h399q53 0 90 -37t37 -90v-383q0 -105 -88 -160q-234 -156 -510 -156z
" />
    <glyph glyph-name="uni0123" unicode="&#x123;" horiz-adv-x="1374" 
d="M682 1427q111 -18 111 -108v-4q0 -48 -35 -78q-36 -31 -90 -31q-131 0 -131 144v6q0 145 88 221q74 68 176 68q53 0 53 -43q0 -34 -43 -43q-132 -27 -129 -132zM637 -332q-215 0 -418 96q-69 26 -69 99q0 41 30 71q31 31 74 31q22 0 45 -10q154 -86 332 -86
q342 0 342 332v84q-153 -199 -381 -199q-201 0 -340 133q-152 146 -152 373v4q0 229 152 375q142 133 340 133q226 0 379 -184v51q0 52 37 86q34 37 86 37q54 0 88 -37q37 -34 37 -88v-748q0 -269 -138 -407q-146 -146 -444 -146zM657 297q133 0 224 82q94 85 94 215v4
q0 130 -94 215q-91 82 -224 82q-132 0 -217 -82q-90 -84 -90 -215v-4q0 -131 90 -215q88 -82 217 -82z" />
    <glyph glyph-name="Hbar" unicode="&#x126;" horiz-adv-x="1593" 
d="M203 115v932h-68q-37 0 -63 26q-27 27 -27 62q0 36 27 63t63 27h68v94q0 54 37 88q37 37 90 37q54 0 88 -37q37 -34 37 -88v-94h684v94q0 54 37 88q37 37 88 37q53 0 90 -37q37 -34 37 -88v-94h65q37 0 64 -27q26 -26 26 -63q0 -36 -26 -62t-64 -26h-65v-932
q0 -54 -37 -88q-37 -37 -90 -37q-51 0 -88 37t-37 88v489h-684v-489q0 -51 -37 -88q-34 -37 -88 -37q-53 0 -90 37q-37 34 -37 88zM455 838h684v209h-684v-209z" />
    <glyph glyph-name="hbar" unicode="&#x127;" horiz-adv-x="1269" 
d="M156 113v1120h-78q-74 0 -74 74q0 28 23 51q22 22 51 22h78v2q0 52 34 86q37 37 89 37q51 0 88 -37q36 -33 36 -86v-2h273q31 0 53 -22q21 -21 21 -51q0 -74 -74 -74h-273v-318q133 189 338 189q181 0 285 -113q100 -109 100 -301v-577q0 -51 -34 -88q-35 -35 -88 -35
q-54 0 -89 35q-36 36 -36 88v501q0 265 -232 265q-107 0 -176 -72q-68 -71 -68 -197v-497q0 -52 -36 -88q-35 -35 -88 -35q-51 0 -86 35q-37 37 -37 88z" />
    <glyph glyph-name="Itilde" unicode="&#x128;" horiz-adv-x="649" 
d="M199 115v1204q0 54 37 88q37 37 90 37q54 0 88 -37q37 -34 37 -88v-1204q0 -51 -37 -88q-34 -37 -88 -37q-53 0 -90 37q-37 34 -37 88zM94 1587q-27 -41 -67 -41q-33 0 -54 21q-22 22 -22 47q0 23 8 47q67 186 209 186q59 0 162 -41t133 -41q59 0 94 66q27 41 68 41
q32 0 53 -21q22 -22 22 -47q0 -23 -8 -47q-67 -186 -209 -186q-58 0 -161 41t-134 41q-59 0 -94 -66z" />
    <glyph glyph-name="itilde" unicode="&#x129;" horiz-adv-x="585" 
d="M170 113v856q0 53 35 88q37 37 88 37q54 0 88 -37q37 -34 37 -88v-856q0 -51 -37 -88q-35 -35 -88 -35q-51 0 -86 35q-37 37 -37 88zM63 1235q-27 -41 -67 -41q-33 0 -53 20q-23 23 -23 48q0 23 8 47q67 186 209 186q59 0 162 -41t133 -41q59 0 94 66q27 41 68 41
q32 0 53 -21q23 -23 23 -47q0 -23 -8 -47q-67 -186 -209 -186q-59 0 -162 41q-101 40 -133 40q-60 0 -95 -65z" />
    <glyph glyph-name="Imacron" unicode="&#x12a;" horiz-adv-x="649" 
d="M199 115v1204q0 54 37 88q37 37 90 37q54 0 88 -37q37 -34 37 -88v-1204q0 -51 -37 -88q-34 -37 -88 -37q-53 0 -90 37q-37 34 -37 88zM598 1575h-545q-36 0 -63 27t-27 63q0 37 27 64q26 26 63 26h545q38 0 64 -26t26 -64q0 -37 -26 -63q-27 -27 -64 -27z" />
    <glyph glyph-name="imacron" unicode="&#x12b;" horiz-adv-x="585" 
d="M170 113v856q0 53 35 88q37 37 88 37q54 0 88 -37q37 -34 37 -88v-856q0 -51 -37 -88q-35 -35 -88 -35q-51 0 -86 35q-37 37 -37 88zM565 1241h-545q-36 0 -63 27t-27 63q0 37 27 64q26 26 63 26h545q38 0 64 -26t26 -64q0 -37 -26 -63q-27 -27 -64 -27z" />
    <glyph glyph-name="Ibreve" unicode="&#x12c;" horiz-adv-x="649" 
d="M199 115v1204q0 54 37 88q37 37 90 37q54 0 88 -37q37 -34 37 -88v-1204q0 -51 -37 -88q-34 -37 -88 -37q-53 0 -90 37q-37 34 -37 88zM326 1548q-222 0 -314 164q-16 37 -16 64q0 88 86 88q51 0 78 -47q53 -95 166 -95q116 0 166 95q27 47 77 47q86 0 86 -88
q0 -27 -16 -64q-92 -164 -313 -164z" />
    <glyph glyph-name="ibreve" unicode="&#x12d;" horiz-adv-x="585" 
d="M170 113v856q0 53 35 88q37 37 88 37q54 0 88 -37q37 -34 37 -88v-856q0 -51 -37 -88q-35 -35 -88 -35q-51 0 -86 35q-37 37 -37 88zM293 1214q-221 0 -313 164q-17 39 -17 64q0 88 86 88q51 0 78 -47q52 -94 166 -94q117 0 166 94q27 47 78 47q86 0 86 -88
q0 -25 -17 -64q-92 -164 -313 -164z" />
    <glyph glyph-name="Iogonek" unicode="&#x12e;" horiz-adv-x="649" 
d="M137 -168q0 86 99 191q-37 34 -37 83v1213q0 54 37 88q37 37 90 37q54 0 88 -37q37 -34 37 -88v-1206q0 -55 -48 -103q-79 -82 -79 -139q0 -63 90 -84q69 -15 69 -63q0 -64 -82 -64q-111 0 -182 41q-82 46 -82 131z" />
    <glyph glyph-name="iogonek" unicode="&#x12f;" horiz-adv-x="585" 
d="M418 969v-863q0 -52 -49 -98q-82 -79 -82 -139q0 -61 88 -82q67 -15 67 -63q0 -64 -82 -64q-112 0 -180 39q-82 46 -82 127q0 97 109 197q-37 34 -37 81v865q0 53 35 88q37 37 88 37q54 0 88 -37q37 -34 37 -88zM152 1360v12q0 53 41 88q39 33 100 33t100 -33
q41 -35 41 -88v-12q0 -53 -41 -88t-100 -35t-100 35t-41 88z" />
    <glyph glyph-name="Idotaccent" unicode="&#x130;" horiz-adv-x="649" 
d="M199 115v1204q0 54 37 88q37 37 90 37q54 0 88 -37q37 -34 37 -88v-1204q0 -51 -37 -88q-34 -37 -88 -37q-53 0 -90 37q-37 34 -37 88zM465 1681v-14q0 -55 -41 -90t-98 -35q-56 0 -97 35t-41 90v14q0 55 41 93q40 34 97 34q58 0 98 -34q41 -38 41 -93z" />
    <glyph glyph-name="dotlessi" unicode="&#x131;" horiz-adv-x="585" 
d="M170 113v856q0 53 35 88q37 37 88 37q54 0 88 -37q37 -34 37 -88v-856q0 -51 -37 -88q-35 -35 -88 -35q-51 0 -86 35q-37 37 -37 88z" />
    <glyph glyph-name="uni0136" unicode="&#x136;" horiz-adv-x="1460" 
d="M729 -330q-111 18 -111 109v4q0 48 35 78t90 30q131 0 131 -143v-6q0 -145 -88 -221q-74 -68 -176 -68q-53 0 -53 43q0 34 43 43q132 27 129 131zM184 115v1204q0 54 37 88q37 37 90 37q54 0 88 -37q37 -34 37 -88v-606l680 684q44 47 105 47q49 0 84 -35q32 -32 32 -82
q0 -55 -45 -94l-446 -430l483 -600q35 -47 35 -90q0 -51 -37 -88q-38 -35 -90 -35q-60 0 -107 59l-460 588l-234 -225v-297q0 -51 -37 -88q-34 -37 -88 -37q-53 0 -90 37q-37 34 -37 88z" />
    <glyph glyph-name="uni0137" unicode="&#x137;" horiz-adv-x="1187" 
d="M604 -340q-110 18 -110 109v4q0 47 34 77q36 31 90 31q132 0 132 -143v-6q0 -145 -88 -221q-74 -68 -177 -68q-53 0 -53 43q0 34 43 43q132 27 129 131zM156 113v1269q0 52 34 86q37 37 89 37q51 0 88 -37q36 -33 36 -86v-798l465 456q54 54 107 54q45 0 80 -35
q28 -31 28 -78q0 -52 -55 -104l-287 -265l328 -428q33 -44 33 -82q0 -47 -35 -82q-35 -30 -82 -30q-65 0 -108 55l-310 412l-164 -156v-188q0 -52 -36 -88q-35 -35 -88 -35q-51 0 -86 35q-37 37 -37 88z" />
    <glyph glyph-name="Lacute" unicode="&#x139;" horiz-adv-x="1267" 
d="M346 1542q-61 0 -61 43q0 19 16 45l117 180q38 60 98 60q50 0 98 -25q50 -27 50 -55q0 -31 -35 -61l-137 -132q-58 -55 -146 -55zM184 127v1192q0 54 37 88q37 37 90 37q54 0 88 -37q37 -34 37 -88v-1090h649q50 0 82 -32q33 -33 33 -82t-33 -82t-82 -33h-774
q-53 0 -90 37t-37 90z" />
    <glyph glyph-name="lacute" unicode="&#x13a;" horiz-adv-x="585" 
d="M289 1577q-62 0 -62 43q0 18 17 45l116 180q38 60 99 60q50 0 98 -25q49 -27 49 -55q0 -32 -35 -62l-137 -131q-58 -55 -145 -55zM170 113v1269q0 51 35 86q37 37 88 37t88 -37q37 -34 37 -86v-1269q0 -51 -37 -88q-35 -35 -88 -35q-51 0 -86 35q-37 37 -37 88z" />
    <glyph glyph-name="uni013B" unicode="&#x13b;" horiz-adv-x="1267" 
d="M666 -340q-111 18 -111 109v4q0 47 35 77q36 31 90 31q131 0 131 -143v-6q0 -145 -88 -221q-74 -68 -176 -68q-53 0 -53 43q0 34 43 43q132 27 129 131zM184 127v1192q0 54 37 88q37 37 90 37q54 0 88 -37q37 -34 37 -88v-1090h649q50 0 82 -32q33 -33 33 -82t-33 -82
t-82 -33h-774q-53 0 -90 37t-37 90z" />
    <glyph glyph-name="uni013C" unicode="&#x13c;" horiz-adv-x="585" 
d="M276 -340q-110 18 -110 109v4q0 47 35 77q36 31 90 31q131 0 131 -143v-6q0 -145 -88 -221q-74 -68 -176 -68q-54 0 -54 43q0 34 43 43q132 27 129 131zM170 113v1269q0 51 35 86q37 37 88 37t88 -37q37 -34 37 -86v-1269q0 -51 -37 -88q-35 -35 -88 -35q-51 0 -86 35
q-37 37 -37 88z" />
    <glyph glyph-name="Lcaron" unicode="&#x13d;" horiz-adv-x="1267" 
d="M608 1094l6 254q3 90 91 90h36q64 0 64 -60q0 -26 -8 -47l-76 -248q-15 -51 -59 -51q-57 0 -54 62zM184 127v1192q0 54 37 88q37 37 90 37q54 0 88 -37q37 -34 37 -88v-1090h649q50 0 82 -32q33 -33 33 -82t-33 -82t-82 -33h-774q-53 0 -90 37t-37 90z" />
    <glyph glyph-name="lcaron" unicode="&#x13e;" horiz-adv-x="585" 
d="M532 1161l7 254q3 90 90 90h37q63 0 63 -59q0 -26 -8 -47l-76 -248q-15 -51 -59 -51q-57 0 -54 61zM170 113v1269q0 51 35 86q37 37 88 37t88 -37q37 -34 37 -86v-1269q0 -51 -37 -88q-35 -35 -88 -35q-51 0 -86 35q-37 37 -37 88z" />
    <glyph glyph-name="Ldot" unicode="&#x13f;" horiz-adv-x="1267" 
d="M184 127v1192q0 54 37 88q37 37 90 37q54 0 88 -37q37 -34 37 -88v-1090h649q50 0 82 -32q33 -33 33 -82t-33 -82t-82 -33h-774q-53 0 -90 37t-37 90zM1112 780v-14q0 -55 -41 -90t-98 -35q-55 0 -96 35t-41 90v14q0 54 41 92q41 35 96 35q57 0 98 -35q41 -38 41 -92z
" />
    <glyph glyph-name="ldot" unicode="&#x140;" horiz-adv-x="751" 
d="M782 778v-22q0 -46 -30 -80q-33 -33 -82 -33q-51 0 -80 33q-33 33 -33 80v22q0 47 33 80q29 33 80 33q49 0 82 -33q30 -35 30 -80zM170 113v1269q0 51 35 86q37 37 88 37t88 -37q37 -34 37 -86v-1269q0 -51 -37 -88q-35 -35 -88 -35q-51 0 -86 35q-37 37 -37 88z" />
    <glyph glyph-name="Lslash" unicode="&#x141;" horiz-adv-x="1329" 
d="M840 750l-344 -105v-416h651q50 0 82 -32q33 -33 33 -82t-33 -82t-82 -33h-774q-53 0 -90 37t-37 90v442l-13 -4l-40 -6q-47 0 -80 33q-31 36 -31 82q0 82 80 106l84 25v514q0 54 37 88q37 37 88 37q54 0 88 -37q37 -34 37 -88v-438l272 82q21 6 41 6q45 0 78 -33t33 -80
q0 -85 -80 -106z" />
    <glyph glyph-name="lslash" unicode="&#x142;" horiz-adv-x="708" 
d="M567 709l-90 -29v-567q0 -50 -35 -88q-35 -35 -88 -35q-51 0 -86 35q-37 37 -37 88v493l-18 -4q-21 -6 -41 -6q-47 0 -80 33q-31 36 -31 80q0 82 80 106l90 27v540q0 51 35 86q37 37 88 37t88 -37q35 -35 35 -86v-467l19 7q21 6 41 6q46 0 79 -33q31 -36 31 -80
q0 -85 -80 -106z" />
    <glyph glyph-name="Nacute" unicode="&#x143;" horiz-adv-x="1617" 
d="M801 1542q-62 0 -62 43q0 18 17 45l116 180q38 60 99 60q50 0 98 -25q49 -27 49 -55q0 -31 -35 -61l-137 -132q-58 -55 -145 -55zM184 113v1202q0 53 37 90t90 37h27q72 0 131 -74l717 -928v881q0 52 37 86q34 37 86 37q51 0 88 -37q37 -34 37 -86v-1204q0 -53 -35 -88
q-37 -37 -88 -37h-11q-73 0 -131 76l-737 954v-909q0 -52 -37 -86q-34 -37 -86 -37q-51 0 -88 37q-37 34 -37 86z" />
    <glyph glyph-name="nacute" unicode="&#x144;" horiz-adv-x="1269" 
d="M633 1208q-62 0 -62 43q0 18 17 45l117 181q38 59 98 59q50 0 98 -25q49 -27 49 -55q0 -31 -35 -61l-137 -131q-59 -56 -145 -56zM156 113v856q0 54 34 88q37 37 89 37q54 0 88 -37q36 -33 36 -88v-54q133 189 338 189q181 0 285 -113q100 -109 100 -301v-577
q0 -51 -34 -88q-35 -35 -88 -35q-54 0 -89 35q-36 36 -36 88v501q0 265 -232 265q-107 0 -176 -72q-68 -71 -68 -197v-497q0 -52 -36 -88q-35 -35 -88 -35q-51 0 -86 35q-37 37 -37 88z" />
    <glyph glyph-name="uni0145" unicode="&#x145;" horiz-adv-x="1617" 
d="M791 -330q-111 18 -111 109v4q0 48 35 78t90 30q131 0 131 -143v-6q0 -145 -88 -221q-74 -68 -176 -68q-54 0 -54 43q0 34 44 43q132 27 129 131zM184 113v1202q0 53 37 90t90 37h27q72 0 131 -74l717 -928v881q0 52 37 86q34 37 86 37q51 0 88 -37q37 -34 37 -86v-1204
q0 -53 -35 -88q-37 -37 -88 -37h-11q-73 0 -131 76l-737 954v-909q0 -52 -37 -86q-34 -37 -86 -37q-51 0 -88 37q-37 34 -37 86z" />
    <glyph glyph-name="uni0146" unicode="&#x146;" horiz-adv-x="1269" 
d="M623 -340q-111 18 -111 109v4q0 47 35 77q36 31 90 31q131 0 131 -143v-6q0 -145 -88 -221q-74 -68 -176 -68q-53 0 -53 43q0 34 43 43q132 27 129 131zM156 113v856q0 54 34 88q37 37 89 37q54 0 88 -37q36 -33 36 -88v-54q133 189 338 189q181 0 285 -113
q100 -109 100 -301v-577q0 -51 -34 -88q-35 -35 -88 -35q-54 0 -89 35q-36 36 -36 88v501q0 265 -232 265q-107 0 -176 -72q-68 -71 -68 -197v-497q0 -52 -36 -88q-35 -35 -88 -35q-51 0 -86 35q-37 37 -37 88z" />
    <glyph glyph-name="Ncaron" unicode="&#x147;" horiz-adv-x="1617" 
d="M811 1716l107 92q68 56 151 56q55 0 55 -41q0 -15 -24 -49l-135 -170q-48 -60 -119 -60h-74q-68 0 -119 60l-135 170q-24 34 -24 49q0 41 59 41q87 0 152 -56zM184 113v1202q0 53 37 90t90 37h27q72 0 131 -74l717 -928v881q0 52 37 86q34 37 86 37q51 0 88 -37
q37 -34 37 -86v-1204q0 -53 -35 -88q-37 -37 -88 -37h-11q-73 0 -131 76l-737 954v-909q0 -52 -37 -86q-34 -37 -86 -37q-51 0 -88 37q-37 34 -37 86z" />
    <glyph glyph-name="ncaron" unicode="&#x148;" horiz-adv-x="1269" 
d="M641 1382l107 93q67 55 151 55q55 0 55 -41q0 -15 -24 -49l-135 -170q-48 -60 -119 -60h-74q-68 0 -119 60l-135 170q-24 34 -24 49q0 41 59 41q88 0 152 -55zM156 113v856q0 54 34 88q37 37 89 37q54 0 88 -37q36 -33 36 -88v-54q133 189 338 189q181 0 285 -113
q100 -109 100 -301v-577q0 -51 -34 -88q-35 -35 -88 -35q-54 0 -89 35q-36 36 -36 88v501q0 265 -232 265q-107 0 -176 -72q-68 -71 -68 -197v-497q0 -52 -36 -88q-35 -35 -88 -35q-51 0 -86 35q-37 37 -37 88z" />
    <glyph glyph-name="Omacron" unicode="&#x14c;" horiz-adv-x="1740" 
d="M1143 1595h-545q-36 0 -63 27t-27 64q0 36 27 63t63 27h545q36 0 63 -27t27 -63q0 -37 -27 -64t-63 -27zM868 -25q-326 0 -538 218q-209 212 -209 520v4q0 308 211 522q216 219 540 219q328 0 539 -217q209 -212 209 -520v-4q0 -308 -211 -522q-217 -220 -541 -220z
M872 209q211 0 349 147q135 144 135 357v4q0 214 -137 360q-138 150 -351 150q-209 0 -348 -148q-135 -144 -135 -358v-4q0 -216 137 -359q137 -149 350 -149z" />
    <glyph glyph-name="omacron" unicode="&#x14d;" horiz-adv-x="1345" 
d="M944 1241h-545q-36 0 -63 27t-27 63q0 37 27 64q26 26 63 26h545q38 0 64 -26t26 -64q0 -37 -26 -63q-27 -27 -64 -27zM670 -25q-246 0 -410 164t-164 396v4q0 235 164 399q169 166 414 166q244 0 411 -164q164 -164 164 -397v-4q0 -234 -164 -398q-169 -166 -415 -166z
M674 193q149 0 239 100q88 98 88 242v4q0 142 -92 245q-95 103 -239 103q-147 0 -238 -101q-88 -98 -88 -243v-4q0 -141 92 -244q94 -102 238 -102z" />
    <glyph glyph-name="Obreve" unicode="&#x14e;" horiz-adv-x="1740" 
d="M868 -25q-326 0 -538 218q-209 212 -209 520v4q0 308 211 522q216 219 540 219q328 0 539 -217q209 -212 209 -520v-4q0 -308 -211 -522q-217 -220 -541 -220zM872 209q211 0 349 147q135 144 135 357v4q0 214 -137 360q-138 150 -351 150q-209 0 -348 -148
q-135 -144 -135 -358v-4q0 -216 137 -359q137 -149 350 -149zM870 1569q-221 0 -313 164q-16 37 -16 63q0 88 86 88q51 0 78 -47q52 -94 165 -94q117 0 166 94q27 47 78 47q86 0 86 -88q0 -26 -16 -63q-92 -164 -314 -164z" />
    <glyph glyph-name="obreve" unicode="&#x14f;" horiz-adv-x="1345" 
d="M670 -25q-246 0 -410 164t-164 396v4q0 235 164 399q169 166 414 166q244 0 411 -164q164 -164 164 -397v-4q0 -234 -164 -398q-169 -166 -415 -166zM674 193q149 0 239 100q88 98 88 242v4q0 142 -92 245q-95 103 -239 103q-147 0 -238 -101q-88 -98 -88 -243v-4
q0 -141 92 -244q94 -102 238 -102zM672 1214q-222 0 -314 164q-16 37 -16 64q0 88 86 88q51 0 78 -47q52 -94 166 -94q117 0 166 94q27 47 77 47q86 0 86 -88q0 -27 -16 -64q-92 -164 -313 -164z" />
    <glyph glyph-name="Ohungarumlaut" unicode="&#x150;" horiz-adv-x="1740" 
d="M1030 1563q-59 0 -59 43q0 19 16 45l119 180q35 59 94 59q50 0 96 -24q47 -24 47 -54q0 -29 -34 -63l-138 -131q-58 -55 -141 -55zM655 1563q-59 0 -59 43q0 19 16 45l119 180q35 59 94 59q51 0 97 -24q47 -24 47 -54q0 -28 -35 -63l-137 -131q-58 -55 -142 -55zM868 -25
q-326 0 -538 218q-209 212 -209 520v4q0 308 211 522q216 219 540 219q328 0 539 -217q209 -212 209 -520v-4q0 -308 -211 -522q-217 -220 -541 -220zM872 209q211 0 349 147q135 144 135 357v4q0 214 -137 360q-138 150 -351 150q-209 0 -348 -148q-135 -144 -135 -358v-4
q0 -216 137 -359q137 -149 350 -149z" />
    <glyph glyph-name="ohungarumlaut" unicode="&#x151;" horiz-adv-x="1345" 
d="M834 1208q-60 0 -60 43q0 18 17 45l118 181q35 59 95 59q48 0 96 -25q47 -24 47 -53q0 -28 -35 -63l-137 -131q-59 -56 -141 -56zM459 1208q-60 0 -60 43q0 18 17 45l119 181q35 59 94 59q48 0 96 -25q47 -24 47 -53q0 -28 -35 -63l-137 -131q-59 -56 -141 -56zM670 -25
q-246 0 -410 164t-164 396v4q0 235 164 399q169 166 414 166q244 0 411 -164q164 -164 164 -397v-4q0 -234 -164 -398q-169 -166 -415 -166zM674 193q149 0 239 100q88 98 88 242v4q0 142 -92 245q-95 103 -239 103q-147 0 -238 -101q-88 -98 -88 -243v-4q0 -141 92 -244
q94 -102 238 -102z" />
    <glyph glyph-name="OE" unicode="&#x152;" horiz-adv-x="2248" 
d="M2032 0h-1149q-338 0 -549 205q-213 201 -213 508v4q0 306 213 510q216 207 549 207h1138q49 0 82 -33t33 -80t-33 -80t-82 -33h-663v-372h571q49 0 82 -33t33 -82q0 -45 -33 -78t-82 -33h-571v-385h674q50 0 82 -32t32 -80t-32 -80q-33 -33 -82 -33zM883 229h223v975
h-223q-226 0 -363 -137q-135 -132 -135 -346v-4q0 -213 135 -348q140 -140 363 -140z" />
    <glyph glyph-name="oe" unicode="&#x153;" horiz-adv-x="2129" 
d="M1233 616h557q-15 127 -82 203q-73 82 -192 82q-114 0 -191 -80q-77 -77 -92 -205zM668 193q146 0 233 100q86 100 86 242v4q0 141 -90 245q-95 103 -233 103q-142 0 -234 -103q-86 -100 -86 -241v-4q0 -141 92 -244q92 -102 232 -102zM1931 119q-159 -144 -387 -144
q-290 0 -446 228q-156 -228 -441 -228q-233 0 -397 164t-164 396v4q0 233 166 399t406 166q283 0 432 -223q149 223 418 223q241 0 385 -172q127 -154 127 -361q0 -53 -33 -86q-32 -32 -84 -32h-678q21 -130 106 -203q84 -72 205 -72q143 0 256 94q30 23 64 23q98 0 98 -100
q0 -50 -33 -76z" />
    <glyph glyph-name="Racute" unicode="&#x154;" horiz-adv-x="1480" 
d="M184 115v1192q0 53 37 90t90 37h512q267 0 414 -144q119 -122 119 -309v-4q0 -326 -326 -428l275 -346q41 -53 41 -97q0 -49 -37 -83q-36 -33 -84 -33q-73 0 -123 65l-348 445h-318v-385q0 -51 -37 -88q-34 -37 -88 -37q-53 0 -90 37q-37 34 -37 88zM436 723h369
q135 0 215 65t80 175v4q0 237 -297 237h-367v-481zM748 1542q-62 0 -62 43q0 19 16 45l117 180q38 60 99 60q50 0 98 -25q49 -27 49 -55q0 -31 -35 -61l-137 -132q-58 -55 -145 -55z" />
    <glyph glyph-name="racute" unicode="&#x155;" horiz-adv-x="845" 
d="M451 1208q-62 0 -62 43q0 18 17 45l116 181q38 59 99 59q50 0 98 -25q49 -27 49 -55q0 -31 -35 -61l-137 -131q-59 -56 -145 -56zM156 113v856q0 54 34 88q37 37 89 37q54 0 88 -37q36 -33 36 -88v-111q102 238 273 238q123 0 123 -123q0 -101 -99 -119
q-297 -52 -297 -422v-319q0 -53 -36 -86q-37 -37 -88 -37t-86 35q-37 37 -37 88z" />
    <glyph glyph-name="uni0156" unicode="&#x156;" horiz-adv-x="1480" 
d="M184 115v1192q0 53 37 90t90 37h512q267 0 414 -144q119 -122 119 -309v-4q0 -326 -326 -428l275 -346q41 -53 41 -97q0 -49 -37 -83q-36 -33 -84 -33q-73 0 -123 65l-348 445h-318v-385q0 -51 -37 -88q-34 -37 -88 -37q-53 0 -90 37q-37 34 -37 88zM436 723h369
q135 0 215 65t80 175v4q0 237 -297 237h-367v-481zM737 -330q-110 18 -110 109v4q0 48 35 78q34 30 90 30q131 0 131 -143v-6q0 -145 -88 -221q-74 -68 -177 -68q-53 0 -53 43q0 34 43 43q132 27 129 131z" />
    <glyph glyph-name="uni0157" unicode="&#x157;" horiz-adv-x="845" 
d="M276 -340q-110 18 -110 109v4q0 47 35 77q36 31 90 31q131 0 131 -143v-6q0 -145 -88 -221q-74 -68 -176 -68q-54 0 -54 43q0 34 43 43q132 27 129 131zM156 113v856q0 54 34 88q37 37 89 37q54 0 88 -37q36 -33 36 -88v-111q102 238 273 238q123 0 123 -123
q0 -101 -99 -119q-297 -52 -297 -422v-319q0 -53 -36 -86q-37 -37 -88 -37t-86 35q-37 37 -37 88z" />
    <glyph glyph-name="Rcaron" unicode="&#x158;" horiz-adv-x="1480" 
d="M184 115v1192q0 53 37 90t90 37h512q267 0 414 -144q119 -122 119 -309v-4q0 -326 -326 -428l275 -346q41 -53 41 -97q0 -49 -37 -83q-36 -33 -84 -33q-73 0 -123 65l-348 445h-318v-385q0 -51 -37 -88q-34 -37 -88 -37q-53 0 -90 37q-37 34 -37 88zM436 723h369
q135 0 215 65t80 175v4q0 237 -297 237h-367v-481zM756 1716l106 92q68 56 152 56q55 0 55 -41q0 -13 -25 -49l-135 -170q-48 -60 -118 -60h-74q-68 0 -119 60l-135 170q-25 36 -25 49q0 41 60 41q86 0 151 -56z" />
    <glyph glyph-name="rcaron" unicode="&#x159;" horiz-adv-x="845" 
d="M461 1382l106 93q67 55 152 55q55 0 55 -41q0 -15 -24 -49l-136 -170q-48 -60 -118 -60h-74q-68 0 -119 60l-135 170q-25 36 -25 49q0 41 60 41q87 0 151 -55zM156 113v856q0 54 34 88q37 37 89 37q54 0 88 -37q36 -33 36 -88v-111q102 238 273 238q123 0 123 -123
q0 -101 -99 -119q-297 -52 -297 -422v-319q0 -53 -36 -86q-37 -37 -88 -37t-86 35q-37 37 -37 88z" />
    <glyph glyph-name="Sacute" unicode="&#x15a;" horiz-adv-x="1310" 
d="M659 1563q-61 0 -61 43q0 19 16 45l117 180q38 59 98 59q53 0 99 -24q49 -27 49 -56q0 -31 -35 -61l-137 -131q-58 -55 -146 -55zM686 -20q-298 0 -539 180q-49 34 -49 96q0 49 35 84q33 33 84 33q41 0 74 -23q187 -147 401 -147q119 0 187 51q67 49 67 129v4
q0 79 -61 125q-67 47 -262 94q-252 62 -353 144q-125 98 -125 284v4q0 184 138 301q139 115 352 115q254 0 455 -133q55 -30 55 -100q0 -47 -35 -82t-84 -35q-35 0 -65 18q-171 109 -330 109q-108 0 -172 -49q-62 -47 -62 -121v-4q0 -82 68 -129q74 -49 274 -97
q236 -58 344 -147q115 -103 115 -272v-4q0 -200 -143 -316q-136 -112 -369 -112z" />
    <glyph glyph-name="sacute" unicode="&#x15b;" horiz-adv-x="1026" 
d="M512 1208q-61 0 -61 43q0 19 16 45l117 181q38 59 98 59q50 0 98 -25q49 -27 49 -55q0 -31 -34 -61l-138 -131q-59 -56 -145 -56zM526 -20q-223 0 -411 129q-47 24 -47 86q0 40 28 71q29 29 72 29q31 0 53 -14q156 -105 311 -105q168 0 168 117v4q0 55 -73 92
q-49 23 -168 60q-159 44 -230 98q-108 79 -108 219v4q0 152 112 242q107 88 273 88q174 0 340 -88q59 -30 59 -94q0 -44 -28 -72q-32 -29 -74 -29q-25 0 -49 12q-145 74 -254 74q-152 0 -152 -106v-4q0 -52 74 -93q43 -19 170 -61q336 -105 336 -315v-5q0 -165 -117 -256
q-109 -83 -285 -83z" />
    <glyph glyph-name="Scedilla" unicode="&#x15e;" horiz-adv-x="1310" 
d="M1198 412v-4q0 -180 -119 -293q-116 -110 -313 -131l-109 -252q-25 -60 -79 -60q-38 0 -91 29q-53 30 -53 61q0 24 17 48l120 178q-235 27 -424 172q-49 34 -49 96q0 49 35 84q33 33 84 33q41 0 74 -23q187 -147 401 -147q119 0 187 51q67 49 67 129v4q0 79 -61 125
q-67 47 -262 94q-252 62 -353 144q-125 98 -125 284v4q0 184 138 301q139 115 352 115q254 0 455 -133q55 -30 55 -100q0 -47 -35 -82t-84 -35q-35 0 -65 18q-171 109 -330 109q-108 0 -172 -49q-62 -47 -62 -121v-4q0 -82 68 -129q74 -49 274 -97q236 -58 344 -147
q115 -103 115 -272z" />
    <glyph glyph-name="scedilla" unicode="&#x15f;" horiz-adv-x="1026" 
d="M928 324v-5q0 -146 -92 -235q-88 -82 -236 -100l-108 -252q-25 -60 -80 -60q-37 0 -90 29q-54 31 -54 61q0 24 17 48l123 180q-154 24 -293 119q-47 24 -47 86q0 40 28 71q29 29 72 29q31 0 53 -14q156 -105 311 -105q168 0 168 117v4q0 55 -73 92q-49 23 -168 60
q-159 44 -230 98q-108 79 -108 219v4q0 152 112 242q107 88 273 88q174 0 340 -88q59 -30 59 -94q0 -44 -28 -72q-32 -29 -74 -29q-25 0 -49 12q-145 74 -254 74q-152 0 -152 -106v-4q0 -52 74 -93q43 -19 170 -61q336 -105 336 -315z" />
    <glyph glyph-name="Scaron" unicode="&#x160;" horiz-adv-x="1310" 
d="M668 1737l106 92q67 55 152 55q55 0 55 -41q0 -13 -25 -49l-135 -170q-47 -59 -119 -59h-73q-69 0 -119 59l-135 170q-25 36 -25 49q0 41 60 41q87 0 151 -55zM686 -20q-298 0 -539 180q-49 34 -49 96q0 49 35 84q33 33 84 33q41 0 74 -23q187 -147 401 -147
q119 0 187 51q67 49 67 129v4q0 79 -61 125q-67 47 -262 94q-252 62 -353 144q-125 98 -125 284v4q0 184 138 301q139 115 352 115q254 0 455 -133q55 -30 55 -100q0 -47 -35 -82t-84 -35q-35 0 -65 18q-171 109 -330 109q-108 0 -172 -49q-62 -47 -62 -121v-4
q0 -82 68 -129q74 -49 274 -97q236 -58 344 -147q115 -103 115 -272v-4q0 -200 -143 -316q-136 -112 -369 -112z" />
    <glyph glyph-name="scaron" unicode="&#x161;" horiz-adv-x="1026" 
d="M520 1382l107 93q67 55 151 55q56 0 56 -41q0 -13 -25 -49l-135 -170q-48 -60 -119 -60h-74q-68 0 -119 60l-135 170q-24 34 -24 49q0 41 59 41q88 0 152 -55zM526 -20q-223 0 -411 129q-47 24 -47 86q0 40 28 71q29 29 72 29q31 0 53 -14q156 -105 311 -105
q168 0 168 117v4q0 55 -73 92q-49 23 -168 60q-159 44 -230 98q-108 79 -108 219v4q0 152 112 242q107 88 273 88q174 0 340 -88q59 -30 59 -94q0 -44 -28 -72q-32 -29 -74 -29q-25 0 -49 12q-145 74 -254 74q-152 0 -152 -106v-4q0 -52 74 -93q43 -19 170 -61
q336 -105 336 -315v-5q0 -165 -117 -256q-109 -83 -285 -83z" />
    <glyph glyph-name="uni0162" unicode="&#x162;" horiz-adv-x="1327" 
d="M645 -340q-110 18 -110 109v4q0 47 34 77q36 31 90 31q132 0 132 -143v-6q0 -144 -89 -221q-74 -68 -176 -68q-53 0 -53 43q0 34 43 43q132 27 129 131zM537 115v1085h-349q-47 0 -82 35q-34 34 -34 82t34 82q35 35 82 35h953q47 0 82 -35q32 -32 32 -82t-32 -82
q-35 -35 -82 -35h-350v-1085q0 -51 -37 -88t-90 -37q-54 0 -91 37q-36 36 -36 88z" />
    <glyph glyph-name="uni0163" unicode="&#x163;" horiz-adv-x="841" 
d="M440 -340q-110 18 -110 109v4q0 47 35 77q36 31 90 31q131 0 131 -143v-6q0 -145 -88 -221q-74 -68 -176 -68q-54 0 -54 43q0 34 43 43q132 27 129 131zM518 -18q-311 0 -311 317v569h-41q-45 0 -76 31t-31 76t31 76q30 30 76 30h41v185q0 52 37 86q37 37 88 37
q52 0 86 -37q37 -34 37 -86v-185h194q46 0 76 -30q33 -29 33 -76t-33 -76q-31 -31 -76 -31h-194v-530q0 -135 133 -135q11 0 39 4l22 2q42 0 74 -29q31 -31 31 -74q0 -68 -66 -96q-86 -28 -170 -28z" />
    <glyph glyph-name="Tcaron" unicode="&#x164;" horiz-adv-x="1327" 
d="M666 1716l106 92q68 56 152 56q55 0 55 -41q0 -13 -25 -49l-135 -170q-48 -60 -119 -60h-73q-68 0 -119 60l-135 170q-25 36 -25 49q0 41 60 41q86 0 151 -56zM537 115v1085h-349q-47 0 -82 35q-34 34 -34 82t34 82q35 35 82 35h953q47 0 82 -35q32 -32 32 -82t-32 -82
q-35 -35 -82 -35h-350v-1085q0 -51 -37 -88t-90 -37q-54 0 -91 37q-36 36 -36 88z" />
    <glyph glyph-name="tcaron" unicode="&#x165;" horiz-adv-x="841" 
d="M625 1253l6 254q3 90 90 90h37q63 0 63 -59q0 -26 -8 -47l-76 -248q-15 -51 -59 -51q-56 0 -53 61zM518 -18q-311 0 -311 317v569h-41q-45 0 -76 31t-31 76t31 76q30 30 76 30h41v185q0 52 37 86q37 37 88 37q52 0 86 -37q37 -34 37 -86v-185h194q46 0 76 -30
q33 -29 33 -76t-33 -76q-31 -31 -76 -31h-194v-530q0 -135 133 -135q11 0 39 4l22 2q42 0 74 -29q31 -31 31 -74q0 -68 -66 -96q-86 -28 -170 -28z" />
    <glyph glyph-name="Utilde" unicode="&#x168;" horiz-adv-x="1550" 
d="M772 -23q-284 0 -444 160q-166 163 -166 471v711q0 54 37 88q37 37 90 37q54 0 88 -37q37 -34 37 -88v-701q0 -193 96 -303q94 -104 266 -104q171 0 264 100q97 105 97 297v711q0 54 37 88q37 37 90 37q54 0 88 -37q37 -34 37 -88v-698q0 -314 -168 -482
q-158 -162 -449 -162zM545 1587q-27 -41 -68 -41q-32 0 -53 21q-23 23 -23 47q0 20 9 47q67 186 208 186q59 0 162 -41t133 -41q60 0 95 66q27 41 67 41q32 0 53 -21q23 -23 23 -47q0 -23 -8 -47q-67 -186 -209 -186q-59 0 -162 41t-133 41q-59 0 -94 -66z" />
    <glyph glyph-name="utilde" unicode="&#x169;" horiz-adv-x="1269" 
d="M1116 969v-856q0 -52 -37 -86q-37 -37 -88 -37q-50 0 -88 35q-37 37 -37 88v55q-129 -191 -338 -191q-180 0 -284 113q-101 113 -101 303v576q0 51 37 88q34 37 86 37q54 0 88 -37q37 -34 37 -88v-502q0 -262 232 -262q110 0 176 69q67 70 67 197v498q0 54 37 88
q37 37 88 37t88 -37t37 -88zM399 1235q-27 -41 -67 -41q-33 0 -53 20q-23 23 -23 48q0 23 8 47q67 186 209 186q59 0 162 -41t133 -41q59 0 94 66q27 41 68 41q32 0 53 -21q23 -23 23 -47q0 -20 -9 -47q-67 -186 -209 -186q-58 0 -161 41q-101 40 -133 40q-60 0 -95 -65z
" />
    <glyph glyph-name="Umacron" unicode="&#x16a;" horiz-adv-x="1550" 
d="M772 -23q-284 0 -444 160q-166 163 -166 471v711q0 54 37 88q37 37 90 37q54 0 88 -37q37 -34 37 -88v-701q0 -193 96 -303q94 -104 266 -104q171 0 264 100q97 105 97 297v711q0 54 37 88q37 37 90 37q54 0 88 -37q37 -34 37 -88v-698q0 -314 -168 -482
q-158 -162 -449 -162zM1047 1575h-545q-37 0 -64 27q-26 26 -26 63q0 38 26 64t64 26h545q37 0 63 -26q27 -27 27 -64q0 -36 -27 -63t-63 -27z" />
    <glyph glyph-name="umacron" unicode="&#x16b;" horiz-adv-x="1269" 
d="M1116 969v-856q0 -52 -37 -86q-37 -37 -88 -37q-50 0 -88 35q-37 37 -37 88v55q-129 -191 -338 -191q-180 0 -284 113q-101 113 -101 303v576q0 51 37 88q34 37 86 37q54 0 88 -37q37 -34 37 -88v-502q0 -262 232 -262q110 0 176 69q67 70 67 197v498q0 54 37 88
q37 37 88 37t88 -37t37 -88zM899 1241h-545q-36 0 -63 27t-27 63q0 37 27 64q26 26 63 26h545q38 0 64 -26t26 -64q0 -37 -26 -63q-27 -27 -64 -27z" />
    <glyph glyph-name="Ubreve" unicode="&#x16c;" horiz-adv-x="1550" 
d="M772 -23q-284 0 -444 160q-166 163 -166 471v711q0 54 37 88q37 37 90 37q54 0 88 -37q37 -34 37 -88v-701q0 -193 96 -303q94 -104 266 -104q171 0 264 100q97 105 97 297v711q0 54 37 88q37 37 90 37q54 0 88 -37q37 -34 37 -88v-698q0 -314 -168 -482
q-158 -162 -449 -162zM774 1540q-221 0 -313 164q-17 39 -17 63q0 88 86 88q51 0 78 -47q52 -94 166 -94q117 0 166 94q27 47 78 47q86 0 86 -88q0 -24 -17 -63q-92 -164 -313 -164z" />
    <glyph glyph-name="ubreve" unicode="&#x16d;" horiz-adv-x="1269" 
d="M1116 969v-856q0 -52 -37 -86q-37 -37 -88 -37q-50 0 -88 35q-37 37 -37 88v55q-129 -191 -338 -191q-180 0 -284 113q-101 113 -101 303v576q0 51 37 88q34 37 86 37q54 0 88 -37q37 -34 37 -88v-502q0 -262 232 -262q110 0 176 69q67 70 67 197v498q0 54 37 88
q37 37 88 37t88 -37t37 -88zM627 1214q-222 0 -314 164q-16 37 -16 64q0 88 86 88q51 0 78 -47q52 -94 166 -94q117 0 166 94q27 47 77 47q86 0 86 -88q0 -27 -16 -64q-92 -164 -313 -164z" />
    <glyph glyph-name="Uring" unicode="&#x16e;" horiz-adv-x="1550" 
d="M774 1520q-91 0 -162 65q-71 68 -71 158v4q0 93 71 158t162 65q93 0 164 -65q70 -64 70 -158v-4q0 -91 -70 -158q-71 -65 -164 -65zM774 1618q50 0 90 37q37 37 37 88v4q0 51 -37 88q-40 37 -90 37t-90 -37q-37 -37 -37 -88v-4q0 -51 37 -88q40 -37 90 -37zM772 -23
q-284 0 -444 160q-166 163 -166 471v711q0 54 37 88q37 37 90 37q54 0 88 -37q37 -34 37 -88v-701q0 -193 96 -303q94 -104 266 -104q171 0 264 100q97 105 97 297v711q0 54 37 88q37 37 90 37q54 0 88 -37q37 -34 37 -88v-698q0 -314 -168 -482q-158 -162 -449 -162z" />
    <glyph glyph-name="uring" unicode="&#x16f;" horiz-adv-x="1269" 
d="M627 1212q-90 0 -162 66q-72 69 -72 158v4q0 91 72 157t162 66q92 0 164 -66q69 -63 69 -157v-4q0 -92 -69 -158q-72 -66 -164 -66zM627 1311q50 0 90 37q37 37 37 88v4q0 51 -37 88q-40 37 -90 37t-90 -37q-37 -37 -37 -88v-4q0 -51 37 -88q40 -37 90 -37zM1116 969
v-856q0 -52 -37 -86q-37 -37 -88 -37q-50 0 -88 35q-37 37 -37 88v55q-129 -191 -338 -191q-180 0 -284 113q-101 113 -101 303v576q0 51 37 88q34 37 86 37q54 0 88 -37q37 -34 37 -88v-502q0 -262 232 -262q110 0 176 69q67 70 67 197v498q0 54 37 88q37 37 88 37t88 -37
t37 -88z" />
    <glyph glyph-name="Uhungarumlaut" unicode="&#x170;" horiz-adv-x="1550" 
d="M772 -23q-284 0 -444 160q-166 163 -166 471v711q0 54 37 88q37 37 90 37q54 0 88 -37q37 -34 37 -88v-701q0 -193 96 -303q94 -104 266 -104q171 0 264 100q97 105 97 297v711q0 54 37 88q37 37 90 37q54 0 88 -37q37 -34 37 -88v-698q0 -314 -168 -482
q-158 -162 -449 -162zM936 1542q-59 0 -59 43q0 19 16 45l119 180q35 60 94 60q48 0 96 -25q47 -24 47 -53q0 -28 -35 -63l-137 -132q-58 -55 -141 -55zM561 1542q-59 0 -59 43q0 19 16 45l119 180q35 60 94 60q48 0 96 -25q47 -24 47 -53t-34 -63l-138 -132
q-58 -55 -141 -55z" />
    <glyph glyph-name="uhungarumlaut" unicode="&#x171;" horiz-adv-x="1269" 
d="M1116 969v-856q0 -52 -37 -86q-37 -37 -88 -37q-50 0 -88 35q-37 37 -37 88v55q-129 -191 -338 -191q-180 0 -284 113q-101 113 -101 303v576q0 51 37 88q34 37 86 37q54 0 88 -37q37 -34 37 -88v-502q0 -262 232 -262q110 0 176 69q67 70 67 197v498q0 54 37 88
q37 37 88 37t88 -37t37 -88zM788 1208q-59 0 -59 43q0 19 16 45l119 181q35 59 94 59q49 0 97 -25q47 -24 47 -53q0 -28 -35 -63l-137 -131q-59 -56 -142 -56zM414 1208q-60 0 -60 43q0 18 17 45l118 181q35 59 95 59q48 0 96 -25q47 -24 47 -53q0 -28 -35 -63l-137 -131
q-59 -56 -141 -56z" />
    <glyph glyph-name="Uogonek" unicode="&#x172;" horiz-adv-x="1550" 
d="M602 -168q0 75 68 152q-238 27 -371 184q-137 162 -137 440v711q0 54 37 88q37 37 90 37q54 0 88 -37q37 -34 37 -88v-701q0 -193 96 -303q94 -104 266 -104q171 0 264 100q97 105 97 297v711q0 54 37 88q37 37 90 37q54 0 88 -37q37 -34 37 -88v-698q0 -293 -148 -461
q-145 -160 -401 -178q-49 -55 -49 -111q0 -63 90 -84q67 -15 67 -63q0 -64 -82 -64q-109 0 -180 41q-84 47 -84 131z" />
    <glyph glyph-name="uogonek" unicode="&#x173;" horiz-adv-x="1269" 
d="M1116 969v-863q0 -52 -49 -98q-82 -79 -82 -139q0 -61 88 -82q68 -15 68 -63q0 -64 -82 -64q-112 0 -180 39q-82 46 -82 127q0 98 108 197q-39 33 -39 137v8q-129 -191 -338 -191q-180 0 -284 113q-101 113 -101 303v576q0 51 37 88q34 37 86 37q54 0 88 -37
q37 -34 37 -88v-502q0 -262 232 -262q110 0 176 69q67 70 67 197v498q0 54 37 88q37 37 88 37t88 -37t37 -88z" />
    <glyph glyph-name="Wcircumflex" unicode="&#x174;" horiz-adv-x="2250" 
d="M1122 1690l-106 -93q-64 -55 -152 -55q-55 0 -55 41q0 13 25 49l135 170q51 60 118 60h74q71 0 119 -60l135 -170q25 -36 25 -49q0 -41 -60 -41q-84 0 -151 55zM520 84l-424 1188q-10 27 -10 49q0 52 39 88q38 35 90 35q98 0 125 -92l330 -985l323 981q34 100 127 100h19
q98 0 127 -100l323 -981l330 987q35 90 123 90q50 0 88 -35q37 -34 37 -86q0 -22 -13 -51l-423 -1188q-37 -104 -132 -104h-24q-92 0 -129 104l-320 936l-319 -936q-37 -104 -131 -104h-25q-91 0 -131 104z" />
    <glyph glyph-name="wcircumflex" unicode="&#x175;" horiz-adv-x="1746" 
d="M868 1356l-106 -92q-65 -56 -152 -56q-55 0 -55 41q0 13 25 49l135 170q51 60 119 60h73q71 0 119 -60l135 -170q25 -36 25 -49q0 -41 -60 -41q-83 0 -151 56zM526 -18h-8q-100 0 -137 110l-291 823q-12 35 -12 64q0 47 33 80q35 35 88 35q90 0 120 -99l209 -655l211 655
q30 99 127 99h15q97 0 127 -99l213 -655l211 657q28 97 120 97q49 0 84 -35q33 -33 33 -80q0 -22 -10 -55l-295 -832q-40 -110 -137 -110h-8q-102 0 -136 106l-211 643l-213 -643q-34 -106 -133 -106z" />
    <glyph glyph-name="Ycircumflex" unicode="&#x176;" horiz-adv-x="1425" 
d="M588 115v442l-494 678q-28 45 -28 88q0 53 36 86q38 35 91 35q70 0 122 -76l400 -575l405 577q52 76 121 76q53 0 90 -37q33 -33 33 -86q0 -43 -35 -90l-489 -670v-448q0 -54 -37 -88q-37 -37 -90 -37q-51 0 -88 37t-37 88zM711 1690l-107 -93q-64 -55 -151 -55
q-56 0 -56 41q0 13 25 49l135 170q51 60 119 60h74q70 0 118 -60l136 -170q24 -34 24 -49q0 -41 -59 -41q-85 0 -152 55z" />
    <glyph glyph-name="ycircumflex" unicode="&#x177;" 
d="M352 -334q-93 0 -172 31q-78 28 -78 102q0 46 31 74q29 29 70 29q24 0 45 -8q52 -15 86 -15q97 0 153 115l9 22l-402 897q-14 32 -14 60q0 51 35 86t88 35q83 0 121 -95l290 -718l271 718q38 95 119 95q50 0 83 -33q35 -35 35 -84q0 -26 -10 -59l-395 -949
q-70 -166 -152 -233q-82 -70 -213 -70zM600 1356l-106 -92q-65 -56 -152 -56q-55 0 -55 41q0 15 24 49l135 170q51 60 119 60h74q71 0 119 -60l135 -170q25 -36 25 -49q0 -41 -60 -41q-83 0 -151 56z" />
    <glyph glyph-name="Ydieresis" unicode="&#x178;" horiz-adv-x="1425" 
d="M588 115v442l-494 678q-28 45 -28 88q0 53 36 86q38 35 91 35q70 0 122 -76l400 -575l405 577q52 76 121 76q53 0 90 -37q33 -33 33 -86q0 -43 -35 -90l-489 -670v-448q0 -54 -37 -88q-37 -37 -90 -37q-51 0 -88 37t-37 88zM918 1808q54 0 94 -34q39 -36 39 -93v-14
q0 -57 -39 -90q-41 -35 -94 -35q-56 0 -97 35q-39 33 -39 90v14q0 57 39 93q40 34 97 34zM510 1808q54 0 94 -34q39 -36 39 -93v-14q0 -57 -39 -90q-41 -35 -94 -35q-55 0 -96 35q-39 33 -39 90v14q0 57 39 93q40 34 96 34z" />
    <glyph glyph-name="Zacute" unicode="&#x179;" horiz-adv-x="1437" 
d="M725 1542q-61 0 -61 43q0 19 16 45l117 180q38 60 98 60q50 0 98 -25q49 -27 49 -55q0 -31 -34 -61l-138 -132q-58 -55 -145 -55zM1206 0h-968q-45 0 -78 33q-35 35 -35 78v6q0 63 47 116l807 977h-719q-45 0 -78 33q-32 32 -32 78q0 48 32 80q33 33 78 33h942
q47 0 80 -33t33 -78v-6q0 -60 -45 -117l-809 -977h745q47 0 80 -33t33 -79q0 -45 -33 -78t-80 -33z" />
    <glyph glyph-name="zacute" unicode="&#x17a;" horiz-adv-x="1146" 
d="M571 1208q-61 0 -61 43q0 19 16 45l117 181q38 59 98 59q51 0 99 -25q49 -27 49 -55q0 -31 -35 -61l-137 -131q-59 -56 -146 -56zM954 0h-733q-49 0 -86 29q-35 27 -35 71v4q0 60 56 119l575 656h-510q-43 0 -71 28q-31 31 -31 72q0 43 31 74q28 28 71 28h713
q51 0 84 -26q35 -27 35 -72v-6q0 -59 -54 -119l-577 -655h532q42 0 74 -29q29 -32 29 -74q0 -39 -29 -71q-32 -29 -74 -29z" />
    <glyph glyph-name="Zdotaccent" unicode="&#x17b;" horiz-adv-x="1437" 
d="M1206 0h-968q-45 0 -78 33q-35 35 -35 78v6q0 63 47 116l807 977h-719q-45 0 -78 33q-32 32 -32 78q0 48 32 80q33 33 78 33h942q47 0 80 -33t33 -78v-6q0 -60 -45 -117l-809 -977h745q47 0 80 -33t33 -79q0 -45 -33 -78t-80 -33zM870 1681v-14q0 -55 -41 -90t-98 -35
q-55 0 -96 35t-41 90v14q0 55 41 93q40 34 96 34q58 0 98 -34q41 -38 41 -93z" />
    <glyph glyph-name="zdotaccent" unicode="&#x17c;" horiz-adv-x="1146" 
d="M954 0h-733q-49 0 -86 29q-35 27 -35 71v4q0 60 56 119l575 656h-510q-43 0 -71 28q-31 31 -31 72q0 43 31 74q28 28 71 28h713q51 0 84 -26q35 -27 35 -72v-6q0 -59 -54 -119l-577 -655h532q42 0 74 -29q29 -32 29 -74q0 -39 -29 -71q-32 -29 -74 -29zM717 1348v-15
q0 -55 -41 -90t-98 -35q-56 0 -97 35t-41 90v15q0 54 41 92q41 35 97 35q57 0 98 -35q41 -38 41 -92z" />
    <glyph glyph-name="Zcaron" unicode="&#x17d;" horiz-adv-x="1437" 
d="M733 1716l107 92q68 56 151 56q56 0 56 -41q0 -13 -25 -49l-135 -170q-48 -60 -119 -60h-74q-68 0 -119 60l-135 170q-24 34 -24 49q0 41 59 41q87 0 152 -56zM1206 0h-968q-45 0 -78 33q-35 35 -35 78v6q0 63 47 116l807 977h-719q-45 0 -78 33q-32 32 -32 78
q0 48 32 80q33 33 78 33h942q47 0 80 -33t33 -78v-6q0 -60 -45 -117l-809 -977h745q47 0 80 -33t33 -79q0 -45 -33 -78t-80 -33z" />
    <glyph glyph-name="zcaron" unicode="&#x17e;" horiz-adv-x="1146" 
d="M580 1382l106 93q67 55 152 55q55 0 55 -41q0 -13 -25 -49l-135 -170q-48 -60 -119 -60h-73q-68 0 -119 60l-135 170q-25 36 -25 49q0 41 60 41q87 0 151 -55zM954 0h-733q-49 0 -86 29q-35 27 -35 71v4q0 60 56 119l575 656h-510q-43 0 -71 28q-31 31 -31 72q0 43 31 74
q28 28 71 28h713q51 0 84 -26q35 -27 35 -72v-6q0 -59 -54 -119l-577 -655h532q42 0 74 -29q29 -32 29 -74q0 -39 -29 -71q-32 -29 -74 -29z" />
    <glyph glyph-name="florin" unicode="&#x192;" horiz-adv-x="1079" 
d="M217 -14q-133 0 -133 104q0 97 102 103q108 9 129 137l72 399h-70q-42 0 -73 31q-31 28 -31 71t31 74t73 31h105l37 192q59 318 358 318q55 0 107 -6q92 -12 92 -105q0 -42 -29 -71q-31 -31 -74 -31l-20 2q-10 2 -29 2q-139 0 -166 -160l-24 -141h166q45 0 73 -31
q31 -31 31 -74t-31 -71q-28 -31 -73 -31h-203l-78 -436q-55 -307 -342 -307z" />
    <glyph glyph-name="Ohorn" unicode="&#x1a0;" horiz-adv-x="1740" 
d="M1221 356q135 144 135 357v4q0 214 -137 360q-138 150 -351 150q-209 0 -348 -148q-135 -144 -135 -358v-4q0 -216 137 -359q137 -149 350 -149q211 0 349 147zM1354 1292q20 -14 57 -51q209 -212 209 -520v-4q0 -308 -211 -522q-217 -220 -541 -220q-326 0 -538 218
q-209 212 -209 520v4q0 308 211 522q216 219 540 219q118 0 213 -26q150 3 177 147q35 41 88 41q47 0 80 -33q32 -32 32 -78q0 -43 -24 -98q-30 -72 -84 -119z" />
    <glyph glyph-name="ohorn" unicode="&#x1a1;" horiz-adv-x="1345" 
d="M913 293q88 98 88 242v4q0 142 -92 245q-95 103 -239 103q-147 0 -238 -101q-88 -98 -88 -243v-4q0 -141 92 -244q94 -102 238 -102q149 0 239 100zM1108 915q141 -156 141 -372v-4q0 -234 -164 -398q-169 -166 -415 -166t-410 164t-164 396v4q0 235 164 399
q169 166 414 166q113 0 209 -35q167 41 188 166q35 41 88 41q47 0 80 -33t33 -78q0 -43 -25 -71q-47 -122 -139 -179z" />
    <glyph glyph-name="Uhorn" unicode="&#x1af;" horiz-adv-x="1550" 
d="M1389 1233v-612q0 -314 -168 -482q-158 -162 -449 -162q-284 0 -444 160q-166 163 -166 471v711q0 54 37 88q37 37 90 37q54 0 88 -37q37 -34 37 -88v-701q0 -193 96 -303q94 -104 266 -104q171 0 264 100q97 105 97 297v711q0 54 37 88q37 37 90 37q10 0 30 -4
q94 27 115 139q35 41 88 41q47 0 80 -33t33 -78q0 -40 -25 -92q-58 -132 -196 -184z" />
    <glyph glyph-name="uhorn" unicode="&#x1b0;" horiz-adv-x="1269" 
d="M1116 879v-766q0 -52 -37 -86q-37 -37 -88 -37q-50 0 -88 35q-37 37 -37 88v55q-129 -191 -338 -191q-180 0 -284 113q-101 113 -101 303v576q0 51 37 88q34 37 86 37q54 0 88 -37q37 -34 37 -88v-502q0 -262 232 -262q110 0 176 69q67 70 67 197v498q0 54 37 88
q37 37 88 37q11 0 31 -4q122 15 143 145q35 41 88 41q47 0 80 -33t33 -78q0 -43 -25 -71q-64 -169 -225 -215z" />
    <glyph glyph-name="Aringacute" unicode="&#x1fa;" horiz-adv-x="1617" 
d="M803 1858q-62 0 -62 43q0 18 17 45l116 180q38 59 99 59q51 0 98 -24q49 -27 49 -56q0 -31 -35 -61l-137 -131q-58 -55 -145 -55zM944 1401l555 -1239q14 -25 14 -51q0 -50 -34 -84q-34 -37 -86 -37q-83 0 -123 88l-117 268h-696l-119 -276q-38 -80 -117 -80
q-49 0 -84 35t-35 81q0 13 15 54l557 1241q-99 67 -99 178v4q0 89 72 158q71 65 162 65q93 0 164 -65q69 -66 69 -158v-4q0 -114 -98 -178zM809 1454q50 0 90 37q37 37 37 88v4q0 51 -37 88q-40 37 -90 37t-90 -37q-37 -37 -37 -88v-4q0 -51 37 -88q40 -37 90 -37zM553 569
h504l-252 580z" />
    <glyph glyph-name="aringacute" unicode="&#x1fb;" 
d="M467 -23q-159 0 -268 86q-115 92 -115 248v4q0 172 125 263q118 86 321 86q152 0 291 -46v27q0 236 -268 236q-133 0 -240 -43q-24 -7 -39 -7q-42 0 -73 31q-31 28 -31 72q0 71 68 98q168 64 348 64q240 0 358 -121q117 -114 117 -334v-532q0 -49 -35 -84t-86 -35
q-54 0 -88 30q-33 29 -33 74v41q-134 -158 -352 -158zM602 1214q-90 0 -162 66q-71 68 -71 158v4q0 92 71 157q72 66 162 66q92 0 164 -66q70 -64 70 -157v-4q0 -91 -70 -158q-72 -66 -164 -66zM537 158q125 0 206 63q82 64 82 168v74q-110 43 -245 43q-254 0 -254 -180v-4
q0 -75 61 -121q58 -43 150 -43zM596 1726q-61 0 -61 43q0 20 16 46l117 180q38 59 98 59q52 0 98 -24q49 -27 49 -56q0 -31 -34 -61l-138 -131q-59 -56 -145 -56zM602 1313q50 0 90 37q37 37 37 88v4q0 51 -37 88q-40 37 -90 37t-90 -37q-37 -37 -37 -88v-4q0 -51 37 -88
q40 -37 90 -37z" />
    <glyph glyph-name="AEacute" unicode="&#x1fc;" horiz-adv-x="2140" 
d="M1266 1542q-62 0 -62 43q0 18 17 45l116 180q38 60 99 60q50 0 98 -25q49 -27 49 -55q0 -31 -35 -61l-137 -132q-58 -55 -145 -55zM70 92q0 43 20 72l690 1182q49 88 148 88h985q47 0 80 -33q32 -32 32 -80t-32 -80q-33 -33 -80 -33h-664v-372h572q47 0 80 -33
q32 -32 32 -82q0 -46 -32 -78q-33 -33 -80 -33h-572v-385h674q48 0 80 -32q33 -33 33 -80t-33 -80t-80 -33h-799q-53 0 -90 37t-37 90v219h-540l-166 -289q-40 -69 -111 -69q-48 0 -78 30q-32 25 -32 74zM586 569h411v645h-41z" />
    <glyph glyph-name="aeacute" unicode="&#x1fd;" horiz-adv-x="1949" 
d="M961 1208q-62 0 -62 43q0 19 16 45l117 181q38 59 98 59q51 0 99 -25q49 -27 49 -55q0 -31 -35 -61l-137 -131q-59 -56 -145 -56zM1053 616h557q-12 127 -82 203q-73 82 -193 82q-113 0 -190 -80q-77 -77 -92 -205zM532 160q171 0 322 139q-31 74 -41 166
q-115 41 -238 41q-249 0 -249 -180v-4q0 -73 61 -119q58 -43 145 -43zM1751 119q-159 -144 -389 -144q-262 0 -418 185q-219 -183 -452 -183q-174 0 -289 89q-119 88 -119 245v4q0 171 123 263q118 86 319 86q148 0 287 -46v27q0 236 -264 236q-123 0 -236 -43
q-24 -7 -39 -7q-42 0 -73 31q-31 28 -31 72q0 71 68 98q158 64 344 64q279 0 381 -176q141 184 378 184t381 -172q127 -154 127 -361q0 -54 -32 -86t-84 -32h-676q21 -130 106 -203q84 -72 203 -72q145 0 258 94q30 23 62 23q42 0 71 -29t29 -71q0 -46 -35 -76z" />
    <glyph glyph-name="Oslashacute" unicode="&#x1fe;" horiz-adv-x="1740" 
d="M868 -25q-252 0 -446 138l-98 -99q-30 -34 -78 -34q-88 0 -88 81q0 41 35 76l96 101q-168 201 -168 475v4q0 308 211 522q216 219 540 219q255 0 447 -139l98 100q35 35 78 35q88 0 88 -80q0 -43 -35 -78l-96 -100q168 -201 168 -475v-4q0 -308 -211 -522
q-217 -220 -541 -220zM872 203q214 0 351 149q137 146 137 361v4q0 157 -86 293l-686 -717q128 -90 284 -90zM381 721v-4q0 -160 86 -293l684 715q-127 92 -283 92q-212 0 -350 -150q-137 -146 -137 -360zM862 1563q-61 0 -61 43q0 19 16 45l117 180q38 59 98 59
q52 0 98 -24q50 -27 50 -56q0 -31 -35 -61l-137 -131q-58 -55 -146 -55z" />
    <glyph glyph-name="oslashacute" unicode="&#x1ff;" horiz-adv-x="1345" 
d="M670 -25q-185 0 -332 99l-59 -62q-37 -37 -78 -37q-33 0 -56 23q-24 21 -24 53q0 41 35 76l59 61q-119 146 -119 347v4q0 235 164 399q169 166 414 166q191 0 332 -100l61 63q37 37 78 37q34 0 55 -21q25 -22 25 -53q0 -37 -35 -78l-62 -61q121 -154 121 -348v-4
q0 -234 -164 -398q-169 -166 -415 -166zM338 543v-4q0 -101 45 -181l469 480q-82 55 -182 55q-147 0 -242 -105q-90 -101 -90 -245zM674 186q150 0 244 105q90 101 90 244v4q0 97 -47 180l-469 -479q79 -54 182 -54zM666 1208q-62 0 -62 43q0 18 17 45l116 181q38 59 99 59
q50 0 98 -25q49 -27 49 -55q0 -31 -35 -61l-137 -131q-59 -56 -145 -56z" />
    <glyph glyph-name="uni0218" unicode="&#x218;" horiz-adv-x="1310" 
d="M647 -346q-110 18 -110 108v5q0 47 34 77q36 31 91 31q131 0 131 -143v-6q0 -146 -88 -222q-73 -67 -177 -67q-53 0 -53 43q0 34 43 43q132 27 129 131zM686 -20q-298 0 -539 180q-49 34 -49 96q0 49 35 84q33 33 84 33q41 0 74 -23q187 -147 401 -147q119 0 187 51
q67 49 67 129v4q0 79 -61 125q-67 47 -262 94q-252 62 -353 144q-125 98 -125 284v4q0 184 138 301q139 115 352 115q254 0 455 -133q55 -30 55 -100q0 -47 -35 -82t-84 -35q-35 0 -65 18q-171 109 -330 109q-108 0 -172 -49q-62 -47 -62 -121v-4q0 -82 68 -129
q74 -49 274 -97q236 -58 344 -147q115 -103 115 -272v-4q0 -200 -143 -316q-136 -112 -369 -112z" />
    <glyph glyph-name="uni0219" unicode="&#x219;" horiz-adv-x="1026" 
d="M502 -340q-111 18 -111 109v4q0 47 35 77q36 31 90 31q131 0 131 -143v-6q0 -145 -88 -221q-74 -68 -176 -68q-53 0 -53 43q0 34 43 43q132 27 129 131zM526 -20q-223 0 -411 129q-47 24 -47 86q0 40 28 71q29 29 72 29q31 0 53 -14q156 -105 311 -105q168 0 168 117v4
q0 55 -73 92q-49 23 -168 60q-159 44 -230 98q-108 79 -108 219v4q0 152 112 242q107 88 273 88q174 0 340 -88q59 -30 59 -94q0 -44 -28 -72q-32 -29 -74 -29q-25 0 -49 12q-145 74 -254 74q-152 0 -152 -106v-4q0 -52 74 -93q43 -19 170 -61q336 -105 336 -315v-5
q0 -165 -117 -256q-109 -83 -285 -83z" />
    <glyph glyph-name="uni0259" unicode="&#x259;" horiz-adv-x="1236" 
d="M895 465h-555q12 -127 82 -203q73 -82 192 -82q112 0 189 80q77 77 92 205zM197 963q158 143 389 143q239 0 395 -156q160 -157 160 -405v-4q0 -233 -148 -398q-150 -166 -381 -166q-241 0 -385 173q-129 153 -129 360q0 51 35 86q33 33 82 33h678q-21 128 -107 202
q-84 72 -204 72q-143 0 -256 -94q-30 -23 -64 -23q-40 0 -69 29t-29 72t33 76z" />
    <glyph glyph-name="circumflex" unicode="&#x2c6;" horiz-adv-x="1024" 
d="M510 1356l-107 -92q-65 -56 -151 -56q-55 0 -55 41q0 15 24 49l135 170q51 60 119 60h74q71 0 119 -60l135 -170q24 -34 24 -49q0 -41 -59 -41q-84 0 -152 56z" />
    <glyph glyph-name="caron" unicode="&#x2c7;" horiz-adv-x="1024" 
d="M514 1382l107 93q67 55 151 55q55 0 55 -41q0 -15 -24 -49l-135 -170q-48 -60 -119 -60h-74q-68 0 -119 60l-135 170q-24 34 -24 49q0 41 59 41q88 0 152 -55z" />
    <glyph glyph-name="breve" unicode="&#x2d8;" horiz-adv-x="1024" 
d="M512 1214q-221 0 -313 164q-17 39 -17 64q0 88 86 88q51 0 78 -47q52 -94 166 -94q117 0 166 94q27 47 78 47q86 0 86 -88q0 -25 -17 -64q-92 -164 -313 -164z" />
    <glyph glyph-name="dotaccent" unicode="&#x2d9;" horiz-adv-x="1024" 
d="M651 1348v-15q0 -55 -41 -90t-98 -35q-55 0 -96 35t-41 90v15q0 54 41 92q41 35 96 35q57 0 98 -35q41 -38 41 -92z" />
    <glyph glyph-name="ring" unicode="&#x2da;" horiz-adv-x="1024" 
d="M512 1214q-90 0 -162 66q-71 68 -71 158v4q0 92 71 157q72 66 162 66q92 0 164 -66q69 -63 69 -157v-4q0 -92 -69 -158q-72 -66 -164 -66zM512 1313q50 0 90 37q37 37 37 88v4q0 51 -37 88q-40 37 -90 37t-90 -37q-37 -37 -37 -88v-4q0 -51 37 -88q40 -37 90 -37z" />
    <glyph glyph-name="ogonek" unicode="&#x2db;" horiz-adv-x="1024" 
d="M373 -168q0 93 106 193l166 -11q-84 -78 -84 -143q0 -63 90 -84q68 -15 68 -63q0 -64 -82 -64q-109 0 -180 41q-84 47 -84 131z" />
    <glyph glyph-name="tilde" unicode="&#x2dc;" horiz-adv-x="1024" 
d="M281 1235q-27 -41 -68 -41q-33 0 -53 20q-23 23 -23 48q0 23 8 47q67 186 209 186q59 0 162 -41t133 -41q59 0 94 66q27 41 68 41q32 0 53 -21q23 -23 23 -47q0 -23 -8 -47q-67 -186 -209 -186q-59 0 -162 41q-101 40 -133 40q-59 0 -94 -65z" />
    <glyph glyph-name="hungarumlaut" unicode="&#x2dd;" horiz-adv-x="1024" 
d="M580 1208q-60 0 -60 43q0 18 17 45l118 181q35 59 95 59q48 0 96 -25q47 -24 47 -53q0 -28 -35 -63l-137 -131q-59 -56 -141 -56zM205 1208q-60 0 -60 43q0 18 17 45l119 181q35 59 94 59q48 0 96 -25q47 -24 47 -53q0 -28 -35 -63l-137 -131q-59 -56 -141 -56z" />
    <glyph glyph-name="gravecomb" unicode="&#x300;" horiz-adv-x="0" 
d="M-383 1208q-84 0 -143 56l-140 131q-34 30 -34 61q0 28 49 55q48 25 98 25q60 0 98 -59l117 -181q19 -28 19 -45q0 -43 -64 -43z" />
    <glyph glyph-name="acutecomb" unicode="&#x301;" horiz-adv-x="0" 
d="M-608 1208q-62 0 -62 43q0 18 17 45l116 181q38 59 99 59q50 0 98 -25q49 -27 49 -55q0 -31 -35 -61l-137 -131q-59 -56 -145 -56z" />
    <glyph glyph-name="tildecomb" unicode="&#x303;" horiz-adv-x="0" 
d="M-616 1235q-27 -41 -68 -41q-33 0 -53 20q-23 23 -23 48q0 23 8 47q67 186 209 186q59 0 162 -41t133 -41q59 0 94 66q27 41 68 41q32 0 53 -21q23 -23 23 -47q0 -23 -8 -47q-67 -186 -209 -186q-59 0 -162 41q-101 40 -133 40q-59 0 -94 -65z" />
    <glyph glyph-name="hookabovecomb" unicode="&#x309;" horiz-adv-x="1107" 
d="M551 1208h-4q-52 0 -58 52l-8 53q-9 59 54 65q96 9 96 64v2q0 23 -17 37q-19 16 -53 16q-52 0 -94 -39q-22 -16 -45 -16q-30 0 -47 20q-21 18 -21 47q0 30 25 52q77 71 184 71q94 0 152 -49q59 -53 59 -135v-2q0 -155 -166 -182v-4q-9 -52 -57 -52z" />
    <glyph glyph-name="uni031B" unicode="&#x31b;" horiz-adv-x="1474" 
d="M1372 287q0 -45 -24 -72q-86 -231 -361 -231l2 225q155 0 182 147q35 41 89 41q47 0 79 -32q33 -33 33 -78z" />
    <glyph glyph-name="dotbelowcomb" unicode="&#x323;" horiz-adv-x="0" 
d="M-559 -283v19q0 60 43 100q41 41 102 41q59 0 103 -41q41 -41 41 -100v-19q0 -61 -41 -102q-44 -41 -103 -41q-61 0 -102 41q-43 40 -43 102z" />
    <glyph glyph-name="uni0326" unicode="&#x326;" horiz-adv-x="1024" 
d="M496 -340q-111 18 -111 109v4q0 47 35 77q36 31 90 31q131 0 131 -143v-6q0 -145 -88 -221q-74 -68 -176 -68q-53 0 -53 43q0 34 43 43q132 27 129 131z" />
    <glyph glyph-name="Wgrave" unicode="&#x1e80;" horiz-adv-x="2250" 
d="M520 84l-424 1188q-10 27 -10 49q0 52 39 88q38 35 90 35q98 0 125 -92l330 -985l323 981q34 100 127 100h19q98 0 127 -100l323 -981l330 987q35 90 123 90q50 0 88 -35q37 -34 37 -86q0 -22 -13 -51l-423 -1188q-37 -104 -132 -104h-24q-92 0 -129 104l-320 936
l-319 -936q-37 -104 -131 -104h-25q-91 0 -131 104zM1130 1542q-85 0 -143 55l-139 132q-35 30 -35 61q0 28 49 55q48 25 99 25q60 0 98 -60l117 -180q18 -27 18 -45q0 -43 -64 -43z" />
    <glyph glyph-name="wgrave" unicode="&#x1e81;" horiz-adv-x="1746" 
d="M526 -18h-8q-100 0 -137 110l-291 823q-12 35 -12 64q0 47 33 80q35 35 88 35q90 0 120 -99l209 -655l211 655q30 99 127 99h15q97 0 127 -99l213 -655l211 657q28 97 120 97q49 0 84 -35q33 -33 33 -80q0 -22 -10 -55l-295 -832q-40 -110 -137 -110h-8q-102 0 -136 106
l-211 643l-213 -643q-34 -106 -133 -106zM877 1208q-85 0 -144 56l-139 131q-35 30 -35 61q0 28 49 55q48 25 99 25q60 0 98 -59l117 -181q18 -27 18 -45q0 -43 -63 -43z" />
    <glyph glyph-name="Wacute" unicode="&#x1e82;" horiz-adv-x="2250" 
d="M1118 1542q-61 0 -61 43q0 19 16 45l117 180q38 60 98 60q50 0 98 -25q50 -27 50 -55q0 -31 -35 -61l-137 -132q-58 -55 -146 -55zM520 84l-424 1188q-10 27 -10 49q0 52 39 88q38 35 90 35q98 0 125 -92l330 -985l323 981q34 100 127 100h19q98 0 127 -100l323 -981
l330 987q35 90 123 90q50 0 88 -35q37 -34 37 -86q0 -22 -13 -51l-423 -1188q-37 -104 -132 -104h-24q-92 0 -129 104l-320 936l-319 -936q-37 -104 -131 -104h-25q-91 0 -131 104z" />
    <glyph glyph-name="wacute" unicode="&#x1e83;" horiz-adv-x="1746" 
d="M864 1208q-61 0 -61 43q0 19 16 45l117 181q38 59 98 59q51 0 99 -25q49 -27 49 -55q0 -31 -35 -61l-137 -131q-59 -56 -146 -56zM526 -18h-8q-100 0 -137 110l-291 823q-12 35 -12 64q0 47 33 80q35 35 88 35q90 0 120 -99l209 -655l211 655q30 99 127 99h15
q97 0 127 -99l213 -655l211 657q28 97 120 97q49 0 84 -35q33 -33 33 -80q0 -22 -10 -55l-295 -832q-40 -110 -137 -110h-8q-102 0 -136 106l-211 643l-213 -643q-34 -106 -133 -106z" />
    <glyph glyph-name="Wdieresis" unicode="&#x1e84;" horiz-adv-x="2250" 
d="M1329 1808q54 0 94 -34q39 -36 39 -93v-14q0 -57 -39 -90q-41 -35 -94 -35q-55 0 -96 35q-39 33 -39 90v14q0 57 39 93q40 34 96 34zM922 1808q54 0 94 -34q39 -36 39 -93v-14q0 -57 -39 -90q-41 -35 -94 -35q-56 0 -97 35q-39 33 -39 90v14q0 57 39 93q40 34 97 34z
M520 84l-424 1188q-10 27 -10 49q0 52 39 88q38 35 90 35q98 0 125 -92l330 -985l323 981q34 100 127 100h19q98 0 127 -100l323 -981l330 987q35 90 123 90q50 0 88 -35q37 -34 37 -86q0 -22 -13 -51l-423 -1188q-37 -104 -132 -104h-24q-92 0 -129 104l-320 936l-319 -936
q-37 -104 -131 -104h-25q-91 0 -131 104z" />
    <glyph glyph-name="wdieresis" unicode="&#x1e85;" horiz-adv-x="1746" 
d="M1075 1475q53 0 94 -35q39 -36 39 -92v-15q0 -57 -39 -90q-41 -35 -94 -35q-55 0 -96 35q-39 33 -39 90v15q0 56 39 92q41 35 96 35zM668 1475q53 0 94 -35q39 -36 39 -92v-15q0 -57 -39 -90q-41 -35 -94 -35q-56 0 -97 35q-39 33 -39 90v15q0 56 39 92q41 35 97 35z
M526 -18h-8q-100 0 -137 110l-291 823q-12 35 -12 64q0 47 33 80q35 35 88 35q90 0 120 -99l209 -655l211 655q30 99 127 99h15q97 0 127 -99l213 -655l211 657q28 97 120 97q49 0 84 -35q33 -33 33 -80q0 -22 -10 -55l-295 -832q-40 -110 -137 -110h-8q-102 0 -136 106
l-211 643l-213 -643q-34 -106 -133 -106z" />
    <glyph glyph-name="uni1EA0" unicode="&#x1ea0;" horiz-adv-x="1583" 
d="M86 106q0 21 16 58l533 1188q47 102 151 102h13q103 0 149 -102l533 -1188q14 -25 14 -53q0 -51 -35 -86t-84 -35q-86 0 -123 88l-116 268h-697l-121 -276q-35 -80 -116 -80q-47 0 -82 35t-35 81zM537 569h503l-252 580zM647 -283v19q0 60 43 100q41 41 103 41
q58 0 102 -41q41 -41 41 -100v-19q0 -61 -41 -102q-44 -41 -102 -41q-62 0 -103 41q-43 40 -43 102z" />
    <glyph glyph-name="uni1EA1" unicode="&#x1ea1;" 
d="M467 -23q-159 0 -268 86q-115 92 -115 248v4q0 172 125 263q118 86 321 86q152 0 291 -46v27q0 236 -268 236q-133 0 -240 -43q-24 -7 -39 -7q-42 0 -73 31q-31 28 -31 72q0 71 68 98q168 64 348 64q240 0 358 -121q117 -114 117 -334v-532q0 -49 -35 -84t-86 -35
q-54 0 -88 30q-33 29 -33 74v41q-134 -158 -352 -158zM537 158q125 0 206 63q82 64 82 168v74q-110 43 -245 43q-254 0 -254 -180v-4q0 -75 61 -121q58 -43 150 -43zM428 -283v19q0 60 43 100q41 41 102 41q59 0 103 -41q41 -41 41 -100v-19q0 -61 -41 -102
q-44 -41 -103 -41q-61 0 -102 41q-43 40 -43 102z" />
    <glyph glyph-name="uni1EA2" unicode="&#x1ea2;" horiz-adv-x="1583" 
d="M86 106q0 21 16 58l533 1188q47 102 151 102h13q103 0 149 -102l533 -1188q14 -25 14 -53q0 -51 -35 -86t-84 -35q-86 0 -123 88l-116 268h-697l-121 -276q-35 -80 -116 -80q-47 0 -82 35t-35 81zM537 569h503l-252 580zM776 1561h-4q-51 0 -57 51l-8 53q-9 60 53 66
q96 9 96 63v2q0 24 -16 37q-19 16 -54 16q-52 0 -94 -39q-22 -16 -45 -16q-29 0 -47 21q-20 17 -20 47t24 51q78 72 184 72q93 0 152 -50q59 -53 59 -135v-2q0 -155 -165 -182v-4q-9 -51 -58 -51z" />
    <glyph glyph-name="uni1EA3" unicode="&#x1ea3;" 
d="M467 -23q-159 0 -268 86q-115 92 -115 248v4q0 172 125 263q118 86 321 86q152 0 291 -46v27q0 236 -268 236q-133 0 -240 -43q-24 -7 -39 -7q-42 0 -73 31q-31 28 -31 72q0 71 68 98q168 64 348 64q240 0 358 -121q117 -114 117 -334v-532q0 -49 -35 -84t-86 -35
q-54 0 -88 30q-33 29 -33 74v41q-134 -158 -352 -158zM537 158q125 0 206 63q82 64 82 168v74q-110 43 -245 43q-254 0 -254 -180v-4q0 -75 61 -121q58 -43 150 -43zM582 1208h-4q-52 0 -58 52l-8 53q-9 59 53 65q97 9 97 64v2q0 23 -17 37q-19 16 -53 16q-52 0 -94 -39
q-22 -16 -45 -16q-30 0 -47 20q-21 18 -21 47q0 30 25 52q77 71 184 71q93 0 151 -49q60 -54 60 -135v-2q0 -155 -166 -182v-4q-9 -52 -57 -52z" />
    <glyph glyph-name="uni1EA4" unicode="&#x1ea4;" horiz-adv-x="1583" 
d="M86 106q0 21 16 58l533 1188q47 102 151 102h13q103 0 149 -102l533 -1188q14 -25 14 -53q0 -51 -35 -86t-84 -35q-86 0 -123 88l-116 268h-697l-121 -276q-35 -80 -116 -80q-47 0 -82 35t-35 81zM537 569h503l-252 580zM788 1712l-106 -92q-64 -55 -152 -55
q-55 0 -55 41q0 13 25 49l135 170q50 59 119 59h73q72 0 119 -59l135 -170q25 -36 25 -49q0 -41 -59 -41q-85 0 -152 55zM1120 1751q-61 0 -61 43q0 19 16 45l117 180q38 60 98 60q51 0 99 -25q49 -27 49 -55q0 -32 -35 -62l-137 -131q-58 -55 -146 -55z" />
    <glyph glyph-name="uni1EA5" unicode="&#x1ea5;" 
d="M467 -23q-159 0 -268 86q-115 92 -115 248v4q0 172 125 263q118 86 321 86q152 0 291 -46v27q0 236 -268 236q-133 0 -240 -43q-24 -7 -39 -7q-42 0 -73 31q-31 28 -31 72q0 71 68 98q168 64 348 64q240 0 358 -121q117 -114 117 -334v-532q0 -49 -35 -84t-86 -35
q-54 0 -88 30q-33 29 -33 74v41q-134 -158 -352 -158zM537 158q125 0 206 63q82 64 82 168v74q-110 43 -245 43q-254 0 -254 -180v-4q0 -75 61 -121q58 -43 150 -43zM571 1356l-106 -92q-65 -56 -152 -56q-55 0 -55 41q0 13 25 49l135 170q51 60 119 60h73q71 0 119 -60
l135 -170q25 -36 25 -49q0 -41 -60 -41q-83 0 -151 56zM905 1442q-61 0 -61 43q0 19 16 45l117 180q38 59 98 59q53 0 99 -24q49 -27 49 -55q0 -32 -35 -62l-137 -131q-58 -55 -146 -55z" />
    <glyph glyph-name="uni1EA6" unicode="&#x1ea6;" horiz-adv-x="1583" 
d="M86 106q0 21 16 58l533 1188q47 102 151 102h13q103 0 149 -102l533 -1188q14 -25 14 -53q0 -51 -35 -86t-84 -35q-86 0 -123 88l-116 268h-697l-121 -276q-35 -80 -116 -80q-47 0 -82 35t-35 81zM537 569h503l-252 580zM788 1712l-106 -92q-64 -55 -152 -55
q-55 0 -55 41q0 13 25 49l135 170q50 59 119 59h73q72 0 119 -59l135 -170q25 -36 25 -49q0 -41 -59 -41q-85 0 -152 55zM453 1741q-86 0 -144 55l-139 131q-35 30 -35 62q0 28 49 55q46 24 99 24q60 0 98 -59l117 -180q18 -27 18 -45q0 -43 -63 -43z" />
    <glyph glyph-name="uni1EA7" unicode="&#x1ea7;" 
d="M467 -23q-159 0 -268 86q-115 92 -115 248v4q0 172 125 263q118 86 321 86q152 0 291 -46v27q0 236 -268 236q-133 0 -240 -43q-24 -7 -39 -7q-42 0 -73 31q-31 28 -31 72q0 71 68 98q168 64 348 64q240 0 358 -121q117 -114 117 -334v-532q0 -49 -35 -84t-86 -35
q-54 0 -88 30q-33 29 -33 74v41q-134 -158 -352 -158zM537 158q125 0 206 63q82 64 82 168v74q-110 43 -245 43q-254 0 -254 -180v-4q0 -75 61 -121q58 -43 150 -43zM571 1356l-106 -92q-65 -56 -152 -56q-55 0 -55 41q0 13 25 49l135 170q51 60 119 60h73q71 0 119 -60
l135 -170q25 -36 25 -49q0 -41 -60 -41q-83 0 -151 56zM276 1479q-85 0 -143 55l-139 131q-35 30 -35 61q0 29 49 56q47 24 98 24q61 0 99 -59l117 -180q18 -27 18 -45q0 -43 -64 -43z" />
    <glyph glyph-name="uni1EA8" unicode="&#x1ea8;" horiz-adv-x="1583" 
d="M86 106q0 21 16 58l533 1188q47 102 151 102h13q103 0 149 -102l533 -1188q14 -25 14 -53q0 -51 -35 -86t-84 -35q-86 0 -123 88l-116 268h-697l-121 -276q-35 -80 -116 -80q-47 0 -82 35t-35 81zM537 569h503l-252 580zM788 1710l-106 -92q-64 -55 -152 -55
q-55 0 -55 41q0 13 25 49l135 170q50 59 119 59h73q72 0 119 -59l135 -170q25 -36 25 -49q0 -41 -59 -41q-85 0 -152 55zM1108 1741h-4q-51 0 -57 51l-9 53q-9 60 54 66q96 9 96 63v2q0 23 -17 37q-20 17 -53 17q-52 0 -94 -39q-24 -17 -45 -17q-29 0 -47 21q-21 18 -21 47
t25 51q78 72 184 72q94 0 152 -49q59 -53 59 -136v-2q0 -155 -166 -182v-4q-9 -51 -57 -51z" />
    <glyph glyph-name="uni1EA9" unicode="&#x1ea9;" 
d="M467 -23q-159 0 -268 86q-115 92 -115 248v4q0 172 125 263q118 86 321 86q152 0 291 -46v27q0 236 -268 236q-133 0 -240 -43q-24 -7 -39 -7q-42 0 -73 31q-31 28 -31 72q0 71 68 98q168 64 348 64q240 0 358 -121q117 -114 117 -334v-532q0 -49 -35 -84t-86 -35
q-54 0 -88 30q-33 29 -33 74v41q-134 -158 -352 -158zM537 158q125 0 206 63q82 64 82 168v74q-110 43 -245 43q-254 0 -254 -180v-4q0 -75 61 -121q58 -43 150 -43zM571 1356l-106 -92q-65 -56 -152 -56q-55 0 -55 41q0 13 25 49l135 170q51 60 119 60h73q71 0 119 -60
l135 -170q25 -36 25 -49q0 -41 -60 -41q-83 0 -151 56zM866 1368h-4q-51 0 -57 51l-8 54q-9 59 53 65q96 9 96 64v2q0 23 -16 36q-20 17 -53 17q-53 0 -95 -39q-22 -16 -45 -16q-30 0 -47 20q-20 17 -20 47t24 51q78 72 185 72q93 0 151 -49q60 -54 60 -135v-2
q0 -156 -166 -183v-4q-9 -51 -58 -51z" />
    <glyph glyph-name="uni1EAA" unicode="&#x1eaa;" horiz-adv-x="1583" 
d="M86 106q0 21 16 58l533 1188q47 102 151 102h13q103 0 149 -102l533 -1188q14 -25 14 -53q0 -51 -35 -86t-84 -35q-86 0 -123 88l-116 268h-697l-121 -276q-35 -80 -116 -80q-47 0 -82 35t-35 81zM537 569h503l-252 580zM788 1712l-106 -92q-64 -55 -152 -55
q-55 0 -55 41q0 13 25 49l135 170q50 59 119 59h73q72 0 119 -59l135 -170q25 -36 25 -49q0 -41 -59 -41q-85 0 -152 55zM645 1905q-27 -41 -67 -41q-34 0 -54 20q-22 22 -22 47q0 23 8 47q67 187 209 187q59 0 162 -41t133 -41q59 0 94 65q27 41 68 41q33 0 53 -20
q22 -22 22 -47q0 -23 -8 -47q-67 -187 -209 -187q-59 0 -162 41t-133 41q-59 0 -94 -65z" />
    <glyph glyph-name="uni1EAB" unicode="&#x1eab;" 
d="M467 -23q-159 0 -268 86q-115 92 -115 248v4q0 172 125 263q118 86 321 86q152 0 291 -46v27q0 236 -268 236q-133 0 -240 -43q-24 -7 -39 -7q-42 0 -73 31q-31 28 -31 72q0 71 68 98q168 64 348 64q240 0 358 -121q117 -114 117 -334v-532q0 -49 -35 -84t-86 -35
q-54 0 -88 30q-33 29 -33 74v41q-134 -158 -352 -158zM537 158q125 0 206 63q82 64 82 168v74q-110 43 -245 43q-254 0 -254 -180v-4q0 -75 61 -121q58 -43 150 -43zM571 1356l-106 -92q-65 -56 -152 -56q-55 0 -55 41q0 13 25 49l135 170q51 60 119 60h73q71 0 119 -60
l135 -170q25 -36 25 -49q0 -41 -60 -41q-83 0 -151 56zM342 1651q-27 -41 -68 -41q-33 0 -53 20q-22 22 -22 47q0 23 8 47q67 187 209 187q59 0 162 -41t133 -41q59 0 94 65q27 41 67 41q34 0 54 -20q22 -22 22 -47q0 -23 -8 -47q-67 -187 -209 -187q-59 0 -162 41t-133 41
q-59 0 -94 -65z" />
    <glyph glyph-name="uni1EAC" unicode="&#x1eac;" horiz-adv-x="1583" 
d="M86 106q0 21 16 58l533 1188q47 102 151 102h13q103 0 149 -102l533 -1188q14 -25 14 -53q0 -51 -35 -86t-84 -35q-86 0 -123 88l-116 268h-697l-121 -276q-35 -80 -116 -80q-47 0 -82 35t-35 81zM537 569h503l-252 580zM788 1708l-106 -92q-64 -55 -152 -55
q-55 0 -55 41q0 13 25 49l135 170q50 59 119 59h73q72 0 119 -59l135 -170q25 -36 25 -49q0 -41 -59 -41q-85 0 -152 55zM647 -283v19q0 60 43 100q41 41 103 41q58 0 102 -41q41 -41 41 -100v-19q0 -61 -41 -102q-44 -41 -102 -41q-62 0 -103 41q-43 40 -43 102z" />
    <glyph glyph-name="uni1EAD" unicode="&#x1ead;" 
d="M467 -23q-159 0 -268 86q-115 92 -115 248v4q0 172 125 263q118 86 321 86q152 0 291 -46v27q0 236 -268 236q-133 0 -240 -43q-24 -7 -39 -7q-42 0 -73 31q-31 28 -31 72q0 71 68 98q168 64 348 64q240 0 358 -121q117 -114 117 -334v-532q0 -49 -35 -84t-86 -35
q-54 0 -88 30q-33 29 -33 74v41q-134 -158 -352 -158zM537 158q125 0 206 63q82 64 82 168v74q-110 43 -245 43q-254 0 -254 -180v-4q0 -75 61 -121q58 -43 150 -43zM571 1356l-106 -92q-65 -56 -152 -56q-55 0 -55 41q0 13 25 49l135 170q51 60 119 60h73q71 0 119 -60
l135 -170q25 -36 25 -49q0 -41 -60 -41q-83 0 -151 56zM428 -283v19q0 60 43 100q41 41 102 41q59 0 103 -41q41 -41 41 -100v-19q0 -61 -41 -102q-44 -41 -103 -41q-61 0 -102 41q-43 40 -43 102z" />
    <glyph glyph-name="uni1EAE" unicode="&#x1eae;" horiz-adv-x="1583" 
d="M86 106q0 21 16 58l533 1188q47 102 151 102h13q103 0 149 -102l533 -1188q14 -25 14 -53q0 -51 -35 -86t-84 -35q-86 0 -123 88l-116 268h-697l-121 -276q-35 -80 -116 -80q-47 0 -82 35t-35 81zM537 569h503l-252 580zM791 1567q-222 0 -314 164q-16 37 -16 63
q0 88 86 88q51 0 78 -47q52 -94 166 -94q116 0 165 94q27 47 78 47q86 0 86 -88q0 -26 -16 -63q-92 -164 -313 -164zM762 1862q-62 0 -62 43q0 18 17 45l117 180q38 59 98 59q52 0 98 -24q49 -27 49 -56q0 -31 -35 -61l-137 -131q-58 -55 -145 -55z" />
    <glyph glyph-name="uni1EAF" unicode="&#x1eaf;" 
d="M467 -23q-159 0 -268 86q-115 92 -115 248v4q0 172 125 263q118 86 321 86q152 0 291 -46v27q0 236 -268 236q-133 0 -240 -43q-24 -7 -39 -7q-42 0 -73 31q-31 28 -31 72q0 71 68 98q168 64 348 64q240 0 358 -121q117 -114 117 -334v-532q0 -49 -35 -84t-86 -35
q-54 0 -88 30q-33 29 -33 74v41q-134 -158 -352 -158zM537 158q125 0 206 63q82 64 82 168v74q-110 43 -245 43q-254 0 -254 -180v-4q0 -75 61 -121q58 -43 150 -43zM573 1214q-221 0 -313 164q-16 37 -16 64q0 88 86 88q51 0 78 -47q52 -94 165 -94q117 0 166 94
q27 47 78 47q86 0 86 -88q0 -27 -16 -64q-92 -164 -314 -164zM508 1612q-62 0 -62 43q0 18 17 45l117 180q38 59 98 59q52 0 98 -24q49 -27 49 -55q0 -32 -34 -62l-138 -131q-58 -55 -145 -55z" />
    <glyph glyph-name="uni1EB0" unicode="&#x1eb0;" horiz-adv-x="1583" 
d="M86 106q0 21 16 58l533 1188q47 102 151 102h13q103 0 149 -102l533 -1188q14 -25 14 -53q0 -51 -35 -86t-84 -35q-86 0 -123 88l-116 268h-697l-121 -276q-35 -80 -116 -80q-47 0 -82 35t-35 81zM537 569h503l-252 580zM791 1567q-222 0 -314 164q-16 37 -16 63
q0 88 86 88q51 0 78 -47q52 -94 166 -94q116 0 165 94q27 47 78 47q86 0 86 -88q0 -26 -16 -63q-92 -164 -313 -164zM799 1878q-86 0 -144 55l-139 131q-35 30 -35 62q0 28 49 55q48 25 99 25q60 0 98 -60l117 -180q18 -27 18 -45q0 -43 -63 -43z" />
    <glyph glyph-name="uni1EB1" unicode="&#x1eb1;" 
d="M467 -23q-159 0 -268 86q-115 92 -115 248v4q0 172 125 263q118 86 321 86q152 0 291 -46v27q0 236 -268 236q-133 0 -240 -43q-24 -7 -39 -7q-42 0 -73 31q-31 28 -31 72q0 71 68 98q168 64 348 64q240 0 358 -121q117 -114 117 -334v-532q0 -49 -35 -84t-86 -35
q-54 0 -88 30q-33 29 -33 74v41q-134 -158 -352 -158zM537 158q125 0 206 63q82 64 82 168v74q-110 43 -245 43q-254 0 -254 -180v-4q0 -75 61 -121q58 -43 150 -43zM573 1214q-221 0 -313 164q-16 37 -16 64q0 88 86 88q51 0 78 -47q52 -94 165 -94q117 0 166 94
q27 47 78 47q86 0 86 -88q0 -27 -16 -64q-92 -164 -314 -164zM635 1612q-85 0 -143 55l-140 131q-35 30 -35 62q0 28 50 55q47 24 98 24q60 0 98 -59l117 -180q18 -27 18 -45q0 -43 -63 -43z" />
    <glyph glyph-name="uni1EB2" unicode="&#x1eb2;" horiz-adv-x="1583" 
d="M86 106q0 21 16 58l533 1188q47 102 151 102h13q103 0 149 -102l533 -1188q14 -25 14 -53q0 -51 -35 -86t-84 -35q-86 0 -123 88l-116 268h-697l-121 -276q-35 -80 -116 -80q-47 0 -82 35t-35 81zM537 569h503l-252 580zM791 1561q-223 0 -314 163q-16 37 -16 64
q0 88 86 88q51 0 78 -47q52 -94 166 -94q116 0 165 94q27 47 78 47q86 0 86 -88q0 -27 -16 -64q-91 -163 -313 -163zM770 1892h-4q-51 0 -57 37l-9 41q-4 22 9.5 34t44.5 15q96 6 96 47v2q0 17 -16 27q-18 12 -54 12q-53 0 -94 -28q-23 -13 -45 -13q-27 0 -47 17
q-21 12 -21 35t25 39q77 53 184 53q94 0 152 -37q59 -41 59 -102q0 -117 -166 -138v-4q-9 -37 -57 -37z" />
    <glyph glyph-name="uni1EB3" unicode="&#x1eb3;" 
d="M467 -23q-159 0 -268 86q-115 92 -115 248v4q0 172 125 263q118 86 321 86q152 0 291 -46v27q0 236 -268 236q-133 0 -240 -43q-24 -7 -39 -7q-42 0 -73 31q-31 28 -31 72q0 71 68 98q168 64 348 64q240 0 358 -121q117 -114 117 -334v-532q0 -49 -35 -84t-86 -35
q-54 0 -88 30q-33 29 -33 74v41q-134 -158 -352 -158zM537 158q125 0 206 63q82 64 82 168v74q-110 43 -245 43q-254 0 -254 -180v-4q0 -75 61 -121q58 -43 150 -43zM573 1214q-221 0 -313 164q-16 37 -16 64q0 88 86 88q51 0 78 -47q52 -94 165 -94q117 0 166 94
q27 47 78 47q86 0 86 -88q0 -27 -16 -64q-92 -164 -314 -164zM559 1636h-4q-51 0 -57 52l-9 53q-9 59 54 65q96 9 96 64v2q0 24 -16 37q-19 16 -54 16q-52 0 -94 -39q-22 -16 -45 -16q-30 0 -47 20q-21 18 -21 47q0 30 25 52q77 71 184 71q94 0 152 -49q59 -53 59 -135v-2
q0 -155 -166 -182v-4q-9 -52 -57 -52z" />
    <glyph glyph-name="uni1EB4" unicode="&#x1eb4;" horiz-adv-x="1583" 
d="M86 106q0 21 16 58l533 1188q47 102 151 102h13q103 0 149 -102l533 -1188q14 -25 14 -53q0 -51 -35 -86t-84 -35q-86 0 -123 88l-116 268h-697l-121 -276q-35 -80 -116 -80q-47 0 -82 35t-35 81zM537 569h503l-252 580zM791 1565q-222 0 -314 164q-16 37 -16 63
q0 88 86 88q51 0 78 -47q52 -94 166 -94q116 0 165 94q27 47 78 47q86 0 86 -88q0 -26 -16 -63q-92 -164 -313 -164zM580 1942q-27 -41 -68 -41q-33 0 -53 20q-23 23 -23 47q0 23 8 47q67 187 209 187q59 0 162 -41t133 -41q59 0 94 65q27 41 68 41q33 0 53 -20
q23 -23 23 -47t-8 -48q-67 -186 -209 -186q-59 0 -162 41t-133 41q-59 0 -94 -65z" />
    <glyph glyph-name="uni1EB5" unicode="&#x1eb5;" 
d="M467 -23q-159 0 -268 86q-115 92 -115 248v4q0 172 125 263q118 86 321 86q152 0 291 -46v27q0 236 -268 236q-133 0 -240 -43q-24 -7 -39 -7q-42 0 -73 31q-31 28 -31 72q0 71 68 98q168 64 348 64q240 0 358 -121q117 -114 117 -334v-532q0 -49 -35 -84t-86 -35
q-54 0 -88 30q-33 29 -33 74v41q-134 -158 -352 -158zM537 158q125 0 206 63q82 64 82 168v74q-110 43 -245 43q-254 0 -254 -180v-4q0 -75 61 -121q58 -43 150 -43zM573 1214q-221 0 -313 164q-16 37 -16 64q0 88 86 88q51 0 78 -47q52 -94 165 -94q117 0 166 94
q27 47 78 47q86 0 86 -88q0 -27 -16 -64q-92 -164 -314 -164zM342 1653q-27 -41 -68 -41q-33 0 -53 20q-22 22 -22 47q0 23 8 47q67 187 209 187q59 0 162 -41t133 -41q59 0 94 65q27 41 67 41q34 0 54 -20q22 -22 22 -47q0 -23 -8 -47q-67 -187 -209 -187q-59 0 -162 41
t-133 41q-59 0 -94 -65z" />
    <glyph glyph-name="uni1EB6" unicode="&#x1eb6;" horiz-adv-x="1583" 
d="M86 106q0 21 16 58l533 1188q47 102 151 102h13q103 0 149 -102l533 -1188q14 -25 14 -53q0 -51 -35 -86t-84 -35q-86 0 -123 88l-116 268h-697l-121 -276q-35 -80 -116 -80q-47 0 -82 35t-35 81zM537 569h503l-252 580zM791 1567q-222 0 -314 164q-16 37 -16 63
q0 88 86 88q51 0 78 -47q52 -94 166 -94q116 0 165 94q27 47 78 47q86 0 86 -88q0 -26 -16 -63q-92 -164 -313 -164zM647 -283v19q0 60 43 100q41 41 103 41q58 0 102 -41q41 -41 41 -100v-19q0 -61 -41 -102q-44 -41 -102 -41q-62 0 -103 41q-43 40 -43 102z" />
    <glyph glyph-name="uni1EB7" unicode="&#x1eb7;" 
d="M467 -23q-159 0 -268 86q-115 92 -115 248v4q0 172 125 263q118 86 321 86q152 0 291 -46v27q0 236 -268 236q-133 0 -240 -43q-24 -7 -39 -7q-42 0 -73 31q-31 28 -31 72q0 71 68 98q168 64 348 64q240 0 358 -121q117 -114 117 -334v-532q0 -49 -35 -84t-86 -35
q-54 0 -88 30q-33 29 -33 74v41q-134 -158 -352 -158zM537 158q125 0 206 63q82 64 82 168v74q-110 43 -245 43q-254 0 -254 -180v-4q0 -75 61 -121q58 -43 150 -43zM573 1214q-221 0 -313 164q-16 37 -16 64q0 88 86 88q51 0 78 -47q52 -94 165 -94q117 0 166 94
q27 47 78 47q86 0 86 -88q0 -27 -16 -64q-92 -164 -314 -164zM428 -283v19q0 60 43 100q41 41 102 41q59 0 103 -41q41 -41 41 -100v-19q0 -61 -41 -102q-44 -41 -103 -41q-61 0 -102 41q-43 40 -43 102z" />
    <glyph glyph-name="uni1EB8" unicode="&#x1eb8;" horiz-adv-x="1372" 
d="M1155 0h-844q-53 0 -90 37t-37 90v1180q0 53 37 90t90 37h834q47 0 80 -33q32 -32 32 -80t-32 -80q-33 -33 -80 -33h-709v-372h617q47 0 80 -33q32 -32 32 -82q0 -46 -32 -78q-33 -33 -80 -33h-617v-385h719q48 0 80 -32q33 -33 33 -80t-33 -80t-80 -33zM582 -283v19
q0 60 43 100q41 41 102 41q58 0 102 -41q41 -41 41 -100v-19q0 -61 -41 -102q-44 -41 -102 -41q-61 0 -102 41q-43 40 -43 102z" />
    <glyph glyph-name="uni1EB9" unicode="&#x1eb9;" horiz-adv-x="1236" 
d="M342 616h555q-12 127 -82 203q-73 82 -192 82q-112 0 -189 -80q-77 -77 -92 -205zM1040 119q-159 -144 -389 -144q-239 0 -395 156q-160 157 -160 406v4q0 232 148 397q150 166 381 166q243 0 387 -172q127 -154 127 -361q0 -51 -35 -86q-32 -32 -82 -32h-678
q21 -129 107 -203q84 -72 204 -72q143 0 256 94q30 23 64 23q40 0 69 -29t29 -71q0 -43 -33 -76zM473 -283v19q0 60 43 100q41 41 102 41q59 0 103 -41q41 -41 41 -100v-19q0 -61 -41 -102q-44 -41 -103 -41q-61 0 -102 41q-43 40 -43 102z" />
    <glyph glyph-name="uni1EBA" unicode="&#x1eba;" horiz-adv-x="1372" 
d="M1155 0h-844q-53 0 -90 37t-37 90v1180q0 53 37 90t90 37h834q47 0 80 -33q32 -32 32 -80t-32 -80q-33 -33 -80 -33h-709v-372h617q47 0 80 -33q32 -32 32 -82q0 -46 -32 -78q-33 -33 -80 -33h-617v-385h719q48 0 80 -32q33 -33 33 -80t-33 -80t-80 -33zM713 1561h-4
q-52 0 -58 51l-8 53q-9 60 53 66q97 9 97 63v2q0 23 -17 37q-19 16 -53 16q-52 0 -94 -39q-22 -16 -45 -16q-29 0 -47 21q-21 18 -21 47t25 51q78 72 184 72q93 0 152 -50q59 -53 59 -135v-2q0 -155 -166 -182v-4q-9 -51 -57 -51z" />
    <glyph glyph-name="uni1EBB" unicode="&#x1ebb;" horiz-adv-x="1236" 
d="M342 616h555q-12 127 -82 203q-73 82 -192 82q-112 0 -189 -80q-77 -77 -92 -205zM1040 119q-159 -144 -389 -144q-239 0 -395 156q-160 157 -160 406v4q0 232 148 397q150 166 381 166q243 0 387 -172q127 -154 127 -361q0 -51 -35 -86q-32 -32 -82 -32h-678
q21 -129 107 -203q84 -72 204 -72q143 0 256 94q30 23 64 23q40 0 69 -29t29 -71q0 -43 -33 -76zM604 1208h-4q-51 0 -57 52l-8 53q-9 59 53 65q96 9 96 64v2q0 24 -16 37q-19 16 -54 16q-52 0 -94 -39q-22 -16 -45 -16q-30 0 -47 20q-20 17 -20 47q0 31 24 52q77 71 184 71
q94 0 152 -49q59 -53 59 -135v-2q0 -155 -165 -182v-4q-9 -52 -58 -52z" />
    <glyph glyph-name="uni1EBC" unicode="&#x1ebc;" horiz-adv-x="1372" 
d="M1155 0h-844q-53 0 -90 37t-37 90v1180q0 53 37 90t90 37h834q47 0 80 -33q32 -32 32 -80t-32 -80q-33 -33 -80 -33h-709v-372h617q47 0 80 -33q32 -32 32 -82q0 -46 -32 -78q-33 -33 -80 -33h-617v-385h719q48 0 80 -32q33 -33 33 -80t-33 -80t-80 -33zM496 1587
q-27 -41 -68 -41q-32 0 -53 21q-23 23 -23 47q0 23 8 47q67 186 209 186q59 0 162 -41t133 -41q59 0 94 66q27 41 68 41q32 0 53 -21q23 -23 23 -47q0 -23 -8 -47q-67 -186 -209 -186q-59 0 -162 41t-133 41q-59 0 -94 -66z" />
    <glyph glyph-name="uni1EBD" unicode="&#x1ebd;" horiz-adv-x="1236" 
d="M342 616h555q-12 127 -82 203q-73 82 -192 82q-112 0 -189 -80q-77 -77 -92 -205zM1040 119q-159 -144 -389 -144q-239 0 -395 156q-160 157 -160 406v4q0 232 148 397q150 166 381 166q243 0 387 -172q127 -154 127 -361q0 -51 -35 -86q-32 -32 -82 -32h-678
q21 -129 107 -203q84 -72 204 -72q143 0 256 94q30 23 64 23q40 0 69 -29t29 -71q0 -43 -33 -76zM387 1235q-27 -41 -68 -41q-33 0 -53 20q-22 22 -22 48q0 23 8 47q67 186 209 186q59 0 162 -41t133 -41q59 0 94 66q27 41 68 41q32 0 53 -21q22 -22 22 -47q0 -23 -8 -47
q-67 -186 -209 -186q-59 0 -162 41q-101 40 -133 40q-59 0 -94 -65z" />
    <glyph glyph-name="uni1EBE" unicode="&#x1ebe;" horiz-adv-x="1372" 
d="M1155 0h-844q-53 0 -90 37t-37 90v1180q0 53 37 90t90 37h834q47 0 80 -33q32 -32 32 -80t-32 -80q-33 -33 -80 -33h-709v-372h617q47 0 80 -33q32 -32 32 -82q0 -46 -32 -78q-33 -33 -80 -33h-617v-385h719q48 0 80 -32q33 -33 33 -80t-33 -80t-80 -33zM725 1712
l-107 -92q-64 -55 -151 -55q-55 0 -55 41q0 14 24 49l135 170q50 59 119 59h74q72 0 119 -59l135 -170q24 -35 24 -49q0 -41 -59 -41q-85 0 -152 55zM1057 1751q-62 0 -62 43q0 18 17 45l116 180q38 60 99 60q50 0 98 -25q49 -27 49 -55q0 -32 -35 -62l-137 -131
q-58 -55 -145 -55z" />
    <glyph glyph-name="uni1EBF" unicode="&#x1ebf;" horiz-adv-x="1236" 
d="M342 616h555q-12 127 -82 203q-73 82 -192 82q-112 0 -189 -80q-77 -77 -92 -205zM1040 119q-159 -144 -389 -144q-239 0 -395 156q-160 157 -160 406v4q0 232 148 397q150 166 381 166q243 0 387 -172q127 -154 127 -361q0 -51 -35 -86q-32 -32 -82 -32h-678
q21 -129 107 -203q84 -72 204 -72q143 0 256 94q30 23 64 23q40 0 69 -29t29 -71q0 -43 -33 -76zM616 1356l-106 -92q-65 -56 -152 -56q-55 0 -55 41q0 13 25 49l135 170q51 60 119 60h73q71 0 119 -60l135 -170q25 -36 25 -49q0 -41 -60 -41q-83 0 -151 56zM940 1368
q-61 0 -61 43q0 19 16 45l117 180q38 60 98 60q50 0 98 -25q49 -27 49 -55q0 -32 -34 -62l-138 -131q-58 -55 -145 -55z" />
    <glyph glyph-name="uni1EC0" unicode="&#x1ec0;" horiz-adv-x="1372" 
d="M1155 0h-844q-53 0 -90 37t-37 90v1180q0 53 37 90t90 37h834q47 0 80 -33q32 -32 32 -80t-32 -80q-33 -33 -80 -33h-709v-372h617q47 0 80 -33q32 -32 32 -82q0 -46 -32 -78q-33 -33 -80 -33h-617v-385h719q48 0 80 -32q33 -33 33 -80t-33 -80t-80 -33zM725 1712
l-107 -92q-64 -55 -151 -55q-55 0 -55 41q0 14 24 49l135 170q50 59 119 59h74q72 0 119 -59l135 -170q24 -35 24 -49q0 -41 -59 -41q-85 0 -152 55zM389 1741q-85 0 -143 55l-140 131q-34 30 -34 62q0 28 49 55q47 24 98 24q60 0 98 -59l117 -180q19 -29 19 -45
q0 -43 -64 -43z" />
    <glyph glyph-name="uni1EC1" unicode="&#x1ec1;" horiz-adv-x="1236" 
d="M342 616h555q-12 127 -82 203q-73 82 -192 82q-112 0 -189 -80q-77 -77 -92 -205zM1040 119q-159 -144 -389 -144q-239 0 -395 156q-160 157 -160 406v4q0 232 148 397q150 166 381 166q243 0 387 -172q127 -154 127 -361q0 -51 -35 -86q-32 -32 -82 -32h-678
q21 -129 107 -203q84 -72 204 -72q143 0 256 94q30 23 64 23q40 0 69 -29t29 -71q0 -43 -33 -76zM616 1356l-106 -92q-65 -56 -152 -56q-55 0 -55 41q0 13 25 49l135 170q51 60 119 60h73q71 0 119 -60l135 -170q25 -36 25 -49q0 -41 -60 -41q-83 0 -151 56zM301 1444
q-85 0 -143 55l-140 131q-34 30 -34 62q0 28 49 55q48 25 98 25q60 0 98 -60l117 -180q19 -28 19 -45q0 -43 -64 -43z" />
    <glyph glyph-name="uni1EC2" unicode="&#x1ec2;" horiz-adv-x="1372" 
d="M1155 0h-844q-53 0 -90 37t-37 90v1180q0 53 37 90t90 37h834q47 0 80 -33q32 -32 32 -80t-32 -80q-33 -33 -80 -33h-709v-372h617q47 0 80 -33q32 -32 32 -82q0 -46 -32 -78q-33 -33 -80 -33h-617v-385h719q48 0 80 -32q33 -33 33 -80t-33 -80t-80 -33zM725 1710
l-107 -92q-64 -55 -151 -55q-55 0 -55 41q0 14 24 49l135 170q50 59 119 59h74q72 0 119 -59l135 -170q24 -34 24 -49q0 -41 -59 -41q-85 0 -152 55zM1044 1741h-4q-51 0 -57 51l-8 53q-9 60 53 66q96 9 96 63v2q0 24 -16 37q-20 17 -53 17q-52 0 -94 -39q-24 -17 -46 -17
q-29 0 -47 21q-20 17 -20 47t24 51q78 72 185 72q93 0 151 -49q60 -54 60 -136v-2q0 -155 -166 -182v-4q-9 -51 -58 -51z" />
    <glyph glyph-name="uni1EC3" unicode="&#x1ec3;" horiz-adv-x="1236" 
d="M342 616h555q-12 127 -82 203q-73 82 -192 82q-112 0 -189 -80q-77 -77 -92 -205zM1040 119q-159 -144 -389 -144q-239 0 -395 156q-160 157 -160 406v4q0 232 148 397q150 166 381 166q243 0 387 -172q127 -154 127 -361q0 -51 -35 -86q-32 -32 -82 -32h-678
q21 -129 107 -203q84 -72 204 -72q143 0 256 94q30 23 64 23q40 0 69 -29t29 -71q0 -43 -33 -76zM616 1356l-106 -92q-65 -56 -152 -56q-55 0 -55 41q0 13 25 49l135 170q51 60 119 60h73q71 0 119 -60l135 -170q25 -36 25 -49q0 -41 -60 -41q-83 0 -151 56zM928 1430h-4
q-52 0 -58 51l-8 53q-9 59 53 65q97 9 97 64v2q0 23 -17 37q-19 16 -53 16q-52 0 -94 -39q-22 -16 -45 -16q-30 0 -47 20q-21 18 -21 48q0 29 25 51q77 71 184 71q94 0 152 -49q59 -53 59 -135v-2q0 -155 -166 -182v-4q-9 -51 -57 -51z" />
    <glyph glyph-name="uni1EC4" unicode="&#x1ec4;" horiz-adv-x="1372" 
d="M1155 0h-844q-53 0 -90 37t-37 90v1180q0 53 37 90t90 37h834q47 0 80 -33q32 -32 32 -80t-32 -80q-33 -33 -80 -33h-709v-372h617q47 0 80 -33q32 -32 32 -82q0 -46 -32 -78q-33 -33 -80 -33h-617v-385h719q48 0 80 -32q33 -33 33 -80t-33 -80t-80 -33zM725 1712
l-107 -92q-64 -55 -151 -55q-55 0 -55 41q0 14 24 49l135 170q50 59 119 59h74q72 0 119 -59l135 -170q24 -35 24 -49q0 -41 -59 -41q-85 0 -152 55zM582 1905q-27 -41 -68 -41q-33 0 -53 20q-23 23 -23 47q0 23 8 47q67 187 209 187q59 0 162 -41t133 -41q59 0 94 65
q27 41 68 41q33 0 53 -20q23 -23 23 -47q0 -23 -8 -47q-67 -187 -209 -187q-59 0 -162 41t-133 41q-59 0 -94 -65z" />
    <glyph glyph-name="uni1EC5" unicode="&#x1ec5;" horiz-adv-x="1236" 
d="M342 616h555q-12 127 -82 203q-73 82 -192 82q-112 0 -189 -80q-77 -77 -92 -205zM1040 119q-159 -144 -389 -144q-239 0 -395 156q-160 157 -160 406v4q0 232 148 397q150 166 381 166q243 0 387 -172q127 -154 127 -361q0 -51 -35 -86q-32 -32 -82 -32h-678
q21 -129 107 -203q84 -72 204 -72q143 0 256 94q30 23 64 23q40 0 69 -29t29 -71q0 -43 -33 -76zM616 1356l-106 -92q-65 -56 -152 -56q-55 0 -55 41q0 13 25 49l135 170q51 60 119 60h73q71 0 119 -60l135 -170q25 -36 25 -49q0 -41 -60 -41q-83 0 -151 56zM387 1651
q-27 -41 -68 -41q-33 0 -53 20q-22 22 -22 47q0 23 8 47q67 187 209 187q59 0 162 -41t133 -41q59 0 94 65q27 41 68 41q33 0 53 -20q22 -22 22 -47q0 -23 -8 -47q-67 -187 -209 -187q-59 0 -162 41t-133 41q-59 0 -94 -65z" />
    <glyph glyph-name="uni1EC6" unicode="&#x1ec6;" horiz-adv-x="1372" 
d="M1155 0h-844q-53 0 -90 37t-37 90v1180q0 53 37 90t90 37h834q47 0 80 -33q32 -32 32 -80t-32 -80q-33 -33 -80 -33h-709v-372h617q47 0 80 -33q32 -32 32 -82q0 -46 -32 -78q-33 -33 -80 -33h-617v-385h719q48 0 80 -32q33 -33 33 -80t-33 -80t-80 -33zM725 1708
l-107 -92q-64 -55 -151 -55q-55 0 -55 41q0 14 24 49l135 170q50 59 119 59h74q72 0 119 -59l135 -170q24 -34 24 -49q0 -41 -59 -41q-85 0 -152 55zM582 -283v19q0 60 43 100q41 41 102 41q58 0 102 -41q41 -41 41 -100v-19q0 -61 -41 -102q-44 -41 -102 -41q-61 0 -102 41
q-43 40 -43 102z" />
    <glyph glyph-name="uni1EC7" unicode="&#x1ec7;" horiz-adv-x="1236" 
d="M342 616h555q-12 127 -82 203q-73 82 -192 82q-112 0 -189 -80q-77 -77 -92 -205zM1040 119q-159 -144 -389 -144q-239 0 -395 156q-160 157 -160 406v4q0 232 148 397q150 166 381 166q243 0 387 -172q127 -154 127 -361q0 -51 -35 -86q-32 -32 -82 -32h-678
q21 -129 107 -203q84 -72 204 -72q143 0 256 94q30 23 64 23q40 0 69 -29t29 -71q0 -43 -33 -76zM616 1356l-106 -92q-65 -56 -152 -56q-55 0 -55 41q0 13 25 49l135 170q51 60 119 60h73q71 0 119 -60l135 -170q25 -36 25 -49q0 -41 -60 -41q-83 0 -151 56zM473 -283v19
q0 60 43 100q41 41 102 41q59 0 103 -41q41 -41 41 -100v-19q0 -61 -41 -102q-44 -41 -103 -41q-61 0 -102 41q-43 40 -43 102z" />
    <glyph glyph-name="uni1EC8" unicode="&#x1ec8;" horiz-adv-x="649" 
d="M199 115v1204q0 54 37 88q37 37 90 37q54 0 88 -37q37 -34 37 -88v-1204q0 -51 -37 -88q-34 -37 -88 -37q-53 0 -90 37q-37 34 -37 88zM311 1561h-4q-51 0 -57 51l-8 53q-9 60 53 66q96 9 96 63v2q0 24 -16 37q-19 16 -53 16q-53 0 -95 -39q-22 -16 -45 -16q-29 0 -47 21
q-20 17 -20 47t24 51q78 72 185 72q92 0 151 -50q60 -54 60 -135v-2q0 -155 -166 -182v-4q-9 -51 -58 -51z" />
    <glyph glyph-name="uni1EC9" unicode="&#x1ec9;" horiz-adv-x="585" 
d="M170 113v856q0 53 35 88q37 37 88 37q54 0 88 -37q37 -34 37 -88v-856q0 -51 -37 -88q-35 -35 -88 -35q-51 0 -86 35q-37 37 -37 88zM281 1208h-5q-51 0 -57 52l-8 53q-9 59 53 65q96 9 96 64v2q0 24 -16 37q-19 16 -53 16q-52 0 -94 -39q-22 -16 -45 -16q-31 0 -48 20
q-20 17 -20 47t25 52q77 71 184 71q93 0 151 -49q60 -54 60 -135v-2q0 -155 -166 -182v-4q-9 -52 -57 -52z" />
    <glyph glyph-name="uni1ECA" unicode="&#x1eca;" horiz-adv-x="649" 
d="M199 115v1204q0 54 37 88q37 37 90 37q54 0 88 -37q37 -34 37 -88v-1204q0 -51 -37 -88q-34 -37 -88 -37q-53 0 -90 37q-37 34 -37 88zM180 -283v19q0 60 43 100q41 41 103 41q58 0 102 -41q41 -41 41 -100v-19q0 -61 -41 -102q-44 -41 -102 -41q-62 0 -103 41
q-43 40 -43 102z" />
    <glyph glyph-name="uni1ECB" unicode="&#x1ecb;" horiz-adv-x="585" 
d="M152 1360v12q0 53 41 88q39 33 100 33t100 -33q41 -35 41 -88v-12q0 -53 -41 -88t-100 -35t-100 35t-41 88zM170 113v856q0 53 35 88q37 37 88 37q54 0 88 -37q37 -34 37 -88v-856q0 -51 -37 -88q-35 -35 -88 -35q-51 0 -86 35q-37 37 -37 88zM150 -283v19q0 60 43 100
q41 41 102 41q58 0 102 -41q41 -41 41 -100v-19q0 -61 -41 -102q-44 -41 -102 -41q-61 0 -102 41q-43 40 -43 102z" />
    <glyph glyph-name="uni1ECC" unicode="&#x1ecc;" horiz-adv-x="1740" 
d="M868 -25q-326 0 -538 218q-209 212 -209 520v4q0 308 211 522q216 219 540 219q328 0 539 -217q209 -212 209 -520v-4q0 -308 -211 -522q-217 -220 -541 -220zM872 209q211 0 349 147q135 144 135 357v4q0 214 -137 360q-138 150 -351 150q-209 0 -348 -148
q-135 -144 -135 -358v-4q0 -216 137 -359q137 -149 350 -149zM727 -283v19q0 60 43 100q41 41 102 41q59 0 103 -41q41 -41 41 -100v-19q0 -61 -41 -102q-44 -41 -103 -41q-61 0 -102 41q-43 40 -43 102z" />
    <glyph glyph-name="uni1ECD" unicode="&#x1ecd;" horiz-adv-x="1345" 
d="M670 -25q-246 0 -410 164t-164 396v4q0 235 164 399q169 166 414 166q244 0 411 -164q164 -164 164 -397v-4q0 -234 -164 -398q-169 -166 -415 -166zM674 193q149 0 239 100q88 98 88 242v4q0 142 -92 245q-95 103 -239 103q-147 0 -238 -101q-88 -98 -88 -243v-4
q0 -141 92 -244q94 -102 238 -102zM528 -283v19q0 60 43 100q41 41 103 41q58 0 102 -41q41 -41 41 -100v-19q0 -61 -41 -102q-44 -41 -102 -41q-62 0 -103 41q-43 40 -43 102z" />
    <glyph glyph-name="uni1ECE" unicode="&#x1ece;" horiz-adv-x="1740" 
d="M868 -25q-326 0 -538 218q-209 212 -209 520v4q0 308 211 522q216 219 540 219q328 0 539 -217q209 -212 209 -520v-4q0 -308 -211 -522q-217 -220 -541 -220zM872 209q211 0 349 147q135 144 135 357v4q0 214 -137 360q-138 150 -351 150q-209 0 -348 -148
q-135 -144 -135 -358v-4q0 -216 137 -359q137 -149 350 -149zM856 1561h-4q-51 0 -57 51l-9 53q-9 60 54 66q96 9 96 63v2q0 24 -16 37q-19 16 -54 16q-52 0 -94 -39q-22 -16 -45 -16q-29 0 -47 21q-21 18 -21 47t25 51q78 72 184 72q93 0 152 -50q59 -53 59 -135v-2
q0 -155 -166 -182v-4q-9 -51 -57 -51z" />
    <glyph glyph-name="uni1ECF" unicode="&#x1ecf;" horiz-adv-x="1345" 
d="M670 -25q-246 0 -410 164t-164 396v4q0 235 164 399q169 166 414 166q244 0 411 -164q164 -164 164 -397v-4q0 -234 -164 -398q-169 -166 -415 -166zM674 193q149 0 239 100q88 98 88 242v4q0 142 -92 245q-95 103 -239 103q-147 0 -238 -101q-88 -98 -88 -243v-4
q0 -141 92 -244q94 -102 238 -102zM659 1208h-4q-51 0 -57 52l-8 53q-9 59 53 65q96 9 96 64v2q0 24 -16 37q-19 16 -53 16q-53 0 -95 -39q-22 -16 -45 -16q-30 0 -47 20q-20 17 -20 47q0 31 24 52q77 71 185 71q93 0 151 -49q60 -54 60 -135v-2q0 -155 -166 -182v-4
q-9 -52 -58 -52z" />
    <glyph glyph-name="uni1ED0" unicode="&#x1ed0;" horiz-adv-x="1740" 
d="M868 -25q-326 0 -538 218q-209 212 -209 520v4q0 308 211 522q216 219 540 219q328 0 539 -217q209 -212 209 -520v-4q0 -308 -211 -522q-217 -220 -541 -220zM872 209q211 0 349 147q135 144 135 357v4q0 214 -137 360q-138 150 -351 150q-209 0 -348 -148
q-135 -144 -135 -358v-4q0 -216 137 -359q137 -149 350 -149zM868 1712l-106 -92q-64 -55 -152 -55q-55 0 -55 41q0 13 25 49l135 170q50 59 119 59h73q72 0 119 -59l135 -170q25 -36 25 -49q0 -41 -60 -41q-84 0 -151 55zM1200 1751q-61 0 -61 43q0 19 16 45l117 180
q38 60 98 60q50 0 98 -25q50 -27 50 -55q0 -32 -35 -62l-137 -131q-58 -55 -146 -55z" />
    <glyph glyph-name="uni1ED1" unicode="&#x1ed1;" horiz-adv-x="1345" 
d="M670 -25q-246 0 -410 164t-164 396v4q0 235 164 399q169 166 414 166q244 0 411 -164q164 -164 164 -397v-4q0 -234 -164 -398q-169 -166 -415 -166zM674 193q149 0 239 100q88 98 88 242v4q0 142 -92 245q-95 103 -239 103q-147 0 -238 -101q-88 -98 -88 -243v-4
q0 -141 92 -244q94 -102 238 -102zM672 1356l-107 -92q-65 -56 -151 -56q-56 0 -56 41q0 13 25 49l135 170q51 60 119 60h74q70 0 118 -60l136 -170q24 -34 24 -49q0 -41 -59 -41q-84 0 -152 56zM1022 1368q-61 0 -61 43q0 19 16 45l117 180q38 60 98 60q50 0 98 -25
q49 -27 49 -55q0 -32 -34 -62l-138 -131q-58 -55 -145 -55z" />
    <glyph glyph-name="uni1ED2" unicode="&#x1ed2;" horiz-adv-x="1740" 
d="M868 -25q-326 0 -538 218q-209 212 -209 520v4q0 308 211 522q216 219 540 219q328 0 539 -217q209 -212 209 -520v-4q0 -308 -211 -522q-217 -220 -541 -220zM872 209q211 0 349 147q135 144 135 357v4q0 214 -137 360q-138 150 -351 150q-209 0 -348 -148
q-135 -144 -135 -358v-4q0 -216 137 -359q137 -149 350 -149zM868 1712l-106 -92q-64 -55 -152 -55q-55 0 -55 41q0 13 25 49l135 170q50 59 119 59h73q72 0 119 -59l135 -170q25 -36 25 -49q0 -41 -60 -41q-84 0 -151 55zM532 1741q-85 0 -143 55l-139 131q-35 30 -35 62
q0 28 49 55q46 24 98 24q61 0 99 -59l117 -180q18 -27 18 -45q0 -43 -64 -43z" />
    <glyph glyph-name="uni1ED3" unicode="&#x1ed3;" horiz-adv-x="1345" 
d="M670 -25q-246 0 -410 164t-164 396v4q0 235 164 399q169 166 414 166q244 0 411 -164q164 -164 164 -397v-4q0 -234 -164 -398q-169 -166 -415 -166zM674 193q149 0 239 100q88 98 88 242v4q0 142 -92 245q-95 103 -239 103q-147 0 -238 -101q-88 -98 -88 -243v-4
q0 -141 92 -244q94 -102 238 -102zM672 1356l-107 -92q-65 -56 -151 -56q-56 0 -56 41q0 13 25 49l135 170q51 60 119 60h74q70 0 118 -60l136 -170q24 -34 24 -49q0 -41 -59 -41q-84 0 -152 56zM360 1448q-85 0 -143 55l-139 131q-35 30 -35 62q0 28 49 55q48 25 98 25
q61 0 99 -60l117 -180q18 -27 18 -45q0 -43 -64 -43z" />
    <glyph glyph-name="uni1ED4" unicode="&#x1ed4;" horiz-adv-x="1740" 
d="M868 -25q-326 0 -538 218q-209 212 -209 520v4q0 308 211 522q216 219 540 219q328 0 539 -217q209 -212 209 -520v-4q0 -308 -211 -522q-217 -220 -541 -220zM872 209q211 0 349 147q135 144 135 357v4q0 214 -137 360q-138 150 -351 150q-209 0 -348 -148
q-135 -144 -135 -358v-4q0 -216 137 -359q137 -149 350 -149zM868 1710l-106 -92q-64 -55 -152 -55q-55 0 -55 41q0 13 25 49l135 170q50 59 119 59h73q72 0 119 -59l135 -170q25 -36 25 -49q0 -41 -60 -41q-84 0 -151 55zM1188 1741h-4q-52 0 -58 51l-8 53q-9 60 53 66
q97 9 97 63v2q0 23 -17 37q-20 17 -53 17q-52 0 -94 -39q-24 -17 -45 -17q-29 0 -47 21q-21 18 -21 47t25 51q78 72 184 72q94 0 152 -49q59 -53 59 -136v-2q0 -155 -166 -182v-4q-9 -51 -57 -51z" />
    <glyph glyph-name="uni1ED5" unicode="&#x1ed5;" horiz-adv-x="1345" 
d="M670 -25q-246 0 -410 164t-164 396v4q0 235 164 399q169 166 414 166q244 0 411 -164q164 -164 164 -397v-4q0 -234 -164 -398q-169 -166 -415 -166zM674 193q149 0 239 100q88 98 88 242v4q0 142 -92 245q-95 103 -239 103q-147 0 -238 -101q-88 -98 -88 -243v-4
q0 -141 92 -244q94 -102 238 -102zM672 1356l-107 -92q-65 -56 -151 -56q-56 0 -56 41q0 13 25 49l135 170q51 60 119 60h74q70 0 118 -60l136 -170q24 -34 24 -49q0 -41 -59 -41q-84 0 -152 56zM985 1368h-4q-51 0 -57 51l-9 54q-9 59 54 65q96 9 96 64v2q0 23 -16 36
q-20 17 -54 17q-52 0 -94 -39q-22 -16 -45 -16q-30 0 -47 20q-21 18 -21 47t25 51q78 72 184 72q94 0 152 -49q59 -53 59 -135v-2q0 -156 -166 -183v-4q-9 -51 -57 -51z" />
    <glyph glyph-name="uni1ED6" unicode="&#x1ed6;" horiz-adv-x="1740" 
d="M868 -25q-326 0 -538 218q-209 212 -209 520v4q0 308 211 522q216 219 540 219q328 0 539 -217q209 -212 209 -520v-4q0 -308 -211 -522q-217 -220 -541 -220zM872 209q211 0 349 147q135 144 135 357v4q0 214 -137 360q-138 150 -351 150q-209 0 -348 -148
q-135 -144 -135 -358v-4q0 -216 137 -359q137 -149 350 -149zM868 1712l-106 -92q-64 -55 -152 -55q-55 0 -55 41q0 13 25 49l135 170q50 59 119 59h73q72 0 119 -59l135 -170q25 -36 25 -49q0 -41 -60 -41q-84 0 -151 55zM725 1905q-27 -41 -68 -41q-33 0 -53 20
q-22 22 -22 47q0 23 8 47q67 187 209 187q59 0 162 -41t133 -41q59 0 94 65q27 41 67 41q34 0 54 -20q22 -22 22 -47q0 -23 -8 -47q-67 -187 -209 -187q-59 0 -162 41t-133 41q-59 0 -94 -65z" />
    <glyph glyph-name="uni1ED7" unicode="&#x1ed7;" horiz-adv-x="1345" 
d="M670 -25q-246 0 -410 164t-164 396v4q0 235 164 399q169 166 414 166q244 0 411 -164q164 -164 164 -397v-4q0 -234 -164 -398q-169 -166 -415 -166zM674 193q149 0 239 100q88 98 88 242v4q0 142 -92 245q-95 103 -239 103q-147 0 -238 -101q-88 -98 -88 -243v-4
q0 -141 92 -244q94 -102 238 -102zM672 1356l-107 -92q-65 -56 -151 -56q-56 0 -56 41q0 13 25 49l135 170q51 60 119 60h74q70 0 118 -60l136 -170q24 -34 24 -49q0 -41 -59 -41q-84 0 -152 56zM442 1651q-27 -41 -67 -41q-33 0 -53 20q-23 23 -23 47q0 23 8 47
q67 187 209 187q59 0 162 -41t133 -41q59 0 94 65q27 41 68 41q33 0 53 -20q23 -23 23 -47q0 -20 -9 -47q-67 -187 -209 -187q-58 0 -161 41t-133 41q-60 0 -95 -65z" />
    <glyph glyph-name="uni1ED8" unicode="&#x1ed8;" horiz-adv-x="1740" 
d="M868 -25q-326 0 -538 218q-209 212 -209 520v4q0 308 211 522q216 219 540 219q328 0 539 -217q209 -212 209 -520v-4q0 -308 -211 -522q-217 -220 -541 -220zM872 209q211 0 349 147q135 144 135 357v4q0 214 -137 360q-138 150 -351 150q-209 0 -348 -148
q-135 -144 -135 -358v-4q0 -216 137 -359q137 -149 350 -149zM868 1708l-106 -92q-64 -55 -152 -55q-55 0 -55 41q0 13 25 49l135 170q50 59 119 59h73q72 0 119 -59l135 -170q25 -36 25 -49q0 -41 -60 -41q-84 0 -151 55zM727 -283v19q0 60 43 100q41 41 102 41
q59 0 103 -41q41 -41 41 -100v-19q0 -61 -41 -102q-44 -41 -103 -41q-61 0 -102 41q-43 40 -43 102z" />
    <glyph glyph-name="uni1ED9" unicode="&#x1ed9;" horiz-adv-x="1345" 
d="M670 -25q-246 0 -410 164t-164 396v4q0 235 164 399q169 166 414 166q244 0 411 -164q164 -164 164 -397v-4q0 -234 -164 -398q-169 -166 -415 -166zM674 193q149 0 239 100q88 98 88 242v4q0 142 -92 245q-95 103 -239 103q-147 0 -238 -101q-88 -98 -88 -243v-4
q0 -141 92 -244q94 -102 238 -102zM672 1356l-107 -92q-65 -56 -151 -56q-56 0 -56 41q0 13 25 49l135 170q51 60 119 60h74q70 0 118 -60l136 -170q24 -34 24 -49q0 -41 -59 -41q-84 0 -152 56zM528 -283v19q0 60 43 100q41 41 103 41q58 0 102 -41q41 -41 41 -100v-19
q0 -61 -41 -102q-44 -41 -102 -41q-62 0 -103 41q-43 40 -43 102z" />
    <glyph glyph-name="uni1EDA" unicode="&#x1eda;" horiz-adv-x="1740" 
d="M1221 356q135 144 135 357v4q0 214 -137 360q-138 150 -351 150q-209 0 -348 -148q-135 -144 -135 -358v-4q0 -216 137 -359q137 -149 350 -149q211 0 349 147zM1354 1292q20 -14 57 -51q209 -212 209 -520v-4q0 -308 -211 -522q-217 -220 -541 -220q-326 0 -538 218
q-209 212 -209 520v4q0 308 211 522q216 219 540 219q118 0 213 -26q150 3 177 147q35 41 88 41q47 0 80 -33q32 -32 32 -78q0 -43 -24 -98q-30 -72 -84 -119zM805 1561q-62 0 -62 43q0 18 17 45l117 180q38 59 98 59q51 0 98 -24q49 -27 49 -56q0 -31 -35 -61l-137 -131
q-58 -55 -145 -55z" />
    <glyph glyph-name="uni1EDB" unicode="&#x1edb;" horiz-adv-x="1345" 
d="M913 293q88 98 88 242v4q0 142 -92 245q-95 103 -239 103q-147 0 -238 -101q-88 -98 -88 -243v-4q0 -141 92 -244q94 -102 238 -102q149 0 239 100zM1108 915q141 -156 141 -372v-4q0 -234 -164 -398q-169 -166 -415 -166t-410 164t-164 396v4q0 235 164 399
q169 166 414 166q113 0 209 -35q167 41 188 166q35 41 88 41q47 0 80 -33t33 -78q0 -43 -25 -71q-47 -122 -139 -179zM559 1208q-61 0 -61 43q0 19 16 45l117 181q38 59 98 59q50 0 98 -25q50 -27 50 -55q0 -31 -35 -61l-137 -131q-59 -56 -146 -56z" />
    <glyph glyph-name="uni1EDC" unicode="&#x1edc;" horiz-adv-x="1740" 
d="M1221 356q135 144 135 357v4q0 214 -137 360q-138 150 -351 150q-209 0 -348 -148q-135 -144 -135 -358v-4q0 -216 137 -359q137 -149 350 -149q211 0 349 147zM1354 1292q20 -14 57 -51q209 -212 209 -520v-4q0 -308 -211 -522q-217 -220 -541 -220q-326 0 -538 218
q-209 212 -209 520v4q0 308 211 522q216 219 540 219q118 0 213 -26q150 3 177 147q35 41 88 41q47 0 80 -33q32 -32 32 -78q0 -43 -24 -98q-30 -72 -84 -119zM934 1561q-85 0 -143 55l-140 131q-35 30 -35 61q0 29 50 56q46 24 98 24q60 0 98 -59l117 -180q18 -27 18 -45
q0 -43 -63 -43z" />
    <glyph glyph-name="uni1EDD" unicode="&#x1edd;" horiz-adv-x="1345" 
d="M913 293q88 98 88 242v4q0 142 -92 245q-95 103 -239 103q-147 0 -238 -101q-88 -98 -88 -243v-4q0 -141 92 -244q94 -102 238 -102q149 0 239 100zM1108 915q141 -156 141 -372v-4q0 -234 -164 -398q-169 -166 -415 -166t-410 164t-164 396v4q0 235 164 399
q169 166 414 166q113 0 209 -35q167 41 188 166q35 41 88 41q47 0 80 -33t33 -78q0 -43 -25 -71q-47 -122 -139 -179zM662 1208q-85 0 -144 56l-139 131q-35 30 -35 61q0 28 49 55q48 25 99 25q60 0 98 -59l117 -181q18 -27 18 -45q0 -43 -63 -43z" />
    <glyph glyph-name="uni1EDE" unicode="&#x1ede;" horiz-adv-x="1740" 
d="M1221 356q135 144 135 357v4q0 214 -137 360q-138 150 -351 150q-209 0 -348 -148q-135 -144 -135 -358v-4q0 -216 137 -359q137 -149 350 -149q211 0 349 147zM1354 1292q20 -14 57 -51q209 -212 209 -520v-4q0 -308 -211 -522q-217 -220 -541 -220q-326 0 -538 218
q-209 212 -209 520v4q0 308 211 522q216 219 540 219q118 0 213 -26q150 3 177 147q35 41 88 41q47 0 80 -33q32 -32 32 -78q0 -43 -24 -98q-30 -72 -84 -119zM856 1561h-4q-51 0 -57 51l-9 53q-9 60 54 66q96 9 96 63v2q0 24 -16 37q-19 16 -54 16q-52 0 -94 -39
q-22 -16 -45 -16q-29 0 -47 21q-21 18 -21 47t25 51q78 72 184 72q93 0 152 -50q59 -53 59 -135v-2q0 -155 -166 -182v-4q-9 -51 -57 -51z" />
    <glyph glyph-name="uni1EDF" unicode="&#x1edf;" horiz-adv-x="1345" 
d="M913 293q88 98 88 242v4q0 142 -92 245q-95 103 -239 103q-147 0 -238 -101q-88 -98 -88 -243v-4q0 -141 92 -244q94 -102 238 -102q149 0 239 100zM1108 915q141 -156 141 -372v-4q0 -234 -164 -398q-169 -166 -415 -166t-410 164t-164 396v4q0 235 164 399
q169 166 414 166q113 0 209 -35q167 41 188 166q35 41 88 41q47 0 80 -33t33 -78q0 -43 -25 -71q-47 -122 -139 -179zM635 1208h-4q-52 0 -58 52l-8 53q-9 59 53 65q97 9 97 64v2q0 23 -17 37q-19 16 -53 16q-52 0 -94 -39q-22 -16 -45 -16q-30 0 -47 20q-21 18 -21 47
q0 30 25 52q77 71 184 71q94 0 152 -49q59 -53 59 -135v-2q0 -155 -166 -182v-4q-9 -52 -57 -52z" />
    <glyph glyph-name="uni1EE0" unicode="&#x1ee0;" horiz-adv-x="1740" 
d="M1221 356q135 144 135 357v4q0 214 -137 360q-138 150 -351 150q-209 0 -348 -148q-135 -144 -135 -358v-4q0 -216 137 -359q137 -149 350 -149q211 0 349 147zM1354 1292q20 -14 57 -51q209 -212 209 -520v-4q0 -308 -211 -522q-217 -220 -541 -220q-326 0 -538 218
q-209 212 -209 520v4q0 308 211 522q216 219 540 219q118 0 213 -26q150 3 177 147q35 41 88 41q47 0 80 -33q32 -32 32 -78q0 -43 -24 -98q-30 -72 -84 -119zM639 1587q-27 -41 -68 -41q-32 0 -53 21q-22 22 -22 47q0 23 8 47q67 186 209 186q58 0 161 -41t134 -41
q59 0 94 66q27 41 67 41q33 0 54 -21q22 -22 22 -47q0 -23 -8 -47q-67 -186 -209 -186q-59 0 -162 41t-133 41q-59 0 -94 -66z" />
    <glyph glyph-name="uni1EE1" unicode="&#x1ee1;" horiz-adv-x="1345" 
d="M913 293q88 98 88 242v4q0 142 -92 245q-95 103 -239 103q-147 0 -238 -101q-88 -98 -88 -243v-4q0 -141 92 -244q94 -102 238 -102q149 0 239 100zM1108 915q141 -156 141 -372v-4q0 -234 -164 -398q-169 -166 -415 -166t-410 164t-164 396v4q0 235 164 399
q169 166 414 166q113 0 209 -35q167 41 188 166q35 41 88 41q47 0 80 -33t33 -78q0 -43 -25 -71q-47 -122 -139 -179zM377 1235q-27 -41 -68 -41q-33 0 -53 20q-23 23 -23 48q0 20 9 47q67 186 209 186q58 0 161 -41t133 -41q60 0 95 66q27 41 67 41q33 0 54 -21
q22 -22 22 -47q0 -23 -8 -47q-67 -186 -209 -186q-59 0 -162 41q-101 40 -133 40q-59 0 -94 -65z" />
    <glyph glyph-name="uni1EE2" unicode="&#x1ee2;" horiz-adv-x="1740" 
d="M1221 356q135 144 135 357v4q0 214 -137 360q-138 150 -351 150q-209 0 -348 -148q-135 -144 -135 -358v-4q0 -216 137 -359q137 -149 350 -149q211 0 349 147zM1354 1292q20 -14 57 -51q209 -212 209 -520v-4q0 -308 -211 -522q-217 -220 -541 -220q-326 0 -538 218
q-209 212 -209 520v4q0 308 211 522q216 219 540 219q118 0 213 -26q150 3 177 147q35 41 88 41q47 0 80 -33q32 -32 32 -78q0 -43 -24 -98q-30 -72 -84 -119zM727 -283v19q0 60 43 100q41 41 102 41q59 0 103 -41q41 -41 41 -100v-19q0 -61 -41 -102q-44 -41 -103 -41
q-61 0 -102 41q-43 40 -43 102z" />
    <glyph glyph-name="uni1EE3" unicode="&#x1ee3;" horiz-adv-x="1345" 
d="M913 293q88 98 88 242v4q0 142 -92 245q-95 103 -239 103q-147 0 -238 -101q-88 -98 -88 -243v-4q0 -141 92 -244q94 -102 238 -102q149 0 239 100zM1108 915q141 -156 141 -372v-4q0 -234 -164 -398q-169 -166 -415 -166t-410 164t-164 396v4q0 235 164 399
q169 166 414 166q113 0 209 -35q167 41 188 166q35 41 88 41q47 0 80 -33t33 -78q0 -43 -25 -71q-47 -122 -139 -179zM465 -283v19q0 60 43 100q41 41 102 41q59 0 103 -41q41 -41 41 -100v-19q0 -61 -41 -102q-44 -41 -103 -41q-61 0 -102 41q-43 40 -43 102z" />
    <glyph glyph-name="uni1EE4" unicode="&#x1ee4;" horiz-adv-x="1550" 
d="M772 -23q-284 0 -444 160q-166 163 -166 471v711q0 54 37 88q37 37 90 37q54 0 88 -37q37 -34 37 -88v-701q0 -193 96 -303q94 -104 266 -104q171 0 264 100q97 105 97 297v711q0 54 37 88q37 37 90 37q54 0 88 -37q37 -34 37 -88v-698q0 -314 -168 -482
q-158 -162 -449 -162zM631 -283v19q0 60 43 100q41 41 102 41q59 0 103 -41q41 -41 41 -100v-19q0 -61 -41 -102q-44 -41 -103 -41q-61 0 -102 41q-43 40 -43 102z" />
    <glyph glyph-name="uni1EE5" unicode="&#x1ee5;" horiz-adv-x="1269" 
d="M1116 969v-856q0 -52 -37 -86q-37 -37 -88 -37q-50 0 -88 35q-37 37 -37 88v55q-129 -191 -338 -191q-180 0 -284 113q-101 113 -101 303v576q0 51 37 88q34 37 86 37q54 0 88 -37q37 -34 37 -88v-502q0 -262 232 -262q110 0 176 69q67 70 67 197v498q0 54 37 88
q37 37 88 37t88 -37t37 -88zM485 -283v19q0 60 43 100q41 41 103 41q58 0 102 -41q41 -41 41 -100v-19q0 -61 -41 -102q-44 -41 -102 -41q-62 0 -103 41q-43 40 -43 102z" />
    <glyph glyph-name="uni1EE6" unicode="&#x1ee6;" horiz-adv-x="1550" 
d="M772 -23q-284 0 -444 160q-166 163 -166 471v711q0 54 37 88q37 37 90 37q54 0 88 -37q37 -34 37 -88v-701q0 -193 96 -303q94 -104 266 -104q171 0 264 100q97 105 97 297v711q0 54 37 88q37 37 90 37q54 0 88 -37q37 -34 37 -88v-698q0 -314 -168 -482
q-158 -162 -449 -162zM762 1561h-4q-52 0 -58 51l-8 53q-9 60 53 66q97 9 97 63v2q0 23 -17 37q-19 16 -53 16q-52 0 -94 -39q-22 -16 -45 -16q-29 0 -47 21q-21 18 -21 47t25 51q78 72 184 72q93 0 152 -50q59 -53 59 -135v-2q0 -155 -166 -182v-4q-9 -51 -57 -51z" />
    <glyph glyph-name="uni1EE7" unicode="&#x1ee7;" horiz-adv-x="1269" 
d="M1116 969v-856q0 -52 -37 -86q-37 -37 -88 -37q-50 0 -88 35q-37 37 -37 88v55q-129 -191 -338 -191q-180 0 -284 113q-101 113 -101 303v576q0 51 37 88q34 37 86 37q54 0 88 -37q37 -34 37 -88v-502q0 -262 232 -262q110 0 176 69q67 70 67 197v498q0 54 37 88
q37 37 88 37t88 -37t37 -88zM616 1208h-4q-51 0 -57 52l-8 53q-9 59 53 65q96 9 96 64v2q0 24 -16 37q-19 16 -53 16q-53 0 -95 -39q-22 -16 -45 -16q-30 0 -47 20q-20 17 -20 47q0 31 24 52q77 71 185 71q93 0 151 -49q60 -54 60 -135v-2q0 -155 -166 -182v-4
q-9 -52 -58 -52z" />
    <glyph glyph-name="uni1EE8" unicode="&#x1ee8;" horiz-adv-x="1550" 
d="M1389 1233v-612q0 -314 -168 -482q-158 -162 -449 -162q-284 0 -444 160q-166 163 -166 471v711q0 54 37 88q37 37 90 37q54 0 88 -37q37 -34 37 -88v-701q0 -193 96 -303q94 -104 266 -104q171 0 264 100q97 105 97 297v711q0 54 37 88q37 37 90 37q10 0 30 -4
q94 27 115 139q35 41 88 41q47 0 80 -33t33 -78q0 -40 -25 -92q-58 -132 -196 -184zM821 1561q-61 0 -61 43q0 19 16 45l117 180q38 59 98 59q53 0 99 -24q49 -27 49 -56q0 -31 -35 -61l-137 -131q-58 -55 -146 -55z" />
    <glyph glyph-name="uni1EE9" unicode="&#x1ee9;" horiz-adv-x="1269" 
d="M1116 879v-766q0 -52 -37 -86q-37 -37 -88 -37q-50 0 -88 35q-37 37 -37 88v55q-129 -191 -338 -191q-180 0 -284 113q-101 113 -101 303v576q0 51 37 88q34 37 86 37q54 0 88 -37q37 -34 37 -88v-502q0 -262 232 -262q110 0 176 69q67 70 67 197v498q0 54 37 88
q37 37 88 37q11 0 31 -4q122 15 143 145q35 41 88 41q47 0 80 -33t33 -78q0 -43 -25 -71q-64 -169 -225 -215zM668 1208q-62 0 -62 43q0 18 17 45l116 181q38 59 99 59q50 0 98 -25q49 -27 49 -55q0 -31 -35 -61l-137 -131q-59 -56 -145 -56z" />
    <glyph glyph-name="uni1EEA" unicode="&#x1eea;" horiz-adv-x="1550" 
d="M1389 1233v-612q0 -314 -168 -482q-158 -162 -449 -162q-284 0 -444 160q-166 163 -166 471v711q0 54 37 88q37 37 90 37q54 0 88 -37q37 -34 37 -88v-701q0 -193 96 -303q94 -104 266 -104q171 0 264 100q97 105 97 297v711q0 54 37 88q37 37 90 37q10 0 30 -4
q94 27 115 139q35 41 88 41q47 0 80 -33t33 -78q0 -40 -25 -92q-58 -132 -196 -184zM950 1561q-85 0 -143 55l-139 131q-35 30 -35 61q0 29 49 56q46 24 98 24q61 0 99 -59l116 -180q19 -29 19 -45q0 -43 -64 -43z" />
    <glyph glyph-name="uni1EEB" unicode="&#x1eeb;" horiz-adv-x="1269" 
d="M1116 879v-766q0 -52 -37 -86q-37 -37 -88 -37q-50 0 -88 35q-37 37 -37 88v55q-129 -191 -338 -191q-180 0 -284 113q-101 113 -101 303v576q0 51 37 88q34 37 86 37q54 0 88 -37q37 -34 37 -88v-502q0 -262 232 -262q110 0 176 69q67 70 67 197v498q0 54 37 88
q37 37 88 37q11 0 31 -4q122 15 143 145q35 41 88 41q47 0 80 -33t33 -78q0 -43 -25 -71q-64 -169 -225 -215zM768 1208q-84 0 -143 56l-140 131q-34 30 -34 61q0 28 49 55q48 25 98 25q60 0 98 -59l117 -181q18 -27 18 -45q0 -43 -63 -43z" />
    <glyph glyph-name="uni1EEC" unicode="&#x1eec;" horiz-adv-x="1550" 
d="M1389 1233v-612q0 -314 -168 -482q-158 -162 -449 -162q-284 0 -444 160q-166 163 -166 471v711q0 54 37 88q37 37 90 37q54 0 88 -37q37 -34 37 -88v-701q0 -193 96 -303q94 -104 266 -104q171 0 264 100q97 105 97 297v711q0 54 37 88q37 37 90 37q10 0 30 -4
q94 27 115 139q35 41 88 41q47 0 80 -33t33 -78q0 -40 -25 -92q-58 -132 -196 -184zM872 1561h-4q-51 0 -57 51l-8 53q-9 60 53 66q96 9 96 63v2q0 24 -16 37q-19 16 -53 16q-53 0 -95 -39q-22 -16 -45 -16q-29 0 -47 21q-20 17 -20 47t24 51q78 72 185 72q92 0 151 -50
q60 -54 60 -135v-2q0 -155 -166 -182v-4q-9 -51 -58 -51z" />
    <glyph glyph-name="uni1EED" unicode="&#x1eed;" horiz-adv-x="1269" 
d="M1116 879v-766q0 -52 -37 -86q-37 -37 -88 -37q-50 0 -88 35q-37 37 -37 88v55q-129 -191 -338 -191q-180 0 -284 113q-101 113 -101 303v576q0 51 37 88q34 37 86 37q54 0 88 -37q37 -34 37 -88v-502q0 -262 232 -262q110 0 176 69q67 70 67 197v498q0 54 37 88
q37 37 88 37q11 0 31 -4q122 15 143 145q35 41 88 41q47 0 80 -33t33 -78q0 -43 -25 -71q-64 -169 -225 -215zM731 1208h-4q-51 0 -57 52l-8 53q-9 59 53 65q96 9 96 64v2q0 24 -16 37q-19 16 -54 16q-52 0 -94 -39q-22 -16 -45 -16q-30 0 -47 20q-20 17 -20 47q0 31 24 52
q77 71 184 71q94 0 152 -49q59 -53 59 -135v-2q0 -155 -166 -182v-4q-9 -52 -57 -52z" />
    <glyph glyph-name="uni1EEE" unicode="&#x1eee;" horiz-adv-x="1550" 
d="M1389 1233v-612q0 -314 -168 -482q-158 -162 -449 -162q-284 0 -444 160q-166 163 -166 471v711q0 54 37 88q37 37 90 37q54 0 88 -37q37 -34 37 -88v-701q0 -193 96 -303q94 -104 266 -104q171 0 264 100q97 105 97 297v711q0 54 37 88q37 37 90 37q10 0 30 -4
q94 27 115 139q35 41 88 41q47 0 80 -33t33 -78q0 -40 -25 -92q-58 -132 -196 -184zM655 1587q-27 -41 -67 -41q-32 0 -53 21q-23 23 -23 47q0 23 8 47q67 186 209 186q59 0 162 -41t133 -41q59 0 94 66q27 41 68 41q32 0 53 -21q23 -23 23 -47q0 -20 -9 -47
q-67 -186 -209 -186q-58 0 -161 41t-133 41q-60 0 -95 -66z" />
    <glyph glyph-name="uni1EEF" unicode="&#x1eef;" horiz-adv-x="1269" 
d="M1116 879v-766q0 -52 -37 -86q-37 -37 -88 -37q-50 0 -88 35q-37 37 -37 88v55q-129 -191 -338 -191q-180 0 -284 113q-101 113 -101 303v576q0 51 37 88q34 37 86 37q54 0 88 -37q37 -34 37 -88v-502q0 -262 232 -262q110 0 176 69q67 70 67 197v498q0 54 37 88
q37 37 88 37q11 0 31 -4q122 15 143 145q35 41 88 41q47 0 80 -33t33 -78q0 -43 -25 -71q-64 -169 -225 -215zM489 1235q-27 -41 -67 -41q-33 0 -53 20q-23 23 -23 48q0 23 8 47q67 186 209 186q59 0 162 -41t133 -41q59 0 94 66q27 41 68 41q32 0 53 -21q23 -23 23 -47
q0 -20 -9 -47q-67 -186 -208 -186q-59 0 -162 41q-101 40 -133 40q-60 0 -95 -65z" />
    <glyph glyph-name="uni1EF0" unicode="&#x1ef0;" horiz-adv-x="1550" 
d="M1389 1233v-612q0 -314 -168 -482q-158 -162 -449 -162q-284 0 -444 160q-166 163 -166 471v711q0 54 37 88q37 37 90 37q54 0 88 -37q37 -34 37 -88v-701q0 -193 96 -303q94 -104 266 -104q171 0 264 100q97 105 97 297v711q0 54 37 88q37 37 90 37q10 0 30 -4
q94 27 115 139q35 41 88 41q47 0 80 -33t33 -78q0 -40 -25 -92q-58 -132 -196 -184zM647 -283v19q0 60 43 100q41 41 103 41q58 0 102 -41q41 -41 41 -100v-19q0 -61 -41 -102q-44 -41 -102 -41q-62 0 -103 41q-43 40 -43 102z" />
    <glyph glyph-name="uni1EF1" unicode="&#x1ef1;" horiz-adv-x="1269" 
d="M1116 879v-766q0 -52 -37 -86q-37 -37 -88 -37q-50 0 -88 35q-37 37 -37 88v55q-129 -191 -338 -191q-180 0 -284 113q-101 113 -101 303v576q0 51 37 88q34 37 86 37q54 0 88 -37q37 -34 37 -88v-502q0 -262 232 -262q110 0 176 69q67 70 67 197v498q0 54 37 88
q37 37 88 37q11 0 31 -4q122 15 143 145q35 41 88 41q47 0 80 -33t33 -78q0 -43 -25 -71q-64 -169 -225 -215zM575 -283v19q0 60 43 100q41 41 103 41q58 0 102 -41q41 -41 41 -100v-19q0 -61 -41 -102q-44 -41 -102 -41q-62 0 -103 41q-43 40 -43 102z" />
    <glyph glyph-name="Ygrave" unicode="&#x1ef2;" horiz-adv-x="1425" 
d="M588 115v442l-494 678q-28 45 -28 88q0 53 36 86q38 35 91 35q70 0 122 -76l400 -575l405 577q52 76 121 76q53 0 90 -37q33 -33 33 -86q0 -43 -35 -90l-489 -670v-448q0 -54 -37 -88q-37 -37 -90 -37q-51 0 -88 37t-37 88zM719 1542q-86 0 -144 55l-139 132
q-35 30 -35 61q0 28 50 55q48 25 98 25q60 0 98 -60l117 -180q18 -27 18 -45q0 -43 -63 -43z" />
    <glyph glyph-name="ygrave" unicode="&#x1ef3;" 
d="M352 -334q-93 0 -172 31q-78 28 -78 102q0 46 31 74q29 29 70 29q24 0 45 -8q52 -15 86 -15q97 0 153 115l9 22l-402 897q-14 32 -14 60q0 51 35 86t88 35q83 0 121 -95l290 -718l271 718q38 95 119 95q50 0 83 -33q35 -35 35 -84q0 -26 -10 -59l-395 -949
q-70 -166 -152 -233q-82 -70 -213 -70zM608 1208q-84 0 -143 56l-139 131q-35 30 -35 61q0 28 49 55q48 25 98 25q61 0 99 -59l116 -181q19 -28 19 -45q0 -43 -64 -43z" />
    <glyph glyph-name="uni1EF4" unicode="&#x1ef4;" horiz-adv-x="1425" 
d="M588 115v442l-494 678q-28 45 -28 88q0 53 36 86q38 35 91 35q70 0 122 -76l400 -575l405 577q52 76 121 76q53 0 90 -37q33 -33 33 -86q0 -43 -35 -90l-489 -670v-448q0 -54 -37 -88q-37 -37 -90 -37q-51 0 -88 37t-37 88zM571 -283v19q0 60 43 100q41 41 103 41
q58 0 102 -41q41 -41 41 -100v-19q0 -61 -41 -102q-44 -41 -102 -41q-62 0 -103 41q-43 40 -43 102z" />
    <glyph glyph-name="uni1EF5" unicode="&#x1ef5;" 
d="M352 -334q-93 0 -172 31q-78 28 -78 102q0 46 31 74q29 29 70 29q24 0 45 -8q52 -15 86 -15q97 0 153 115l9 22l-402 897q-14 32 -14 60q0 51 35 86t88 35q83 0 121 -95l290 -718l271 718q38 95 119 95q50 0 83 -33q35 -35 35 -84q0 -26 -10 -59l-395 -949
q-70 -166 -152 -233q-82 -70 -213 -70zM657 -283v19q0 60 43 100q41 41 103 41q58 0 102 -41q41 -41 41 -100v-19q0 -61 -41 -102q-44 -41 -102 -41q-62 0 -103 41q-43 40 -43 102z" />
    <glyph glyph-name="uni1EF6" unicode="&#x1ef6;" horiz-adv-x="1425" 
d="M588 115v442l-494 678q-28 45 -28 88q0 53 36 86q38 35 91 35q70 0 122 -76l400 -575l405 577q52 76 121 76q53 0 90 -37q33 -33 33 -86q0 -43 -35 -90l-489 -670v-448q0 -54 -37 -88q-37 -37 -90 -37q-51 0 -88 37t-37 88zM700 1561h-4q-51 0 -57 51l-8 53q-9 60 53 66
q96 9 96 63v2q0 24 -16 37q-19 16 -53 16q-53 0 -95 -39q-22 -16 -45 -16q-29 0 -47 21q-20 17 -20 47t24 51q78 72 185 72q92 0 151 -50q60 -54 60 -135v-2q0 -155 -166 -182v-4q-9 -51 -58 -51z" />
    <glyph glyph-name="uni1EF7" unicode="&#x1ef7;" 
d="M352 -334q-93 0 -172 31q-78 28 -78 102q0 46 31 74q29 29 70 29q24 0 45 -8q52 -15 86 -15q97 0 153 115l9 22l-402 897q-14 32 -14 60q0 51 35 86t88 35q83 0 121 -95l290 -718l271 718q38 95 119 95q50 0 83 -33q35 -35 35 -84q0 -26 -10 -59l-395 -949
q-70 -166 -152 -233q-82 -70 -213 -70zM588 1208h-4q-52 0 -58 52l-8 53q-9 59 53 65q97 9 97 64v2q0 23 -17 37q-19 16 -53 16q-52 0 -94 -39q-22 -16 -45 -16q-30 0 -47 20q-21 18 -21 47q0 30 25 52q77 71 184 71q94 0 152 -49q59 -53 59 -135v-2q0 -155 -166 -182v-4
q-9 -52 -57 -52z" />
    <glyph glyph-name="uni1EF8" unicode="&#x1ef8;" horiz-adv-x="1425" 
d="M588 115v442l-494 678q-28 45 -28 88q0 53 36 86q38 35 91 35q70 0 122 -76l400 -575l405 577q52 76 121 76q53 0 90 -37q33 -33 33 -86q0 -43 -35 -90l-489 -670v-448q0 -54 -37 -88q-37 -37 -90 -37q-51 0 -88 37t-37 88zM483 1587q-27 -41 -67 -41q-33 0 -54 21
q-22 22 -22 47q0 23 8 47q67 186 209 186q59 0 162 -41t133 -41q59 0 94 66q27 41 68 41q32 0 53 -21q23 -23 23 -47q0 -20 -9 -47q-67 -186 -209 -186q-58 0 -161 41t-133 41q-60 0 -95 -66z" />
    <glyph glyph-name="uni1EF9" unicode="&#x1ef9;" 
d="M352 -334q-93 0 -172 31q-78 28 -78 102q0 46 31 74q29 29 70 29q24 0 45 -8q52 -15 86 -15q97 0 153 115l9 22l-402 897q-14 32 -14 60q0 51 35 86t88 35q83 0 121 -95l290 -718l271 718q38 95 119 95q50 0 83 -33q35 -35 35 -84q0 -26 -10 -59l-395 -949
q-70 -166 -152 -233q-82 -70 -213 -70zM371 1235q-27 -41 -68 -41q-33 0 -53 20q-23 23 -23 48q0 20 9 47q67 186 208 186q59 0 162 -41t133 -41q60 0 95 66q27 41 67 41q32 0 53 -21q23 -23 23 -47q0 -23 -8 -47q-67 -186 -209 -186q-59 0 -162 41q-101 40 -133 40
q-59 0 -94 -65z" />
    <glyph glyph-name="uni2002" unicode="&#x2002;" horiz-adv-x="1024" 
 />
    <glyph glyph-name="uni2003" unicode="&#x2003;" horiz-adv-x="2048" 
 />
    <glyph glyph-name="uni2004" unicode="&#x2004;" horiz-adv-x="681" 
 />
    <glyph glyph-name="uni2005" unicode="&#x2005;" horiz-adv-x="512" 
 />
    <glyph glyph-name="uni2009" unicode="&#x2009;" horiz-adv-x="272" 
 />
    <glyph glyph-name="uni200A" unicode="&#x200a;" horiz-adv-x="153" 
 />
    <glyph glyph-name="endash" unicode="&#x2013;" horiz-adv-x="1081" 
d="M860 510h-639q-47 0 -82 35t-35 82q0 49 35 84q34 34 82 34h639q48 0 82 -34q35 -35 35 -84q0 -47 -35 -82t-82 -35z" />
    <glyph glyph-name="emdash" unicode="&#x2014;" horiz-adv-x="1839" 
d="M1618 510h-1397q-47 0 -82 35t-35 82q0 49 35 84q34 34 82 34h1397q48 0 82 -34q35 -35 35 -84q0 -47 -35 -82t-82 -35z" />
    <glyph glyph-name="quoteleft" unicode="&#x2018;" horiz-adv-x="550" 
d="M481 1384q0 -40 -49 -55q-145 -47 -139 -182q117 -35 117 -139v-17q0 -59 -39 -98t-101 -39q-147 0 -147 180v21q0 200 102 299q82 88 193 88q63 0 63 -58z" />
    <glyph glyph-name="quoteright" unicode="&#x2019;" horiz-adv-x="550" 
d="M72 913q0 41 47 56q145 47 139 184q-117 27 -117 137v17q0 59 39 98t101 39q147 0 147 -180v-21q0 -199 -100 -299q-88 -88 -193 -88q-63 0 -63 57z" />
    <glyph glyph-name="quotesinglbase" unicode="&#x201a;" horiz-adv-x="550" 
d="M61 -240q0 47 48 56q145 47 139 184q-117 34 -117 139v17q0 59 39 98t100 39q148 0 148 -180v-23q0 -195 -101 -299q-91 -88 -192 -88q-64 0 -64 57z" />
    <glyph glyph-name="quotedblleft" unicode="&#x201c;" horiz-adv-x="1026" 
d="M956 1384q0 -40 -49 -55q-145 -47 -139 -182q117 -35 117 -139v-17q0 -59 -39 -98t-101 -39q-147 0 -147 180v21q0 199 100 299q88 88 193 88q65 0 65 -58zM481 1384q0 -40 -49 -55q-145 -47 -139 -182q117 -35 117 -139v-17q0 -59 -39 -98t-101 -39q-147 0 -147 180v21
q0 200 102 299q82 88 193 88q63 0 63 -58z" />
    <glyph glyph-name="quotedblright" unicode="&#x201d;" horiz-adv-x="1026" 
d="M72 913q0 41 47 56q145 47 139 184q-117 27 -117 137v17q0 59 39 98t101 39q147 0 147 -180v-21q0 -199 -100 -299q-88 -88 -193 -88q-63 0 -63 57zM545 913q0 41 49 56q145 47 139 184q-117 27 -117 137v17q0 59 39 98t101 39q147 0 147 -180v-21q0 -200 -102 -299
q-82 -88 -193 -88q-63 0 -63 57z" />
    <glyph glyph-name="quotedblbase" unicode="&#x201e;" horiz-adv-x="1026" 
d="M61 -240q0 47 48 56q145 47 139 184q-117 34 -117 139v17q0 59 39 98t100 39q148 0 148 -180v-23q0 -195 -101 -299q-91 -88 -192 -88q-64 0 -64 57zM535 -240q0 47 49 56q145 47 139 184q-117 34 -117 139v17q0 59 39 98t100 39q69 0 109 -49q39 -48 39 -131v-23
q0 -197 -102 -299q-88 -88 -193 -88q-63 0 -63 57z" />
    </font>
</defs>
</svg>
