<svg width="170" height="51" viewBox="0 0 170 51" fill="none"
    xmlns="http://www.w3.org/2000/svg">
    <path d="M18.4998 39.926C18.4998 40.126 18.4998 40.326 18.4998 40.426C18.4998 40.826 18.3998 41.226 18.1998 41.426C17.9998 41.626 17.6998 41.826 17.2998 41.926C17.0998 41.926 16.7998 41.926 16.5998 41.926C15.5998 41.926 14.4998 41.926 13.3998 41.926C13.0998 41.926 12.7998 41.926 12.4998 41.826C11.8998 41.626 11.4998 41.226 11.4998 40.526V30.926C11.4998 30.526 11.2998 30.326 10.8998 30.326C10.6998 30.326 10.3998 30.326 10.1998 30.326C9.5998 30.326 9.09981 30.326 8.49981 30.326C8.19981 30.326 8.09981 30.326 7.99981 30.426C7.89981 30.526 7.89981 30.726 7.89981 30.926C7.89981 31.126 7.89981 31.226 7.89981 31.426V39.926C7.89981 40.126 7.89981 40.326 7.89981 40.426C7.89981 40.726 7.7998 41.026 7.5998 41.226C7.3998 41.426 7.19981 41.526 6.89981 41.626C5.29981 41.826 3.59981 41.826 1.99981 41.626C1.59981 41.526 1.2998 41.426 1.0998 41.226C0.899804 41.026 0.799805 40.626 0.799805 40.226V13.626C0.799805 13.426 0.799805 13.226 0.799805 13.026C0.799805 12.626 0.999806 12.326 1.19981 12.026C1.39981 11.826 1.79981 11.626 2.19981 11.626C3.59981 11.626 5.09981 11.626 6.49981 11.626C6.89981 11.626 7.29981 11.726 7.49981 12.026C7.69981 12.326 7.79981 12.626 7.79981 13.126C7.79981 15.026 7.79981 17.026 7.79981 18.926V22.126C7.79981 22.526 7.79981 22.726 7.79981 22.926C7.79981 23.126 7.8998 23.226 8.0998 23.226C8.2998 23.226 8.49981 23.226 8.89981 23.226H10.3998C10.6998 23.226 10.9998 23.226 11.0998 23.126C11.2998 23.126 11.2998 23.026 11.3998 22.826C11.3998 22.626 11.3998 22.426 11.3998 22.126V13.526C11.3998 12.826 11.4998 12.426 11.7998 12.126C12.0998 11.826 12.4998 11.726 13.1998 11.726H16.7998C17.0998 11.726 17.3998 11.826 17.6998 11.926C17.8998 12.026 18.0998 12.126 18.2998 12.326C18.3998 12.526 18.4998 12.726 18.4998 13.026V39.926Z" fill="#1E3D74"/>
    <path d="M38.4997 29.326C38.4997 31.326 38.4997 33.426 38.4997 35.426C38.4997 36.326 38.2997 37.126 38.0997 37.926C37.6997 39.126 37.0997 40.026 36.2997 40.626C35.4997 41.226 34.3997 41.626 33.1997 41.726C32.2997 41.826 31.3997 41.826 30.4997 41.826C29.5997 41.826 28.6997 41.826 27.7997 41.826H27.2997C26.4997 41.826 25.6997 41.726 24.9997 41.426C23.7997 41.126 22.7997 40.526 22.0997 39.626C21.2997 38.726 20.8997 37.626 20.7997 36.426C20.6997 35.226 20.6997 34.026 20.6997 32.826C20.6997 28.126 20.6997 23.526 20.6997 18.826C20.6997 17.926 20.7997 17.026 20.9997 16.126C21.2997 14.926 21.7997 13.926 22.5997 13.126C23.3997 12.326 24.4997 11.926 25.8997 11.726C28.4997 11.426 30.9997 11.426 33.4997 11.726C34.3997 11.826 35.0997 12.126 35.7997 12.526C36.4997 12.926 37.0997 13.526 37.4997 14.226C37.8997 14.926 38.1997 15.726 38.3997 16.526C38.4997 17.326 38.5997 18.026 38.5997 18.826V29.326H38.4997ZM31.0997 35.026C31.2997 35.026 31.4997 34.926 31.5997 34.826C31.6997 34.726 31.7997 34.526 31.7997 34.326C31.7997 34.126 31.7997 33.926 31.7997 33.726V19.826C31.7997 19.326 31.6997 19.026 31.5997 18.826C31.3997 18.626 31.0997 18.626 30.6997 18.626C29.9997 18.626 29.3997 18.626 28.6997 18.626C28.2997 18.626 27.8997 18.726 27.7997 18.826C27.5997 19.026 27.4997 19.326 27.4997 19.726V33.626C27.4997 33.826 27.4997 34.126 27.4997 34.326C27.4997 34.526 27.5997 34.626 27.6997 34.826C27.7997 34.926 27.9997 35.026 28.1997 35.026C29.1997 35.026 30.0997 35.026 31.0997 35.026Z" fill="#1E3D74"/>
    <path d="M58.3997 30.7257C58.3997 31.1257 58.3997 31.6257 58.3997 32.0257C58.3997 32.7257 58.3997 33.4257 58.3997 34.1257C58.3997 34.8257 58.3997 35.5257 58.3997 36.2257C58.2997 37.8257 57.6997 39.2257 56.7997 40.1257C55.7997 41.1257 54.5997 41.6257 52.9997 41.7257C51.0997 41.8257 49.2997 41.9257 47.3997 41.9257C46.6997 41.9257 45.9997 41.8257 45.2997 41.7257C44.5997 41.6257 43.8997 41.3257 43.2997 40.9257C42.5997 40.5257 42.0997 40.0257 41.6997 39.4257C41.2997 38.8257 40.9997 38.1257 40.8997 37.4257C40.6997 36.8257 40.6997 36.1257 40.6997 35.5257C40.6997 33.3257 40.6997 31.2257 40.6997 29.0257V18.0257C40.6997 16.9257 40.9997 15.8257 41.4997 14.8257C41.9997 14.0257 42.5997 13.3257 43.2997 12.9257C43.9997 12.4257 44.7997 12.1257 45.7997 12.0257C46.4997 11.9257 47.1997 11.8257 47.9997 11.8257H48.3997C48.9997 11.8257 49.6997 11.8257 50.2997 11.8257C50.8997 11.8257 51.5997 11.8257 52.1997 11.9257C52.5997 11.9257 53.0997 11.9257 53.4997 12.0257C53.8997 12.1257 54.3997 12.2257 54.7997 12.3257C55.9997 12.7257 56.8997 13.3257 57.4997 14.2257C58.0997 15.1257 58.4997 16.1257 58.5997 17.4257C58.6997 18.1257 58.6997 18.9257 58.6997 19.6257C58.6997 20.3257 58.6997 21.1257 58.6997 21.8257C58.6997 22.2257 58.6997 22.6257 58.6997 23.0257C58.6997 23.4257 58.5997 23.8257 58.2997 24.0257C58.0997 24.2257 57.6997 24.4257 57.2997 24.4257C55.9997 24.5257 54.6997 24.5257 53.3997 24.4257C52.8997 24.4257 52.5997 24.2257 52.2997 23.9257C52.0997 23.6257 51.8997 23.2257 51.8997 22.7257C51.8997 22.1257 51.8997 21.5257 51.8997 20.9257V19.4257C51.8997 19.2257 51.7997 19.0257 51.6997 18.9257C51.5997 18.8257 51.4997 18.7257 51.2997 18.7257C50.2997 18.7257 49.2997 18.7257 48.3997 18.7257C48.1997 18.7257 48.0997 18.8257 47.9997 18.9257C47.8997 19.0257 47.7997 19.2257 47.7997 19.4257V34.0257C47.7997 34.3257 47.7997 34.6257 47.8997 34.7257C47.8997 34.9257 47.9997 35.0257 48.1997 35.0257C48.3997 35.1257 48.5997 35.1257 48.8997 35.1257H50.8997C51.1997 35.1257 51.4997 35.1257 51.5997 35.0257C51.6997 34.9257 51.7997 34.8257 51.8997 34.7257C51.8997 34.5257 51.9997 34.3257 51.9997 34.0257V31.3257C51.9997 31.1257 51.9997 30.8257 52.0997 30.6257C52.1997 30.2257 52.2997 30.0257 52.5997 29.8257C52.7997 29.6257 53.0997 29.5257 53.4997 29.5257C54.7997 29.5257 56.1997 29.5257 57.4997 29.5257C57.8997 29.5257 58.1997 29.7257 58.3997 29.9257C58.1997 30.0257 58.3997 30.3257 58.3997 30.7257Z" fill="#1E3D74"/>
    <path d="M88.3998 19.726C88.3998 24.726 88.3998 29.726 88.3998 34.626C88.3998 35.526 88.2998 36.426 88.0998 37.326C87.7998 38.626 87.1998 39.626 86.1998 40.426C85.2998 41.226 84.1998 41.626 82.8998 41.726C81.6998 41.826 80.4998 41.826 79.2998 41.826C78.0998 41.826 76.8998 41.826 75.6998 41.826H72.0998C71.4998 41.826 70.9998 41.726 70.6998 41.426C70.3998 41.126 70.2998 40.726 70.2998 40.026V13.026C70.3998 12.226 70.7998 11.726 71.5998 11.626H74.6998C76.9998 11.626 79.2998 11.626 81.5998 11.626C82.4998 11.626 83.3998 11.726 84.1998 12.026C85.2998 12.426 86.1998 13.026 86.7998 13.826C87.3998 14.626 87.7998 15.626 87.9998 16.826C88.0998 17.326 88.0998 17.726 88.0998 18.226C88.2998 18.826 88.3998 19.326 88.3998 19.726ZM81.2998 20.026C81.2998 19.826 81.2998 19.726 81.2998 19.526C81.2998 19.326 81.1998 19.126 81.0998 19.026C80.9998 18.926 80.7998 18.826 80.5998 18.826H78.1998C77.7998 18.826 77.6998 19.026 77.6998 19.326V34.126C77.6998 34.426 77.6998 34.626 77.7998 34.726C77.8998 34.826 78.0998 34.826 78.3998 34.826C79.0998 34.826 79.7998 34.826 80.3998 34.826C80.7998 34.826 81.0998 34.726 81.1998 34.626C81.2998 34.526 81.3998 34.226 81.3998 33.926V20.026H81.2998Z" fill="#1E3D74"/>
    <path d="M108.3 27.6273C108.3 30.2273 108.3 32.8272 108.3 35.4272C108.3 36.3272 108.1 37.2273 107.8 38.0273C107.4 39.1273 106.8 40.0273 105.9 40.6273C105.1 41.2273 104 41.6273 102.9 41.7273C102 41.8273 101.1 41.8272 100.1 41.8272C99.2002 41.8272 98.3002 41.8272 97.3002 41.8272H97.0002C96.2002 41.8272 95.4002 41.7272 94.6002 41.4272C93.4002 41.1272 92.4002 40.5273 91.7002 39.6273C91.0002 38.7273 90.5002 37.6272 90.4002 36.4272C90.3002 35.1272 90.3002 33.9273 90.2002 32.6273V13.9272C90.2002 13.5272 90.3002 13.1273 90.4002 12.7273C90.5002 12.3273 90.6002 12.0272 90.9002 11.8272C91.2002 11.6272 91.5002 11.5272 91.8002 11.4272C93.1002 11.4272 94.5002 11.4272 95.8002 11.4272C96.3002 11.4272 96.7002 11.6272 97.0002 11.9272C97.3002 12.2272 97.4002 12.6273 97.4002 13.1273V33.1273C97.4002 33.6273 97.4002 33.9273 97.5002 34.1273C97.6002 34.3273 97.7002 34.4273 97.9002 34.5273C98.1002 34.6273 98.4002 34.6273 98.9002 34.5273H99.3002C99.7002 34.5273 100.1 34.5273 100.4 34.5273C100.7 34.5273 100.8 34.4272 100.9 34.3272C101 34.2272 101 34.0272 101.1 33.8272V13.8272C101.1 13.4272 101.1 13.0273 101.2 12.7273C101.3 12.3273 101.5 12.0272 101.7 11.8272C102 11.6272 102.3 11.5272 102.7 11.4272C104 11.4272 105.2 11.4272 106.5 11.4272C107 11.4272 107.4 11.6272 107.7 11.9272C108 12.2272 108.1 12.6273 108.2 13.1273V27.6273H108.3Z" fill="#1E3D74"/>
    <path d="M128.1 17.1259C128.2 18.2259 128.3 19.3259 128.3 20.4259C128.3 25.2259 128.3 30.0259 128.3 34.7259C128.3 35.2259 128.3 35.7258 128.2 36.3258C128.1 36.8258 128 37.3259 127.9 37.9259C127.6 38.9259 127.1 39.7258 126.5 40.3258C125.9 40.9258 125 41.4259 124.1 41.6259C123.4 41.8259 122.7 41.9259 122 41.9259C120.8 41.9259 119.6 41.9259 118.4 41.9259H116.8C115.7 41.9259 114.6 41.6259 113.6 41.1259C112.8 40.7259 112.1 40.1259 111.6 39.4259C111.1 38.7259 110.8 37.9259 110.7 37.0259C110.6 36.3259 110.5 35.6259 110.5 35.0259V24.4259C110.5 22.4259 110.5 20.3258 110.5 18.3258C110.5 17.4258 110.7 16.5259 110.9 15.7259C111.2 14.7259 111.7 13.9258 112.4 13.3258C113.1 12.7258 114 12.3259 115 12.0259C115.5 11.8259 116.1 11.8258 116.7 11.8258H117.1C118 11.8258 118.8 11.8258 119.7 11.8258C120.5 11.8258 121.4 11.8259 122.2 11.9259C123.1 11.9259 123.9 12.1259 124.7 12.4259C125.8 12.8259 126.7 13.4258 127.2 14.3258C127.6 15.0258 128 15.9259 128.1 17.1259ZM115.3 5.12587C115.2 5.02587 115.2 5.02586 115.1 4.92586C114.9 4.72586 114.7 4.52587 114.5 4.22587C114.2 3.82587 114.1 3.42587 114.2 3.12587C114.3 2.82587 114.5 2.52587 114.9 2.22587C115.6 1.82587 116.2 1.42586 116.9 1.02586C117.3 0.825862 117.7 0.725849 118 0.825849C118.3 0.925849 118.6 1.12586 118.8 1.52586C119.9 3.42586 121 5.22587 122.1 7.12587C122.3 7.52587 122.4 7.82587 122.3 8.12587C122.2 8.42587 122 8.72586 121.7 8.92586C121 9.42586 120.5 9.62587 120.3 9.62587C120 9.62587 119.8 9.62586 119.6 9.52586C119.4 9.42586 119.2 9.32587 119.1 9.12587C118.3 8.32587 117.6 7.42587 116.8 6.62587C116.3 6.22587 115.8 5.72587 115.3 5.12587ZM121.5 33.6259V23.8258C121.5 22.4258 121.5 21.1259 121.5 19.7259C121.5 19.3259 121.4 19.0259 121.3 18.8258C121.1 18.6258 120.8 18.5259 120.4 18.5259C119.7 18.5259 119 18.5259 118.4 18.5259C118 18.5259 117.7 18.6258 117.5 18.8258C117.3 19.0259 117.3 19.3259 117.2 19.7259V33.8258C117.2 34.3258 117.3 34.6258 117.4 34.8258C117.6 35.0258 117.9 35.1259 118.3 35.1259C118.9 35.1259 119.4 35.1259 120 35.1259C120.4 35.1259 120.7 35.1259 120.9 35.0259C121.1 34.9259 121.3 34.8259 121.3 34.6259C121.5 34.3259 121.5 34.0259 121.5 33.6259Z" fill="#1E3D74"/>
    <path d="M149.4 14.0273V39.6273C149.4 39.9273 149.4 40.3273 149.3 40.6273C149.1 41.4273 148.7 41.9272 147.9 41.9272C146.9 41.9272 145.8 41.9272 144.7 41.9272C144 41.8272 143.5 41.5272 143.2 40.8272C142.2 38.7272 141.2 36.6273 140.1 34.5273C139.5 33.4273 139 32.2273 138.4 31.1273C138.2 30.8273 138.1 30.5273 138 30.2273C137.8 29.9273 137.7 29.5273 137.5 29.2273C137.4 29.1273 137.4 29.1273 137.3 29.0273L137.2 28.9272L137.1 29.0273C137 29.1273 137 29.2273 137 29.2273C137 29.4273 137 29.6273 137 29.7273V31.9272C137 34.6272 137 37.4273 137 40.1273C137 40.3273 137 40.6272 136.9 40.8272C136.8 41.0272 136.7 41.2272 136.5 41.3272C136.3 41.4272 136.2 41.5273 136 41.6273C135.8 41.7273 135.6 41.7273 135.5 41.7273C134.3 41.7273 133 41.7273 131.8 41.7273C131.4 41.7273 131 41.5272 130.8 41.3272C130.6 41.1272 130.4 40.8272 130.3 40.3272C130.2 40.0272 130.2 39.7273 130.2 39.5273V13.4272C130.2 13.2272 130.2 13.1272 130.2 12.9272C130.3 12.4272 130.4 12.0272 130.7 11.8272C131 11.6272 131.4 11.4272 131.9 11.4272H134.8C135.5 11.4272 136 11.7272 136.3 12.3272C136.6 12.9272 136.9 13.5273 137.2 14.1273C137.7 15.2273 138.3 16.3272 138.8 17.4272C139.8 19.5272 140.8 21.6273 141.9 23.6273C142 23.8273 142.1 23.9273 142.2 24.0273C142.3 24.1273 142.3 24.1273 142.4 24.2273C142.4 24.1273 142.4 24.0273 142.4 24.0273C142.5 23.8273 142.5 23.6273 142.5 23.5273V12.8272C142.5 12.4272 142.6 12.1272 142.9 11.8272C143.1 11.6272 143.4 11.4272 143.8 11.4272C145.1 11.4272 146.5 11.4272 147.8 11.4272C148.2 11.4272 148.5 11.5273 148.7 11.7273C148.9 11.9273 149.1 12.2273 149.2 12.5273C149.3 13.2273 149.4 13.6273 149.4 14.0273Z" fill="#1E3D74"/>
    <path d="M169.2 26.2257V34.1257C169.2 34.7257 169.2 35.3257 169.2 35.9257C169.1 36.6257 169 37.2257 168.9 37.8257C168.5 39.0257 167.9 40.0257 167.1 40.7257C166.2 41.4257 165.2 41.8257 164 41.9257C163 42.0257 162 42.0257 161 42.0257C160 42.0257 159 42.0257 158 42.0257C157.5 42.0257 157 41.9257 156.5 41.8257C156 41.7257 155.5 41.6257 155.1 41.4257C154.2 41.0257 153.4 40.5257 152.8 39.8257C152.2 39.1257 151.8 38.3257 151.6 37.3257C151.5 36.7257 151.4 36.1257 151.4 35.5257C151.4 33.4257 151.4 31.2257 151.4 29.1257V24.5257C151.4 22.4257 151.4 20.3257 151.4 18.2257C151.4 17.5257 151.5 16.8257 151.6 16.1257C151.9 14.9257 152.5 14.0257 153.3 13.3257C154.1 12.6257 155.1 12.2257 156.3 12.0257C157 11.9257 157.8 11.8257 158.5 11.8257C159.9 11.8257 161.3 11.8257 162.7 11.8257C163.7 11.8257 164.6 12.0257 165.6 12.3257C166.6 12.7257 167.3 13.2257 167.9 13.9257C168.4 14.6257 168.8 15.5257 169 16.4257C169.1 17.0257 169.2 17.5257 169.2 18.1257C169.2 19.2257 169.2 20.3257 169.2 21.3257C169.2 21.7257 169.1 22.1257 168.8 22.3257C168.5 22.5257 168.2 22.7257 167.7 22.7257C166.4 22.8257 165.1 22.8257 163.9 22.7257C163 22.7257 162.5 22.2257 162.5 21.2257V20.5257C162.5 20.2257 162.5 19.9257 162.5 19.6257C162.5 19.2257 162.4 19.0257 162.3 18.9257C162.2 18.8257 161.9 18.7257 161.6 18.7257C160.8 18.7257 160 18.7257 159.3 18.7257C158.9 18.7257 158.7 18.8257 158.6 18.9257C158.5 19.0257 158.4 19.3257 158.4 19.6257V34.4257C158.4 34.7257 158.5 34.8257 158.6 34.9257C158.7 35.0257 158.9 35.1257 159.1 35.1257C160 35.1257 161 35.1257 161.9 35.1257C162.1 35.1257 162.3 35.0257 162.4 34.9257C162.5 34.8257 162.6 34.6257 162.6 34.4257C162.6 33.9257 162.6 33.4257 162.6 32.8257V32.1257C162.6 31.8257 162.4 31.6257 162.1 31.6257H161.9C161.5 31.6257 161.2 31.5257 160.9 31.5257C160.2 31.3257 159.8 30.9257 159.8 30.2257C159.8 28.8257 159.8 27.4257 159.8 26.0257C159.8 25.1257 160.3 24.6257 161.4 24.6257H167.6C168.2 24.6257 168.7 24.7257 169 25.0257C169.1 25.1257 169.2 25.6257 169.2 26.2257Z" fill="#1E3D74"/>
    <path d="M30.9996 50.3257H28.1996C27.2996 50.3257 26.5996 49.6257 26.5996 48.7257V45.9257C26.5996 45.0257 27.2996 44.3257 28.1996 44.3257H30.9996C31.8996 44.3257 32.5996 45.0257 32.5996 45.9257V48.7257C32.5996 49.6257 31.8996 50.3257 30.9996 50.3257Z" fill="#1E3D74"/>
    <path d="M129.399 13.5248C129.399 14.0248 129.299 14.4248 129.099 14.7248C129.099 14.7248 128.999 14.8248 128.999 14.9248C128.399 15.7248 127.899 16.6248 127.399 17.4248C127.099 17.9248 126.599 18.2248 125.999 18.1248H124.599C124.199 18.1248 123.899 17.9248 123.699 17.7248C123.499 17.4248 123.499 17.1248 123.699 16.7248C123.799 16.4248 123.899 16.1248 124.099 15.8248C124.199 15.6248 124.299 15.3248 124.399 15.1248C124.499 14.9248 124.499 14.7248 124.499 14.7248C124.499 14.6248 124.399 14.5248 124.199 14.4248C123.899 14.2248 123.699 14.0248 123.599 13.8248C123.499 13.6248 123.399 13.3248 123.399 13.0248V11.8248C123.399 11.2248 123.399 10.7248 123.399 10.1248C123.399 9.52483 123.499 9.12482 123.799 8.92482C124.099 8.62482 124.499 8.52482 124.999 8.42482C125.799 8.42482 126.599 8.32482 127.399 8.42482C127.599 8.42482 127.899 8.42482 128.099 8.42482C128.299 8.42482 128.399 8.42482 128.599 8.52482H128.699C128.999 8.62482 129.199 8.72482 129.399 8.92482C129.499 9.12482 129.599 9.32483 129.599 9.62483V11.6248V13.5248H129.399Z" fill="#1E3D74"/>
    <path d="M109.8 13.5248C109.8 14.0248 109.7 14.4248 109.5 14.7248C109.5 14.7248 109.4 14.8248 109.4 14.9248C108.8 15.7248 108.3 16.6248 107.8 17.4248C107.5 17.9248 107 18.2248 106.4 18.1248H105C104.6 18.1248 104.3 17.9248 104.1 17.7248C103.9 17.4248 103.9 17.1248 104.1 16.7248C104.2 16.4248 104.3 16.1248 104.5 15.8248C104.6 15.6248 104.7 15.3248 104.8 15.1248C104.9 14.9248 104.9 14.7248 104.9 14.7248C104.9 14.6248 104.8 14.5248 104.6 14.4248C104.3 14.2248 104.1 14.0248 104 13.8248C103.9 13.6248 103.8 13.3248 103.8 13.0248V11.8248C103.8 11.2248 103.8 10.7248 103.8 10.1248C103.8 9.52483 103.9 9.12482 104.2 8.92482C104.5 8.62482 104.9 8.52482 105.4 8.42482C106.2 8.42482 107 8.32482 107.8 8.42482C108 8.42482 108.3 8.42482 108.5 8.42482C108.7 8.42482 108.8 8.42482 109 8.52482H109.1C109.4 8.62482 109.6 8.72482 109.8 8.92482C109.9 9.12482 110 9.32483 110 9.62483V11.6248V13.5248H109.8Z" fill="#1E3D74"/>
    <path d="M77.9997 29.626H70.2997C69.6997 29.626 69.1997 29.126 69.1997 28.526V25.226C69.1997 24.626 69.6997 24.126 70.2997 24.126H77.9997C78.5997 24.126 79.0997 24.626 79.0997 25.226V28.526C79.0997 29.126 78.5997 29.626 77.9997 29.626Z" fill="#1E3D74"/>
</svg>
