<svg width="285" height="19" viewBox="0 0 285 19" fill="none"
    xmlns="http://www.w3.org/2000/svg">
    <path d="M0 5.12598H4.6C5.8 5.12598 6.7 5.42597 7.3 6.02597C7.8 6.52597 8 7.02598 8 7.72598C8 8.72598 7.5 9.52597 6.5 10.026C7.9 10.526 8.6 11.326 8.6 12.526C8.6 13.426 8.2 14.126 7.5 14.626C6.9 15.226 6 15.526 4.8 15.526H0V5.12598ZM6.2 8.02597C6.2 7.12597 5.6 6.72598 4.4 6.72598H1.8V9.52597H4.3C5.6 9.52597 6.2 9.02597 6.2 8.02597ZM6.8 12.426C6.8 11.526 6.1 11.026 4.7 11.026H1.8V13.826H4.8C6.1 13.826 6.8 13.426 6.8 12.426Z" fill="#1E3D74"/>
    <path d="M11.6001 5.12598H13.4001V15.526H11.6001V5.12598Z" fill="#1E3D74"/>
    <path d="M17 5.12598H24.7V6.72598H18.8V9.42596H24V11.026H18.8V13.826H24.7V15.426H17V5.12598ZM20.1 1.92596H21.8L23.5 4.12598H22.1L20.9 3.12598L19.8 4.12598H18.4L20.1 1.92596ZM24.1 0.125977L25.7 0.825958L23.9 2.52597H22.6L24.1 0.125977Z" fill="#1E3D74"/>
    <path d="M30.3 6.82596H27V5.12598H35.4V6.82596H32.1V15.526H30.3V6.82596Z" fill="#1E3D74"/>
    <path d="M42.3999 10.3258C42.3999 8.82578 42.8999 7.52579 43.8999 6.52579C44.8999 5.42579 46.1999 4.92578 47.6999 4.92578C49.2999 4.92578 50.5999 5.42579 51.7999 6.52579L50.5999 7.82578C49.6999 6.92578 48.6999 6.52579 47.6999 6.52579C46.6999 6.52579 45.8999 6.92579 45.2999 7.62579C44.5999 8.32579 44.2999 9.2258 44.2999 10.2258C44.2999 11.2258 44.5999 12.1258 45.2999 12.8258C45.9999 13.5258 46.7999 13.9258 47.7999 13.9258C48.7999 13.9258 49.7999 13.5258 50.7999 12.6258L51.9999 13.8258C50.7999 15.0258 49.3999 15.6258 47.7999 15.6258C46.2999 15.6258 44.9999 15.1258 43.9999 14.0258C42.8999 13.1258 42.3999 11.8258 42.3999 10.3258Z" fill="#1E3D74"/>
    <path d="M58.3002 5.02579H60.0002L64.6002 15.4258H62.7002L61.6002 12.9258H56.7002L55.6002 15.4258H53.7002L58.3002 5.02579ZM60.9002 11.3258L59.1002 7.2258L57.3002 11.3258H60.9002ZM60.0002 1.92578L61.6002 2.62579L59.7002 4.02579H58.3002L60.0002 1.92578Z" fill="#1E3D74"/>
    <path d="M66 10.3258C66 8.82578 66.5 7.52579 67.5 6.52579C68.5 5.42579 69.8 4.92578 71.3 4.92578C72.9 4.92578 74.2 5.42579 75.4 6.52579L74.2 7.82578C73.3 6.92578 72.3 6.52579 71.3 6.52579C70.3 6.52579 69.5 6.92579 68.9 7.62579C68.2 8.32579 67.9 9.2258 67.9 10.2258C67.9 11.2258 68.2 12.1258 68.9 12.8258C69.6 13.5258 70.4 13.9258 71.4 13.9258C72.4 13.9258 73.4 13.5258 74.4 12.6258L75.6 13.8258C74.4 15.0258 73 15.6258 71.4 15.6258C69.9 15.6258 68.6 15.1258 67.6 14.0258C66.5 13.1258 66 11.8258 66 10.3258Z" fill="#1E3D74"/>
    <path d="M78.2002 5.12598H80.0002V9.42596H85.0002V5.12598H86.8002V15.526H85.0002V11.126H80.0002V15.526H78.2002V5.12598Z" fill="#1E3D74"/>
    <path d="M95.6001 5.12598H97.4001V9.42596H102.3V5.12598H104.1V15.526H102.3V11.126H97.4001V15.526H95.6001V5.12598Z" fill="#1E3D74"/>
    <path d="M107.2 10.3258C107.2 8.82578 107.7 7.52579 108.7 6.52579C109.7 5.42579 111 4.92578 112.6 4.92578C114.2 4.92578 115.5 5.42579 116.5 6.52579C117.5 7.52579 118 8.82578 118 10.3258C118 11.8258 117.5 13.0258 116.5 14.1258C115.5 15.2258 114.2 15.7258 112.6 15.7258C111 15.7258 109.7 15.2258 108.7 14.1258C107.7 13.0258 107.2 11.8258 107.2 10.3258ZM116.1 10.3258C116.1 9.22578 115.8 8.4258 115.1 7.7258C114.4 7.0258 113.6 6.62579 112.6 6.62579C111.6 6.62579 110.7 7.0258 110.1 7.7258C109.4 8.4258 109.1 9.32578 109.1 10.3258C109.1 11.3258 109.4 12.2258 110.1 12.9258C110.8 13.6258 111.6 14.0258 112.6 14.0258C113.6 14.0258 114.5 13.6258 115.1 12.9258C115.8 12.2258 116.1 11.3258 116.1 10.3258ZM111.8 16.7258H113.5V18.5258H111.8V16.7258Z" fill="#1E3D74"/>
    <path d="M120.6 10.3258C120.6 8.82578 121.1 7.52579 122.1 6.52579C123.1 5.42579 124.4 4.92578 125.9 4.92578C127.5 4.92578 128.8 5.42579 130 6.52579L128.8 7.82578C127.9 6.92578 126.9 6.52579 125.9 6.52579C124.9 6.52579 124.1 6.92579 123.5 7.62579C122.8 8.32579 122.5 9.2258 122.5 10.2258C122.5 11.2258 122.8 12.1258 123.5 12.8258C124.2 13.5258 125 13.9258 126 13.9258C127 13.9258 128 13.5258 129 12.6258L130.2 13.8258C129 15.0258 127.6 15.6258 126 15.6258C124.5 15.6258 123.2 15.1258 122.2 14.0258C121.1 13.1258 120.6 11.8258 120.6 10.3258Z" fill="#1E3D74"/>
    <path d="M137 10.0244H141.4V11.8244H137V10.0244Z" fill="#1E3D74"/>
    <path d="M149.7 5.12598H151.5V10.326L156.4 5.12598H158.7L154.4 9.62598L158.9 15.526H156.7L153.2 10.826L151.6 12.526V15.526H149.8V5.12598H149.7Z" fill="#1E3D74"/>
    <path d="M161.2 5.12598H163V9.42596H167.9V5.12598H169.7V15.526H168V11.126H163.1V15.526H161.3V5.12598H161.2Z" fill="#1E3D74"/>
    <path d="M172.9 10.3275C172.9 8.82751 173.4 7.52753 174.4 6.52753C175.4 5.42753 176.7 4.92752 178.3 4.92752C179.9 4.92752 181.2 5.42753 182.2 6.52753C183.2 7.52753 183.7 8.82751 183.7 10.3275C183.7 11.8275 183.2 13.0275 182.2 14.1275C181.2 15.2275 179.9 15.7275 178.3 15.7275C176.7 15.7275 175.4 15.2275 174.4 14.1275C173.4 13.0275 172.9 11.8275 172.9 10.3275ZM181.8 10.3275C181.8 9.22751 181.5 8.42754 180.8 7.72754C180.1 7.02754 179.3 6.62753 178.3 6.62753C177.3 6.62753 176.4 7.02754 175.8 7.72754C175.1 8.42754 174.8 9.32751 174.8 10.3275C174.8 11.3275 175.1 12.2275 175.8 12.9275C176.5 13.6275 177.3 14.0275 178.3 14.0275C179.3 14.0275 180.2 13.6275 180.8 12.9275C181.5 12.2275 181.8 11.3275 181.8 10.3275ZM177.1 1.22754C177.3 1.22754 177.5 1.22754 177.6 1.22754C178.2 1.22754 178.7 1.32753 179.1 1.62753C179.4 1.82753 179.6 2.12753 179.6 2.52753C179.6 2.92753 179.3 3.42751 178.8 3.82751H177.6C178 3.42751 178.2 3.12751 178.2 2.82751C178.2 2.42751 177.8 2.22754 177.1 2.22754V1.22754Z" fill="#1E3D74"/>
    <path d="M186.8 5.12598H188.6V15.526H186.8V5.12598Z" fill="#1E3D74"/>
    <path d="M196.4 10.3258C196.4 8.82578 196.9 7.52579 197.9 6.52579C198.9 5.42579 200.2 4.92578 201.7 4.92578C203.3 4.92578 204.6 5.42579 205.8 6.52579L204.6 7.82578C203.7 6.92578 202.7 6.52579 201.7 6.52579C200.7 6.52579 199.9 6.92579 199.3 7.62579C198.6 8.32579 198.3 9.2258 198.3 10.2258C198.3 11.2258 198.6 12.1258 199.3 12.8258C200 13.5258 200.8 13.9258 201.8 13.9258C202.8 13.9258 203.8 13.5258 204.8 12.6258L206 13.8258C204.8 15.0258 203.4 15.6258 201.8 15.6258C200.3 15.6258 199 15.1258 198 14.0258C196.9 13.1258 196.4 11.8258 196.4 10.3258Z" fill="#1E3D74"/>
    <path d="M217.3 11.026C217.3 12.526 216.9 13.726 216.1 14.526C215.3 15.326 214.2 15.726 212.9 15.726C211.5 15.726 210.5 15.326 209.7 14.526C208.9 13.726 208.5 12.626 208.5 11.126V5.12598H210.3V11.026C210.3 11.926 210.5 12.726 211 13.226C211.5 13.726 212.1 14.026 212.9 14.026C213.7 14.026 214.4 13.826 214.8 13.326C215.3 12.826 215.5 12.126 215.5 11.226V5.22598H217.3V6.72598C217.7 6.42598 217.9 5.92598 217.8 5.22598H219C219 6.62598 218.4 7.42598 217.3 7.72598V11.026ZM212 16.726H213.7V18.526H212V16.726Z" fill="#1E3D74"/>
    <path d="M220.2 10.3258C220.2 8.82578 220.7 7.52579 221.7 6.52579C222.7 5.42579 224 4.92578 225.5 4.92578C227.1 4.92578 228.4 5.42579 229.6 6.52579L228.4 7.82578C227.5 6.92578 226.5 6.52579 225.5 6.52579C224.5 6.52579 223.7 6.92579 223.1 7.62579C222.4 8.32579 222.1 9.2258 222.1 10.2258C222.1 11.2258 222.4 12.1258 223.1 12.8258C223.8 13.5258 224.6 13.9258 225.6 13.9258C226.6 13.9258 227.6 13.5258 228.6 12.6258L229.8 13.8258C228.6 15.0258 227.2 15.6258 225.6 15.6258C224.1 15.6258 222.8 15.1258 221.8 14.0258C220.7 13.1258 220.2 11.8258 220.2 10.3258Z" fill="#1E3D74"/>
    <path d="M237.7 5.12598H239.4L245 12.326V5.12598H246.8V15.526H245.3L239.6 8.12598V15.526H237.8V5.12598H237.7Z" fill="#1E3D74"/>
    <path d="M250.2 5.12598H252V9.42596H256.9V5.12598H258.7V15.526H257V11.126H252V15.526H250.2V5.12598Z" fill="#1E3D74"/>
    <path d="M261.8 10.3258C261.8 8.82578 262.3 7.52579 263.3 6.52579C264.3 5.42579 265.6 4.92578 267.2 4.92578C268.8 4.92578 270.1 5.42579 271.1 6.52579C272.1 7.52579 272.6 8.82578 272.6 10.3258C272.6 11.8258 272.1 13.0258 271.1 14.1258C270.1 15.2258 268.8 15.7258 267.2 15.7258C265.6 15.7258 264.3 15.2258 263.3 14.1258C262.3 13.0258 261.8 11.8258 261.8 10.3258ZM270.8 10.3258C270.8 9.22578 270.5 8.4258 269.8 7.7258C269.1 7.0258 268.3 6.62579 267.3 6.62579C266.3 6.62579 265.4 7.0258 264.8 7.7258C264.1 8.4258 263.8 9.32578 263.8 10.3258C263.8 11.3258 264.1 12.2258 264.8 12.9258C265.5 13.6258 266.3 14.0258 267.3 14.0258C268.3 14.0258 269.2 13.6258 269.8 12.9258C270.4 12.2258 270.8 11.3258 270.8 10.3258ZM266.4 16.7258H268.1V18.5258H266.4V16.7258Z" fill="#1E3D74"/>
    <path d="M275.3 10.3258C275.3 8.82578 275.8 7.52579 276.8 6.52579C277.8 5.42579 279.1 4.92578 280.6 4.92578C282.2 4.92578 283.5 5.42579 284.7 6.52579L283.5 7.82578C282.6 6.92578 281.6 6.52579 280.6 6.52579C279.6 6.52579 278.8 6.92579 278.2 7.62579C277.5 8.32579 277.2 9.2258 277.2 10.2258C277.2 11.2258 277.5 12.1258 278.2 12.8258C278.9 13.5258 279.7 13.9258 280.7 13.9258C281.7 13.9258 282.7 13.5258 283.7 12.6258L284.9 13.8258C283.7 15.0258 282.3 15.6258 280.7 15.6258C279.2 15.6258 277.9 15.1258 276.9 14.0258C275.8 13.1258 275.3 11.8258 275.3 10.3258Z" fill="#1E3D74"/>
</svg>
