<svg width="242" height="282" viewBox="0 0 242 282" fill="none"
    xmlns="http://www.w3.org/2000/svg">
    <path d="M159.848 133.509C159.848 133.509 162.536 139.781 171.795 153.521C178.665 163.676 193.301 164.572 201.366 155.612C208.534 147.547 215.703 138.288 221.677 127.833C232.131 110.509 239.598 90.4971 239.299 71.0822C239.001 60.3294 232.429 51.0699 222.274 47.4857C184.34 34.642 156.562 50.1739 156.562 50.1739L156.861 57.3425L159.848 133.509Z" fill="#F68317"/>
    <path d="M187.625 164.273C187.028 164.273 186.729 164.273 186.132 164.273C179.56 163.975 173.587 160.39 169.704 155.014C160.444 141.274 157.457 135.002 157.457 134.703L157.159 134.106L153.873 48.6801L155.366 47.784C156.561 47.1866 184.638 31.9534 223.169 44.7971C234.221 48.6801 241.987 59.1342 241.987 70.7832C242.285 88.7046 236.013 108.717 223.767 128.729C218.092 138.287 210.923 148.144 203.157 156.806C199.274 161.884 193.599 164.273 187.625 164.273ZM162.535 132.911C163.431 134.404 166.418 140.677 174.184 152.027C176.872 156.209 181.651 158.897 186.43 159.196C191.508 159.494 196.287 157.702 199.573 153.819C207.04 145.456 213.91 135.898 219.585 126.34C231.234 106.925 237.208 87.8085 236.909 71.0818C236.909 61.5237 230.637 52.8617 221.377 49.8748C202.261 43.6023 186.132 44.4984 175.677 46.5892C167.314 48.0827 161.639 50.7709 158.951 51.9656L162.535 132.911Z" fill="#1E3D74"/>
    <path d="M159.845 133.511C159.845 133.511 162.533 139.783 171.792 153.523C178.662 163.678 193.298 164.574 201.363 155.614C208.531 147.549 215.7 138.29 221.674 127.835C229.141 112.901 234.219 96.7717 233.92 80.9411C233.621 70.1882 227.05 60.9288 216.895 57.3445C189.116 48.0851 166.715 53.7602 156.858 57.6432L159.845 133.511Z" fill="#EA5023"/>
    <path d="M189.415 164.273C194.792 163.975 199.87 161.286 203.454 157.105C210.921 148.741 221.674 135.002 230.037 117.976C238.102 101.548 242.284 85.7178 241.985 71.0819C241.985 65.4068 240.193 59.7317 236.609 55.2514C233.323 50.4723 228.544 47.1867 223.167 45.3946C218.986 43.9011 214.505 42.7064 210.324 42.109C208.83 41.8103 207.636 42.7064 207.337 44.1998C207.038 45.6933 207.934 46.888 209.428 47.1867C213.609 48.0828 217.492 48.9789 221.674 50.4723C230.635 53.4592 236.907 62.1212 237.206 71.6793C237.803 108.717 208.532 144.261 199.87 154.417C196.584 158.3 191.805 160.092 186.727 159.793C181.65 159.494 177.169 156.806 174.182 152.624C170.897 147.547 167.91 143.066 165.52 139.183C164.923 137.989 163.429 137.69 161.936 138.287C160.741 138.885 160.443 140.378 161.04 141.573C163.429 145.755 166.416 150.235 169.702 155.313C173.286 160.689 179.26 164.273 185.831 164.572C187.325 164.273 188.221 164.273 189.415 164.273Z" fill="#1E3D74"/>
    <path d="M180.755 215.356C181.352 215.655 185.833 218.045 186.131 218.642C186.43 218.941 186.729 220.135 186.729 220.733C187.326 224.616 185.534 226.707 184.041 229.992C181.054 235.966 177.768 242.239 172.989 247.018C170.898 249.108 168.21 251.199 165.223 252.095C162.535 252.991 159.249 252.991 156.262 252.693C142.523 251.199 129.679 244.628 118.926 235.667C108.173 226.707 99.5113 215.954 91.1479 204.604C92.3427 206.396 100.109 206.993 102.498 207.292C106.68 207.889 110.563 208.487 114.745 208.487C123.108 208.785 131.172 206.993 139.237 205.798C145.808 204.902 151.483 209.98 157.756 212.369C166.418 215.058 178.664 214.162 180.755 215.356Z" fill="#F68317"/>
    <path d="M46.6415 172.345C43.6546 187.579 41.8624 209.084 46.9402 227.902C48.4336 232.979 56.797 226.707 60.9787 229.993C65.459 233.577 71.1341 235.966 76.5105 237.46C87.8608 241.044 100.107 242.538 111.756 240.447C123.405 238.655 134.755 233.278 142.82 224.317C150.287 215.954 154.469 205.201 156.56 194.15C160.741 173.839 152.079 146.658 146.703 126.347C144.015 115.893 147.001 111.114 138.339 104.543C131.768 99.4648 123.106 97.374 114.444 96.7766C104.289 96.1792 93.8346 97.374 84.5752 101.854C73.2249 106.932 63.9655 116.789 60.0826 128.438C56.1996 143.372 49.6284 157.411 46.6415 172.345Z" fill="#F68317"/>
    <path d="M51.4229 201.919C51.7215 204.01 52.9163 205.504 54.4098 206.997C55.9032 208.789 57.9941 210.283 59.7862 211.478C61.2797 212.374 63.0718 213.568 64.8639 213.568C66.0587 213.568 67.8509 212.971 68.1496 211.776C68.1496 210.88 67.8509 210.283 67.2535 209.685C66.6561 209.088 66.0587 209.088 65.1626 208.789C61.5784 207.595 58.2928 205.504 56.2019 202.517C55.6045 201.322 54.7085 199.829 53.215 199.829C52.0203 199.829 51.4229 200.725 51.4229 201.919Z" fill="#FFC61A"/>
    <path d="M50.823 262.55C51.4204 266.134 52.3165 270.017 55.3034 272.108C57.6929 273.9 61.2772 274.497 64.2641 274.796C73.2248 275.692 82.4842 275.692 91.4449 274.796C92.341 274.796 93.237 274.497 93.5357 273.9C93.8344 273.303 93.8344 272.705 93.8344 272.108C93.5358 260.758 93.2371 249.706 92.9384 238.356C92.9384 237.161 92.9384 235.966 92.341 235.07C91.7436 234.174 90.8475 233.577 89.9515 232.979C82.7829 228.2 75.0169 224.019 67.8484 219.24C63.9654 216.551 54.4073 206.097 49.0309 209.98C44.2519 213.266 47.2388 229.395 47.5375 234.473C48.1348 243.732 49.3296 252.992 50.823 262.55Z" fill="#F68317"/>
    <path d="M25.1347 185.787C24.2386 187.28 23.6412 188.774 23.3425 190.267C23.0438 193.553 25.1346 196.839 27.5241 198.929C32.9006 204.007 40.0692 206.695 47.2377 206.695C48.1338 196.54 49.6273 186.384 51.7181 176.229C53.5102 166.969 57.3932 157.71 58.8866 148.451C52.9128 150.84 46.043 158.905 41.5626 163.684C34.9914 170.554 29.615 178.021 25.1347 185.787Z" fill="#F68317"/>
    <path d="M91.1465 245.526C90.5491 243.734 89.9517 241.942 89.0556 240.448C87.8609 238.955 86.6661 237.461 85.1727 236.267C83.3805 234.773 81.2897 233.28 79.4976 231.786C86.9648 235.669 95.3281 236.864 103.691 236.267C112.055 235.669 120.119 233.28 127.587 229.994C130.872 238.656 138.638 244.929 146.703 250.305C138.638 247.916 131.47 244.033 124.301 239.851C124.002 239.552 123.704 239.552 123.106 239.552C122.808 239.552 122.509 239.552 122.21 239.851C113.548 243.137 103.99 244.63 94.4321 244.033C94.4321 249.708 94.4321 255.682 93.8347 261.357C93.536 259.266 93.2373 255.682 92.9386 253.889C92.3412 251.201 92.0425 248.214 91.1465 245.526Z" fill="#EA5023"/>
    <path d="M57.3948 265.536C59.7844 264.341 62.7713 265.536 64.5634 267.627C66.0569 269.717 66.6542 272.406 67.2516 275.094C67.5503 273.003 67.5503 270.912 68.4464 269.12C69.0438 267.328 70.2385 265.536 72.0307 264.64C75.0176 263.146 78.6019 264.341 80.9914 266.731C83.3809 269.12 84.5756 272.406 85.173 275.393C85.173 273.899 85.173 272.704 85.7704 271.211C86.3678 270.016 87.5625 268.821 88.7573 268.821C90.2508 268.821 91.4455 269.717 92.0429 270.912C92.6403 272.107 92.939 273.6 92.939 274.795C92.0429 275.691 90.5495 275.99 89.3547 275.99C83.0822 276.886 76.8097 277.185 70.5372 276.886C67.5503 276.587 64.2647 276.289 61.2778 275.691C59.187 275.094 55.9014 274.795 55.304 272.406C54.4079 269.717 55.304 266.432 57.3948 265.536Z" fill="#FFC61A"/>
    <path d="M182.249 215.953C179.86 215.057 177.47 214.759 174.782 214.759C173.886 214.759 172.691 214.759 171.795 215.356C170.899 215.655 170.302 216.551 170.003 217.745C170.003 219.239 171.198 220.135 172.094 221.031C170.302 220.732 168.51 221.33 167.016 222.525C165.821 223.122 164.925 224.018 164.328 225.213C163.73 226.407 163.73 227.901 164.627 228.797C161.938 229.096 160.146 232.083 160.744 234.472C160.744 235.07 161.042 235.667 161.64 236.264C163.133 237.758 165.523 237.758 167.613 237.16C171.496 235.667 174.185 232.083 177.172 229.096C178.665 227.602 180.158 226.109 181.951 225.213C183.444 224.317 186.132 222.525 186.132 220.135C187.028 217.148 184.34 216.551 182.249 215.953Z" fill="#FFC61A"/>
    <path d="M158.652 251.198C157.159 249.704 156.86 247.315 157.159 245.224C157.457 243.133 158.354 241.042 159.25 239.25C162.535 232.978 167.016 227.004 172.093 222.225C175.08 219.537 178.366 216.848 182.547 216.848C184.041 216.848 185.236 217.147 186.43 218.342C187.028 218.939 187.625 219.835 187.625 221.03C188.521 224.614 187.028 228.199 185.534 231.484C183.444 236.263 180.457 240.744 176.872 244.627C173.587 247.912 163.73 256.574 158.652 251.198Z" fill="#EA5023"/>
    <path d="M27.5265 183.995C28.7212 183.995 29.6173 185.189 30.2147 186.384C31.7081 190.267 30.2147 194.449 29.0199 198.033C29.3186 197.734 29.6173 197.137 30.2147 197.137C30.8121 196.838 31.4095 196.838 31.7081 197.436C32.0068 197.734 32.0068 198.033 32.0068 198.63C32.0068 200.124 31.7081 201.617 31.4094 203.111C29.6173 201.02 27.5265 199.527 25.7344 197.436C24.2409 195.345 22.7475 192.358 23.3448 189.67C23.3448 187.878 25.137 183.995 27.5265 183.995Z" fill="#FFC61A"/>
    <path d="M43.9517 209.679C46.3412 193.251 48.7308 176.524 54.1072 160.694C51.1203 165.772 49.9255 171.148 48.4321 176.823C47.2373 180.706 46.0425 184.29 44.8478 187.875C43.653 191.16 42.1596 194.147 40.0688 196.537C37.6792 198.926 34.3936 200.42 31.108 199.822C28.1211 199.225 25.7316 196.537 23.9395 194.446C27.225 202.51 36.1857 206.692 43.9517 209.679Z" fill="#EA5023"/>
    <path d="M178.666 135.301C179.86 134.107 181.354 132.613 183.146 132.613C184.64 132.613 185.834 133.509 186.73 134.405C191.211 138.587 194.795 143.665 197.483 149.34C199.873 154.418 201.067 160.69 198.081 165.768C196.288 168.755 193.6 170.547 190.912 172.339C178.068 180.404 163.731 185.78 149.095 188.468C146.108 182.793 143.719 176.521 142.524 170.248C141.927 166.963 141.329 163.677 142.226 160.69C144.316 154.119 153.576 152.626 158.952 149.937C165.822 146.054 172.692 140.977 178.666 135.301Z" fill="#F68317"/>
    <path d="M157.157 172.047C158.053 173.839 160.144 175.034 162.235 175.632C164.326 176.229 166.416 175.93 168.507 175.632C174.78 174.735 181.052 172.346 186.429 168.762C190.312 166.073 193.597 163.086 195.688 158.905C197.48 154.723 197.779 149.645 195.389 145.762C197.182 148.451 198.675 151.438 199.571 154.723C200.467 158.009 200.467 161.593 198.974 164.58C197.779 167.268 195.389 169.658 193 171.749C184.338 178.618 173.286 181.904 162.832 185.488C162.235 185.787 161.637 185.787 161.339 186.384C160.741 186.982 160.443 187.579 160.144 188.177C158.352 193.254 156.56 198.631 154.469 203.708C156.858 193.254 158.053 182.8 157.157 172.047Z" fill="#EA5023"/>
    <path d="M110.263 97.3694C111.756 97.3694 113.548 97.3694 115.042 97.6681C123.405 98.2655 132.067 100.356 138.937 105.434C147.599 112.005 144.612 116.784 147.3 127.238C149.391 135.004 151.781 143.368 153.871 152.328C155.664 151.731 157.456 150.835 158.651 150.238C165.819 146.355 172.689 141.277 178.364 135.602C179.559 134.407 181.052 132.914 182.844 132.914C182.844 132.914 182.844 132.914 183.143 132.914C184.637 132.914 185.831 133.81 186.727 134.706C191.208 138.887 194.792 143.965 197.48 149.64C199.87 154.718 201.065 160.99 198.078 166.068C196.286 169.055 193.597 170.847 190.909 172.639C180.754 178.912 169.702 183.691 158.352 186.678C158.053 189.366 157.754 192.054 157.456 194.742C156.261 199.82 155.066 204.898 152.975 209.677C154.768 210.573 156.56 211.469 158.651 212.365C164.027 214.157 171.196 214.456 175.975 214.755H176.273C177.468 214.755 178.364 214.755 179.559 215.053C180.455 215.053 180.754 215.352 181.052 215.352C181.65 215.651 182.247 215.651 182.844 215.95C184.039 216.547 185.831 216.846 186.727 218.04C187.325 218.638 187.922 219.534 187.922 220.729C188.818 224.313 187.325 227.897 185.831 231.183C183.741 235.962 180.754 240.442 177.169 244.325C174.481 247.013 168.209 252.987 162.832 252.987C162.235 252.987 161.637 252.987 161.339 252.688C161.04 252.688 160.443 252.688 160.144 252.688C158.949 252.688 157.755 252.688 156.56 252.39C153.274 252.091 149.989 251.494 146.703 250.299C145.807 250 144.911 249.702 144.015 249.403H143.716C141.028 248.507 138.041 247.312 135.353 245.819H135.054C134.755 245.52 134.457 245.52 134.158 245.221C130.872 243.429 127.587 241.637 124.301 239.845C124.002 239.546 123.704 239.546 123.106 239.546C122.808 239.546 122.509 239.546 122.21 239.845C114.444 242.832 106.38 244.325 98.0164 244.325C96.8216 244.325 95.6269 244.325 94.4321 244.325C94.4321 250 94.4321 255.974 93.8347 261.649C93.8347 265.233 94.1334 268.818 94.1334 272.402C94.1334 272.999 94.1334 273.597 93.8347 274.194C93.536 274.493 93.2373 274.493 92.9387 274.792C92.0426 275.389 90.5491 275.688 89.3544 275.986C84.5753 276.584 80.0949 276.882 75.3159 276.882C73.8224 276.882 72.0303 276.882 70.5369 276.584C67.55 276.285 64.2643 275.986 61.2774 275.389C59.1866 274.792 55.901 274.493 55.3036 272.103C52.3167 269.714 51.4207 266.129 50.8233 262.545C49.3298 253.286 48.4337 244.026 47.8364 234.468C47.8364 232.975 47.5377 230.585 47.239 227.897C45.4469 221.923 44.5508 215.651 44.2521 209.677C37.3822 206.989 29.3176 203.405 25.1359 197.132C24.5385 196.535 24.2398 195.639 23.9411 194.742C23.3437 193.249 22.7464 191.457 23.045 189.963C23.3437 188.47 24.2398 186.08 26.032 184.886C30.5123 177.418 35.5901 170.25 41.5639 163.977C44.5508 160.99 48.4338 156.211 52.6154 152.627C55.3036 144.861 58.5892 136.797 61.2774 129.031C64.8617 117.382 74.4198 107.525 85.7701 102.447C93.2373 98.8628 101.601 97.3694 110.263 97.3694ZM110.263 91.993C100.406 91.993 91.1465 93.7851 83.0819 97.6681C70.2382 103.642 60.0827 114.693 55.901 127.238C54.4076 132.316 52.3168 137.394 50.5246 142.173C49.6285 144.562 48.7324 146.952 47.8364 149.342C44.8495 152.03 41.8625 155.315 39.473 157.705C38.577 158.601 37.9796 159.497 37.3822 160.094C31.4084 166.367 26.032 173.535 21.5516 181.003C19.1621 183.392 17.9673 186.678 17.6687 188.47C17.37 190.859 17.6686 193.249 18.5647 195.937C18.5647 196.236 18.5647 196.236 18.8634 196.535C19.4608 197.431 19.7595 198.625 20.6556 199.522C25.1359 206.391 32.9019 210.274 39.1744 212.963C39.7717 218.638 40.6678 223.715 42.1613 228.495C42.1613 229.092 42.1612 229.689 42.4599 230.287C42.7586 231.78 42.7586 233.274 42.7586 234.17C43.356 243.728 44.2521 253.286 45.7455 262.844C46.3429 265.831 46.9403 270.909 50.8233 274.792C52.9141 278.674 57.0958 279.571 59.4853 279.869C59.784 279.869 60.0827 279.869 60.0827 279.869C63.0696 280.467 66.6539 281.064 69.9395 281.363C71.7316 281.363 73.2251 281.661 75.0172 281.661C79.4976 281.661 84.2766 281.363 89.653 280.467C90.8478 280.168 92.9386 280.168 95.0295 278.675C95.9255 278.376 96.8216 277.778 97.419 276.882C99.2112 274.792 99.2111 272.402 99.2111 271.506L98.9125 261.052C99.5098 256.87 99.8085 252.39 99.8085 248.507C107.574 248.208 115.34 247.013 122.808 244.325C125.496 245.819 128.483 247.611 131.768 249.104C132.067 249.403 132.366 249.403 132.664 249.702H132.963C135.95 251.195 138.937 252.39 141.924 253.286H142.223C143.119 253.585 144.313 253.883 145.209 254.182C145.209 254.182 145.209 254.182 145.508 254.182C145.508 254.182 145.508 254.182 145.807 254.182C149.391 255.078 152.975 255.974 156.261 256.273C157.754 256.571 158.949 256.571 160.443 256.571C160.741 256.571 160.741 256.571 161.04 256.571C161.637 256.571 162.534 256.87 163.131 256.87C170.897 256.87 178.962 248.805 181.052 246.416C184.637 242.533 187.624 237.754 190.61 231.78C192.403 227.897 194.195 223.118 193 218.04C192.403 215.95 191.506 214.456 190.312 212.963C188.818 211.469 187.026 210.573 185.533 209.976C185.234 209.976 184.935 209.677 184.935 209.677C184.338 209.378 183.442 209.08 182.844 208.781C182.247 208.482 181.351 208.184 180.156 208.184C178.962 207.885 177.767 207.885 176.273 207.885H175.975H175.676C171.196 207.586 164.624 207.287 160.144 205.794C159.845 205.794 159.547 205.495 159.248 205.495C160.443 201.911 161.637 198.028 162.235 194.145C162.534 192.652 162.832 190.86 163.131 189.067C173.884 186.08 184.338 181.301 193.597 175.328C196.883 173.237 200.467 170.847 202.558 166.964C205.844 161.289 205.545 153.822 202.259 145.757C199.571 139.485 195.389 133.81 190.312 129.031C189.416 128.135 187.026 125.745 183.442 125.745H183.143C179.26 125.745 176.572 128.433 175.079 129.927C169.702 135.004 164.027 139.485 157.456 143.069C156.261 138.887 155.365 135.004 154.17 130.823C153.573 128.433 152.975 126.044 152.378 123.654C151.482 120.667 151.482 118.278 151.183 116.187C150.586 110.81 149.989 105.135 142.223 99.1615C135.651 94.0838 126.691 91.0969 115.639 90.4995C113.847 92.2917 112.055 91.993 110.263 91.993Z" fill="#1E3D74"/>
    <path d="M106.977 196.535H98.016C96.8212 196.535 95.6265 195.341 95.6265 194.146V177.12C95.6265 175.926 96.8212 174.731 98.016 174.731H106.678C107.873 174.731 109.068 175.926 109.068 177.12V194.146C109.366 195.341 108.171 196.535 106.977 196.535Z" fill="#4A50FF"/>
    <path d="M106.979 198.928H98.0188C95.3306 198.928 93.2397 196.837 93.2397 194.149V177.123C93.2397 174.435 95.3306 172.344 98.0188 172.344H106.681C109.369 172.344 111.46 174.435 111.46 177.123V194.149C111.759 196.538 109.668 198.928 106.979 198.928ZM98.0188 176.825V194.149H106.681V177.123L98.0188 176.825Z" fill="#1E3D74"/>
    <path d="M93.54 193.849V177.421C93.54 177.421 73.8265 153.526 59.1906 156.214C51.4247 157.708 50.5286 169.356 55.3077 176.226C55.3077 176.226 50.5286 188.771 56.5024 195.044C62.7749 201.316 87.5662 200.719 93.54 193.849Z" fill="#7398FF"/>
    <path d="M73.5257 201.915C66.3572 201.915 58.5912 200.721 54.7082 196.838C48.7344 190.864 51.4226 180.111 52.6174 176.527C49.9292 171.748 49.0331 165.176 51.1239 160.397C52.6174 156.813 55.3056 154.424 58.8899 153.826C65.7597 152.333 73.8244 155.917 83.3825 163.683C90.2524 169.358 95.3301 175.332 95.3301 175.631L95.9275 176.228V194.149L95.3301 194.747C90.8498 200.123 79.4995 201.019 75.9153 201.318C75.3179 201.617 74.4218 201.915 73.5257 201.915ZM61.8768 158.307C61.2794 158.307 60.3833 158.307 59.7859 158.605C57.9938 158.904 56.5004 160.099 55.6043 162.19C54.1108 165.774 54.7082 171.15 57.3964 174.735L57.9938 175.631L57.3964 176.825C56.2017 179.812 54.1109 189.072 57.9938 193.253C60.3834 195.643 67.8506 197.136 75.6166 196.838C82.4864 196.539 88.4603 195.046 90.8498 192.656V178.319C85.772 172.046 72.0322 158.307 61.8768 158.307Z" fill="#1E3D74"/>
    <path d="M111.458 193.847V177.419C111.458 177.419 131.172 153.524 145.807 156.212C153.573 157.706 154.469 169.355 149.69 176.225C149.69 176.225 154.469 188.77 148.496 195.042C142.223 201.315 117.432 200.717 111.458 193.847Z" fill="#7398FF"/>
    <path d="M131.475 201.914C130.578 201.914 129.682 201.914 129.085 201.914C125.799 201.914 114.449 200.719 109.67 195.342L109.073 194.745V176.824L109.67 176.226C109.969 175.928 114.748 169.954 121.618 164.279C131.176 156.214 139.539 152.928 146.11 154.422C149.695 155.019 152.383 157.409 153.876 160.993C155.967 165.772 155.071 172.045 152.383 177.122C153.578 180.707 156.266 191.161 150.292 197.433C146.409 200.42 138.344 201.914 131.475 201.914ZM113.852 192.654C116.241 195.044 122.215 196.537 129.085 196.836C137.15 197.135 144.318 195.641 146.708 193.252C150.889 189.07 148.5 180.109 147.305 176.824L146.708 175.629L147.305 174.733C149.695 171.148 150.591 165.772 149.097 162.188C148.201 160.097 147.006 158.902 144.916 158.603C134.461 156.513 119.228 171.447 113.553 178.317V192.654H113.852Z" fill="#1E3D74"/>
    <path d="M175.079 138.89C174.78 139.189 174.78 139.786 174.78 140.085C175.079 140.981 175.975 141.28 176.572 141.28C179.858 141.877 183.144 140.981 185.832 139.189C184.936 140.981 185.832 143.072 187.325 143.968C188.819 144.864 191.208 144.864 192.702 143.968C193 143.072 192.403 141.877 192.104 140.981C190.909 139.189 189.715 137.098 188.221 135.306C187.325 134.111 186.13 133.215 184.637 132.618C183.144 131.722 182.248 131.722 180.754 132.618C178.365 134.111 176.274 136.202 175.079 138.89Z" fill="#FFC61A"/>
    <path d="M5.42386 106.636C7.21601 115.896 15.2806 121.571 23.9427 121.571C26.6309 121.571 29.3191 120.973 32.0073 119.779C46.9418 112.61 52.617 108.428 52.617 108.428L97.7192 37.9374C97.7192 37.9374 81.59 10.4579 42.1628 2.69194C34.3969 1.19848 26.6309 3.28933 20.9558 8.06837C18.8649 9.86051 16.7741 11.9513 15.2807 14.6396C-0.549937 41.223 0.047435 78.858 5.42386 106.636Z" fill="#F68317"/>
    <path d="M5.42425 106.631C7.2164 115.891 15.281 121.566 23.943 121.566C32.9038 116.787 38.2802 115.592 38.2802 115.592L81.5903 43.9063C81.5903 43.9063 65.461 16.4268 26.0339 8.66085C24.2417 8.36216 22.4496 8.06348 20.6575 8.06348C18.5666 9.85562 16.4758 11.9464 14.9823 14.6347C-0.54956 41.2181 0.0478286 78.8531 5.42425 106.631Z" fill="#EA5023"/>
    <path d="M97.1217 162.492C122.809 166.972 147.6 157.414 163.73 139.493C172.392 129.636 178.664 117.389 181.054 103.65C187.924 64.2226 161.34 26.8863 121.913 20.0164C90.2518 14.64 59.4867 30.4705 45.1495 57.3527C41.5653 63.9239 39.1757 71.0924 37.6823 79.1571C31.1111 118.286 57.3958 155.622 97.1217 162.492Z" fill="#FFC61A"/>
    <path d="M109.668 166.071C105.486 166.071 101.006 165.773 96.5257 164.877C76.8121 161.591 59.4881 150.54 47.8391 134.112C36.1902 117.684 31.7099 97.9701 35.2941 78.2565C36.7876 70.4905 39.1771 62.7246 43.0601 55.8547C58.2933 27.1804 90.2532 11.6485 122.512 17.025C142.524 20.3106 159.549 31.3621 171.198 47.7901C182.847 64.2181 187.029 83.9316 183.743 103.645C181.354 117.385 175.081 130.527 165.822 140.981C151.186 157.111 130.875 166.071 109.668 166.071ZM109.369 21.2066C83.682 21.2066 59.7868 35.2451 47.5405 58.2442C43.9562 64.8154 41.5666 71.6853 40.3719 79.1526C37.0863 97.3727 41.268 115.891 52.0208 131.125C62.7737 146.358 78.9029 156.513 97.4218 159.799C121.317 163.981 145.511 155.617 161.64 137.397C170.302 127.54 176.276 115.593 178.367 102.749C181.652 84.529 177.471 66.0102 166.718 50.777C155.965 35.5438 139.836 25.3883 121.317 22.1027C117.434 21.5053 113.551 21.2066 109.369 21.2066Z" fill="#1E3D74"/>
    <path d="M97.1205 162.493C122.808 166.973 147.599 157.415 163.729 139.493C167.313 132.922 169.702 125.754 171.196 117.689C178.066 78.2618 151.482 40.9255 112.055 34.0557C86.3677 29.5753 61.5763 39.1334 45.447 57.0548C41.8628 63.626 39.4732 70.7946 37.9798 78.8592C31.1099 118.286 57.3947 155.623 97.1205 162.493Z" fill="#F68317"/>
    <path d="M43.3598 155.911C44.2559 159.794 46.0481 163.976 48.7363 167.859C64.2682 189.962 91.449 193.546 111.76 177.715C124.902 167.261 132.37 148.444 136.551 133.509C139.837 121.562 140.733 112.601 140.733 112.601L70.242 128.431C54.1127 123.652 39.4769 138.288 43.3598 155.911Z" fill="#F68317"/>
    <path d="M43.3574 155.917C44.2535 159.8 46.0456 163.982 48.7339 167.865C64.2657 189.968 91.4466 193.552 111.758 177.722C124.9 167.267 132.367 148.45 136.549 133.515C136.549 133.515 120.121 173.241 89.057 178.618C63.9671 182.799 50.8247 168.761 43.3574 155.917Z" fill="#FFC61A"/>
    <path d="M25.7352 124.255C28.4234 123.957 30.8129 123.359 33.2024 122.164C36.488 120.671 39.4749 119.177 42.1631 117.684C43.3579 117.087 43.9553 115.593 43.3579 114.398C42.7605 113.204 41.2671 112.606 40.0723 113.204C37.3841 114.697 34.3972 116.191 31.4103 117.684C26.9299 119.775 21.5535 119.775 17.0731 117.684C12.5928 115.593 9.30719 111.412 8.41112 106.334C5.7229 93.1914 -1.14699 47.7905 17.9692 16.1293C23.0469 7.76594 32.605 3.58428 42.1631 5.67511C61.578 9.55809 75.0191 18.5188 83.0837 25.3887C84.2785 26.2848 85.7719 26.2848 86.668 25.09C87.5641 23.8952 87.5641 22.4018 86.3693 21.5057C74.4217 11.0515 59.4872 3.88298 43.0592 0.597382C37.3841 -0.59738 31.709 -3.38263e-06 26.3325 2.38952C20.9561 4.77904 16.7745 8.66203 13.7876 13.4411C6.32029 25.9861 1.54125 41.8167 0.346484 60.0368C-0.848278 78.8543 1.24253 96.1783 3.63205 107.23C4.82681 113.801 9.00849 119.178 14.9823 121.866C17.9692 123.658 21.8522 124.554 25.7352 124.255Z" fill="#1E3D74"/>
    <path d="M50.2288 135.304C50.5275 135.304 51.1248 135.005 51.4235 134.706C52.6183 133.81 52.917 132.317 52.0209 131.122C41.2681 115.889 37.0864 97.37 40.372 78.8512C46.3458 44.5018 77.1109 19.7105 112.058 20.9052C113.551 20.9052 114.746 20.0092 114.746 18.5157C114.746 17.0223 113.85 15.8275 112.356 15.8275C94.435 15.2301 76.5135 21.2039 62.4751 32.2555C48.138 43.6057 38.5799 59.735 35.593 77.9551C32.0087 97.6687 36.489 117.681 48.138 133.81C48.4366 135.005 49.3327 135.304 50.2288 135.304Z" fill="#1E3D74"/>
    <path d="M125.2 164.279H125.499C139.836 160.994 152.978 153.825 163.432 143.371C174.185 132.618 181.055 118.878 183.743 103.944C186.431 88.1133 184.042 71.984 176.873 57.6469C176.276 56.4521 174.783 55.8547 173.588 56.4521C172.393 57.0495 171.796 58.543 172.393 59.7377C179.263 73.1788 181.354 88.1133 178.665 103.048C173.886 131.125 152.381 153.228 124.304 159.5C122.81 159.799 122.213 160.994 122.512 162.487C122.81 163.682 124.005 164.578 125.2 164.279Z" fill="#1E3D74"/>
    <path d="M87.863 189.671C96.8238 189.073 105.486 185.489 113.252 179.515C123.407 171.45 131.771 157.711 137.446 138.594C141.627 124.556 143.121 112.907 143.121 112.608C143.419 111.115 142.225 109.92 141.03 109.92C139.536 109.622 138.342 110.816 138.342 112.011C138.342 112.608 132.965 157.711 110.265 175.333C101.005 182.801 89.6552 185.788 78.9023 184.294C67.8508 182.801 57.994 176.229 50.8254 166.074C42.7608 154.724 44.8516 143.971 49.0333 137.698C53.8124 131.127 61.5783 128.14 69.6429 130.231C70.8377 130.53 72.3311 129.932 72.6298 128.439C72.9285 127.244 72.3311 125.751 70.8377 125.452C60.9809 122.764 50.8254 126.348 44.8516 134.712C39.4752 142.477 37.0857 155.321 46.6438 169.061C54.4097 180.112 65.4613 187.281 78.0063 189.372C81.2919 189.969 84.5775 189.969 87.863 189.671Z" fill="#1E3D74"/>
    <path d="M61.8788 154.422C62.4762 154.422 63.0736 154.124 63.671 154.124C67.8526 152.929 70.8395 148.449 71.7356 141.877C74.1251 124.852 74.4238 97.6712 74.4238 96.4764C74.4238 94.983 73.2291 94.0869 72.0343 94.0869C70.5408 94.0869 69.6448 95.2817 69.6448 96.4764C69.6448 96.7751 69.3461 124.553 67.2552 140.981C66.6578 145.163 65.1644 148.15 62.7749 149.046C61.2814 149.643 59.4893 148.747 57.9959 146.955C57.0998 145.76 55.6063 145.76 54.4115 146.656C53.2168 147.552 53.2168 149.046 54.1129 150.241C55.6063 153.228 58.5932 154.721 61.8788 154.422Z" fill="#1E3D74"/>
    <path d="M120.42 120.969C121.017 120.969 121.614 120.671 122.212 120.073C123.108 118.879 122.809 117.385 121.913 116.489C121.316 116.19 108.173 105.736 88.7583 109.918C87.2649 110.217 86.6675 111.411 86.6675 112.905C86.9662 114.398 88.1609 114.996 89.6544 114.697C106.68 111.113 118.329 120.372 118.627 120.372C119.225 120.671 119.822 120.969 120.42 120.969Z" fill="#1E3D74"/>
    <path d="M114.149 136.802C115.045 136.802 115.642 136.204 116.239 135.607C116.837 134.412 116.538 132.919 115.343 132.321C114.746 132.023 101.604 124.854 88.7599 126.945C87.2664 127.244 86.3704 128.438 86.669 129.932C86.9677 131.425 88.1625 132.321 89.656 132.023C101.006 130.23 112.954 136.802 112.954 136.802C113.253 136.503 113.551 136.802 114.149 136.802Z" fill="#1E3D74"/>
    <path d="M70.8364 85.7225C69.6416 85.7225 68.7456 84.8264 68.4469 83.6317C68.1482 82.1382 69.0442 80.9434 70.239 80.6448L84.8748 77.0605L68.1482 65.1128C66.9534 64.2168 66.6547 62.7233 67.5508 61.5286C68.4469 60.3338 69.9403 60.0351 71.1351 60.9312L92.3421 76.1644C93.2382 76.7618 93.5368 77.6578 93.2381 78.8526C92.9394 79.7487 92.3421 80.6448 91.446 80.9434L71.1351 85.7225C71.4338 85.7225 71.1351 85.7225 70.8364 85.7225Z" fill="#1E3D74"/>
    <path d="M146.706 101.259C146.108 101.259 145.511 100.96 144.914 100.662L129.382 86.9219C128.486 86.3245 128.187 85.1297 128.486 84.2336C128.784 83.3376 129.68 82.4415 130.576 82.4415L156.264 78.8572C157.757 78.5585 158.952 79.7533 159.251 80.9481C159.549 82.4415 158.355 83.6363 157.16 83.935L136.849 86.6232L148.199 96.7786C149.394 97.6747 149.394 99.4669 148.498 100.363C148.199 100.96 147.303 101.259 146.706 101.259Z" fill="#1E3D74"/>
</svg>
