<svg width="258" height="216" viewBox="0 0 258 216" fill="none"
    xmlns="http://www.w3.org/2000/svg">
    <path d="M235.501 112.628C235.501 128.328 231.601 143.028 224.701 155.928C209.101 185.328 178.001 205.328 142.301 205.328C106.601 205.328 75.5006 185.328 59.9006 155.928C53.0006 143.028 49.1006 128.228 49.1006 112.628C49.1006 97.0277 53.1006 82.2277 60.0006 69.3277C75.6006 39.9277 106.701 19.9277 142.401 19.9277C178.101 19.9277 209.201 39.9277 224.801 69.3277C231.701 82.2277 235.501 97.0277 235.501 112.628Z" fill="#1E3D74"/>
    <path d="M142.4 208.926C106.5 208.926 73.7002 189.226 56.9002 157.626C49.6002 143.826 45.7002 128.326 45.7002 112.626C45.7002 96.9262 49.6002 81.4262 56.9002 67.6262C73.7002 36.0262 106.5 16.3262 142.4 16.3262C178.3 16.3262 211.1 36.0262 227.9 67.6262C235.2 81.3262 239.1 96.9262 239.1 112.626C239.1 128.326 235.2 143.826 227.9 157.626C211.1 189.326 178.3 208.926 142.4 208.926ZM142.4 23.4262C109.1 23.4262 78.7002 41.6262 63.1002 71.0262C56.3002 83.7262 52.7002 98.1262 52.7002 112.726C52.7002 127.226 56.3002 141.626 63.1002 154.426C78.7002 183.726 109.1 202.026 142.4 202.026C175.7 202.026 206.1 183.826 221.7 154.426C228.5 141.726 232.1 127.226 232.1 112.726C232.1 98.2262 228.5 83.8262 221.7 71.0262C206.1 41.6262 175.7 23.4262 142.4 23.4262Z" fill="#1E3D74"/>
    <path d="M92.7002 162.027C92.7002 162.027 90.3002 168.827 81.7002 184.227C75.3002 195.527 60.0002 197.827 50.6002 188.927C42.4002 181.127 34.0002 171.727 26.6002 161.327C14.1002 143.827 4.30022 123.427 2.90022 102.827C2.10022 91.4274 8.50022 80.9274 19.0002 76.4274C58.1002 59.5274 88.9002 73.6274 88.9002 73.6274L89.2002 81.4274L92.7002 162.027Z" fill="#F68317"/>
    <path d="M92.6998 162.027C92.6998 162.027 90.2998 168.827 81.6998 184.227C75.2998 195.527 59.9998 197.827 50.5998 188.927C42.3998 181.127 33.9998 171.727 26.5998 161.327C17.3998 146.227 10.6998 129.527 9.49983 112.727C8.69983 101.327 15.0998 90.8273 25.5998 86.3273C54.1998 74.0273 78.2998 78.2273 89.1998 81.3273L92.6998 162.027Z" fill="#EA5023"/>
    <path d="M253.8 120.226C252.7 130.026 244.6 137.026 235.5 137.626C232.7 137.826 229.7 137.426 226.9 136.326C210.4 130.026 204.2 126.226 204.2 126.226L150.5 55.6262C150.5 55.6262 165.2 25.2262 206.1 13.4262C214.1 11.1262 222.4 12.6262 229 17.2262C231.4 18.9262 233.6 21.0262 235.5 23.6262C254.8 50.4262 257.3 90.3261 253.8 120.226Z" fill="#F68317"/>
    <path d="M253.799 120.224C252.699 130.024 244.599 137.024 235.499 137.624C225.499 133.424 219.699 132.424 219.699 132.424L167.899 60.4241C167.899 60.4241 182.599 30.0241 223.499 18.2241C225.299 17.7241 227.199 17.3241 228.999 17.2241C231.399 18.9241 233.599 21.0241 235.499 23.6241C254.799 50.4241 257.299 90.3241 253.799 120.224Z" fill="#EA5023"/>
    <path d="M161.7 187.126C134.9 194.026 107.8 186.026 89.1 168.426C78.9 158.826 71.3 146.426 67.5 131.926C56.8 90.8259 81.7 48.8259 123 38.2259C156.2 29.7259 189.9 43.9259 207.4 71.1259C211.7 77.8259 215 85.3259 217.2 93.4259C227.9 134.526 203 176.526 161.7 187.126Z" fill="#FFB817"/>
    <path d="M161.7 187.126C134.9 194.026 107.8 186.026 89.0998 168.426C84.7998 161.726 81.4998 154.226 79.2998 146.126C68.5998 105.026 93.4999 63.0262 134.8 52.4262C161.6 45.5262 188.7 53.5262 207.4 71.1262C211.7 77.8262 215 85.3262 217.2 93.4262C227.9 134.526 203 176.526 161.7 187.126Z" fill="#F68317"/>
    <path d="M132.2 66.4241C127.9 73.4241 120.6 79.6241 112.4 84.0241C105 88.0241 96.7998 90.5241 89.1998 90.7241C88.3998 90.7241 87.4998 90.7241 86.6998 90.7241C86.0998 90.7241 85.5998 90.7241 85.0998 90.6241C77.6998 90.0241 72.5998 87.1241 70.0998 82.6241L61.2998 66.2241L78.1998 57.2241C82.0998 53.2241 86.9998 49.6241 92.1998 46.8241C97.3998 44.0241 103.1 41.9241 108.6 40.9241L125.7 31.7241L127.8 35.5241L128.5 36.7241L134.6 48.1241C137 53.0241 136.5 59.5241 132.2 66.4241Z" fill="#7398FF"/>
    <path d="M144.3 18.7276L116.8 63.2276C114.5 66.9276 110.6 70.2276 106.3 72.6276C101.9 75.0276 97.0001 76.3276 92.6001 76.2276L39.9001 74.6276C38.5001 74.6276 37.2001 74.3276 36.0001 74.0276C33.6001 73.3276 32.0001 72.0276 31.0001 70.3276C29.6001 67.8276 29.9001 64.4276 32.2001 60.6276L59.7001 16.1276C62.0001 12.4276 65.9001 9.12758 70.2001 6.72758C74.6001 4.42758 79.5001 3.02758 83.9001 3.12758L136.6 4.72758C141 4.82758 144.1 6.52758 145.4 9.02758C145.5 9.32758 145.7 9.62758 145.8 9.92758C146.8 12.3276 146.3 15.4276 144.3 18.7276Z" fill="#A3BDFF"/>
    <path d="M132.2 66.4241C127.9 73.4241 120.6 79.6241 112.4 84.0241C105 88.0241 96.7998 90.5241 89.1998 90.7241C88.3998 90.7241 87.4998 90.7241 86.6998 90.7241C86.0998 90.7241 85.5998 90.7241 85.0998 90.6241C77.6998 90.0241 72.5998 87.1241 70.0998 82.6241L61.2998 66.2241L78.1998 57.2241C82.0998 53.2241 86.9998 49.6241 92.1998 46.8241C97.3998 44.0241 103.1 41.9241 108.6 40.9241L125.7 31.7241L127.8 35.5241L128.5 36.7241L134.6 48.1241C137 53.0241 136.5 59.5241 132.2 66.4241Z" fill="#7398FF"/>
    <path d="M132.201 66.4272C127.901 73.4272 120.601 79.6272 112.401 84.0272C105.001 88.0272 96.801 90.5272 89.201 90.7272C88.801 90.7272 88.301 90.7272 87.901 90.6272L74.001 66.0272L90.901 56.9272C94.801 52.9272 99.701 49.4272 104.901 46.5272C110.101 43.7272 115.801 41.6272 121.301 40.6272L128.301 36.9272L134.401 48.3272C137.001 53.0272 136.501 59.5272 132.201 66.4272Z" fill="#4A50FF"/>
    <path d="M144.3 18.7276L116.8 63.2276C114.5 66.9276 110.6 70.2276 106.3 72.6276C101.9 75.0276 97.0001 76.3276 92.6001 76.2276L39.9001 74.6276C38.5001 74.6276 37.2001 74.3276 36.0001 74.0276C33.6001 73.3276 32.0001 72.0276 31.0001 70.3276C29.6001 67.8276 29.9001 64.4276 32.2001 60.6276L59.7001 16.1276C62.0001 12.4276 65.9001 9.12758 70.2001 6.72758C74.6001 4.42758 79.5001 3.02758 83.9001 3.12758L136.6 4.72758C141 4.82758 144.1 6.52758 145.4 9.02758C145.5 9.32758 145.7 9.62758 145.8 9.92758C146.8 12.3276 146.3 15.4276 144.3 18.7276Z" fill="#A3BDFF"/>
    <path d="M144.3 18.726L116.8 63.226C114.5 66.926 110.6 70.226 106.3 72.626C101.9 75.026 97 76.326 92.6 76.226L39.9 74.626C38.5 74.626 37.2 74.326 36 74.026C36.4 73.026 36.8 72.026 37.5 71.026L67.4 22.526C69.9 18.526 74.1 14.826 78.9 12.326C83.7 9.72597 89.1 8.22597 93.9 8.42597L145.9 10.026C146.8 12.326 146.3 15.426 144.3 18.726Z" fill="#7398FF"/>
    <path d="M218.101 175.425C217.601 179.625 216.101 184.025 213.401 188.625C198.901 213.425 170.301 219.425 147.501 204.425C132.601 194.625 123.101 175.225 117.501 159.925C113.001 147.625 111.101 138.025 111.101 138.025L187.201 148.625C203.901 142.425 220.501 156.525 218.101 175.425Z" fill="#F68317"/>
    <path d="M218.101 175.427C217.601 179.627 216.101 184.027 213.401 188.627C198.901 213.427 170.301 219.427 147.501 204.427C132.601 194.627 123.101 175.227 117.501 159.927C117.501 159.927 138.401 200.627 171.601 203.427C198.601 205.627 211.201 189.927 218.101 175.427Z" fill="#FFB817"/>
    <path d="M64.2001 197.027C58.4001 197.027 52.9001 194.827 48.7001 190.827C40.0001 182.527 27.5001 169.027 17.1001 151.727C7.00006 134.927 1.30007 118.527 0.300065 103.027C-0.0999349 96.9271 1.30006 90.9271 4.50006 85.7271C7.70006 80.5271 12.3001 76.4271 18.0001 74.0271C22.3001 72.1271 26.8001 70.5271 31.3001 69.3271C32.7001 68.9271 34.2001 69.7271 34.6001 71.1271C35.0001 72.5271 34.2001 74.0271 32.8001 74.4271C28.6001 75.6271 24.3001 77.1271 20.2001 78.9271C10.8001 82.9271 5.00007 92.5271 5.70007 102.727C8.30007 142.027 42.2001 177.227 52.5001 187.127C56.3001 190.827 61.6001 192.427 66.9001 191.627C72.2001 190.827 76.8001 187.727 79.4001 183.027C82.6001 177.427 85.2001 172.327 87.3001 167.927C87.9001 166.627 89.5001 166.027 90.9001 166.627C92.2001 167.227 92.8001 168.827 92.2001 170.227C90.0001 174.727 87.3001 179.927 84.1001 185.627C80.6001 191.727 74.7001 195.827 67.7001 196.927C66.5001 196.927 65.3001 197.027 64.2001 197.027Z" fill="#1E3D74"/>
    <path d="M234.1 140.426C231.4 140.426 228.6 139.926 225.9 138.926C222.4 137.626 219.1 136.226 216 134.926C214.6 134.326 214 132.826 214.6 131.426C215.2 130.026 216.8 129.426 218.1 130.026C221.1 131.326 224.3 132.626 227.8 133.926C232.8 135.826 238.3 135.326 243 132.626C247.6 129.826 250.6 125.226 251.2 120.026C252.8 105.926 256.4 57.3259 233.3 25.3259C227.3 17.0259 216.7 13.3259 206.9 16.2259C186.6 22.1259 173.1 32.7259 165.3 40.6259C164.3 41.7259 162.6 41.7259 161.5 40.6259C160.4 39.6259 160.4 37.9259 161.5 36.8259C173.3 24.8259 188.4 15.9259 205.4 11.0259C211.3 9.32588 217.5 9.52588 223.3 11.5259C229.1 13.5259 234 17.2259 237.6 22.2259C246.7 34.8259 252.9 51.0259 255.8 70.4259C258.9 90.3259 257.8 108.726 256.5 120.626C255.7 127.526 251.8 133.626 245.8 137.226C242.2 139.326 238.1 140.426 234.1 140.426Z" fill="#1E3D74"/>
    <path d="M209 154.427C208.5 154.427 208.1 154.327 207.6 154.027C206.3 153.327 205.9 151.627 206.7 150.327C216.8 133.227 219.6 113.227 214.7 94.0274C205.4 58.2274 170.7 34.5273 133.9 38.8273C132.4 39.0273 131.1 37.9274 130.9 36.5273C130.7 35.0273 131.8 33.7274 133.2 33.5274C152.2 31.3274 171.5 36.0274 187.4 46.7274C203.5 57.6273 215 73.9273 219.9 92.6273C225.2 113.227 222.2 134.627 211.4 152.927C210.8 153.927 209.9 154.427 209 154.427Z" fill="#1E3D74"/>
    <path d="M132.1 191.627C132 191.627 131.9 191.627 131.7 191.627C116.1 189.527 101.6 183.027 89.6996 172.627C77.4996 162.027 68.9996 148.227 64.8996 132.627C60.5996 116.027 61.6996 98.9272 68.0996 83.0272C68.6996 81.6272 70.1996 81.0272 71.5996 81.5272C72.9996 82.1272 73.5996 83.6272 73.0996 85.0272C67.0996 99.8272 66.0996 115.827 70.0996 131.327C77.6996 160.727 102.2 182.327 132.4 186.327C133.9 186.527 134.9 187.827 134.7 189.327C134.6 190.627 133.5 191.627 132.1 191.627Z" fill="#1E3D74"/>
    <path d="M173.8 215.224C164.2 215.224 154.7 212.324 146 206.624C134.4 199.024 124.6 185.224 116.8 165.524C111 151.024 108.6 138.924 108.5 138.424C108.2 137.024 109.2 135.624 110.6 135.324C112.1 135.024 113.5 136.024 113.7 137.424C113.8 137.924 123.4 185.324 148.9 202.124C159.5 209.124 171.6 211.424 183 208.824C194.5 206.124 204.5 198.524 211 187.224C218.5 174.424 215.6 163.224 210.3 156.924C204.7 150.224 196.1 147.924 188 150.924C186.6 151.424 185.1 150.724 184.6 149.324C184.1 147.924 184.8 146.424 186.2 145.924C196.4 142.224 207.5 145.224 214.5 153.524C220.9 161.124 224.6 174.724 215.7 189.924C208.4 202.424 197.2 211.024 184.2 214.024C180.8 214.824 177.3 215.224 173.8 215.224Z" fill="#1E3D74"/>
    <path d="M198.401 175.527C197.801 175.527 197.201 175.427 196.601 175.327C192.001 174.327 188.601 169.927 187.201 163.127C183.201 145.327 180.701 116.627 180.601 115.427C180.501 113.927 181.601 112.627 183.001 112.527C184.501 112.427 185.801 113.527 185.901 114.927C185.901 115.227 188.501 144.527 192.401 161.927C193.301 166.427 195.301 169.427 197.701 169.927C199.401 170.327 201.301 169.327 202.701 167.327C203.601 166.127 205.201 165.827 206.401 166.727C207.601 167.627 207.901 169.227 207.001 170.427C204.801 173.827 201.601 175.527 198.401 175.527Z" fill="#1E3D74"/>
    <path d="M133.5 145.124C132.8 145.124 132.1 144.824 131.6 144.324C130.6 143.224 130.6 141.524 131.7 140.524C132.2 140.024 145.2 127.924 166.1 130.624C167.6 130.824 168.6 132.124 168.4 133.624C168.2 135.124 166.9 136.124 165.4 135.924C147 133.624 135.5 144.324 135.4 144.424C134.8 144.924 134.1 145.124 133.5 145.124Z" fill="#1E3D74"/>
    <path d="M141.399 161.327C140.499 161.327 139.699 160.927 139.199 160.127C138.399 158.927 138.699 157.227 139.899 156.427C140.499 156.027 153.599 147.227 167.599 148.327C169.099 148.427 170.199 149.727 170.099 151.227C169.999 152.727 168.699 153.827 167.199 153.627C155.099 152.627 142.999 160.727 142.899 160.827C142.399 161.127 141.899 161.327 141.399 161.327Z" fill="#1E3D74"/>
    <path d="M87.6992 93.5247C87.2992 93.5247 86.8992 93.5247 86.4992 93.5247C77.4992 93.2247 70.7992 89.9247 67.5992 84.1247L63.5992 76.7247C62.8992 75.4247 63.3992 73.8247 64.6992 73.1247C65.9992 72.4247 67.5992 72.9247 68.2992 74.2247L72.2992 81.6247C74.4992 85.7247 79.5992 88.0247 86.5992 88.2247C94.0992 88.4247 102.799 86.1247 110.999 81.8247C119.199 77.4247 125.899 71.5247 129.799 65.1247C133.499 59.2247 134.199 53.7247 131.999 49.6247L128.099 42.3247C127.399 41.0247 127.899 39.4247 129.199 38.7247C130.499 38.0247 132.099 38.5247 132.799 39.8247L136.699 47.1247C139.899 52.9247 139.099 60.3247 134.399 67.9247C129.999 75.1247 122.599 81.7247 113.599 86.5247C104.999 91.0247 95.8992 93.5247 87.6992 93.5247Z" fill="#1E3D74"/>
    <path d="M93.0998 78.926C92.8998 78.926 92.6998 78.926 92.3998 78.926L39.6998 77.326C34.4998 77.126 30.4998 75.126 28.5998 71.626C26.6998 68.126 27.1998 63.626 29.8998 59.326L57.3998 14.826C59.7998 10.826 63.9998 7.126 68.9998 4.526C73.8998 1.826 79.2998 0.426004 83.9998 0.526004L136.7 2.126C142 2.326 145.9 4.326 147.8 7.826C149.7 11.326 149.2 15.726 146.5 20.126L119 64.626C116.5 68.626 112.4 72.326 107.4 74.926C102.8 77.526 97.6998 78.926 93.0998 78.926ZM83.3998 5.826C79.7998 5.826 75.4998 7.026 71.4998 9.126C67.3998 11.326 63.8998 14.426 61.9998 17.526L34.4998 62.126C32.7998 64.826 32.3998 67.426 33.3998 69.126C34.3998 70.826 36.7998 71.926 39.9998 72.026L92.6998 73.626C96.3998 73.726 100.9 72.526 105.1 70.326C109.2 68.126 112.7 65.026 114.6 61.926L142 17.326C143.7 14.626 144.1 12.026 143.1 10.326C142.1 8.626 139.7 7.526 136.5 7.426L83.8998 5.826C83.6998 5.826 83.4998 5.826 83.3998 5.826Z" fill="#1E3D74"/>
    <path d="M90.3009 124.227C90.1009 124.227 89.9009 124.227 89.8009 124.127C88.4009 123.827 87.4009 122.427 87.7009 121.027C89.3009 113.227 95.6009 107.427 103.601 106.527C110.101 105.727 116.501 108.527 120.501 113.727C121.401 114.927 121.101 116.627 120.001 117.427C118.801 118.327 117.101 118.027 116.301 116.927C113.501 113.227 109.001 111.227 104.401 111.827C98.8009 112.527 94.3009 116.627 93.2009 122.127C92.7009 123.327 91.6009 124.227 90.3009 124.227Z" fill="#1E3D74"/>
    <path d="M53.9002 150.826C52.4002 150.826 51.2002 149.626 51.2002 148.126V80.7258C51.2002 76.4258 52.9002 72.3258 55.9002 69.1258L86.0002 37.9258C87.0002 36.8258 88.7002 36.8258 89.8002 37.8258C90.9002 38.8258 90.9002 40.5258 89.9002 41.6258L59.8002 72.8258C57.8002 74.9258 56.6002 77.7258 56.6002 80.7258V148.126C56.6002 149.626 55.4002 150.826 53.9002 150.826Z" fill="#1E3D74"/>
    <path d="M53.9004 155.627C57.2141 155.627 59.9004 152.941 59.9004 149.627C59.9004 146.314 57.2141 143.627 53.9004 143.627C50.5867 143.627 47.9004 146.314 47.9004 149.627C47.9004 152.941 50.5867 155.627 53.9004 155.627Z" fill="#FF9D17"/>
    <path d="M53.9002 158.327C49.1002 158.327 45.2002 154.427 45.2002 149.627C45.2002 144.827 49.1002 140.927 53.9002 140.927C58.7002 140.927 62.6002 144.827 62.6002 149.627C62.6002 154.427 58.7002 158.327 53.9002 158.327ZM53.9002 146.327C52.1002 146.327 50.6002 147.827 50.6002 149.627C50.6002 151.427 52.1002 152.927 53.9002 152.927C55.7002 152.927 57.2002 151.427 57.2002 149.627C57.2002 147.827 55.8002 146.327 53.9002 146.327Z" fill="#1E3D74"/>
    <path d="M167.4 112.627C176.071 112.627 183.1 105.643 183.1 97.0272C183.1 88.4116 176.071 81.4272 167.4 81.4272C158.729 81.4272 151.7 88.4116 151.7 97.0272C151.7 105.643 158.729 112.627 167.4 112.627Z" fill="#1E3D74"/>
    <path d="M162.801 100.624C165.949 100.624 168.501 98.0721 168.501 94.9241C168.501 91.7761 165.949 89.2241 162.801 89.2241C159.653 89.2241 157.101 91.7761 157.101 94.9241C157.101 98.0721 159.653 100.624 162.801 100.624Z" fill="white"/>
</svg>
