<svg width="288" height="60" viewBox="0 0 288 60" fill="none"
    xmlns="http://www.w3.org/2000/svg">
    <path d="M25.6 46.0259C25.6 47.3259 25.6 48.5259 25.5 49.8259C25.5 51.1259 25.2 52.3259 24.8 53.5259C24.2 55.1259 23.4 56.4259 22.2 57.2259C21 58.1259 19.6 58.6259 18 58.7259C16.6 58.8259 15.2 58.9259 13.8 58.9259C12.4 58.9259 11 58.9259 9.7 58.9259C8.4 58.9259 7.2 58.7259 6 58.3259C4.4 57.8259 3 57.0259 2 55.7259C1 54.5259 0.4 53.0259 0.3 51.4259C0.2 50.1259 0.2 48.8259 0.1 47.4259C0.1 47.0259 0.1 46.7259 0 46.3259C0 45.9259 0 45.6259 0.1 45.2259C0.2 44.6259 0.5 44.2259 0.8 43.9259C1.1 43.6259 1.6 43.5259 2.2 43.5259C4.1 43.5259 6 43.5259 7.9 43.5259C8.6 43.5259 9.1 43.7259 9.5 44.1259C9.9 44.5259 10 45.0259 10 45.7259C10 46.0259 10.1 46.4259 10.1 46.8259V47.8259C10.1 48.3259 10.2 48.7259 10.4 48.9259C10.6 49.1259 10.9 49.2259 11.4 49.2259C12.4 49.2259 13.4 49.2259 14.4 49.2259C14.8 49.2259 15.2 49.1259 15.3 48.9259C15.5 48.7259 15.6 48.4259 15.6 48.0259C15.6 46.7259 15.6 45.3259 15.6 43.9259C15.6 43.5259 15.6 43.2259 15.5 43.1259C15.4 43.0259 15.2 42.8259 14.7 42.7259C13.2 42.3259 11.8 41.8259 10.3 41.3259C9.4 41.0259 8.4 40.7259 7.5 40.4259C5.9 39.9259 4.3 39.4259 2.8 38.8259C1.8 38.4259 1.1 38.0259 0.7 37.4259C0.3 36.8259 0.1 36.1259 0.1 35.1259C0 31.8259 0 28.6259 0.1 25.4259C0.1 24.1259 0.4 22.8259 0.8 21.5259C1.3 19.9259 2.1 18.7259 3.2 17.9259C4.3 17.0259 5.7 16.5259 7.3 16.3259C8 16.2259 8.7 16.1259 9.5 16.1259C10.2 16.1259 11 16.0259 11.7 16.0259H12C13 16.0259 14.1 16.0259 15.1 16.0259C16.1 16.0259 17.1 16.1259 18.1 16.2259C20 16.4259 21.6 17.1259 22.8 18.2259C24.1 19.4259 24.9 20.9259 25.3 22.8259C25.5 23.7259 25.6 24.6259 25.6 25.5259C25.6 26.4259 25.6 27.3259 25.6 28.1259C25.6 28.6259 25.6 29.1259 25.5 29.5259C25.5 30.0259 25.3 30.4259 25 30.7259C24.7 31.0259 24.2 31.2259 23.7 31.3259C21.6 31.3259 19.5 31.3259 17.4 31.3259C16.8 31.3259 16.4 31.1259 16.1 30.7259C15.8 30.3259 15.6 29.9259 15.6 29.4259V27.0259C15.6 26.5259 15.5 26.2259 15.3 26.0259C15.1 25.8259 14.8 25.7259 14.3 25.7259C13.3 25.7259 12.3 25.7259 11.3 25.7259C10.9 25.7259 10.5 25.8259 10.4 26.0259C10.2 26.2259 10.1 26.5259 10.1 26.9259C10.1 27.9259 10.1 28.9259 10.1 30.0259C10.1 30.3259 10.1 30.5259 10.2 30.7259C10.2 30.8259 10.3 31.0259 10.5 31.0259C10.6 31.1259 10.9 31.2259 11.2 31.3259C13.2 32.0259 15.2 32.6259 17.2 33.2259C17.5 33.3259 17.9 33.4259 18.2 33.5259C18.6 33.6259 18.9 33.7259 19.3 33.8259C20.5 34.2259 21.6 34.5259 22.8 34.9259C23.8 35.2259 24.6 35.7259 25.1 36.3259C25.6 36.9259 25.8 37.8259 25.8 38.9259C25.8 40.1259 25.8 41.3259 25.8 42.5259V46.0259H25.6Z" fill="#EA5023"/>
    <path d="M38.8001 56.326C38.8001 56.626 38.8001 56.826 38.8001 57.126C38.7001 57.526 38.6001 57.926 38.4001 58.226C38.2001 58.526 37.8001 58.726 37.3001 58.826C36.9001 58.926 36.5001 59.026 36.1001 59.026H30.6001C30.0001 58.926 29.6001 58.726 29.3001 58.526C29.0001 58.226 28.8001 57.826 28.7001 57.226C28.6001 56.826 28.6001 56.426 28.6001 56.026V18.926C28.6001 18.726 28.6001 18.526 28.7001 18.226C28.8001 17.526 29.0001 17.026 29.4001 16.626C29.8001 16.326 30.3001 16.126 31.0001 16.126H36.3001C37.2001 16.126 37.8001 16.326 38.2001 16.726C38.6001 17.126 38.8001 17.826 38.8001 18.626V56.326Z" fill="#EA5023"/>
    <path d="M63.5 9.12599C63.4 9.02599 63.3 8.82599 63.3 8.62599C63.2 8.42599 63.1 8.32598 63 8.22598C60.8 5.92598 58.5 3.62598 56.3 1.42598C55.3 0.525977 54.4 0.525977 53.4 1.42598C51.1 3.72598 48.8 6.02599 46.6 8.32599C45.8 9.12599 45.7 9.92599 46.4 10.826C46.8 11.226 47.2 11.726 47.6 12.126C48.2 12.726 48.8 13.026 49.4 13.026C50 13.026 50.6 12.726 51.2 12.126C51.7 11.626 52.2 11.126 52.7 10.626C53.2 10.026 53.8 9.52598 54.3 9.02598C54.6 8.72598 54.8 8.62599 54.9 8.62599C55 8.62599 55.3 8.72598 55.6 9.02598C55.7 9.12598 55.8 9.22599 55.9 9.32599C56 9.42599 56 9.42598 56.1 9.52598L56.9 10.326C57.6 11.026 58.2 11.626 58.9 12.326C59.3 12.726 59.7 12.926 60.2 13.026C60.7 13.126 61.1 13.026 61.5 12.726C61.9 12.426 62.2 12.126 62.5 11.826C62.8 11.526 63.1 11.126 63.4 10.826C63.5 10.626 63.7 10.426 63.7 10.026C63.7 9.92598 63.7 9.72599 63.8 9.62599C63.6 9.42599 63.5 9.32599 63.5 9.12599ZM66.3 49.426C65.9 49.126 65.4 48.926 64.8 48.926C64.3 48.926 63.8 48.926 63.2 48.926H52.9C52.4 48.926 52.1 48.926 51.9 48.726C51.8 48.626 51.7 48.226 51.7 47.826C51.7 47.126 51.7 46.426 51.7 45.626V44.326C51.7 43.726 51.7 43.326 51.7 43.126C51.8 42.926 51.9 42.726 52.2 42.726C52.5 42.626 52.9 42.626 53.5 42.626H61.3C62.7 42.626 63.4 41.926 63.5 40.626C63.5 38.626 63.5 36.626 63.5 34.626C63.5 33.426 62.8 32.726 61.5 32.726H52.9C52.4 32.726 52 32.626 51.9 32.526C51.8 32.426 51.7 32.026 51.7 31.526C51.7 30.026 51.7 28.626 51.7 27.126C51.7 26.626 51.7 26.226 51.9 26.126C52 26.026 52.4 25.926 52.9 25.926H64.8C65.5 25.926 66 25.826 66.4 25.526C66.7 25.226 66.9 24.726 67 24.126C67.1 22.126 67.1 20.026 67 18.026C67 17.426 66.8 16.926 66.4 16.626C66 16.326 65.6 16.126 64.9 16.126H43.3C42.3 16.226 41.7 16.826 41.6 17.826C41.6 18.126 41.5 18.426 41.5 18.726V56.326C41.5 56.626 41.5 56.826 41.6 57.126C41.7 58.126 42.2 58.726 43.3 58.826C43.6 58.826 43.8 58.926 44.1 58.926H57.1C58.1 58.126 59.4 57.726 60.7 57.626H60.9C62.4 57.626 63.9 57.626 65.5 57.626C65.9 57.626 66.3 57.726 66.7 57.726C66.9 57.326 66.9 56.826 66.9 56.126V52.526C66.9 52.026 66.9 51.526 66.8 50.926C66.9 50.326 66.7 49.826 66.3 49.426Z" fill="#EA5023"/>
    <path d="M95.4002 38.6259V18.4259C95.4002 17.7259 95.1002 17.1259 94.7002 16.7259C94.3002 16.3259 93.7002 16.0259 93.0002 16.0259C91.2002 16.0259 89.4002 16.0259 87.7002 16.0259C87.1002 16.0259 86.7002 16.2259 86.3002 16.5259C85.9002 16.8259 85.7002 17.2259 85.5002 17.8259C85.4002 18.3259 85.3002 18.9259 85.3002 19.4259V47.9259C85.3002 48.2259 85.2002 48.5259 85.0002 48.7259C84.9002 48.9259 84.6002 49.0259 84.2002 49.0259C83.7002 49.0259 83.1002 49.0259 82.6002 49.0259H82.0002C81.3002 49.0259 80.8002 49.0259 80.5002 48.9259C80.2002 48.8259 80.0002 48.6259 79.9002 48.3259C79.8002 48.0259 79.8002 47.5259 79.8002 46.9259V18.4259C79.8002 17.7259 79.5002 17.1259 79.2002 16.7259C78.8002 16.3259 78.3002 16.1259 77.6002 16.0259C75.7002 16.0259 73.8002 16.0259 71.9002 16.0259C71.4002 16.0259 70.9002 16.2259 70.6002 16.5259C70.2002 16.8259 70.0002 17.2259 69.9002 17.7259C69.8002 18.3259 69.7002 18.8259 69.7002 19.4259V46.0259C69.7002 47.8259 69.8002 49.6259 69.9002 51.3259C70.0002 53.0259 70.7002 54.6259 71.7002 55.8259C72.3002 56.5259 72.9002 57.1259 73.7002 57.5259H75.7002C76.6002 57.5259 77.6002 57.7259 78.5002 58.0259C79.1002 58.2259 79.6002 58.5259 80.1002 58.9259H80.2002C81.4002 58.3259 82.7002 57.9259 84.1002 57.7259H84.2002C86.6002 57.4259 89.0002 57.4259 91.4002 57.6259C91.6002 57.5259 91.8002 57.3259 92.0002 57.2259C93.2002 56.3259 94.1002 55.1259 94.6002 53.4259C95.0002 52.2259 95.2002 50.9259 95.3002 49.7259C95.4002 46.0259 95.4002 42.3259 95.4002 38.6259Z" fill="#EA5023"/>
    <path d="M137.9 18.1259C137.9 17.4259 137.6 16.9259 137.3 16.6259C136.9 16.3259 136.4 16.1259 135.7 16.0259H114.8C113.3 16.0259 112.5 16.8259 112.5 18.3259V23.8259C112.5 25.1259 113.2 25.9259 114.6 26.0259C114.8 26.0259 115.1 26.1259 115.3 26.1259H119.2C119.6 26.1259 119.9 26.2259 120 26.3259C120.1 26.4259 120.2 26.7259 120.2 27.1259V57.0259C120.3 58.0259 120.8 58.6259 121.7 58.8259C122.1 58.9259 122.5 59.0259 122.9 59.0259H126.9C127.8 58.3259 128.8 57.9259 130 57.7259H130.2C130.3 57.3259 130.4 56.7259 130.4 55.9259V27.2259C130.4 26.7259 130.4 26.4259 130.5 26.3259C130.6 26.2259 130.9 26.1259 131.4 26.1259H135.6C136.3 26.1259 136.9 25.9259 137.3 25.5259C137.7 25.2259 137.9 24.6259 137.9 23.9259C138 21.9259 138 20.0259 137.9 18.1259Z" fill="#EA5023"/>
    <path d="M166.101 23.7273C166.001 22.0273 165.401 20.5272 164.501 19.3272C163.601 18.1272 162.301 17.2273 160.701 16.6273C159.501 16.2273 158.201 16.0273 157.001 16.0273C153.701 15.9273 150.501 15.9272 147.201 15.9272H142.901C142.301 16.0272 141.801 16.2273 141.401 16.6273C141.001 17.0273 140.901 17.5273 140.801 18.0273V56.3272C140.801 56.8272 140.901 57.2273 141.001 57.5273C142.401 57.5273 143.801 57.8273 145.001 58.2273C145.601 58.4273 146.101 58.6272 146.701 58.9272H146.901C147.901 58.1272 149.201 57.6273 150.501 57.5273C150.601 57.2273 150.701 56.8272 150.701 56.3272C150.701 54.4272 150.601 52.6273 150.601 50.7273C150.601 49.9273 150.701 49.2272 150.701 48.4272C150.701 47.8272 150.701 47.3273 150.701 47.1273C150.801 46.8273 150.901 46.7273 151.201 46.6273C151.501 46.5273 151.901 46.5273 152.501 46.6273C152.901 46.6273 153.201 46.6273 153.401 46.6273C153.601 46.7273 153.701 46.8272 153.801 46.9272C153.901 47.1272 154.001 47.4272 154.101 47.8272C154.301 48.5272 154.501 49.2272 154.701 49.9272C155.301 52.2272 155.801 54.5273 156.401 56.7273C156.501 57.0273 156.601 57.3273 156.701 57.5273C157.201 57.6273 157.801 57.8273 158.201 58.1273C158.501 57.2273 159.001 56.6273 159.401 56.1273C160.201 55.2273 161.701 54.1273 164.201 54.0273C164.701 54.0273 165.101 54.0273 165.601 54.0273C165.301 53.0273 165.101 51.9272 164.901 50.9272C164.801 50.5272 164.701 50.0273 164.601 49.6273C164.301 48.3273 164.001 47.0273 163.701 45.6273C163.601 45.3273 163.601 44.9273 163.601 44.6273C163.701 44.3273 163.801 44.0273 164.101 43.7273C164.401 43.4273 164.601 43.2272 164.801 42.9272C165.001 42.6272 165.201 42.3273 165.401 42.0273C165.401 42.0273 165.401 41.9272 165.501 41.9272C165.901 41.1272 166.201 40.3273 166.401 39.5273C166.501 38.6273 166.601 37.8272 166.601 36.9272C166.601 35.7272 166.701 34.6272 166.701 33.4272C166.701 31.8272 166.801 30.1273 166.801 28.5273C166.401 27.0273 166.301 25.4273 166.101 23.7273ZM156.501 31.4272V32.6273C156.501 33.5273 156.501 34.3273 156.401 35.2273C156.401 35.9273 156.301 36.3273 156.101 36.5273C155.901 36.7273 155.401 36.8272 154.801 36.8272H151.701C151.201 36.8272 150.901 36.7273 150.801 36.6273C150.701 36.5273 150.601 36.1273 150.601 35.6273V27.9272C150.601 27.4272 150.601 27.0273 150.601 26.6273C150.601 26.2273 150.701 26.0272 150.801 25.9272C150.901 25.8272 151.101 25.7273 151.501 25.7273C152.701 25.7273 153.901 25.7273 155.101 25.7273C155.601 25.7273 156.001 25.8273 156.201 26.0273C156.401 26.2273 156.501 26.6273 156.501 27.1273C156.501 28.1273 156.601 29.0273 156.601 30.0273C156.501 30.6273 156.501 31.0272 156.501 31.4272Z" fill="#EA5023"/>
    <path d="M184 3.42429C183.9 3.22429 183.6 2.9243 183.4 2.8243C183.2 2.7243 183 2.62429 182.8 2.52429C181.9 1.92429 180.9 1.42429 180 0.924287C179.5 0.724287 179.1 0.62429 178.7 0.72429C178.3 0.82429 178 1.12429 177.7 1.52429C177.6 1.62429 177.6 1.82429 177.5 1.92429L177.4 2.02429C177.2 2.42429 176.9 2.7243 176.7 3.1243C175.6 5.0243 174.5 7.02429 173.4 8.92429C173.2 9.32429 173 9.7243 172.8 10.1243C172.7 10.4243 172.6 10.8243 172.7 11.0243C172.7 11.3243 172.9 11.6243 173.2 11.8243C173.5 12.1243 173.9 12.3243 174.3 12.6243C174.7 12.8243 175.1 13.0243 175.5 13.2243C175.8 13.3243 176.2 13.4243 176.5 13.3243C176.8 13.2243 177.1 13.0243 177.4 12.7243C177.8 12.2243 178.3 11.7243 178.7 11.2243C178.9 11.0243 179.1 10.7243 179.4 10.5243C179.7 10.2243 180.1 9.82429 180.4 9.42429C181.5 8.22429 182.7 6.92429 183.8 5.72429C184 5.52429 184.1 5.22429 184.3 4.92429C184.3 4.82429 184.4 4.62429 184.5 4.52429C184.2 3.92429 184.1 3.62429 184 3.42429ZM179.5 18.4243C179.5 17.5243 179.4 16.9243 179 16.6243C178.7 16.3243 178 16.1243 177.2 16.1243H172C171.3 16.1243 170.8 16.2243 170.4 16.3243C170 16.4243 169.8 16.7243 169.6 17.1243C169.5 17.5243 169.4 18.0243 169.4 18.7243V50.6243C169.9 50.0243 170.5 49.4243 171.3 48.9243C172 48.4243 172.8 48.0243 173.6 47.6243C175.6 46.5243 177.3 46.6243 178.4 46.9243C178.8 47.0243 179.2 47.1243 179.5 47.3243C179.5 37.6243 179.5 28.0243 179.5 18.4243Z" fill="#EA5023"/>
    <path d="M228.2 17.7257C228.1 17.2257 227.8 16.8257 227.5 16.5257C227.2 16.2257 226.8 16.1257 226.2 16.0257C224.3 16.0257 222.4 16.0257 220.5 16.0257C219.9 16.0257 219.5 16.2257 219.2 16.6257C218.9 17.0257 218.7 17.4257 218.7 18.0257V33.2257C218.7 33.4257 218.6 33.7257 218.5 33.9257C218.5 34.0257 218.4 34.1257 218.4 34.2257C218.3 34.1257 218.3 34.0257 218.2 33.9257C218 33.7257 217.9 33.5257 217.8 33.3257C216.3 30.4257 214.9 27.4257 213.5 24.4257C212.7 22.8257 211.9 21.3257 211.2 19.7257C210.8 18.8257 210.4 18.0257 209.9 17.1257C209.4 16.2257 208.7 15.8257 207.7 15.8257H203.5C202.8 15.8257 202.2 16.0257 201.9 16.3257C201.5 16.6257 201.3 17.2257 201.2 17.9257C201.2 18.1257 201.1 18.3257 201.1 18.6257V55.7257C201.1 56.1257 201.1 56.5257 201.2 56.9257C201.2 57.1257 201.3 57.4257 201.4 57.6257C201.8 57.5257 202.1 57.5257 202.5 57.4257H202.7C204.1 57.4257 205.5 57.4257 206.9 57.4257H207.2C208.2 57.5257 209.2 57.8257 210 58.2257C210.3 58.0257 210.5 57.8257 210.6 57.4257C210.7 57.1257 210.7 56.8257 210.7 56.4257C210.7 52.5257 210.6 48.6257 210.6 44.7257V41.5257C210.6 41.2257 210.6 41.0257 210.7 40.7257C210.7 40.6257 210.7 40.5257 210.8 40.4257C210.8 40.3257 210.9 40.3257 210.9 40.2257L211 40.3257C211.1 40.4257 211.2 40.5257 211.3 40.6257C211.5 41.0257 211.7 41.5257 212 42.0257C212.2 42.4257 212.4 42.9257 212.6 43.3257C213.4 44.9257 214.2 46.5257 215 48.1257C216.5 51.1257 218 54.1257 219.4 57.1257C219.4 57.1257 219.4 57.2257 219.5 57.2257C220.3 57.2257 221 57.2257 221.8 57.2257C223.4 57.2257 225 57.5257 226.5 58.1257C226.7 58.2257 226.9 58.3257 227.1 58.3257C227.7 58.0257 228.1 57.5257 228.2 56.6257C228.3 56.1257 228.3 55.6257 228.3 55.1257V18.7257C228.3 18.7257 228.3 18.2257 228.2 17.7257Z" fill="#EA5023"/>
    <path d="M256.5 56.026C256.5 56.326 256.5 56.526 256.5 56.726C256.5 57.326 256.4 57.826 256.1 58.126C255.8 58.426 255.4 58.626 254.8 58.826C254.5 58.826 254.1 58.926 253.7 58.926C252.2 58.926 250.7 58.926 249.2 58.926C248.8 58.926 248.3 58.826 247.9 58.726C247 58.426 246.5 57.826 246.5 56.926V43.326C246.5 42.726 246.3 42.526 245.7 42.526C245.4 42.526 245 42.526 244.6 42.426C243.8 42.426 243 42.426 242.2 42.526C241.8 42.526 241.6 42.626 241.5 42.726C241.4 42.826 241.3 43.126 241.3 43.426C241.3 43.626 241.3 43.826 241.3 44.126V56.226C241.3 56.526 241.3 56.726 241.2 57.026C241.2 57.526 241 57.926 240.8 58.226C240.6 58.526 240.2 58.726 239.8 58.826C237.5 59.126 235.1 59.126 232.8 58.826C232.2 58.726 231.8 58.526 231.5 58.226C231.3 57.926 231.1 57.426 231.1 56.826V19.026C231.1 18.726 231.1 18.426 231.2 18.126C231.2 17.526 231.4 17.026 231.8 16.726C232.1 16.326 232.6 16.226 233.2 16.126C235.2 16.126 237.3 16.126 239.4 16.226C240 16.226 240.5 16.426 240.8 16.826C241.1 17.226 241.3 17.726 241.3 18.426C241.3 21.126 241.4 23.926 241.4 26.726V31.326C241.4 31.826 241.4 32.226 241.4 32.426C241.5 32.626 241.6 32.826 241.8 32.826C242 32.826 242.4 32.926 242.9 32.926H245C245.5 32.926 245.8 32.926 246.1 32.826C246.3 32.726 246.5 32.626 246.5 32.426C246.5 32.226 246.6 31.826 246.6 31.326V18.826C246.6 17.926 246.8 17.226 247.2 16.826C247.6 16.426 248.2 16.226 249.1 16.226H254.2C254.6 16.226 255.1 16.326 255.5 16.526C255.8 16.626 256.1 16.826 256.3 17.126C256.5 17.426 256.6 17.726 256.6 18.126V56.026H256.5Z" fill="#EA5023"/>
    <path d="M284.7 49.3258C284.7 49.9258 284.7 50.6258 284.6 51.2258C284.5 51.8258 284.4 52.4258 284.2 53.0258C283.8 54.5258 283 55.7258 282 56.7258C281 57.6258 279.7 58.3258 278.1 58.6258C277.3 58.8258 276.4 58.9258 275.6 58.9258C273.2 59.0258 270.7 59.0258 268.2 58.9258C267.2 58.9258 266.1 58.7258 265.1 58.5258C263.5 58.1258 262.3 57.3258 261.4 56.3258C260.5 55.3258 259.9 54.0258 259.5 52.4258C259.3 51.5258 259.2 50.6258 259.3 49.7258C259.3 46.7258 259.2 43.8258 259.2 40.8258V25.1258C259.2 23.4258 259.6 21.7258 260.5 20.3258C261.2 19.0258 262.2 18.0258 263.4 17.4258C264.6 16.8258 265.9 16.4258 267.3 16.3258C268.8 16.2258 270.4 16.2258 271.9 16.2258C273.5 16.2258 275 16.2258 276.5 16.3258C278.9 16.5258 280.7 17.3258 282.1 18.6258C283.5 20.0258 284.3 21.9258 284.6 24.3258C284.6 24.8258 284.7 25.3258 284.7 25.7258V49.3258ZM271.3 13.2258C270.6 13.1258 270 12.8258 269.5 12.5258C269 12.2258 268.5 11.8258 268.2 11.3258C268 11.0258 267.9 10.7258 268 10.4258C268 10.1258 268.1 9.82582 268.3 9.52582C269 8.22581 269.7 6.92582 270.5 5.52582L270.6 5.42581C271.3 4.22581 272 3.02581 272.7 1.72581C273.1 1.02581 273.6 0.625815 274 0.525815C274.5 0.425815 275.1 0.525809 275.8 0.925809L275.9 1.02581C276.7 1.42581 277.5 1.92581 278.3 2.42581C279 2.82581 279.3 3.32582 279.4 3.82582C279.5 4.42582 279.3 4.92582 278.8 5.52582C276.7 7.82582 274.5 10.1258 272.4 12.3258C272.3 12.4258 272.2 12.5258 272 12.6258C271.9 12.7258 271.7 12.8258 271.6 12.9258C271.5 13.1258 271.4 13.1258 271.3 13.2258ZM275.1 47.5258V27.5258C275.1 26.8258 275 26.4258 274.8 26.1258C274.6 25.9258 274.1 25.7258 273.4 25.7258C272.4 25.7258 271.5 25.7258 270.5 25.7258C269.9 25.7258 269.6 25.9258 269.4 26.1258C269.2 26.3258 269.1 26.7258 269.1 27.3258V47.7258C269.1 48.3258 269.1 48.6258 269.4 48.9258C269.6 49.1258 270 49.3258 270.7 49.3258C271.6 49.4258 272.6 49.4258 273.5 49.3258C274.2 49.3258 274.6 49.2258 274.8 48.9258C275.1 48.6258 275.1 48.1258 275.1 47.5258Z" fill="#EA5023"/>
    <path d="M287.9 18.826C287.9 19.526 287.7 20.226 287.3 20.826C287.2 20.926 287.2 21.026 287.1 21.126C286.2 22.426 285.3 23.826 284.5 25.226C284 26.126 283.2 26.426 282.3 26.426H280C279.3 26.426 278.9 26.126 278.6 25.726C278.3 25.326 278.3 24.726 278.5 24.126C278.7 23.626 278.9 23.126 279.1 22.726C279.3 22.326 279.5 22.026 279.6 21.626C279.7 21.326 279.8 21.026 279.8 20.926C279.8 20.826 279.6 20.626 279.3 20.426C278.9 20.126 278.5 19.826 278.4 19.426C278.2 19.026 278.1 18.626 278.1 18.026V16.126C278.1 15.226 278.1 14.326 278.1 13.426C278.1 12.526 278.3 11.826 278.7 11.426C279.1 11.026 279.8 10.726 280.6 10.726C281.9 10.626 283.1 10.626 284.4 10.626C284.8 10.626 285.1 10.626 285.5 10.726C285.8 10.726 286 10.726 286.3 10.826C286.3 10.826 286.4 10.926 286.5 10.926C287 11.026 287.3 11.326 287.6 11.526C287.8 11.826 288 12.226 288 12.726V15.926V18.826H287.9Z" fill="#EA5023"/>
</svg>
