<svg width="237" height="251" viewBox="0 0 237 251" fill="none"
    xmlns="http://www.w3.org/2000/svg">
    <path d="M51.1059 152.212C51.794 157.658 48.3536 161.49 47.1741 162.599C48.0587 170.061 51.3025 177.321 56.414 182.666C62.6067 189.22 69.8807 191.439 78.3342 193.153C84.3303 194.262 89.5401 199.405 81.578 203.741C75.8768 206.867 68.6028 205.859 63.0982 202.43C57.5935 198.901 53.6617 193.254 51.0077 187.203C47.6656 179.54 46.0928 171.069 46.3877 162.599C44.9132 161.288 40.6865 157.053 40.5882 150.599C40.4899 146.767 41.9643 143.843 42.7507 142.431C47.1741 143.742 50.5162 147.574 51.1059 152.212Z" fill="#F68317"/>
    <path d="M42.7494 142.326C47.2711 143.637 50.5149 147.57 51.1046 152.107C51.7927 157.553 48.3523 161.385 47.1728 162.494C48.0574 169.956 51.3012 177.217 56.4127 182.561C62.6054 189.116 69.8793 191.334 78.3329 193.048C84.329 194.158 89.5387 199.3 81.5767 203.637C79.2175 204.947 76.5635 205.553 73.9095 205.553C70.1742 205.553 66.3406 204.342 63.0969 202.326C57.5922 198.796 53.6604 193.149 51.0064 187.099C47.6643 179.435 46.0915 170.964 46.3864 162.494C44.912 161.183 40.6852 156.948 40.5869 150.494C40.4886 146.662 41.963 143.738 42.7494 142.326ZM42.7494 137.486C41.1767 137.486 39.6039 138.393 38.7193 139.805C37.3431 142.124 35.7703 145.855 35.8686 150.494C35.9669 157.049 39.2107 161.788 41.5699 164.41C41.5699 172.88 43.2409 181.351 46.583 188.914C50.0234 196.779 54.7416 202.628 60.4428 206.258C64.473 208.779 69.1913 210.191 73.7129 210.191C77.2516 210.191 80.692 209.384 83.6409 207.771C90.0302 204.242 90.4234 199.805 90.0302 197.485C89.2438 192.04 83.5426 189.015 79.0209 188.208C70.8623 186.595 64.6696 184.578 59.6565 179.132C55.7246 174.998 53.0706 169.654 52.0876 163.906C54.0536 161.385 56.4127 157.049 55.7246 151.401C54.9382 144.847 50.3183 139.402 44.0273 137.586C43.6341 137.586 43.1426 137.486 42.7494 137.486Z" fill="#1E3D74"/>
    <path d="M127.187 97.7514C129.939 97.7514 132.593 97.7514 135.346 97.8523C141.243 97.9531 147.338 98.2556 152.744 100.877C161.001 104.911 166.211 113.785 170.339 122.457C170.831 123.466 171.421 125.281 172.01 127.6C176.925 126.188 181.84 124.776 186.657 122.86C191.965 120.743 197.174 118.222 202.187 115.398C203.858 113.886 205.628 112.575 207.495 112.575C208.675 112.575 209.953 113.18 211.034 114.592C212.115 116.003 212.803 117.818 213.393 119.533C215.359 125.18 217.325 131.23 216.44 137.079C216.539 140.003 216.342 142.928 215.851 145.852C215.851 145.953 215.851 145.953 215.851 146.054C215.654 147.163 215.457 148.171 215.261 149.18C215.064 150.289 214.868 151.398 214.671 152.406C214.376 153.818 213.492 155.23 212.607 156.339C212.017 157.045 211.132 157.549 210.248 158.053C201.401 162.591 190.883 160.776 181.25 163.095C180.071 163.398 178.694 164.104 178.793 165.616C179.677 172.373 180.267 178.625 180.464 183.364C191.276 183.868 202.384 186.49 211.919 189.314C212.312 189.213 212.705 189.213 213.197 189.213C213.393 189.213 213.688 189.213 213.885 189.213C218.505 189.616 222.437 192.742 225.975 195.767C226.958 196.675 228.039 197.683 228.826 198.692C231.185 201.011 232.364 204.641 232.266 208.07C232.07 212.305 230.202 216.238 227.843 219.767C223.026 227.129 216.244 233.078 208.38 236.708C205.529 238.019 202.875 239.33 199.927 239.33C199.337 239.33 198.649 239.229 198.059 239.128H197.961C196.093 239.128 194.225 238.523 192.358 237.918C186.362 235.902 180.366 233.885 174.369 231.868C169.946 230.759 165.621 228.843 161.198 227.734C159.133 227.229 155.005 226.826 155.005 226.826C155.005 226.826 136.722 230.456 117.161 230.456C107.528 230.456 97.5014 229.549 89.1462 226.927C87.9666 226.927 69.0937 233.078 66.6362 233.582C66.7345 233.481 66.8328 233.481 67.0294 233.381C59.1657 235.902 51.302 238.423 43.4382 240.944C41.6689 241.549 39.8012 242.053 38.0319 242.053C37.6387 242.053 37.1472 242.053 36.754 241.952C36.4591 241.952 36.066 241.952 35.7711 241.952C32.1341 241.952 28.5954 240.339 25.7448 238.019C22.3044 235.196 19.6504 231.465 16.9964 227.834C14.4407 224.204 11.885 220.675 9.32926 217.045C5.88888 212.204 2.0553 202.927 7.75651 198.893C8.54289 198.087 9.32926 197.482 9.62415 197.28C11.885 195.566 14.539 194.356 17.193 193.448C20.1419 192.44 23.1891 191.633 26.2363 191.633C26.3346 191.633 26.5312 191.633 26.6295 191.633C36.4592 189.011 47.665 186.692 58.4776 186.692C59.1657 186.692 59.8538 186.692 60.6401 186.692C60.8367 182.557 61.3282 178.423 61.8197 174.49C63.4907 162.188 66.6362 150.289 70.2732 138.591C73.0255 130.02 75.0898 117.516 79.7097 109.953C84.0348 102.693 97.2065 100.978 104.48 99.7682C111.853 98.1548 119.52 97.7514 127.187 97.7514ZM127.187 92.9111C117.849 92.9111 110.378 93.4153 103.596 94.5246L102.318 94.7262C93.7661 96.138 80.6927 98.2556 75.4829 107.029C71.9443 112.978 69.7817 121.146 67.9141 128.407C67.1277 131.432 66.4397 134.255 65.6533 136.675C61.3282 150.591 58.5759 162.289 57.0032 173.381C56.61 176.305 56.3151 179.028 56.1185 181.448C47.2718 181.65 37.3438 183.263 25.9414 186.389C22.7959 186.389 19.4538 187.095 15.522 188.507C11.9833 189.717 9.13267 191.23 6.67525 193.045C6.18377 193.347 5.39739 194.053 4.61102 194.86C2.2519 196.675 0.67915 199.297 0.187667 202.322C-0.7953 208.272 2.2519 215.129 5.39739 219.566L9.52585 225.313L13.0645 230.355C15.7185 234.086 18.6674 238.322 22.6976 241.549C26.7278 244.775 31.2494 246.591 35.6728 246.591C35.9677 246.591 36.2626 246.591 36.5574 246.591C37.0489 246.691 37.5404 246.691 38.0319 246.691C40.4893 246.691 42.6518 246.086 44.8144 245.38L54.5457 242.254L67.226 238.221C67.3243 238.221 67.5209 238.221 67.6192 238.12C68.7988 237.818 72.1409 236.809 77.5472 235.196C81.3807 233.986 86.7871 232.372 88.9496 231.767C96.6167 233.986 106.053 235.095 117.161 235.095C135.051 235.095 151.663 232.171 155.202 231.565C156.774 231.767 159.035 232.07 160.116 232.372C162.082 232.876 164.147 233.582 166.309 234.389C168.472 235.196 170.732 235.902 173.092 236.507L176.827 237.818L190.982 242.557C193.144 243.263 195.307 243.969 197.666 243.969C198.452 244.07 199.14 244.17 199.927 244.17C203.858 244.17 207.299 242.557 210.346 241.145C218.996 237.011 226.467 230.658 231.775 222.49C235.018 217.448 236.788 212.809 236.984 208.372C237.181 203.431 235.51 198.692 232.364 195.465C231.48 194.356 230.3 193.246 229.121 192.137C224.894 188.507 220.176 184.978 214.376 184.473C213.983 184.473 213.59 184.373 213.295 184.373C213 184.373 212.705 184.373 212.41 184.373C202.187 181.347 193.242 179.532 185.084 178.726C184.887 175.398 184.494 171.566 183.904 167.331C186.853 166.726 190.097 166.524 193.341 166.322C199.632 165.919 206.218 165.415 212.41 162.289C213.492 161.684 214.966 160.877 216.146 159.465C217.62 157.751 218.701 155.633 219.291 153.516C219.586 152.306 219.783 151.196 219.979 150.087C220.274 148.978 220.471 147.869 220.569 146.86C220.569 146.659 220.667 146.457 220.667 146.255C221.06 143.331 221.257 140.407 221.257 137.381C222.142 130.827 220.176 124.373 217.915 117.919C217.227 116.003 216.44 113.684 214.769 111.566C212.312 108.44 209.461 107.735 207.594 107.735C204.153 107.735 201.401 109.751 199.533 111.466C194.815 114.087 189.9 116.508 184.985 118.424C181.742 119.734 178.301 120.844 175.156 121.751C174.959 121.247 174.763 120.844 174.664 120.44C166.997 104.104 160.018 99.0623 154.808 96.5414C148.812 93.617 142.521 93.2136 135.444 93.1128C132.2 93.012 129.546 92.9111 127.187 92.9111Z" fill="#1E3D74"/>
    <path d="M61.7216 174.183C59.7557 188.301 58.7727 205.444 68.799 215.023C93.5697 238.519 154.514 229.242 166.408 218.351C170.045 215.023 175.942 209.276 177.908 204.536C180.071 199.292 180.267 193.444 180.562 187.696C181.152 173.175 173.682 129.512 170.438 122.554C166.309 113.881 161.1 105.008 152.843 100.974C147.436 98.3521 141.342 98.1504 135.444 97.9487C125.123 97.7471 114.704 97.7471 104.481 99.4613C97.2067 100.671 84.035 102.386 79.7099 109.646C75.1883 117.209 73.0257 129.713 70.2734 138.285C66.5382 149.982 63.3927 161.881 61.7216 174.183Z" fill="#F68317"/>
    <path d="M22.8949 192.332C19.258 193.34 15.7193 194.651 12.7704 196.97C9.82148 199.29 7.65895 203.021 7.85554 206.853C8.05214 209.575 9.32999 211.995 10.6079 214.315C16.1125 223.794 23.2881 232.163 31.6433 239.02C32.9212 240.029 34.2974 241.138 35.8701 241.541C38.3275 242.247 40.8832 241.441 43.3406 240.735C59.1664 235.693 74.8939 230.651 90.7197 225.609C92.9805 224.903 95.3396 224.096 96.814 222.281C98.0919 220.668 98.5834 218.55 98.6817 216.432C99.0749 207.357 93.472 198.886 86.0997 193.743C68.5046 181.643 42.1611 186.786 22.8949 192.332Z" fill="#F68317"/>
    <path d="M213.592 189.816C217.13 190.926 220.767 192.236 223.716 194.657C226.665 197.077 228.729 200.808 228.434 204.539C228.238 207.261 226.96 209.682 225.584 212.001C219.981 221.379 212.609 229.648 204.155 236.303C202.877 237.312 201.501 238.32 199.928 238.824C197.471 239.53 194.915 238.623 192.458 237.816C176.73 232.471 161.003 227.228 145.374 221.883C143.113 221.177 140.852 220.27 139.378 218.455C138.1 216.841 137.707 214.623 137.608 212.606C137.313 203.53 143.113 195.06 150.583 190.119C168.277 178.321 194.522 183.867 213.592 189.816Z" fill="#F68317"/>
    <path d="M203.27 114.692C205.236 113.583 207.595 112.373 209.463 113.583C210.347 114.087 210.839 115.096 211.232 116.003C216.737 126.995 217.818 140.306 214.279 152.104C213.984 152.91 213.788 153.717 213.198 154.423C212.51 155.23 211.036 156.944 210.053 157.347C202.68 159.969 171.029 165.011 162.674 163.499C156.284 162.389 158.447 134.759 162.674 131.331C165.131 129.314 168.473 128.608 171.422 127.801C176.533 126.39 181.645 124.877 186.56 122.86C192.359 120.541 197.962 117.818 203.27 114.692Z" fill="#F68317"/>
    <path d="M89.1483 226.826C114.41 234.792 155.105 226.725 155.105 226.725C155.105 226.725 159.332 227.128 161.298 227.632C165.721 228.741 170.046 230.657 174.47 231.767C165.23 228.036 158.742 217.246 159.135 207.061C155.204 214.523 147.536 219.162 139.673 221.783C127.975 225.716 115 225.817 103.401 221.683C100.256 220.573 97.2086 219.162 94.4563 217.145C89.9346 213.817 86.6909 209.178 83.4471 204.54C84.5283 209.481 85.7079 214.624 84.0368 219.363C82.8573 222.893 80.2033 225.817 77.1561 227.935C73.814 230.254 70.0787 231.464 66.54 233.38C69.0958 232.876 88.5585 226.624 89.1483 226.826Z" fill="#EA5023"/>
    <path d="M16.9976 193.136C19.9465 192.128 22.9937 191.321 26.0409 191.321C26.9256 191.321 27.9085 191.422 28.6949 191.825C29.4813 192.228 30.0711 193.136 29.9728 194.043C29.8745 194.951 28.9898 195.657 28.2034 196.161C27.1222 196.968 26.0409 197.674 24.9596 198.48C24.6648 198.682 24.4682 198.884 24.2716 199.085C23.7801 199.892 24.4682 201.102 25.3528 201.405C26.2375 201.707 27.3188 201.304 28.2034 200.901C29.6779 200.195 31.1523 199.186 32.6268 198.48C34.1012 197.775 35.8706 197.371 37.5416 197.674C39.2127 198.077 40.6871 199.489 40.7854 201.203C40.8837 203.522 38.7212 205.237 37.6399 207.354C37.2467 208.161 37.2467 209.573 38.1314 209.573C38.4263 209.573 38.7212 209.472 39.0161 209.27C40.0974 208.665 41.1786 208.161 42.4565 207.959C43.636 207.758 45.0122 208.06 45.7986 208.968C46.6832 209.976 46.8798 211.489 46.585 212.699C46.2901 213.909 45.4054 215.119 44.5207 216.127C43.636 217.136 42.5548 218.043 41.2769 218.144C39.2127 218.346 37.6399 216.329 36.2638 214.615C33.4132 211.287 29.7762 208.766 25.9426 206.951C21.2244 204.733 16.0146 203.422 10.8049 203.22C9.23215 203.119 7.6594 203.119 6.08665 202.817C3.33434 202.211 8.64237 197.472 9.62534 196.867C11.7879 195.254 14.3436 194.043 16.9976 193.136Z" fill="#FFC61A"/>
    <path d="M9.23163 216.836C11.7873 220.467 14.3431 223.996 16.8988 227.626C19.5528 231.357 22.2068 235.088 25.6472 237.811C29.0875 240.635 33.5109 242.349 37.7376 241.643C39.507 241.34 41.2763 240.534 42.5542 239.122C43.832 237.71 44.5201 235.895 45.0116 233.979C47.0758 225.206 44.3235 215.929 39.9002 208.265C37.9342 204.836 35.5751 201.408 32.3313 199.29C26.5318 195.357 16.1124 195.156 9.52652 197.677C1.17131 200.904 5.39807 211.492 9.23163 216.836Z" fill="#EA5023"/>
    <path d="M225.877 195.763C222.338 192.637 218.406 189.612 213.786 189.208C212.509 189.108 211.034 189.208 210.248 190.318C209.363 191.427 209.56 193.04 210.346 194.25C211.132 195.46 212.214 196.267 213.295 197.175C214.769 198.385 216.047 199.897 217.128 201.41C217.718 202.217 218.21 203.023 218.21 204.032C218.308 205.04 217.718 206.048 216.834 206.25C216.44 206.351 215.949 206.25 215.457 206.149C212.115 205.04 210.051 201.511 207.102 199.393C205.333 198.183 203.072 197.477 201.008 197.981C198.944 198.586 197.174 200.603 197.371 202.721C197.567 204.738 199.238 206.25 200.713 207.662C202.187 209.074 203.76 210.788 203.563 212.805C203.465 213.41 203.17 214.216 202.581 214.317C201.991 214.519 201.303 214.015 200.909 213.511C199.533 212.099 198.059 210.687 196.093 210.082C194.225 209.578 191.866 210.183 191.178 212.099C190.687 213.309 191.08 214.821 191.866 215.83C192.653 216.939 193.734 217.746 194.815 218.452C196.584 219.662 198.452 220.973 200.615 221.174C203.17 221.477 205.628 220.368 207.889 219.258C211.329 217.544 214.769 215.628 218.111 213.611C221.454 211.695 224.796 209.78 228.039 207.561C233.642 204.133 229.612 198.99 225.877 195.763Z" fill="#FFC61A"/>
    <path d="M190.393 231.055C190 226.921 191.867 222.887 193.735 219.257C196.094 214.518 198.748 209.778 201.894 205.543C204.449 202.215 207.496 199.089 211.428 197.476C213.984 196.468 216.736 196.064 219.489 195.963C222.044 195.862 224.797 196.064 227.058 197.274C230.695 199.291 232.562 203.829 232.366 207.963C232.169 212.198 230.301 216.131 227.942 219.661C223.126 227.022 216.343 232.971 208.479 236.602C204.842 238.316 201.402 239.929 197.569 238.82C193.637 237.913 190.786 235.392 190.393 231.055Z" fill="#EA5023"/>
    <path d="M200.221 117.211C199.336 118.118 198.55 119.328 198.943 120.539C199.336 121.648 200.614 122.051 201.793 122.253C205.136 122.858 208.576 122.858 212.016 122.354C210.444 123.564 208.871 124.875 208.084 126.589C207.298 128.404 207.691 130.925 209.461 131.833C210.64 132.438 212.115 132.135 213.393 132.438C213.098 133.143 212.115 133.345 211.525 133.849C210.444 134.757 210.739 136.774 211.82 137.681C212.901 138.69 214.376 138.891 215.85 139.093C217.816 132.639 215.555 125.782 213.294 119.429C212.704 117.715 212.016 115.9 210.935 114.488C207.396 109.95 203.17 114.085 200.221 117.211Z" fill="#FFC61A"/>
    <path d="M174.86 140.804C176.433 142.317 178.006 143.829 179.677 145.342C180.955 146.552 182.232 147.762 183.707 148.871C186.263 150.687 189.113 151.796 192.062 152.703C195.404 153.712 198.845 154.317 202.285 154.519C205.529 154.72 208.969 154.317 211.525 152.3C213.491 150.687 214.769 148.065 215.85 145.645C215.358 147.762 215.064 150.082 214.572 152.199C214.277 153.611 213.393 155.023 212.508 156.132C211.918 156.838 211.033 157.342 210.149 157.846C201.302 162.384 190.784 160.569 181.151 162.888C179.972 163.191 178.596 163.897 178.694 165.409C178.104 161.779 177.613 157.846 177.219 154.115C176.728 149.678 176.236 145.241 174.86 140.804Z" fill="#EA5023"/>
    <path d="M73.912 181.848C75.1899 185.982 77.1558 190.318 80.6945 192.638C84.0366 194.856 88.2633 194.856 92.2935 194.856C97.8964 194.755 103.696 194.655 108.906 192.537C114.115 190.419 118.735 185.781 119.423 180.033C120.111 174.184 116.671 168.739 113.427 163.898C110.577 159.663 107.726 155.529 104.974 151.293C103.204 148.672 101.435 146.05 99.076 144.134C93.3748 139.394 75.7796 137.176 71.4546 144.739C68.9972 149.075 70.0784 158.756 70.3733 163.596C70.8648 169.747 72.0444 175.898 73.912 181.848Z" fill="#F68317"/>
    <path d="M115.491 166.72C115.196 160.166 113.131 153.611 109.593 148.166C107.135 144.334 103.597 140.805 99.1733 140.502C100.844 140.603 103.204 144.032 104.186 145.242C105.956 147.359 107.529 149.578 109.003 151.897C111.854 156.435 114.016 161.477 115.491 166.72Z" fill="#FFC61A"/>
    <path d="M84.5277 179.63C84.4294 177.512 85.2157 175.193 86.8868 173.983C88.5578 172.773 91.2118 172.874 92.4897 174.588C93.0795 175.495 93.3743 176.605 93.9641 177.411C94.6522 178.218 96.1266 178.521 96.6181 177.512C96.6181 174.991 95.9301 172.369 96.1266 169.848C96.3232 167.327 97.6994 164.504 100.255 164.1C102.909 163.697 105.072 166.319 106.349 168.739C107.332 170.554 108.217 172.571 108.905 174.487C109.495 174.386 110.085 174.184 110.576 173.781C110.281 172.47 109.986 171.26 109.79 169.949C109.593 169.142 109.495 168.033 110.281 167.63C111.068 167.226 111.952 168.033 112.444 168.739C113.722 170.554 114.705 172.672 115.393 174.789C115.786 175.899 116.081 177.109 115.589 178.117C115.294 178.722 114.803 179.126 114.41 179.529C107.136 185.68 97.4045 189.613 88.1646 187.697C87.1817 187.495 86.1004 187.193 85.314 186.487C84.1345 185.378 84.5277 184.47 84.7243 183.159C84.7243 181.949 84.5277 180.941 84.5277 179.63Z" fill="#FFC61A"/>
    <path d="M72.5325 183.561C73.4172 186.183 74.4984 188.704 76.3661 190.721C78.332 192.838 81.0843 194.149 83.9349 194.754C86.7855 195.359 91.2089 196.166 94.0595 195.964C102.12 195.46 109.099 194.149 115.39 189.107C117.356 187.494 119.027 184.368 119.912 181.948C120.796 179.527 120.698 176.603 119.125 174.586C117.847 172.872 115.685 172.065 113.621 171.763C106.543 170.452 99.3675 173.376 92.8799 176.502C88.5549 178.519 84.1315 180.737 80.8877 184.368C77.5456 179.023 75.8746 172.872 74.2036 166.721C73.024 162.284 71.8444 157.746 71.4512 153.107C71.2547 150.788 71.2547 148.469 71.5496 146.149C71.7461 144.637 72.6308 142.923 72.5325 141.511C69.5836 144.133 69.2887 150.385 68.8955 154.015C68.2075 160.368 68.5024 166.822 69.5836 173.074C70.4683 176.704 71.353 180.132 72.5325 183.561Z" fill="#EA5023"/>
    <path d="M94.2599 196.367C93.7684 196.367 93.2769 196.367 92.7854 196.367C90.4263 196.367 87.0842 195.661 82.6609 194.35C79.3188 193.342 76.4682 191.628 74.6006 189.208C72.6346 186.787 71.6517 183.863 70.9636 181.241C70.0789 177.813 69.3908 174.283 68.9976 170.754L68.8993 169.544C67.9164 160.267 66.147 143.023 77.2546 138.385C78.4341 137.88 79.8103 138.485 80.3018 139.696C80.7932 140.906 80.2035 142.317 79.0239 142.822C71.2585 146.048 72.7329 160.973 73.6176 168.939L73.7159 170.149C74.0108 173.477 74.6989 176.704 75.4852 179.83C76.075 181.947 76.7631 184.266 78.1392 185.981C79.8103 187.998 82.1694 189.006 83.8404 189.51C87.7723 190.619 90.9178 191.325 92.7854 191.325C100.256 191.426 106.35 190.72 112.15 186.787C113.428 185.981 114.902 183.863 116.082 181.342C116.77 179.729 116.77 177.914 115.983 176.804L115.787 176.603C115.59 176.3 115.394 175.998 115.295 175.594C114.607 172.367 112.838 169.04 111.069 166.015L103.893 153.511C103.205 152.401 103.598 150.889 104.778 150.183C105.859 149.477 107.333 149.88 108.021 151.09L115.197 163.594C117.065 166.821 118.932 170.351 119.817 174.082C121.586 176.704 121.783 180.334 120.309 183.46C119.62 185.073 117.556 188.905 114.706 190.821C108.021 195.56 100.944 196.367 94.2599 196.367Z" fill="#1E3D74"/>
    <path d="M167.882 97.7521C167.882 97.7521 171.716 102.794 182.922 113.18C191.179 120.844 204.351 118.424 209.56 108.34C214.082 99.5672 218.309 89.3824 221.552 78.5926C226.959 60.4416 229.318 40.6771 224.796 23.131C222.241 13.3496 214.18 6.2909 204.351 5.48418C167.882 2.35817 146.749 22.7277 146.749 22.7277L148.616 29.2822L167.882 97.7521Z" fill="#F68317"/>
    <path d="M194.325 120.136C189.508 120.136 184.987 118.321 181.35 114.993C170.045 104.506 166.114 99.4636 166.015 99.2619L165.72 98.8586L144.095 22.0189L145.176 21.0105C146.061 20.1029 167.588 -0.0650086 204.646 3.06102C215.36 3.96857 224.305 11.7332 227.058 22.4222C231.186 38.5565 230.006 58.2203 223.814 79.2957C220.865 89.3797 216.638 99.867 211.625 109.548C208.873 114.993 203.761 118.724 197.863 119.833C196.684 120.035 195.504 120.136 194.325 120.136ZM169.947 96.6401C171.028 97.951 175.157 102.791 184.495 111.464C187.935 114.59 192.457 115.9 196.979 115.094C201.5 114.287 205.334 111.464 207.398 107.329C212.215 97.951 216.245 87.7662 219.194 77.9848C225.19 57.7161 226.271 39.0607 222.438 23.834C220.177 15.1618 212.903 8.80887 204.154 8.103C185.969 6.5904 171.716 11.1282 163.066 15.2626C156.087 18.5903 151.369 22.1197 149.403 23.834L169.947 96.6401Z" fill="#1E3D74"/>
    <path d="M167.882 97.7548C167.882 97.7548 171.716 102.797 182.921 113.183C191.178 120.847 204.35 118.427 209.56 108.343C214.081 99.5699 218.308 89.3851 221.552 78.5954C224.894 63.3687 225.877 47.5369 222.142 33.2178C219.684 23.5372 211.526 16.4785 201.794 15.6718C175.156 13.3525 156.676 23.6381 148.616 29.3859L167.882 97.7548Z" fill="#EA5023"/>
    <path d="M25.2535 108.138C28.8905 116.003 37.344 119.532 44.9129 117.516C47.272 116.911 49.5328 115.701 51.5971 113.986C63.2944 104.104 67.3245 99.1629 67.3245 99.1629L91.7021 25.1467C91.7021 25.1467 71.453 3.86962 34.8866 5.58389C27.7109 5.8864 21.4199 9.51663 17.2915 15.1636C15.7187 17.2813 14.5392 19.7014 13.7528 22.3232C5.39756 50.0541 14.2443 84.037 25.2535 108.138Z" fill="#F68317"/>
    <path d="M25.2517 108.14C28.8887 116.006 37.3423 119.535 44.9111 117.518C51.8902 111.165 56.3135 108.745 56.3135 108.745L78.8235 34.1238C78.8235 34.1238 58.5744 12.9474 22.008 14.5609C20.3369 14.6617 18.7642 14.8634 17.1914 15.2667C15.6187 17.3844 14.4391 19.8045 13.6527 22.4264C5.3958 50.0564 14.2425 84.0394 25.2517 108.14Z" fill="#EA5023"/>
    <path d="M118.536 138.086C142.226 136.372 162.082 122.052 172.501 102.086C178.104 91.1955 180.954 78.6914 180.07 65.4814C177.514 28.1708 145.764 0.0365639 109.296 2.75923C79.9055 4.9777 56.4126 26.3557 49.5318 54.0866C47.8608 60.8428 47.1727 68.1032 47.6642 75.4645C50.3182 112.775 81.9697 140.809 118.536 138.086Z" fill="#FFC61A"/>
    <path d="M113.621 140.711C97.1071 140.711 81.3797 134.66 68.7977 123.568C55.0361 111.266 46.6809 94.2237 45.403 75.5684C44.9116 68.1063 45.5013 60.6441 47.2707 53.4845C54.5446 23.9386 79.4137 2.66143 109.099 0.442964C127.481 -0.968788 145.174 5.08158 159.034 17.4848C172.796 29.7873 181.151 46.8291 182.429 65.4844C183.313 78.5936 180.659 91.7027 174.565 103.299C163.359 124.879 142.52 138.795 118.732 140.61C116.963 140.61 115.292 140.711 113.621 140.711ZM114.211 5.08158C112.638 5.08158 111.065 5.18242 109.493 5.28326C81.8711 7.30005 58.6731 27.1654 51.8906 54.6946C50.2196 61.4509 49.6298 68.3079 50.1213 75.2659C51.3009 92.6103 59.0663 108.543 71.9432 119.938C84.82 131.433 101.334 137.08 118.438 135.77C140.554 134.156 160.017 121.148 170.437 101.081C176.039 90.2909 178.595 78.0894 177.71 65.7869C176.531 48.4426 168.765 32.5099 155.987 21.1151C144.191 10.6278 129.545 5.08158 114.211 5.08158Z" fill="#1E3D74"/>
    <path d="M118.536 138.091C142.226 136.377 162.082 122.058 172.501 102.092C174.172 95.3355 174.86 88.075 174.369 80.7137C171.813 43.403 140.063 15.2687 103.595 17.9914C79.8072 19.8065 59.9513 34.0249 49.5318 54.092C47.8608 60.8483 47.1727 68.1087 47.6642 75.47C50.3182 112.781 81.9697 140.814 118.536 138.091Z" fill="#F68317"/>
    <path d="M69.4862 144.139C71.059 147.466 73.5164 150.794 76.8585 153.819C95.4365 170.458 120.404 167.433 134.853 148.475C144.29 136.071 146.747 117.214 147.141 102.895C147.435 91.3995 146.354 82.8281 146.354 82.8281L87.2779 112.979C71.9437 112.576 62.3106 129.013 69.4862 144.139Z" fill="#F68317"/>
    <path d="M69.4867 144.139C71.0594 147.467 73.5169 150.795 76.8589 153.82C95.437 170.459 120.404 167.433 134.854 148.476C144.291 136.072 146.748 117.215 147.141 102.896C147.141 102.896 141.243 142.728 114.998 154.425C93.5694 163.904 79.0215 154.324 69.4867 144.139Z" fill="#FFC61A"/>
    <path d="M200.615 118.933C205.333 117.319 209.167 113.992 211.526 109.353C216.343 99.9749 222.83 85.1515 226.565 67.8071C230.202 50.866 230.301 35.6393 226.959 22.3284C225.582 17.0848 222.83 12.547 218.8 9.01761C214.77 5.58907 209.855 3.47144 204.645 3.06808C200.615 2.76556 196.487 2.66472 192.555 2.8664C191.277 2.96724 190.294 4.07647 190.392 5.28655C190.491 6.59746 191.572 7.60586 192.751 7.50502C196.487 7.30334 200.419 7.40418 204.252 7.7067C213.001 8.41257 220.373 14.7655 222.535 23.5385C231.185 57.1181 213.197 96.0421 207.496 107.134C205.333 111.269 201.598 114.092 197.076 115C192.555 115.807 187.935 114.496 184.494 111.37C180.366 107.538 176.827 104.109 173.878 100.983C172.994 100.076 171.519 99.9749 170.635 100.882C169.75 101.79 169.652 103.303 170.536 104.21C173.584 107.437 177.22 110.966 181.349 114.798C185.871 118.933 191.867 120.647 197.765 119.639C198.747 119.538 199.73 119.336 200.615 118.933Z" fill="#1E3D74"/>
    <path d="M46.8783 119.332C49.1391 118.525 51.2033 117.315 53.071 115.803C55.5284 113.685 57.8875 111.668 60.05 109.752C61.033 108.845 61.1313 107.433 60.2466 106.425C59.362 105.416 57.9858 105.416 57.0028 106.223C54.9386 108.139 52.5795 110.156 50.2204 112.173C46.6817 115.198 42.0617 116.307 37.5401 115.299C33.0185 114.29 29.3815 111.265 27.4156 107.03C22.1075 95.7357 5.88859 56.2064 16.0131 22.9293C18.5689 14.3579 26.236 8.30753 34.9844 7.90418C53.071 7.09746 67.0291 12.2403 75.4826 16.5764C76.5639 17.1814 78.0383 16.6772 78.5298 15.568C79.1196 14.4588 78.6281 12.9462 77.5468 12.442C64.7683 5.6857 49.9255 2.55967 34.7878 3.1647C29.4798 3.46722 24.565 5.28234 20.3382 8.61005C16.2097 11.9378 13.1625 16.3747 11.5898 21.5176C7.65793 34.6267 7.06815 49.8535 9.91876 66.8955C12.8677 84.3408 18.7655 99.4667 23.0905 109.047C25.6462 114.593 30.4627 118.525 36.3605 119.836C39.9975 120.744 43.5362 120.542 46.8783 119.332Z" fill="#1E3D74"/>
    <path d="M71.159 123.975C71.5522 123.874 71.8471 123.572 72.1419 123.269C72.9283 122.261 72.83 120.849 71.9453 119.941C59.0685 108.547 51.3031 92.6139 50.0252 75.1687C47.7644 42.6984 69.5862 13.1524 100.746 6.39621C102.024 6.09369 102.81 4.88362 102.516 3.57271C102.221 2.26179 101.041 1.45508 99.7633 1.7576C83.6427 5.18614 69.2913 14.5642 59.2651 27.9758C49.2388 41.69 44.2257 58.5302 45.4053 75.572C46.6831 94.2273 55.0383 111.269 68.8982 123.572C69.4879 124.177 70.3726 124.277 71.159 123.975Z" fill="#1E3D74"/>
    <path d="M143.897 133.556C143.995 133.556 144.094 133.455 144.192 133.455C156.283 127.304 166.309 117.825 173.19 105.825C180.169 93.6235 183.412 79.6068 182.429 65.3885C181.348 50.3634 175.844 36.3468 166.211 24.8511C165.424 23.8427 163.95 23.7418 162.967 24.5486C161.984 25.3553 161.885 26.8679 162.672 27.8762C171.617 38.5652 176.827 51.5735 177.81 65.691C179.677 92.4134 165.621 117.321 142.128 129.119C140.948 129.724 140.555 131.136 141.047 132.245C141.538 133.455 142.816 133.959 143.897 133.556Z" fill="#1E3D74"/>
    <path d="M116.376 164.911C124.141 162.188 131.12 157.045 136.625 149.886C143.997 140.306 148.224 125.987 149.207 107.332C149.993 93.6174 148.617 82.8276 148.519 82.4242C148.322 81.1133 147.241 80.2058 145.963 80.4075C144.685 80.6091 143.801 81.7184 143.997 83.0293C144.095 83.5335 149.207 125.785 132.988 146.961C126.304 155.735 117.064 161.079 107.038 162.087C96.913 163.096 86.6902 159.466 78.335 152.003C68.7019 143.432 68.0138 133.247 70.5695 126.491C73.3218 119.331 79.6128 114.995 87.0834 115.197C88.3612 115.197 89.4425 114.189 89.4425 112.878C89.4425 111.567 88.4595 110.458 87.1817 110.458C77.8435 110.256 69.6849 115.802 66.2445 124.777C63.099 132.945 63.7871 145.247 75.1895 155.533C84.5277 163.903 96.0284 167.936 107.431 166.827C110.576 166.524 113.525 165.919 116.376 164.911Z" fill="#1E3D74"/>
    <path d="M85.5109 138.794C86.0024 138.592 86.4938 138.391 86.9853 138.088C90.4257 135.971 91.9985 131.332 91.3104 125.282C89.7376 109.248 83.9381 84.6432 83.6432 83.6348C83.3483 82.3239 82.0705 81.618 80.8909 81.9206C79.6131 82.2231 78.925 83.534 79.2199 84.7441C79.3182 85.0466 85.216 110.156 86.7887 125.887C87.2802 129.92 86.4938 133.046 84.6262 134.055C83.3483 134.861 81.579 134.559 79.8096 133.248C78.8267 132.441 77.3522 132.744 76.5659 133.752C75.7795 134.761 76.0744 136.273 77.0573 137.08C79.8097 139.097 82.8569 139.702 85.5109 138.794Z" fill="#1E3D74"/>
    <path d="M130.037 95.1286C130.626 94.927 131.118 94.5236 131.413 93.9185C131.904 92.7084 131.413 91.2967 130.331 90.7924C129.742 90.4899 115.882 84.1369 99.5646 92.2042C98.385 92.8093 97.8935 94.2211 98.4833 95.3303C99.0731 96.4396 100.449 96.9438 101.531 96.4396C115.882 89.2798 128.169 95.0278 128.267 95.1286C128.955 95.3303 129.545 95.3303 130.037 95.1286Z" fill="#1E3D74"/>
    <path d="M146.453 87.6665C159.21 87.6665 169.552 77.0568 169.552 63.9691C169.552 50.8814 159.21 40.2717 146.453 40.2717C133.695 40.2717 123.353 50.8814 123.353 63.9691C123.353 77.0568 133.695 87.6665 146.453 87.6665Z" fill="#F68317"/>
    <path d="M146.454 90.0923C132.398 90.0923 120.995 78.395 120.995 63.975C120.995 49.555 132.398 37.8577 146.454 37.8577C160.511 37.8577 171.913 49.555 171.913 63.975C171.913 78.2941 160.511 90.0923 146.454 90.0923ZM146.454 42.5971C134.953 42.5971 125.713 52.1768 125.713 63.8741C125.713 75.6723 135.052 85.1512 146.454 85.1512C157.955 85.1512 167.195 75.5715 167.195 63.8741C167.293 52.1768 157.955 42.5971 146.454 42.5971Z" fill="white"/>
    <path d="M128.072 110.864C128.76 110.663 129.35 110.058 129.547 109.251C129.841 108.041 129.153 106.73 127.974 106.327C127.384 106.125 114.212 102.495 103.203 107.335C102.023 107.839 101.532 109.251 102.023 110.461C102.515 111.671 103.891 112.175 105.071 111.671C114.605 107.436 126.696 110.864 126.794 110.864C127.187 110.965 127.581 110.965 128.072 110.864Z" fill="#1E3D74"/>
    <path d="M159.428 65.4861C159.527 65.4861 159.723 65.3853 159.822 65.2844C160.903 64.6794 161.296 63.1668 160.706 62.0575C157.266 56.007 150.483 52.881 143.799 54.3936C138.295 55.6037 133.773 59.7382 132.102 65.1836C131.709 66.3937 132.397 67.7046 133.576 68.108C134.756 68.5113 136.034 67.8055 136.525 66.5954C137.803 62.7634 140.949 59.839 144.88 58.9314C149.599 57.923 154.415 60.1415 156.873 64.3769C157.266 65.3853 158.445 65.7886 159.428 65.4861Z" fill="#1E3D74"/>
    <path d="M84.1382 90.9871C96.8958 90.9871 107.238 80.3775 107.238 67.2899C107.238 54.2023 96.8958 43.5928 84.1382 43.5928C71.3806 43.5928 61.0386 54.2023 61.0386 67.2899C61.0386 80.3775 71.3806 90.9871 84.1382 90.9871Z" fill="#F68317"/>
    <path d="M84.1354 93.4128C70.0789 93.4128 58.6765 81.7154 58.6765 67.2953C58.6765 52.8752 70.0789 41.1777 84.1354 41.1777C98.1918 41.1777 109.594 52.8752 109.594 67.2953C109.594 81.7154 98.1918 93.4128 84.1354 93.4128ZM84.1354 45.9172C72.6347 45.9172 63.3948 55.497 63.3948 67.1945C63.3948 78.8919 72.7329 88.5725 84.1354 88.5725C95.5378 88.5725 104.876 78.9927 104.876 67.2953C104.876 55.5979 95.6361 45.9172 84.1354 45.9172Z" fill="white"/>
    <path d="M97.8946 69.2186C97.9929 69.2186 98.1895 69.1177 98.2878 69.0169C99.369 68.4119 99.7622 66.8993 99.1725 65.79C95.7321 59.7397 88.9496 56.6137 82.2654 58.1262C76.7608 59.3363 72.2391 63.4707 70.5681 68.9161C70.1749 70.1261 70.863 71.437 72.0426 71.8404C73.2221 72.2438 74.5 71.5379 74.9915 70.3278C76.2693 66.4959 79.4148 63.5716 83.3467 62.664C88.0649 61.6556 92.8815 63.8741 95.3389 68.1093C95.7321 69.2186 96.9116 69.6219 97.8946 69.2186Z" fill="#1E3D74"/>
    <path d="M109.198 68.3027C109.296 68.2019 109.591 67.7985 109.591 67.1935H104.873C104.873 65.0759 107.232 61.4458 123.255 61.4458V66.286C114.998 66.286 110.083 67.5969 109.198 68.3027Z" fill="white"/>
    <path d="M108.709 159.57C108.709 159.772 132.988 165.823 144.194 168.142C146.946 168.747 149.797 169.251 152.549 169.755C155.105 170.259 157.661 170.764 160.216 170.36C162.477 170.058 164.541 168.848 166.311 167.436C168.277 165.722 170.144 163.806 172.012 161.991C176.435 157.554 180.564 152.915 184.594 148.075C184.692 147.974 184.692 147.873 184.692 147.772C184.791 147.671 184.889 147.47 184.692 147.268L176.73 140.915C167.589 144.747 160.708 154.226 159.332 164.31C149.502 157.05 137.903 152.31 125.911 150.697C122.274 150.192 116.376 149.89 112.739 149.991L108.709 159.57Z" fill="#4A50FF"/>
    <path d="M158.446 172.88C156.382 172.88 154.318 172.476 152.352 172.174H152.155C149.403 171.67 146.651 171.065 143.8 170.56C136.919 169.149 126.205 166.527 121.88 165.518C107.529 161.989 107.529 161.989 106.84 160.981C106.447 160.476 106.349 159.771 106.546 159.165C106.546 158.964 106.644 158.863 106.644 158.661L110.772 149.082C111.166 148.174 111.952 147.67 112.837 147.67C116.67 147.569 122.666 147.871 126.402 148.376C137.706 149.888 148.518 153.922 157.955 160.275C160.412 150.796 167.391 142.426 176.041 138.695C176.828 138.393 177.712 138.493 178.4 138.998L186.362 145.35C187.051 145.855 187.345 146.661 187.345 147.367C187.345 147.771 187.247 148.174 187.149 148.577C187.051 148.981 186.854 149.283 186.657 149.586C182.627 154.527 178.302 159.165 173.977 163.703L173.289 164.409C171.618 166.023 169.947 167.737 168.178 169.35C165.818 171.367 163.459 172.476 160.904 172.88C159.822 172.88 159.134 172.88 158.446 172.88ZM111.952 157.955C118.243 159.569 135.346 163.804 144.685 165.72C147.535 166.325 150.288 166.829 153.04 167.333H153.236C155.596 167.737 157.856 168.241 160.019 167.939C161.592 167.737 163.164 166.93 164.934 165.518C166.605 164.107 168.178 162.493 169.75 160.88L170.438 160.174C174.272 156.241 178.106 152.107 181.743 147.771L176.533 143.535C168.866 147.367 163.066 155.535 161.788 164.409C161.69 165.216 161.1 165.922 160.412 166.325C159.626 166.628 158.741 166.527 158.151 166.023C148.715 158.964 137.509 154.426 125.812 152.913C122.863 152.51 118.046 152.208 114.508 152.208L111.952 157.955Z" fill="#1E3D74"/>
    <path d="M186.263 145.85C185.771 145.648 185.378 145.547 184.788 146.253C179.284 151.8 174.074 158.052 167.586 164.304C167.586 164.304 167.586 164.304 167.488 164.304C164.539 165.715 161.394 166.825 158.248 167.833C144.88 165.312 131.61 162.892 118.241 160.371C114.506 159.665 111.262 158.959 107.527 158.253C107.134 158.152 106.741 158.152 106.544 158.253C105.758 158.354 105.168 158.959 105.168 159.766C105.168 159.867 105.168 159.968 105.07 160.068C105.07 160.068 97.894 229.043 97.3042 234.488V234.589C97.1076 235.598 97.2059 236.606 97.7957 237.514C98.4837 238.522 99.1718 238.522 100.745 238.824C100.745 238.824 124.631 244.371 137.114 246.488C140.456 247.093 143.897 247.598 147.337 248.102C147.436 248.102 147.436 248.102 147.534 248.102C149.205 248.303 150.876 247.497 152.35 246.892C154.415 246.186 157.462 245.581 159.035 244.068C162.377 240.942 165.62 237.816 168.766 234.488C170.437 232.774 172.206 230.959 173.779 229.144C174.762 228.035 175.843 226.824 176.04 225.312C176.138 225.312 176.138 225.211 176.236 225.11C177.711 214.825 179.185 204.64 180.562 194.354C181.938 184.169 183.216 173.984 184.493 163.799C185.181 157.951 185.87 152.203 186.558 146.354C186.656 146.152 186.361 145.85 186.263 145.85Z" fill="#7398FF"/>
    <path d="M148.124 250.427C147.928 250.427 147.633 250.427 147.436 250.427C147.24 250.427 147.043 250.427 146.846 250.327C143.406 249.822 140.064 249.318 136.82 248.814C130.136 247.705 105.464 242.562 100.352 241.049V241.15L99.9589 241.049C98.4845 240.747 97.1083 240.545 95.9288 238.831C95.0441 237.621 94.6509 236.108 94.9458 234.293C94.9458 234.192 94.9458 234.091 94.9458 234.091C95.5356 228.747 102.711 160.378 102.711 159.672C102.711 159.571 102.711 159.47 102.81 159.369C103.006 157.554 104.284 156.142 106.053 155.739C106.545 155.638 107.233 155.638 107.921 155.739C109.789 156.041 111.558 156.445 113.229 156.848C114.998 157.252 116.669 157.554 118.537 157.957L158.052 165.319C160.805 164.512 163.557 163.403 166.113 162.193C169.946 158.562 173.288 154.831 176.63 151.302C178.793 148.882 180.857 146.663 183.02 144.445C184.789 142.63 186.46 143.336 187.05 143.537C187.934 143.84 189.114 145.05 188.917 146.663C188.229 152.512 187.541 158.26 186.853 164.109C185.575 174.293 184.297 184.579 182.921 194.764C181.545 204.949 180.071 215.335 178.596 225.52C178.596 225.823 178.498 226.125 178.301 226.327C177.908 228.142 176.63 229.554 175.549 230.764C173.976 232.478 172.305 234.293 170.438 236.108C167.292 239.335 163.95 242.562 160.608 245.688C158.937 247.201 156.578 247.906 154.514 248.612C154.022 248.814 153.531 248.915 153.039 249.117C152.744 249.217 152.449 249.318 152.154 249.419C151.171 249.923 149.697 250.427 148.124 250.427ZM147.829 245.587C148.616 245.688 149.697 245.285 150.68 244.881C150.975 244.78 151.368 244.68 151.663 244.478C152.154 244.276 152.744 244.175 153.236 243.974C154.71 243.47 156.676 242.965 157.462 242.159C160.805 239.033 164.048 235.907 167.096 232.68C168.865 230.865 170.536 229.15 172.109 227.436C172.6 226.831 173.583 225.823 173.681 225.016C173.681 224.713 173.78 224.512 173.878 224.209C175.352 214.125 176.827 203.94 178.105 193.957C179.481 183.772 180.759 173.487 182.037 163.403C182.528 159.168 183.118 154.831 183.609 150.495C182.43 151.806 181.152 153.117 179.874 154.529C176.434 158.26 172.993 162.092 168.865 165.924C168.668 166.125 168.373 166.327 168.078 166.428C165.031 167.84 161.886 169.05 158.642 169.957C158.249 170.058 157.954 170.058 157.561 170.058L117.554 162.596C115.686 162.294 113.917 161.89 112.148 161.487C110.477 161.184 108.904 160.781 107.135 160.478C106.545 166.125 100.156 228.142 99.3692 234.394C99.3692 234.495 99.3692 234.596 99.3692 234.696C99.2709 235.503 99.3692 235.705 99.4675 235.806C99.5658 235.907 99.5658 235.907 99.5658 235.907C99.6641 236.007 100.254 236.108 100.647 236.108L101.04 236.209C101.139 236.209 101.139 236.209 101.237 236.209C102.613 236.512 125.418 241.856 137.41 243.772C140.654 244.276 144.094 244.881 147.535 245.285C147.731 245.587 147.731 245.587 147.829 245.587Z" fill="#1E3D74"/>
    <path d="M174.961 210.091C174.568 213.62 174.076 217.15 173.683 220.78C173.585 221.284 173.29 221.788 172.995 222.192C170.931 224.309 168.867 226.427 166.704 228.545C166.409 228.847 166.016 229.15 165.819 229.15C165.328 229.15 164.542 229.15 164.542 228.141C165.328 216.847 166.802 206.259 168.178 194.965C168.572 191.637 168.965 188.41 169.456 185.083C169.456 184.78 169.751 183.873 169.85 182.663C170.439 180.948 175.256 176.612 178.991 173.083C179.188 172.881 179.384 173.486 179.384 173.688C177.91 185.789 176.435 197.889 174.961 210.091Z" fill="#4A50FF"/>
    <path d="M149.01 250.423C148.912 250.423 148.814 250.423 148.715 250.423C147.438 250.221 146.455 249.112 146.651 247.7L155.793 167.432C155.989 166.121 157.071 165.213 158.447 165.314C159.725 165.516 160.708 166.625 160.511 168.037L151.369 248.305C151.271 249.515 150.19 250.423 149.01 250.423Z" fill="#1E3D74"/>
    <path d="M159.135 246.39C159.037 246.39 158.939 246.39 158.84 246.39C157.562 246.289 156.579 245.079 156.776 243.768L165.033 164.004C165.131 162.693 166.311 161.684 167.589 161.886C168.866 161.987 169.849 163.197 169.653 164.508L161.396 244.272C161.298 245.482 160.315 246.39 159.135 246.39Z" fill="#1E3D74"/>
</svg>
